<svg width="40" height="40" viewBox="0 0 40 40" fill="none" xmlns="http://www.w3.org/2000/svg">
<path d="M4.93598 26.1441C7.15998 28.4881 10.36 29.9361 13.544 30.2801V36.32C13.544 37.4561 14.472 38.384 15.608 38.384H32.528C33.232 38.384 33.264 37.2561 32.528 37.2561H15.616C15.096 37.2561 14.68 36.8321 14.68 36.32V27.68C14.68 27.1601 15.104 26.744 15.616 26.744H37.168C37.688 26.744 38.104 27.1681 38.104 27.68V36.32C38.104 36.84 37.68 37.2561 37.168 37.2561H35.544C34.84 37.2561 34.808 38.384 35.544 38.384H37.168C38.304 38.384 39.232 37.4561 39.232 36.32V27.68C39.232 26.5441 38.304 25.6161 37.168 25.6161H36.096C36.096 23.3921 36.096 20.3121 36.096 18.0881C36.096 17.7761 35.84 17.5281 35.536 17.5281H30C30 16.3521 30 13.8881 30 12.6961C30 12.3841 29.744 12.1361 29.44 12.1361H28.96C27.336 6.05607 21.432 1.52007 15.112 1.62407C13.36 1.62407 11.656 1.93607 10.032 2.55207C9.36796 2.80007 9.74396 3.86407 10.432 3.60807C11.752 3.11207 13.136 2.82407 14.552 2.76807V14.6401L6.15198 6.23207C6.67998 5.74407 7.25598 5.29607 7.86398 4.89607C8.45596 4.51207 7.86398 3.55207 7.24798 3.95207C-0.328022 8.72805 -1.46402 19.9121 4.93598 26.1441ZM34.968 22.9201H30V21.3521H34.968V22.9201ZM23.904 18.656H28.872V20.2241H23.904V18.656ZM23.904 21.3521H28.872V22.9201H23.904V21.3521ZM28.872 17.5281H23.904V15.9601H28.872V17.5281ZM28.872 13.2561V14.8241H23.904V13.2561H28.872ZM22.776 22.9201H17.808V21.3521H22.776V22.9201ZM17.808 24.0481H22.776V25.6161H17.808V24.0481ZM23.904 24.0481H28.872V25.6161H23.904V24.0481ZM30 25.6161V24.0481H34.968V25.6161H30ZM34.968 20.2241H30V18.656H34.968V20.2241ZM27.784 12.1281H23.344C23.032 12.1281 22.784 12.3841 22.784 12.6881C22.784 14.9121 22.784 17.9921 22.784 20.2161H17.256C16.944 20.2161 16.696 20.4721 16.696 20.7761C16.696 21.9681 16.696 24.4241 16.696 25.6081H15.624C14.488 25.6081 13.56 26.5361 13.56 27.6721V29.1361C10.792 28.8081 8.21596 27.6241 6.15998 25.7361L15.52 16.3761C15.624 16.2721 15.688 16.1281 15.688 15.9761V2.76007C21.168 2.90407 26.24 6.87207 27.784 12.1281ZM5.35198 7.03207L14.312 15.9921L5.35198 24.9521C0.719978 20.1201 0.751978 11.8241 5.35198 7.03207Z" fill="#011840"/>
<path d="M25.4559 29.784C26.1999 29.76 26.1999 28.68 25.4559 28.656H23.1039C22.7919 28.656 22.5439 28.912 22.5439 29.216V34.8C22.5439 35.112 22.7999 35.36 23.1039 35.36H25.4559C26.1999 35.336 26.1999 34.256 25.4559 34.232H23.6719V32.568H25.2879C26.0319 32.544 26.0319 31.464 25.2879 31.44H23.6719V29.776H25.4559V29.784Z" fill="#011840"/>
<path d="M16.5918 34.7119C16.5918 35.0479 16.7918 35.3679 17.1678 35.3679C17.2158 35.3679 18.3198 35.3599 18.7598 35.3519C22.3838 35.2879 22.3838 28.7119 18.7038 28.7679H17.1598C16.8398 28.7679 16.5998 29.0239 16.5998 29.3359L16.5918 34.7119ZM18.7038 29.9039C20.9278 29.8639 20.8718 34.1999 18.7358 34.2319C18.5038 34.2399 18.0718 34.2399 17.7198 34.2399C17.7118 32.7919 17.7198 31.3519 17.7198 29.9039H18.7038Z" fill="#011840"/>
<path d="M29.3356 28.6079H27.7036C27.3916 28.6079 27.1436 28.8639 27.1436 29.1679C27.1436 30.5599 27.1436 33.3999 27.1436 34.7999C27.1436 35.0799 27.4236 35.3599 27.7116 35.3599H29.6316C31.6636 35.3439 32.4716 32.7359 30.8316 31.5759C31.7436 30.3839 30.8636 28.5999 29.3356 28.6079ZM29.3356 29.7359C30.3036 29.7759 30.3036 31.1599 29.3356 31.1999C28.9756 31.1999 28.6236 31.1999 28.2636 31.1999V29.7359H29.3356ZM29.6236 34.2319C29.3756 34.2319 28.7356 34.2319 28.2636 34.2399V32.3359C28.7196 32.3359 29.1676 32.3359 29.6236 32.3359C30.8876 32.3839 30.8876 34.1839 29.6236 34.2319Z" fill="#011840"/>
<path d="M34.0563 35.3921C34.3683 35.3921 34.6163 35.1361 34.6163 34.8321V29.7601H35.6163C36.3603 29.7361 36.3603 28.6561 35.6163 28.6321H32.5043C31.7603 28.6561 31.7603 29.7361 32.5043 29.7601H33.4883V34.8241C33.4963 35.1441 33.7443 35.3921 34.0563 35.3921Z" fill="#011840"/>
</svg>
