<svg width="41" height="41" viewBox="0 0 41 41" fill="none" xmlns="http://www.w3.org/2000/svg">
<mask id="mask0_1104_27" style="mask-type:luminance" maskUnits="userSpaceOnUse" x="0" y="0" width="41" height="41">
<path d="M41 0H0V41H41V0Z" fill="white"/>
</mask>
<g mask="url(#mask0_1104_27)">
<path d="M1.70605 28.0193C1.70605 29.1484 2.62696 30.0693 3.75606 30.0693H7.33556C7.83204 31.1664 9.82598 33.0723 17.4975 33.4246C17.5135 33.4726 17.5295 33.5287 17.5455 33.5767C16.3924 34.3295 15.6156 35.5387 15.4154 36.9H10.5867C9.07324 36.9 7.85606 38.1252 7.85606 39.6307C7.85606 40.3834 8.46465 41 9.22539 41H31.0947C31.8475 41 32.4641 40.3914 32.4641 39.6307C32.4641 38.1172 31.2389 36.9 29.7334 36.9H24.8967C24.7045 35.5387 23.9277 34.3215 22.7746 33.5848C22.7906 33.5287 22.8147 33.4807 22.8227 33.4246C30.5022 33.0723 32.4881 31.1664 32.9846 30.0693H37.2447C38.3738 30.0693 39.2947 29.1484 39.2947 28.0193C39.2947 26.8902 38.3738 25.9693 37.2447 25.9693H36.4359C36.516 25.7531 36.5561 25.5209 36.5641 25.2887V18.458C37.6932 18.458 38.6141 17.5371 38.6141 16.408V11.6273C38.6141 9.5453 37.2688 7.71152 35.2908 7.0709C36.9324 5.50937 36.9965 2.91484 35.435 1.27324C33.8734 -0.36836 31.2709 -0.44043 29.6293 1.12109C27.9877 2.68262 27.9236 5.27715 29.4852 6.91875C29.5332 6.96679 29.5813 7.01484 29.6293 7.06289C27.6514 7.69551 26.3061 9.53729 26.3061 11.6193V16.4C26.3061 17.5291 27.227 18.45 28.3561 18.45V25.2807C28.3561 25.5129 28.4041 25.7451 28.4842 25.9613H27.6754C26.5463 25.9613 25.6254 26.8822 25.6254 28.0113C25.6254 29.1404 26.5463 30.0613 27.6754 30.0613H31.2389C30.2939 30.8301 27.9236 31.807 22.7746 32.0473C22.3742 30.5978 20.8768 29.757 19.4273 30.1574C18.5145 30.4137 17.7938 31.1264 17.5375 32.0473C12.3484 31.799 9.97813 30.8141 9.04922 30.0613H13.3174C14.4465 30.0613 15.3674 29.1404 15.3674 28.0113C15.3674 26.8822 14.4465 25.9613 13.3174 25.9613H12.5086C12.5887 25.7451 12.6287 25.5129 12.6367 25.2807V18.45C13.7658 18.45 14.6867 17.5291 14.6867 16.4V11.6193C14.6867 9.53729 13.3414 7.70351 11.3635 7.06289C13.0051 5.50137 13.0691 2.90683 11.5076 1.26523C9.94609 -0.376368 7.35958 -0.44043 5.71798 1.12109C4.07638 2.68262 4.0123 5.27715 5.57383 6.91875C5.62188 6.96679 5.66993 7.01484 5.71798 7.06289C3.74005 7.69551 2.39473 9.53729 2.39473 11.6193V16.4C2.39473 17.5291 3.31563 18.45 4.44473 18.45V25.2807C4.44473 25.5129 4.49277 25.7451 4.57285 25.9613H3.75606C2.62696 25.9693 1.70605 26.8822 1.70605 28.0193ZM32.4561 1.36933C33.9695 1.36933 35.1867 2.59453 35.1867 4.1C35.1867 5.60547 33.9615 6.83066 32.4561 6.83066C30.9426 6.83066 29.7254 5.60547 29.7254 4.1C29.7254 2.59453 30.9506 1.36933 32.4561 1.36933ZM29.7254 25.2807V17.9135C30.1578 17.5291 30.4061 16.9766 30.4061 16.4V11.6193C30.4061 11.243 30.1018 10.9387 29.7254 10.9387C29.349 10.9387 29.0447 11.243 29.0447 11.6193V16.4C29.0447 16.7764 28.7404 17.0807 28.3641 17.0807C27.9877 17.0807 27.6834 16.7764 27.6834 16.4V11.6193C27.6834 9.72948 29.2129 8.208 31.1027 8.19999H33.8334C35.7232 8.19999 37.2447 9.72948 37.2527 11.6193V16.4C37.2527 16.7764 36.9484 17.0807 36.5721 17.0807C36.1957 17.0807 35.8914 16.7764 35.8914 16.4V11.6193C35.8914 11.243 35.5871 10.9387 35.2107 10.9387C34.8344 10.9387 34.5301 11.243 34.5301 11.6193V16.4C34.5301 16.9766 34.7783 17.5291 35.2107 17.9135V25.2807C35.2107 25.657 34.9065 25.9613 34.5301 25.9613H33.1607V16.4C33.1607 16.0236 32.8564 15.7193 32.4801 15.7193C32.1037 15.7193 31.7994 16.0236 31.7994 16.4V25.9693H30.4301C30.0297 25.9693 29.7254 25.657 29.7254 25.2807ZM26.9947 28.0193C26.9947 27.643 27.299 27.3387 27.6754 27.3387H37.2447C37.6211 27.3387 37.9254 27.643 37.9254 28.0193C37.9254 28.3957 37.6211 28.7 37.2447 28.7H32.5682C32.5361 28.692 32.5041 28.684 32.4641 28.676C32.424 28.676 32.384 28.684 32.3439 28.7H27.6754C27.299 28.7 26.9947 28.3957 26.9947 28.0193ZM31.0947 39.6307H9.22539C9.22539 38.8779 9.83399 38.2613 10.5947 38.2613H29.7254C30.4781 38.2693 31.0947 38.8779 31.0947 39.6307ZM16.8168 36.9C16.993 36.0271 17.5055 35.2504 18.2502 34.7539C19.3072 35.7949 21.0049 35.7949 22.0619 34.7539C22.2461 34.874 22.4143 35.0182 22.5744 35.1703C23.0469 35.6428 23.3752 36.2433 23.5033 36.9H16.8168ZM20.1561 31.4307C20.9088 31.4307 21.5254 32.0392 21.5254 32.8C21.5254 33.5527 20.9168 34.1693 20.1561 34.1693C19.3953 34.1693 18.7867 33.5607 18.7867 32.8C18.7947 32.0473 19.4033 31.4307 20.1561 31.4307ZM14.0061 28.0193C14.0061 28.3957 13.7018 28.7 13.3254 28.7H3.75606C3.3797 28.7 3.0754 28.3957 3.0754 28.0193C3.0754 27.643 3.3797 27.3387 3.75606 27.3387H13.3254C13.7018 27.3307 14.0061 27.643 14.0061 28.0193ZM8.54473 1.36933C10.0582 1.36933 11.2754 2.59453 11.2754 4.1C11.2754 5.60547 10.0502 6.83066 8.54473 6.83066C7.03926 6.83066 5.80606 5.61347 5.80606 4.1C5.80606 2.58652 7.03125 1.36933 8.54473 1.36933ZM5.80606 25.2807V17.9135C6.23848 17.5291 6.48672 16.9766 6.48672 16.4V11.6193C6.48672 11.243 6.18242 10.9387 5.80606 10.9387C5.42969 10.9387 5.12539 11.243 5.12539 11.6193V16.4C5.12539 16.7764 4.82109 17.0807 4.44473 17.0807C4.06836 17.0807 3.76406 16.7764 3.76406 16.4V11.6193C3.76406 9.72948 5.29355 8.208 7.1834 8.19999H9.91406C11.8039 8.19999 13.3254 9.72948 13.3334 11.6193V16.4C13.3334 16.7764 13.0291 17.0807 12.6527 17.0807C12.2764 17.0807 11.9721 16.7764 11.9721 16.4V11.6193C11.9721 11.243 11.6678 10.9387 11.2914 10.9387C10.915 10.9387 10.6107 11.243 10.6107 11.6193V16.4C10.6107 16.9766 10.859 17.5291 11.2914 17.9135V25.2807C11.2914 25.657 10.9871 25.9613 10.6107 25.9613H9.24141V16.4C9.24141 16.0236 8.93711 15.7193 8.56074 15.7193C8.18438 15.7193 7.88009 16.0236 7.88009 16.4V25.9693H6.49473C6.11836 25.9693 5.80606 25.657 5.80606 25.2807Z" fill="#022158"/>
</g>
</svg>
