<svg width="40" height="40" viewBox="0 0 40 40" fill="none" xmlns="http://www.w3.org/2000/svg">
<g clip-path="url(#clip0_1104_2)">
<path d="M24.6794 19.9219L24.2341 19.6719C24.2419 19.5703 24.2497 19.4688 24.2497 19.375C24.2497 19.2734 24.2419 19.1797 24.2341 19.0781L24.6794 18.8281C24.9294 18.6875 25.0544 18.3984 24.9763 18.125C24.7419 17.2422 24.2653 16.4375 23.6013 15.8125C23.4059 15.625 23.1013 15.5859 22.8669 15.7188L22.4216 16C22.2341 15.875 22.0388 15.7656 21.8356 15.6641V15.1641C21.8356 14.8828 21.6481 14.6328 21.3747 14.5625C20.4763 14.3203 19.5309 14.3203 18.6403 14.5625C18.3669 14.6328 18.1794 14.8828 18.1794 15.1641V15.6562C17.9841 15.7422 17.7966 15.8516 17.6169 15.9766L17.1403 15.7109C16.8981 15.5781 16.6013 15.6172 16.4059 15.8047C15.7419 16.4375 15.2653 17.2344 15.0309 18.1172C14.9606 18.3906 15.0778 18.6875 15.3278 18.8203L15.7731 19.0703C15.7653 19.1719 15.7575 19.2734 15.7575 19.3672C15.7575 19.4688 15.7653 19.5703 15.7731 19.6641L15.3278 19.9141C15.0778 20.0547 14.9528 20.3438 15.0309 20.625C15.2653 21.5078 15.7419 22.3125 16.4059 22.9375C16.6013 23.125 16.9059 23.1641 17.1403 23.0312L17.5856 22.75C17.7731 22.875 17.9684 22.9844 18.1716 23.0859V23.5859C18.1716 23.8672 18.3591 24.1172 18.6325 24.1875C19.0778 24.3047 19.5388 24.3672 19.9997 24.3672H20.0622C20.4997 24.3594 20.9372 24.2969 21.3669 24.1797C21.6403 24.1094 21.8278 23.8594 21.8278 23.5781V23.0859C22.0231 23 22.2106 22.8906 22.3903 22.7656L22.8669 23.0312C23.1091 23.1641 23.4059 23.125 23.6013 22.9375C24.2653 22.3047 24.7419 21.5078 24.9763 20.625C25.0544 20.3594 24.9294 20.0625 24.6794 19.9219ZM22.945 18.8516C23.0153 19.1953 23.0153 19.5469 22.945 19.8906C22.8903 20.1563 23.0153 20.4219 23.2575 20.5547L23.6247 20.7578C23.4841 21.1016 23.2888 21.4141 23.0544 21.7031L23.0075 21.6797C22.6091 21.4531 22.1091 21.4688 21.7263 21.7188C21.5856 21.8125 21.4372 21.8984 21.2809 21.9688C20.8591 22.1641 20.5856 22.5859 20.5856 23.0547V23.0781C20.4059 23.1016 20.2341 23.1172 20.0544 23.125C19.8434 23.125 19.6325 23.1094 19.4216 23.0859V23.0625C19.4216 22.5938 19.1559 22.1719 18.7263 21.9766C18.57 21.9062 18.4216 21.8203 18.2809 21.7266C17.8981 21.4766 17.3981 21.4609 16.9997 21.6875L16.9528 21.7109C16.7184 21.4297 16.5231 21.1094 16.3825 20.7656L16.7497 20.5625C16.9841 20.4297 17.1091 20.1641 17.0622 19.8984C16.9919 19.5547 16.9919 19.1953 17.0622 18.8516C17.1091 18.5859 16.9841 18.3203 16.7497 18.1875L16.3825 17.9844C16.5231 17.6406 16.7184 17.3281 16.9528 17.0391L16.9997 17.0625C17.3981 17.2891 17.8981 17.2734 18.2809 17.0234C18.4216 16.9297 18.57 16.8438 18.7263 16.7734C19.1481 16.5781 19.4216 16.1563 19.4216 15.6875V15.6641C19.8044 15.6016 20.2028 15.6016 20.5856 15.6641V15.6875C20.5856 16.1563 20.8512 16.5781 21.2809 16.7734C21.4372 16.8438 21.5856 16.9297 21.7263 17.0234C22.1091 17.2734 22.6091 17.2891 23.0075 17.0625L23.0544 17.0391C23.2888 17.3281 23.4841 17.6406 23.6247 17.9844L23.2575 18.1875C23.0153 18.3203 22.8903 18.5859 22.945 18.8516Z" fill="#011840"/>
<path d="M20 17.1875C18.7891 17.1875 17.8125 18.1641 17.8125 19.375C17.8125 20.5859 18.7891 21.5625 20 21.5625C21.2109 21.5625 22.1875 20.5859 22.1875 19.375C22.1875 18.1641 21.2109 17.1875 20 17.1875ZM20 20.3125C19.4844 20.3125 19.0625 19.8906 19.0625 19.375C19.0625 18.8594 19.4844 18.4375 20 18.4375C20.5156 18.4375 20.9375 18.8594 20.9375 19.375C20.9375 19.8906 20.5156 20.3125 20 20.3125Z" fill="#011840"/>
<path d="M13.75 12.5C12.7187 12.5 11.875 13.3438 11.875 14.375V25H11.25C10.9062 25 10.625 25.2812 10.625 25.625V26.875C10.625 27.9062 11.4687 28.75 12.5 28.75H27.5C28.5312 28.75 29.375 27.9062 29.375 26.875V25.625C29.375 25.2812 29.0937 25 28.75 25H28.125V14.375C28.125 13.3438 27.2812 12.5 26.25 12.5H13.75ZM28.125 26.875C28.125 27.2188 27.8437 27.5 27.5 27.5H12.5C12.1562 27.5 11.875 27.2188 11.875 26.875V26.25H28.125V26.875ZM26.875 14.375V25H13.125V14.375C13.125 14.0312 13.4062 13.75 13.75 13.75H26.25C26.5937 13.75 26.875 14.0312 26.875 14.375ZM1.25 34.375H2.5V38.75C2.5 39.0938 2.78125 39.375 3.125 39.375H10.625C10.9687 39.375 11.25 39.0938 11.25 38.75V34.375H12.5C12.8437 34.375 13.125 34.0938 13.125 33.75C13.125 33.5859 13.0625 33.4219 12.9453 33.3047L7.32031 27.6797C7.07812 27.4375 6.67969 27.4375 6.4375 27.6797L0.8125 33.3047C0.570312 33.5469 0.570312 33.9453 0.8125 34.1875C0.921875 34.3125 1.08594 34.375 1.25 34.375ZM7.5 38.125H6.25V36.25H7.5V38.125ZM6.875 29.0078L10.9922 33.125H10.625C10.2812 33.125 9.99998 33.4062 9.99998 33.75V38.125H8.74998V35.625C8.74998 35.2812 8.46873 35 8.12498 35H5.625C5.28125 35 5 35.2812 5 35.625V38.125H3.75V33.75C3.75 33.4062 3.46875 33.125 3.125 33.125H2.75781L6.875 29.0078ZM30 15H38.75C39.0937 15 39.375 14.7188 39.375 14.375V1.875C39.375 1.1875 38.8125 0.625 38.125 0.625H30.625C29.9375 0.625 29.375 1.1875 29.375 1.875V14.375C29.375 14.7188 29.6562 15 30 15ZM35 11.875V13.75H33.75V11.875H35ZM30.625 1.875H38.125V13.75H36.25V11.875H36.875V10.625H31.875V11.875H32.5V13.75H30.625V1.875Z" fill="#011840"/>
<path d="M31.25 3.125H32.5V4.375H31.25V3.125ZM33.75 3.125H35V4.375H33.75V3.125ZM36.25 3.125H37.5V4.375H36.25V3.125ZM31.25 5.625H32.5V6.875H31.25V5.625ZM33.75 5.625H35V6.875H33.75V5.625ZM36.25 5.625H37.5V6.875H36.25V5.625ZM31.25 8.125H32.5V9.375H31.25V8.125ZM33.75 8.125H35V9.375H33.75V8.125ZM36.25 8.125H37.5V9.375H36.25V8.125ZM4.375 15.625C4.38281 10.4531 8.57812 6.25781 13.75 6.25H22.5V7.5C22.5 7.84375 22.7812 8.125 23.125 8.125C23.2422 8.125 23.3516 8.09375 23.4453 8.03906L26.5703 6.16406C26.8672 5.98438 26.9609 5.60156 26.7812 5.30469C26.7266 5.21875 26.6562 5.14062 26.5703 5.09375L23.4453 3.21875C23.1484 3.03906 22.7656 3.14063 22.5859 3.42969C22.5312 3.52344 22.5 3.64063 22.5 3.75V5H13.75C7.88281 5.00781 3.13281 9.75781 3.125 15.625V25.625H4.375V15.625ZM23.75 4.85156L25.0312 5.625L23.75 6.39844V4.85156ZM36.875 25V18.75H35.625V25C35.6172 30.1719 31.4219 34.3672 26.25 34.375H20V33.125C20 32.7813 19.7188 32.5 19.375 32.5C19.2578 32.5 19.1484 32.5313 19.0547 32.5859L15.9297 34.4609C15.6328 34.6406 15.5391 35.0234 15.7188 35.3203C15.7734 35.4063 15.8437 35.4844 15.9297 35.5313L19.0547 37.4063C19.3516 37.5859 19.7344 37.4844 19.9141 37.1953C19.9688 37.1016 20 36.9844 20 36.875V35.625H26.25C32.1172 35.6172 36.8672 30.8672 36.875 25ZM18.75 35.7734L17.4688 35L18.75 34.2266V35.7734Z" fill="#011840"/>
</g>
<defs>
<clipPath id="clip0_1104_2">
<rect width="40" height="40" fill="white"/>
</clipPath>
</defs>
</svg>
