<svg width="40" height="40" viewBox="0 0 40 40" fill="none" xmlns="http://www.w3.org/2000/svg">
<path d="M0 4.28571V13.6607C0 16.0268 1.91964 17.9464 4.28571 17.9464H13.6607C16.0268 17.9464 17.9464 16.0268 17.9464 13.6607V4.28571C17.9464 1.91964 16.0268 0 13.6607 0H4.28571C1.91964 0 0 1.91964 0 4.28571ZM2.85714 4.28571C2.85714 3.5 3.5 2.85714 4.28571 2.85714H13.6607C14.4464 2.85714 15.0893 3.5 15.0893 4.28571V13.6607C15.0893 14.4464 14.4464 15.0893 13.6607 15.0893H4.28571C3.5 15.0893 2.85714 14.4464 2.85714 13.6607V4.28571ZM0 35.7143C0 38.0804 1.91964 40 4.28571 40H13.6607C16.0268 40 17.9464 38.0804 17.9464 35.7143V26.3393C17.9464 23.9732 16.0268 22.0536 13.6607 22.0536H4.28571C1.91964 22.0536 0 23.9732 0 26.3393V35.7143ZM2.85714 26.3393C2.85714 25.5536 3.5 24.9107 4.28571 24.9107H13.6607C14.4464 24.9107 15.0893 25.5536 15.0893 26.3393V35.7143C15.0893 36.5 14.4464 37.1429 13.6607 37.1429H4.28571C3.5 37.1429 2.85714 36.5 2.85714 35.7143V26.3393ZM35.7143 22.0536H26.3393C23.9732 22.0536 22.0536 23.9732 22.0536 26.3393V35.7143C22.0536 38.0804 23.9732 40 26.3393 40H35.7143C38.0804 40 40 38.0804 40 35.7143V26.3393C40 23.9732 38.0804 22.0536 35.7143 22.0536ZM37.1429 35.7143C37.1429 36.5 36.5 37.1429 35.7143 37.1429H26.3393C25.5536 37.1429 24.9107 36.5 24.9107 35.7143V26.3393C24.9107 25.5536 25.5536 24.9107 26.3393 24.9107H35.7143C36.5 24.9107 37.1429 25.5536 37.1429 26.3393V35.7143ZM38.5714 7.54464H32.4554V1.42857C32.4554 0.642857 31.8125 0 31.0268 0C30.2411 0 29.5982 0.642857 29.5982 1.42857V7.54464H23.4821C22.6964 7.54464 22.0536 8.1875 22.0536 8.97321C22.0536 9.75893 22.6964 10.4018 23.4821 10.4018H29.5982V16.5179C29.5982 17.3036 30.2411 17.9464 31.0268 17.9464C31.8125 17.9464 32.4554 17.3036 32.4554 16.5179V10.4018H38.5714C39.3571 10.4018 40 9.75893 40 8.97321C40 8.1875 39.3571 7.54464 38.5714 7.54464Z" fill="#011840"/>
</svg>
