<svg width="40" height="40" viewBox="0 0 40 40" fill="none" xmlns="http://www.w3.org/2000/svg">
<g clip-path="url(#clip0_1104_7)">
<mask id="mask0_1104_7" style="mask-type:luminance" maskUnits="userSpaceOnUse" x="0" y="0" width="40" height="40">
<path d="M40 0H0V40H40V0Z" fill="white"/>
</mask>
<g mask="url(#mask0_1104_7)">
<path d="M3.33594 4H12V5.33594H3.33594V4ZM3.33594 6.66406H12V8H3.33594V6.66406ZM3.33594 9.33594H9.33594V10.6719H3.33594V9.33594ZM3.33594 12H9.33594V13.3359H3.33594V12ZM0 38.6641H40V40H0V38.6641ZM38.5938 5.70312L35.9297 0.367185C35.7656 0.0390604 35.3672 -0.0937523 35.0391 0.0703104L29.7031 2.73438C29.375 2.90625 29.25 3.30469 29.4141 3.63281C29.5781 3.95312 29.9688 4.08594 30.2969 3.92969L34.1562 2L33.1016 5.00781C28.4766 18.2031 16.5391 27.4609 2.60938 28.6641L2.72656 30C17.1797 28.75 29.5625 19.1406 34.3672 5.45312L35.4453 2.375L37.4062 6.29688C37.5781 6.625 37.9766 6.75 38.3047 6.58594C38.625 6.42188 38.75 6.03125 38.5938 5.70312ZM8 32H3.33594C2.96875 32 2.67188 32.2969 2.67188 32.6641V36.6641C2.67188 37.0312 2.96875 37.3281 3.33594 37.3281H8C8.36719 37.3281 8.66406 37.0312 8.66406 36.6641V32.6641C8.66406 32.2969 8.36719 32 8 32ZM7.33594 36H4V33.3359H7.33594V36ZM15.3359 30H10.6719C10.3047 30 10.0078 30.2969 10.0078 30.6641V36.6641C10.0078 37.0312 10.3047 37.3281 10.6719 37.3281H15.3359C15.7031 37.3281 16 37.0312 16 36.6641V30.6641C16 30.2969 15.7031 30 15.3359 30ZM14.6641 36H11.3281V31.3359H14.6641V36ZM22.6641 26.6641H18C17.6328 26.6641 17.3359 26.9609 17.3359 27.3281V36.6641C17.3359 37.0312 17.6328 37.3281 18 37.3281H22.6641C23.0312 37.3281 23.3281 37.0312 23.3281 36.6641V27.3359C23.3359 26.9688 23.0312 26.6641 22.6641 26.6641ZM22 36H18.6641V28H22V36Z" fill="#011840"/>
<path d="M30 22H25.3359C24.9688 22 24.6719 22.2969 24.6719 22.6641V36.6641C24.6719 37.0312 24.9688 37.3281 25.3359 37.3281H30C30.3672 37.3281 30.6641 37.0312 30.6641 36.6641V22.6641C30.6641 22.2969 30.3672 22 30 22ZM29.3359 36H26V23.3359H29.3359V36ZM37.3359 12.6641H32.6719C32.3047 12.6641 32.0078 12.9609 32.0078 13.3281V36.6641C32.0078 37.0312 32.3047 37.3281 32.6719 37.3281H37.3359C37.7031 37.3281 38 37.0312 38 36.6641V13.3359C38 12.9687 37.7031 12.6641 37.3359 12.6641ZM36.6641 36H33.3281V14H36.6641V36Z" fill="#011840"/>
</g>
</g>
<defs>
<clipPath id="clip0_1104_7">
<rect width="40" height="40" fill="white"/>
</clipPath>
</defs>
</svg>
