<svg width="64" height="64" viewBox="0 0 64 64" fill="none" xmlns="http://www.w3.org/2000/svg">
<g clip-path="url(#clip0_4582_20)">
<path d="M32.1069 22.3281C32.9878 22.3281 33.7012 21.6143 33.7012 20.7339C33.7012 19.8535 32.9878 19.1396 32.1069 19.1396C25.0635 19.1396 19.3535 24.8496 19.3535 31.8935C19.3535 38.937 25.0635 44.6469 32.1069 44.6469C39.1509 44.6469 44.8608 38.937 44.8608 31.8935C44.8608 31.0127 44.1469 30.2993 43.2666 30.2993C42.3862 30.2993 41.6723 31.0127 41.6723 31.8935C41.6723 37.1762 37.3901 41.459 32.1069 41.459C26.8242 41.459 22.5415 37.1762 22.5415 31.8935C22.5415 26.6103 26.8242 22.3281 32.1069 22.3281Z" fill="white"/>
<path d="M62.5248 22.4243C62.248 21.5879 61.3456 21.1343 60.5087 21.4111C59.6913 21.6816 59.2362 22.5518 59.4799 23.3774C64.2475 38.5595 55.8051 54.7319 40.623 59.4995C25.4414 64.267 9.26901 55.8247 4.50144 40.6425C-0.266617 25.4604 8.17624 9.2881 23.3579 4.52053C28.978 2.75588 35.0034 2.75588 40.623 4.52053C41.4667 4.77492 42.3569 4.29738 42.6113 3.45363C42.8617 2.62258 42.4023 1.74416 41.5766 1.47561C24.7187 -3.81345 6.76462 5.56496 1.47557 22.4233C-3.81349 39.2812 5.56541 57.2353 22.4233 62.5244C39.2817 67.8134 57.2353 58.435 62.5243 41.5766C64.4804 35.3423 64.4804 28.6587 62.5248 22.4243Z" fill="white"/>
<path d="M35.143 11.3896C35.1513 10.4819 34.4541 9.72314 33.5488 9.65527C33.0727 9.61475 32.5962 9.57422 32.1074 9.57422C19.7807 9.57422 9.78809 19.5669 9.78809 31.8935C9.78809 44.2197 19.7807 54.2123 32.1074 54.2123C44.4335 54.2123 54.4262 44.2197 54.4262 31.8935C54.4262 31.3169 54.3911 30.7407 54.3203 30.1684C54.1928 29.2934 53.3803 28.6875 52.5053 28.8149C51.6303 28.9419 51.0244 29.7549 51.1513 30.6299C51.1562 30.6631 51.1621 30.6958 51.1689 30.729C51.2036 31.1152 51.2377 31.498 51.2377 31.8925C51.2382 42.4585 42.6733 51.0234 32.1079 51.0244C21.542 51.0248 12.977 42.4594 12.9766 31.894C12.9761 21.3286 21.5405 12.7632 32.1064 12.7627H32.1069C32.5024 12.7627 32.8857 12.7969 33.271 12.8311L33.5698 12.856C34.4028 12.8916 35.1069 12.2451 35.1421 11.4121C35.1425 11.4043 35.1425 11.397 35.143 11.3896Z" fill="white"/>
<path d="M41.6722 14.3569V20.0737L30.9799 30.7661C30.3466 31.3779 30.329 32.3872 30.9408 33.0205C31.5526 33.6538 32.5619 33.6713 33.1952 33.0595C33.2084 33.0468 33.2216 33.0336 33.2342 33.0205L43.9266 22.3281H49.6434C50.0663 22.3281 50.4715 22.1601 50.7708 21.8608L60.3358 12.2954C60.9583 11.6728 60.9583 10.6636 60.3358 10.041C60.0369 9.74218 59.6317 9.57421 59.2088 9.57421H54.4261V4.7915C54.4261 3.91113 53.7122 3.19727 52.8314 3.19775C52.409 3.19775 52.0038 3.36572 51.7049 3.66455L42.1395 13.23C41.8402 13.5288 41.6722 13.9341 41.6722 14.3569ZM44.8607 15.0171L51.2376 8.64013V11.1684C51.2376 12.0488 51.9515 12.7627 52.8319 12.7627H55.3602L48.9832 19.1396H44.8607V15.0171Z" fill="white"/>
</g>
<defs>
<clipPath id="clip0_4582_20">
<rect width="64" height="64" fill="white"/>
</clipPath>
</defs>
</svg>
