<svg width="64" height="64" viewBox="0 0 64 64" fill="none" xmlns="http://www.w3.org/2000/svg">
<path d="M37.863 8.45597C37.9565 8.48355 38.0535 8.49769 38.151 8.49797C38.3659 8.49777 38.5751 8.42831 38.7475 8.29988C38.9199 8.17145 39.0463 7.99089 39.108 7.78497L40.27 3.91597C40.3461 3.6619 40.3182 3.38799 40.1923 3.15451C40.0665 2.92102 39.8531 2.74709 39.599 2.67097C39.3449 2.59486 39.071 2.62279 38.8375 2.74863C38.604 2.87446 38.4301 3.0879 38.354 3.34197L37.192 7.21097C37.1543 7.33678 37.1417 7.46878 37.1551 7.59944C37.1684 7.73009 37.2073 7.85684 37.2696 7.97246C37.3319 8.08807 37.4164 8.19027 37.5182 8.27323C37.62 8.3562 37.7372 8.41829 37.863 8.45597Z" fill="white"/>
<path d="M44.4562 10.056C44.6891 10.1827 44.9628 10.2117 45.217 10.1367C45.4713 10.0617 45.6854 9.8888 45.8122 9.65601L47.7482 6.09001C47.8109 5.97457 47.8503 5.84792 47.864 5.71728C47.8778 5.58664 47.8657 5.45457 47.8284 5.3286C47.7911 5.20264 47.7294 5.08525 47.6468 4.98315C47.5641 4.88104 47.4622 4.79621 47.3467 4.73351C47.2313 4.6708 47.1046 4.63144 46.974 4.61768C46.8434 4.60393 46.7113 4.61603 46.5853 4.65332C46.4594 4.6906 46.342 4.75233 46.2399 4.83497C46.1378 4.91762 46.0529 5.01957 45.9902 5.13501L44.0542 8.70001C43.9916 8.81544 43.9523 8.94208 43.9386 9.0727C43.9249 9.20331 43.937 9.33535 43.9744 9.46127C44.0117 9.58719 44.0734 9.70452 44.1561 9.80657C44.2388 9.90861 44.3408 9.99337 44.4562 10.056Z" fill="white"/>
<path d="M51.9433 13.317C52.089 13.3171 52.2329 13.2854 52.3651 13.2241C52.4972 13.1628 52.6144 13.0733 52.7083 12.962L55.3373 9.84001C55.4239 9.73988 55.4898 9.62355 55.5311 9.49777C55.5724 9.37199 55.5883 9.23926 55.5779 9.10729C55.5675 8.97531 55.531 8.84671 55.4705 8.72896C55.41 8.6112 55.3267 8.50662 55.2255 8.42129C55.1243 8.33596 55.0071 8.27158 54.8808 8.23188C54.7546 8.19218 54.6216 8.17795 54.4898 8.19002C54.358 8.20208 54.2298 8.24021 54.1129 8.30217C53.9959 8.36414 53.8924 8.44872 53.8083 8.55101L51.1793 11.673C51.0567 11.8187 50.9782 11.9963 50.9531 12.1851C50.928 12.3738 50.9572 12.5658 51.0375 12.7384C51.1177 12.9111 51.2456 13.0573 51.4061 13.1598C51.5665 13.2623 51.7529 13.3168 51.9433 13.317Z" fill="white"/>
<path d="M58.0419 18.285C58.2771 18.285 58.5048 18.2022 58.6849 18.051L61.7849 15.451C61.9818 15.2787 62.1033 15.0362 62.1234 14.7753C62.1435 14.5145 62.0607 14.2562 61.8926 14.0558C61.7244 13.8554 61.4845 13.7288 61.2242 13.7032C60.9638 13.6776 60.7038 13.7551 60.4999 13.919L57.3999 16.519C57.2431 16.651 57.1306 16.828 57.0778 17.0261C57.0249 17.2241 57.0342 17.4337 57.1044 17.6263C57.1745 17.8189 57.3022 17.9853 57.4701 18.1029C57.6379 18.2206 57.8379 18.2838 58.0429 18.284L58.0419 18.285Z" fill="white"/>
<path d="M11.2919 12.962C11.376 13.0643 11.4795 13.1489 11.5965 13.2108C11.7134 13.2728 11.8416 13.3109 11.9734 13.323C12.1052 13.335 12.2382 13.3208 12.3644 13.2811C12.4907 13.2414 12.6079 13.177 12.7091 13.0917C12.8103 13.0064 12.8936 12.9018 12.9541 12.784C13.0146 12.6663 13.0511 12.5377 13.0615 12.4057C13.0719 12.2737 13.056 12.141 13.0147 12.0152C12.9734 11.8894 12.9075 11.7731 12.8209 11.673L10.1919 8.55098C10.0198 8.35204 9.77633 8.2289 9.51412 8.20823C9.2519 8.18757 8.9921 8.27104 8.791 8.44058C8.5899 8.61012 8.46369 8.85206 8.43971 9.11399C8.41574 9.37593 8.49593 9.63676 8.66291 9.83999L11.2919 12.962Z" fill="white"/>
<path d="M18.1882 9.65399C18.2508 9.76943 18.3356 9.87139 18.4376 9.95406C18.5397 10.0367 18.657 10.0985 18.7829 10.1358C18.9088 10.1732 19.0409 10.1853 19.1715 10.1716C19.3021 10.1579 19.4288 10.1186 19.5442 10.056C19.6596 9.99335 19.7616 9.90859 19.8443 9.80654C19.9269 9.7045 19.9887 9.58717 20.026 9.46125C20.0634 9.33533 20.0755 9.2033 20.0618 9.07268C20.0481 8.94207 20.0088 8.81543 19.9462 8.69999L18.0102 5.13299C17.8835 4.89987 17.6695 4.7266 17.4151 4.6513C17.1607 4.57601 16.8868 4.60485 16.6537 4.73149C16.4206 4.85813 16.2473 5.0722 16.172 5.32659C16.0967 5.58098 16.1255 5.85487 16.2522 6.08799L18.1882 9.65399Z" fill="white"/>
<path d="M5.3471 18.076C5.45049 18.1612 5.56995 18.2248 5.69839 18.2629C5.82682 18.3011 5.96161 18.313 6.09476 18.2981C6.2279 18.2831 6.35668 18.2416 6.47345 18.1759C6.59022 18.1102 6.69259 18.0217 6.77449 17.9156C6.8564 17.8096 6.91616 17.6882 6.95023 17.5586C6.9843 17.429 6.99198 17.2939 6.97282 17.1613C6.95366 17.0287 6.90805 16.9013 6.8387 16.7867C6.76935 16.6721 6.67766 16.5725 6.5691 16.494L3.6111 14.209C3.50771 14.1238 3.38825 14.0602 3.25981 14.0221C3.13137 13.984 2.99658 13.972 2.86344 13.987C2.7303 14.0019 2.60152 14.0435 2.48475 14.1092C2.36798 14.1749 2.26561 14.2634 2.1837 14.3694C2.1018 14.4754 2.04204 14.5968 2.00797 14.7264C1.9739 14.856 1.96622 14.9911 1.98537 15.1237C2.00453 15.2563 2.05014 15.3837 2.1195 15.4983C2.18885 15.613 2.28053 15.7125 2.3891 15.791L5.3471 18.076Z" fill="white"/>
<path d="M24.8921 7.78497C24.9538 7.99089 25.0802 8.17145 25.2525 8.29988C25.4249 8.42831 25.6341 8.49777 25.8491 8.49797C25.9466 8.49769 26.0435 8.48355 26.1371 8.45597C26.2629 8.41829 26.38 8.3562 26.4818 8.27323C26.5836 8.19027 26.6681 8.08807 26.7304 7.97245C26.7927 7.85684 26.8317 7.73009 26.845 7.59943C26.8583 7.46878 26.8458 7.33678 26.8081 7.21097L25.6461 3.34197C25.6084 3.21617 25.5463 3.09902 25.4633 2.99721C25.3803 2.8954 25.2781 2.81093 25.1625 2.74862C25.0469 2.68632 24.9202 2.64739 24.7895 2.63407C24.6589 2.62074 24.5269 2.63328 24.4011 2.67097C24.2752 2.70866 24.1581 2.77076 24.0563 2.85373C23.9545 2.93669 23.87 3.0389 23.8077 3.1545C23.7454 3.27011 23.7065 3.39686 23.6931 3.52752C23.6798 3.65817 23.6924 3.79017 23.7301 3.91597L24.8921 7.78497Z" fill="white"/>
<path d="M32 8C32.2652 8 32.5196 7.89464 32.7071 7.70711C32.8946 7.51957 33 7.26522 33 7V3C33 2.73478 32.8946 2.48043 32.7071 2.29289C32.5196 2.10536 32.2652 2 32 2C31.7348 2 31.4804 2.10536 31.2929 2.29289C31.1054 2.48043 31 2.73478 31 3V7C31 7.26522 31.1054 7.51957 31.2929 7.70711C31.4804 7.89464 31.7348 8 32 8Z" fill="white"/>
<path d="M18.4071 39.063C12.8879 36.5443 8.0444 32.753 4.27412 28C6.19561 25.6001 8.38516 23.4276 10.8001 21.525C11.0088 21.3612 11.144 21.1213 11.1758 20.8579C11.2075 20.5945 11.1334 20.3292 10.9696 20.1205C10.8058 19.9118 10.5659 19.7767 10.3025 19.7449C10.0391 19.7131 9.77384 19.7872 9.56512 19.951C6.81727 22.1185 4.34698 24.6163 2.21012 27.388C2.07454 27.5632 2.00098 27.7785 2.00098 28C2.00098 28.2215 2.07454 28.4368 2.21012 28.612C6.25136 33.9062 11.5347 38.1231 17.5931 40.89C17.8354 40.998 18.1106 41.0052 18.3583 40.9102C18.6059 40.8153 18.8057 40.6258 18.9136 40.3835C19.0216 40.1412 19.0288 39.866 18.9339 39.6184C18.8389 39.3707 18.6494 39.171 18.4071 39.063Z" fill="white"/>
<path d="M61.7913 28.612C61.9269 28.4368 62.0004 28.2215 62.0004 28C62.0004 27.7785 61.9269 27.5632 61.7913 27.388C54.2193 17.608 43.3603 12 32.0003 12C25.1445 12.0277 18.4403 14.0193 12.6813 17.739C12.4577 17.8817 12.3 18.1073 12.2428 18.3663C12.1856 18.6253 12.2336 18.8964 12.3763 19.12C12.519 19.3436 12.7446 19.5013 13.0036 19.5585C13.2626 19.6157 13.5337 19.5677 13.7573 19.425C16.2952 17.8062 19.0324 16.5235 21.9003 15.609C20.0495 17.1126 18.5591 19.0117 17.5385 21.1668C16.518 23.322 15.9932 25.6784 16.0028 28.0629C16.0124 30.4475 16.5561 32.7996 17.594 34.9464C18.6318 37.0933 20.1375 38.9804 22.0003 40.469V42C21.2046 42 20.4416 42.3161 19.879 42.8787C19.3164 43.4413 19.0003 44.2043 19.0003 45C19.0003 45.7957 19.3164 46.5587 19.879 47.1213C20.4416 47.6839 21.2046 48 22.0003 48H42.0003C42.2655 48 42.5199 48.1054 42.7074 48.2929C42.8949 48.4804 43.0003 48.7348 43.0003 49C43.0003 49.2652 42.8949 49.5196 42.7074 49.7071C42.5199 49.8946 42.2655 50 42.0003 50H22.0003C21.7351 50 21.4807 50.1054 21.2932 50.2929C21.1056 50.4804 21.0003 50.7348 21.0003 51C21.0003 51.2652 21.1056 51.5196 21.2932 51.7071C21.4807 51.8946 21.7351 52 22.0003 52C22.0003 54.6522 23.0539 57.1957 24.9292 59.0711C26.8046 60.9464 29.3481 62 32.0003 62C34.6525 62 37.196 60.9464 39.0714 59.0711C40.9467 57.1957 42.0003 54.6522 42.0003 52C42.5805 52.0026 43.1489 51.8361 43.6361 51.5209C44.1232 51.2057 44.5081 50.7555 44.7435 50.2252C44.979 49.6948 45.0549 49.1074 44.962 48.5347C44.869 47.962 44.6113 47.4287 44.2203 47C44.6113 46.5713 44.869 46.038 44.962 45.4653C45.0549 44.8926 44.979 44.3052 44.7435 43.7748C44.5081 43.2445 44.1232 42.7943 43.6361 42.4791C43.1489 42.1639 42.5805 41.9974 42.0003 42V40.469C43.8776 38.9791 45.3928 37.0831 46.432 34.9235C47.4713 32.7638 48.0074 30.3967 48.0003 28C47.9979 26.8512 47.8725 25.7061 47.6263 24.584C47.5994 24.4546 47.5472 24.3318 47.4726 24.2227C47.398 24.1136 47.3025 24.0203 47.1916 23.9484C47.0808 23.8764 46.9567 23.8271 46.8267 23.8034C46.6967 23.7797 46.5633 23.7819 46.4341 23.8101C46.305 23.8382 46.1827 23.8917 46.0744 23.9674C45.966 24.0431 45.8738 24.1395 45.8029 24.2511C45.7321 24.3627 45.6841 24.4872 45.6616 24.6175C45.6392 24.7477 45.6428 24.8812 45.6723 25.01C45.8882 25.9921 45.9982 26.9945 46.0003 28C46.006 30.1717 45.5024 32.3146 44.5298 34.2564C43.5573 36.1982 42.1429 37.8849 40.4003 39.181C40.2761 39.2741 40.1753 39.3949 40.1059 39.5338C40.0364 39.6726 40.0003 39.8258 40.0003 39.981V42H36.0003V34.92C37.6401 33.9786 38.8916 32.4846 39.531 30.7051C40.1704 28.9257 40.156 26.9768 39.4903 25.207C39.4245 25.0313 39.3107 24.8777 39.1618 24.7637C39.013 24.6496 38.835 24.5797 38.6483 24.562C38.4615 24.5427 38.2732 24.577 38.1051 24.6607C37.9371 24.7445 37.7963 24.8743 37.6993 25.035C37.5237 25.329 37.2748 25.5724 36.977 25.7415C36.6793 25.9107 36.3427 25.9997 36.0003 26C35.4699 26 34.9611 25.7893 34.5861 25.4142C34.211 25.0391 34.0003 24.5304 34.0003 24C34.0003 23.6575 34.0891 23.3208 34.2581 23.0229C34.427 22.7249 34.6703 22.4758 34.9643 22.3C35.1243 22.2022 35.2535 22.0613 35.3373 21.8936C35.421 21.7258 35.4559 21.5379 35.438 21.3512C35.4201 21.1646 35.35 20.9867 35.2358 20.838C35.1217 20.6892 34.968 20.5756 34.7923 20.51C33.583 20.0552 32.2813 19.9007 30.9992 20.0598C29.717 20.2189 28.4926 20.6869 27.4312 21.4236C26.3698 22.1602 25.503 23.1436 24.9054 24.289C24.3078 25.4345 23.9972 26.708 24.0003 28C24.0058 29.4021 24.3779 30.7783 25.0796 31.9922C25.7812 33.2061 26.7881 34.2154 28.0003 34.92V42H24.0003V39.979C24.0003 39.8238 23.9641 39.6706 23.8947 39.5318C23.8253 39.3929 23.7245 39.2721 23.6003 39.179C21.9231 37.9177 20.5511 36.2954 19.586 34.432C18.6208 32.5686 18.0871 30.512 18.0245 28.4144C17.9619 26.3169 18.3719 24.2321 19.2243 22.3145C20.0766 20.3968 21.3494 18.6955 22.9483 17.3365C24.5473 15.9774 26.4315 14.9955 28.4614 14.4633C30.4913 13.9312 32.6149 13.8625 34.675 14.2623C36.7351 14.6621 38.6788 15.5203 40.3623 16.7731C42.0457 18.026 43.4258 19.6415 44.4003 21.5C44.4614 21.6163 44.5447 21.7194 44.6456 21.8035C44.7466 21.8875 44.863 21.9509 44.9884 21.9899C45.1139 22.029 45.2457 22.043 45.3765 22.031C45.5073 22.0191 45.6345 21.9816 45.7508 21.9205C45.8671 21.8594 45.9702 21.7761 46.0543 21.6751C46.1383 21.5742 46.2017 21.4577 46.2407 21.3323C46.2798 21.2069 46.2937 21.0751 46.2818 20.9443C46.2699 20.8135 46.2324 20.6863 46.1713 20.57C45.1709 18.6645 43.7977 16.9794 42.1333 15.615C49.081 17.9371 55.1969 22.2425 59.7263 28C55.956 32.753 51.1125 36.5443 45.5933 39.063C45.4733 39.1164 45.3651 39.193 45.2747 39.2883C45.1843 39.3836 45.1136 39.4957 45.0666 39.6184C45.0195 39.741 44.9971 39.8717 45.0006 40.0029C45.004 40.1342 45.0333 40.2635 45.0868 40.3835C45.1402 40.5035 45.2168 40.6117 45.3121 40.7021C45.4074 40.7925 45.5195 40.8632 45.6421 40.9102C45.7648 40.9573 45.8954 40.9797 46.0267 40.9762C46.158 40.9727 46.2873 40.9434 46.4073 40.89C52.466 38.1232 57.7498 33.9063 61.7913 28.612ZM32.0003 60C29.8793 59.9976 27.8458 59.154 26.3461 57.6542C24.8463 56.1544 24.0027 54.121 24.0003 52H40.0003C39.9979 54.121 39.1543 56.1544 37.6545 57.6542C36.1547 59.154 34.1213 59.9976 32.0003 60ZM43.0003 45C43.0003 45.2652 42.8949 45.5196 42.7074 45.7071C42.5199 45.8946 42.2655 46 42.0003 46H22.0003C21.7351 46 21.4807 45.8946 21.2932 45.7071C21.1056 45.5196 21.0003 45.2652 21.0003 45C21.0003 44.7348 21.1056 44.4804 21.2932 44.2929C21.4807 44.1054 21.7351 44 22.0003 44H42.0003C42.2655 44 42.5199 44.1054 42.7074 44.2929C42.8949 44.4804 43.0003 44.7348 43.0003 45ZM29.4303 33.414C28.2036 32.828 27.2122 31.8428 26.6186 30.6197C26.025 29.3967 25.8644 28.0083 26.163 26.682C26.4617 25.3557 27.2018 24.1702 28.2624 23.3195C29.3229 22.4689 30.6408 22.0037 32.0003 22C32.1753 22 32.3503 22.008 32.5233 22.023C32.0908 22.7844 31.9202 23.6667 32.0375 24.5344C32.1548 25.4022 32.5536 26.2075 33.1727 26.8267C33.7918 27.4459 34.597 27.8449 35.4648 27.9624C36.3325 28.0798 37.2148 27.9093 37.9763 27.477C37.9923 27.65 38.0003 27.825 38.0003 28C37.9956 29.1337 37.6713 30.243 37.0646 31.2007C36.4579 32.1584 35.5933 32.9255 34.5703 33.414C34.4001 33.4951 34.2563 33.6225 34.1555 33.7818C34.0546 33.941 34.0008 34.1255 34.0003 34.314V42H30.0003V34.317C30.0003 34.128 29.9468 33.9429 29.8459 33.783C29.745 33.6232 29.6009 33.4953 29.4303 33.414Z" fill="white"/>
<path d="M52.7081 41.607C52.6232 41.5066 52.5193 41.4239 52.4025 41.3637C52.2856 41.3034 52.1581 41.2668 52.027 41.2558C51.896 41.2448 51.7641 41.2598 51.6389 41.2998C51.5136 41.3398 51.3975 41.4041 51.2971 41.489C51.1967 41.5739 51.114 41.6778 51.0537 41.7946C50.9935 41.9115 50.9568 42.0391 50.9459 42.1701C50.9349 42.3011 50.9499 42.433 50.9899 42.5583C51.0299 42.6835 51.0942 42.7996 51.1791 42.9L53.8081 46.023C53.8928 46.1234 53.9964 46.2062 54.1131 46.2665C54.2298 46.3268 54.3572 46.3636 54.4881 46.3747C54.619 46.3858 54.7508 46.371 54.8759 46.3312C55.0011 46.2913 55.1172 46.2272 55.2176 46.1425C55.318 46.0578 55.4007 45.9542 55.4611 45.8375C55.5214 45.7208 55.5582 45.5934 55.5693 45.4625C55.5804 45.3316 55.5656 45.1999 55.5257 45.0747C55.4859 44.9495 55.4218 44.8334 55.3371 44.733L52.7081 41.607Z" fill="white"/>
<path d="M58.6852 36.52C58.5854 36.4302 58.4686 36.3614 58.3417 36.3177C58.2147 36.274 58.0803 36.2563 57.9464 36.2656C57.8125 36.275 57.6818 36.3112 57.5622 36.3721C57.4426 36.4331 57.3365 36.5175 57.2502 36.6203C57.1638 36.7231 57.0991 36.8423 57.0599 36.9706C57.0206 37.099 57.0076 37.234 57.0216 37.3675C57.0356 37.501 57.0763 37.6303 57.1414 37.7477C57.2064 37.8652 57.2944 37.9683 57.4002 38.051L60.5002 40.651C60.704 40.8141 60.9636 40.8911 61.2235 40.8654C61.4833 40.8397 61.7228 40.7134 61.8908 40.5134C62.0587 40.3135 62.1418 40.0558 62.1222 39.7954C62.1027 39.535 61.9821 39.2926 61.7862 39.12L58.6852 36.52Z" fill="white"/>
<path d="M11.292 41.607L8.66299 44.729C8.49193 44.9318 8.40841 45.1942 8.43082 45.4585C8.45323 45.7228 8.57973 45.9674 8.78249 46.1385C8.98525 46.3096 9.24766 46.3931 9.51199 46.3707C9.77632 46.3483 10.0209 46.2218 10.192 46.019L12.821 42.9C12.9076 42.7999 12.9734 42.6835 13.0147 42.5578C13.056 42.432 13.0719 42.2993 13.0615 42.1673C13.0511 42.0353 13.0146 41.9067 12.9542 41.789C12.8937 41.6712 12.8104 41.5666 12.7092 41.4813C12.608 41.396 12.4908 41.3316 12.3645 41.2919C12.2382 41.2522 12.1053 41.2379 11.9735 41.25C11.8416 41.2621 11.7135 41.3002 11.5965 41.3622C11.4796 41.4241 11.376 41.5087 11.292 41.611V41.607Z" fill="white"/>
<path d="M5.3471 36.494L2.3891 38.778C2.28053 38.8565 2.18885 38.956 2.1195 39.0707C2.05014 39.1853 2.00453 39.3127 1.98537 39.4453C1.96622 39.5779 1.9739 39.713 2.00797 39.8426C2.04204 39.9722 2.1018 40.0936 2.1837 40.1996C2.26561 40.3056 2.36798 40.3941 2.48475 40.4598C2.60152 40.5255 2.7303 40.5671 2.86344 40.5821C2.99658 40.597 3.13137 40.5851 3.25981 40.5469C3.38825 40.5088 3.50771 40.4452 3.6111 40.36L6.5691 38.076C6.67766 37.9975 6.76935 37.898 6.8387 37.7833C6.90805 37.6687 6.95366 37.5413 6.97282 37.4087C6.99198 37.2761 6.9843 37.141 6.95023 37.0114C6.91616 36.8818 6.8564 36.7604 6.77449 36.6544C6.69259 36.5484 6.59022 36.4599 6.47345 36.3942C6.35668 36.3285 6.2279 36.2869 6.09476 36.2719C5.96161 36.257 5.82682 36.2689 5.69839 36.3071C5.56995 36.3452 5.45049 36.4088 5.3471 36.494Z" fill="white"/>
</svg>
