<svg width="64" height="64" viewBox="0 0 64 64" fill="none" xmlns="http://www.w3.org/2000/svg">
<path fill-rule="evenodd" clip-rule="evenodd" d="M55.5568 8.04502C55.5568 5.96863 53.871 4.28287 51.7946 4.28287H21.6972C19.6208 4.28287 17.9351 5.96863 17.9351 8.04502V59.3105C17.9351 61.3869 19.6208 63.0727 21.6972 63.0727H51.7946C53.871 63.0727 55.5568 61.3869 55.5568 59.3105V8.04502Z" fill="#837683"/>
<path fill-rule="evenodd" clip-rule="evenodd" d="M49.7358 63.0727C51.8122 63.0727 53.498 61.3869 53.498 59.3105V8.04502C53.498 5.96863 51.8122 4.28287 49.7358 4.28287H51.7947C53.8711 4.28287 55.5568 5.96863 55.5568 8.04502V59.3105C55.5568 61.3869 53.8711 63.0727 51.7947 63.0727H49.7358Z" fill="#685E68"/>
<path fill-rule="evenodd" clip-rule="evenodd" d="M51.6116 9.80394C51.6116 8.93402 50.9054 8.22784 50.0355 8.22784H23.456C22.5861 8.22784 21.8799 8.93402 21.8799 9.80394V29.167C21.8799 30.037 22.5861 30.7431 23.456 30.7431H50.0355C50.9054 30.7431 51.6116 30.037 51.6116 29.167V9.80394Z" fill="#D8ECFE"/>
<path fill-rule="evenodd" clip-rule="evenodd" d="M25.5148 8.22784C24.6449 8.22784 23.9387 8.93402 23.9387 9.80394V29.167C23.9387 30.037 24.6449 30.7431 25.5148 30.7431H23.456C22.5861 30.7431 21.8799 30.037 21.8799 29.167V9.80394C21.8799 8.93402 22.5861 8.22784 23.456 8.22784H25.5148Z" fill="#C4E2FF"/>
<path fill-rule="evenodd" clip-rule="evenodd" d="M28.9809 36.6606V39.0661C28.9809 39.7299 28.4419 40.2688 27.7781 40.2688H23.0826C22.4187 40.2688 21.8799 39.7299 21.8799 39.0661V36.6606C21.8799 35.9969 22.4187 35.4579 23.0826 35.4579H27.7781C28.4419 35.4579 28.9809 35.9969 28.9809 36.6606ZM28.9809 45.5127V47.9183C28.9809 48.582 28.4419 49.121 27.7781 49.121H23.0826C22.4187 49.121 21.8799 48.582 21.8799 47.9183V45.5127C21.8799 44.849 22.4187 44.31 23.0826 44.31H27.7781C28.4419 44.31 28.9809 44.849 28.9809 45.5127ZM28.9809 54.365V56.7704C28.9809 57.4343 28.4419 57.9731 27.7781 57.9731H23.0826C22.4187 57.9731 21.8799 57.4343 21.8799 56.7704V54.365C21.8799 53.7011 22.4187 53.1622 23.0826 53.1622H27.7781C28.4419 53.1622 28.9809 53.7011 28.9809 54.365ZM40.2962 36.6606V39.0661C40.2962 39.7299 39.7573 40.2688 39.0934 40.2688H34.3979C33.7342 40.2688 33.1953 39.7299 33.1953 39.0661V36.6606C33.1953 35.9969 33.7342 35.4579 34.3979 35.4579H39.0934C39.7573 35.4579 40.2962 35.9969 40.2962 36.6606ZM40.2962 45.5127V47.9183C40.2962 48.582 39.7573 49.121 39.0934 49.121H34.3979C33.7342 49.121 33.1953 48.582 33.1953 47.9183V45.5127C33.1953 44.849 33.7342 44.31 34.3979 44.31H39.0934C39.7573 44.31 40.2962 44.849 40.2962 45.5127ZM40.2962 54.365V56.7704C40.2962 57.4343 39.7573 57.9731 39.0934 57.9731H34.3979C33.7342 57.9731 33.1953 57.4343 33.1953 56.7704V54.365C33.1953 53.7011 33.7342 53.1622 34.3979 53.1622H39.0934C39.7573 53.1622 40.2962 53.7011 40.2962 54.365ZM51.6116 36.6606V39.0661C51.6116 39.7299 51.0726 40.2688 50.4089 40.2688H45.7134C45.0496 40.2688 44.5106 39.7299 44.5106 39.0661V36.6606C44.5106 35.9969 45.0496 35.4579 45.7134 35.4579H50.4089C51.0726 35.4579 51.6116 35.9969 51.6116 36.6606ZM51.6116 45.5127V47.9183C51.6116 48.582 51.0726 49.121 50.4089 49.121H45.7134C45.0496 49.121 44.5106 48.582 44.5106 47.9183V45.5127C44.5106 44.849 45.0496 44.31 45.7134 44.31H50.4089C51.0726 44.31 51.6116 44.849 51.6116 45.5127ZM51.6116 54.365V56.7704C51.6116 57.4343 51.0726 57.9731 50.4089 57.9731H45.7134C45.0496 57.9731 44.5106 57.4343 44.5106 56.7704V54.365C44.5106 53.7011 45.0496 53.1622 45.7134 53.1622H50.4089C51.0726 53.1622 51.6116 53.7011 51.6116 54.365Z" fill="#ECEFF1"/>
<path fill-rule="evenodd" clip-rule="evenodd" d="M27.6084 35.4579H27.7781C28.4419 35.4579 28.9809 35.9969 28.9809 36.6606V39.0661C28.9809 39.7299 28.4419 40.2688 27.7781 40.2688H23.0826C22.4187 40.2688 21.8799 39.7299 21.8799 39.0661V38.8962H26.4056C27.0694 38.8962 27.6084 38.3574 27.6084 37.6936V35.4579ZM27.6084 44.31H27.7781C28.4419 44.31 28.9809 44.849 28.9809 45.5127V47.9183C28.9809 48.582 28.4419 49.121 27.7781 49.121H23.0826C22.4187 49.121 21.8799 48.582 21.8799 47.9183V47.7485H26.4056C27.0694 47.7485 27.6084 47.2095 27.6084 46.5457V44.31ZM27.6084 53.1622H27.7781C28.4419 53.1622 28.9809 53.7011 28.9809 54.365V56.7704C28.9809 57.4343 28.4419 57.9731 27.7781 57.9731H23.0826C22.4187 57.9731 21.8799 57.4343 21.8799 56.7704V56.6006H26.4056C27.0694 56.6006 27.6084 56.0617 27.6084 55.3978V53.1622ZM38.9236 35.4579H39.0934C39.7573 35.4579 40.2962 35.9969 40.2962 36.6606V39.0661C40.2962 39.7299 39.7573 40.2688 39.0934 40.2688H34.3979C33.7342 40.2688 33.1953 39.7299 33.1953 39.0661V38.8962H37.7209C38.3848 38.8962 38.9236 38.3574 38.9236 37.6936V35.4579ZM38.9236 44.31H39.0934C39.7573 44.31 40.2962 44.849 40.2962 45.5127V47.9183C40.2962 48.582 39.7573 49.121 39.0934 49.121H34.3979C33.7342 49.121 33.1953 48.582 33.1953 47.9183V47.7485H37.7209C38.3848 47.7485 38.9236 47.2095 38.9236 46.5457V44.31ZM38.9236 53.1622H39.0934C39.7573 53.1622 40.2962 53.7011 40.2962 54.365V56.7704C40.2962 57.4343 39.7573 57.9731 39.0934 57.9731H34.3979C33.7342 57.9731 33.1953 57.4343 33.1953 56.7704V56.6006H37.7209C38.3848 56.6006 38.9236 56.0617 38.9236 55.3978V53.1622ZM50.2391 35.4579H50.4089C51.0726 35.4579 51.6116 35.9969 51.6116 36.6606V39.0661C51.6116 39.7299 51.0726 40.2688 50.4089 40.2688H45.7134C45.0496 40.2688 44.5106 39.7299 44.5106 39.0661V38.8962H49.0363C49.7001 38.8962 50.2391 38.3574 50.2391 37.6936V35.4579ZM50.2391 44.31H50.4089C51.0726 44.31 51.6116 44.849 51.6116 45.5127V47.9183C51.6116 48.582 51.0726 49.121 50.4089 49.121H45.7134C45.0496 49.121 44.5106 48.582 44.5106 47.9183V47.7485H49.0363C49.7001 47.7485 50.2391 47.2095 50.2391 46.5457V44.31ZM50.2391 53.1622H50.4089C51.0726 53.1622 51.6116 53.7011 51.6116 54.365V56.7704C51.6116 57.4343 51.0726 57.9731 50.4089 57.9731H45.7134C45.0496 57.9731 44.5106 57.4343 44.5106 56.7704V56.6006H49.0363C49.7001 56.6006 50.2391 56.0617 50.2391 55.3978V53.1622Z" fill="#D1D1D6"/>
<path fill-rule="evenodd" clip-rule="evenodd" d="M60.3798 5.13249L37.2947 18.4606C36.8417 18.7222 36.267 18.6279 35.9214 18.2351L32.135 13.9327L8.82677 27.3899C8.30191 27.6928 7.62977 27.5127 7.32685 26.9879C7.02379 26.4631 7.20387 25.791 7.72873 25.4879L31.816 11.5811C32.2691 11.3195 32.8438 11.414 33.1894 11.8066L36.9757 16.109L59.1252 3.321L58.2486 3.08616C57.6632 2.92927 57.3154 2.32659 57.4721 1.74133C57.629 1.15594 58.2315 0.808 58.8169 0.964882L62.3776 1.91894C62.9634 2.07582 63.3111 2.67796 63.154 3.26376L62.2 6.82443C62.0431 7.40982 61.4406 7.75776 60.8552 7.60088C60.2698 7.444 59.922 6.84145 60.0787 6.25606L60.3798 5.13249Z" fill="#A79BA7"/>
<path fill-rule="evenodd" clip-rule="evenodd" d="M31.1438 19.4855C31.3258 19.4855 31.5004 19.5578 31.6292 19.6864C31.7579 19.8152 31.8301 19.9898 31.8301 20.1718V30.7432H27.7505V20.1718C27.7505 19.9898 27.8228 19.8152 27.9514 19.6864C28.0802 19.5578 28.2548 19.4855 28.4368 19.4855H31.1438Z" fill="#6CF5C2"/>
<path fill-rule="evenodd" clip-rule="evenodd" d="M29.7715 19.4855H31.144C31.326 19.4855 31.5006 19.5578 31.6294 19.6864C31.7581 19.8152 31.8303 19.9898 31.8303 20.1718V30.7432H30.4578V20.1718C30.4578 19.9898 30.3856 19.8152 30.2568 19.6864C30.1281 19.5578 29.9535 19.4855 29.7715 19.4855Z" fill="#00E499"/>
<path fill-rule="evenodd" clip-rule="evenodd" d="M38.6116 22.1502C38.7936 22.1502 38.9682 22.2225 39.0968 22.3513C39.2256 22.48 39.2979 22.6545 39.2979 22.8365V30.7432H35.2183V22.8365C35.2183 22.6545 35.2905 22.48 35.4192 22.3513C35.5479 22.2225 35.7224 22.1502 35.9045 22.1502H38.6116Z" fill="#FFE177"/>
<path fill-rule="evenodd" clip-rule="evenodd" d="M37.2393 22.1502H38.6118C38.7938 22.1502 38.9684 22.2225 39.097 22.3513C39.2257 22.48 39.2981 22.6545 39.2981 22.8365V30.7432H37.9255V22.8365C37.9255 22.6545 37.8532 22.48 37.7245 22.3513C37.5958 22.2225 37.4213 22.1502 37.2393 22.1502Z" fill="#FFD064"/>
<path fill-rule="evenodd" clip-rule="evenodd" d="M46.079 17.4547C46.261 17.4547 46.4355 17.527 46.5642 17.6558C46.693 17.7845 46.7653 17.959 46.7653 18.141V30.7432H42.6855V18.141C42.6855 17.959 42.7579 17.7845 42.8866 17.6558C43.0152 17.527 43.1898 17.4547 43.3718 17.4547H46.079Z" fill="#8AC9FE"/>
<path fill-rule="evenodd" clip-rule="evenodd" d="M44.7065 17.4547H46.0791C46.2611 17.4547 46.4355 17.527 46.5643 17.6558C46.693 17.7845 46.7654 17.959 46.7654 18.141V30.7432H45.3928V18.141C45.3928 17.959 45.3205 17.7845 45.1917 17.6558C45.063 17.527 44.8885 17.4547 44.7065 17.4547Z" fill="#60B7FF"/>
<path fill-rule="evenodd" clip-rule="evenodd" d="M12.0654 53.2585C5.86506 53.2585 0.808594 48.202 0.808594 42.0016C0.808594 35.8013 5.86506 30.7448 12.0654 30.7448C18.2658 30.7448 23.3239 35.8013 23.3239 42.0016C23.3239 48.202 18.2658 53.2585 12.0654 53.2585Z" fill="#FFC338"/>
<path fill-rule="evenodd" clip-rule="evenodd" d="M21.9797 42.0016C21.9797 36.0102 17.2993 31.1122 11.395 30.764C11.6161 30.7518 11.8407 30.7448 12.0654 30.7448C18.2832 30.7448 23.3238 35.7839 23.3238 42.0016C23.3238 48.2194 18.2832 53.2585 12.0654 53.2585C11.8407 53.2585 11.6161 53.2515 11.395 53.2392C17.2993 52.891 21.9797 47.9931 21.9797 42.0016Z" fill="#F5B829"/>
<path d="M16.3591 38.171C16.5854 38.7126 16.3312 39.3342 15.7914 39.5606C15.2517 39.7869 14.6301 39.5327 14.4019 38.9929C14.0816 38.2267 13.4704 37.7845 12.8018 37.6157C12.3752 37.5076 11.9294 37.5006 11.5133 37.5842C11.1111 37.6662 10.742 37.8298 10.4512 38.0649C10.0908 38.3574 9.86265 38.7804 9.88709 39.3046C9.90973 39.7817 10.1605 40.1107 10.5087 40.3371C10.9788 40.6453 11.6283 40.8159 12.2464 40.9169C13.1344 41.0631 14.1025 41.3052 14.9121 41.7945C15.8471 42.3586 16.5523 43.2082 16.7107 44.5124C16.7229 44.6135 16.7299 44.7336 16.7334 44.8711C16.763 46.0656 16.218 46.9553 15.3997 47.5769C14.7519 48.0679 13.9353 48.3709 13.1274 48.5067V49.1249C13.1274 49.7117 12.6521 50.1852 12.067 50.1852C11.4802 50.1852 11.0049 49.7117 11.0049 49.1249V48.4876C10.3485 48.3587 9.72169 48.115 9.17844 47.7527C8.34091 47.1938 7.69842 46.372 7.42679 45.282C7.28748 44.7145 7.63391 44.1416 8.2016 44.0023C8.76928 43.8629 9.34383 44.2095 9.48314 44.7771C9.61546 45.3065 9.93238 45.7104 10.3468 45.9872C10.8604 46.3285 11.5203 46.4922 12.1889 46.4766C12.3003 46.473 12.4362 46.4626 12.5929 46.4435C13.1605 46.3755 13.7246 46.1961 14.1233 45.8932C14.428 45.6633 14.6301 45.3412 14.6196 44.9199C14.6196 44.8903 14.6144 44.838 14.6056 44.7614C14.5395 44.2217 14.2313 43.8595 13.8186 43.6105C13.2841 43.2866 12.5737 43.1142 11.9068 43.0063C11.0484 42.8652 10.1186 42.6076 9.35605 42.1113C8.47144 41.5333 7.83595 40.6784 7.77322 39.4038C7.71228 38.1379 8.25732 37.1229 9.1175 36.4229C9.65032 35.9893 10.3067 35.6864 11.0049 35.5314V34.8785C11.0049 34.2916 11.4802 33.8181 12.067 33.8181C12.6521 33.8181 13.1274 34.2916 13.1274 34.8785V35.5158C13.1901 35.5297 13.2529 35.5437 13.3154 35.5593C14.59 35.8831 15.7497 36.7206 16.3591 38.171Z" fill="#FFE177"/>
</svg>
