<svg width="66" height="66" viewBox="0 0 66 66" fill="none" xmlns="http://www.w3.org/2000/svg">
<path d="M7.2171 41.7606H39.7565C40.7535 41.7606 41.6762 42.0576 42.4717 42.5455C41.5913 38.8545 40.711 35.1424 39.8307 31.3667C39.1413 28.4076 36.5853 26.2545 33.552 26.0955C26.8489 25.7242 20.1353 25.7242 13.4323 26.0955C10.3989 26.2652 7.84286 28.4076 7.15347 31.3667C6.26256 35.1424 5.38226 38.8545 4.50195 42.5455C5.29741 42.0576 6.22013 41.7606 7.2171 41.7606Z" fill="#FEC200"/>
<path opacity="0.35" d="M42.461 42.5455C41.5807 38.8545 40.7004 35.1424 39.8201 31.3667C39.1307 28.4076 36.5747 26.2545 33.5413 26.0955C32.7883 26.053 32.0353 26.0318 31.2716 26C31.2186 27.2409 32.1732 28.2909 33.4141 28.3652C35.4292 28.4818 37.1474 29.9242 37.6035 31.8864C38.3777 35.2273 39.1519 38.5152 39.9368 41.7818C40.8595 41.8136 41.7186 42.0894 42.461 42.5455Z" fill="white"/>
<path d="M39.7456 41.7606H7.21677C4.35314 41.7606 2.04102 44.0833 2.04102 46.9364V56.5137H44.9319V46.9364C44.9213 44.0833 42.6092 41.7606 39.7456 41.7606Z" fill="#FEC200"/>
<path opacity="0.35" d="M39.7458 41.7606H22.4473C22.4473 43.0121 23.4654 44.0303 24.717 44.0303H39.7458C41.3473 44.0303 42.6518 45.3349 42.6518 46.9364V50.447C42.6518 51.6985 43.67 52.7167 44.9215 52.7167V46.9364C44.9215 44.0833 42.6094 41.7606 39.7458 41.7606Z" fill="white"/>
<path d="M29.4897 46.9364H17.4731C16.7943 46.9364 16.3064 47.5833 16.4973 48.2409L17.4837 51.6985C17.6109 52.1333 18.014 52.4409 18.4594 52.4409H28.514C28.97 52.4409 29.3731 52.1439 29.4897 51.6985L30.4761 48.2409C30.6564 47.5939 30.1685 46.9364 29.4897 46.9364Z" fill="#E6E9EE"/>
<path opacity="0.1" d="M19.7848 51.1151C19.3288 51.1151 18.9257 50.8076 18.8091 50.3727L17.8333 46.947H17.4833C16.8045 46.947 16.3167 47.5939 16.5076 48.2515L17.4939 51.7091C17.6212 52.1439 18.0242 52.4515 18.4697 52.4515H28.5242C28.9803 52.4515 29.3833 52.1545 29.5 51.7091L29.6697 51.1257H19.7848V51.1151Z" fill="black"/>
<path d="M38.0697 41.7606C37.3273 38.6318 36.5849 35.4818 35.8424 32.2894C35.5667 31.1015 34.5273 30.2318 33.3076 30.1576C30.0515 29.9773 26.7424 29.8818 23.4758 29.8818C20.2091 29.8818 16.9 29.9773 13.644 30.1576C12.4243 30.2212 11.3849 31.1015 11.1091 32.2788C10.3667 35.4712 9.62426 38.6212 8.88184 41.75H38.0697V41.7606Z" fill="#009AFF"/>
<path d="M44.7303 56.5136H2.2318C1.25604 56.5136 0.471191 57.2985 0.471191 58.2743C0.471191 59.25 1.25604 60.0349 2.2318 60.0349H44.7303C45.706 60.0349 46.4909 59.25 46.4909 58.2743C46.4909 57.2985 45.706 56.5136 44.7303 56.5136Z" fill="#FF4823"/>
<path opacity="0.1" d="M2.7305 56.5136H2.2108C1.23504 56.5136 0.450195 57.2985 0.450195 58.2743C0.450195 59.25 1.23504 60.0349 2.2108 60.0349H44.7093C45.685 60.0349 46.4699 59.25 46.4699 58.2743H4.4911C3.51535 58.2743 2.7305 57.4894 2.7305 56.5136Z" fill="black"/>
<path d="M2.35938 60.0349V63.3864C2.35938 64.6273 3.36695 65.6349 4.60786 65.6349H7.49271C8.73362 65.6349 9.74119 64.6273 9.74119 63.3864V60.0349H2.35938Z" fill="#5D5B68"/>
<path opacity="0.1" d="M8.83968 64.2773H5.96544C4.72453 64.2773 3.71695 63.2697 3.71695 62.0288V60.0349H2.35938V63.3864C2.35938 64.6273 3.36695 65.6349 4.60786 65.6349H7.49271C8.46847 65.6349 9.29574 65.0091 9.60331 64.1394C9.35938 64.2242 9.10483 64.2773 8.83968 64.2773Z" fill="black"/>
<path d="M37.2319 60.0349V63.3864C37.2319 64.6273 38.2395 65.6349 39.4804 65.6349H42.3653C43.6062 65.6349 44.6138 64.6273 44.6138 63.3864V60.0349H37.2319Z" fill="#5D5B68"/>
<path d="M45.5152 35.2061C44.497 34.644 42.5667 35.5773 41.0288 36.5318C41.3788 38.0379 41.7394 39.5333 42.0894 41.0182C43.9561 40.594 46.5864 39.7773 46.9258 38.4833C47.1273 37.7091 46.2152 35.5879 45.5152 35.2061Z" fill="#5D5B68"/>
<path d="M5.92295 36.5318C4.38507 35.5773 2.45477 34.644 1.43658 35.2061C0.736584 35.5879 -0.175537 37.7197 0.0259781 38.494C0.365372 39.7879 2.99568 40.6046 4.86234 41.0288C5.22295 39.5333 5.57295 38.0379 5.92295 36.5318Z" fill="#5D5B68"/>
<path d="M23.7833 41.7606C23.7727 38.3455 20.9833 35.5667 17.5682 35.5667C14.153 35.5667 11.3742 38.3455 11.353 41.7606H12.8697C12.8803 39.1833 14.9909 37.0833 17.5682 37.0833C20.1455 37.0833 22.2561 39.1833 22.2667 41.7606H23.7833Z" fill="#E6E9EE"/>
<path d="M9.99573 52.3667C11.7764 52.3667 13.22 50.9231 13.22 49.1424C13.22 47.3617 11.7764 45.9182 9.99573 45.9182C8.21503 45.9182 6.77148 47.3617 6.77148 49.1424C6.77148 50.9231 8.21503 52.3667 9.99573 52.3667Z" fill="#FF6C00"/>
<path d="M36.9669 52.3667C38.7476 52.3667 40.1912 50.9231 40.1912 49.1424C40.1912 47.3617 38.7476 45.9182 36.9669 45.9182C35.1862 45.9182 33.7427 47.3617 33.7427 49.1424C33.7427 50.9231 35.1862 52.3667 36.9669 52.3667Z" fill="#FF6C00"/>
<path opacity="0.1" d="M38.4093 50.9243C36.6275 50.9243 35.1851 49.4818 35.1851 47.7C35.1851 47.1803 35.323 46.703 35.5351 46.2682C34.4745 46.7985 33.7427 47.8803 33.7427 49.1424C33.7427 50.9243 35.1851 52.3667 36.9669 52.3667C38.229 52.3667 39.3109 51.6349 39.8412 50.5743C39.4063 50.797 38.9184 50.9243 38.4093 50.9243Z" fill="black"/>
<path opacity="0.1" d="M43.7868 64.2773H40.902C39.6611 64.2773 38.6535 63.2697 38.6535 62.0288V60.0349H37.2959V63.3864C37.2959 64.6273 38.3035 65.6349 39.5444 65.6349H42.4292C43.405 65.6349 44.2323 65.0091 44.5398 64.1394C44.2959 64.2242 44.052 64.2773 43.7868 64.2773Z" fill="black"/>
<path opacity="0.1" d="M11.4274 50.9243C9.64559 50.9243 8.20317 49.4818 8.20317 47.7C8.20317 47.1803 8.34104 46.703 8.55317 46.2682C7.49256 46.7985 6.76074 47.8803 6.76074 49.1424C6.76074 50.9243 8.20317 52.3667 9.98498 52.3667C11.2471 52.3667 12.3289 51.6349 12.8592 50.5743C12.435 50.797 11.9471 50.9243 11.4274 50.9243Z" fill="black"/>
<path opacity="0.1" d="M41.6762 39.247C41.6762 39.247 29.9459 39.353 20.2732 39.5333C13.6762 39.6606 8.90347 33.1273 11.1838 26.9333C11.258 26.7318 11.3217 26.5939 11.3641 26.5303C9.28529 27.3258 7.67317 29.1076 7.14286 31.3667C6.26256 35.1424 5.38226 38.8545 4.50195 42.5455C5.29741 42.0576 6.20953 41.7606 7.2171 41.7606H39.7565C40.7535 41.7606 41.6762 42.0576 42.4717 42.5455C42.1959 41.453 41.9307 40.35 41.6762 39.247Z" fill="black"/>
<path d="M63.8744 0.365143H34.9835C33.8169 0.365143 32.8623 1.31969 32.8623 2.48636V40.8909C32.8623 42.0576 33.8169 43.0121 34.9835 43.0121H63.8744C65.0411 43.0121 65.9956 42.0576 65.9956 40.8909V2.48636C65.9956 1.31969 65.0411 0.365143 63.8744 0.365143Z" fill="#E6E9EE"/>
<path d="M60.6929 4.60757H38.1656C37.5823 4.60757 37.105 5.08485 37.105 5.66818V10.4727C37.105 11.0561 37.5823 11.5333 38.1656 11.5333H60.6929C61.2762 11.5333 61.7535 11.0561 61.7535 10.4727V5.66818C61.7535 5.08485 61.2762 4.60757 60.6929 4.60757Z" fill="#009AFF"/>
<path opacity="0.1" d="M39.8834 9.41212C39.3001 9.41212 38.8228 8.93485 38.8228 8.35151V4.60757H38.1758C37.5925 4.60757 37.1152 5.08485 37.1152 5.66818V10.4727C37.1152 11.0561 37.5925 11.5333 38.1758 11.5333H60.7031C61.2864 11.5333 61.7637 11.0561 61.7637 10.4727V9.41212H39.8834Z" fill="black"/>
<path d="M41.9412 25.0985C44.3252 25.0985 46.2578 23.1658 46.2578 20.7818C46.2578 18.3978 44.3252 16.4651 41.9412 16.4651C39.5571 16.4651 37.6245 18.3978 37.6245 20.7818C37.6245 23.1658 39.5571 25.0985 41.9412 25.0985Z" fill="#FF4823"/>
<path d="M41.9412 38.0697C44.3252 38.0697 46.2578 36.137 46.2578 33.753C46.2578 31.369 44.3252 29.4363 41.9412 29.4363C39.5571 29.4363 37.6245 31.369 37.6245 33.753C37.6245 36.137 39.5571 38.0697 41.9412 38.0697Z" fill="#FF4823"/>
<path d="M49.8638 19.7212H61.2335C61.8169 19.7212 62.2941 19.2439 62.2941 18.6606C62.2941 18.0773 61.8169 17.6 61.2335 17.6H49.8638C49.2805 17.6 48.8032 18.0773 48.8032 18.6606C48.8032 19.2439 49.2699 19.7212 49.8638 19.7212Z" fill="#AAB2BD"/>
<path d="M49.8638 23.9742H57.2775C57.8608 23.9742 58.3381 23.497 58.3381 22.9136C58.3381 22.3303 57.8608 21.853 57.2775 21.853H49.8638C49.2805 21.853 48.8032 22.3303 48.8032 22.9136C48.8032 23.497 49.2699 23.9742 49.8638 23.9742Z" fill="#AAB2BD"/>
<path d="M61.2335 30.5712H49.8638C49.2805 30.5712 48.8032 31.0485 48.8032 31.6318C48.8032 32.2152 49.2805 32.6924 49.8638 32.6924H61.2335C61.8169 32.6924 62.2941 32.2152 62.2941 31.6318C62.2941 31.0379 61.8169 30.5712 61.2335 30.5712Z" fill="#AAB2BD"/>
<path d="M57.2775 34.8242H49.8638C49.2805 34.8242 48.8032 35.3015 48.8032 35.8849C48.8032 36.4682 49.2805 36.9455 49.8638 36.9455H57.2775C57.8608 36.9455 58.3381 36.4682 58.3381 35.8849C58.3381 35.3015 57.8608 34.8242 57.2775 34.8242Z" fill="#AAB2BD"/>
<path d="M41.2623 22.8606C40.9866 22.8606 40.7214 22.7545 40.5093 22.553L39.8517 21.8954C39.4381 21.4818 39.4381 20.8136 39.8517 20.4C40.2335 20.0182 40.8381 19.9863 41.2623 20.3151L42.5457 19.0212C42.9593 18.6076 43.6275 18.6076 44.0411 19.0212C44.4548 19.4348 44.4548 20.103 44.0411 20.5166L42.0048 22.553C41.8032 22.7651 41.5275 22.8606 41.2623 22.8606Z" fill="white"/>
<path d="M41.2623 35.8318C40.9866 35.8318 40.7214 35.7258 40.5093 35.5242L39.8517 34.8667C39.4381 34.453 39.4381 33.7848 39.8517 33.3712C40.2335 32.9894 40.8381 32.9576 41.2623 33.2864L42.5457 31.9924C42.9593 31.5788 43.6275 31.5788 44.0411 31.9924C44.4548 32.4061 44.4548 33.0742 44.0411 33.4879L42.0048 35.5242C41.8032 35.7258 41.5275 35.8318 41.2623 35.8318Z" fill="white"/>
<path opacity="0.1" d="M36.3943 8.47878V0.365143H34.9943C33.8276 0.365143 32.873 1.31969 32.873 2.48636V40.8909C32.873 42.0576 33.8276 43.0121 34.9943 43.0121H63.8852C65.0518 43.0121 66.0064 42.0576 66.0064 40.8909V39.4485C49.5246 38.7167 36.3943 25.1409 36.3943 8.47878Z" fill="black"/>
<path opacity="0.5" d="M63.8746 0.365143H53.0352C53.0352 2.12575 54.4564 3.54696 56.217 3.54696H62.8139V25.7242C62.8139 27.4848 64.2352 28.906 65.9958 28.906V2.48635C65.9958 1.31969 65.0412 0.365143 63.8746 0.365143Z" fill="white"/>
</svg>
