<svg width="70" height="66" viewBox="0 0 70 66" fill="none" xmlns="http://www.w3.org/2000/svg">
<path fill-rule="evenodd" clip-rule="evenodd" d="M3.17461 6.34393H50.8895C52.6367 6.34393 54.0641 7.76991 54.0641 9.51854V55.3808C54.0641 57.1254 52.6381 58.5555 50.8895 58.5555H3.17461C1.42598 58.5555 0 57.1254 0 55.3808V9.51854C0 7.76991 1.42598 6.34393 3.17461 6.34393Z" fill="#EBF5FC"/>
<path fill-rule="evenodd" clip-rule="evenodd" d="M3.17461 6.34393H50.8895C52.6367 6.34393 54.0641 7.76991 54.0641 9.51854V17.0996H0V9.51854C0 7.76991 1.42598 6.34393 3.17461 6.34393Z" fill="#FF4646"/>
<path fill-rule="evenodd" clip-rule="evenodd" d="M12.231 0.143738C13.6146 0.143738 14.7466 1.27987 14.7466 2.66346V10.0271C14.7466 11.4107 13.6146 12.5428 12.231 12.5428C10.8474 12.5428 9.71533 11.4107 9.71533 10.0271V2.6621C9.7167 1.2785 10.8474 0.143738 12.231 0.143738Z" fill="#2F5274"/>
<path fill-rule="evenodd" clip-rule="evenodd" d="M41.832 0.143738C43.2156 0.143738 44.3477 1.27987 44.3477 2.66346V10.0271C44.3477 11.4107 43.2156 12.5428 41.832 12.5428C40.4484 12.5428 39.3164 11.4107 39.3164 10.0271V2.6621C39.3178 1.2785 40.4498 0.143738 41.832 0.143738Z" fill="#2F5274"/>
<path fill-rule="evenodd" clip-rule="evenodd" d="M27.0319 53.3232C35.5659 53.3232 42.5263 46.3629 42.5263 37.8248C42.5263 29.2908 35.5659 22.3304 27.0319 22.3304C18.4979 22.3304 11.5376 29.2908 11.5376 37.8248C11.5376 46.3629 18.4979 53.3232 27.0319 53.3232Z" fill="#0593FC"/>
<path fill-rule="evenodd" clip-rule="evenodd" d="M27.0318 48.642C32.9887 48.642 37.8449 43.7816 37.8449 37.8261C37.8449 31.8734 32.9887 27.0131 27.0318 27.0131C21.075 27.0131 16.2188 31.8734 16.2188 37.8261C16.2188 43.7816 21.075 48.642 27.0318 48.642Z" fill="#F1F1F1"/>
<path d="M25.9043 31.6984C25.9043 31.075 26.4088 30.5664 27.0322 30.5664C27.6557 30.5664 28.1602 31.0736 28.1602 31.6984V36.6982H31.4578C32.0812 36.6982 32.5898 37.2055 32.5898 37.8262C32.5898 38.4496 32.0826 38.9582 31.4578 38.9582H27.0322C26.4088 38.9582 25.9043 38.451 25.9043 37.8262V31.6984Z" fill="#0593FC"/>
<path fill-rule="evenodd" clip-rule="evenodd" d="M57.0638 39.0812L69.523 60.6637C70.1587 61.7643 70.1587 63.0234 69.523 64.124C68.8873 65.2246 67.7949 65.8562 66.5234 65.8562H41.6037C40.3322 65.8562 39.2439 65.2246 38.6082 64.124C37.9724 63.0234 37.9724 61.7643 38.6082 60.6637L51.0673 39.0812C51.7031 37.9807 52.7914 37.3531 54.0628 37.3531C55.3343 37.3518 56.4281 37.9807 57.0638 39.0812Z" fill="#FFD400"/>
<path fill-rule="evenodd" clip-rule="evenodd" d="M52.3006 46.7074L52.7148 55.0472C52.7531 55.7527 53.3314 56.3023 54.0369 56.3023H54.0957C54.8012 56.3023 55.3781 55.7514 55.4137 55.0472L55.8279 46.7074C55.8553 46.2193 55.6926 45.7887 55.3549 45.4318C55.0172 45.075 54.5947 44.8972 54.1066 44.8972H54.0246C53.5365 44.8972 53.114 45.075 52.7763 45.4318C52.4359 45.7887 52.2773 46.2193 52.3006 46.7074Z" fill="#FF4646"/>
<path fill-rule="evenodd" clip-rule="evenodd" d="M54.0643 62.7062C54.9283 62.7062 55.6297 62.0049 55.6297 61.1449C55.6297 60.2808 54.9283 59.5795 54.0643 59.5795C53.2043 59.5795 52.5029 60.2808 52.5029 61.1449C52.5016 62.0049 53.2029 62.7062 54.0643 62.7062Z" fill="#FF4646"/>
<path fill-rule="evenodd" clip-rule="evenodd" d="M27.0318 27.0117C27.3189 27.0117 27.5979 27.0227 27.8809 27.0473C22.3041 27.4779 17.9127 32.14 17.9127 37.8248C17.9127 43.5137 22.3041 48.1758 27.8809 48.6064C27.5979 48.6297 27.3189 48.6406 27.0318 48.6406C21.06 48.6406 16.2188 43.7967 16.2188 37.8248C16.2188 31.857 21.06 27.0117 27.0318 27.0117Z" fill="#D9D9D9"/>
<path fill-rule="evenodd" clip-rule="evenodd" d="M44.2505 65.8562H41.6037C40.3322 65.8562 39.2439 65.2246 38.6082 64.124C37.9724 63.0234 37.9724 61.7643 38.6082 60.6637L51.0673 39.0812C51.7031 37.9807 52.7914 37.3531 54.0628 37.3531C54.5359 37.3531 54.9816 37.4379 55.3876 37.6047C54.6945 37.8836 54.1121 38.3908 53.7128 39.0812L41.2537 60.6637C40.6179 61.7643 40.6179 63.0234 41.2537 64.124C41.8894 65.2246 42.9804 65.8562 44.2505 65.8562Z" fill="#E6BF00"/>
<path fill-rule="evenodd" clip-rule="evenodd" d="M2.53887 17.0982V55.3809C2.53887 57.1254 3.96895 58.5555 5.71348 58.5555H3.17461C1.42598 58.5555 0 57.1254 0 55.3809V17.0982H2.53887Z" fill="#D4DDE3"/>
<path fill-rule="evenodd" clip-rule="evenodd" d="M3.17461 6.34393H5.71348C3.96895 6.34393 2.53887 7.76991 2.53887 9.51854V17.0996H0V9.51854C0 7.76991 1.42598 6.34393 3.17461 6.34393Z" fill="#E63F3F"/>
</svg>
