<svg width="68" height="70" viewBox="0 0 68 70" fill="none" xmlns="http://www.w3.org/2000/svg">
<path fill-rule="evenodd" clip-rule="evenodd" d="M10.2423 53.4721H51.37V67.7455H10.2423C6.31709 67.7455 3.10693 64.5313 3.10693 60.6074C3.10693 56.6822 6.31709 53.4721 10.2423 53.4721Z" fill="#DAEAFA"/>
<path d="M52.6907 65.5567C53.9007 65.5567 54.8782 66.5342 54.8782 67.7442C54.8782 68.95 53.9007 69.9276 52.6907 69.9276H10.2423C5.11123 69.9276 0.919434 65.7399 0.919434 60.6047C0.919434 55.4737 5.11123 51.2819 10.2423 51.2819H52.6907C53.9007 51.2819 54.8782 52.2594 54.8782 53.4694C54.8782 54.6752 53.9007 55.6569 52.6907 55.6569H10.2423C7.52295 55.6569 5.2917 57.8881 5.2917 60.6033C5.2917 63.3227 7.52295 65.5539 10.2423 65.5539H52.6907V65.5567Z" fill="#2F5274"/>
<path d="M51.3701 61.7326H10.7496C10.1262 61.7326 9.62305 61.2295 9.62305 60.6061C9.62305 59.9826 10.1262 59.4795 10.7496 59.4795H51.3701V61.7326Z" fill="#0593FC"/>
<path fill-rule="evenodd" clip-rule="evenodd" d="M7.5874 0.071106H48.212V47.224H7.5874V0.071106Z" fill="#DAEAFA"/>
<path fill-rule="evenodd" clip-rule="evenodd" d="M12.4175 3.85959H22.5073V13.9453H12.4175V3.85959Z" fill="#70DA40"/>
<path fill-rule="evenodd" clip-rule="evenodd" d="M12.4175 18.6047H22.5073V28.6904H12.4175V18.6047Z" fill="#70DA40"/>
<path fill-rule="evenodd" clip-rule="evenodd" d="M12.4175 33.3484H22.5073V43.4342H12.4175V33.3484Z" fill="#70DA40"/>
<path d="M18.8708 36.1526C19.3096 35.7137 20.0247 35.7137 20.4635 36.1526C20.9024 36.5914 20.9024 37.3065 20.4635 37.7453L17.5815 40.6274C17.1426 41.0703 16.4276 41.0703 15.9887 40.6274L14.4629 39.1016C14.0241 38.6627 14.0241 37.9518 14.4629 37.5088C14.9018 37.0699 15.6168 37.0699 16.0557 37.5088L16.7831 38.2389L18.8708 36.1526ZM18.8708 6.66642C19.3096 6.22346 20.0247 6.22346 20.4635 6.66642C20.9024 7.10529 20.9024 7.81623 20.4635 8.2592L17.5801 11.1426C17.1413 11.5815 16.4262 11.5815 15.9874 11.1426L14.4629 9.61681C14.0241 9.17795 14.0241 8.46291 14.4629 8.02404C14.9018 7.58517 15.6168 7.58517 16.0557 8.02404L16.7831 8.75412L18.8708 6.66642ZM18.8708 21.4074C19.3096 20.9686 20.0247 20.9686 20.4635 21.4074C20.9024 21.8463 20.9024 22.5613 20.4635 23.0002L17.5815 25.8863C17.1426 26.3252 16.4276 26.3252 15.9887 25.8863L14.4629 24.3606C14.0241 23.9217 14.0241 23.2067 14.4629 22.7678C14.9018 22.3289 15.6168 22.3289 16.0557 22.7678L16.7831 23.4938L18.8708 21.4074Z" fill="#DAEAFA"/>
<path d="M25.9569 41.5899C25.3335 41.5899 24.8276 41.0826 24.8276 40.4606C24.8276 39.8412 25.3349 39.334 25.9569 39.334H34.6687C35.2921 39.334 35.7952 39.8412 35.7952 40.4606C35.7952 41.084 35.2921 41.5899 34.6687 41.5899H25.9569ZM25.9569 7.95978C25.3335 7.95978 24.8276 7.45255 24.8276 6.83322C24.8276 6.20978 25.3349 5.70392 25.9569 5.70392H43.3804C44.0038 5.70392 44.5069 6.21114 44.5069 6.83322C44.5069 7.45255 44.0038 7.95978 43.3804 7.95978H25.9569ZM25.9569 12.101C25.3335 12.101 24.8276 11.5979 24.8276 10.9744C24.8276 10.351 25.3349 9.84786 25.9569 9.84786H34.6687C35.2921 9.84786 35.7952 10.351 35.7952 10.9744C35.7952 11.5979 35.2921 12.101 34.6687 12.101H25.9569ZM25.9569 22.7008C25.3335 22.7008 24.8276 22.1977 24.8276 21.5742C24.8276 20.9508 25.3349 20.4477 25.9569 20.4477H33.5147C34.1341 20.4477 34.6413 20.9508 34.6413 21.5742C34.6413 22.1977 34.1341 22.7008 33.5147 22.7008H25.9569ZM25.9569 26.8447C25.3335 26.8447 24.8276 26.3416 24.8276 25.7182C24.8276 25.0947 25.3349 24.5916 25.9569 24.5916H33.5147C34.1341 24.5916 34.6413 25.0947 34.6413 25.7182C34.6413 26.3416 34.1341 26.8447 33.5147 26.8447H25.9569ZM25.9569 37.4459C25.3335 37.4459 24.8276 36.9428 24.8276 36.3193C24.8276 35.6959 25.3349 35.1928 25.9569 35.1928H40.4819C41.1054 35.1928 41.6085 35.6959 41.6085 36.3193C41.6085 36.9428 41.1054 37.4459 40.4819 37.4459H25.9569Z" fill="#0593FC"/>
<path fill-rule="evenodd" clip-rule="evenodd" d="M48.2117 34.0443C53.9375 34.0443 58.6078 29.3727 58.6078 23.6482C58.6078 17.9184 53.9361 13.248 48.2117 13.248C42.4818 13.248 37.8115 17.9197 37.8115 23.6482C37.8102 29.3727 42.4818 34.0443 48.2117 34.0443Z" fill="#00CCFF"/>
<path d="M54.2687 22.5217C54.8921 22.5217 55.3952 23.0248 55.3952 23.6482C55.3952 24.2717 54.8921 24.7748 54.2687 24.7748H48.212C47.5886 24.7748 47.0854 24.2717 47.0854 23.6482V17.5916C47.0854 16.9682 47.5886 16.4623 48.212 16.4623C48.8355 16.4623 49.3386 16.9695 49.3386 17.5916V22.5231H54.2687V22.5217Z" fill="#DAEAFA"/>
<path fill-rule="evenodd" clip-rule="evenodd" d="M67.0802 69.9289H58.8989V36.1676L62.9923 29.4123L67.0802 36.1676V69.9289Z" fill="#FFD400"/>
<path fill-rule="evenodd" clip-rule="evenodd" d="M58.8989 36.1676L62.9923 29.4123L67.0802 36.1676H58.8989Z" fill="#2F5274"/>
<path fill-rule="evenodd" clip-rule="evenodd" d="M58.8989 62.4586H67.0802V69.9289H58.8989V62.4586Z" fill="#FF4646"/>
<path fill-rule="evenodd" clip-rule="evenodd" d="M3.51436 60.6061C3.51436 59.0325 3.90947 57.5477 4.604 56.242C6.17764 53.2998 9.27979 51.2832 12.8372 51.2832H10.2423C5.11123 51.2832 0.919434 55.475 0.919434 60.6061C0.919434 65.7399 5.11123 69.9289 10.2423 69.9289H12.8372C9.27979 69.9289 6.17764 67.9164 4.604 64.9701C3.90947 63.6686 3.51436 62.1797 3.51436 60.6061Z" fill="#2A4A68"/>
<path fill-rule="evenodd" clip-rule="evenodd" d="M39.9553 23.6469C39.9553 18.6403 43.4963 14.4567 48.2117 13.4695C48.5631 13.3944 48.9186 13.3383 49.2822 13.3014C48.9309 13.2658 48.5713 13.2453 48.2117 13.2453C42.4668 13.2453 37.8115 17.9047 37.8115 23.6455C37.8115 29.3863 42.4668 34.0457 48.2117 34.0457C48.5713 34.0457 48.9309 34.0252 49.2822 33.9897C48.9186 33.9541 48.5631 33.8981 48.2117 33.8215C43.4963 32.8385 39.9553 28.6535 39.9553 23.6469Z" fill="#00B8E6"/>
<path fill-rule="evenodd" clip-rule="evenodd" d="M58.8989 36.1676H60.664V62.4586H58.8989V36.1676Z" fill="#E6BF00"/>
<path fill-rule="evenodd" clip-rule="evenodd" d="M58.8989 36.1676H60.664L63.8741 30.8697L62.9923 29.4123L58.8989 36.1676Z" fill="#2A4A68"/>
<path fill-rule="evenodd" clip-rule="evenodd" d="M58.8989 62.4586H60.664V69.9289H58.8989V62.4586Z" fill="#E63F3F"/>
</svg>
