<svg width="70" height="70" viewBox="0 0 70 70" fill="none" xmlns="http://www.w3.org/2000/svg">
<path d="M28.979 17.9102L39.2329 38.7145L28.979 54.2227H4.09619V19.9609C4.09619 18.8289 5.01494 17.9102 6.14697 17.9102H28.979Z" fill="#4DE1FF"/>
<path d="M53.8618 19.9609V54.2227H28.979V17.9102H51.811C52.9431 17.9102 53.8618 18.8289 53.8618 19.9609Z" fill="#2EA8E6"/>
<path d="M28.979 26.1133L30.4826 31.6205L28.979 46.2848H26.9282V28.1641C26.9282 27.032 27.847 26.1133 28.979 26.1133Z" fill="#FF6666"/>
<path d="M31.0298 28.1641V46.2848H28.979V26.1133C30.111 26.1133 31.0298 27.032 31.0298 28.1641Z" fill="#E62E6B"/>
<path d="M28.979 54.4961L29.7509 56.4454L28.979 57.6502L17.7448 69.3684C17.3415 69.7881 16.8028 70 16.2641 70C15.7528 70 15.2428 69.8113 14.845 69.4299C14.0274 68.6451 14 67.3477 14.7834 66.5301L26.3211 54.4961H28.979Z" fill="#B4524C"/>
<path d="M43.113 69.4299C42.7151 69.81 42.2038 70 41.6938 70C41.1552 70 40.6165 69.7881 40.2132 69.3684L28.979 57.6502V54.4961H31.6368L43.1745 66.5301C43.9579 67.3477 43.9306 68.6451 43.113 69.4299Z" fill="#8D2823"/>
<path d="M22.8267 46.2841V35C22.8267 33.8674 21.9085 32.9492 20.7759 32.9492C19.6433 32.9492 18.7251 33.8674 18.7251 35V46.2841H22.8267Z" fill="#F9EE51"/>
<path d="M39.2329 46.2841V40.4688C39.2329 39.3362 38.3147 38.418 37.1821 38.418C36.0496 38.418 35.1313 39.3362 35.1313 40.4688V46.2841H39.2329Z" fill="#FFC700"/>
<path d="M57.8262 16.9504L51.6738 25.5173L46.5578 29.9523H39.3691C38.2357 29.9523 37.3184 29.0336 37.3184 27.9016V10.2676L51.6738 1.70215L52.609 4.01953L53.1271 5.30332L57.8262 16.9504Z" fill="#CCEEFF"/>
<path d="M66.0293 10.2676V27.9016C66.0293 29.0336 65.1105 29.9523 63.9785 29.9523H56.7898L51.6738 25.5173V1.70215L54.2318 3.22793L66.0293 10.2676Z" fill="#99DDFF"/>
<path d="M54.2321 20.5442L51.6741 29.9523H46.5581V14.9639C46.5581 14.0232 47.3224 13.259 48.263 13.259H51.6741L54.2321 20.5442Z" fill="#B4524C"/>
<path d="M56.7903 14.9639V29.9523H51.6743V13.259H55.0855C56.0274 13.259 56.7903 14.0232 56.7903 14.9639Z" fill="#8D2823"/>
<path d="M51.6734 0L54.271 3.27852L51.6734 4.43652L36.4552 13.516C36.1257 13.7129 35.7634 13.8059 35.4052 13.8059C34.7079 13.8059 34.0271 13.449 33.6429 12.8064C33.0619 11.833 33.3804 10.5738 34.3525 9.99414L50.6193 0.288477C50.9365 0.0957031 51.3056 0 51.6734 0Z" fill="#FF6666"/>
<path d="M69.7038 12.8064C69.3196 13.449 68.6388 13.8059 67.9415 13.8059C67.5833 13.8059 67.221 13.7129 66.8915 13.516L51.6733 4.43652V0C52.0425 0 52.4116 0.0957031 52.7288 0.289844L68.9942 9.99414C69.9663 10.5738 70.2849 11.833 69.7038 12.8064Z" fill="#E62E6B"/>
<path d="M28.979 44.4336L32.3811 46.2841L28.979 48.5352H14.4868C13.3548 48.5352 12.436 47.6164 12.436 46.4844C12.436 45.3523 13.3548 44.4336 14.4868 44.4336H28.979Z" fill="#E6FBFF"/>
<path d="M28.9788 52.6367L31.0296 54.4961L28.9788 56.7383H2.05615C0.924121 56.7383 0.00537109 55.8195 0.00537109 54.6875C0.00537109 53.5555 0.924121 52.6367 2.05615 52.6367H28.9788Z" fill="#405580"/>
<path d="M45.522 46.4844C45.522 47.6164 44.6032 48.5352 43.4712 48.5352H28.979V44.4336H43.4712C44.6032 44.4336 45.522 45.3523 45.522 46.4844Z" fill="#CCEEFF"/>
<path d="M57.9524 54.6875C57.9524 55.8195 57.0337 56.7383 55.9017 56.7383H28.979V52.6367H55.9017C57.0337 52.6367 57.9524 53.5555 57.9524 54.6875Z" fill="#1F3259"/>
</svg>
