<svg width="70" height="70" viewBox="0 0 70 70" fill="none" xmlns="http://www.w3.org/2000/svg">
<g clip-path="url(#clip0_4780_175)">
<path d="M7.52588 10.4071V2.99145C7.52588 1.43275 8.70672 0.110208 10.2654 0.0314856C11.9343 -0.0472369 13.2884 1.25956 13.2884 2.91273V12.3594H9.46245C8.39183 12.3279 7.52588 11.4777 7.52588 10.4071Z" fill="#E6E6E6"/>
<path d="M56.1134 1.93657V47.5798L51.0279 43.1871L45.6275 47.8475L40.2272 43.1871L34.8268 47.8475L29.4107 43.1871L24.0103 47.8475L18.61 43.1871L13.3041 47.7688V2.8655C13.3041 1.29105 11.9973 0 10.4229 0H54.1925C55.2474 0 56.1134 0.865947 56.1134 1.93657Z" fill="#F2F2F2"/>
<path d="M65.7488 15.162V13.6505L56.1132 8.09268L46.4775 13.6505V15.162C46.4775 21.1134 49.6579 26.6082 54.8064 29.5839L56.1132 30.3396L57.42 29.5839C62.5684 26.6082 65.7488 21.1134 65.7488 15.162Z" fill="#90C964"/>
<path d="M55.2159 22.4989C54.964 22.4989 54.712 22.4044 54.5074 22.2312L51.3112 19.4759C50.8546 19.0823 50.8074 18.4053 51.201 17.9487C51.5946 17.4921 52.2716 17.4449 52.7282 17.8385L55.2159 19.9798L59.4984 16.2011C59.9392 15.8075 60.632 15.8547 61.0256 16.2955C61.4192 16.7364 61.372 17.4291 60.9311 17.8228L55.9401 22.2155C55.7197 22.4044 55.4678 22.4989 55.2159 22.4989Z" fill="#F2F2F2"/>
<path d="M39.8493 70H7.762C5.82543 70 4.25098 68.4256 4.25098 66.489V23.8529C4.25098 21.9163 5.82543 20.3419 7.762 20.3419H39.8493C41.7858 20.3419 43.3603 21.9163 43.3603 23.8529V66.489C43.3603 68.4256 41.7858 70 39.8493 70Z" fill="#242456"/>
<path d="M8.72266 26.3405H38.9048V40.9986H8.72266V26.3405Z" fill="#A7ECFC"/>
<path d="M15.5243 46.5092H10.2499C9.39967 46.5092 8.72266 47.1862 8.72266 48.0364C8.72266 48.8866 9.39967 49.5636 10.2499 49.5636H15.5243C16.3745 49.5636 17.0515 48.8866 17.0515 48.0364C17.0515 47.1862 16.3587 46.5092 15.5243 46.5092Z" fill="#F2F2F2"/>
<path d="M32.0873 49.5636H37.3617C38.2119 49.5636 38.8889 48.8866 38.8889 48.0364C38.8889 47.1862 38.2119 46.5092 37.3617 46.5092H32.0873C31.2371 46.5092 30.5601 47.1862 30.5601 48.0364C30.5601 48.8866 31.2528 49.5636 32.0873 49.5636Z" fill="#F2F2F2"/>
<path d="M26.4349 46.5092H21.1605C20.3103 46.5092 19.6333 47.1862 19.6333 48.0364C19.6333 48.8866 20.3103 49.5636 21.1605 49.5636H26.4349C27.2851 49.5636 27.9621 48.8866 27.9621 48.0364C27.9621 47.1862 27.2851 46.5092 26.4349 46.5092Z" fill="#F2F2F2"/>
<path d="M15.5243 53.673H10.2499C9.39967 53.673 8.72266 54.35 8.72266 55.2002C8.72266 56.0504 9.39967 56.7274 10.2499 56.7274H15.5243C16.3745 56.7274 17.0515 56.0504 17.0515 55.2002C17.0357 54.35 16.3587 53.673 15.5243 53.673Z" fill="#F2F2F2"/>
<path d="M37.3617 53.673H32.0873C31.2371 53.673 30.5601 54.35 30.5601 55.2002C30.5601 56.0504 31.2371 56.7274 32.0873 56.7274H37.3617C38.2119 56.7274 38.8889 56.0504 38.8889 55.2002C38.8889 54.35 38.2119 53.673 37.3617 53.673Z" fill="#F2F2F2"/>
<path d="M26.4349 53.673H21.1605C20.3103 53.673 19.6333 54.35 19.6333 55.2002C19.6333 56.0504 20.3103 56.7274 21.1605 56.7274H26.4349C27.2851 56.7274 27.9621 56.0504 27.9621 55.2002C27.9621 54.35 27.2851 53.673 26.4349 53.673Z" fill="#F2F2F2"/>
<path d="M15.5243 60.8367H10.2499C9.39967 60.8367 8.72266 61.5137 8.72266 62.3639C8.72266 63.2141 9.39967 63.8911 10.2499 63.8911H15.5243C16.3745 63.8911 17.0515 63.2141 17.0515 62.3639C17.0357 61.5137 16.3587 60.8367 15.5243 60.8367Z" fill="#66CDF2"/>
<path d="M37.3617 60.8367H32.0873C31.2371 60.8367 30.5601 61.5137 30.5601 62.3639C30.5601 63.2141 31.2371 63.8911 32.0873 63.8911H37.3617C38.2119 63.8911 38.8889 63.2141 38.8889 62.3639C38.8889 61.5137 38.2119 60.8367 37.3617 60.8367Z" fill="#FCBD1C"/>
<path d="M26.4349 60.8367H21.1605C20.3103 60.8367 19.6333 61.5137 19.6333 62.3639C19.6333 63.2141 20.3103 63.8911 21.1605 63.8911H26.4349C27.2851 63.8911 27.9621 63.2141 27.9621 62.3639C27.9621 61.5137 27.2851 60.8367 26.4349 60.8367Z" fill="#F2F2F2"/>
<path d="M36.7006 9.02161H19.24C18.7519 9.03735 18.374 9.41522 18.374 9.88755C18.374 10.3756 18.7519 10.7535 19.24 10.7535H36.6849C37.1729 10.7535 37.5508 10.3756 37.5508 9.88755C37.5666 9.39947 37.1729 9.02161 36.7006 9.02161Z" fill="#E6E6E6"/>
<path d="M31.0325 12.816H19.2556C18.7675 12.8318 18.3896 13.2096 18.3896 13.682C18.3896 14.17 18.7675 14.5479 19.2556 14.5479H31.0325C31.5206 14.5479 31.8984 14.17 31.8984 13.682C31.8827 13.1939 31.5048 12.816 31.0325 12.816Z" fill="#E6E6E6"/>
</g>
<defs>
<clipPath id="clip0_4780_175">
<rect width="70" height="70" fill="white"/>
</clipPath>
</defs>
</svg>
