<svg width="70" height="70" viewBox="0 0 70 70" fill="none" xmlns="http://www.w3.org/2000/svg">
<path d="M55.5318 70H14.4682C12.2919 70 10.5273 68.2355 10.5273 66.0592V3.94081C10.5273 1.76453 12.2919 0 14.4682 0H55.5318C57.7081 0 59.4727 1.76453 59.4727 3.94081V66.0592C59.4727 68.2355 57.7081 70 55.5318 70Z" fill="#4380A0"/>
<path d="M55.5345 0H51.3149C53.4902 0 55.2531 1.76559 55.2531 3.94348V66.0565C55.2531 68.2344 53.4902 70 51.3149 70H55.5345C57.7097 70 59.4727 68.2344 59.4727 66.0565V3.94348C59.4727 1.76559 57.7097 0 55.5345 0Z" fill="#3B7191"/>
<path d="M34.9999 40.1253C32.666 40.1253 30.7744 38.2332 30.7744 35.8999C30.7744 33.566 32.6666 31.6744 34.9999 31.6744C37.3337 31.6744 39.2253 33.5666 39.2253 35.8999C39.2253 38.2332 37.3337 40.1253 34.9999 40.1253Z" fill="#F06292"/>
<path d="M34.9999 31.6744C34.2298 31.6744 33.5089 31.8816 32.8872 32.241C34.1497 32.9716 34.9999 34.3362 34.9999 35.8999C34.9999 37.4636 34.1497 38.8276 32.8872 39.5587C33.5089 39.9181 34.2298 40.1253 34.9999 40.1253C37.3338 40.1253 39.2254 38.2332 39.2254 35.8999C39.2254 33.566 37.3338 31.6744 34.9999 31.6744Z" fill="#EC407A"/>
<path d="M21.6796 40.1253C19.3457 40.1253 17.4541 38.2332 17.4541 35.8999C17.4541 33.566 19.3463 31.6744 21.6796 31.6744C24.0134 31.6744 25.905 33.5666 25.905 35.8999C25.905 38.2332 24.0134 40.1253 21.6796 40.1253Z" fill="#F06292"/>
<path d="M21.6796 31.6744C20.9095 31.6744 20.1885 31.8816 19.5669 32.241C20.8294 32.9716 21.6796 34.3362 21.6796 35.8999C21.6796 37.4636 20.8294 38.8276 19.5669 39.5587C20.1885 39.9181 20.9095 40.1253 21.6796 40.1253C24.0135 40.1253 25.9051 38.2332 25.9051 35.8999C25.9051 33.566 24.0135 31.6744 21.6796 31.6744Z" fill="#EC407A"/>
<path d="M48.3207 40.1253C45.9868 40.1253 44.0952 38.2332 44.0952 35.8999C44.0952 33.566 45.9874 31.6744 48.3207 31.6744C50.6545 31.6744 52.5461 33.5666 52.5461 35.8999C52.5461 38.2332 50.654 40.1253 48.3207 40.1253Z" fill="#F06292"/>
<path d="M48.3203 31.6744C47.5507 31.6744 46.8292 31.8816 46.2075 32.241C47.47 32.9716 48.3203 34.3362 48.3203 35.8999C48.3203 37.4636 47.47 38.8276 46.2075 39.5587C46.8292 39.9181 47.5501 40.1253 48.3203 40.1253C50.6541 40.1253 52.5457 38.2332 52.5457 35.8999C52.5457 33.566 50.6535 31.6744 48.3203 31.6744Z" fill="#EC407A"/>
<path d="M34.9999 52.1406C32.666 52.1406 30.7744 50.2484 30.7744 47.9151C30.7744 45.5813 32.6666 43.6896 34.9999 43.6896C37.3337 43.6896 39.2253 45.5818 39.2253 47.9151C39.2253 50.2489 37.3337 52.1406 34.9999 52.1406Z" fill="#F06292"/>
<path d="M34.9999 43.6896C34.2298 43.6896 33.5089 43.8969 32.8872 44.2563C34.1497 44.9869 34.9999 46.3514 34.9999 47.9151C34.9999 49.4788 34.1497 50.8428 32.8872 51.5739C33.5089 51.9333 34.2298 52.1406 34.9999 52.1406C37.3338 52.1406 39.2254 50.2484 39.2254 47.9151C39.2254 45.5813 37.3338 43.6896 34.9999 43.6896Z" fill="#EC407A"/>
<path d="M21.6796 52.1406C19.3457 52.1406 17.4541 50.2484 17.4541 47.9151C17.4541 45.5813 19.3463 43.6896 21.6796 43.6896C24.0134 43.6896 25.905 45.5818 25.905 47.9151C25.905 50.2489 24.0134 52.1406 21.6796 52.1406Z" fill="#F06292"/>
<path d="M21.6796 43.6896C20.9095 43.6896 20.1885 43.8969 19.5669 44.2563C20.8294 44.9869 21.6796 46.3514 21.6796 47.9151C21.6796 49.4788 20.8294 50.8428 19.5669 51.5739C20.1885 51.9333 20.9095 52.1406 21.6796 52.1406C24.0135 52.1406 25.9051 50.2484 25.9051 47.9151C25.9051 45.5813 24.0135 43.6896 21.6796 43.6896Z" fill="#EC407A"/>
<path d="M48.3207 52.1406C45.9868 52.1406 44.0952 50.2484 44.0952 47.9151C44.0952 45.5813 45.9874 43.6896 48.3207 43.6896C50.6545 43.6896 52.5461 45.5818 52.5461 47.9151C52.5461 50.2489 50.654 52.1406 48.3207 52.1406Z" fill="#F06292"/>
<path d="M48.3203 43.6896C47.5507 43.6896 46.8292 43.8969 46.2075 44.2563C47.47 44.9869 48.3203 46.3514 48.3203 47.9151C48.3203 49.4788 47.47 50.8428 46.2075 51.5739C46.8292 51.9333 47.5501 52.1406 48.3203 52.1406C50.6541 52.1406 52.5457 50.2484 52.5457 47.9151C52.5457 45.5813 50.6535 43.6896 48.3203 43.6896Z" fill="#EC407A"/>
<path d="M34.9999 64.1558C32.666 64.1558 30.7744 62.2642 30.7744 59.9303C30.7744 57.597 32.6666 55.7054 34.9999 55.7054C37.3337 55.7054 39.2253 57.597 39.2253 59.9303C39.2253 62.2642 37.3337 64.1558 34.9999 64.1558Z" fill="#F06292"/>
<path d="M34.9999 55.7049C34.2298 55.7049 33.5089 55.9121 32.8872 56.272C34.1497 57.0026 34.9999 58.3666 34.9999 59.9303C34.9999 61.494 34.1497 62.8586 32.8872 63.5892C33.5089 63.9486 34.2298 64.1558 34.9999 64.1558C37.3338 64.1558 39.2254 62.2642 39.2254 59.9303C39.2254 57.597 37.3338 55.7049 34.9999 55.7049Z" fill="#EC407A"/>
<path d="M21.6796 64.1558C19.3457 64.1558 17.4541 62.2642 17.4541 59.9303C17.4541 57.597 19.3463 55.7054 21.6796 55.7054C24.0134 55.7054 25.905 57.597 25.905 59.9303C25.905 62.2642 24.0134 64.1558 21.6796 64.1558Z" fill="#F06292"/>
<path d="M21.6796 55.7049C20.9095 55.7049 20.1885 55.9121 19.5669 56.272C20.8294 57.0026 21.6796 58.3666 21.6796 59.9303C21.6796 61.494 20.8294 62.8586 19.5669 63.5892C20.1885 63.9486 20.9095 64.1558 21.6796 64.1558C24.0135 64.1558 25.9051 62.2642 25.9051 59.9303C25.9051 57.597 24.0135 55.7049 21.6796 55.7049Z" fill="#EC407A"/>
<path d="M48.3207 64.1558C45.9868 64.1558 44.0952 62.2642 44.0952 59.9303C44.0952 57.597 45.9874 55.7054 48.3207 55.7054C50.6545 55.7054 52.5461 57.597 52.5461 59.9303C52.5461 62.2642 50.654 64.1558 48.3207 64.1558Z" fill="#F06292"/>
<path d="M48.3203 55.7049C47.5507 55.7049 46.8292 55.9121 46.2075 56.272C47.47 57.0026 48.3203 58.3666 48.3203 59.9303C48.3203 61.494 47.47 62.8586 46.2075 63.5892C46.8292 63.9486 47.5501 64.1558 48.3203 64.1558C50.6541 64.1558 52.5457 62.2642 52.5457 59.9303C52.5457 57.597 50.6535 55.7049 48.3203 55.7049Z" fill="#EC407A"/>
<path d="M51.2144 26.6708H18.7854C18.0638 26.6708 17.4785 26.086 17.4785 25.364V8.01512C17.4785 7.29361 18.0638 6.70828 18.7854 6.70828H51.2144C51.9359 6.70828 52.5207 7.29361 52.5207 8.01512V25.364C52.5212 26.0855 51.9359 26.6708 51.2144 26.6708Z" fill="#BDF9FF"/>
<path d="M47.9318 26.6708C47.9318 26.6457 47.9329 26.6212 47.9329 26.5966C47.9329 19.4541 42.1426 13.6638 35.0001 13.6638C27.8576 13.6638 22.0674 19.4541 22.0674 26.5966C22.0674 26.6212 22.0685 26.6463 22.0685 26.6708H47.9318Z" fill="#FFB300"/>
<path d="M43.1421 26.6708C43.1426 26.6457 43.1442 26.6212 43.1442 26.5966C43.1442 22.1057 39.4907 18.4522 34.9998 18.4522C30.509 18.4522 26.8555 22.1057 26.8555 26.5966C26.8555 26.6212 26.8571 26.6457 26.8576 26.6708H43.1421Z" fill="#FFD54F"/>
</svg>
