<?xml version="1.0" encoding="iso-8859-1"?>
<!-- Generator: Adobe Illustrator 19.0.0, SVG Export Plug-In . SVG Version: 6.00 Build 0)  -->
<svg version="1.1" id="Capa_1" xmlns="http://www.w3.org/2000/svg" xmlns:xlink="http://www.w3.org/1999/xlink" x="0px" y="0px"
	 viewBox="0 0 512.001 512.001" style="enable-background:new 0 0 512.001 512.001;" xml:space="preserve">
<path style="fill:#FF641A;" d="M104.201,329.599c-9.3,0.901-18.6,1.8-28.2,2.401c-9.901,0.599-19.799,0.899-30,0.899
	c-8.401,0-15,6.601-15,15V493.4h90V344.599C121.001,335.3,112.6,328.4,104.201,329.599z"/>
<path style="fill:#FFD400;" d="M454.601,136.099c-6.599,7.5-12.599,14.7-18.6,21.301c-11.4,13.2-23.401,25.499-39.901,40.8
	c-3.3,2.701-5.099,6.899-5.099,11.1v284.1h90V145.699C481.001,131.899,463.6,125.6,454.601,136.099z"/>
<path style="fill:#FDBF00;" d="M337.6,243.5c-6.899,4.799-14.099,9.3-21.599,13.5c-12.001,7.5-24,14.399-36.599,20.7
	c-5.101,2.399-8.401,7.5-8.401,13.2v202.5h90V256.099C361.001,243.8,347.501,236.899,337.6,243.5z"/>
<path style="fill:#54E360;" d="M512.001,15v60c0,8.399-6.599,15-15,15s-15-6.601-15-15V64.2l-59.2,66.4
	c-46.8,52.799-103.5,94.499-166.8,122.699c-63.3,28.5-132.299,43.5-202.5,43.5c-13.801,0-25.815-0.601-39.916-1.8
	c-8.099-0.601-14.399-7.8-13.499-16.199c0.599-8.101,7.798-14.702,16.199-13.5c84,7.2,165.616-9,239.715-45
	c54.3-26.4,103.5-63.3,144.3-109.501L472.1,30h-35.099c-8.401,0-15-6.601-15-15c0-8.401,6.599-15,15-15h60
	C505.402,0,512.001,6.599,512.001,15z"/>
<path style="fill:#FF9F00;" d="M220.902,302.3c-8.101,2.999-16.5,5.7-24.901,8.099c-11.1,3.6-22.2,6.301-33.3,9
	c-6.901,1.802-11.7,7.8-11.7,14.702v159.3h90V316.399C241.001,306.2,230.8,298.999,220.902,302.3z"/>
<path style="fill:#FF4B00;" d="M121.001,344.599V493.4h-45V332c9.6-0.601,18.9-1.5,28.2-2.401
	C112.6,328.4,121.001,335.3,121.001,344.599z"/>
<path style="fill:#F77E00;" d="M241.001,316.399V493.4h-45V310.399c8.401-2.399,16.8-5.099,24.901-8.099
	C230.8,298.999,241.001,306.2,241.001,316.399z"/>
<path style="fill:#FF9F00;" d="M361.001,256.099V493.4h-45V257c7.5-4.2,14.7-8.701,21.599-13.5
	C347.501,236.899,361.001,243.8,361.001,256.099z"/>
<path style="fill:#FDBF00;" d="M481.001,145.699V493.4h-45v-336c6-6.601,12.001-13.801,18.6-21.301
	C463.6,125.6,481.001,131.899,481.001,145.699z"/>
<path style="fill:#00CC71;" d="M512.001,15v60c0,8.399-6.599,15-15,15s-15-6.601-15-15V64.2l-59.2,66.4
	c-46.8,52.799-103.5,94.499-166.8,122.699V220.3c54.3-26.4,103.5-63.3,144.3-109.501L472.1,30h-35.099c-8.401,0-15-6.601-15-15
	c0-8.401,6.599-15,15-15h60C505.402,0,512.001,6.599,512.001,15z"/>
<path style="fill:#53433F;" d="M512.001,497c0,8.399-6.599,15-15,15h-482c-8.401,0-15-6.601-15-15c0-8.401,6.599-15,15-15h482
	C505.402,482,512.001,488.599,512.001,497z"/>
<path style="fill:#3E322E;" d="M512.001,497c0,8.399-6.599,15-15,15h-241v-30h241C505.402,482,512.001,488.599,512.001,497z"/>
<g>
</g>
<g>
</g>
<g>
</g>
<g>
</g>
<g>
</g>
<g>
</g>
<g>
</g>
<g>
</g>
<g>
</g>
<g>
</g>
<g>
</g>
<g>
</g>
<g>
</g>
<g>
</g>
<g>
</g>
</svg>
