<svg width="70" height="70" viewBox="0 0 70 70" fill="none" xmlns="http://www.w3.org/2000/svg">
<path fill-rule="evenodd" clip-rule="evenodd" d="M43.6139 46.2215H25.7612C25.4597 46.2215 25.2151 46.4661 25.2151 46.7676V55.6303H7.36277C7.06101 55.6303 6.81641 55.8747 6.81641 56.1764V63.4024C6.81641 64.2883 7.5345 65.0064 8.42038 65.0064H61.5008C61.9263 65.0064 62.3343 64.8373 62.635 64.5366C62.9357 64.2356 63.1048 63.8277 63.1048 63.4024C63.1048 57.5987 63.1048 37.1587 63.1048 37.1587C63.1048 36.8572 62.8602 36.6126 62.5584 36.6126H44.16C43.8582 36.6126 43.6139 36.8572 43.6139 37.1587V46.2215Z" fill="#E2F1FC"/>
<path fill-rule="evenodd" clip-rule="evenodd" d="M25.2147 56.7225V51.2748H6.18077C5.5589 51.2748 4.96272 51.5218 4.52306 51.9615C4.08339 52.4011 3.83643 52.9976 3.83643 53.6192V54.3782C3.83643 55 4.08339 55.5962 4.52306 56.0359C4.96272 56.4756 5.5589 56.7225 6.18077 56.7225H25.2147Z" fill="#41B3E6"/>
<path fill-rule="evenodd" clip-rule="evenodd" d="M43.6134 47.3139V41.8663H24.5792C23.9576 41.8663 23.3612 42.1132 22.9215 42.5529C22.4818 42.9926 22.2349 43.5887 22.2349 44.2106V44.9696C22.2349 45.5912 22.4818 46.1877 22.9215 46.6273C23.3612 47.067 23.9576 47.3139 24.5792 47.3139H43.6134Z" fill="#41B3E6"/>
<path fill-rule="evenodd" clip-rule="evenodd" d="M63.1046 33.8611C63.1046 33.4359 62.9355 33.0279 62.6348 32.727C62.3341 32.4262 61.9258 32.2571 61.5006 32.2571C58.0787 32.2571 47.2833 32.2571 42.9781 32.2571C42.3563 32.2571 41.7601 32.5044 41.3204 32.9438C40.8808 33.3834 40.6338 33.9799 40.6338 34.6015V35.3607C40.6338 35.9823 40.8808 36.5788 41.3204 37.0182C41.7601 37.4579 42.3563 37.7051 42.9781 37.7051H62.5582C62.86 37.7051 63.1046 37.4605 63.1046 37.1587V33.8611Z" fill="#41B3E6"/>
<path fill-rule="evenodd" clip-rule="evenodd" d="M58.1631 25.6247L58.4195 28.6701C58.4326 29.9327 59.4619 30.9536 60.7276 30.9536C61.9968 30.9536 63.0279 29.9275 63.0363 28.6604C63.0361 28.6701 63.2925 25.6247 63.2925 25.6247C63.9684 25.6276 64.6471 25.3859 65.1843 24.8941C66.319 23.8556 66.3969 22.0912 65.3584 20.9568L62.7833 18.1436C62.2556 17.5669 61.5097 17.2386 60.7276 17.2386C59.9458 17.2386 59.2 17.5669 58.6722 18.1436L56.0972 20.9568C55.0587 22.0912 55.1366 23.8556 56.271 24.8941C56.8084 25.3859 57.4872 25.6276 58.1631 25.6247ZM40.4457 25.6247L40.7019 28.6701C40.7152 29.9327 41.7445 30.9536 43.0103 30.9536C44.2795 30.9536 45.3106 29.9275 45.3187 28.6604C45.3187 28.6701 45.5749 25.6247 45.5749 25.6247C46.2507 25.6276 46.9295 25.3859 47.467 24.8941C48.6016 23.8556 48.6795 22.0912 47.641 20.9568L45.066 18.1436C44.538 17.5669 43.7921 17.2386 43.0103 17.2386C42.2285 17.2386 41.4826 17.5669 40.9546 18.1436L38.3796 20.9568C37.3411 22.0912 37.419 23.8556 38.5536 24.8941C39.0911 25.3859 39.7699 25.6276 40.4457 25.6247ZM48.8903 16.508L49.2872 23.2521C49.2969 24.6686 50.45 25.8159 51.8691 25.8159C53.2895 25.8159 54.4439 24.666 54.451 23.2471C54.4507 23.2521 54.8476 16.508 54.8476 16.508C55.9524 16.998 57.2906 16.8231 58.2381 15.9558C59.514 14.7876 59.6019 12.8035 58.4336 11.5275L54.1809 6.88151C53.5874 6.2329 52.7484 5.86349 51.8691 5.86349C50.9898 5.86349 50.1508 6.2329 49.557 6.88151L45.3043 11.5275C44.1363 12.8035 44.2239 14.7876 45.4999 15.9558C46.4476 16.8231 47.7858 16.998 48.8903 16.508Z" fill="#66BC6A"/>
<path fill-rule="evenodd" clip-rule="evenodd" d="M27.5068 26.5602C27.3107 26.3572 26.9921 26.337 26.7722 26.514C24.7721 28.1203 23.2077 30.0179 21.9768 31.9863C21.8564 32.1788 21.8675 32.4252 22.0046 32.6061C24.205 35.5068 24.809 38.2444 24.809 38.2444C24.8106 38.2509 24.8122 38.2575 24.8137 38.264C25.4149 40.5995 27.7991 42.0076 30.1345 41.4064C32.47 40.8053 33.8781 38.4211 33.2769 36.0857C33.2764 36.0833 33.2756 36.0809 33.2751 36.0786C33.2751 36.0786 31.9414 31.1474 27.5068 26.5602ZM17.0361 28.2074C17.2771 28.3487 17.5857 28.2858 17.7519 28.0613C19.0158 26.3533 20.501 24.7184 22.2513 23.2628C22.3879 23.149 22.4607 22.976 22.4463 22.7985C22.4319 22.6213 22.332 22.4621 22.1787 22.3719C19.7606 20.9512 16.8547 19.7972 13.3516 19.2298C11.4398 18.856 9.5742 20.106 9.19273 22.0259C8.81127 23.9452 10.0566 25.8135 11.9733 26.2012C13.9339 26.6645 15.6068 27.3684 17.0361 28.2074Z" fill="#41B3E6"/>
<path fill-rule="evenodd" clip-rule="evenodd" d="M23.3886 34.7425C24.8918 32.529 26.8665 30.4505 29.4843 28.8717C28.907 28.1083 28.2505 27.3294 27.5068 26.5601C27.3106 26.3572 26.9921 26.337 26.7721 26.514C24.772 28.1203 23.2077 30.0179 21.9768 31.9863C21.8564 32.1788 21.8674 32.4252 22.0045 32.6061C22.5635 33.3428 23.0194 34.069 23.3886 34.7425Z" fill="#2898D4"/>
<path fill-rule="evenodd" clip-rule="evenodd" d="M18.5659 46.9026C18.5662 46.8976 18.5665 46.8927 18.5665 46.8877C18.5665 46.8877 18.7143 39.4129 22.7736 32.7747C25.0033 29.1279 28.4121 25.7005 33.7373 24.0556C35.6279 23.5166 36.7235 21.555 36.1915 19.6705C35.6596 17.786 33.6996 16.6865 31.8148 17.2137C24.366 19.126 19.4282 23.6036 16.1152 28.4813C10.4549 36.8145 9.83692 46.4842 9.83692 46.4842C9.83666 46.4873 9.83666 46.4905 9.8364 46.4936C9.72366 48.9027 11.5877 50.95 13.9968 51.0628C16.4056 51.1758 18.4532 49.3115 18.5659 46.9026Z" fill="#1C8DCF"/>
<path d="M21.9029 18.0149C25.5228 18.0149 28.4572 15.0804 28.4572 11.4606C28.4572 7.84074 25.5228 4.90628 21.9029 4.90628C18.2831 4.90628 15.3486 7.84074 15.3486 11.4606C15.3486 15.0804 18.2831 18.0149 21.9029 18.0149Z" fill="#1C8DCF"/>
</svg>
