<svg width="70" height="70" viewBox="0 0 70 70" fill="none" xmlns="http://www.w3.org/2000/svg">
<path d="M57.9688 3.28125H12.0312C9.615 3.28125 7.65625 5.24 7.65625 7.65625V62.3438C7.65625 64.76 9.615 66.7188 12.0312 66.7188H57.9688C60.385 66.7188 62.3438 64.76 62.3438 62.3438V7.65625C62.3438 5.24 60.385 3.28125 57.9688 3.28125Z" fill="#44546C"/>
<path d="M62.3438 7.65625C62.3438 6.49593 61.8828 5.38313 61.0623 4.56266C60.2419 3.74219 59.1291 3.28125 57.9688 3.28125H12.0312C10.8709 3.28125 9.75813 3.74219 8.93766 4.56266C8.11719 5.38313 7.65625 6.49593 7.65625 7.65625V27.3438H62.3438V7.65625Z" fill="#44546C"/>
<path opacity="0.3" d="M62.3438 7.65625C62.3438 6.49593 61.8828 5.38313 61.0623 4.56266C60.2419 3.74219 59.1291 3.28125 57.9688 3.28125H12.0312C10.8709 3.28125 9.75813 3.74219 8.93766 4.56266C8.11719 5.38313 7.65625 6.49593 7.65625 7.65625V27.3438H62.3438V7.65625Z" fill="black"/>
<path d="M54.6875 7.65625H15.3125C14.1044 7.65625 13.125 8.63563 13.125 9.84375V20.7812C13.125 21.9894 14.1044 22.9688 15.3125 22.9688H54.6875C55.8956 22.9688 56.875 21.9894 56.875 20.7812V9.84375C56.875 8.63563 55.8956 7.65625 54.6875 7.65625Z" fill="white"/>
<path opacity="0.2" d="M54.6875 7.65625H53.5938C53.5938 11.1372 52.2109 14.4756 49.7495 16.937C47.2881 19.3984 43.9497 20.7812 40.4688 20.7812H13.125C13.125 21.3614 13.3555 21.9178 13.7657 22.328C14.1759 22.7383 14.7323 22.9688 15.3125 22.9688H54.6875C55.2677 22.9688 55.8241 22.7383 56.2343 22.328C56.6445 21.9178 56.875 21.3614 56.875 20.7812V9.84375C56.875 9.26359 56.6445 8.70719 56.2343 8.29695C55.8241 7.88672 55.2677 7.65625 54.6875 7.65625Z" fill="black"/>
<path d="M38.2812 31.7188H29.5312C28.3231 31.7188 27.3438 32.6981 27.3438 33.9062V42.6562C27.3438 43.8644 28.3231 44.8438 29.5312 44.8438H38.2812C39.4894 44.8438 40.4688 43.8644 40.4688 42.6562V33.9062C40.4688 32.6981 39.4894 31.7188 38.2812 31.7188Z" fill="#F35244"/>
<path d="M38.2812 49.2188H29.5312C28.3231 49.2188 27.3438 50.1981 27.3438 51.4062V60.1562C27.3438 61.3644 28.3231 62.3438 29.5312 62.3438H38.2812C39.4894 62.3438 40.4688 61.3644 40.4688 60.1562V51.4062C40.4688 50.1981 39.4894 49.2188 38.2812 49.2188Z" fill="#FFA912"/>
<path d="M55.7812 49.2188H47.0312C45.8231 49.2188 44.8438 50.1981 44.8438 51.4062V60.1562C44.8438 61.3644 45.8231 62.3438 47.0312 62.3438H55.7812C56.9894 62.3438 57.9688 61.3644 57.9688 60.1562V51.4062C57.9688 50.1981 56.9894 49.2188 55.7812 49.2188Z" fill="#348FD9"/>
<path d="M52.5 52.5C52.5 51.8959 52.0103 51.4062 51.4062 51.4062C50.8022 51.4062 50.3125 51.8959 50.3125 52.5C50.3125 53.1041 50.8022 53.5938 51.4062 53.5938C52.0103 53.5938 52.5 53.1041 52.5 52.5Z" fill="white"/>
<path d="M52.5 59.0625C52.5 58.4584 52.0103 57.9688 51.4062 57.9688C50.8022 57.9688 50.3125 58.4584 50.3125 59.0625C50.3125 59.6666 50.8022 60.1562 51.4062 60.1562C52.0103 60.1562 52.5 59.6666 52.5 59.0625Z" fill="white"/>
<path d="M55.7812 31.7188H47.0312C45.8231 31.7188 44.8438 32.6981 44.8438 33.9062V42.6562C44.8438 43.8644 45.8231 44.8438 47.0312 44.8438H55.7812C56.9894 44.8438 57.9688 43.8644 57.9688 42.6562V33.9062C57.9688 32.6981 56.9894 31.7188 55.7812 31.7188Z" fill="#7EB457"/>
<path d="M37.1875 37.1875H35V35C35 34.7099 34.8848 34.4317 34.6796 34.2266C34.4745 34.0215 34.1963 33.9062 33.9062 33.9062C33.6162 33.9062 33.338 34.0215 33.1329 34.2266C32.9277 34.4317 32.8125 34.7099 32.8125 35V37.1875H30.625C30.3349 37.1875 30.0567 37.3027 29.8516 37.5079C29.6465 37.713 29.5312 37.9912 29.5312 38.2812C29.5312 38.5713 29.6465 38.8495 29.8516 39.0546C30.0567 39.2598 30.3349 39.375 30.625 39.375H32.8125V41.5625C32.8125 41.8526 32.9277 42.1308 33.1329 42.3359C33.338 42.541 33.6162 42.6562 33.9062 42.6562C34.1963 42.6562 34.4745 42.541 34.6796 42.3359C34.8848 42.1308 35 41.8526 35 41.5625V39.375H37.1875C37.4776 39.375 37.7558 39.2598 37.9609 39.0546C38.166 38.8495 38.2812 38.5713 38.2812 38.2812C38.2812 37.9912 38.166 37.713 37.9609 37.5079C37.7558 37.3027 37.4776 37.1875 37.1875 37.1875Z" fill="white"/>
<path d="M36.9994 52.688C36.7943 52.483 36.5161 52.3678 36.2261 52.3678C35.9361 52.3678 35.6579 52.483 35.4528 52.688L33.9061 54.2346L32.3595 52.688C32.1532 52.4888 31.8769 52.3785 31.5901 52.381C31.3034 52.3835 31.029 52.4985 30.8262 52.7013C30.6234 52.9041 30.5084 53.1784 30.5059 53.4652C30.5034 53.752 30.6137 54.0283 30.8129 54.2346L32.3595 55.7812L30.8129 57.3279C30.7084 57.4288 30.6251 57.5495 30.5678 57.6829C30.5105 57.8164 30.4803 57.9599 30.479 58.1051C30.4778 58.2504 30.5055 58.3944 30.5605 58.5288C30.6154 58.6632 30.6967 58.7853 30.7994 58.888C30.9021 58.9907 31.0242 59.0719 31.1586 59.1269C31.293 59.1819 31.437 59.2096 31.5823 59.2083C31.7275 59.2071 31.871 59.1769 32.0044 59.1196C32.1379 59.0623 32.2586 58.9789 32.3595 58.8745L33.9061 57.3279L35.4528 58.8745C35.6591 59.0737 35.9354 59.1839 36.2222 59.1815C36.5089 59.179 36.7833 59.0639 36.9861 58.8611C37.1888 58.6584 37.3039 58.384 37.3064 58.0973C37.3089 57.8105 37.1986 57.5342 36.9994 57.3279L35.4528 55.7812L36.9994 54.2346C37.101 54.133 37.1816 54.0125 37.2366 53.8798C37.2916 53.7471 37.3199 53.6049 37.3199 53.4613C37.3199 53.3177 37.2916 53.1754 37.2366 53.0427C37.1816 52.9101 37.101 52.7895 36.9994 52.688Z" fill="white"/>
<path d="M48.125 39.375H54.6875C54.9776 39.375 55.2558 39.2598 55.4609 39.0546C55.666 38.8495 55.7812 38.5713 55.7812 38.2812C55.7812 37.9912 55.666 37.713 55.4609 37.5079C55.2558 37.3027 54.9776 37.1875 54.6875 37.1875H48.125C47.8349 37.1875 47.5567 37.3027 47.3516 37.5079C47.1465 37.713 47.0312 37.9912 47.0312 38.2812C47.0312 38.5713 47.1465 38.8495 47.3516 39.0546C47.5567 39.2598 47.8349 39.375 48.125 39.375Z" fill="white"/>
<path d="M54.6875 54.6875H48.125C47.8349 54.6875 47.5567 54.8027 47.3516 55.0079C47.1465 55.213 47.0312 55.4912 47.0312 55.7812C47.0312 56.0713 47.1465 56.3495 47.3516 56.5546C47.5567 56.7598 47.8349 56.875 48.125 56.875H54.6875C54.9776 56.875 55.2558 56.7598 55.4609 56.5546C55.666 56.3495 55.7812 56.0713 55.7812 55.7812C55.7812 55.4912 55.666 55.213 55.4609 55.0079C55.2558 54.8027 54.9776 54.6875 54.6875 54.6875Z" fill="white"/>
<path d="M20.7812 31.7188H14.2188C13.0106 31.7188 12.0312 32.6981 12.0312 33.9062V60.1562C12.0312 61.3644 13.0106 62.3438 14.2188 62.3438H20.7812C21.9894 62.3438 22.9688 61.3644 22.9688 60.1562V33.9062C22.9688 32.6981 21.9894 31.7188 20.7812 31.7188Z" fill="#4DB7E5"/>
<path d="M15.3125 45.9375H19.6875C19.9776 45.9375 20.2558 45.8223 20.4609 45.6171C20.666 45.412 20.7812 45.1338 20.7812 44.8438C20.7812 44.5537 20.666 44.2755 20.4609 44.0704C20.2558 43.8652 19.9776 43.75 19.6875 43.75H15.3125C15.0224 43.75 14.7442 43.8652 14.5391 44.0704C14.334 44.2755 14.2188 44.5537 14.2188 44.8438C14.2188 45.1338 14.334 45.412 14.5391 45.6171C14.7442 45.8223 15.0224 45.9375 15.3125 45.9375Z" fill="white"/>
<path d="M19.6875 48.125H15.3125C15.0224 48.125 14.7442 48.2402 14.5391 48.4454C14.334 48.6505 14.2188 48.9287 14.2188 49.2188C14.2188 49.5088 14.334 49.787 14.5391 49.9921C14.7442 50.1973 15.0224 50.3125 15.3125 50.3125H19.6875C19.9776 50.3125 20.2558 50.1973 20.4609 49.9921C20.666 49.787 20.7812 49.5088 20.7812 49.2188C20.7812 48.9287 20.666 48.6505 20.4609 48.4454C20.2558 48.2402 19.9776 48.125 19.6875 48.125Z" fill="white"/>
<path opacity="0.2" d="M57.9688 3.28125H55.7812V20.3972C55.78 29.8418 52.5073 38.9943 46.5196 46.2982C40.5319 53.6021 32.199 58.6064 22.9381 60.4599C22.9554 60.3595 22.9657 60.2581 22.9688 60.1562V33.9062C22.9688 33.3261 22.7383 32.7697 22.328 32.3595C21.9178 31.9492 21.3614 31.7188 20.7812 31.7188V50.3125C20.7812 52.6331 19.8594 54.8587 18.2184 56.4997C16.5775 58.1406 14.3519 59.0625 12.0312 59.0625V60.1562C12.0333 60.5413 12.1381 60.9189 12.3347 61.25H7.65625V62.3438C7.65625 63.5041 8.11719 64.6169 8.93766 65.4373C9.75813 66.2578 10.8709 66.7188 12.0312 66.7188H57.9688C59.1291 66.7188 60.2419 66.2578 61.0623 65.4373C61.8828 64.6169 62.3438 63.5041 62.3438 62.3438V7.65625C62.3438 6.49593 61.8828 5.38313 61.0623 4.56266C60.2419 3.74219 59.1291 3.28125 57.9688 3.28125Z" fill="black"/>
<path opacity="0.14" d="M38.2812 31.7188H37.1875C37.1875 33.0114 36.9329 34.2915 36.4382 35.4858C35.9435 36.6801 35.2184 37.7653 34.3043 38.6793C33.3903 39.5934 32.3051 40.3185 31.1108 40.8132C29.9165 41.3079 28.6364 41.5625 27.3438 41.5625V42.6562C27.3438 43.2364 27.5742 43.7928 27.9845 44.203C28.3947 44.6133 28.9511 44.8438 29.5312 44.8438H38.2812C38.8614 44.8438 39.4178 44.6133 39.828 44.203C40.2383 43.7928 40.4688 43.2364 40.4688 42.6562V33.9062C40.4688 33.3261 40.2383 32.7697 39.828 32.3595C39.4178 31.9492 38.8614 31.7188 38.2812 31.7188Z" fill="black"/>
</svg>
