<svg width="70" height="70" viewBox="0 0 70 70" fill="none" xmlns="http://www.w3.org/2000/svg">
<path fill-rule="evenodd" clip-rule="evenodd" d="M57.7713 70H12.1482C8.75762 70 6 67.2424 6 63.8518V6.14824C6 2.75762 8.75762 0 12.1482 0H57.7713C61.1619 0 63.9195 2.75762 63.9195 6.14824V63.8518C63.9195 67.2424 61.1605 70 57.7713 70Z" fill="#49414D"/>
<path fill-rule="evenodd" clip-rule="evenodd" d="M52.6062 22.9141H17.3136C15.3394 22.9141 13.7329 21.3076 13.7329 19.3334V10.619C13.7329 8.64337 15.3394 7.03693 17.3136 7.03693H52.6062C54.5817 7.03693 56.1868 8.64337 56.1868 10.619V19.3334C56.1868 21.3076 54.5804 22.9141 52.6062 22.9141Z" fill="#CDE2ED"/>
<path fill-rule="evenodd" clip-rule="evenodd" d="M44.1527 36.3043H38.1945C37.0051 36.3043 36.0371 35.3363 36.0371 34.1469V28.9516C36.0371 27.7621 37.0051 26.7955 38.1945 26.7955H44.1527C45.3422 26.7955 46.3102 27.7621 46.3102 28.9516V34.1469C46.3102 35.3363 45.3422 36.3043 44.1527 36.3043Z" fill="#E6E6E6"/>
<path fill-rule="evenodd" clip-rule="evenodd" d="M56.5805 36.3043H50.6209C49.4314 36.3043 48.4648 35.3363 48.4648 34.1469V28.9516C48.4648 27.7621 49.4314 26.7955 50.6209 26.7955H56.5805C57.7699 26.7955 58.7379 27.7621 58.7379 28.9516V34.1469C58.7365 35.3363 57.7699 36.3043 56.5805 36.3043Z" fill="#A6E07F"/>
<path fill-rule="evenodd" clip-rule="evenodd" d="M19.2986 49.5018H13.3391C12.1496 49.5018 11.1816 48.5338 11.1816 47.3457V42.149C11.1816 40.961 12.1496 39.993 13.3391 39.993H19.2986C20.4867 39.993 21.4547 40.961 21.4547 42.149V47.3457C21.4547 48.5338 20.4867 49.5018 19.2986 49.5018Z" fill="#E6E6E6"/>
<path fill-rule="evenodd" clip-rule="evenodd" d="M31.7264 49.5018H25.7668C24.5773 49.5018 23.6094 48.5338 23.6094 47.3457V42.149C23.6094 40.961 24.5773 39.993 25.7668 39.993H31.7264C32.9158 39.993 33.8824 40.961 33.8824 42.149V47.3457C33.8824 48.5338 32.9145 49.5018 31.7264 49.5018Z" fill="#E6E6E6"/>
<path fill-rule="evenodd" clip-rule="evenodd" d="M44.1527 49.5018H38.1945C37.0051 49.5018 36.0371 48.5338 36.0371 47.3457V42.149C36.0371 40.961 37.0051 39.993 38.1945 39.993H44.1527C45.3422 39.993 46.3102 40.961 46.3102 42.149V47.3457C46.3102 48.5338 45.3422 49.5018 44.1527 49.5018Z" fill="#E6E6E6"/>
<path fill-rule="evenodd" clip-rule="evenodd" d="M19.2986 62.6992H13.3391C12.1496 62.6992 11.1816 61.7326 11.1816 60.5432V55.3479C11.1816 54.1584 12.1496 53.1904 13.3391 53.1904H19.2986C20.4867 53.1904 21.4547 54.1584 21.4547 55.3479V60.5432C21.4547 61.7326 20.4867 62.6992 19.2986 62.6992Z" fill="#E6E6E6"/>
<path fill-rule="evenodd" clip-rule="evenodd" d="M31.7264 62.6992H25.7668C24.5773 62.6992 23.6094 61.7326 23.6094 60.5432V55.3479C23.6094 54.1584 24.5773 53.1904 25.7668 53.1904H31.7264C32.9158 53.1904 33.8824 54.1584 33.8824 55.3479V60.5432C33.8824 61.7326 32.9145 62.6992 31.7264 62.6992Z" fill="#E6E6E6"/>
<path fill-rule="evenodd" clip-rule="evenodd" d="M44.1527 62.6992H38.1945C37.0051 62.6992 36.0371 61.7326 36.0371 60.5432V55.3479C36.0371 54.1584 37.0051 53.1904 38.1945 53.1904H44.1527C45.3422 53.1904 46.3102 54.1584 46.3102 55.3479V60.5432C46.3102 61.7326 45.3422 62.6992 44.1527 62.6992Z" fill="#FFD731"/>
<path fill-rule="evenodd" clip-rule="evenodd" d="M56.3563 62.9631H51.187C49.9073 62.9631 48.8655 61.9226 48.8655 60.643V42.0492C48.8655 40.7709 49.9073 39.7291 51.187 39.7291H56.3563C57.636 39.7291 58.6764 40.7709 58.6764 42.0492V60.643C58.6764 61.9226 57.636 62.9631 56.3563 62.9631Z" fill="#FC6559"/>
<path fill-rule="evenodd" clip-rule="evenodd" d="M19.2986 36.3043H13.3391C12.1496 36.3043 11.1816 35.3363 11.1816 34.1469V28.9516C11.1816 27.7621 12.1496 26.7955 13.3391 26.7955H19.2986C20.4867 26.7955 21.4547 27.7621 21.4547 28.9516V34.1469C21.4547 35.3363 20.4867 36.3043 19.2986 36.3043Z" fill="#E6E6E6"/>
<path fill-rule="evenodd" clip-rule="evenodd" d="M31.7264 36.3043H25.7668C24.5773 36.3043 23.6094 35.3363 23.6094 34.1469V28.9516C23.6094 27.7621 24.5773 26.7955 25.7668 26.7955H31.7264C32.9158 26.7955 33.8824 27.7621 33.8824 28.9516V34.1469C33.8824 35.3363 32.9145 36.3043 31.7264 36.3043Z" fill="#E6E6E6"/>
<path fill-rule="evenodd" clip-rule="evenodd" d="M48.9515 19.1502C47.1126 19.1502 45.6716 17.3168 45.6716 14.9762C45.6716 12.6356 47.1126 10.8022 48.9515 10.8022C50.7917 10.8022 52.2328 12.6356 52.2328 14.9762C52.2328 17.3168 50.7917 19.1502 48.9515 19.1502ZM48.9515 12.7723C48.3322 12.7723 47.6417 13.6773 47.6417 14.9762C47.6417 16.275 48.3322 17.1801 48.9515 17.1801C49.5722 17.1801 50.2626 16.275 50.2626 14.9762C50.2626 13.6773 49.5722 12.7723 48.9515 12.7723Z" fill="#A7B7C0"/>
<path fill-rule="evenodd" clip-rule="evenodd" d="M40.937 19.1502C39.0981 19.1502 37.6558 17.3168 37.6558 14.9762C37.6558 12.6356 39.0981 10.8022 40.937 10.8022C42.7772 10.8022 44.2183 12.6356 44.2183 14.9762C44.2183 17.3168 42.7772 19.1502 40.937 19.1502ZM40.937 12.7723C40.3177 12.7723 39.6272 13.6773 39.6272 14.9762C39.6272 16.275 40.3177 17.1801 40.937 17.1801C41.5577 17.1801 42.2481 16.275 42.2481 14.9762C42.2481 13.6773 41.5577 12.7723 40.937 12.7723Z" fill="#A7B7C0"/>
</svg>
