<svg width="70" height="70" viewBox="0 0 70 70" fill="none" xmlns="http://www.w3.org/2000/svg">
<path d="M4.21388 4.55807H51.8779C53.3726 4.55807 54.586 5.77159 54.586 7.2662V42.7602C54.586 44.2549 53.3725 45.4683 51.8779 45.4683H4.21374C2.71899 45.4683 1.50562 44.2548 1.50562 42.7602V7.26634C1.50562 5.77159 2.71913 4.55807 4.21388 4.55807Z" fill="#FFCEC0"/>
<path d="M4.21388 4.55807H48.5966C50.0914 4.55807 51.3049 5.77159 51.3049 7.26634V42.7602C51.3049 44.2549 50.0914 45.4683 48.5967 45.4683H4.21374C2.71899 45.4683 1.50562 44.2548 1.50562 42.7602V7.26634C1.50562 5.77159 2.71913 4.55807 4.21388 4.55807Z" fill="#FFDDD4"/>
<path fill-rule="evenodd" clip-rule="evenodd" d="M4.21374 4.55807H51.8779C53.3695 4.55807 54.586 5.7746 54.586 7.26634V11.9099H1.50562V7.26634C1.50562 5.77473 2.72214 4.55807 4.21374 4.55807Z" fill="#E8333C"/>
<path fill-rule="evenodd" clip-rule="evenodd" d="M4.21374 4.55807H49.5687C50.5825 4.95182 51.3047 5.94208 51.3047 7.09653V11.9099H1.50562V7.26634C1.50562 5.77473 2.72214 4.55807 4.21374 4.55807Z" fill="#FF4D4D"/>
<path d="M10.6605 1.50595H12.4176C12.9024 1.50595 13.2962 1.89956 13.2962 2.38451V7.47181C13.2962 7.95661 12.9026 8.35023 12.4178 8.35023H10.6606C10.1758 8.35023 9.78223 7.95661 9.78223 7.47181V2.38437C9.78223 1.89956 10.1757 1.50595 10.6605 1.50595Z" fill="#5D689E"/>
<path d="M11.0845 1.50595H10.6604C10.1753 1.50595 9.78198 1.89923 9.78198 2.38437V7.47181C9.78198 7.95695 10.1753 8.35023 10.6604 8.35023H11.0845C11.5696 8.35023 11.9629 7.95695 11.9629 7.47181V2.38437C11.9629 1.89923 11.5696 1.50595 11.0845 1.50595Z" fill="#7986BF"/>
<path d="M23.4221 1.50595H21.665C21.1799 1.50595 20.7866 1.89923 20.7866 2.38437V7.47181C20.7866 7.95695 21.1799 8.35023 21.665 8.35023H23.4221C23.9073 8.35023 24.3006 7.95695 24.3006 7.47181V2.38437C24.3006 1.89923 23.9073 1.50595 23.4221 1.50595Z" fill="#5D689E"/>
<path d="M34.4268 1.50595H32.6697C32.1845 1.50595 31.7913 1.89923 31.7913 2.38437V7.47181C31.7913 7.95695 32.1845 8.35023 32.6697 8.35023H34.4268C34.9119 8.35023 35.3052 7.95695 35.3052 7.47181V2.38437C35.3052 1.89923 34.9119 1.50595 34.4268 1.50595Z" fill="#5D689E"/>
<path d="M43.6742 1.50595H45.4313C45.9161 1.50595 46.3097 1.89956 46.3097 2.38437V7.47181C46.3097 7.95661 45.9161 8.35023 45.4313 8.35023H43.6742C43.1894 8.35023 42.7957 7.95662 42.7957 7.47167V2.38437C42.7957 1.89956 43.1893 1.50595 43.6741 1.50595H43.6742Z" fill="#5D689E"/>
<path d="M8.07739 17.1076H13.047V22.0772H8.07739V17.1076Z" fill="#FF6B72"/>
<path d="M16.8193 17.1076H21.7889V22.0772H16.8193V17.1076Z" fill="#FF6B72"/>
<path d="M25.561 17.1076H30.5306V22.0772H25.561V17.1076Z" fill="#FF6B72"/>
<path d="M34.303 17.1076H39.2726V22.0772H34.303V17.1076Z" fill="#FF6B72"/>
<path d="M43.0447 17.1076H48.0143V22.0772H43.0447V17.1076Z" fill="#FF6B72"/>
<path d="M8.07739 25.8494H13.047V30.819H8.07739V25.8494Z" fill="#FF6B72"/>
<path d="M16.8193 25.8494H21.7889V30.819H16.8193V25.8494Z" fill="#FF6B72"/>
<path d="M25.561 25.8494H30.5306V30.819H25.561V25.8494Z" fill="#FF6B72"/>
<path d="M34.303 25.8494H39.2726V30.819H34.303V25.8494Z" fill="#FF6B72"/>
<path d="M43.0447 25.8494H48.0143V30.819H43.0447V25.8494Z" fill="#FF6B72"/>
<path d="M8.07739 34.5913H13.047V39.5609H8.07739V34.5913Z" fill="#FF6B72"/>
<path d="M16.8193 34.5913H21.7889V39.5609H16.8193V34.5913Z" fill="#FF6B72"/>
<path fill-rule="evenodd" clip-rule="evenodd" d="M47.3981 42.5592L25.777 39.203C25.6025 39.176 25.5104 38.9837 25.5987 38.8307L26.9607 36.4718C27.3237 35.843 27.9428 35.4806 28.6686 35.4714L51.3243 35.1876L47.398 42.5592H47.3981Z" fill="#4EB1FC"/>
<path fill-rule="evenodd" clip-rule="evenodd" d="M52.7283 45.6366L57.1491 38.5506L68.2312 58.313C68.5863 58.9462 68.5818 59.6637 68.2188 60.2923L66.8569 62.6512C66.7686 62.8042 66.5561 62.8205 66.4454 62.683L52.7283 45.6366Z" fill="#4EB1FC"/>
<path fill-rule="evenodd" clip-rule="evenodd" d="M40.8874 58.5041C39.7984 58.414 37.6094 58.0923 36.5907 57.9582C34.7836 57.7203 32.629 57.4368 32.0787 58.4082L31.1968 59.965C31.1167 60.1063 31.189 60.2835 31.345 60.3285L38.6217 62.4282L40.8873 58.504L40.8874 58.5041Z" fill="#0062D9"/>
<path fill-rule="evenodd" clip-rule="evenodd" d="M42.1749 59.2475C42.7975 60.1455 44.1704 61.8804 44.7959 62.6957C45.9055 64.1418 47.2284 65.8659 46.6623 66.8281L45.7549 68.3703C45.6724 68.5103 45.4829 68.5364 45.3659 68.4238L39.9092 63.1719L42.1749 59.2476V59.2475Z" fill="#0062D9"/>
<path fill-rule="evenodd" clip-rule="evenodd" d="M44.7336 42.1455C44.9209 41.7769 45.1087 41.4086 45.2971 41.0405C46.1294 39.4138 46.9851 37.7996 47.8186 36.1743C47.9696 35.8798 48.1327 35.562 48.3067 35.2253L51.3243 35.1874L47.398 42.559L44.7336 42.1455Z" fill="#2A93FC"/>
<path fill-rule="evenodd" clip-rule="evenodd" d="M58.6252 41.1828C58.4206 41.5018 58.2271 41.802 58.0474 42.08C57.0566 43.6145 56.0865 45.1626 55.0939 46.6968C54.8694 47.044 54.6444 47.3908 54.4187 47.7373L52.7283 45.6366L57.1491 38.5506L58.6251 41.1828H58.6252Z" fill="#2A93FC"/>
<path fill-rule="evenodd" clip-rule="evenodd" d="M65.8996 21.4971C65.9321 25.5075 61.5496 33.3658 56.5481 41.1119C54.9971 43.5142 40.6216 66.6095 37.9015 65.1626C35.2885 63.5303 48.1019 39.5332 49.4068 36.9887C53.6143 28.7842 58.2285 21.0598 61.7179 19.0828C62.9445 18.3879 63.9841 18.2865 64.7201 18.7115C65.456 19.1364 65.8882 20.0874 65.8996 21.4971Z" fill="#CFE8FF"/>
<path fill-rule="evenodd" clip-rule="evenodd" d="M65.8997 21.4971C65.9322 25.5075 61.5497 33.3658 56.5483 41.1119C54.9972 43.5142 40.6218 66.6094 37.9016 65.1626L64.7202 18.7115C65.4562 19.1364 65.8884 20.0874 65.8997 21.4971Z" fill="#9CCCFC"/>
<path d="M21.665 1.50595H22.0891C22.5739 1.50595 22.9677 1.89956 22.9677 2.38451V7.47167C22.9677 7.95648 22.5741 8.35023 22.0891 8.35023H21.665C21.1802 8.35023 20.7866 7.95661 20.7866 7.47181V2.38437C20.7866 1.89956 21.1802 1.50595 21.665 1.50595Z" fill="#7986BF"/>
<path d="M33.0938 1.50595H32.6697C32.1845 1.50595 31.7913 1.89923 31.7913 2.38437V7.47181C31.7913 7.95695 32.1845 8.35023 32.6697 8.35023H33.0938C33.5789 8.35023 33.9722 7.95695 33.9722 7.47181V2.38437C33.9722 1.89923 33.5789 1.50595 33.0938 1.50595Z" fill="#7986BF"/>
<path d="M43.6742 1.50595H44.0983C44.5831 1.50595 44.9768 1.89956 44.9768 2.38451V7.47181C44.9768 7.95661 44.5832 8.35023 44.0984 8.35023H43.6743C43.1895 8.35023 42.7959 7.95661 42.7959 7.47181V2.38437C42.7959 1.89956 43.1895 1.50595 43.6743 1.50595H43.6742Z" fill="#7986BF"/>
</svg>
