<svg width="68" height="68" viewBox="0 0 68 68" fill="none" xmlns="http://www.w3.org/2000/svg">
<path d="M52.5938 6.65625V13.2188H0.09375V6.65625C0.0954811 6.07662 0.326505 5.52123 0.736366 5.11137C1.14623 4.70151 1.70162 4.47048 2.28125 4.46875H6.65625V6.65625C6.65625 7.23641 6.88672 7.79281 7.29695 8.20305C7.70719 8.61328 8.26359 8.84375 8.84375 8.84375C9.42391 8.84375 9.98031 8.61328 10.3905 8.20305C10.8008 7.79281 11.0312 7.23641 11.0312 6.65625V4.46875H24.1562V6.65625C24.1562 7.23641 24.3867 7.79281 24.797 8.20305C25.2072 8.61328 25.7636 8.84375 26.3438 8.84375C26.9239 8.84375 27.4803 8.61328 27.8905 8.20305C28.3008 7.79281 28.5312 7.23641 28.5312 6.65625V4.46875H41.6562V6.65625C41.6562 7.23641 41.8867 7.79281 42.297 8.20305C42.7072 8.61328 43.2636 8.84375 43.8438 8.84375C44.4239 8.84375 44.9803 8.61328 45.3905 8.20305C45.8008 7.79281 46.0312 7.23641 46.0312 6.65625V4.46875H50.4062C50.9859 4.47048 51.5413 4.70151 51.9511 5.11137C52.361 5.52123 52.592 6.07662 52.5938 6.65625Z" fill="#FF7D81"/>
<path d="M52.5938 13.2188V50.4062C52.592 50.9859 52.361 51.5413 51.9511 51.9511C51.5413 52.361 50.9859 52.592 50.4062 52.5938H8.84375V46.0312C8.84202 45.4516 8.611 44.8962 8.20113 44.4864C7.79127 44.0765 7.23588 43.8455 6.65625 43.8438H0.09375V13.2188H52.5938Z" fill="#E3FBFF"/>
<path d="M0.09375 13.2188V43.8438H6.65625C7.23588 43.8455 7.79127 44.0765 8.20113 44.4864C8.611 44.8962 8.84202 45.4516 8.84375 46.0312V52.5938H50.4062C50.5585 52.5935 50.7103 52.577 50.8591 52.5445C8.63266 51.5066 0.09375 13.2188 0.09375 13.2188Z" fill="#B5EFFF"/>
<path d="M11.0312 4.46875V6.65625C11.0312 7.23641 10.8008 7.79281 10.3905 8.20305C9.98031 8.61328 9.42391 8.84375 8.84375 8.84375C8.26359 8.84375 7.70719 8.61328 7.29695 8.20305C6.88672 7.79281 6.65625 7.23641 6.65625 6.65625V2.28125C6.65798 1.70162 6.88901 1.14623 7.29887 0.736366C7.70873 0.326505 8.26412 0.0954809 8.84375 0.0937498C9.13097 0.0922216 9.41556 0.148575 9.68052 0.259447C9.94549 0.370318 10.1854 0.533435 10.3859 0.739062C10.5916 0.939602 10.7547 1.17951 10.8656 1.44448C10.9764 1.70944 11.0328 1.99403 11.0312 2.28125V4.46875Z" fill="#E4E4E4"/>
<path d="M10.3859 0.739077C10.049 0.39397 9.60544 0.172647 9.12708 0.110916C8.64872 0.0491863 8.16353 0.15066 7.75 0.39892C8.08174 0.588783 8.35753 0.862778 8.54957 1.19326C8.7416 1.52375 8.84307 1.89904 8.84375 2.28126V6.65626C8.84164 7.0382 8.73956 7.41292 8.54767 7.74316C8.35578 8.0734 8.08077 8.34764 7.75 8.53861C8.08085 8.73605 8.45848 8.8414 8.84375 8.84376C9.42338 8.84203 9.97877 8.61101 10.3886 8.20115C10.7985 7.79129 11.0295 7.23589 11.0312 6.65626V2.28126C11.0328 1.99404 10.9764 1.70946 10.8656 1.44449C10.7547 1.17953 10.5916 0.939616 10.3859 0.739077Z" fill="#C1C1C1"/>
<path d="M28.5312 4.46875V6.65625C28.5312 7.23641 28.3008 7.79281 27.8905 8.20305C27.4803 8.61328 26.9239 8.84375 26.3438 8.84375C25.7636 8.84375 25.2072 8.61328 24.797 8.20305C24.3867 7.79281 24.1562 7.23641 24.1562 6.65625V2.28125C24.158 1.70162 24.389 1.14623 24.7989 0.736366C25.2087 0.326505 25.7641 0.0954809 26.3438 0.0937498C26.631 0.0922216 26.9156 0.148575 27.1805 0.259447C27.4455 0.370318 27.6854 0.533435 27.8859 0.739062C28.0916 0.939602 28.2547 1.17951 28.3656 1.44448C28.4764 1.70944 28.5328 1.99403 28.5312 2.28125V4.46875Z" fill="#E4E4E4"/>
<path d="M46.0312 4.46875V6.65625C46.0312 7.23641 45.8008 7.79281 45.3905 8.20305C44.9803 8.61328 44.4239 8.84375 43.8438 8.84375C43.2636 8.84375 42.7072 8.61328 42.297 8.20305C41.8867 7.79281 41.6562 7.23641 41.6562 6.65625V2.28125C41.658 1.70162 41.889 1.14623 42.2989 0.736366C42.7087 0.326505 43.2641 0.0954809 43.8438 0.0937498C44.131 0.0922216 44.4156 0.148575 44.6805 0.259447C44.9455 0.370318 45.1854 0.533435 45.3859 0.739062C45.5916 0.939602 45.7547 1.17951 45.8656 1.44448C45.9764 1.70944 46.0328 1.99403 46.0312 2.28125V4.46875Z" fill="#E4E4E4"/>
<path d="M52.5938 6.65625V13.2188H0.09375V6.65625C0.0954811 6.07662 0.326505 5.52123 0.736366 5.11137C1.14623 4.70151 1.70162 4.47048 2.28125 4.46875H6.65625V6.65625C6.65625 7.23641 6.88672 7.79281 7.29695 8.20305C7.70719 8.61328 8.26359 8.84375 8.84375 8.84375C9.42391 8.84375 9.98031 8.61328 10.3905 8.20305C10.8008 7.79281 11.0312 7.23641 11.0312 6.65625V4.46875H24.1562V6.65625C24.1562 7.23641 24.3867 7.79281 24.797 8.20305C25.2072 8.61328 25.7636 8.84375 26.3438 8.84375C26.9239 8.84375 27.4803 8.61328 27.8905 8.20305C28.3008 7.79281 28.5312 7.23641 28.5312 6.65625V4.46875H41.6562V6.65625C41.6562 7.23641 41.8867 7.79281 42.297 8.20305C42.7072 8.61328 43.2636 8.84375 43.8438 8.84375C44.4239 8.84375 44.9803 8.61328 45.3905 8.20305C45.8008 7.79281 46.0312 7.23641 46.0312 6.65625V4.46875H50.4062C50.9859 4.47048 51.5413 4.70151 51.9511 5.11137C52.361 5.52123 52.592 6.07662 52.5938 6.65625Z" fill="#FF7D81"/>
<path d="M52.5938 54.7812C52.592 55.3609 52.361 55.9163 51.9511 56.3261C51.5413 56.736 50.9859 56.967 50.4062 56.9688H2.28125C1.70162 56.967 1.14623 56.736 0.736366 56.3261C0.326505 55.9163 0.0954811 55.3609 0.09375 54.7812V43.8438L8.84375 52.5938H50.4062C50.9859 52.592 51.5413 52.361 51.9511 51.9511C52.361 51.5413 52.592 50.9859 52.5938 50.4062V54.7812Z" fill="#80DBFF"/>
<path d="M50.4062 52.5938H8.84375L0.09375 43.8438V46.0312L8.84375 54.7812H50.4062C50.9859 54.7795 51.5413 54.5485 51.9511 54.1386C52.361 53.7288 52.592 53.1734 52.5938 52.5938V50.4062C52.592 50.9859 52.361 51.5413 51.9511 51.9511C51.5413 52.361 50.9859 52.592 50.4062 52.5938Z" fill="#4AB8F7"/>
<path d="M0.09375 13.2188H2.28125V43.8438H0.09375V13.2188Z" fill="#B5EFFF"/>
<path d="M50.4062 13.2188V50.4062C50.4045 50.9859 50.1735 51.5413 49.7636 51.9511C49.3538 52.361 48.7984 52.592 48.2188 52.5938H50.4062C50.9859 52.592 51.5413 52.361 51.9511 51.9511C52.361 51.5413 52.592 50.9859 52.5938 50.4062V13.2188H50.4062Z" fill="#B5EFFF"/>
<path d="M27.8859 0.739077C27.549 0.39397 27.1054 0.172647 26.6271 0.110916C26.1487 0.0491863 25.6635 0.15066 25.25 0.39892C25.5817 0.588783 25.8575 0.862778 26.0496 1.19326C26.2416 1.52375 26.3431 1.89904 26.3438 2.28126V6.65626C26.3416 7.0382 26.2396 7.41292 26.0477 7.74316C25.8558 8.0734 25.5808 8.34764 25.25 8.53861C25.5808 8.73605 25.9585 8.8414 26.3438 8.84376C26.9234 8.84203 27.4788 8.61101 27.8886 8.20115C28.2985 7.79129 28.5295 7.23589 28.5312 6.65626V2.28126C28.5328 1.99404 28.4764 1.70946 28.3656 1.44449C28.2547 1.17953 28.0916 0.939616 27.8859 0.739077Z" fill="#C1C1C1"/>
<path d="M45.3859 0.739077C45.049 0.39397 44.6054 0.172647 44.1271 0.110916C43.6487 0.0491863 43.1635 0.15066 42.75 0.39892C43.0817 0.588783 43.3575 0.862778 43.5496 1.19326C43.7416 1.52375 43.8431 1.89904 43.8438 2.28126V6.65626C43.8416 7.0382 43.7396 7.41292 43.5477 7.74316C43.3558 8.0734 43.0808 8.34764 42.75 8.53861C43.0808 8.73605 43.4585 8.8414 43.8438 8.84376C44.4234 8.84203 44.9788 8.61101 45.3886 8.20115C45.7985 7.79129 46.0295 7.23589 46.0312 6.65626V2.28126C46.0328 1.99404 45.9764 1.70946 45.8656 1.44449C45.7547 1.17953 45.5916 0.939616 45.3859 0.739077Z" fill="#C1C1C1"/>
<path d="M11.0312 4.46875H24.1562V6.65625H11.0312V4.46875Z" fill="#FF475A"/>
<path d="M2.28125 4.46875C1.70162 4.47048 1.14623 4.70151 0.736366 5.11137C0.326505 5.52123 0.0954811 6.07662 0.09375 6.65625V8.84375C0.0954811 8.26412 0.326505 7.70873 0.736366 7.29887C1.14623 6.88901 1.70162 6.65798 2.28125 6.65625H6.65625V4.46875H2.28125Z" fill="#FF475A"/>
<path d="M26.3438 8.84375C25.7641 8.84202 25.2087 8.61099 24.7989 8.20113C24.389 7.79127 24.158 7.23588 24.1562 6.65625V8.84375C24.1562 9.42391 24.3867 9.98031 24.797 10.3905C25.2072 10.8008 25.7636 11.0312 26.3438 11.0312C26.9239 11.0312 27.4803 10.8008 27.8905 10.3905C28.3008 9.98031 28.5312 9.42391 28.5312 8.84375V6.65625C28.5295 7.23588 28.2985 7.79127 27.8886 8.20113C27.4788 8.61099 26.9234 8.84202 26.3438 8.84375Z" fill="#FF475A"/>
<path d="M8.84375 8.84375C8.26412 8.84202 7.70873 8.61099 7.29887 8.20113C6.88901 7.79127 6.65798 7.23588 6.65625 6.65625V8.84375C6.65625 9.42391 6.88672 9.98031 7.29695 10.3905C7.70719 10.8008 8.26359 11.0312 8.84375 11.0312C9.42391 11.0312 9.98031 10.8008 10.3905 10.3905C10.8008 9.98031 11.0312 9.42391 11.0312 8.84375V6.65625C11.0295 7.23588 10.7985 7.79127 10.3886 8.20113C9.97877 8.61099 9.42338 8.84202 8.84375 8.84375Z" fill="#FF475A"/>
<path d="M50.4062 4.46875H46.0312V6.65625H50.4062C50.9859 6.65798 51.5413 6.88901 51.9511 7.29887C52.361 7.70873 52.592 8.26412 52.5938 8.84375V6.65625C52.592 6.07662 52.361 5.52123 51.9511 5.11137C51.5413 4.70151 50.9859 4.47048 50.4062 4.46875Z" fill="#FF475A"/>
<path d="M43.8438 8.84375C43.2641 8.84202 42.7087 8.61099 42.2989 8.20113C41.889 7.79127 41.658 7.23588 41.6562 6.65625V8.84375C41.6562 9.42391 41.8867 9.98031 42.297 10.3905C42.7072 10.8008 43.2636 11.0312 43.8438 11.0312C44.4239 11.0312 44.9803 10.8008 45.3905 10.3905C45.8008 9.98031 46.0312 9.42391 46.0312 8.84375V6.65625C46.0295 7.23588 45.7985 7.79127 45.3886 8.20113C44.9788 8.61099 44.4234 8.84202 43.8438 8.84375Z" fill="#FF475A"/>
<path d="M28.5312 4.46875H41.6562V6.65625H28.5312V4.46875Z" fill="#FF475A"/>
<path d="M4.46875 4.46875H2.28125C1.70162 4.47048 1.14623 4.70151 0.736366 5.11137C0.326505 5.52123 0.0954811 6.07662 0.09375 6.65625V13.2188H2.28125V6.65625C2.28298 6.07662 2.51401 5.52123 2.92387 5.11137C3.33373 4.70151 3.88912 4.47048 4.46875 4.46875Z" fill="#FF636E"/>
<path d="M50.4062 4.46875H48.2188C48.7984 4.47048 49.3538 4.70151 49.7636 5.11137C50.1735 5.52123 50.4045 6.07662 50.4062 6.65625V13.2188H52.5938V6.65625C52.592 6.07662 52.361 5.52123 51.9511 5.11137C51.5413 4.70151 50.9859 4.47048 50.4062 4.46875Z" fill="#FF636E"/>
<path d="M7.75 18.6875H14.3125V25.25H7.75V18.6875Z" fill="#1EA1E3"/>
<path d="M9.9375 18.6875H7.75V25.25H14.3125V23.0625C13.1522 23.0625 12.0394 22.6016 11.2189 21.7811C10.3984 20.9606 9.9375 19.8478 9.9375 18.6875Z" fill="#368DCF"/>
<path d="M23.0625 18.6875H29.625V25.25H23.0625V18.6875Z" fill="#1EA1E3"/>
<path d="M38.375 18.6875H44.9375V25.25H38.375V18.6875Z" fill="#1EA1E3"/>
<path d="M7.75 29.625H14.3125V36.1875H7.75V29.625Z" fill="#1EA1E3"/>
<path d="M23.0625 29.625H29.625V36.1875H23.0625V29.625Z" fill="#1EA1E3"/>
<path d="M38.375 29.625H44.9375V36.1875H38.375V29.625Z" fill="#1EA1E3"/>
<path d="M7.75 40.5625H14.3125V47.125H7.75V40.5625Z" fill="#1EA1E3"/>
<path d="M23.0625 40.5625H29.625V47.125H23.0625V40.5625Z" fill="#1EA1E3"/>
<path d="M38.375 40.5625H44.9375V47.125H38.375V40.5625Z" fill="#1EA1E3"/>
<path d="M25.25 18.6875H23.0625V25.25H29.625V23.0625C28.4647 23.0625 27.3519 22.6016 26.5314 21.7811C25.7109 20.9606 25.25 19.8478 25.25 18.6875Z" fill="#368DCF"/>
<path d="M40.5625 18.6875H38.375V25.25H44.9375V23.0625C43.7772 23.0625 42.6644 22.6016 41.8439 21.7811C41.0234 20.9606 40.5625 19.8478 40.5625 18.6875Z" fill="#368DCF"/>
<path d="M9.9375 29.625H7.75V36.1875H14.3125V34C13.1522 34 12.0394 33.5391 11.2189 32.7186C10.3984 31.8981 9.9375 30.7853 9.9375 29.625Z" fill="#368DCF"/>
<path d="M25.25 29.625H23.0625V36.1875H29.625V34C28.4647 34 27.3519 33.5391 26.5314 32.7186C25.7109 31.8981 25.25 30.7853 25.25 29.625Z" fill="#368DCF"/>
<path d="M40.5625 29.625H38.375V36.1875H44.9375V34C43.7772 34 42.6644 33.5391 41.8439 32.7186C41.0234 31.8981 40.5625 30.7853 40.5625 29.625Z" fill="#368DCF"/>
<path d="M9.9375 40.5625H7.75V47.125H14.3125V44.9375C13.1522 44.9375 12.0394 44.4766 11.2189 43.6561C10.3984 42.8356 9.9375 41.7228 9.9375 40.5625Z" fill="#368DCF"/>
<path d="M25.25 40.5625H23.0625V47.125H29.625V44.9375C28.4647 44.9375 27.3519 44.4766 26.5314 43.6561C25.7109 42.8356 25.25 41.7228 25.25 40.5625Z" fill="#368DCF"/>
<path d="M40.5625 40.5625H38.375V47.125H44.9375V44.9375C43.7772 44.9375 42.6644 44.4766 41.8439 43.6561C41.0234 42.8356 40.5625 41.7228 40.5625 40.5625Z" fill="#368DCF"/>
<path d="M8.84375 46.0312V52.5938L0.09375 43.8438H6.65625C7.23588 43.8455 7.79127 44.0765 8.20113 44.4864C8.611 44.8962 8.84202 45.4516 8.84375 46.0312Z" fill="#19CFFC"/>
<path d="M43.8438 36.1875L47.125 39.4688H40.5625L43.8438 36.1875Z" fill="#108D91"/>
<path d="M47.125 39.4688L40.5625 46.0312V39.4688H47.125Z" fill="#1CADB5"/>
<path d="M40.5625 39.4688H34L37.2812 36.1875L40.5625 39.4688Z" fill="#1CADB5"/>
<path d="M56.9688 39.4688H50.4062L53.6875 36.1875L56.9688 39.4688Z" fill="#1CADB5"/>
<path d="M60.25 36.1875L63.5312 39.4688H56.9688L60.25 36.1875Z" fill="#108D91"/>
<path d="M63.5312 39.4688L56.9688 46.0312V39.4688H63.5312Z" fill="#1CADB5"/>
<path d="M43.8438 36.1875L40.5625 39.4688L37.2812 36.1875H43.8438Z" fill="#96EBE6"/>
<path d="M60.25 36.1875L56.9688 39.4688L53.6875 36.1875H60.25Z" fill="#96EBE6"/>
<path d="M56.9688 39.4688V46.0312L50.4062 39.4688H56.9688Z" fill="#96EBE6"/>
<path d="M40.5625 39.4688V46.0312L34 39.4688H40.5625Z" fill="#96EBE6"/>
<path d="M51.0951 54.0375C51.6347 55.9544 51.6347 57.9831 51.0951 59.9C50.6633 61.4945 49.8656 62.9662 48.7655 64.1984C47.2966 65.8659 45.3546 67.0465 43.1982 67.5828C41.0417 68.1192 38.773 67.986 36.6941 67.201C34.6152 66.4159 32.8248 65.0163 31.5611 63.1883C30.2975 61.3604 29.6206 59.1909 29.6206 56.9688C29.6206 54.7466 30.2975 52.5771 31.5611 50.7492C32.8248 48.9212 34.6152 47.5216 36.6941 46.7365C38.773 45.9515 41.0417 45.8183 43.1982 46.3547C45.3546 46.891 47.2966 48.0716 48.7655 49.7391C49.8656 50.9713 50.6633 52.4431 51.0951 54.0375ZM47.1248 56.9688C47.1239 55.3595 46.5316 53.8067 45.4607 52.6055C44.3898 51.4043 42.9149 50.6385 41.3163 50.4536C39.7177 50.2688 38.1069 50.6777 36.7901 51.6027C35.4732 52.5278 34.5422 53.9044 34.174 55.4709C33.8057 57.0375 34.0259 58.6847 34.7927 60.0996C35.5594 61.5144 36.8193 62.5982 38.3329 63.1449C39.8464 63.6916 41.5081 63.6631 43.002 63.0649C44.4959 62.4666 45.7179 61.3403 46.4358 59.9C46.8904 58.9898 47.1264 57.9861 47.1248 56.9688Z" fill="#D9D9D9"/>
<path d="M46.4359 54.0375C46.8892 54.9482 47.125 55.9515 47.125 56.9688C47.125 57.986 46.8892 58.9893 46.4359 59.9C45.8964 57.9831 45.8964 55.9544 46.4359 54.0375Z" fill="#FFC170"/>
<path d="M56.9688 46.0313C58.7969 46.0306 60.596 46.4881 62.2017 47.362C63.8074 48.236 65.1685 49.4985 66.1604 51.0341C67.1523 52.5697 67.7435 54.3295 67.88 56.1525C68.0164 57.9755 67.6937 59.8037 66.9414 61.4699C66.189 63.136 65.0311 64.587 63.5734 65.6902C62.1156 66.7934 60.4046 67.5137 58.5967 67.7851C56.7889 68.0565 54.9418 67.8704 53.2244 67.2438C51.507 66.6173 49.974 65.5703 48.7656 64.1985C49.8658 62.9662 50.6635 61.4945 51.0953 59.9C51.7558 61.223 52.8437 62.2841 54.1827 62.9114C55.5217 63.5388 57.0334 63.6955 58.4726 63.3562C59.9118 63.0169 61.1943 62.2015 62.1121 61.0421C63.0299 59.8828 63.5293 58.4474 63.5293 56.9688C63.5293 55.4901 63.0299 54.0547 62.1121 52.8954C61.1943 51.736 59.9118 50.9206 58.4726 50.5814C57.0334 50.2421 55.5217 50.3988 54.1827 51.0261C52.8437 51.6534 51.7558 52.7145 51.0953 54.0375C50.6635 52.4431 49.8658 50.9713 48.7656 49.7391C49.7896 48.572 51.0513 47.6374 52.4661 46.9979C53.8809 46.3584 55.4161 46.0288 56.9688 46.0313Z" fill="#9C9C9C"/>
</svg>
