<svg width="70" height="70" viewBox="0 0 70 70" fill="none" xmlns="http://www.w3.org/2000/svg">
<path d="M69.6474 56.3051L68.5546 54.4123C68.3388 54.0384 67.9897 53.7708 67.5719 53.6589C67.154 53.5469 66.7181 53.6042 66.3443 53.8199L66.2475 53.8757C65.3039 53.0572 64.8888 52.19 64.8455 50.9985L64.6554 45.7878C64.6002 44.2723 64.0675 42.9993 63.0723 42.0037L52.695 31.6262C51.3404 30.2719 49.1362 30.2719 47.781 31.6264C47.1266 32.2806 46.766 33.1533 46.766 34.0833C46.766 35.0134 47.1264 35.8861 47.7808 36.5405L53.7157 42.4756C53.4885 42.6199 53.2744 42.7891 53.0783 42.9836C52.3695 43.6869 51.9769 44.6204 51.973 45.6123L51.9367 54.8083C51.9313 56.2018 52.6489 57.4925 54.0121 58.5404L55.8263 59.9352C55.2732 60.4357 55.1227 61.2723 55.5103 61.9438L56.6031 63.8365C56.819 64.2104 57.168 64.478 57.5858 64.59C57.7256 64.6274 57.8673 64.6459 58.0082 64.6459C58.2884 64.6459 58.5647 64.5726 58.8137 64.4288L69.0554 58.5154C69.8278 58.0693 70.0935 57.0777 69.6474 56.3051ZM54.1241 54.8167L54.1603 45.6209C54.162 45.2133 54.3248 44.8282 54.6189 44.5366C54.9115 44.2463 55.2952 44.0868 55.7006 44.0868H55.7069C56.1153 44.0884 56.5007 44.2509 56.7919 44.5444C57.0831 44.8379 57.2425 45.2246 57.2409 45.6331L57.2215 50.5454C57.219 51.1494 57.7068 51.641 58.311 51.6434H58.3154C58.9173 51.6434 59.4065 51.1564 59.409 50.5539L59.4284 45.6416C59.4322 44.6488 59.0475 43.712 58.3448 43.0037C57.7764 42.4308 57.057 42.065 56.2774 41.9439L49.3276 34.9936C49.0863 34.7525 48.9535 34.4291 48.9535 34.0835C48.9535 33.7377 49.0864 33.4145 49.3276 33.1734C49.8294 32.6715 50.6464 32.6712 51.148 33.1732L61.5254 43.5506C62.1339 44.1592 62.4339 44.8955 62.4693 45.8675L62.6593 51.0783C62.7159 52.6295 63.2375 53.9073 64.2786 55.0125L57.8442 58.7274L55.3453 56.806C54.5322 56.1811 54.1212 55.5118 54.1241 54.8167ZM58.2127 62.2496L57.6892 61.3429L66.9448 55.9991L67.4683 56.9058L58.2127 62.2496ZM16.9231 42.9837C16.7267 42.7891 16.5126 42.6201 16.2851 42.4761L22.2204 36.5406C22.8748 35.8863 23.2354 35.0136 23.2354 34.0835C23.2354 33.1533 22.8748 32.2807 22.2202 31.6262C20.8654 30.2719 18.6609 30.2719 17.3063 31.6264L6.92907 42.0039C5.93389 42.9992 5.4011 44.2723 5.346 45.788L5.15596 50.9987C5.11262 52.1901 4.69741 53.0573 3.75378 53.8758L3.65725 53.8202C3.28319 53.6042 2.84733 53.547 2.42938 53.659C2.01143 53.7708 1.66253 54.0384 1.44665 54.4123L0.353991 56.3049C0.137975 56.6787 0.0806898 57.115 0.192662 57.5329C0.304635 57.9507 0.572194 58.2997 0.946119 58.5157L11.1876 64.4286C11.4366 64.5725 11.713 64.6457 11.9933 64.6457C12.1341 64.6457 12.2757 64.6273 12.4156 64.5898C12.8335 64.478 13.1824 64.2104 13.3983 63.8365L14.4913 61.9435C14.8789 61.2719 14.7283 60.4355 14.1753 59.9351L15.9893 58.5404C17.3524 57.4925 18.0701 56.202 18.0648 54.8081L18.0284 45.6123C18.0243 44.6204 17.6318 43.6869 16.9231 42.9837ZM11.7886 62.2496L2.53288 56.9058L3.05637 55.9991L12.3121 61.3429L11.7886 62.2496ZM14.6559 56.8061L12.1571 58.7274L5.72266 55.0127C6.76378 53.9074 7.28536 52.6297 7.34196 51.0783L7.532 45.8675C7.56741 44.8956 7.86737 44.1594 8.4759 43.5508L18.8531 33.1734C19.3549 32.6716 20.1718 32.6717 20.6737 33.1735C20.915 33.4148 21.0477 33.7379 21.0477 34.0836C21.0477 34.4292 20.9149 34.7526 20.6735 34.9939L13.7239 41.944C12.9443 42.0651 12.2247 42.431 11.6564 43.0038C10.9537 43.7122 10.5689 44.649 10.5728 45.6417L10.5922 50.554C10.5946 51.1567 11.0838 51.6435 11.6858 51.6435H11.6902C12.2943 51.641 12.782 51.1495 12.7797 50.5455L12.7603 45.6332C12.7586 45.2247 12.918 44.8381 13.2092 44.5445C13.5005 44.251 13.8857 44.0886 14.2945 44.0869H14.3007C14.7059 44.0869 15.0898 44.2465 15.3823 44.5367C15.6763 44.8285 15.8392 45.2135 15.8408 45.621L15.8772 54.8167C15.8798 55.5118 15.4689 56.1811 14.6559 56.8061ZM43.938 38.8001C44.663 38.285 45.1384 37.4403 45.1384 36.4852C45.1384 35.2524 44.3476 34.2035 43.2477 33.8116C43.4181 33.5518 43.6311 33.2405 43.9082 32.8448C44.871 31.4707 45.6508 30.0551 44.8456 29.0108C43.993 27.9048 42.1708 28.2922 39.5076 29.2763C39.5029 29.2781 39.4983 29.2797 39.494 29.2812C39.413 29.1768 39.3026 28.9985 39.2162 28.8591C38.7688 28.1376 38.0829 27.0333 36.4892 26.5985C36.9559 25.6216 37.6674 24.7031 38.4626 23.8975C40.0815 25.0799 41.53 25.6646 42.8542 25.6646C43.1981 25.6646 43.5336 25.6252 43.8615 25.5469C46.3492 24.9518 47.6498 22.2616 48.7973 19.8877C49.5994 18.2284 50.429 16.5125 51.4033 16.0782C51.8531 15.8775 52.1133 15.4011 52.039 14.9143C51.9648 14.4274 51.5744 14.0504 51.0853 13.9929C43.7268 13.1285 39.4407 15.4757 37.8827 17.9596C37.0909 19.2222 36.8932 20.6291 37.2827 21.9798C36.8679 22.376 36.4678 22.7995 36.0943 23.2466V19.477C38.3418 17.9659 39.7137 15.2942 39.7137 12.3444C39.7137 9.15433 38.1101 6.28856 35.5287 4.86546C35.2 4.68417 34.8014 4.68417 34.4726 4.86546C31.8912 6.28856 30.2877 9.15433 30.2877 12.3444C30.2877 13.7527 30.6007 15.0976 31.1719 16.2834C29.1144 14.2604 24.9005 12.7506 18.4204 13.9242C17.9359 14.0119 17.5696 14.4127 17.5259 14.9032C17.4823 15.3936 17.7715 15.8529 18.233 16.0251C19.2325 16.3982 20.167 18.059 21.071 19.6651C22.3639 21.9628 23.8296 24.567 26.3494 25.0059C26.5921 25.0483 26.8375 25.0695 27.0862 25.0695C28.5104 25.0695 30.0349 24.3708 31.7171 22.9546C32.7472 23.8623 33.5754 25.033 33.8334 26.5225C32.0078 26.8881 31.2615 28.0908 30.785 28.8592C30.6986 28.9985 30.5881 29.1768 30.5073 29.2812C30.5029 29.2796 30.4984 29.2781 30.4936 29.2763C27.8308 28.2921 26.009 27.9042 25.1556 29.0109C24.3505 30.0552 25.1303 31.4707 26.0931 32.8448C26.3702 33.2405 26.5832 33.5518 26.7534 33.8117C25.6537 34.2037 24.8629 35.2526 24.8629 36.4852C24.8629 37.4403 25.3382 38.285 26.0633 38.8001C23.7411 41.2344 21.1369 44.5348 19.7574 48.1915C18.0395 52.7452 18.5364 56.8462 21.2342 60.3808C23.641 63.5338 27.151 65.2701 31.1175 65.2701H38.8838C42.8497 65.2701 46.3593 63.5342 48.766 60.3822C51.4647 56.8477 51.962 52.7466 50.2442 48.1924C48.8647 44.5354 46.2603 41.2346 43.938 38.8001ZM39.7358 19.1219C40.7294 17.5383 43.5594 15.9182 48.4147 16.0002C47.833 16.8565 47.3375 17.8815 46.828 18.9359C45.8463 20.9663 44.8313 23.0657 43.3527 23.4194C42.52 23.6185 41.4481 23.2807 40.1612 22.4174C41.2555 21.5937 42.2975 21.029 42.9125 20.8499C43.4923 20.6811 43.8256 20.0739 43.6566 19.494C43.4877 18.914 42.8809 18.5803 42.3007 18.7498C41.5169 18.9781 40.4304 19.5314 39.2944 20.3285C39.3433 19.9194 39.4892 19.515 39.7358 19.1219ZM27.7031 37.1379C27.3492 37.1379 27.0504 36.8389 27.0504 36.4852C27.0504 36.1313 27.3494 35.8324 27.7031 35.8324H42.2982C42.652 35.8324 42.9509 36.1314 42.9509 36.4852C42.9509 36.8391 42.6519 37.1379 42.2982 37.1379H27.7031ZM35.0006 7.11366C36.5722 8.23599 37.5262 10.1835 37.5262 12.3444C37.5262 13.9433 37.0028 15.4245 36.0943 16.5421V13.2585C36.0943 12.6545 35.6046 12.1647 35.0006 12.1647C34.3965 12.1647 33.9068 12.6545 33.9068 13.2585V16.5419C32.9985 15.4245 32.4751 13.9433 32.4751 12.3444C32.4751 10.1837 33.429 8.23599 35.0006 7.11366ZM26.7247 22.8511C25.227 22.5901 24.0833 20.5579 22.9773 18.5924C22.403 17.572 21.8445 16.5797 21.2107 15.7614C26.0552 15.3815 28.9773 16.8181 30.0671 18.3368C30.3519 18.7337 30.5278 19.15 30.5949 19.5775C29.4159 18.9605 28.2893 18.5603 27.5005 18.3228C26.9219 18.1491 26.312 18.4765 26.1378 19.0548C25.9637 19.6331 26.2913 20.2433 26.8698 20.4175C27.6141 20.6416 28.7239 21.037 29.844 21.6556C28.6151 22.5947 27.5681 22.9971 26.7247 22.8511ZM32.714 20.9357C32.8969 20.025 32.8199 19.1085 32.4854 18.2434C32.9074 18.7103 33.3835 19.125 33.9068 19.4769V22.0278C33.5345 21.6283 33.1323 21.2651 32.714 20.9357ZM29.735 31.3282C31.438 31.9575 32.2223 30.692 32.644 30.012C33.1327 29.2234 33.519 28.6008 35.0004 28.6008C36.4821 28.6008 36.8682 29.2235 37.3571 30.0119C37.7786 30.6919 38.5632 31.9576 40.2659 31.3282C41.5292 30.8613 42.2989 30.6614 42.7559 30.5791C42.6269 30.8182 42.4267 31.1468 42.1165 31.5896C41.4642 32.5207 41.0949 33.0801 40.8066 33.6448H29.194C28.9058 33.0801 28.5365 32.5207 27.8842 31.5896C27.574 31.1469 27.374 30.8182 27.2448 30.5791C27.7021 30.6614 28.472 30.8613 29.735 31.3282ZM47.0273 59.0546C45.0152 61.6897 42.1994 63.0826 38.8838 63.0826H31.1175C27.8015 63.0826 24.9851 61.6895 22.9732 59.0535C20.7636 56.1588 20.3703 52.764 21.8041 48.9635C23.2516 45.1267 26.2439 41.6539 28.6169 39.3254H41.3845C43.7577 41.654 46.75 45.1271 48.1975 48.9644C49.6311 52.7653 49.2375 56.1601 47.0273 59.0546ZM35.0006 40.6765C29.3277 40.6765 24.7125 45.2917 24.7125 50.9646C24.7125 56.6374 29.3277 61.2526 35.0006 61.2526C40.6734 61.2526 45.2887 56.6374 45.2887 50.9646C45.2887 45.2917 40.6734 40.6765 35.0006 40.6765ZM35.0006 59.0651C30.5338 59.0651 26.9 55.4313 26.9 50.9646C26.9 46.4978 30.5338 42.864 35.0006 42.864C39.4673 42.864 43.1012 46.4978 43.1012 50.9646C43.1012 55.4313 39.4673 59.0651 35.0006 59.0651ZM35.0006 43.4532C30.8588 43.4532 27.4894 46.8228 27.4894 50.9644C27.4894 55.106 30.859 58.4756 35.0006 58.4756C39.1422 58.4756 42.5118 55.106 42.5118 50.9644C42.5118 46.8228 39.1423 43.4532 35.0006 43.4532ZM35.0006 56.2882C32.0649 56.2882 29.6769 53.9 29.6769 50.9646C29.6769 48.0291 32.0651 45.6409 35.0006 45.6409C37.9361 45.6409 40.3243 48.0291 40.3243 50.9646C40.3243 53.9 37.9362 56.2882 35.0006 56.2882Z" fill="white"/>
<path d="M35.4867 53.6263C35.4349 53.626 35.3838 53.615 35.3364 53.594C35.289 53.573 35.2464 53.5424 35.2112 53.5042L33.1095 51.2311C33.0394 51.1599 33 51.0637 33 50.9634C33 50.8632 33.0394 50.767 33.1095 50.6957C33.1779 50.6315 33.2682 50.5962 33.3617 50.5971H34.4032C34.5787 50.594 34.7497 50.5412 34.8968 50.4449C35.0438 50.3485 35.1609 50.2125 35.2345 50.0523H33.7353C33.6429 50.0419 33.5574 49.9976 33.4954 49.9279C33.4333 49.8581 33.399 49.7678 33.399 49.6743C33.399 49.5807 33.4333 49.4904 33.4954 49.4206C33.5574 49.3509 33.6429 49.3066 33.7353 49.2962H35.2579C35.1835 49.1369 35.0662 49.0018 34.9192 48.9063C34.7722 48.8109 34.6015 48.7588 34.4266 48.7561H33.3851C33.2926 48.7457 33.2071 48.7014 33.1451 48.6317C33.083 48.5619 33.0487 48.4716 33.0487 48.3781C33.0487 48.2845 33.083 48.1942 33.1451 48.1244C33.2071 48.0547 33.2926 48.0104 33.3851 48H36.6543C36.7468 48.0104 36.8323 48.0547 36.8943 48.1244C36.9564 48.1942 36.9907 48.2845 36.9907 48.3781C36.9907 48.4716 36.9564 48.5619 36.8943 48.6317C36.8323 48.7014 36.7468 48.7457 36.6543 48.7561H35.8183C35.9267 48.9206 36.0042 49.1037 36.0472 49.2962H36.6637C36.7562 49.3066 36.8416 49.3509 36.9036 49.4206C36.9657 49.4904 37 49.5807 37 49.6743C37 49.7678 36.9657 49.8581 36.9036 49.9279C36.8416 49.9976 36.7562 50.0419 36.6637 50.0523H36.0519C35.9665 50.4217 35.7595 50.7512 35.4645 50.9874C35.1694 51.2235 34.8037 51.3525 34.4266 51.3532H34.2491L35.7856 53.0157C35.8555 53.0862 35.8948 53.1816 35.8948 53.2811C35.8948 53.3806 35.8555 53.476 35.7856 53.5464C35.7441 53.5799 35.696 53.6043 35.6446 53.618C35.5931 53.6318 35.5393 53.6346 35.4867 53.6263Z" fill="white"/>
</svg>
