<svg width="70" height="70" viewBox="0 0 70 70" fill="none" xmlns="http://www.w3.org/2000/svg">
<mask id="mask0_1265_404" style="mask-type:luminance" maskUnits="userSpaceOnUse" x="0" y="0" width="70" height="70">
<path d="M0 7.62939e-06H70V70H0V7.62939e-06Z" fill="white"/>
</mask>
<g mask="url(#mask0_1265_404)">
<path d="M35 1.02539C40.663 1.02539 45.2539 5.61627 45.2539 11.2793C45.2539 16.9423 40.663 21.5332 35 21.5332C29.337 21.5332 24.7461 16.9423 24.7461 11.2793C24.7461 5.61627 29.337 1.02539 35 1.02539Z" stroke="white" stroke-width="2" stroke-miterlimit="22.926"/>
<path d="M43.2031 56.6699V62.8223M26.7969 50.5176V56.6699M45.2539 68.9746V62.8223H22.6953V56.6699H47.3047V50.5176L24.7461 50.5177V44.3654H45.2539V50.5177M24.7461 62.8223V68.9746" stroke="white" stroke-width="2" stroke-miterlimit="22.926"/>
<path d="M24.746 27.6855H20.6444C19.5166 27.6855 18.5938 26.7627 18.5938 25.6348V23.5838C18.5938 22.4559 19.5165 21.5331 20.6444 21.5331H49.3555C50.4834 21.5331 51.4062 22.4561 51.4062 23.5838V25.6348C51.4062 26.7627 50.4834 27.6855 49.3555 27.6855H26.7967" stroke="white" stroke-width="2" stroke-miterlimit="22.926"/>
<path d="M38.0762 68.9746H51.4062C53.6621 68.9746 55.5078 67.1288 55.5078 64.873V35.6837C55.5078 33.8996 54.4659 33.317 53.457 32.8126L51.4062 31.7873C50.3974 31.2829 49.3555 30.7414 49.3555 29.3263V27.6857M33.9746 68.9746H36.0254M20.6445 27.6857V29.3263C20.6445 30.7414 19.6026 31.2829 18.5938 31.7873L16.543 32.8126C15.5341 33.317 14.4922 33.8996 14.4922 35.6837V64.873C14.4922 67.1288 16.3379 68.9746 18.5938 68.9746H31.9238" stroke="white" stroke-width="2" stroke-miterlimit="22.926"/>
<path d="M31.9238 31.7871H33.9746M36.0254 31.7871H38.0762" stroke="white" stroke-width="2" stroke-miterlimit="2.613"/>
</g>
<path d="M36.2994 17.99C36.1891 17.9894 36.08 17.966 35.979 17.9212C35.878 17.8764 35.7872 17.8113 35.7122 17.7298L31.2334 12.8858C31.0839 12.734 31 12.5289 31 12.3153C31 12.1016 31.0839 11.8966 31.2334 11.7448C31.3791 11.608 31.5715 11.5327 31.7709 11.5346H33.9904C34.3643 11.528 34.7288 11.4156 35.0422 11.2103C35.3555 11.0049 35.605 10.715 35.762 10.3737H32.5671C32.37 10.3515 32.1879 10.2571 32.0557 10.1085C31.9234 9.95985 31.8503 9.76742 31.8503 9.56799C31.8503 9.36855 31.9234 9.17612 32.0557 9.02748C32.1879 8.87884 32.37 8.78444 32.5671 8.76231H35.8118C35.6533 8.42285 35.4032 8.13498 35.09 7.93148C34.7768 7.72799 34.413 7.61707 34.0401 7.61135H31.8206C31.6235 7.58922 31.4414 7.49482 31.3092 7.34618C31.177 7.19754 31.1039 7.00511 31.1039 6.80567C31.1039 6.60624 31.177 6.41381 31.3092 6.26517C31.4414 6.11653 31.6235 6.02212 31.8206 6H38.7877C38.9848 6.02212 39.1669 6.11653 39.2991 6.26517C39.4313 6.41381 39.5044 6.60624 39.5044 6.80567C39.5044 7.00511 39.4313 7.19754 39.2991 7.34618C39.1669 7.49482 38.9848 7.58922 38.7877 7.61135H37.0061C37.237 7.96194 37.4023 8.352 37.4938 8.76231H38.8076C39.0047 8.78444 39.1868 8.87884 39.319 9.02748C39.4512 9.17612 39.5243 9.36855 39.5243 9.56799C39.5243 9.76742 39.4512 9.95985 39.319 10.1085C39.1868 10.2571 39.0047 10.3515 38.8076 10.3737H37.5038C37.3219 11.1608 36.8808 11.8631 36.252 12.3663C35.6233 12.8696 34.8438 13.1444 34.0401 13.146H33.6619L36.9364 16.6889C37.0853 16.839 37.169 17.0424 37.169 17.2544C37.169 17.4664 37.0853 17.6698 36.9364 17.8199C36.8479 17.8912 36.7455 17.9432 36.6358 17.9725C36.5261 18.0018 36.4116 18.0078 36.2994 17.99Z" fill="white"/>
</svg>
