<svg width="70" height="70" viewBox="0 0 70 70" fill="none" xmlns="http://www.w3.org/2000/svg">
<path fill-rule="evenodd" clip-rule="evenodd" d="M21.3992 63.7378C21.483 63.9393 21.5669 64.1408 21.6508 64.3425L21.6512 64.3434C21.8958 64.935 21.8963 65.5311 21.6545 66.1266L21.6528 66.1307C21.4082 66.7176 20.9869 67.1409 20.393 67.391L20.3905 67.392L17.1791 68.7234C15.9948 69.2176 14.6236 68.6502 14.1325 67.4671C12.3207 63.1136 10.5063 58.7602 8.69595 54.4101C8.44491 53.818 8.4434 53.2168 8.69019 52.6202C8.93574 52.0264 9.35999 51.6026 9.94977 51.3569L13.1648 50.0225C14.3482 49.5313 15.7149 50.0933 16.2111 51.2778L16.2115 51.2788C16.277 51.436 16.3423 51.5931 16.4078 51.7504C17.9107 51.0393 19.4113 50.3234 20.9055 49.5925C23.0788 48.5293 24.7951 47.8352 26.7907 48.1049C28.0849 48.2798 29.5116 48.8616 31.2609 50.0811L37.1548 51.66C38.1633 51.9301 38.9705 52.5881 39.4586 53.4308L47.5869 51.0463C51.301 49.9568 53.3476 50.7979 54.2504 52.0182C54.8667 52.8511 55.0328 53.9286 54.8021 54.9947C54.4824 56.4728 53.3888 57.9058 51.9009 58.4797L39.3601 63.3122C37.2124 64.1388 34.3396 65.2759 32.0348 64.6067L25.3538 62.6686L25.3522 62.6682C24.6188 62.4541 23.9149 62.5135 23.227 62.8486L21.3992 63.7378ZM19.8752 65.0781C19.6763 64.6005 14.6311 52.4836 14.4377 52.019C14.3504 51.8108 14.11 51.7112 13.9016 51.7976L10.6883 53.1313C10.5843 53.1747 10.5096 53.2498 10.4663 53.3547C10.4241 53.4564 10.4226 53.5589 10.4668 53.6629L10.468 53.6659C12.2801 58.0202 14.0949 62.3744 15.907 66.729C15.993 66.9359 16.2325 67.0361 16.4411 66.9488L19.6508 65.6181L19.6527 65.6173C19.7569 65.5725 19.8328 65.4987 19.8784 65.3918C19.9187 65.2875 19.9182 65.1825 19.8752 65.0781ZM20.6592 61.9604L22.3855 61.1207C23.5202 60.5681 24.6809 60.4701 25.8892 60.8227L32.5703 62.7609C33.4718 63.0226 34.4804 62.8885 35.4744 62.6338C36.604 62.3443 37.7153 61.8859 38.6694 61.5186L51.2091 56.6867C52.0981 56.3435 52.7325 55.4715 52.9236 54.5883C53.0335 54.0799 52.9992 53.5585 52.7055 53.1614C52.453 52.8202 52.0199 52.5959 51.4068 52.5015C50.5894 52.3757 49.5124 52.4843 48.1279 52.8906L39.9746 55.2824C39.98 55.6247 39.9387 55.9731 39.8461 56.3191C39.3049 58.34 37.2064 59.5521 35.187 59.0078L27.135 56.8518C26.6228 56.7145 26.3182 56.1872 26.4554 55.6748C26.5926 55.1626 27.12 54.858 27.6322 54.9951L35.6841 57.1513L35.6856 57.1517C36.6848 57.421 37.7219 56.821 37.9896 55.8219C38.2574 54.8222 37.6573 53.7843 36.6575 53.5165L30.599 51.8934C30.4886 51.8639 30.3846 51.8149 30.2914 51.7489C28.8057 50.6945 27.6213 50.1566 26.5333 50.0096C24.903 49.7893 23.5255 50.4503 21.75 51.319C20.221 52.0668 18.6852 52.7993 17.1473 53.5268C18.3175 56.3377 19.4887 59.149 20.6592 61.9604ZM40.9562 48.9536C36.87 51.3089 31.5279 50.7441 28.0435 47.2598C23.9115 43.1277 24.4023 36.8697 27.9608 32.2343L31.9936 26.9811L29.8575 23.2632C29.6868 22.9657 29.6873 22.5999 29.859 22.3032C30.0309 22.0065 30.3478 21.8236 30.6906 21.8236H40.5163C40.8592 21.8236 41.1761 22.0065 41.3479 22.3032C41.5196 22.5999 41.5202 22.9657 41.3494 23.2632L39.2133 26.9811L43.2462 32.2346C43.4188 32.4595 43.5842 32.6883 43.7423 32.9207C44.7635 32.7103 45.9651 32.5847 47.2533 32.5847C49.8571 32.5847 52.1071 33.098 53.2279 33.7862C54.0289 34.278 54.3734 34.9136 54.3734 35.5059V47.4582C54.3734 48.0504 54.0289 48.6861 53.2279 49.1778C52.1071 49.8662 49.8571 50.3794 47.2533 50.3794C44.6496 50.3794 42.3994 49.8662 41.2786 49.1778C41.1615 49.1061 41.0542 49.031 40.9562 48.9536ZM41.804 33.5127C41.7769 33.4764 41.7494 33.4403 41.7218 33.4042L37.5874 28.0188H33.6195L29.4851 33.4045C26.5255 37.2596 25.9656 42.4643 29.4024 45.901C32.3 48.7986 36.764 49.2343 40.1331 47.2085V35.5059C40.1331 34.9136 40.4776 34.278 41.2786 33.7862C41.433 33.6914 41.6089 33.6 41.804 33.5127ZM37.5051 26.0972C37.9698 25.2882 38.8562 23.7452 38.8562 23.7452H32.3507L33.7019 26.0972H37.5051ZM52.3116 35.5059C52.1856 35.4171 52.007 35.3011 51.8416 35.2293C50.8078 34.7805 49.1361 34.5063 47.2533 34.5063C45.3705 34.5063 43.6988 34.7805 42.6649 35.2293C42.4996 35.3011 42.3209 35.4171 42.1949 35.5059C42.3209 35.5947 42.4996 35.7107 42.6649 35.7825C43.6988 36.2313 45.3705 36.5055 47.2533 36.5055C49.1361 36.5055 50.8078 36.2313 51.8416 35.7825C52.0069 35.7107 52.1856 35.5947 52.3116 35.5059ZM52.4519 39.3869V37.6047C51.2189 38.094 49.3509 38.4271 47.2533 38.4271C45.1558 38.4271 43.2878 38.094 42.0547 37.6047V39.3869C42.1414 39.4536 42.4181 39.6594 42.6649 39.7666C43.6988 40.2154 45.3705 40.4896 47.2533 40.4896C49.1361 40.4896 50.8078 40.2154 51.8416 39.7666C52.0885 39.6594 52.3651 39.4536 52.4519 39.3869ZM52.4519 43.371V41.5887C51.2189 42.0781 49.3509 42.4112 47.2533 42.4112C45.1558 42.4112 43.2878 42.0781 42.0547 41.5887V43.371C42.1414 43.4377 42.4181 43.6435 42.6649 43.7507C43.6988 44.1995 45.3705 44.4737 47.2533 44.4737C49.1361 44.4737 50.8078 44.1995 51.8416 43.7507C52.0885 43.6435 52.3651 43.4377 52.4519 43.371ZM42.0547 45.5728V47.3551C42.1414 47.4218 42.4181 47.6276 42.6649 47.7348C43.6988 48.1837 45.3705 48.4578 47.2533 48.4578C49.1361 48.4578 50.8078 48.1837 51.8416 47.7348C52.0885 47.6276 52.3651 47.4218 52.4519 47.3551V45.5728C51.2189 46.0622 49.3509 46.3953 47.2533 46.3953C45.1558 46.3953 43.2878 46.0622 42.0547 45.5728ZM10.7496 1.09814C16.0799 1.09814 20.4015 5.41975 20.4015 10.75C20.4015 16.0805 16.08 20.401 10.7496 20.401C5.41913 20.401 1.09766 16.0805 1.09766 10.75C1.09766 5.41975 5.41913 1.09814 10.7496 1.09814ZM10.7496 3.01971C6.48038 3.01971 3.01923 6.48087 3.01923 10.75C3.01923 15.0192 6.48038 18.4794 10.7496 18.4794C15.0187 18.4794 18.4799 15.0192 18.4799 10.75C18.4799 6.48087 15.0187 3.01971 10.7496 3.01971ZM59.2497 1.09814C64.5801 1.09814 68.9016 5.41975 68.9016 10.75C68.9016 16.0805 64.5801 20.401 59.2497 20.401C53.9192 20.401 49.5978 16.0805 49.5978 10.75C49.5978 5.41975 53.9194 1.09814 59.2497 1.09814ZM59.2497 3.01971C54.9805 3.01971 51.5193 6.48087 51.5193 10.75C51.5193 15.0192 54.9805 18.4794 59.2497 18.4794C63.5189 18.4794 66.98 15.0192 66.98 10.75C66.98 6.48087 63.5189 3.01971 59.2497 3.01971ZM32.9408 14.1203L33.3469 13.4168C33.6121 12.9577 34.2002 12.8001 34.6594 13.0651C35.1186 13.3303 35.2762 13.9184 35.0111 14.3776L32.812 18.1864C32.6405 18.4837 32.3233 18.6668 31.98 18.6668C31.6367 18.6668 31.3195 18.4837 31.148 18.1864L28.9489 14.3776C28.6838 13.9184 28.8414 13.3303 29.3007 13.0651C29.7598 12.8001 30.3479 12.9577 30.6131 13.4168L31.0192 14.1203V11.7104H23.0584C22.5282 11.7104 22.0977 11.2799 22.0977 10.7496C22.0977 10.2193 22.5282 9.78885 23.0584 9.78885H31.98C32.5106 9.78885 32.9408 10.219 32.9408 10.7496V14.1203ZM37.7476 14.1203V10.7496C37.7476 10.219 38.1778 9.78885 38.7084 9.78885H47.63C48.1603 9.78885 48.5907 10.2193 48.5907 10.7496C48.5907 11.2799 48.1603 11.7104 47.63 11.7104H39.6692V14.1203L40.0754 13.4168C40.3405 12.9577 40.9286 12.8001 41.3879 13.0651C41.8471 13.3303 42.0047 13.9184 41.7395 14.3776L39.5406 18.1864C39.3689 18.4837 39.0517 18.6668 38.7084 18.6668C38.3652 18.6668 38.0481 18.4837 37.8763 18.1864L35.6774 14.3776C35.4122 13.9184 35.5698 13.3303 36.029 13.0651C36.4883 12.8001 37.0763 12.9577 37.3415 13.4168L37.7476 14.1203Z" fill="white"/>
<path d="M60.4162 15.9917C60.3242 15.9912 60.2333 15.9716 60.1491 15.9343C60.065 15.897 59.9893 15.8428 59.9269 15.7748L56.1945 11.7381C56.0699 11.6116 56 11.4408 56 11.2627C56 11.0847 56.0699 10.9138 56.1945 10.7873C56.3159 10.6733 56.4763 10.6106 56.6424 10.6122H58.492C58.8036 10.6067 59.1074 10.513 59.3685 10.3419C59.6296 10.1708 59.8375 9.92916 59.9683 9.64472H57.3059C57.1417 9.62628 56.9899 9.54761 56.8797 9.42374C56.7695 9.29988 56.7086 9.13951 56.7086 8.97332C56.7086 8.80713 56.7695 8.64677 56.8797 8.5229C56.9899 8.39904 57.1417 8.32036 57.3059 8.30193H60.0098C59.8778 8.01904 59.6694 7.77915 59.4083 7.60957C59.1473 7.43999 58.8442 7.34756 58.5334 7.34279H56.6838C56.5196 7.32435 56.3679 7.24568 56.2577 7.12182C56.1475 6.99795 56.0866 6.83759 56.0866 6.6714C56.0866 6.5052 56.1475 6.34484 56.2577 6.22097C56.3679 6.09711 56.5196 6.01844 56.6838 6H62.4897C62.654 6.01844 62.8057 6.09711 62.9159 6.22097C63.0261 6.34484 63.087 6.5052 63.087 6.6714C63.087 6.83759 63.0261 6.99795 62.9159 7.12182C62.8057 7.24568 62.654 7.32435 62.4897 7.34279H61.0051C61.1975 7.63495 61.3352 7.96 61.4115 8.30193H62.5063C62.6706 8.32036 62.8223 8.39904 62.9325 8.5229C63.0427 8.64677 63.1036 8.80713 63.1036 8.97332C63.1036 9.13951 63.0427 9.29988 62.9325 9.42374C62.8223 9.54761 62.6706 9.62628 62.5063 9.64472H61.4198C61.2683 10.3007 60.9007 10.8859 60.3767 11.3053C59.8527 11.7247 59.2031 11.9536 58.5334 11.955H58.2183L60.947 14.9075C61.0711 15.0325 61.1408 15.202 61.1408 15.3787C61.1408 15.5554 61.0711 15.7248 60.947 15.8499C60.8732 15.9094 60.7879 15.9527 60.6965 15.9771C60.6051 16.0015 60.5096 16.0065 60.4162 15.9917Z" fill="white"/>
<path d="M11.4162 15.9917C11.3242 15.9912 11.2333 15.9716 11.1491 15.9343C11.065 15.897 10.9893 15.8428 10.9269 15.7748L7.1945 11.7381C7.0699 11.6116 7 11.4408 7 11.2627C7 11.0847 7.0699 10.9138 7.1945 10.7873C7.31589 10.6733 7.47626 10.6106 7.64238 10.6122H9.49197C9.80359 10.6067 10.1074 10.513 10.3685 10.3419C10.6296 10.1708 10.8375 9.92916 10.9683 9.64472H8.30591C8.14166 9.62628 7.98992 9.54761 7.87973 9.42374C7.76954 9.29988 7.70862 9.13952 7.70862 8.97332C7.70862 8.80713 7.76954 8.64676 7.87973 8.5229C7.98992 8.39904 8.14166 8.32036 8.30591 8.30193H11.0098C10.8778 8.01904 10.6694 7.77915 10.4083 7.60957C10.1473 7.43999 9.84416 7.34756 9.53344 7.34279H7.68385C7.5196 7.32435 7.36787 7.24568 7.25767 7.12182C7.14748 6.99795 7.08656 6.83759 7.08656 6.6714C7.08656 6.5052 7.14748 6.34484 7.25767 6.22097C7.36787 6.09711 7.5196 6.01844 7.68385 6H13.4897C13.654 6.01844 13.8057 6.09711 13.9159 6.22097C14.0261 6.34484 14.087 6.5052 14.087 6.6714C14.087 6.83759 14.0261 6.99795 13.9159 7.12182C13.8057 7.24568 13.654 7.32435 13.4897 7.34279H12.0051C12.1975 7.63495 12.3352 7.96 12.4115 8.30193H13.5063C13.6706 8.32036 13.8223 8.39904 13.9325 8.5229C14.0427 8.64676 14.1036 8.80713 14.1036 8.97332C14.1036 9.13952 14.0427 9.29988 13.9325 9.42374C13.8223 9.54761 13.6706 9.62628 13.5063 9.64472H12.4198C12.2683 10.3007 11.9007 10.8859 11.3767 11.3053C10.8527 11.7247 10.2031 11.9536 9.53344 11.955H9.21826L11.947 14.9075C12.0711 15.0325 12.1408 15.202 12.1408 15.3787C12.1408 15.5554 12.0711 15.7248 11.947 15.8499C11.8732 15.9094 11.7879 15.9527 11.6965 15.9771C11.6051 16.0015 11.5096 16.0065 11.4162 15.9917Z" fill="white"/>
<path d="M60.4162 15.9917C60.3242 15.9912 60.2333 15.9716 60.1491 15.9343C60.065 15.897 59.9893 15.8428 59.9269 15.7748L56.1945 11.7381C56.0699 11.6116 56 11.4408 56 11.2627C56 11.0847 56.0699 10.9138 56.1945 10.7873C56.3159 10.6733 56.4763 10.6106 56.6424 10.6122H58.492C58.8036 10.6067 59.1074 10.513 59.3685 10.3419C59.6296 10.1708 59.8375 9.92916 59.9683 9.64472H57.3059C57.1417 9.62628 56.9899 9.54761 56.8797 9.42374C56.7695 9.29988 56.7086 9.13952 56.7086 8.97332C56.7086 8.80713 56.7695 8.64676 56.8797 8.5229C56.9899 8.39904 57.1417 8.32036 57.3059 8.30193H60.0098C59.8778 8.01904 59.6694 7.77915 59.4083 7.60957C59.1473 7.43999 58.8442 7.34756 58.5334 7.34279H56.6839C56.5196 7.32435 56.3679 7.24568 56.2577 7.12182C56.1475 6.99795 56.0866 6.83759 56.0866 6.6714C56.0866 6.5052 56.1475 6.34484 56.2577 6.22097C56.3679 6.09711 56.5196 6.01844 56.6839 6H62.4897C62.654 6.01844 62.8057 6.09711 62.9159 6.22097C63.0261 6.34484 63.087 6.5052 63.087 6.6714C63.087 6.83759 63.0261 6.99795 62.9159 7.12182C62.8057 7.24568 62.654 7.32435 62.4897 7.34279H61.0051C61.1975 7.63495 61.3352 7.96 61.4115 8.30193H62.5063C62.6706 8.32036 62.8223 8.39904 62.9325 8.5229C63.0427 8.64676 63.1036 8.80713 63.1036 8.97332C63.1036 9.13952 63.0427 9.29988 62.9325 9.42374C62.8223 9.54761 62.6706 9.62628 62.5063 9.64472H61.4198C61.2683 10.3007 60.9007 10.8859 60.3767 11.3053C59.8527 11.7247 59.2031 11.9536 58.5334 11.955H58.2183L60.947 14.9075C61.0711 15.0325 61.1408 15.202 61.1408 15.3787C61.1408 15.5554 61.0711 15.7248 60.947 15.8499C60.8732 15.9094 60.7879 15.9527 60.6965 15.9771C60.6051 16.0015 60.5096 16.0065 60.4162 15.9917Z" fill="white"/>
<path d="M36.0706 41.995C36.0154 41.9947 35.9609 41.983 35.9104 41.9606C35.8599 41.9382 35.8145 41.9057 35.777 41.8649L33.5376 39.4429C33.4628 39.367 33.4209 39.2645 33.4209 39.1576C33.4209 39.0508 33.4628 38.9483 33.5376 38.8724C33.6104 38.804 33.7067 38.7663 33.8063 38.7673H34.9161C35.1031 38.764 35.2853 38.7078 35.442 38.6051C35.5986 38.5025 35.7234 38.3575 35.8019 38.1868H34.2044C34.1059 38.1758 34.0149 38.1286 33.9487 38.0542C33.8826 37.9799 33.8461 37.8837 33.8461 37.784C33.8461 37.6843 33.8826 37.5881 33.9487 37.5137C34.0149 37.4394 34.1059 37.3922 34.2044 37.3812H35.8268C35.7476 37.2114 35.6225 37.0675 35.4659 36.9657C35.3093 36.864 35.1274 36.8085 34.941 36.8057H33.8312C33.7327 36.7946 33.6416 36.7474 33.5755 36.6731C33.5094 36.5988 33.4728 36.5026 33.4728 36.4028C33.4728 36.3031 33.5094 36.2069 33.5755 36.1326C33.6416 36.0583 33.7327 36.0111 33.8312 36H37.3147C37.4133 36.0111 37.5043 36.0583 37.5704 36.1326C37.6366 36.2069 37.6731 36.3031 37.6731 36.4028C37.6731 36.5026 37.6366 36.5988 37.5704 36.6731C37.5043 36.7474 37.4133 36.7946 37.3147 36.8057H36.424C36.5394 36.981 36.622 37.176 36.6678 37.3812H37.3247C37.4232 37.3922 37.5143 37.4394 37.5804 37.5137C37.6465 37.5881 37.6831 37.6843 37.6831 37.784C37.6831 37.8837 37.6465 37.9799 37.5804 38.0542C37.5143 38.1286 37.4232 38.1758 37.3247 38.1868H36.6728C36.5819 38.5804 36.3613 38.9315 36.0469 39.1832C35.7325 39.4348 35.3428 39.5722 34.941 39.573H34.7519L36.3891 41.3445C36.4636 41.4195 36.5054 41.5212 36.5054 41.6272C36.5054 41.7332 36.4636 41.8349 36.3891 41.9099C36.3448 41.9456 36.2936 41.9716 36.2388 41.9862C36.1839 42.0009 36.1267 42.0039 36.0706 41.995Z" fill="white"/>
</svg>
