<svg width="70" height="70" viewBox="0 0 70 70" fill="none" xmlns="http://www.w3.org/2000/svg">
<path d="M21.3965 21.2529C25.1355 13.9312 32.75 8.91797 41.5354 8.91797" stroke="white" stroke-width="2" stroke-miterlimit="10" stroke-linecap="round" stroke-linejoin="round"/>
<path d="M18.9365 31.5166C18.9365 29.4838 19.2049 27.5139 19.7082 25.6401" stroke="white" stroke-width="2" stroke-miterlimit="10" stroke-linecap="round" stroke-linejoin="round"/>
<path d="M68.0047 24.2591C64.9148 12.9646 54.7889 4.5772 42.6311 4.09991C42.0667 4.07776 41.5947 4.52388 41.5947 5.08866V15.4786" stroke="white" stroke-width="2" stroke-miterlimit="10" stroke-linecap="round" stroke-linejoin="round"/>
<path d="M24.8827 31.5812H15.1077C14.5428 31.5812 14.0967 32.0531 14.119 32.6176C14.697 47.2617 26.751 58.9563 41.5368 58.9557C56.7312 58.955 68.9748 46.7107 68.9746 31.5163C68.9746 30.8676 68.9521 30.2239 68.9078 29.5864" stroke="white" stroke-width="2" stroke-miterlimit="10" stroke-linecap="round" stroke-linejoin="round"/>
<path d="M41.5351 47.5546C50.3927 47.5546 57.5732 40.3742 57.5732 31.5166C57.5732 22.659 50.3927 15.4785 41.5351 15.4785C32.6776 15.4785 25.4971 22.659 25.4971 31.5166C25.4971 40.3742 32.6776 47.5546 41.5351 47.5546Z" stroke="white" stroke-width="2" stroke-miterlimit="10" stroke-linecap="round" stroke-linejoin="round"/>
<path d="M41.535 42.6785C47.6996 42.6785 52.697 37.6811 52.697 31.5165C52.697 25.3519 47.6996 20.3545 41.535 20.3545C35.3704 20.3545 30.373 25.3519 30.373 31.5165C30.373 37.6811 35.3704 42.6785 41.535 42.6785Z" stroke="white" stroke-width="2" stroke-miterlimit="10" stroke-linecap="round" stroke-linejoin="round"/>
<path d="M10.5194 9.18484H3.07617C1.94359 9.18484 1.02539 8.26664 1.02539 7.13406V4.56689C1.02539 3.43432 1.94359 2.51611 3.07617 2.51611H10.5194C11.652 2.51611 12.5702 3.43432 12.5702 4.56689V7.13406C12.5702 8.26664 11.652 9.18484 10.5194 9.18484Z" stroke="white" stroke-width="2" stroke-miterlimit="10" stroke-linecap="round" stroke-linejoin="round"/>
<path d="M10.5194 67.4842H3.07617C1.94359 67.4842 1.02539 66.566 1.02539 65.4334V62.8662C1.02539 61.7336 1.94359 60.8154 3.07617 60.8154H10.5194C11.652 60.8154 12.5702 61.7336 12.5702 62.8662V65.4334C12.5702 66.566 11.652 67.4842 10.5194 67.4842Z" stroke="white" stroke-width="2" stroke-miterlimit="10" stroke-linecap="round" stroke-linejoin="round"/>
<path d="M17.376 5.74805H20.1038C20.56 5.74805 20.9867 5.97309 21.2444 6.34947L26.6242 14.2082" stroke="white" stroke-width="2" stroke-miterlimit="10" stroke-linecap="round" stroke-linejoin="round"/>
<path d="M16.8125 63.8117H19.5403C19.9965 63.8117 20.4232 63.5867 20.681 63.2103L26.0607 55.3516" stroke="white" stroke-width="2" stroke-miterlimit="10" stroke-linecap="round" stroke-linejoin="round"/>
<path d="M43.4153 38.2522C43.3025 38.2516 43.1911 38.2277 43.0879 38.1819C42.9846 38.1362 42.8919 38.0696 42.8153 37.9863L38.2385 33.0364C38.0857 32.8812 38 32.6717 38 32.4534C38 32.2351 38.0857 32.0256 38.2385 31.8704C38.3874 31.7306 38.584 31.6537 38.7877 31.6557H41.0558C41.4379 31.6489 41.8104 31.534 42.1306 31.3242C42.4507 31.1144 42.7057 30.8181 42.8661 30.4693H39.6014C39.3999 30.4467 39.2139 30.3502 39.0788 30.1983C38.9436 30.0465 38.8689 29.8498 38.8689 29.646C38.8689 29.4422 38.9436 29.2456 39.0788 29.0937C39.2139 28.9418 39.3999 28.8453 39.6014 28.8227H42.917C42.7551 28.4758 42.4995 28.1817 42.1794 27.9737C41.8594 27.7658 41.4876 27.6524 41.1066 27.6466H38.8386C38.6372 27.624 38.4511 27.5275 38.316 27.3756C38.1808 27.2237 38.1061 27.0271 38.1061 26.8233C38.1061 26.6195 38.1808 26.4229 38.316 26.271C38.4511 26.1191 38.6372 26.0226 38.8386 26H45.958C46.1594 26.0226 46.3455 26.1191 46.4806 26.271C46.6157 26.4229 46.6904 26.6195 46.6904 26.8233C46.6904 27.0271 46.6157 27.2237 46.4806 27.3756C46.3455 27.5275 46.1594 27.624 45.958 27.6466H44.1375C44.3734 28.0048 44.5423 28.4034 44.6358 28.8227H45.9783C46.1798 28.8453 46.3658 28.9418 46.5009 29.0937C46.6361 29.2456 46.7108 29.4422 46.7108 29.646C46.7108 29.8498 46.6361 30.0465 46.5009 30.1983C46.3658 30.3502 46.1798 30.4467 45.9783 30.4693H44.646C44.4602 31.2737 44.0094 31.9913 43.3669 32.5056C42.7244 33.0198 41.9278 33.3006 41.1066 33.3023H40.7201L44.0663 36.9227C44.2184 37.0761 44.3039 37.2839 44.3039 37.5005C44.3039 37.7172 44.2184 37.925 44.0663 38.0784C43.9757 38.1513 43.8711 38.2044 43.759 38.2343C43.647 38.2643 43.5299 38.2704 43.4153 38.2522Z" fill="white"/>
</svg>
