<svg width="70" height="70" viewBox="0 0 70 70" fill="none" xmlns="http://www.w3.org/2000/svg">
<path d="M35 38.2812C34.351 38.2812 33.7166 38.4737 33.177 38.8342C32.6374 39.1948 32.2169 39.7073 31.9685 40.3068C31.7202 40.9064 31.6552 41.5661 31.7818 42.2026C31.9084 42.8391 32.2209 43.4238 32.6798 43.8827C33.1387 44.3416 33.7234 44.6541 34.3599 44.7807C34.9964 44.9073 35.6561 44.8423 36.2557 44.594C36.8552 44.3456 37.3677 43.9251 37.7283 43.3855C38.0888 42.8459 38.2813 42.2115 38.2813 41.5625C38.2813 40.6923 37.9355 39.8577 37.3202 39.2423C36.7048 38.627 35.8702 38.2812 35 38.2812ZM35 42.6562C34.7837 42.6562 34.5722 42.5921 34.3923 42.4719C34.2125 42.3517 34.0723 42.1809 33.9895 41.9811C33.9067 41.7812 33.8851 41.5613 33.9273 41.3491C33.9695 41.137 34.0736 40.9421 34.2266 40.7891C34.3796 40.6361 34.5745 40.532 34.7866 40.4898C34.9988 40.4476 35.2187 40.4692 35.4186 40.552C35.6184 40.6348 35.7892 40.775 35.9094 40.9548C36.0296 41.1347 36.0938 41.3462 36.0938 41.5625C36.0938 41.8526 35.9785 42.1308 35.7734 42.3359C35.5683 42.541 35.2901 42.6562 35 42.6562Z" fill="white"/>
<path d="M66.7188 29.5313H64.3344C64.4617 29.1806 64.5283 28.8107 64.5312 28.4376V26.2501C64.5291 25.4401 64.2249 24.6601 63.6781 24.0626C64.2249 23.4651 64.5291 22.6851 64.5312 21.8751V19.6876C64.5291 18.8776 64.2249 18.0976 63.6781 17.5001C64.2249 16.9026 64.5291 16.1226 64.5312 15.3126V13.1251C64.5287 12.2557 64.1821 11.4226 63.5673 10.8078C62.9525 10.193 62.1194 9.84645 61.25 9.84385H52.5C51.6306 9.84645 50.7975 10.193 50.1827 10.8078C49.5679 11.4226 49.2213 12.2557 49.2188 13.1251V15.3126C49.2209 16.1226 49.5251 16.9026 50.0719 17.5001C49.5251 18.0976 49.2209 18.8776 49.2188 19.6876V21.8751C49.2209 22.6851 49.5251 23.4651 50.0719 24.0626C49.5251 24.6601 49.2209 25.4401 49.2188 26.2501V28.4376C49.2217 28.8107 49.2883 29.1806 49.4156 29.5313H47.0312C46.7412 29.5313 46.463 29.6466 46.2579 29.8517C46.0527 30.0568 45.9375 30.335 45.9375 30.6251C45.9375 32.0755 46.5137 33.4665 47.5393 34.4921C48.5648 35.5177 49.9558 36.0938 51.4062 36.0938H55.7812V38.2813H41.6609L35.7219 33.086C35.5223 32.9107 35.2657 32.814 35 32.814C34.7343 32.814 34.4777 32.9107 34.2781 33.086L28.3391 38.2813H14.2188V36.0938H18.5938C20.0442 36.0938 21.4352 35.5177 22.4607 34.4921C23.4863 33.4665 24.0625 32.0755 24.0625 30.6251C24.0625 30.335 23.9473 30.0568 23.7421 29.8517C23.537 29.6466 23.2588 29.5313 22.9688 29.5313H19.6547C21.4991 28.1588 22.8641 26.2399 23.5558 24.0474C24.2475 21.8548 24.2306 19.5 23.5077 17.3175C22.7847 15.1351 21.3924 13.2359 19.5286 11.8899C17.6647 10.5438 15.4241 9.81934 13.125 9.81934C10.8259 9.81934 8.58529 10.5438 6.72143 11.8899C4.85757 13.2359 3.46527 15.1351 2.74232 17.3175C2.01937 19.5 2.00253 21.8548 2.69421 24.0474C3.38588 26.2399 4.75089 28.1588 6.59531 29.5313H3.28125C2.99117 29.5313 2.71297 29.6466 2.50785 29.8517C2.30273 30.0568 2.1875 30.335 2.1875 30.6251C2.1875 32.0755 2.76367 33.4665 3.78926 34.4921C4.81485 35.5177 6.20585 36.0938 7.65625 36.0938H12.0312V38.2813H10.9375C10.0673 38.2813 9.23266 38.6271 8.61731 39.2424C8.00195 39.8578 7.65625 40.6924 7.65625 41.5626C7.65885 42.432 8.00538 43.2651 8.62017 43.8799C9.23497 44.4947 10.0681 44.8413 10.9375 44.8438H25.1562V52.5001H22.9688C22.0985 52.5001 21.2639 52.8458 20.6486 53.4612C20.0332 54.0765 19.6875 54.9111 19.6875 55.7813C19.6875 56.6516 20.0332 57.4862 20.6486 58.1015C21.2639 58.7169 22.0985 59.0626 22.9688 59.0626H47.0312C47.9015 59.0626 48.7361 58.7169 49.3514 58.1015C49.9668 57.4862 50.3125 56.6516 50.3125 55.7813C50.3125 54.9111 49.9668 54.0765 49.3514 53.4612C48.7361 52.8458 47.9015 52.5001 47.0312 52.5001H44.8438V44.8438H59.0625C59.9327 44.8438 60.7673 44.4981 61.3827 43.8828C61.998 43.2674 62.3438 42.4328 62.3438 41.5626C62.3412 40.6932 61.9946 39.8601 61.3798 39.2453C60.765 38.6305 59.9319 38.2839 59.0625 38.2813H57.9688V36.0938H62.3438C63.7942 36.0938 65.1852 35.5177 66.2107 34.4921C67.2363 33.4665 67.8125 32.0755 67.8125 30.6251C67.8125 30.335 67.6973 30.0568 67.4921 29.8517C67.287 29.6466 67.0088 29.5313 66.7188 29.5313ZM51.4062 13.1251C51.4062 12.835 51.5215 12.5568 51.7266 12.3517C51.9317 12.1466 52.2099 12.0313 52.5 12.0313H53.5938V14.2188H55.7812V12.0313H57.9688V14.2188H60.1562V12.0313H61.25C61.5401 12.0313 61.8183 12.1466 62.0234 12.3517C62.2285 12.5568 62.3438 12.835 62.3438 13.1251V15.3126C62.3438 15.6027 62.2285 15.8809 62.0234 16.086C61.8183 16.2911 61.5401 16.4063 61.25 16.4063H52.5C52.2099 16.4063 51.9317 16.2911 51.7266 16.086C51.5215 15.8809 51.4062 15.6027 51.4062 15.3126V13.1251ZM51.4062 19.6876C51.4062 19.3975 51.5215 19.1193 51.7266 18.9142C51.9317 18.7091 52.2099 18.5938 52.5 18.5938H53.5938V20.7813H55.7812V18.5938H57.9688V20.7813H60.1562V18.5938H61.25C61.5401 18.5938 61.8183 18.7091 62.0234 18.9142C62.2285 19.1193 62.3438 19.3975 62.3438 19.6876V21.8751C62.3438 22.1652 62.2285 22.4434 62.0234 22.6485C61.8183 22.8536 61.5401 22.9688 61.25 22.9688H52.5C52.2099 22.9688 51.9317 22.8536 51.7266 22.6485C51.5215 22.4434 51.4062 22.1652 51.4062 21.8751V19.6876ZM51.4062 26.2501C51.4062 25.96 51.5215 25.6818 51.7266 25.4767C51.9317 25.2716 52.2099 25.1563 52.5 25.1563H53.5938V27.3438H55.7812V25.1563H57.9688V27.3438H60.1562V25.1563H61.25C61.5401 25.1563 61.8183 25.2716 62.0234 25.4767C62.2285 25.6818 62.3438 25.96 62.3438 26.2501V28.4376C62.3438 28.7277 62.2285 29.0059 62.0234 29.211C61.8183 29.4161 61.5401 29.5313 61.25 29.5313H52.5C52.2099 29.5313 51.9317 29.4161 51.7266 29.211C51.5215 29.0059 51.4062 28.7277 51.4062 28.4376V26.2501ZM27.3438 42.0548L35 35.361L42.6562 42.0548V52.5001H27.3438V42.0548ZM4.375 20.7813C4.375 19.0508 4.88818 17.359 5.84964 15.9201C6.8111 14.4812 8.17767 13.3597 9.77652 12.6974C11.3754 12.0351 13.1347 11.8619 14.832 12.1995C16.5294 12.5371 18.0885 13.3705 19.3122 14.5942C20.5359 15.8179 21.3693 17.377 21.7069 19.0743C22.0445 20.7716 21.8712 22.531 21.2089 24.1298C20.5467 25.7287 19.4252 27.0952 17.9862 28.0567C16.5473 29.0182 14.8556 29.5313 13.125 29.5313C10.8053 29.5282 8.58159 28.6053 6.94133 26.965C5.30108 25.3248 4.37818 23.101 4.375 20.7813ZM7.65625 33.9063C6.97794 33.9045 6.31672 33.6934 5.76278 33.3019C5.20883 32.9104 4.78914 32.3576 4.56094 31.7188H21.6891C21.4609 32.3576 21.0412 32.9104 20.4872 33.3019C19.9333 33.6934 19.2721 33.9045 18.5938 33.9063H7.65625ZM10.9375 42.6563C10.6474 42.6563 10.3692 42.5411 10.1641 42.336C9.95898 42.1309 9.84375 41.8527 9.84375 41.5626C9.84247 41.4166 9.872 41.272 9.93043 41.1381C9.98885 41.0043 10.0749 40.8843 10.1828 40.786C10.2797 40.6837 10.3968 40.6026 10.5268 40.548C10.6567 40.4934 10.7966 40.4664 10.9375 40.4688H25.8344L25.5281 40.7423C25.4104 40.8439 25.3162 40.9699 25.2519 41.1115C25.1877 41.2532 25.1551 41.4071 25.1562 41.5626V42.6563H10.9375ZM47.0312 54.6876C47.3213 54.6876 47.5995 54.8028 47.8046 55.0079C48.0098 55.2131 48.125 55.4913 48.125 55.7813C48.125 56.0714 48.0098 56.3496 47.8046 56.5547C47.5995 56.7599 47.3213 56.8751 47.0312 56.8751H22.9688C22.6787 56.8751 22.4005 56.7599 22.1954 56.5547C21.9902 56.3496 21.875 56.0714 21.875 55.7813C21.875 55.4913 21.9902 55.2131 22.1954 55.0079C22.4005 54.8028 22.6787 54.6876 22.9688 54.6876H47.0312ZM59.0625 40.4688C59.3526 40.4688 59.6308 40.5841 59.8359 40.7892C60.041 40.9943 60.1562 41.2725 60.1562 41.5626C60.1575 41.7086 60.128 41.8532 60.0696 41.9871C60.0111 42.1209 59.9251 42.2408 59.8172 42.3392C59.7203 42.4415 59.6032 42.5226 59.4732 42.5772C59.3433 42.6318 59.2034 42.6588 59.0625 42.6563H44.8438V41.5626C44.8449 41.4071 44.8123 41.2532 44.7481 41.1115C44.6838 40.9699 44.5896 40.8439 44.4719 40.7423L44.1656 40.4688H59.0625ZM62.3438 33.9063H51.4062C50.7279 33.9045 50.0667 33.6934 49.5128 33.3019C48.9588 32.9104 48.5391 32.3576 48.3109 31.7188H65.4391C65.2109 32.3576 64.7912 32.9104 64.2372 33.3019C63.6833 33.6934 63.0221 33.9045 62.3438 33.9063Z" fill="white"/>
<path d="M14.4153 27.2522C14.3025 27.2516 14.1911 27.2277 14.0879 27.1819C13.9846 27.1362 13.8919 27.0696 13.8153 26.9863L9.2385 22.0364C9.08571 21.8812 9 21.6717 9 21.4534C9 21.2351 9.08571 21.0256 9.2385 20.8704C9.38736 20.7306 9.58401 20.6537 9.78772 20.6557H12.0558C12.4379 20.6489 12.8104 20.534 13.1306 20.3242C13.4507 20.1144 13.7057 19.8181 13.8661 19.4693H10.6014C10.3999 19.4467 10.2139 19.3502 10.0788 19.1983C9.94364 19.0465 9.86894 18.8498 9.86894 18.646C9.86894 18.4422 9.94364 18.2456 10.0788 18.0937C10.2139 17.9418 10.3999 17.8453 10.6014 17.8227H13.917C13.7551 17.4758 13.4995 17.1817 13.1794 16.9737C12.8594 16.7658 12.4876 16.6524 12.1066 16.6466H9.83857C9.63715 16.624 9.45109 16.5275 9.31597 16.3756C9.18085 16.2237 9.10614 16.0271 9.10614 15.8233C9.10614 15.6195 9.18085 15.4229 9.31597 15.271C9.45109 15.1191 9.63715 15.0226 9.83857 15H16.958C17.1594 15.0226 17.3455 15.1191 17.4806 15.271C17.6157 15.4229 17.6904 15.6195 17.6904 15.8233C17.6904 16.0271 17.6157 16.2237 17.4806 16.3756C17.3455 16.5275 17.1594 16.624 16.958 16.6466H15.1375C15.3734 17.0048 15.5423 17.4034 15.6358 17.8227H16.9783C17.1798 17.8453 17.3658 17.9418 17.5009 18.0937C17.6361 18.2456 17.7108 18.4422 17.7108 18.646C17.7108 18.8498 17.6361 19.0465 17.5009 19.1983C17.3658 19.3502 17.1798 19.4467 16.9783 19.4693H15.646C15.4602 20.2737 15.0094 20.9913 14.3669 21.5056C13.7244 22.0198 12.9278 22.3006 12.1066 22.3023H11.7201L15.0663 25.9227C15.2184 26.0761 15.3039 26.2839 15.3039 26.5005C15.3039 26.7172 15.2184 26.925 15.0663 27.0784C14.9757 27.1513 14.8711 27.2044 14.759 27.2343C14.647 27.2643 14.5299 27.2704 14.4153 27.2522Z" fill="white"/>
</svg>
