<svg width="70" height="70" viewBox="0 0 70 70" fill="none" xmlns="http://www.w3.org/2000/svg">
<path d="M35.0018 13.0665C31.0212 13.0665 27.7823 16.3047 27.7823 20.286C27.7823 24.2672 31.0205 27.5054 35.0018 27.5054C38.983 27.5054 42.2212 24.2672 42.2212 20.286C42.2212 16.3047 38.983 13.0665 35.0018 13.0665ZM35.0018 26.0471C31.8255 26.0471 29.2406 23.4629 29.2406 20.286C29.2406 17.109 31.8248 14.5248 35.0018 14.5248C38.1787 14.5248 40.7629 17.109 40.7629 20.286C40.7629 23.4629 38.1787 26.0471 35.0018 26.0471ZM45.3428 20.286C45.3428 14.5846 40.7039 9.94565 35.0025 9.94565C29.3011 9.94565 24.6622 14.5846 24.6622 20.286C24.6622 25.9873 29.3011 30.6263 35.0025 30.6263C40.7039 30.6263 45.3428 25.9873 45.3428 20.286ZM35.0018 29.1679C30.104 29.1679 26.1198 25.1838 26.1198 20.286C26.1198 15.3881 30.1047 11.404 35.0018 11.404C39.8989 11.404 43.8837 15.3881 43.8837 20.286C43.8837 25.1838 39.8996 29.1679 35.0018 29.1679ZM7.65656 51.234C8.05906 51.234 8.38573 50.908 8.38573 50.5048V43.7309H34.2726V50.5048C34.2726 50.908 34.5993 51.234 35.0018 51.234C35.4043 51.234 35.7309 50.908 35.7309 50.5048V43.7309H61.6178V50.5048C61.6178 50.908 61.9445 51.234 62.347 51.234C62.7495 51.234 63.0761 50.908 63.0761 50.5048V43.0017C63.0761 42.5985 62.7495 42.2725 62.347 42.2725H35.7309V36.7863H37.9367C38.3392 36.7863 38.6658 36.4603 38.6658 36.0571V33.7974C39.8412 33.4846 40.9467 33.0274 41.9624 32.4324L43.5593 34.0293C43.8444 34.3144 44.3052 34.3144 44.5903 34.0293L48.7451 29.8745C49.0302 29.5894 49.0302 29.1286 48.7451 28.8435L47.1446 27.2422C47.7461 26.1995 48.2048 25.0963 48.5118 23.9493H50.7722C51.1747 23.9493 51.5014 23.6226 51.5014 23.2201V17.3503C51.5014 16.9478 51.1747 16.6212 50.7722 16.6212H48.5118C48.2041 15.4749 47.7461 14.3717 47.1446 13.3282L48.7451 11.727C49.0302 11.4419 49.0302 10.9811 48.7451 10.696L44.5903 6.54189C44.3052 6.25679 43.8444 6.25679 43.5593 6.54189L41.9558 8.14533C40.8942 7.53867 39.7917 7.08002 38.6651 6.77523V4.51481C38.6651 4.11231 38.3384 3.78564 37.9359 3.78564H32.0661C31.6636 3.78564 31.337 4.11231 31.337 4.51481V6.7745C30.1958 7.08148 29.086 7.54085 28.0258 8.14533L26.4224 6.54189C26.2853 6.40481 26.1001 6.32825 25.9069 6.32825C25.7129 6.32825 25.527 6.40554 25.3899 6.54262L21.2563 10.6967C20.9726 10.9818 20.9733 11.4426 21.2577 11.727L22.8546 13.3246C22.2596 14.3411 21.8024 15.4458 21.4896 16.6212H19.2102C18.8077 16.6212 18.481 16.9478 18.481 17.3503V23.2201C18.481 23.6226 18.8077 23.9493 19.2102 23.9493H21.4896C21.8024 25.1254 22.2596 26.2301 22.8546 27.2459L21.2577 28.8427C20.9733 29.1271 20.9726 29.5872 21.2563 29.8723L25.3899 34.0271C25.527 34.1642 25.7122 34.2415 25.9061 34.2422C26.0994 34.2422 26.286 34.1656 26.4224 34.0286L28.0222 32.4288C29.0547 33.026 30.1645 33.4839 31.337 33.796V36.0556C31.337 36.4589 31.6636 36.7848 32.0661 36.7848H34.2719V42.2711H7.65656C7.25406 42.2711 6.9274 42.597 6.9274 43.0002V50.5034C6.9274 50.9073 7.25406 51.234 7.65656 51.234ZM32.796 35.3272V33.2243C32.796 32.8823 32.5583 32.5863 32.2251 32.5126C30.8127 32.1991 29.4944 31.6544 28.3051 30.8946C28.0171 30.7116 27.6394 30.7517 27.3966 30.9938L25.9083 32.482L22.8035 29.3612L24.294 27.8708C24.5375 27.6272 24.5776 27.2466 24.3895 26.9578C23.6333 25.7948 23.0901 24.4845 22.7744 23.0634C22.7 22.7294 22.4047 22.4924 22.0627 22.4924H19.9394V18.081H22.0627C22.4047 18.081 22.7007 17.8433 22.7744 17.51C23.0901 16.0889 23.6341 14.7786 24.3895 13.6155C24.5769 13.3268 24.5375 12.9462 24.294 12.7026L22.8035 11.2122L25.9083 8.09137L27.3966 9.5796C27.6365 9.81877 28.0098 9.86325 28.2978 9.68314C29.5403 8.9095 30.8616 8.36335 32.2251 8.06002C32.5591 7.98564 32.796 7.69033 32.796 7.34835V5.24398H37.2075V7.34617C37.2075 7.68814 37.4452 7.98419 37.7784 8.05783C39.1208 8.35606 40.4355 8.90221 41.6846 9.68096C41.9726 9.86106 42.3467 9.81804 42.5858 9.57742L44.0748 8.08846L47.1985 11.2115L45.7096 12.7012C45.4682 12.9425 45.4267 13.3188 45.609 13.6068C46.3673 14.8041 46.9273 16.153 47.2284 17.5086C47.3028 17.8425 47.5981 18.0795 47.9401 18.0795H50.043V22.491H47.9401C47.5981 22.491 47.3021 22.7287 47.2284 23.0619C46.9273 24.4174 46.3673 25.7664 45.609 26.9637C45.4267 27.2524 45.4682 27.6287 45.7096 27.8693L47.1985 29.3582L44.0748 32.482L42.5858 30.993C42.343 30.7502 41.9624 30.7094 41.6729 30.8975C40.5099 31.6537 39.1996 32.1969 37.7784 32.5126C37.4445 32.587 37.2075 32.8823 37.2075 33.2243V35.3272H32.796ZM13.8574 52.3591H1.45573C1.05323 52.3591 0.726562 52.685 0.726562 53.0883V65.4899C0.726562 65.8932 1.05323 66.2191 1.45573 66.2191H13.8574C14.2599 66.2191 14.5866 65.8932 14.5866 65.4899V53.0883C14.5866 52.685 14.2599 52.3591 13.8574 52.3591ZM13.1282 64.76H2.1849V53.8174H13.1282V64.76ZM41.2026 52.3591H28.8017C28.3992 52.3591 28.0725 52.685 28.0725 53.0883V65.4899C28.0725 65.8932 28.3992 66.2191 28.8017 66.2191H41.2033C41.6058 66.2191 41.9325 65.8932 41.9325 65.4899V53.0883C41.9318 52.685 41.6058 52.3591 41.2026 52.3591ZM40.4734 64.76H29.5308V53.8174H40.4742L40.4734 64.76ZM68.5485 52.3591H56.1469C55.7444 52.3591 55.4177 52.685 55.4177 53.0883V65.4899C55.4177 65.8932 55.7444 66.2191 56.1469 66.2191H68.5485C68.951 66.2191 69.2777 65.8932 69.2777 65.4899V53.0883C69.2777 52.685 68.951 52.3591 68.5485 52.3591ZM67.8194 64.76H56.876V53.8174H67.8194V64.76ZM7.65656 62.6629C9.5174 62.6629 11.0311 61.1492 11.0311 59.2884C11.0311 57.4275 9.5174 55.9138 7.65656 55.9138C5.79573 55.9138 4.28198 57.4275 4.28198 59.2884C4.28198 61.1492 5.79573 62.6629 7.65656 62.6629ZM7.65656 57.3728C8.71313 57.3728 9.57281 58.2325 9.57281 59.2891C9.57281 60.3456 8.71313 61.2053 7.65656 61.2053C6.6 61.2053 5.74031 60.3456 5.74031 59.2891C5.74031 58.2325 6.6 57.3728 7.65656 57.3728ZM32.3564 62.6629H37.6479C38.0504 62.6629 38.3771 62.337 38.3771 61.9338V56.6429C38.3771 56.2397 38.0504 55.9138 37.6479 55.9138H32.3564C31.9539 55.9138 31.6272 56.2397 31.6272 56.6429V61.9338C31.6272 62.337 31.9539 62.6629 32.3564 62.6629ZM33.0855 57.3728H36.9188V61.2053H33.0855V57.3728ZM59.2889 62.6629H65.3861C65.3905 62.6622 65.3964 62.6622 65.4007 62.6629C65.8032 62.6629 66.1299 62.337 66.1299 61.9338C66.1299 61.7537 66.0643 61.5881 65.9564 61.4613L62.9792 56.2784C62.7189 55.8285 61.9773 55.8285 61.717 56.2784L58.6581 61.5692C58.5276 61.7952 58.5276 62.073 58.6581 62.2991C58.7886 62.5251 59.0278 62.6629 59.2889 62.6629ZM62.3477 58.1005L64.1305 61.2053H60.5525L62.3477 58.1005Z" fill="white"/>
<path d="M35.7656 23.2572C35.708 23.2569 35.6511 23.2447 35.5984 23.2213C35.5457 23.198 35.4983 23.164 35.4592 23.1214L33.1218 20.5935C33.0438 20.5142 33 20.4073 33 20.2958C33 20.1843 33.0438 20.0773 33.1218 19.998C33.1978 19.9266 33.2983 19.8873 33.4023 19.8884H34.5606C34.7557 19.8849 34.946 19.8262 35.1095 19.7191C35.273 19.6119 35.4032 19.4606 35.4851 19.2825H33.8178C33.715 19.2709 33.6199 19.2217 33.5509 19.1441C33.4819 19.0665 33.4438 18.9661 33.4438 18.862C33.4438 18.7579 33.4819 18.6575 33.5509 18.58C33.6199 18.5024 33.715 18.4531 33.8178 18.4416H35.5111C35.4284 18.2644 35.2979 18.1142 35.1344 18.008C34.971 17.9018 34.7811 17.8439 34.5865 17.8409H33.4283C33.3254 17.8294 33.2304 17.7801 33.1614 17.7025C33.0924 17.625 33.0542 17.5245 33.0542 17.4205C33.0542 17.3164 33.0924 17.216 33.1614 17.1384C33.2304 17.0608 33.3254 17.0115 33.4283 17H37.0642C37.167 17.0115 37.262 17.0608 37.331 17.1384C37.4001 17.216 37.4382 17.3164 37.4382 17.4205C37.4382 17.5245 37.4001 17.625 37.331 17.7025C37.262 17.7801 37.167 17.8294 37.0642 17.8409H36.1344C36.2549 18.0239 36.3412 18.2274 36.3889 18.4416H37.0745C37.1774 18.4531 37.2724 18.5024 37.3414 18.58C37.4104 18.6575 37.4486 18.7579 37.4486 18.862C37.4486 18.9661 37.4104 19.0665 37.3414 19.1441C37.2724 19.2217 37.1774 19.2709 37.0745 19.2825H36.3941C36.2992 19.6933 36.069 20.0598 35.7409 20.3224C35.4127 20.585 35.0059 20.7284 34.5865 20.7293H34.3892L36.098 22.5782C36.1758 22.6566 36.2194 22.7627 36.2194 22.8733C36.2194 22.984 36.1758 23.0901 36.098 23.1684C36.0518 23.2057 35.9984 23.2328 35.9411 23.2481C35.8839 23.2634 35.8241 23.2665 35.7656 23.2572Z" fill="white"/>
</svg>
