<svg width="70" height="70" viewBox="0 0 70 70" fill="none" xmlns="http://www.w3.org/2000/svg">
<path d="M50.3125 54.6875V59.0625C50.3125 60.2689 49.3314 61.25 48.125 61.25V63.4375C48.125 66.453 45.6717 68.9062 42.6562 68.9062H27.3438C24.3283 68.9062 21.875 66.453 21.875 63.4375V61.25C20.6686 61.25 19.6875 60.2689 19.6875 59.0625V54.6875C19.6875 53.4811 20.6686 52.5 21.875 52.5V51.345C21.875 50.5017 22.0752 49.6552 22.4514 48.9005L23.3866 47.0312H22.9688C21.7623 47.0312 20.7812 46.0502 20.7812 44.8438C20.7812 43.038 21.8805 41.4859 23.4445 40.8187C24.6553 38.5656 26.4447 36.7697 28.5841 35.5731C25.0228 34.3722 22.3683 31.1927 21.9406 27.3438H21.8761C19.4633 27.3438 17.5011 25.3816 17.5011 22.9688C17.5011 21.7448 18.0086 20.6402 18.8213 19.8461C17.9703 18.0797 17.5 16.1459 17.5 14.1783C17.5 6.96281 23.3691 1.09375 30.5845 1.09375H50.5225C52.8194 1.09375 54.6875 2.96187 54.6875 5.25875C54.6875 7.17281 53.3892 8.83531 51.532 9.29797L51.135 9.39859C52.0155 10.7712 52.5 12.3889 52.5 14.0306V15.4306C52.5 16.9827 52.0778 18.5063 51.2805 19.8363L51.2411 19.9019C52.0187 20.6916 52.5022 21.7733 52.5022 22.9677C52.5022 25.3805 50.54 27.3427 48.1272 27.3427H48.0627C47.6339 31.1916 44.9794 34.3711 41.417 35.572C43.5564 36.7675 45.3458 38.5645 46.5555 40.8166C48.1195 41.4859 49.2188 43.038 49.2188 44.8438C49.2188 46.0502 48.2377 47.0312 47.0312 47.0312H46.6134L47.5475 48.8994C47.9248 49.6552 48.125 50.5017 48.125 51.345V52.5C49.3314 52.5 50.3125 53.4811 50.3125 54.6875ZM32.8366 36.3322C32.9569 37.4248 33.8756 38.2812 35 38.2812C36.1244 38.2812 37.0431 37.4248 37.1634 36.3322C36.458 36.1911 35.7405 36.0938 35 36.0938C34.2595 36.0938 33.542 36.1911 32.8366 36.3322ZM50.3136 22.9688C50.3136 21.7623 49.3325 20.7812 48.1261 20.7812V25.1562C49.3325 25.1562 50.3136 24.1752 50.3136 22.9688ZM21.8761 25.1562V20.7812C20.6708 20.7812 19.6886 21.7634 19.6886 22.9688C19.6886 24.1741 20.6697 25.1562 21.8761 25.1562ZM27.1666 9.84375C28.2133 9.84375 29.2283 10.1511 30.1011 10.733C33.5234 13.0123 37.5058 14.2188 41.6161 14.2188H44.8438C45.4475 14.2188 45.9375 13.7288 45.9375 13.125C45.9375 12.5212 45.4475 12.0312 44.8438 12.0312H43.75V9.84375H44.8438C46.6528 9.84375 48.125 11.3159 48.125 13.125V18.5938C48.5548 18.5938 48.9639 18.6758 49.3566 18.7917L49.4047 18.7119C49.9986 17.722 50.3125 16.5878 50.3125 15.4317V14.0317C50.3125 12.3539 49.6322 10.7111 48.4455 9.52437L47.0794 8.15938L51.0016 7.17828C51.8842 6.95516 52.5 6.16766 52.5 5.25875C52.5 4.16828 51.613 3.28125 50.5225 3.28125H30.5845C24.5766 3.28125 19.6875 8.17031 19.6875 14.1783C19.6875 15.7686 20.0561 17.3316 20.7233 18.7677C21.093 18.6659 21.4736 18.5938 21.875 18.5938V15.1353C21.875 12.2172 24.2484 9.84375 27.1666 9.84375ZM38.2823 33.9062C42.5031 33.9062 45.9386 30.4708 45.9386 26.2489L45.9375 16.2181C45.5952 16.3395 45.2277 16.4062 44.8438 16.4062H41.6161C37.0727 16.4062 32.6714 15.073 28.8881 12.553C28.3763 12.2117 27.7802 12.0312 27.1666 12.0312C25.4548 12.0312 24.0625 13.4236 24.0625 15.1353L24.0636 26.25C24.0636 30.4708 27.4991 33.9062 31.7198 33.9062H38.2823ZM26.273 40.4688H35H43.727C42.5644 38.9167 41.0397 37.7136 39.2864 36.9698C38.8795 38.9637 37.1131 40.4688 35 40.4688C32.8869 40.4688 31.1205 38.9637 30.7136 36.9698C28.9592 37.7136 27.4345 38.9167 26.273 40.4688ZM22.9688 44.8438H47.0334C47.0312 43.6373 46.0502 42.6562 44.8438 42.6562H25.1562C23.9498 42.6562 22.9688 43.6373 22.9688 44.8438ZM21.875 59.0625H22.9688C23.5725 59.0625 24.0625 58.5725 24.0625 57.9688V55.7812C24.0625 55.1775 23.5725 54.6875 22.9688 54.6875H21.875V59.0625ZM45.9375 63.4375V61.0488C44.6677 60.5959 43.75 59.3928 43.75 57.9688V55.7812C43.75 54.3572 44.6677 53.1541 45.9375 52.7012V51.345C45.9375 50.8386 45.8183 50.33 45.5919 49.8761L44.1678 47.0312H25.8322L24.4081 49.8783C24.1817 50.3311 24.0625 50.8386 24.0625 51.345V52.7012C25.3323 53.1541 26.25 54.3572 26.25 55.7812V57.9688C26.25 59.3928 25.3323 60.5959 24.0625 61.0488V63.4375C24.0625 65.2466 25.5347 66.7188 27.3438 66.7188H42.6562C44.4653 66.7188 45.9375 65.2466 45.9375 63.4375ZM48.1272 59.0625L48.125 54.6875H47.0312C46.4275 54.6875 45.9375 55.1775 45.9375 55.7812V57.9688C45.9375 58.5725 46.4275 59.0625 47.0312 59.0625H48.1272ZM31.7198 22.9688H33.9073C33.9073 20.5559 31.9452 18.5938 29.5323 18.5938C27.1195 18.5938 25.1573 20.5559 25.1573 22.9688H27.3448C27.3448 21.7623 28.3259 20.7812 29.5323 20.7812C30.7387 20.7812 31.7198 21.7623 31.7198 22.9688ZM40.4698 20.7812C41.6763 20.7812 42.6573 21.7623 42.6573 22.9688H44.8448C44.8448 20.5559 42.8827 18.5938 40.4698 18.5938C38.057 18.5938 36.0948 20.5559 36.0948 22.9688H38.2823C38.2823 21.7623 39.2634 20.7812 40.4698 20.7812ZM40.3561 27.8611L40.413 27.6927L38.3392 26.9959L38.2823 27.1666C37.8098 28.5808 36.4919 29.5312 35.0011 29.5312C33.5103 29.5312 32.1912 28.5808 31.7209 27.1709L31.6652 27.0025L29.587 27.6861L29.645 27.8589C30.4139 30.1678 32.5664 31.7188 35.0011 31.7188C37.4358 31.7188 39.5872 30.1678 40.3561 27.8611ZM64.5312 33.9062H68.9062V36.0938C68.9062 39.713 65.963 42.6562 62.3438 42.6562H60.1562V44.8438H60.1497V50.9097C61.3134 49.8619 62.8469 49.2188 64.5312 49.2188H68.9062V51.4062C68.9062 55.0255 65.963 57.9688 62.3438 57.9688H60.1497V61.8472C61.3134 60.7994 62.8469 60.1562 64.5312 60.1562H68.9062V62.3438C68.9062 65.963 65.963 68.9062 62.3438 68.9062H57.9688V67.8125H57.9622V55.7812H55.7812C52.162 55.7812 49.2188 52.838 49.2188 49.2188V47.0312H53.5938C55.2727 47.0312 56.8006 47.67 57.9622 48.7102V44.8438H55.7812C52.162 44.8438 49.2188 41.9005 49.2188 38.2812V36.0938H53.5938C55.2727 36.0938 56.8006 36.7325 57.9622 37.7727V33.3933L57.9042 33.355C55.8906 32.0119 54.6875 29.7642 54.6875 27.3438C54.6875 24.9233 55.8906 22.6756 57.9042 21.3325L59.0625 20.5603L60.2208 21.3325C62.2344 22.6756 63.4375 24.9233 63.4375 27.3438C63.4375 29.7642 62.2344 32.0119 60.2208 33.355L60.1508 33.402V35.5972C61.3134 34.5494 62.8469 33.9062 64.5312 33.9062ZM57.9622 53.5938V53.5303C57.9272 51.147 55.9847 49.2188 53.5938 49.2188H51.4062C51.4062 51.6316 53.3684 53.5938 55.7812 53.5938H57.9622ZM60.1562 66.7188H62.3438C64.7566 66.7188 66.7188 64.7566 66.7188 62.3438H64.5312C62.1184 62.3438 60.1562 64.3059 60.1562 66.7188ZM60.1562 55.7812H62.3438C64.7566 55.7812 66.7188 53.8191 66.7188 51.4062H64.5312C62.1184 51.4062 60.1562 53.3684 60.1562 55.7812ZM59.0625 31.4978C60.4341 30.5572 61.25 29.0095 61.25 27.3438C61.25 25.678 60.4341 24.1303 59.0625 23.1897C57.6909 24.1303 56.875 25.678 56.875 27.3438C56.875 29.0095 57.6909 30.5572 59.0625 31.4978ZM57.9622 42.6562V42.5928C57.9272 40.2095 55.9847 38.2812 53.5938 38.2812H51.4062C51.4062 40.6941 53.3684 42.6562 55.7812 42.6562H57.9622ZM66.7188 36.0938H64.5312C62.1184 36.0938 60.1562 38.0559 60.1562 40.4688H62.3438C64.7566 40.4688 66.7188 38.5066 66.7188 36.0938ZM20.7812 49.2188C20.7812 52.838 17.838 55.7812 14.2188 55.7812H12.0378V67.8125H12.0312V68.9062H7.65625C4.03703 68.9062 1.09375 65.963 1.09375 62.3438V60.1562H5.46875C7.15312 60.1562 8.68656 60.7994 9.85031 61.8472V57.9688H7.65625C4.03703 57.9688 1.09375 55.0255 1.09375 51.4062V49.2188H5.46875C7.15312 49.2188 8.68656 49.8619 9.85031 50.9097V44.8438H9.84375V42.6562H7.65625C4.03703 42.6562 1.09375 39.713 1.09375 36.0938V33.9062H5.46875C7.15312 33.9062 8.68656 34.5494 9.85031 35.5972V33.402L9.78031 33.355C7.76562 32.0119 6.5625 29.7642 6.5625 27.3438C6.5625 24.9233 7.76562 22.6756 9.77922 21.3325L10.9375 20.5603L12.0958 21.3325C14.1094 22.6756 15.3125 24.9233 15.3125 27.3438C15.3125 29.7642 14.1094 32.0119 12.0958 33.355L12.0378 33.3933V37.7727C13.1994 36.7325 14.7273 36.0938 16.4062 36.0938H20.7812V38.2812C20.7812 41.9005 17.838 44.8438 14.2188 44.8438H12.0378V48.7102C13.1994 47.67 14.7273 47.0312 16.4062 47.0312H20.7812V49.2188ZM12.0378 42.5928V42.6562H14.2188C16.6316 42.6562 18.5938 40.6941 18.5938 38.2812H16.4062C14.0153 38.2812 12.0728 40.2095 12.0378 42.5928ZM10.9375 31.4978C12.3091 30.5572 13.125 29.0095 13.125 27.3438C13.125 25.678 12.3091 24.1303 10.9375 23.1897C9.56594 24.1314 8.75 25.6791 8.75 27.3438C8.75 29.0084 9.56594 30.5572 10.9375 31.4978ZM9.84375 40.4688C9.84375 38.0559 7.88156 36.0938 5.46875 36.0938H3.28125C3.28125 38.5066 5.24344 40.4688 7.65625 40.4688H9.84375ZM9.84375 55.7812C9.84375 53.3684 7.88156 51.4062 5.46875 51.4062H3.28125C3.28125 53.8191 5.24344 55.7812 7.65625 55.7812H9.84375ZM9.84375 66.7188C9.84375 64.3059 7.88156 62.3438 5.46875 62.3438H3.28125C3.28125 64.7566 5.24344 66.7188 7.65625 66.7188H9.84375ZM18.5938 49.2188H16.4062C14.0153 49.2188 12.0728 51.147 12.0378 53.5303V53.5938H14.2188C16.6316 53.5938 18.5938 51.6316 18.5938 49.2188Z" fill="white"/>
<path d="M35.9737 63.2531C35.8701 63.2525 35.7678 63.2305 35.673 63.1885C35.5781 63.1465 35.4929 63.0853 35.4226 63.0089L31.2191 58.4625C31.0787 58.3201 31 58.1276 31 57.9271C31 57.7266 31.0787 57.5342 31.2191 57.3917C31.3558 57.2633 31.5364 57.1926 31.7235 57.1945H33.8066C34.1575 57.1882 34.4996 57.0827 34.7937 56.89C35.0878 56.6973 35.3219 56.4252 35.4693 56.1048H32.4708C32.2858 56.0841 32.1149 55.9955 31.9908 55.856C31.8667 55.7165 31.7981 55.5359 31.7981 55.3487C31.7981 55.1615 31.8667 54.9809 31.9908 54.8414C32.1149 54.7019 32.2858 54.6133 32.4708 54.5925H35.516C35.3673 54.2739 35.1326 54.0038 34.8386 53.8128C34.5446 53.6218 34.2032 53.5177 33.8533 53.5123H31.7702C31.5852 53.4915 31.4143 53.4029 31.2902 53.2634C31.1661 53.1239 31.0975 52.9433 31.0975 52.7562C31.0975 52.569 31.1661 52.3884 31.2902 52.2489C31.4143 52.1094 31.5852 52.0208 31.7702 52H38.309C38.494 52.0208 38.6649 52.1094 38.789 52.2489C38.9131 52.3884 38.9817 52.569 38.9817 52.7562C38.9817 52.9433 38.9131 53.1239 38.789 53.2634C38.6649 53.4029 38.494 53.4915 38.309 53.5123H36.6369C36.8537 53.8414 37.0088 54.2074 37.0947 54.5925H38.3277C38.5127 54.6133 38.6836 54.7019 38.8077 54.8414C38.9318 54.9809 39.0004 55.1615 39.0004 55.3487C39.0004 55.5359 38.9318 55.7165 38.8077 55.856C38.6836 55.9955 38.5127 56.0841 38.3277 56.1048H37.104C36.9334 56.8436 36.5194 57.5027 35.9292 57.975C35.3391 58.4474 34.6075 58.7052 33.8533 58.7068H33.4983L36.5716 62.032C36.7113 62.1728 36.7898 62.3637 36.7898 62.5627C36.7898 62.7617 36.7113 62.9525 36.5716 63.0934C36.4884 63.1603 36.3923 63.2091 36.2894 63.2366C36.1864 63.2641 36.0789 63.2697 35.9737 63.2531Z" fill="white"/>
</svg>
