<svg width="70" height="70" viewBox="0 0 70 70" fill="none" xmlns="http://www.w3.org/2000/svg">
<path d="M31.1594 1.02539H64.166C64.9289 1.02539 65.5482 1.64336 65.5482 2.40625V5.16797C65.5482 5.93086 64.9289 6.5502 64.166 6.5502H22.7348C21.9719 6.5502 21.3525 5.93086 21.3525 5.16797V2.40625C21.3525 1.64336 21.9719 1.02539 22.7348 1.02539H26.3742" stroke="white" stroke-width="2" stroke-miterlimit="10" stroke-linecap="round" stroke-linejoin="round"/>
<path d="M65.5484 29.2207V66.2127C65.5484 67.7385 64.3111 68.9744 62.7854 68.9744H32.4023" stroke="white" stroke-width="2" stroke-miterlimit="10" stroke-linecap="round" stroke-linejoin="round"/>
<path d="M61.4043 6.55029V12.0737L64.3178 14.0165C65.0861 14.5278 65.5482 15.3919 65.5482 16.3147V24.4358" stroke="white" stroke-width="2" stroke-miterlimit="10" stroke-linecap="round" stroke-linejoin="round"/>
<path d="M43.4506 35.9866C50.0658 35.9866 55.4285 30.6239 55.4285 24.0087C55.4285 17.3935 50.0658 12.0308 43.4506 12.0308C36.8354 12.0308 31.4727 17.3935 31.4727 24.0087C31.4727 30.6239 36.8354 35.9866 43.4506 35.9866Z" stroke="white" stroke-width="2" stroke-miterlimit="10" stroke-linecap="round" stroke-linejoin="round"/>
<path d="M33.5195 68.9745H55.1211C55.7315 68.9745 56.2259 68.4801 56.2259 67.8696V64.555C56.2259 63.9446 55.7315 63.4502 55.1211 63.4502H33.5195" stroke="white" stroke-width="2" stroke-miterlimit="10" stroke-linecap="round" stroke-linejoin="round"/>
<path d="M57.9647 63.4471H34.6244C34.0142 63.4471 33.5195 62.9525 33.5195 62.3423V59.0277C33.5195 58.4175 34.0142 57.9229 34.6244 57.9229H57.9647C58.5749 57.9229 59.0695 58.4175 59.0695 59.0277V62.3423C59.0695 62.9525 58.5749 63.4471 57.9647 63.4471Z" stroke="white" stroke-width="2" stroke-miterlimit="10" stroke-linecap="round" stroke-linejoin="round"/>
<path d="M57.9647 52.3958H34.6244C34.0142 52.3958 33.5195 51.9012 33.5195 51.291V47.9764C33.5195 47.3662 34.0142 46.8716 34.6244 46.8716H57.9647C58.5749 46.8716 59.0695 47.3662 59.0695 47.9764V51.291C59.0695 51.9011 58.5749 52.3958 57.9647 52.3958Z" stroke="white" stroke-width="2" stroke-miterlimit="10" stroke-linecap="round" stroke-linejoin="round"/>
<path d="M32.583 57.9261H55.1208C55.7313 57.9261 56.2256 57.4317 56.2256 56.8213V53.5067C56.2256 52.8962 55.7313 52.4019 55.1208 52.4019H31.7806C31.1702 52.4019 30.6758 52.8962 30.6758 53.5067V55.7979" stroke="white" stroke-width="2" stroke-miterlimit="10" stroke-linecap="round" stroke-linejoin="round"/>
<path d="M4.45117 62.2221V61.4168C4.45117 57.5641 7.57519 54.4414 11.4279 54.4414H16.0791" stroke="white" stroke-width="2" stroke-miterlimit="10" stroke-linecap="round" stroke-linejoin="round"/>
<path d="M21.8924 54.4414H26.5422C30.3949 54.4414 33.5189 57.5641 33.5189 61.4168V68.9746H4.45117V67.0072" stroke="white" stroke-width="2" stroke-miterlimit="10" stroke-linecap="round" stroke-linejoin="round"/>
<path d="M21.8914 51.5098V54.4412C21.8914 56.0471 20.5907 57.3478 18.9848 57.3478C17.3789 57.3478 16.0781 56.0471 16.0781 54.4412V51.5098" stroke="white" stroke-width="2" stroke-miterlimit="10" stroke-linecap="round" stroke-linejoin="round"/>
<path d="M27.415 68.9747V64.6147" stroke="white" stroke-width="2" stroke-miterlimit="10" stroke-linecap="round" stroke-linejoin="round"/>
<path d="M10.5557 68.9747V64.6147" stroke="white" stroke-width="2" stroke-miterlimit="10" stroke-linecap="round" stroke-linejoin="round"/>
<path d="M10.6904 31.9143C12.2281 28.8956 15.3644 26.8276 18.9846 26.8276C21.5541 26.8276 23.8794 27.8682 25.5624 29.5512C26.2513 30.2401 26.8327 31.0365 27.2788 31.9144" stroke="white" stroke-width="2" stroke-miterlimit="10" stroke-linecap="round" stroke-linejoin="round"/>
<path d="M30.6121 41.3613V37.1466C30.6121 35.5727 30.2517 34.0815 29.6108 32.7488C29.3666 32.2416 28.858 31.9146 28.2955 31.9146H26.2521C25.4499 31.9146 24.7988 32.5656 24.7988 33.3679V35.6293C24.7988 35.9564 24.8904 36.276 25.0634 36.5537L26.2521 38.4546" stroke="white" stroke-width="2" stroke-miterlimit="10" stroke-linecap="round" stroke-linejoin="round"/>
<path d="M11.7184 38.4546L12.9071 36.5537C13.0801 36.2762 13.1717 35.9564 13.1717 35.6293V33.3679C13.1717 32.5656 12.5206 31.9146 11.7184 31.9146H9.67496C9.1125 31.9146 8.60391 32.2416 8.35973 32.7488C7.71879 34.0815 7.3584 35.5726 7.3584 37.1466V41.3613" stroke="white" stroke-width="2" stroke-miterlimit="10" stroke-linecap="round" stroke-linejoin="round"/>
<path d="M26.252 38.4546H27.7053C29.3106 38.4546 30.6119 39.756 30.6119 41.3612C30.6119 42.9666 29.3105 44.2679 27.7053 44.2679H26.252" stroke="white" stroke-width="2" stroke-miterlimit="10" stroke-linecap="round" stroke-linejoin="round"/>
<path d="M11.7184 38.4546H10.265C8.65969 38.4546 7.3584 39.756 7.3584 41.3612C7.3584 42.9666 8.65982 44.2679 10.265 44.2679H11.7184" stroke="white" stroke-width="2" stroke-miterlimit="10" stroke-linecap="round" stroke-linejoin="round"/>
<path d="M26.2522 38.4546V44.8493C26.2522 48.862 22.9982 52.1161 18.9855 52.1161C14.9728 52.1161 11.7188 48.862 11.7188 44.8493V38.4546" stroke="white" stroke-width="2" stroke-miterlimit="10" stroke-linecap="round" stroke-linejoin="round"/>
<path d="M25.4958 6.5498V12.0742L22.5831 14.016C21.8138 14.5284 21.3525 15.3915 21.3525 16.3141V26.8279" stroke="white" stroke-width="2" stroke-miterlimit="10" stroke-linecap="round" stroke-linejoin="round"/>
<path d="M44.4153 31.2522C44.3025 31.2516 44.1911 31.2277 44.0879 31.1819C43.9846 31.1362 43.8919 31.0696 43.8153 30.9863L39.2385 26.0364C39.0857 25.8812 39 25.6717 39 25.4534C39 25.2351 39.0857 25.0256 39.2385 24.8704C39.3874 24.7306 39.584 24.6537 39.7877 24.6557H42.0558C42.4379 24.6489 42.8104 24.534 43.1306 24.3242C43.4507 24.1144 43.7057 23.8181 43.8661 23.4693H40.6014C40.3999 23.4467 40.2139 23.3502 40.0788 23.1983C39.9436 23.0465 39.8689 22.8498 39.8689 22.646C39.8689 22.4422 39.9436 22.2456 40.0788 22.0937C40.2139 21.9418 40.3999 21.8453 40.6014 21.8227H43.917C43.7551 21.4758 43.4995 21.1817 43.1794 20.9737C42.8594 20.7658 42.4876 20.6524 42.1066 20.6466H39.8386C39.6372 20.624 39.4511 20.5275 39.316 20.3756C39.1808 20.2237 39.1061 20.0271 39.1061 19.8233C39.1061 19.6195 39.1808 19.4229 39.316 19.271C39.4511 19.1191 39.6372 19.0226 39.8386 19H46.958C47.1594 19.0226 47.3455 19.1191 47.4806 19.271C47.6157 19.4229 47.6904 19.6195 47.6904 19.8233C47.6904 20.0271 47.6157 20.2237 47.4806 20.3756C47.3455 20.5275 47.1594 20.624 46.958 20.6466H45.1375C45.3734 21.0048 45.5423 21.4034 45.6358 21.8227H46.9783C47.1798 21.8453 47.3658 21.9418 47.5009 22.0937C47.6361 22.2456 47.7108 22.4422 47.7108 22.646C47.7108 22.8498 47.6361 23.0465 47.5009 23.1983C47.3658 23.3502 47.1798 23.4467 46.9783 23.4693H45.646C45.4602 24.2737 45.0094 24.9913 44.3669 25.5056C43.7244 26.0198 42.9278 26.3006 42.1066 26.3023H41.7201L45.0663 29.9227C45.2184 30.0761 45.3039 30.2839 45.3039 30.5005C45.3039 30.7172 45.2184 30.925 45.0663 31.0784C44.9757 31.1513 44.8711 31.2044 44.759 31.2343C44.647 31.2643 44.5299 31.2704 44.4153 31.2522Z" fill="white"/>
</svg>
