<svg width="70" height="70" viewBox="0 0 70 70" fill="none" xmlns="http://www.w3.org/2000/svg">
<path d="M20.7812 19.6875H22.9688V21.875H20.7812V19.6875Z" fill="white"/>
<path d="M66.7188 61.25V18.5938C66.7188 18.3037 66.6035 18.0255 66.3984 17.8204C66.1933 17.6152 65.9151 17.5 65.625 17.5H57.9688V7.65625C57.9688 7.36617 57.8535 7.08797 57.6484 6.88285C57.4433 6.67773 57.1651 6.5625 56.875 6.5625H52.5V3.28125C52.5 2.99117 52.3848 2.71297 52.1796 2.50785C51.9745 2.30273 51.6963 2.1875 51.4062 2.1875H18.5938C18.3037 2.1875 18.0255 2.30273 17.8204 2.50785C17.6152 2.71297 17.5 2.99117 17.5 3.28125V6.5625H13.125C12.8349 6.5625 12.5567 6.67773 12.3516 6.88285C12.1465 7.08797 12.0312 7.36617 12.0312 7.65625V17.5H4.375C4.08492 17.5 3.80672 17.6152 3.6016 17.8204C3.39648 18.0255 3.28125 18.3037 3.28125 18.5938V25.1562C2.99117 25.1562 2.71297 25.2715 2.50785 25.4766C2.30273 25.6817 2.1875 25.9599 2.1875 26.25V66.7188C2.1875 67.0088 2.30273 67.287 2.50785 67.4921C2.71297 67.6973 2.99117 67.8125 3.28125 67.8125H66.7188C67.0088 67.8125 67.287 67.6973 67.4921 67.4921C67.6973 67.287 67.8125 67.0088 67.8125 66.7188V62.3438C67.8125 62.0537 67.6973 61.7755 67.4921 61.5704C67.287 61.3652 67.0088 61.25 66.7188 61.25ZM64.5312 19.6875V61.25H62.3438V52.5C62.6338 52.5 62.912 52.3848 63.1171 52.1796C63.3223 51.9745 63.4375 51.6963 63.4375 51.4062V47.0312C63.4349 46.1618 63.0884 45.3287 62.4736 44.7139C61.8588 44.0991 61.0257 43.7526 60.1562 43.75H56.875V40.4688C56.8733 39.8891 56.6422 39.3337 56.2324 38.9239C55.8225 38.514 55.2671 38.283 54.6875 38.2812H53.5938V19.6875H64.5312ZM51.4062 42.6562C51.9859 42.6545 52.5413 42.4235 52.9511 42.0136C53.361 41.6038 53.592 41.0484 53.5938 40.4688H54.6875V43.75H39.375V40.4688H40.4688C40.4705 41.0484 40.7015 41.6038 41.1114 42.0136C41.5212 42.4235 42.0766 42.6545 42.6562 42.6562H51.4062ZM42.6562 40.4688V38.2812H51.4062V40.4688H42.6562ZM19.6875 4.375H50.3125V6.5625H19.6875V4.375ZM14.2188 8.75H55.7812V17.5H52.5C52.2099 17.5 51.9317 17.6152 51.7266 17.8204C51.5215 18.0255 51.4062 18.3037 51.4062 18.5938V36.0938H42.6562C42.0766 36.0955 41.5212 36.3265 41.1114 36.7364C40.7015 37.1462 40.4705 37.7016 40.4688 38.2812H39.375C38.7954 38.283 38.24 38.514 37.8301 38.9239C37.4203 39.3337 37.1892 39.8891 37.1875 40.4688V43.75H36.0938V32.8125C36.0942 32.5569 36.0052 32.3093 35.8422 32.1125L30.3734 25.55C30.271 25.4261 30.1423 25.3264 29.9967 25.2584C29.851 25.1903 29.692 25.1554 29.5312 25.1562H18.5938V18.5938C18.5938 18.3037 18.4785 18.0255 18.2734 17.8204C18.0683 17.6152 17.7901 17.5 17.5 17.5H14.2188V8.75ZM32.6594 31.7188H30.625V29.2688L32.6594 31.7188ZM5.46875 19.6875H16.4062V25.1562H5.46875V19.6875ZM4.375 65.625V27.3438H28.4375V32.8125C28.4375 33.1026 28.5527 33.3808 28.7579 33.5859C28.963 33.791 29.2412 33.9062 29.5312 33.9062H33.9062V43.75C33.0368 43.7526 32.2037 44.0991 31.5889 44.7139C30.9741 45.3287 30.6276 46.1618 30.625 47.0312H7.65625V49.2188H30.625V51.4062C30.625 51.6963 30.7402 51.9745 30.9454 52.1796C31.1505 52.3848 31.4287 52.5 31.7188 52.5V64.5312C31.7217 64.9044 31.7883 65.2743 31.9156 65.625H4.375ZM60.1562 64.5312C60.1562 64.8213 60.041 65.0995 59.8359 65.3046C59.6308 65.5098 59.3526 65.625 59.0625 65.625H35C34.7099 65.625 34.4317 65.5098 34.2266 65.3046C34.0215 65.0995 33.9062 64.8213 33.9062 64.5312V52.5H36.0938V55.7812C36.0938 56.0713 36.209 56.3495 36.4141 56.5546C36.6192 56.7598 36.8974 56.875 37.1875 56.875H41.5625C41.8526 56.875 42.1308 56.7598 42.3359 56.5546C42.541 56.3495 42.6562 56.0713 42.6562 55.7812V52.5H51.4062V55.7812C51.4062 56.0713 51.5215 56.3495 51.7266 56.5546C51.9317 56.7598 52.2099 56.875 52.5 56.875H56.875C57.1651 56.875 57.4433 56.7598 57.6484 56.5546C57.8535 56.3495 57.9688 56.0713 57.9688 55.7812V52.5H60.1562V64.5312ZM38.2812 54.6875V52.5H40.4688V54.6875H38.2812ZM53.5938 54.6875V52.5H55.7812V54.6875H53.5938ZM61.25 50.3125H32.8125V47.0312C32.8125 46.7412 32.9277 46.463 33.1329 46.2579C33.338 46.0527 33.6162 45.9375 33.9062 45.9375H60.1562C60.4463 45.9375 60.7245 46.0527 60.9296 46.2579C61.1348 46.463 61.25 46.7412 61.25 47.0312V50.3125ZM65.625 65.625H62.1469C62.2742 65.2743 62.3408 64.9044 62.3438 64.5312V63.4375H65.625V65.625Z" fill="white"/>
<path d="M7.65625 21.875H9.84375V24.0625H7.65625V21.875Z" fill="white"/>
<path d="M12.0312 21.875H14.2188V24.0625H12.0312V21.875Z" fill="white"/>
<path d="M55.7812 21.875H57.9688V24.0625H55.7812V21.875Z" fill="white"/>
<path d="M60.1562 21.875H62.3438V24.0625H60.1562V21.875Z" fill="white"/>
<path d="M55.7812 26.25H57.9688V28.4375H55.7812V26.25Z" fill="white"/>
<path d="M60.1562 26.25H62.3438V28.4375H60.1562V26.25Z" fill="white"/>
<path d="M55.7812 30.625H57.9688V32.8125H55.7812V30.625Z" fill="white"/>
<path d="M60.1562 30.625H62.3438V32.8125H60.1562V30.625Z" fill="white"/>
<path d="M60.1562 35H62.3438V37.1875H60.1562V35Z" fill="white"/>
<path d="M20.7812 10.9375H22.9688V13.125H20.7812V10.9375Z" fill="white"/>
<path d="M25.1562 10.9375H27.3438V13.125H25.1562V10.9375Z" fill="white"/>
<path d="M20.7812 15.3125H22.9688V17.5H20.7812V15.3125Z" fill="white"/>
<path d="M25.1562 15.3125H27.3438V17.5H25.1562V15.3125Z" fill="white"/>
<path d="M25.1562 19.6875H27.3438V21.875H25.1562V19.6875Z" fill="white"/>
<path d="M29.5312 10.9375H31.7188V13.125H29.5312V10.9375Z" fill="white"/>
<path d="M33.9062 10.9375H36.0938V13.125H33.9062V10.9375Z" fill="white"/>
<path d="M29.5312 15.3125H31.7188V17.5H29.5312V15.3125Z" fill="white"/>
<path d="M33.9062 15.3125H36.0938V17.5H33.9062V15.3125Z" fill="white"/>
<path d="M29.5312 19.6875H31.7188V21.875H29.5312V19.6875Z" fill="white"/>
<path d="M38.2812 10.9375H40.4688V13.125H38.2812V10.9375Z" fill="white"/>
<path d="M42.6562 10.9375H44.8438V13.125H42.6562V10.9375Z" fill="white"/>
<path d="M38.2812 15.3125H40.4688V17.5H38.2812V15.3125Z" fill="white"/>
<path d="M42.6562 15.3125H44.8438V17.5H42.6562V15.3125Z" fill="white"/>
<path d="M38.2812 19.6875H40.4688V21.875H38.2812V19.6875Z" fill="white"/>
<path d="M42.6562 19.6875H44.8438V21.875H42.6562V19.6875Z" fill="white"/>
<path d="M47.0312 10.9375H49.2188V13.125H47.0312V10.9375Z" fill="white"/>
<path d="M47.0312 15.3125H49.2188V17.5H47.0312V15.3125Z" fill="white"/>
<path d="M47.0312 19.6875H49.2188V21.875H47.0312V19.6875Z" fill="white"/>
<path d="M33.9062 19.6875H36.0938V21.875H33.9062V19.6875Z" fill="white"/>
<path d="M7.65625 30.625H18.5938V32.8125H7.65625V30.625Z" fill="white"/>
<path d="M7.65625 36.0938H30.625V38.2812H7.65625V36.0938Z" fill="white"/>
<path d="M7.65625 41.5625H30.625V43.75H7.65625V41.5625Z" fill="white"/>
<path d="M12.0312 52.5H7.65625V54.6875H12.0312H14.2188H30.625V52.5H14.2188H12.0312Z" fill="white"/>
<path d="M7.65625 57.9688H30.625V60.1562H7.65625V57.9688Z" fill="white"/>
</svg>
