<svg width="70" height="70" viewBox="0 0 70 70" fill="none" xmlns="http://www.w3.org/2000/svg">
<path d="M50.3125 38.2812C48.5819 38.2812 46.8902 38.7944 45.4513 39.7559C44.0123 40.7174 42.8908 42.0839 42.2286 43.6828C41.5663 45.2816 41.393 47.041 41.7306 48.7383C42.0683 50.4356 42.9016 51.9947 44.1253 53.2184C45.349 54.4421 46.9081 55.2755 48.6055 55.6131C50.3028 55.9507 52.0621 55.7775 53.661 55.1152C55.2598 54.4529 56.6264 53.3314 57.5879 51.8925C58.5493 50.4536 59.0625 48.7618 59.0625 47.0312C59.0593 44.7116 58.1364 42.4878 56.4962 40.8476C54.8559 39.2073 52.6322 38.2844 50.3125 38.2812ZM50.3125 53.5938C49.0146 53.5938 47.7458 53.2089 46.6666 52.4878C45.5874 51.7667 44.7462 50.7417 44.2495 49.5426C43.7528 48.3435 43.6229 47.024 43.8761 45.751C44.1293 44.478 44.7543 43.3086 45.6721 42.3909C46.5899 41.4731 47.7592 40.8481 49.0322 40.5948C50.3052 40.3416 51.6247 40.4716 52.8239 40.9683C54.023 41.465 55.0479 42.3061 55.769 43.3853C56.4901 44.4645 56.875 45.7333 56.875 47.0312C56.875 48.7717 56.1836 50.4409 54.9529 51.6716C53.7222 52.9023 52.053 53.5938 50.3125 53.5938Z" fill="white"/>
<path d="M67.3641 60.4516L64.5312 56.4375V42.6562C64.5325 40.9341 64.1593 39.2323 63.4375 37.6687V7.65625C63.4349 6.78681 63.0884 5.95372 62.4736 5.33892C61.8588 4.72413 61.0257 4.3776 60.1562 4.375H7.65625C6.78681 4.3776 5.95372 4.72413 5.33892 5.33892C4.72413 5.95372 4.3776 6.78681 4.375 7.65625V39.375C4.3776 40.2444 4.72413 41.0775 5.33892 41.6923C5.95372 42.3071 6.78681 42.6537 7.65625 42.6562H29.5312V47.0312H24.0625C23.7724 47.0312 23.4942 47.1465 23.2891 47.3516C23.084 47.5567 22.9688 47.8349 22.9688 48.125V53.5938C22.9688 53.8838 23.084 54.162 23.2891 54.3671C23.4942 54.5723 23.7724 54.6875 24.0625 54.6875H36.0938V56.4703L33.2719 60.4406C32.9221 60.9319 32.7145 61.51 32.6718 62.1115C32.6291 62.713 32.753 63.3147 33.0299 63.8504C33.3068 64.3861 33.726 64.8351 34.2414 65.1482C34.7568 65.4613 35.3485 65.6262 35.9516 65.625H64.6844C65.2856 65.6248 65.8752 65.4594 66.3889 65.1469C66.9025 64.8344 67.3204 64.3868 67.5969 63.8529C67.8735 63.319 67.998 62.7194 67.9569 62.1196C67.9159 61.5198 67.7108 60.9428 67.3641 60.4516ZM6.5625 7.65625C6.5625 7.36617 6.67773 7.08797 6.88285 6.88285C7.08797 6.67773 7.36617 6.5625 7.65625 6.5625H60.1562C60.4463 6.5625 60.7245 6.67773 60.9296 6.88285C61.1348 7.08797 61.25 7.36617 61.25 7.65625V34.4203C59.3534 32.4031 56.8194 31.1013 54.075 30.7344L55.7047 26.6547C55.7708 26.4887 55.7952 26.309 55.7759 26.1314C55.7565 25.9537 55.6939 25.7835 55.5935 25.6357C55.4931 25.4879 55.3581 25.3668 55.2001 25.2833C55.0422 25.1997 54.8662 25.1561 54.6875 25.1562H45.9375C45.7588 25.1561 45.5828 25.1997 45.4249 25.2833C45.2669 25.3668 45.1319 25.4879 45.0315 25.6357C44.9311 25.7835 44.8685 25.9537 44.8491 26.1314C44.8298 26.309 44.8542 26.4887 44.9203 26.6547L46.55 30.7344C43.5367 31.1325 40.7857 32.6565 38.85 35H6.5625V7.65625ZM53.0688 27.3438L51.7562 30.625H48.8688L47.5562 27.3438H53.0688ZM7.65625 40.4688C7.36617 40.4688 7.08797 40.3535 6.88285 40.1484C6.67773 39.9433 6.5625 39.6651 6.5625 39.375V37.1875H37.4172C36.8931 38.2235 36.5176 39.3281 36.3016 40.4688H7.65625ZM36.0938 42.6562V47.0312H31.7188V42.6562H36.0938ZM25.1562 52.5V49.2188H36.0938V52.5H25.1562ZM65.6578 62.8469C65.5664 63.026 65.4269 63.1761 65.255 63.2805C65.0831 63.3848 64.8855 63.4392 64.6844 63.4375H35.9516C35.7502 63.4386 35.5525 63.3841 35.3802 63.28C35.2079 63.1759 35.0676 63.0263 34.9749 62.8476C34.8821 62.6689 34.8405 62.4681 34.8546 62.2673C34.8687 62.0664 34.9379 61.8734 35.0547 61.7094L38.0844 57.4547C38.213 57.2682 38.2816 57.0469 38.2812 56.8203V42.6562C38.2853 40.0468 39.3237 37.5453 41.1689 35.7001C43.0141 33.855 45.5155 32.8165 48.125 32.8125H52.5C54.3103 32.8149 56.0848 33.3164 57.6285 34.2619C59.1722 35.2075 60.4253 36.5604 61.25 38.1719V38.2812H61.3047C61.9853 39.6394 62.3411 41.1371 62.3438 42.6562V56.7875C62.3434 57.0107 62.4122 57.2284 62.5406 57.4109L65.5812 61.7094C65.6974 61.8736 65.766 62.0667 65.7795 62.2674C65.793 62.468 65.7509 62.6686 65.6578 62.8469Z" fill="white"/>
<path d="M10.9375 10.9375H14.2188V8.75H9.84375C9.55367 8.75 9.27547 8.86523 9.07035 9.07035C8.86523 9.27547 8.75 9.55367 8.75 9.84375V14.2188H10.9375V10.9375Z" fill="white"/>
<path d="M56.875 14.2188H59.0625V9.84375C59.0625 9.55367 58.9473 9.27547 58.7421 9.07035C58.537 8.86523 58.2588 8.75 57.9688 8.75H53.5938V10.9375H56.875V14.2188Z" fill="white"/>
<path d="M36.0938 29.5312V14.2188C36.0938 13.9287 35.9785 13.6505 35.7734 13.4454C35.5683 13.2402 35.2901 13.125 35 13.125H30.625C30.3349 13.125 30.0567 13.2402 29.8516 13.4454C29.6465 13.6505 29.5312 13.9287 29.5312 14.2188V29.5312H28.4375V18.5938C28.4375 18.3037 28.3223 18.0255 28.1171 17.8204C27.912 17.6152 27.6338 17.5 27.3438 17.5H22.9688C22.6787 17.5 22.4005 17.6152 22.1954 17.8204C21.9902 18.0255 21.875 18.3037 21.875 18.5938V29.5312H20.7812V25.1562C20.7812 24.8662 20.666 24.588 20.4609 24.3829C20.2558 24.1777 19.9776 24.0625 19.6875 24.0625H15.3125C15.0224 24.0625 14.7442 24.1777 14.5391 24.3829C14.334 24.588 14.2188 24.8662 14.2188 25.1562V29.5312H12.0312V31.7188H38.2812V29.5312H36.0938ZM18.5938 29.5312H16.4062V26.25H18.5938V29.5312ZM26.25 29.5312H24.0625V19.6875H26.25V29.5312ZM33.9062 29.5312H31.7188V15.3125H33.9062V29.5312Z" fill="white"/>
<path d="M21.875 54.6875H19.6875V52.5H20.7812C21.0713 52.5 21.3495 52.3848 21.5546 52.1796C21.7598 51.9745 21.875 51.6963 21.875 51.4062V47.0312C21.875 46.7412 21.7598 46.463 21.5546 46.2579C21.3495 46.0527 21.0713 45.9375 20.7812 45.9375H5.46875C5.17867 45.9375 4.90047 46.0527 4.69535 46.2579C4.49023 46.463 4.375 46.7412 4.375 47.0312V50.3125H3.28125C2.99117 50.3125 2.71297 50.4277 2.50785 50.6329C2.30273 50.838 2.1875 51.1162 2.1875 51.4062V55.7812C2.1875 56.0713 2.30273 56.3495 2.50785 56.5546C2.71297 56.7598 2.99117 56.875 3.28125 56.875H5.46875V59.0625H3.28125C2.99117 59.0625 2.71297 59.1777 2.50785 59.3829C2.30273 59.588 2.1875 59.8662 2.1875 60.1562V64.5312C2.1875 64.8213 2.30273 65.0995 2.50785 65.3046C2.71297 65.5098 2.99117 65.625 3.28125 65.625H18.5938C18.8838 65.625 19.162 65.5098 19.3671 65.3046C19.5723 65.0995 19.6875 64.8213 19.6875 64.5312V61.25H21.875C22.1651 61.25 22.4433 61.1348 22.6484 60.9296C22.8535 60.7245 22.9688 60.4463 22.9688 60.1562V55.7812C22.9688 55.4912 22.8535 55.213 22.6484 55.0079C22.4433 54.8027 22.1651 54.6875 21.875 54.6875ZM6.5625 48.125H19.6875V50.3125H6.5625V48.125ZM4.375 54.6875V52.5H17.5V54.6875H4.375ZM17.5 63.4375H4.375V61.25H17.5V63.4375ZM20.7812 59.0625H7.65625V56.875H20.7812V59.0625Z" fill="white"/>
<path d="M51.1546 52.3999C51.0681 52.3994 50.9826 52.3811 50.9034 52.346C50.8242 52.3109 50.753 52.2598 50.6943 52.1959L47.183 48.3983C47.0658 48.2793 47 48.1185 47 47.951C47 47.7835 47.0658 47.6228 47.183 47.5038C47.2972 47.3965 47.4481 47.3375 47.6043 47.339H49.3444C49.6375 47.3338 49.9233 47.2457 50.169 47.0847C50.4146 46.9238 50.6102 46.6964 50.7333 46.4289H48.2286C48.074 46.4115 47.9313 46.3375 47.8276 46.221C47.724 46.1044 47.6666 45.9536 47.6666 45.7972C47.6666 45.6409 47.724 45.49 47.8276 45.3735C47.9313 45.257 48.074 45.1829 48.2286 45.1656H50.7723C50.6481 44.8995 50.452 44.6738 50.2065 44.5142C49.9609 44.3547 49.6757 44.2677 49.3834 44.2633H47.6433C47.4888 44.2459 47.3461 44.1719 47.2424 44.0554C47.1387 43.9388 47.0814 43.788 47.0814 43.6316C47.0814 43.4753 47.1387 43.3244 47.2424 43.2079C47.3461 43.0914 47.4888 43.0173 47.6433 43H53.1054C53.2599 43.0173 53.4026 43.0914 53.5063 43.2079C53.61 43.3244 53.6673 43.4753 53.6673 43.6316C53.6673 43.788 53.61 43.9388 53.5063 44.0554C53.4026 44.1719 53.2599 44.2459 53.1054 44.2633H51.7087C51.8897 44.5381 52.0193 44.8439 52.091 45.1656H53.121C53.2755 45.1829 53.4182 45.257 53.5219 45.3735C53.6256 45.49 53.6829 45.6409 53.6829 45.7972C53.6829 45.9536 53.6256 46.1044 53.5219 46.221C53.4182 46.3375 53.2755 46.4115 53.121 46.4289H52.0988C51.9562 47.046 51.6104 47.5965 51.1175 47.9911C50.6245 48.3856 50.0134 48.601 49.3834 48.6023H49.0869L51.654 51.3799C51.7708 51.4976 51.8363 51.657 51.8363 51.8232C51.8363 51.9894 51.7708 52.1489 51.654 52.2665C51.5846 52.3225 51.5043 52.3632 51.4183 52.3862C51.3323 52.4091 51.2425 52.4138 51.1546 52.3999Z" fill="white"/>
</svg>
