<svg width="1920" height="1080" viewBox="0 0 1920 1080" fill="none" xmlns="http://www.w3.org/2000/svg">
<mask id="mask0_990_60" style="mask-type:luminance" maskUnits="userSpaceOnUse" x="0" y="0" width="1920" height="1080">
<path d="M1920 0H0V1080H1920V0Z" fill="white"/>
</mask>
<g mask="url(#mask0_990_60)">
<path opacity="0.5" d="M101 740.8H67.7002V887.3H101V740.8Z" fill="url(#paint0_linear_990_60)"/>
<path opacity="0.5" d="M101 740.8H67.7002V887.3H101V740.8Z" fill="url(#paint1_linear_990_60)"/>
<path opacity="0.5" d="M140.2 824.7H106.9V938.2H140.2V824.7Z" fill="url(#paint2_linear_990_60)"/>
<path opacity="0.5" d="M140.2 824.7H106.9V938.2H140.2V824.7Z" fill="url(#paint3_linear_990_60)"/>
<path opacity="0.5" d="M201 876.8H167.7V940.8H201V876.8Z" fill="url(#paint4_linear_990_60)"/>
<path opacity="0.5" d="M201 876.8H167.7V940.8H201V876.8Z" fill="url(#paint5_linear_990_60)"/>
<path opacity="0.5" d="M240.5 816.2H207.2V922.3H240.5V816.2Z" fill="url(#paint6_linear_990_60)"/>
<path opacity="0.5" d="M240.5 816.2H207.2V922.3H240.5V816.2Z" fill="url(#paint7_linear_990_60)"/>
<path opacity="0.5" d="M294.8 763.2H261.5V911.4H294.8V763.2Z" fill="url(#paint8_linear_990_60)"/>
<path opacity="0.5" d="M294.8 763.2H261.5V911.4H294.8V763.2Z" fill="url(#paint9_linear_990_60)"/>
<path opacity="0.5" d="M455.3 869.2H422V988.6H455.3V869.2Z" fill="url(#paint10_linear_990_60)"/>
<path opacity="0.5" d="M455.3 869.2H422V988.6H455.3V869.2Z" fill="url(#paint11_linear_990_60)"/>
<path opacity="0.5" d="M403 885.9H369.7V926.5H403V885.9Z" fill="url(#paint12_linear_990_60)"/>
<path opacity="0.5" d="M403 885.9H369.7V926.5H403V885.9Z" fill="url(#paint13_linear_990_60)"/>
<path opacity="0.5" d="M350.8 787.9H317.5V1009.8H350.8V787.9Z" fill="url(#paint14_linear_990_60)"/>
<path opacity="0.5" d="M350.8 787.9H317.5V1009.8H350.8V787.9Z" fill="url(#paint15_linear_990_60)"/>
<path opacity="0.5" d="M54.8996 861.2H21.5996V936.5H54.8996V861.2Z" fill="url(#paint16_linear_990_60)"/>
<path opacity="0.5" d="M54.8996 861.2H21.5996V936.5H54.8996V861.2Z" fill="url(#paint17_linear_990_60)"/>
<path opacity="0.5" d="M782.4 689.8H749.1V888.2H782.4V689.8Z" fill="url(#paint18_linear_990_60)"/>
<path opacity="0.5" d="M782.4 689.8H749.1V888.2H782.4V689.8Z" fill="url(#paint19_linear_990_60)"/>
<path opacity="0.5" d="M720.3 758.7H687V852.3H720.3V758.7Z" fill="url(#paint20_linear_990_60)"/>
<path opacity="0.5" d="M720.3 758.7H687V852.3H720.3V758.7Z" fill="url(#paint21_linear_990_60)"/>
<path opacity="0.5" d="M976.6 782.4H943.3V845.7H976.6V782.4Z" fill="url(#paint22_linear_990_60)"/>
<path opacity="0.5" d="M976.6 782.4H943.3V845.7H976.6V782.4Z" fill="url(#paint23_linear_990_60)"/>
<path opacity="0.5" d="M1031.3 656.1H998V815.2H1031.3V656.1Z" fill="url(#paint24_linear_990_60)"/>
<path opacity="0.5" d="M1031.3 656.1H998V815.2H1031.3V656.1Z" fill="url(#paint25_linear_990_60)"/>
<path opacity="0.5" d="M585.3 886.7H552V995H585.3V886.7Z" fill="url(#paint26_linear_990_60)"/>
<path opacity="0.5" d="M585.3 886.7H552V995H585.3V886.7Z" fill="url(#paint27_linear_990_60)"/>
<path opacity="0.5" d="M660.8 757.8H627.5V936.5H660.8V757.8Z" fill="url(#paint28_linear_990_60)"/>
<path opacity="0.5" d="M660.8 757.8H627.5V936.5H660.8V757.8Z" fill="url(#paint29_linear_990_60)"/>
<path opacity="0.5" d="M843.2 758.7H809.9V907.8H843.2V758.7Z" fill="url(#paint30_linear_990_60)"/>
<path opacity="0.5" d="M843.2 758.7H809.9V907.8H843.2V758.7Z" fill="url(#paint31_linear_990_60)"/>
<path opacity="0.5" d="M919.3 650.5H886V850.8H919.3V650.5Z" fill="url(#paint32_linear_990_60)"/>
<path opacity="0.5" d="M919.3 650.5H886V850.8H919.3V650.5Z" fill="url(#paint33_linear_990_60)"/>
<path opacity="0.5" d="M1156.5 498.1H1123.2V698.4H1156.5V498.1Z" fill="url(#paint34_linear_990_60)"/>
<path opacity="0.5" d="M1156.5 498.1H1123.2V698.4H1156.5V498.1Z" fill="url(#paint35_linear_990_60)"/>
<path opacity="0.5" d="M1094.8 549H1061.5V671.3H1094.8V549Z" fill="url(#paint36_linear_990_60)"/>
<path opacity="0.5" d="M1094.8 549H1061.5V671.3H1094.8V549Z" fill="url(#paint37_linear_990_60)"/>
<path opacity="0.5" d="M515.1 837.4H481.8V1020.5H515.1V837.4Z" fill="url(#paint38_linear_990_60)"/>
<path opacity="0.5" d="M515.1 837.4H481.8V1020.5H515.1V837.4Z" fill="url(#paint39_linear_990_60)"/>
<path d="M-53.4 945.2C30.9 920.7 118.5 888.2 207.3 900.8C263.6 908.8 312.3 934.2 363.1 954C413.9 973.9 474 988.7 527.9 974.1C580.4 959.9 613.2 921.9 646.5 888.3C679.8 854.7 724.9 820.8 780.7 821.8C830.4 822.6 874.2 851.5 923.9 849.8C973.8 848.1 1012.5 816.1 1035.2 782.8C1065.8 737.9 1060.8 731.3 1101.4 682.4C1152 621.5 1210.6 594 1223.7 588.1C1258.9 572.2 1291.1 564.9 1313.5 561.2C1313 754 1312.5 946.8 1312 1139.5H-301.1C-284.3 1119.2 -291.8 1090.6 -294.9 1066.8C-298.5 1038.3 -303.4 1009.8 -305.8 981.3C-309.2 940.6 -290.7 958.5 -251.2 965.6C-217.8 971.6 -182.7 970.2 -149.1 965.9C-119.6 962.2 -81.9 945.2 -53.4 945.2Z" fill="url(#paint40_linear_990_60)"/>
<path d="M481.3 983.1C469.3 983.1 456.8 982.1 443.9 980.1C418.6 976.2 391.8 968.6 362 957C349.9 952.3 337.7 947.1 325.9 942.2C288.3 926.4 249.4 910 206.9 904C130.5 893.1 54.6002 916 -18.6998 938.2C-29.7998 941.5 -41.1998 945 -52.3998 948.3L-54.2998 942.4C-43.0998 939.2 -31.6998 935.7 -20.6998 932.4C53.4002 910 130 886.9 207.8 898C251.2 904.2 290.4 920.7 328.4 936.7C340.1 941.6 352.3 946.7 364.3 951.4C429.5 976.9 482.7 983.4 527 971.4C573.2 958.9 604 927.4 633.8 896.9C637.2 893.4 640.7 889.9 644.1 886.4C664.4 866 683.8 850.7 703.5 839.7C728.9 825.5 754.8 818.5 780.7 818.9C805 819.3 828.1 826.3 850.4 833.1C874 840.3 898.4 847.7 923.7 846.9C982.9 844.9 1019.5 800.4 1032.5 781.3C1044.4 763.8 1051 752 1056.8 741.5C1066 724.9 1074 710.6 1098.9 680.7C1146.2 623.8 1201 595.2 1222.3 585.5C1250.6 572.7 1281.1 563.6 1312.9 558.4L1314 564.5C1282.8 569.6 1252.9 578.5 1225.1 591.1C1204.2 600.6 1150.4 628.7 1104 684.5C1079.5 714 1071.6 728.1 1062.6 744.4C1056.7 755 1050.1 766.9 1038 784.6C1025.3 803.2 1009.3 819.2 991.7 830.8C970.6 844.7 947.9 852.2 924.1 852.9C897.8 853.8 872.8 846.2 848.7 838.8C826.8 832.1 804.2 825.2 780.8 824.9C736.7 824.2 693.5 845.6 648.9 890.5C645.5 893.9 642 897.5 638.6 901C608.2 932.1 576.8 964.2 528.9 977.2C514.1 981.1 498.2 983.1 481.3 983.1Z" fill="white"/>
<path d="M1446.4 512.2L1341.8 411.3L1237.2 512.2L1264.6 538.5L1314 490.9V1199.8H1369.7V490.9L1419.1 538.5L1446.4 512.2Z" fill="url(#paint41_linear_990_60)"/>
<path opacity="0.5" d="M1743.8 616.5L1639.2 515.7L1534.6 616.5L1562 642.9L1611.4 595.3V1088H1667.1V595.3L1716.5 642.9L1743.8 616.5Z" fill="url(#paint42_linear_990_60)"/>
<path d="M1743.8 616.5L1639.2 515.7L1534.6 616.5L1562 642.9L1611.4 595.3V1088H1667.1V595.3L1716.5 642.9L1743.8 616.5Z" fill="url(#paint43_linear_990_60)"/>
<path opacity="0.5" d="M1199.5 925.6L1094.9 824.7L990.3 925.6L1017.6 952L1067 904.3V1397H1122.7V904.3L1172.1 952L1199.5 925.6Z" fill="url(#paint44_linear_990_60)"/>
<path opacity="0.5" d="M1199.5 925.6L1094.9 824.7L990.3 925.6L1017.6 952L1067 904.3V1397H1122.7V904.3L1172.1 952L1199.5 925.6Z" fill="url(#paint45_linear_990_60)"/>
<path opacity="0.5" d="M998 889L931.4 824.7L864.7 889L882.1 905.8L913.6 875.5V1189.5H949.1V875.5L980.6 905.8L998 889Z" fill="url(#paint46_linear_990_60)"/>
<path opacity="0.5" d="M1628.4 866.1L1561.8 801.8L1495.1 866.1L1512.5 882.9L1544 852.6V1166.6H1579.5V852.6L1611 882.9L1628.4 866.1Z" fill="url(#paint47_linear_990_60)"/>
<path d="M1313.5 689.8L1222.6 602.2L1131.8 689.8L1155.5 712.7L1198.5 671.4V1099.3H1246.8V671.4L1289.7 712.7L1313.5 689.8Z" fill="url(#paint48_linear_990_60)"/>
<path d="M1561.8 684.8L1470.9 597.2L1380.1 684.8L1403.8 707.7L1446.7 666.3V1094.3H1495.1V666.3L1538 707.7L1561.8 684.8Z" fill="url(#paint49_linear_990_60)"/>
<path d="M1446.4 512.2L1341.8 411.3L1237.2 512.2L1264.6 538.5L1314 490.9V1199.8H1369.7V490.9L1419.1 538.5L1446.4 512.2Z" fill="url(#paint50_linear_990_60)"/>
<path opacity="0.5" d="M1883 898.6L1778.4 797.8L1673.9 898.6L1701.2 925L1750.6 877.4V1370.1H1806.3V877.4L1855.7 925L1883 898.6Z" fill="url(#paint51_linear_990_60)"/>
<path opacity="0.5" d="M1883 898.6L1778.4 797.8L1673.9 898.6L1701.2 925L1750.6 877.4V1370.1H1806.3V877.4L1855.7 925L1883 898.6Z" fill="url(#paint52_linear_990_60)"/>
<path opacity="0.5" d="M1551 822.2L1446.4 721.3L1341.8 822.2L1369.2 848.6L1418.6 800.9V1293.6H1474.3V800.9L1523.7 848.6L1551 822.2Z" fill="url(#paint53_linear_990_60)"/>
<path opacity="0.5" d="M1297.2 882.4L1237.2 824.7L1177.3 882.4L1193 897.5L1221.3 870.2V1152.5H1253.2V870.2L1281.5 897.5L1297.2 882.4Z" fill="url(#paint54_linear_990_60)"/>
<path opacity="0.5" d="M998 889L931.4 824.7L864.7 889L882.1 905.8L913.6 875.5V1189.5H949.1V875.5L980.6 905.8L998 889Z" fill="url(#paint55_linear_990_60)"/>
<path opacity="0.5" d="M1628.4 866.1L1561.8 801.8L1495.1 866.1L1512.5 882.9L1544 852.6V1166.6H1579.5V852.6L1611 882.9L1628.4 866.1Z" fill="url(#paint56_linear_990_60)"/>
<path opacity="0.5" d="M1313.5 689.8L1222.6 602.2L1131.8 689.8L1155.5 712.7L1198.5 671.4V1099.3H1246.8V671.4L1289.7 712.7L1313.5 689.8Z" fill="url(#paint57_linear_990_60)"/>
<path d="M1561.8 684.8L1470.9 597.2L1380.1 684.8L1403.8 707.7L1446.7 666.3V1094.3H1495.1V666.3L1538 707.7L1561.8 684.8Z" fill="url(#paint58_linear_990_60)"/>
</g>
<mask id="mask1_990_60" style="mask-type:luminance" maskUnits="userSpaceOnUse" x="0" y="0" width="1920" height="1080">
<path d="M1920 0H0V1080H1920V0Z" fill="white"/>
</mask>
<g mask="url(#mask1_990_60)">
<g opacity="0.3">
<path d="M87.1996 -149.2H86.5996V1229.2H87.1996V-149.2Z" fill="white"/>
<path d="M193.4 -149.2H192.8V1229.2H193.4V-149.2Z" fill="white"/>
<path d="M299.6 -149.2H299V1229.2H299.6V-149.2Z" fill="white"/>
<path d="M405.8 -149.2H405.2V1229.2H405.8V-149.2Z" fill="white"/>
<path d="M512 -149.2H511.4V1229.2H512V-149.2Z" fill="white"/>
<path d="M618.3 -149.2H617.7V1229.2H618.3V-149.2Z" fill="white"/>
<path d="M724.5 -149.2H723.9V1229.2H724.5V-149.2Z" fill="white"/>
<path d="M830.7 -149.2H830.1V1229.2H830.7V-149.2Z" fill="white"/>
<path d="M936.9 -149.2H936.3V1229.2H936.9V-149.2Z" fill="white"/>
<path d="M1043.1 -149.2H1042.5V1229.2H1043.1V-149.2Z" fill="white"/>
<path d="M1149.3 -149.2H1148.7V1229.2H1149.3V-149.2Z" fill="white"/>
<path d="M1255.5 -149.2H1254.9V1229.2H1255.5V-149.2Z" fill="white"/>
<path d="M1361.8 -149.2H1361.2V1229.2H1361.8V-149.2Z" fill="white"/>
<path d="M1468 -149.2H1467.4V1229.2H1468V-149.2Z" fill="white"/>
<path d="M1574.2 -149.2H1573.6V1229.2H1574.2V-149.2Z" fill="white"/>
<path d="M1680.4 -149.2H1679.8V1229.2H1680.4V-149.2Z" fill="white"/>
<path d="M1786.6 -149.2H1786V1229.2H1786.6V-149.2Z" fill="white"/>
<path d="M1892.8 -149.2H1892.2V1229.2H1892.8V-149.2Z" fill="white"/>
<path d="M2058.1 78.8H-138V79.4H2058.1V78.8Z" fill="white"/>
<path d="M2058.1 181.2H-138V181.8H2058.1V181.2Z" fill="white"/>
<path d="M2058.1 283.6H-138V284.2H2058.1V283.6Z" fill="white"/>
<path d="M2058.1 386.1H-138V386.7H2058.1V386.1Z" fill="white"/>
<path d="M2058.1 488.5H-138V489.1H2058.1V488.5Z" fill="white"/>
<path d="M2058.1 590.9H-138V591.5H2058.1V590.9Z" fill="white"/>
<path d="M2058.1 693.3H-138V693.9H2058.1V693.3Z" fill="white"/>
<path d="M2058.1 795.7H-138V796.3H2058.1V795.7Z" fill="white"/>
<path d="M2058.1 898.2H-138V898.8H2058.1V898.2Z" fill="white"/>
<path d="M2058.1 1000.6H-138V1001.2H2058.1V1000.6Z" fill="white"/>
</g>
</g>
<mask id="mask2_990_60" style="mask-type:luminance" maskUnits="userSpaceOnUse" x="0" y="0" width="1920" height="1080">
<path d="M1920 0H0V1080H1920V0Z" fill="white"/>
</mask>
<g mask="url(#mask2_990_60)">
<path d="M35.5 946.4H25V1162H35.5V946.4Z" fill="url(#paint59_linear_990_60)"/>
<path d="M60.2002 932.1H49.7002V1162H60.2002V932.1Z" fill="url(#paint60_linear_990_60)"/>
<path d="M83.7998 956.5H73.2998V1162H83.7998V956.5Z" fill="url(#paint61_linear_990_60)"/>
<path d="M107 932.9H96.5V1162H107V932.9Z" fill="url(#paint62_linear_990_60)"/>
<path d="M131.2 918.5H120.7V1161.9H131.2V918.5Z" fill="url(#paint63_linear_990_60)"/>
<path d="M155.9 914.6H145.4V1162H155.9V914.6Z" fill="url(#paint64_linear_990_60)"/>
<path d="M179.4 956.5H168.9V1162H179.4V956.5Z" fill="url(#paint65_linear_990_60)"/>
<path d="M202.601 932.9H192.101V1162H202.601V932.9Z" fill="url(#paint66_linear_990_60)"/>
</g>
<mask id="mask3_990_60" style="mask-type:luminance" maskUnits="userSpaceOnUse" x="0" y="0" width="1920" height="1080">
<path d="M1920 0H0V1080H1920V0Z" fill="white"/>
</mask>
<g mask="url(#mask3_990_60)">
<path d="M228.7 946.4H218.2V1162H228.7V946.4Z" fill="url(#paint67_linear_990_60)"/>
<path d="M253.4 932.1H242.9V1162H253.4V932.1Z" fill="url(#paint68_linear_990_60)"/>
<path d="M276.9 956.5H266.4V1162H276.9V956.5Z" fill="url(#paint69_linear_990_60)"/>
<path d="M300.101 932.9H289.601V1162H300.101V932.9Z" fill="url(#paint70_linear_990_60)"/>
<path d="M324.4 977.8H313.9V1162H324.4V977.8Z" fill="url(#paint71_linear_990_60)"/>
<path d="M349 962.2H338.5V1162H349V962.2Z" fill="url(#paint72_linear_990_60)"/>
<path d="M372.601 985.6H362.101V1161.9H372.601V985.6Z" fill="url(#paint73_linear_990_60)"/>
<path d="M395.801 973.2H385.301V1162H395.801V973.2Z" fill="url(#paint74_linear_990_60)"/>
</g>
<mask id="mask4_990_60" style="mask-type:luminance" maskUnits="userSpaceOnUse" x="0" y="0" width="1920" height="1080">
<path d="M1920 0H0V1080H1920V0Z" fill="white"/>
</mask>
<g mask="url(#mask4_990_60)">
<path d="M425.4 996.6H414.9V1161.9H425.4V996.6Z" fill="url(#paint75_linear_990_60)"/>
<path d="M450.101 985.6H439.601V1161.9H450.101V985.6Z" fill="url(#paint76_linear_990_60)"/>
<path d="M473.601 1004.4H463.101V1162H473.601V1004.4Z" fill="url(#paint77_linear_990_60)"/>
<path d="M496.801 986.3H486.301V1162H496.801V986.3Z" fill="url(#paint78_linear_990_60)"/>
<path d="M521.101 985.4H510.601V1162H521.101V985.4Z" fill="url(#paint79_linear_990_60)"/>
<path d="M545.7 982.5H535.2V1162H545.7V982.5Z" fill="url(#paint80_linear_990_60)"/>
<path d="M569.301 1012.9H558.801V1162H569.301V1012.9Z" fill="url(#paint81_linear_990_60)"/>
<path d="M592.501 964.4H582.001V1162H592.501V964.4Z" fill="url(#paint82_linear_990_60)"/>
</g>
<mask id="mask5_990_60" style="mask-type:luminance" maskUnits="userSpaceOnUse" x="0" y="0" width="1920" height="1080">
<path d="M1920 0H0V1080H1920V0Z" fill="white"/>
</mask>
<g mask="url(#mask5_990_60)">
<path d="M612.9 942.7H602.4V1161.9H612.9V942.7Z" fill="url(#paint83_linear_990_60)"/>
<path d="M637.601 962.2H627.101V1162H637.601V962.2Z" fill="url(#paint84_linear_990_60)"/>
<path d="M661.101 907.8H650.601V1162H661.101V907.8Z" fill="url(#paint85_linear_990_60)"/>
<path d="M684.301 899.8H673.801V1162H684.301V899.8Z" fill="url(#paint86_linear_990_60)"/>
<path d="M708.601 866.2H698.101V1162H708.601V866.2Z" fill="url(#paint87_linear_990_60)"/>
<path d="M733.301 841.2H722.801V1162H733.301V841.2Z" fill="url(#paint88_linear_990_60)"/>
<path d="M756.801 878.9H746.301V1162H756.801V878.9Z" fill="url(#paint89_linear_990_60)"/>
<path d="M780.001 858.9H769.501V1162H780.001V858.9Z" fill="url(#paint90_linear_990_60)"/>
</g>
<mask id="mask6_990_60" style="mask-type:luminance" maskUnits="userSpaceOnUse" x="0" y="0" width="1920" height="1080">
<path d="M1920 0H0V1080H1920V0Z" fill="white"/>
</mask>
<g mask="url(#mask6_990_60)">
<path d="M809.6 871.8H799.1V1162H809.6V871.8Z" fill="url(#paint91_linear_990_60)"/>
<path d="M834.3 852.5H823.8V1162H834.3V852.5Z" fill="url(#paint92_linear_990_60)"/>
<path d="M857.8 885.4H847.3V1162H857.8V885.4Z" fill="url(#paint93_linear_990_60)"/>
<path d="M881 853.6H870.5V1162H881V853.6Z" fill="url(#paint94_linear_990_60)"/>
</g>
<defs>
<linearGradient id="paint0_linear_990_60" x1="84.3645" y1="741.66" x2="84.3645" y2="940.537" gradientUnits="userSpaceOnUse">
<stop stop-color="white"/>
<stop offset="1" stop-color="white"/>
</linearGradient>
<linearGradient id="paint1_linear_990_60" x1="84.3645" y1="741.66" x2="84.3645" y2="940.537" gradientUnits="userSpaceOnUse">
<stop stop-color="white"/>
<stop offset="1" stop-color="white"/>
</linearGradient>
<linearGradient id="paint2_linear_990_60" x1="123.582" y1="825.415" x2="123.582" y2="979.412" gradientUnits="userSpaceOnUse">
<stop stop-color="white"/>
<stop offset="1" stop-color="white"/>
</linearGradient>
<linearGradient id="paint3_linear_990_60" x1="123.582" y1="825.415" x2="123.582" y2="979.412" gradientUnits="userSpaceOnUse">
<stop stop-color="white"/>
<stop offset="1" stop-color="white"/>
</linearGradient>
<linearGradient id="paint4_linear_990_60" x1="184.368" y1="877.204" x2="184.368" y2="964.104" gradientUnits="userSpaceOnUse">
<stop stop-color="white"/>
<stop offset="1" stop-color="white"/>
</linearGradient>
<linearGradient id="paint5_linear_990_60" x1="184.368" y1="877.204" x2="184.368" y2="964.104" gradientUnits="userSpaceOnUse">
<stop stop-color="white"/>
<stop offset="1" stop-color="white"/>
</linearGradient>
<linearGradient id="paint6_linear_990_60" x1="223.912" y1="816.788" x2="223.912" y2="960.782" gradientUnits="userSpaceOnUse">
<stop stop-color="white"/>
<stop offset="1" stop-color="white"/>
</linearGradient>
<linearGradient id="paint7_linear_990_60" x1="223.912" y1="816.788" x2="223.912" y2="960.782" gradientUnits="userSpaceOnUse">
<stop stop-color="white"/>
<stop offset="1" stop-color="white"/>
</linearGradient>
<linearGradient id="paint8_linear_990_60" x1="278.162" y1="764.127" x2="278.162" y2="965.287" gradientUnits="userSpaceOnUse">
<stop stop-color="white"/>
<stop offset="1" stop-color="white"/>
</linearGradient>
<linearGradient id="paint9_linear_990_60" x1="278.162" y1="764.127" x2="278.162" y2="965.287" gradientUnits="userSpaceOnUse">
<stop stop-color="white"/>
<stop offset="1" stop-color="white"/>
</linearGradient>
<linearGradient id="paint10_linear_990_60" x1="438.625" y1="869.917" x2="438.625" y2="1031.9" gradientUnits="userSpaceOnUse">
<stop stop-color="white"/>
<stop offset="1" stop-color="white"/>
</linearGradient>
<linearGradient id="paint11_linear_990_60" x1="438.625" y1="869.917" x2="438.625" y2="1031.9" gradientUnits="userSpaceOnUse">
<stop stop-color="white"/>
<stop offset="1" stop-color="white"/>
</linearGradient>
<linearGradient id="paint12_linear_990_60" x1="386.335" y1="886.132" x2="386.335" y2="941.191" gradientUnits="userSpaceOnUse">
<stop stop-color="white"/>
<stop offset="1" stop-color="white"/>
</linearGradient>
<linearGradient id="paint13_linear_990_60" x1="386.335" y1="886.132" x2="386.335" y2="941.191" gradientUnits="userSpaceOnUse">
<stop stop-color="white"/>
<stop offset="1" stop-color="white"/>
</linearGradient>
<linearGradient id="paint14_linear_990_60" x1="334.209" y1="789.237" x2="334.209" y2="1090.35" gradientUnits="userSpaceOnUse">
<stop stop-color="white"/>
<stop offset="1" stop-color="white"/>
</linearGradient>
<linearGradient id="paint15_linear_990_60" x1="334.209" y1="789.237" x2="334.209" y2="1090.35" gradientUnits="userSpaceOnUse">
<stop stop-color="white"/>
<stop offset="1" stop-color="white"/>
</linearGradient>
<linearGradient id="paint16_linear_990_60" x1="38.2839" y1="861.64" x2="38.2839" y2="963.856" gradientUnits="userSpaceOnUse">
<stop stop-color="white"/>
<stop offset="1" stop-color="white"/>
</linearGradient>
<linearGradient id="paint17_linear_990_60" x1="38.2839" y1="861.64" x2="38.2839" y2="963.856" gradientUnits="userSpaceOnUse">
<stop stop-color="white"/>
<stop offset="1" stop-color="white"/>
</linearGradient>
<linearGradient id="paint18_linear_990_60" x1="765.76" y1="690.998" x2="765.76" y2="960.23" gradientUnits="userSpaceOnUse">
<stop stop-color="white"/>
<stop offset="1" stop-color="white"/>
</linearGradient>
<linearGradient id="paint19_linear_990_60" x1="765.76" y1="690.998" x2="765.76" y2="960.23" gradientUnits="userSpaceOnUse">
<stop stop-color="white"/>
<stop offset="1" stop-color="white"/>
</linearGradient>
<linearGradient id="paint20_linear_990_60" x1="703.666" y1="759.305" x2="703.666" y2="886.329" gradientUnits="userSpaceOnUse">
<stop stop-color="white"/>
<stop offset="1" stop-color="white"/>
</linearGradient>
<linearGradient id="paint21_linear_990_60" x1="703.666" y1="759.305" x2="703.666" y2="886.329" gradientUnits="userSpaceOnUse">
<stop stop-color="white"/>
<stop offset="1" stop-color="white"/>
</linearGradient>
<linearGradient id="paint22_linear_990_60" x1="960" y1="782.766" x2="960" y2="868.724" gradientUnits="userSpaceOnUse">
<stop stop-color="white"/>
<stop offset="1" stop-color="white"/>
</linearGradient>
<linearGradient id="paint23_linear_990_60" x1="960" y1="782.766" x2="960" y2="868.724" gradientUnits="userSpaceOnUse">
<stop stop-color="white"/>
<stop offset="1" stop-color="white"/>
</linearGradient>
<linearGradient id="paint24_linear_990_60" x1="1014.69" y1="657.042" x2="1014.69" y2="873.022" gradientUnits="userSpaceOnUse">
<stop stop-color="white"/>
<stop offset="1" stop-color="white"/>
</linearGradient>
<linearGradient id="paint25_linear_990_60" x1="1014.69" y1="657.042" x2="1014.69" y2="873.022" gradientUnits="userSpaceOnUse">
<stop stop-color="white"/>
<stop offset="1" stop-color="white"/>
</linearGradient>
<linearGradient id="paint26_linear_990_60" x1="568.694" y1="887.334" x2="568.694" y2="1034.35" gradientUnits="userSpaceOnUse">
<stop stop-color="white"/>
<stop offset="1" stop-color="white"/>
</linearGradient>
<linearGradient id="paint27_linear_990_60" x1="568.694" y1="887.334" x2="568.694" y2="1034.35" gradientUnits="userSpaceOnUse">
<stop stop-color="white"/>
<stop offset="1" stop-color="white"/>
</linearGradient>
<linearGradient id="paint28_linear_990_60" x1="644.187" y1="758.891" x2="644.187" y2="1001.39" gradientUnits="userSpaceOnUse">
<stop stop-color="white"/>
<stop offset="1" stop-color="white"/>
</linearGradient>
<linearGradient id="paint29_linear_990_60" x1="644.187" y1="758.891" x2="644.187" y2="1001.39" gradientUnits="userSpaceOnUse">
<stop stop-color="white"/>
<stop offset="1" stop-color="white"/>
</linearGradient>
<linearGradient id="paint30_linear_990_60" x1="826.547" y1="759.635" x2="826.547" y2="961.933" gradientUnits="userSpaceOnUse">
<stop stop-color="white"/>
<stop offset="1" stop-color="white"/>
</linearGradient>
<linearGradient id="paint31_linear_990_60" x1="826.547" y1="759.635" x2="826.547" y2="961.933" gradientUnits="userSpaceOnUse">
<stop stop-color="white"/>
<stop offset="1" stop-color="white"/>
</linearGradient>
<linearGradient id="paint32_linear_990_60" x1="902.693" y1="651.686" x2="902.693" y2="923.484" gradientUnits="userSpaceOnUse">
<stop stop-color="white"/>
<stop offset="1" stop-color="white"/>
</linearGradient>
<linearGradient id="paint33_linear_990_60" x1="902.693" y1="651.686" x2="902.693" y2="923.484" gradientUnits="userSpaceOnUse">
<stop stop-color="white"/>
<stop offset="1" stop-color="white"/>
</linearGradient>
<linearGradient id="paint34_linear_990_60" x1="1139.85" y1="499.312" x2="1139.85" y2="771.109" gradientUnits="userSpaceOnUse">
<stop stop-color="white"/>
<stop offset="1" stop-color="white"/>
</linearGradient>
<linearGradient id="paint35_linear_990_60" x1="1139.85" y1="499.312" x2="1139.85" y2="771.109" gradientUnits="userSpaceOnUse">
<stop stop-color="white"/>
<stop offset="1" stop-color="white"/>
</linearGradient>
<linearGradient id="paint36_linear_990_60" x1="1078.19" y1="549.755" x2="1078.19" y2="715.777" gradientUnits="userSpaceOnUse">
<stop stop-color="white"/>
<stop offset="1" stop-color="white"/>
</linearGradient>
<linearGradient id="paint37_linear_990_60" x1="1078.19" y1="549.755" x2="1078.19" y2="715.777" gradientUnits="userSpaceOnUse">
<stop stop-color="white"/>
<stop offset="1" stop-color="white"/>
</linearGradient>
<linearGradient id="paint38_linear_990_60" x1="498.43" y1="838.445" x2="498.43" y2="1086.88" gradientUnits="userSpaceOnUse">
<stop stop-color="white"/>
<stop offset="1" stop-color="white"/>
</linearGradient>
<linearGradient id="paint39_linear_990_60" x1="498.43" y1="838.445" x2="498.43" y2="1086.88" gradientUnits="userSpaceOnUse">
<stop stop-color="white"/>
<stop offset="1" stop-color="white"/>
</linearGradient>
<linearGradient id="paint40_linear_990_60" x1="503.66" y1="591.571" x2="503.66" y2="1410.93" gradientUnits="userSpaceOnUse">
<stop stop-color="white"/>
<stop offset="1" stop-color="white"/>
</linearGradient>
<linearGradient id="paint41_linear_990_60" x1="1341.83" y1="411.31" x2="1341.83" y2="1356.07" gradientUnits="userSpaceOnUse">
<stop stop-color="white"/>
<stop offset="1" stop-color="white"/>
</linearGradient>
<linearGradient id="paint42_linear_990_60" x1="1639.23" y1="515.68" x2="1639.23" y2="1201.4" gradientUnits="userSpaceOnUse">
<stop stop-color="white"/>
<stop offset="1" stop-color="white"/>
</linearGradient>
<linearGradient id="paint43_linear_990_60" x1="1639.23" y1="515.68" x2="1639.23" y2="1201.4" gradientUnits="userSpaceOnUse">
<stop stop-color="white"/>
<stop offset="1" stop-color="white"/>
</linearGradient>
<linearGradient id="paint44_linear_990_60" x1="1094.86" y1="824.739" x2="1094.86" y2="1510.46" gradientUnits="userSpaceOnUse">
<stop stop-color="white"/>
<stop offset="1" stop-color="white"/>
</linearGradient>
<linearGradient id="paint45_linear_990_60" x1="1094.86" y1="824.739" x2="1094.86" y2="1510.46" gradientUnits="userSpaceOnUse">
<stop stop-color="white"/>
<stop offset="1" stop-color="white"/>
</linearGradient>
<linearGradient id="paint46_linear_990_60" x1="931.353" y1="824.739" x2="931.353" y2="1261.81" gradientUnits="userSpaceOnUse">
<stop stop-color="white"/>
<stop offset="1" stop-color="white"/>
</linearGradient>
<linearGradient id="paint47_linear_990_60" x1="1561.78" y1="801.824" x2="1561.78" y2="1238.89" gradientUnits="userSpaceOnUse">
<stop stop-color="white"/>
<stop offset="1" stop-color="white"/>
</linearGradient>
<linearGradient id="paint48_linear_990_60" x1="1222.64" y1="602.221" x2="1222.64" y2="1197.83" gradientUnits="userSpaceOnUse">
<stop stop-color="white"/>
<stop offset="1" stop-color="white"/>
</linearGradient>
<linearGradient id="paint49_linear_990_60" x1="1470.92" y1="598.874" x2="1470.92" y2="1122.93" gradientUnits="userSpaceOnUse">
<stop stop-color="white"/>
<stop offset="1" stop-color="white"/>
</linearGradient>
<linearGradient id="paint50_linear_990_60" x1="1341.83" y1="411.31" x2="1341.83" y2="1356.07" gradientUnits="userSpaceOnUse">
<stop stop-color="white"/>
<stop offset="1" stop-color="white"/>
</linearGradient>
<linearGradient id="paint51_linear_990_60" x1="1778.45" y1="797.773" x2="1778.45" y2="1483.49" gradientUnits="userSpaceOnUse">
<stop stop-color="white"/>
<stop offset="1" stop-color="white"/>
</linearGradient>
<linearGradient id="paint52_linear_990_60" x1="1778.45" y1="797.773" x2="1778.45" y2="1483.49" gradientUnits="userSpaceOnUse">
<stop stop-color="white"/>
<stop offset="1" stop-color="white"/>
</linearGradient>
<linearGradient id="paint53_linear_990_60" x1="1446.43" y1="721.341" x2="1446.43" y2="1407.06" gradientUnits="userSpaceOnUse">
<stop stop-color="white"/>
<stop offset="1" stop-color="white"/>
</linearGradient>
<linearGradient id="paint54_linear_990_60" x1="1237.24" y1="824.653" x2="1237.24" y2="1217.44" gradientUnits="userSpaceOnUse">
<stop stop-color="white"/>
<stop offset="1" stop-color="white"/>
</linearGradient>
<linearGradient id="paint55_linear_990_60" x1="931.353" y1="824.739" x2="931.353" y2="1261.81" gradientUnits="userSpaceOnUse">
<stop stop-color="white"/>
<stop offset="1" stop-color="white"/>
</linearGradient>
<linearGradient id="paint56_linear_990_60" x1="1561.78" y1="801.824" x2="1561.78" y2="1238.89" gradientUnits="userSpaceOnUse">
<stop stop-color="white"/>
<stop offset="1" stop-color="white"/>
</linearGradient>
<linearGradient id="paint57_linear_990_60" x1="1222.64" y1="602.221" x2="1222.64" y2="1197.83" gradientUnits="userSpaceOnUse">
<stop stop-color="white"/>
<stop offset="1" stop-color="white"/>
</linearGradient>
<linearGradient id="paint58_linear_990_60" x1="1470.92" y1="598.874" x2="1470.92" y2="1122.93" gradientUnits="userSpaceOnUse">
<stop stop-color="white"/>
<stop offset="1" stop-color="white"/>
</linearGradient>
<linearGradient id="paint59_linear_990_60" x1="30.2774" y1="946.415" x2="30.2774" y2="1204.69" gradientUnits="userSpaceOnUse">
<stop stop-color="white"/>
<stop offset="1" stop-color="white"/>
</linearGradient>
<linearGradient id="paint60_linear_990_60" x1="54.9517" y1="932.076" x2="54.9517" y2="1207.54" gradientUnits="userSpaceOnUse">
<stop stop-color="white"/>
<stop offset="1" stop-color="white"/>
</linearGradient>
<linearGradient id="paint61_linear_990_60" x1="78.4815" y1="956.499" x2="78.4815" y2="1202.69" gradientUnits="userSpaceOnUse">
<stop stop-color="white"/>
<stop offset="1" stop-color="white"/>
</linearGradient>
<linearGradient id="paint62_linear_990_60" x1="101.685" y1="932.864" x2="101.685" y2="1207.38" gradientUnits="userSpaceOnUse">
<stop stop-color="white"/>
<stop offset="1" stop-color="white"/>
</linearGradient>
<linearGradient id="paint63_linear_990_60" x1="125.941" y1="918.525" x2="125.941" y2="1210.22" gradientUnits="userSpaceOnUse">
<stop stop-color="white"/>
<stop offset="1" stop-color="white"/>
</linearGradient>
<linearGradient id="paint64_linear_990_60" x1="150.615" y1="914.586" x2="150.615" y2="1211" gradientUnits="userSpaceOnUse">
<stop stop-color="white"/>
<stop offset="1" stop-color="white"/>
</linearGradient>
<linearGradient id="paint65_linear_990_60" x1="174.145" y1="956.499" x2="174.145" y2="1202.69" gradientUnits="userSpaceOnUse">
<stop stop-color="white"/>
<stop offset="1" stop-color="white"/>
</linearGradient>
<linearGradient id="paint66_linear_990_60" x1="197.349" y1="932.864" x2="197.349" y2="1207.38" gradientUnits="userSpaceOnUse">
<stop stop-color="white"/>
<stop offset="1" stop-color="white"/>
</linearGradient>
<linearGradient id="paint67_linear_990_60" x1="223.422" y1="946.415" x2="223.422" y2="1204.69" gradientUnits="userSpaceOnUse">
<stop stop-color="white"/>
<stop offset="1" stop-color="white"/>
</linearGradient>
<linearGradient id="paint68_linear_990_60" x1="248.096" y1="932.076" x2="248.096" y2="1207.54" gradientUnits="userSpaceOnUse">
<stop stop-color="white"/>
<stop offset="1" stop-color="white"/>
</linearGradient>
<linearGradient id="paint69_linear_990_60" x1="271.626" y1="956.499" x2="271.626" y2="1202.69" gradientUnits="userSpaceOnUse">
<stop stop-color="white"/>
<stop offset="1" stop-color="white"/>
</linearGradient>
<linearGradient id="paint70_linear_990_60" x1="294.829" y1="932.864" x2="294.829" y2="1207.38" gradientUnits="userSpaceOnUse">
<stop stop-color="white"/>
<stop offset="1" stop-color="white"/>
</linearGradient>
<linearGradient id="paint71_linear_990_60" x1="319.084" y1="977.771" x2="319.084" y2="1198.48" gradientUnits="userSpaceOnUse">
<stop stop-color="white"/>
<stop offset="1" stop-color="white"/>
</linearGradient>
<linearGradient id="paint72_linear_990_60" x1="343.758" y1="962.172" x2="343.758" y2="1201.57" gradientUnits="userSpaceOnUse">
<stop stop-color="white"/>
<stop offset="1" stop-color="white"/>
</linearGradient>
<linearGradient id="paint73_linear_990_60" x1="367.289" y1="985.649" x2="367.289" y2="1196.92" gradientUnits="userSpaceOnUse">
<stop stop-color="white"/>
<stop offset="1" stop-color="white"/>
</linearGradient>
<linearGradient id="paint74_linear_990_60" x1="390.493" y1="973.201" x2="390.493" y2="1199.38" gradientUnits="userSpaceOnUse">
<stop stop-color="white"/>
<stop offset="1" stop-color="white"/>
</linearGradient>
<linearGradient id="paint75_linear_990_60" x1="420.125" y1="996.647" x2="420.125" y2="1194.74" gradientUnits="userSpaceOnUse">
<stop stop-color="white"/>
<stop offset="1" stop-color="white"/>
</linearGradient>
<linearGradient id="paint76_linear_990_60" x1="444.799" y1="985.649" x2="444.799" y2="1196.92" gradientUnits="userSpaceOnUse">
<stop stop-color="white"/>
<stop offset="1" stop-color="white"/>
</linearGradient>
<linearGradient id="paint77_linear_990_60" x1="468.329" y1="1004.38" x2="468.329" y2="1193.2" gradientUnits="userSpaceOnUse">
<stop stop-color="white"/>
<stop offset="1" stop-color="white"/>
</linearGradient>
<linearGradient id="paint78_linear_990_60" x1="491.533" y1="986.254" x2="491.533" y2="1196.8" gradientUnits="userSpaceOnUse">
<stop stop-color="white"/>
<stop offset="1" stop-color="white"/>
</linearGradient>
<linearGradient id="paint79_linear_990_60" x1="515.788" y1="985.356" x2="515.788" y2="1196.97" gradientUnits="userSpaceOnUse">
<stop stop-color="white"/>
<stop offset="1" stop-color="white"/>
</linearGradient>
<linearGradient id="paint80_linear_990_60" x1="540.461" y1="982.498" x2="540.461" y2="1197.54" gradientUnits="userSpaceOnUse">
<stop stop-color="white"/>
<stop offset="1" stop-color="white"/>
</linearGradient>
<linearGradient id="paint81_linear_990_60" x1="563.992" y1="1012.91" x2="563.992" y2="1191.51" gradientUnits="userSpaceOnUse">
<stop stop-color="white"/>
<stop offset="1" stop-color="white"/>
</linearGradient>
<linearGradient id="paint82_linear_990_60" x1="587.196" y1="964.378" x2="587.196" y2="1201.13" gradientUnits="userSpaceOnUse">
<stop stop-color="white"/>
<stop offset="1" stop-color="white"/>
</linearGradient>
<linearGradient id="paint83_linear_990_60" x1="607.665" y1="942.721" x2="607.665" y2="1205.43" gradientUnits="userSpaceOnUse">
<stop stop-color="white"/>
<stop offset="1" stop-color="white"/>
</linearGradient>
<linearGradient id="paint84_linear_990_60" x1="632.339" y1="962.172" x2="632.339" y2="1201.57" gradientUnits="userSpaceOnUse">
<stop stop-color="white"/>
<stop offset="1" stop-color="white"/>
</linearGradient>
<linearGradient id="paint85_linear_990_60" x1="655.87" y1="907.808" x2="655.87" y2="1212.35" gradientUnits="userSpaceOnUse">
<stop stop-color="white"/>
<stop offset="1" stop-color="white"/>
</linearGradient>
<linearGradient id="paint86_linear_990_60" x1="679.073" y1="899.775" x2="679.073" y2="1213.94" gradientUnits="userSpaceOnUse">
<stop stop-color="white"/>
<stop offset="1" stop-color="white"/>
</linearGradient>
<linearGradient id="paint87_linear_990_60" x1="703.328" y1="866.206" x2="703.328" y2="1220.59" gradientUnits="userSpaceOnUse">
<stop stop-color="white"/>
<stop offset="1" stop-color="white"/>
</linearGradient>
<linearGradient id="paint88_linear_990_60" x1="728.002" y1="841.159" x2="728.002" y2="1225.56" gradientUnits="userSpaceOnUse">
<stop stop-color="white"/>
<stop offset="1" stop-color="white"/>
</linearGradient>
<linearGradient id="paint89_linear_990_60" x1="751.533" y1="878.857" x2="751.533" y2="1218.08" gradientUnits="userSpaceOnUse">
<stop stop-color="white"/>
<stop offset="1" stop-color="white"/>
</linearGradient>
<linearGradient id="paint90_linear_990_60" x1="774.736" y1="858.869" x2="774.736" y2="1222.05" gradientUnits="userSpaceOnUse">
<stop stop-color="white"/>
<stop offset="1" stop-color="white"/>
</linearGradient>
<linearGradient id="paint91_linear_990_60" x1="804.367" y1="871.806" x2="804.367" y2="1219.48" gradientUnits="userSpaceOnUse">
<stop stop-color="white"/>
<stop offset="1" stop-color="white"/>
</linearGradient>
<linearGradient id="paint92_linear_990_60" x1="829.042" y1="852.504" x2="829.042" y2="1223.31" gradientUnits="userSpaceOnUse">
<stop stop-color="white"/>
<stop offset="1" stop-color="white"/>
</linearGradient>
<linearGradient id="paint93_linear_990_60" x1="852.572" y1="885.381" x2="852.572" y2="1216.79" gradientUnits="userSpaceOnUse">
<stop stop-color="white"/>
<stop offset="1" stop-color="white"/>
</linearGradient>
<linearGradient id="paint94_linear_990_60" x1="875.775" y1="853.565" x2="875.775" y2="1223.1" gradientUnits="userSpaceOnUse">
<stop stop-color="white"/>
<stop offset="1" stop-color="white"/>
</linearGradient>
</defs>
</svg>
