<svg width="70" height="70" viewBox="0 0 70 70" fill="none" xmlns="http://www.w3.org/2000/svg">
<path d="M61.25 26.2501H8.75001C8.45993 26.2501 8.18173 26.1348 7.97661 25.9297C7.77149 25.7246 7.65626 25.4464 7.65626 25.1563V18.5938C7.65553 18.3703 7.72328 18.152 7.85038 17.9682C7.97749 17.7844 8.15785 17.6439 8.36719 17.5657L34.6172 7.72193C34.8649 7.63436 35.1351 7.63436 35.3828 7.72193L61.6328 17.5657C61.8422 17.6439 62.0225 17.7844 62.1496 17.9682C62.2767 18.152 62.3445 18.3703 62.3438 18.5938V25.1563C62.3438 25.4464 62.2285 25.7246 62.0234 25.9297C61.8183 26.1348 61.5401 26.2501 61.25 26.2501ZM9.84376 24.0626H60.1563V19.3485L35 9.92037L9.84376 19.3485V24.0626Z" fill="white"/>
<path d="M59.0625 30.625H10.9375C10.6474 30.625 10.3692 30.5098 10.1641 30.3046C9.95898 30.0995 9.84375 29.8213 9.84375 29.5312V25.1562C9.84375 24.8662 9.95898 24.588 10.1641 24.3829C10.3692 24.1777 10.6474 24.0625 10.9375 24.0625H59.0625C59.3526 24.0625 59.6308 24.1777 59.8359 24.3829C60.041 24.588 60.1562 24.8662 60.1562 25.1562V29.5312C60.1562 29.8213 60.041 30.0995 59.8359 30.3046C59.6308 30.5098 59.3526 30.625 59.0625 30.625ZM12.0312 28.4375H57.9688V26.25H12.0312V28.4375Z" fill="white"/>
<path d="M45.9922 59.0625H8.75C8.45992 59.0625 8.18172 58.9473 7.9766 58.7421C7.77148 58.537 7.65625 58.2588 7.65625 57.9688V52.5C7.65625 52.2099 7.77148 51.9317 7.9766 51.7266C8.18172 51.5215 8.45992 51.4062 8.75 51.4062H42.4266C42.6513 51.4063 42.8706 51.4757 43.0546 51.6049C43.2386 51.734 43.3783 51.9167 43.4547 52.1281C44.1496 54.0403 45.2719 55.7686 46.7359 57.1812C46.8988 57.3276 47.0141 57.5194 47.0667 57.732C47.1194 57.9445 47.107 58.168 47.0312 58.3734C46.9489 58.5805 46.8052 58.7574 46.6195 58.8805C46.4338 59.0037 46.215 59.0672 45.9922 59.0625ZM9.84375 56.875H43.5641C42.8097 55.8593 42.1782 54.7579 41.6828 53.5938H9.84375V56.875Z" fill="white"/>
<path d="M42.4266 53.5938H10.9375C10.6474 53.5938 10.3692 53.4785 10.1641 53.2734C9.95898 53.0683 9.84375 52.7901 9.84375 52.5V48.125C9.84375 47.8349 9.95898 47.5567 10.1641 47.3516C10.3692 47.1465 10.6474 47.0312 10.9375 47.0312H41.5625C41.8526 47.0312 42.1308 47.1465 42.3359 47.3516C42.541 47.5567 42.6562 47.8349 42.6562 48.125C42.7087 49.5065 42.9744 50.8715 43.4438 52.1719C43.5029 52.3362 43.5219 52.5123 43.4991 52.6855C43.4762 52.8586 43.4123 53.0238 43.3125 53.1672C43.2084 53.3025 43.074 53.4116 42.9202 53.4856C42.7663 53.5597 42.5973 53.5967 42.4266 53.5938ZM12.0312 51.4062H40.95C40.7641 50.688 40.6324 49.9568 40.5563 49.2188H12.0312V51.4062Z" fill="white"/>
<path d="M21.875 35H15.3125C14.4423 35 13.6077 34.6543 12.9923 34.0389C12.377 33.4236 12.0312 32.589 12.0312 31.7188V29.5312C12.0312 29.2412 12.1465 28.963 12.3516 28.7579C12.5567 28.5527 12.8349 28.4375 13.125 28.4375H24.0625C24.3526 28.4375 24.6308 28.5527 24.8359 28.7579C25.041 28.963 25.1562 29.2412 25.1562 29.5312V31.7188C25.1562 32.589 24.8105 33.4236 24.1952 34.0389C23.5798 34.6543 22.7452 35 21.875 35ZM14.2188 30.625V31.7188C14.2188 32.0088 14.334 32.287 14.5391 32.4921C14.7442 32.6973 15.0224 32.8125 15.3125 32.8125H21.875C22.1651 32.8125 22.4433 32.6973 22.6484 32.4921C22.8535 32.287 22.9688 32.0088 22.9688 31.7188V30.625H14.2188Z" fill="white"/>
<path d="M24.0625 49.2188H13.125C12.8349 49.2188 12.5567 49.1035 12.3516 48.8984C12.1465 48.6933 12.0313 48.4151 12.0313 48.125V45.9375C12.0312 45.0673 12.377 44.2327 12.9923 43.6173C13.6077 43.002 14.4423 42.6562 15.3125 42.6562H21.875C22.7452 42.6562 23.5798 43.002 24.1952 43.6173C24.8105 44.2327 25.1562 45.0673 25.1562 45.9375V48.125C25.1562 48.4151 25.041 48.6933 24.8359 48.8984C24.6308 49.1035 24.3526 49.2188 24.0625 49.2188ZM14.2188 47.0312H22.9688V45.9375C22.9688 45.6474 22.8535 45.3692 22.6484 45.1641C22.4433 44.959 22.1651 44.8438 21.875 44.8438H15.3125C15.0224 44.8438 14.7442 44.959 14.5391 45.1641C14.334 45.3692 14.2188 45.6474 14.2188 45.9375V47.0312Z" fill="white"/>
<path d="M21.875 44.8438H15.3125C15.0224 44.8438 14.7442 44.7285 14.5391 44.5234C14.334 44.3183 14.2188 44.0401 14.2188 43.75V33.9062C14.2188 33.6162 14.334 33.338 14.5391 33.1329C14.7442 32.9277 15.0224 32.8125 15.3125 32.8125H21.875C22.1651 32.8125 22.4433 32.9277 22.6484 33.1329C22.8535 33.338 22.9688 33.6162 22.9688 33.9062V43.75C22.9688 44.0401 22.8535 44.3183 22.6484 44.5234C22.4433 44.7285 22.1651 44.8438 21.875 44.8438ZM16.4062 42.6562H20.7812V35H16.4062V42.6562Z" fill="white"/>
<path d="M54.6875 35H48.125C47.2548 35 46.4202 34.6543 45.8048 34.0389C45.1895 33.4236 44.8438 32.589 44.8438 31.7188V29.5312C44.8438 29.2412 44.959 28.963 45.1641 28.7579C45.3692 28.5527 45.6474 28.4375 45.9375 28.4375H56.875C57.1651 28.4375 57.4433 28.5527 57.6484 28.7579C57.8535 28.963 57.9688 29.2412 57.9688 29.5312V31.7188C57.9688 32.589 57.623 33.4236 57.0077 34.0389C56.3923 34.6543 55.5577 35 54.6875 35ZM47.0312 30.625V31.7188C47.0312 32.0088 47.1465 32.287 47.3516 32.4921C47.5567 32.6973 47.8349 32.8125 48.125 32.8125H54.6875C54.9776 32.8125 55.2558 32.6973 55.4609 32.4921C55.666 32.287 55.7812 32.0088 55.7812 31.7188V30.625H47.0312Z" fill="white"/>
<path d="M54.6875 40.2938C54.5409 40.2935 54.3958 40.2637 54.2609 40.2062C53.2107 39.7571 52.21 39.2 51.275 38.5438C50.4303 39.153 49.525 39.6734 48.5734 40.0969C48.4075 40.1715 48.2256 40.2036 48.0442 40.1903C47.8628 40.1769 47.6875 40.1185 47.5344 40.0203C47.3803 39.9215 47.2536 39.7856 47.1657 39.6251C47.0778 39.4646 47.0316 39.2846 47.0312 39.1016V33.9062C47.0312 33.6162 47.1465 33.338 47.3516 33.1329C47.5567 32.9277 47.8349 32.8125 48.125 32.8125H54.6875C54.9776 32.8125 55.2558 32.9277 55.4609 33.1329C55.666 33.338 55.7812 33.6162 55.7812 33.9062V39.2C55.7803 39.3801 55.7349 39.5573 55.649 39.7156C55.5632 39.874 55.4395 40.0087 55.2891 40.1078C55.1111 40.2274 54.9019 40.2921 54.6875 40.2938ZM51.2641 36.0938C51.4987 36.0957 51.7273 36.1681 51.9203 36.3016L52.4453 36.6844C52.7969 36.9509 53.1619 37.1992 53.5391 37.4281V35H49.2188V37.2859C49.6924 36.9914 50.1489 36.67 50.5859 36.3234C50.7828 36.1786 51.0197 36.0983 51.2641 36.0938Z" fill="white"/>
<path d="M35 22.9688C33.9184 22.9688 32.8611 22.648 31.9617 22.0471C31.0624 21.4462 30.3615 20.5921 29.9475 19.5928C29.5336 18.5935 29.4253 17.4939 29.6363 16.4331C29.8473 15.3723 30.3682 14.3978 31.133 13.633C31.8978 12.8682 32.8723 12.3473 33.9331 12.1363C34.9939 11.9253 36.0935 12.0336 37.0928 12.4475C38.0921 12.8615 38.9462 13.5624 39.5471 14.4617C40.148 15.3611 40.4688 16.4184 40.4688 17.5C40.4688 18.9504 39.8926 20.3414 38.867 21.367C37.8414 22.3926 36.4504 22.9688 35 22.9688ZM35 14.2188C34.351 14.2188 33.7166 14.4112 33.177 14.7717C32.6374 15.1323 32.2169 15.6448 31.9685 16.2443C31.7202 16.8439 31.6552 17.5036 31.7818 18.1401C31.9084 18.7766 32.2209 19.3613 32.6798 19.8202C33.1387 20.2791 33.7234 20.5916 34.3599 20.7182C34.9964 20.8448 35.6561 20.7798 36.2557 20.5315C36.8553 20.2831 37.3677 19.8626 37.7283 19.323C38.0888 18.7834 38.2813 18.149 38.2813 17.5C38.2813 16.6298 37.9355 15.7952 37.3202 15.1798C36.7048 14.5645 35.8702 14.2188 35 14.2188Z" fill="white"/>
<path d="M51.4062 62.3439C51.2902 62.3605 51.1723 62.3605 51.0563 62.3439C48.842 61.6013 46.8237 60.3689 45.1516 58.7385C43.4795 57.108 42.1966 55.1215 41.3984 52.9267C40.8333 51.3863 40.5194 49.7651 40.4688 48.1251C40.4687 47.9501 40.4688 47.7423 40.4688 47.5454V40.4689C40.4688 40.1788 40.584 39.9006 40.7891 39.6955C40.9942 39.4903 41.2724 39.3751 41.5625 39.3751H41.7922C44.97 39.3764 48.0544 38.3007 50.5422 36.3235C50.7369 36.1846 50.9702 36.1099 51.2094 36.1099C51.4486 36.1099 51.6819 36.1846 51.8766 36.3235L52.4016 36.7064C53.2298 37.311 54.1253 37.8175 55.0703 38.2157C56.8696 38.9906 58.8097 39.3853 60.7688 39.3751H61.25C61.5401 39.3751 61.8183 39.4903 62.0234 39.6955C62.2285 39.9006 62.3438 40.1788 62.3438 40.4689V47.5892C62.347 50.8476 61.3268 54.0248 59.4271 56.6722C57.5274 59.3196 54.8442 61.3035 51.7562 62.3439C51.6402 62.3605 51.5223 62.3605 51.4062 62.3439ZM42.6562 41.5626V47.611C42.6562 47.7642 42.6562 47.9282 42.6562 48.0814C42.7527 50.7296 43.6367 53.289 45.1954 55.4321C46.7541 57.5753 48.9165 59.2049 51.4062 60.1126C53.229 59.4401 54.884 58.3798 56.2569 57.005C57.6298 55.6303 58.6878 53.9738 59.3578 52.1501C59.8856 50.6874 60.1557 49.1442 60.1562 47.5892V41.5626C58.1211 41.4847 56.1182 41.0284 54.25 40.2173C53.2044 39.7657 52.2076 39.2086 51.275 38.5548C50.4303 39.164 49.525 39.6845 48.5734 40.1079C46.7098 40.9598 44.7024 41.4533 42.6562 41.5626Z" fill="white"/>
<path d="M52.4162 54.9917C52.3242 54.9912 52.2333 54.9716 52.1491 54.9343C52.065 54.897 51.9893 54.8428 51.9269 54.7748L48.1945 50.7381C48.0699 50.6116 48 50.4408 48 50.2627C48 50.0847 48.0699 49.9138 48.1945 49.7873C48.3159 49.6733 48.4763 49.6106 48.6424 49.6122H50.492C50.8036 49.6067 51.1074 49.513 51.3685 49.3419C51.6296 49.1708 51.8375 48.9292 51.9683 48.6447H49.3059C49.1417 48.6263 48.9899 48.5476 48.8797 48.4237C48.7695 48.2999 48.7086 48.1395 48.7086 47.9733C48.7086 47.8071 48.7695 47.6468 48.8797 47.5229C48.9899 47.399 49.1417 47.3204 49.3059 47.3019H52.0098C51.8778 47.019 51.6694 46.7791 51.4083 46.6096C51.1473 46.44 50.8442 46.3476 50.5334 46.3428H48.6839C48.5196 46.3244 48.3679 46.2457 48.2577 46.1218C48.1475 45.998 48.0866 45.8376 48.0866 45.6714C48.0866 45.5052 48.1475 45.3448 48.2577 45.221C48.3679 45.0971 48.5196 45.0184 48.6839 45H54.4897C54.654 45.0184 54.8057 45.0971 54.9159 45.221C55.0261 45.3448 55.087 45.5052 55.087 45.6714C55.087 45.8376 55.0261 45.998 54.9159 46.1218C54.8057 46.2457 54.654 46.3244 54.4897 46.3428H53.0051C53.1975 46.635 53.3352 46.96 53.4115 47.3019H54.5063C54.6706 47.3204 54.8223 47.399 54.9325 47.5229C55.0427 47.6468 55.1036 47.8071 55.1036 47.9733C55.1036 48.1395 55.0427 48.2999 54.9325 48.4237C54.8223 48.5476 54.6706 48.6263 54.5063 48.6447H53.4198C53.2683 49.3007 52.9007 49.8859 52.3767 50.3053C51.8527 50.7247 51.2031 50.9536 50.5334 50.955H50.2183L52.947 53.9075C53.0711 54.0325 53.1408 54.202 53.1408 54.3787C53.1408 54.5554 53.0711 54.7248 52.947 54.8499C52.8732 54.9094 52.7879 54.9527 52.6965 54.9771C52.6051 55.0015 52.5096 55.0065 52.4162 54.9917Z" fill="white"/>
</svg>
