<svg width="70" height="70" viewBox="0 0 70 70" fill="none" xmlns="http://www.w3.org/2000/svg">
<path d="M35.0002 45.9376C39.0416 45.9333 42.9164 44.3263 45.7746 41.4691C48.6329 38.6119 50.2413 34.7377 50.2471 30.6962C50.2471 21.1587 36.4111 5.40875 35.8205 4.74156C35.7144 4.63106 35.587 4.54315 35.446 4.4831C35.3051 4.42305 35.1534 4.39209 35.0002 4.39209C34.847 4.39209 34.6953 4.42305 34.5544 4.4831C34.4134 4.54315 34.286 4.63106 34.1799 4.74156C33.5893 5.40875 19.7588 21.1478 19.7588 30.6962C19.7631 34.7372 21.3703 38.6114 24.2277 41.4687C27.0851 44.3261 30.9593 45.9333 35.0002 45.9376ZM35.0002 7.15328C37.9807 10.697 48.0596 23.2369 48.0596 30.6962C47.9896 34.1128 46.5833 37.3659 44.1423 39.7574C41.7014 42.1489 38.4202 43.4884 35.0029 43.4884C31.5856 43.4884 28.3045 42.1489 25.8635 39.7574C23.4225 37.3659 22.0162 34.1128 21.9463 30.6962C21.9463 23.2369 32.0197 10.697 35.0002 7.15328Z" fill="white"/>
<path d="M65.3628 50.154C65.1759 49.9336 64.9094 49.796 64.6215 49.7715C64.3336 49.7469 64.0476 49.8372 63.8261 50.0228C63.7003 50.1267 60.7198 52.5548 54.7972 51.9587C49.7659 51.4556 45.6042 47.8845 45.5659 47.8517C45.3579 47.6684 45.088 47.5709 44.8108 47.5791C44.5336 47.5872 44.2699 47.7003 44.0729 47.8955C44.0347 47.9337 39.9222 51.9533 35.0003 51.9533C30.0784 51.9533 25.9659 47.9337 25.9276 47.8955C25.7314 47.6995 25.468 47.5854 25.1909 47.5763C24.9137 47.5671 24.6434 47.6636 24.4347 47.8462C24.3964 47.8845 20.2456 51.4556 15.2034 51.9587C9.29716 52.5548 6.31122 50.1376 6.1745 50.0228C5.95279 49.8786 5.68633 49.8196 5.42446 49.8567C5.1626 49.8939 4.92307 50.0247 4.75023 50.2249C4.57738 50.4251 4.48294 50.6811 4.48439 50.9456C4.48584 51.2101 4.58308 51.4651 4.7581 51.6634C4.90575 51.7892 8.50419 54.797 15.4222 54.108C19.8683 53.665 23.5761 51.2314 25.1128 50.0775C26.655 51.4064 30.4558 54.1408 35.0003 54.1408C39.5448 54.1408 43.3456 51.4064 44.8878 50.1048C46.4245 51.2587 50.1323 53.6923 54.5784 54.1353C55.2893 54.2064 55.9675 54.2392 56.6073 54.2392C62.1964 54.2392 65.1112 51.8056 65.2425 51.6908C65.4613 51.5024 65.5968 51.2351 65.6193 50.9472C65.6419 50.6593 65.5496 50.3742 65.3628 50.154Z" fill="white"/>
<path d="M54.6875 59.6092C49.6945 59.6092 45.5383 56.574 45.4945 56.5467C45.3062 56.4073 45.0781 56.332 44.8438 56.332C44.6094 56.332 44.3813 56.4073 44.193 56.5467C44.1492 56.5795 39.993 59.6147 35 59.6147C30.007 59.6147 25.8508 56.5795 25.807 56.5522C25.6187 56.4128 25.3906 56.3375 25.1562 56.3375C24.9219 56.3375 24.6938 56.4128 24.5055 56.5522C24.4617 56.585 20.3055 59.6201 15.3125 59.6201C15.0224 59.6201 14.7442 59.7354 14.5391 59.9405C14.334 60.1456 14.2188 60.4238 14.2188 60.7139C14.2188 61.004 14.334 61.2822 14.5391 61.4873C14.7442 61.6924 15.0224 61.8076 15.3125 61.8076C19.857 61.8076 23.6742 59.6967 25.1562 58.7506C26.6383 59.6967 30.4555 61.8076 35 61.8076C39.5445 61.8076 43.3617 59.6967 44.8438 58.7506C46.3258 59.6967 50.143 61.8076 54.6875 61.8076C54.9776 61.8076 55.2558 61.6924 55.4609 61.4873C55.666 61.2822 55.7812 61.004 55.7812 60.7139C55.7812 60.4238 55.666 60.1456 55.4609 59.9405C55.2558 59.7354 54.9776 59.6201 54.6875 59.6201V59.6092Z" fill="white"/>
<path d="M36.4162 33.9917C36.3242 33.9912 36.2333 33.9716 36.1491 33.9343C36.065 33.897 35.9893 33.8428 35.9269 33.7748L32.1945 29.7381C32.0699 29.6116 32 29.4408 32 29.2627C32 29.0847 32.0699 28.9138 32.1945 28.7873C32.3159 28.6733 32.4763 28.6106 32.6424 28.6122H34.492C34.8036 28.6067 35.1074 28.513 35.3685 28.3419C35.6296 28.1708 35.8375 27.9292 35.9683 27.6447H33.3059C33.1417 27.6263 32.9899 27.5476 32.8797 27.4237C32.7695 27.2999 32.7086 27.1395 32.7086 26.9733C32.7086 26.8071 32.7695 26.6468 32.8797 26.5229C32.9899 26.399 33.1417 26.3204 33.3059 26.3019H36.0098C35.8778 26.019 35.6694 25.7791 35.4083 25.6096C35.1473 25.44 34.8442 25.3476 34.5334 25.3428H32.6839C32.5196 25.3244 32.3679 25.2457 32.2577 25.1218C32.1475 24.998 32.0866 24.8376 32.0866 24.6714C32.0866 24.5052 32.1475 24.3448 32.2577 24.221C32.3679 24.0971 32.5196 24.0184 32.6839 24H38.4897C38.654 24.0184 38.8057 24.0971 38.9159 24.221C39.0261 24.3448 39.087 24.5052 39.087 24.6714C39.087 24.8376 39.0261 24.998 38.9159 25.1218C38.8057 25.2457 38.654 25.3244 38.4897 25.3428H37.0051C37.1975 25.635 37.3352 25.96 37.4115 26.3019H38.5063C38.6706 26.3204 38.8223 26.399 38.9325 26.5229C39.0427 26.6468 39.1036 26.8071 39.1036 26.9733C39.1036 27.1395 39.0427 27.2999 38.9325 27.4237C38.8223 27.5476 38.6706 27.6263 38.5063 27.6447H37.4198C37.2683 28.3007 36.9007 28.8859 36.3767 29.3053C35.8527 29.7247 35.2031 29.9536 34.5334 29.955H34.2183L36.947 32.9075C37.0711 33.0325 37.1408 33.202 37.1408 33.3787C37.1408 33.5554 37.0711 33.7248 36.947 33.8499C36.8732 33.9094 36.7879 33.9527 36.6965 33.9771C36.6051 34.0015 36.5096 34.0065 36.4162 33.9917Z" fill="white"/>
</svg>
