<svg width="70" height="70" viewBox="0 0 70 70" fill="none" xmlns="http://www.w3.org/2000/svg">
<path d="M66.3479 52.786C67.3979 50.6491 67.9488 48.292 67.9488 45.9077C67.9488 39.3698 61.5477 32.4203 56.8732 27.3453C56.6162 27.0678 56.3687 26.7971 56.1268 26.5332V23.643C57.4051 21.5225 58.1215 19.1641 58.3102 16.4393C58.3307 16.144 58.1898 15.861 57.9424 15.6969C55.0412 13.787 51.6793 12.9612 47.9523 13.2428C47.7281 13.2592 47.5217 13.3672 47.3795 13.5409C47.2373 13.7145 47.173 13.9387 47.2004 14.1616C47.2578 14.625 47.3289 15.083 47.4123 15.5383C45.9658 15.3032 44.5002 15.7489 42.9689 16.8836C42.6641 17.1092 42.5533 17.5166 42.7037 17.8653C43.6689 20.1198 45.0307 22.1036 46.7519 23.7661V26.5332C46.51 26.7971 46.2611 27.0664 46.0055 27.3453C45.0389 28.3953 43.9971 29.526 42.9539 30.7168V26.5428C42.9539 26.1463 42.6709 25.8073 42.2812 25.7362L32.7068 23.993V5.57152C32.7068 5.16273 32.4047 4.81547 32 4.75941L13.2326 2.13578C12.9988 2.10297 12.7596 2.17406 12.5805 2.32992C12.4014 2.48578 12.2988 2.71136 12.2988 2.94925V26.3104L2.72441 28.0536C2.33477 28.1246 2.05176 28.4637 2.05176 28.8602V50.5629V67.0471C2.05176 67.4996 2.41953 67.8674 2.87207 67.8674H37.6779L55.1971 67.8729H55.1984C57.3928 67.8729 61.2879 66.1571 64.1904 62.9756C65.8502 61.1559 67.7547 58.1905 67.4033 54.391C67.335 53.691 66.9439 53.1141 66.3479 52.786ZM56.634 16.8098C56.4248 18.9782 55.8369 20.8786 54.843 22.5944H51.8885C50.3777 20.2004 49.4125 17.6506 48.9545 14.8356C51.7887 14.7686 54.3672 15.4303 56.634 16.8098ZM54.4861 24.2364V26.175H48.3912V24.2364H54.4861ZM44.4879 17.8325C45.6828 17.0901 46.7396 16.937 47.8184 17.343C48.3133 19.1846 49.0352 20.9401 49.9771 22.5957H47.9045C46.4936 21.234 45.3451 19.6371 44.4879 17.8325ZM47.2113 28.4582C47.4137 28.2395 47.6092 28.0262 47.802 27.8157H55.0768C55.2695 28.0262 55.465 28.2381 55.6674 28.4582C59.9043 33.0588 66.3082 40.011 66.3082 45.909C66.3082 48.225 65.7271 50.511 64.6252 52.5494C63.865 52.7121 63.2088 53.2125 62.8875 53.9371C61.7268 56.5444 59.65 59.6534 56.3428 59.6534H46.7492C46.2461 59.6534 45.8373 59.2446 45.8373 58.7414C45.8373 58.3299 46.2201 58.0127 46.9734 57.7981L50.2451 56.867C52.7334 56.1588 53.1039 54.6508 53.1039 53.8141C53.1039 52.1133 51.7203 50.7297 50.0195 50.7297H47.7555C47.7486 50.7297 47.7418 50.7297 47.735 50.7297C44.8201 50.8022 41.9408 51.6731 38.7854 53.4491C37.3348 51.185 36.5691 48.5942 36.5691 45.9077C36.5705 40.011 42.9744 33.0575 47.2113 28.4582ZM37.5795 37.8481C37.3307 38.2651 37.0941 38.6848 36.8727 39.1059H35.5396V37.0661H37.5795V37.8481ZM41.3119 32.6473C40.5039 33.6303 39.7191 34.6448 38.9904 35.6797C38.8414 35.5239 38.6309 35.4254 38.3984 35.4254H34.718C34.2654 35.4254 33.8977 35.7932 33.8977 36.2457V39.9262C33.8977 40.3787 34.2654 40.7465 34.718 40.7465H36.0934C35.366 42.4678 34.9299 44.2014 34.9299 45.9077C34.9299 48.8567 35.7543 51.7004 37.3184 54.1955L25.0027 52.6V24.2582L41.3133 27.2278V32.6473H41.3119ZM13.9395 3.89125L31.0648 6.28519V23.6936L24.3287 22.4672C24.0895 22.4235 23.8434 22.4891 23.6561 22.645C23.4688 22.8008 23.3607 23.0319 23.3607 23.2752V52.3895L21.6408 52.1666V25.5899C21.6408 25.3465 21.5328 25.1155 21.3455 24.9596C21.1582 24.8037 20.9135 24.7395 20.6729 24.7819L13.9367 26.0082V3.89125H13.9395ZM20.0016 26.5743V51.9534L3.69102 49.841V29.5438L20.0016 26.5743ZM3.69102 51.4953L31.1482 55.0514V66.2268H3.69102V51.4953ZM36.8563 66.2268H32.7889V55.2633L36.8563 55.7897V66.2268ZM62.975 61.8696C60.5168 64.5643 57.0236 66.2323 55.1957 66.2323H55.1943L38.4955 66.2268V55.5258C41.8506 53.4532 44.8064 52.4455 47.7664 52.3703H50.0195C50.8152 52.3703 51.4633 53.0184 51.4633 53.8141C51.4633 54.4772 50.9027 54.9735 49.7953 55.2879L46.5236 56.219C44.4975 56.7946 44.1953 58.0455 44.1953 58.7401C44.1953 60.1469 45.341 61.2926 46.7478 61.2926H56.3414C59.6568 61.2926 62.4377 58.9793 64.3846 54.6016C64.5596 54.2092 64.9916 54.0889 65.3211 54.1436C65.5098 54.175 65.7408 54.2694 65.7654 54.5428C66.0621 57.7448 64.4119 60.2946 62.975 61.8696ZM6.53203 40.0328H10.2125C10.665 40.0328 11.0328 39.6651 11.0328 39.2125V35.5334C11.0328 35.0809 10.665 34.7131 10.2125 34.7131H6.53203C6.07949 34.7131 5.71172 35.0809 5.71172 35.5334V39.2139C5.71172 39.6664 6.07812 40.0328 6.53203 40.0328ZM7.35234 36.3537H9.39219V38.3936H7.35234V36.3537ZM13.4801 40.0328H17.1605C17.6131 40.0328 17.9809 39.6651 17.9809 39.2125V35.5334C17.9809 35.0809 17.6131 34.7131 17.1605 34.7131H13.4801C13.0275 34.7131 12.6598 35.0809 12.6598 35.5334V39.2139C12.6598 39.6664 13.0275 40.0328 13.4801 40.0328ZM14.3004 36.3537H16.3402V38.3936H14.3004V36.3537ZM6.53203 47.3077H10.2125C10.665 47.3077 11.0328 46.9399 11.0328 46.4873V42.8069C11.0328 42.3543 10.665 41.9866 10.2125 41.9866H6.53203C6.07949 41.9866 5.71172 42.3543 5.71172 42.8069V46.4873C5.71172 46.9399 6.07812 47.3077 6.53203 47.3077ZM7.35234 43.6286H9.39219V45.6684H7.35234V43.6286ZM13.4801 47.3077H17.1605C17.6131 47.3077 17.9809 46.9399 17.9809 46.4873V42.8069C17.9809 42.3543 17.6131 41.9866 17.1605 41.9866H13.4801C13.0275 41.9866 12.6598 42.3543 12.6598 42.8069V46.4873C12.6598 46.9399 13.0275 47.3077 13.4801 47.3077ZM14.3004 43.6286H16.3402V45.6684H14.3004V43.6286ZM17.0416 13.7719H20.7221C21.1746 13.7719 21.5424 13.4041 21.5424 12.9516V9.27113C21.5424 8.81859 21.1746 8.45082 20.7221 8.45082H17.0416C16.5891 8.45082 16.2213 8.81859 16.2213 9.27113V12.9516C16.2213 13.4041 16.5891 13.7719 17.0416 13.7719ZM17.8619 10.0914H19.9018V12.1313H17.8619V10.0914ZM23.991 13.7719H27.6715C28.124 13.7719 28.4918 13.4041 28.4918 12.9516V9.27113C28.4918 8.81859 28.124 8.45082 27.6715 8.45082H23.991C23.5385 8.45082 23.1707 8.81859 23.1707 9.27113V12.9516C23.1707 13.4041 23.5371 13.7719 23.991 13.7719ZM24.8113 10.0914H26.8512V12.1313H24.8113V10.0914ZM21.5424 19.9912V16.3108C21.5424 15.8582 21.1746 15.4905 20.7221 15.4905H17.0416C16.5891 15.4905 16.2213 15.8582 16.2213 16.3108V19.9912C16.2213 20.4438 16.5891 20.8116 17.0416 20.8116H20.7221C21.1746 20.8116 21.5424 20.4452 21.5424 19.9912ZM19.9018 19.1709H17.8619V17.1311H19.9018V19.1709ZM27.7699 33.4717H31.4504C31.9029 33.4717 32.2707 33.1039 32.2707 32.6514V28.9709C32.2707 28.5184 31.9029 28.1506 31.4504 28.1506H27.7699C27.3174 28.1506 26.9496 28.5184 26.9496 28.9709V32.6514C26.9496 33.1039 27.3174 33.4717 27.7699 33.4717ZM28.5902 29.7912H30.6301V31.8311H28.5902V29.7912ZM34.7193 33.4717H38.3998C38.8523 33.4717 39.2201 33.1039 39.2201 32.6514V28.9709C39.2201 28.5184 38.8523 28.1506 38.3998 28.1506H34.7193C34.2668 28.1506 33.899 28.5184 33.899 28.9709V32.6514C33.899 33.1039 34.2668 33.4717 34.7193 33.4717ZM35.5396 29.7912H37.5795V31.8311H35.5396V29.7912ZM27.7699 40.7465H31.4504C31.9029 40.7465 32.2707 40.3787 32.2707 39.9262V36.2457C32.2707 35.7932 31.9029 35.4254 31.4504 35.4254H27.7699C27.3174 35.4254 26.9496 35.7932 26.9496 36.2457V39.9262C26.9496 40.3787 27.3174 40.7465 27.7699 40.7465ZM28.5902 37.0661H30.6301V39.1059H28.5902V37.0661ZM27.7699 48.1321H31.4504C31.9029 48.1321 32.2707 47.7643 32.2707 47.3118V43.6313C32.2707 43.1787 31.9029 42.811 31.4504 42.811H27.7699C27.3174 42.811 26.9496 43.1787 26.9496 43.6313V47.3118C26.9496 47.7657 27.3174 48.1321 27.7699 48.1321ZM28.5902 44.453H30.6301V46.4928H28.5902V44.453ZM23.991 20.8116H27.6715C28.124 20.8116 28.4918 20.4438 28.4918 19.9912V16.3108C28.4918 15.8582 28.124 15.4905 27.6715 15.4905H23.991C23.5385 15.4905 23.1707 15.8582 23.1707 16.3108V19.9912C23.1707 20.4452 23.5371 20.8116 23.991 20.8116ZM24.8113 17.1325H26.8512V19.1723H24.8113V17.1325Z" fill="white"/>
<path d="M52.4459 48.2547C52.3607 48.2542 52.2766 48.2362 52.1986 48.2016C52.1206 48.1671 52.0505 48.1168 51.9927 48.0539L48.5356 44.3149C48.4202 44.1977 48.3555 44.0395 48.3555 43.8746C48.3555 43.7097 48.4202 43.5514 48.5356 43.4342C48.6481 43.3286 48.7966 43.2705 48.9505 43.272H50.6636C50.9523 43.2669 51.2336 43.1801 51.4755 43.0216C51.7173 42.8632 51.9099 42.6394 52.0311 42.3759H49.5651C49.4129 42.3588 49.2724 42.2859 49.1703 42.1712C49.0682 42.0565 49.0118 41.908 49.0118 41.754C49.0118 41.6001 49.0682 41.4515 49.1703 41.3368C49.2724 41.2221 49.4129 41.1492 49.5651 41.1321H52.0695C51.9472 40.8701 51.7542 40.6479 51.5124 40.4909C51.2706 40.3338 50.9899 40.2482 50.7021 40.2438H48.9889C48.8367 40.2267 48.6962 40.1538 48.5941 40.0391C48.4921 39.9243 48.4356 39.7758 48.4356 39.6219C48.4356 39.4679 48.4921 39.3194 48.5941 39.2047C48.6962 39.0899 48.8367 39.0171 48.9889 39H54.3665C54.5187 39.0171 54.6592 39.0899 54.7613 39.2047C54.8634 39.3194 54.9198 39.4679 54.9198 39.6219C54.9198 39.7758 54.8634 39.9243 54.7613 40.0391C54.6592 40.1538 54.5187 40.2267 54.3665 40.2438H52.9914C53.1696 40.5144 53.2972 40.8154 53.3678 41.1321H54.3819C54.534 41.1492 54.6746 41.2221 54.7767 41.3368C54.8787 41.4515 54.9351 41.6001 54.9351 41.754C54.9351 41.908 54.8787 42.0565 54.7767 42.1712C54.6746 42.2859 54.534 42.3588 54.3819 42.3759H53.3755C53.2352 42.9835 52.8947 43.5255 52.4094 43.914C51.924 44.3024 51.3224 44.5145 50.7021 44.5158H50.4101L52.9376 47.2505C53.0526 47.3663 53.1171 47.5233 53.1171 47.6869C53.1171 47.8506 53.0526 48.0076 52.9376 48.1234C52.8693 48.1785 52.7902 48.2186 52.7056 48.2412C52.6209 48.2638 52.5325 48.2684 52.4459 48.2547Z" fill="white"/>
</svg>
