<svg width="70" height="70" viewBox="0 0 70 70" fill="none" xmlns="http://www.w3.org/2000/svg">
<path d="M34.9993 66.5002C20.4108 66.5002 8.54199 54.6314 8.54199 40.0424C8.54199 25.4537 20.4108 13.585 34.9993 13.585C49.5885 13.585 61.4572 25.4539 61.4572 40.0424C61.4572 54.6314 49.5885 66.5002 34.9993 66.5002ZM34.9993 15.7687C21.6148 15.7687 10.7256 26.6577 10.7256 40.0424C10.7256 53.427 21.6148 64.3166 34.9993 64.3166C48.384 64.3166 59.2737 53.427 59.2737 40.0424C59.2737 26.6577 48.384 15.7687 34.9993 15.7687Z" fill="white"/>
<path d="M28.3956 16.6418C28.158 16.6418 27.9238 16.5641 27.7314 16.4167C27.4618 16.2099 27.3037 15.8896 27.3037 15.5499V9.34416C27.3037 8.74118 27.7925 8.25244 28.3956 8.25244H41.603C42.2062 8.25244 42.6949 8.74118 42.6949 9.34416V15.5498C42.6949 15.8894 42.5367 16.2098 42.2675 16.4165C41.9983 16.6235 41.6478 16.6925 41.3194 16.6041C37.1933 15.4953 32.8042 15.4945 28.6789 16.6041C28.5858 16.6293 28.4902 16.6418 28.3956 16.6418ZM34.9991 13.5845C36.8506 13.5845 38.6987 13.7795 40.5113 14.1645V10.4362H29.4873V14.1646C31.2996 13.7795 33.1476 13.5845 34.9991 13.5845Z" fill="white"/>
<path d="M42.8559 10.4363H27.1432C25.2308 10.4363 23.6748 8.88034 23.6748 6.96794C23.6748 5.05596 25.2306 3.5 27.1432 3.5H42.8561C44.768 3.5 46.324 5.05596 46.324 6.96794C46.3239 8.88034 44.768 10.4363 42.8559 10.4363ZM27.1432 5.68372C26.4348 5.68372 25.8585 6.25996 25.8585 6.96794C25.8585 7.67634 26.4348 8.25258 27.1432 8.25258H42.8561C43.564 8.25258 44.1403 7.67634 44.1403 6.96794C44.1403 6.25996 43.564 5.68372 42.8561 5.68372H27.1432Z" fill="white"/>
<path d="M34.9989 27.6314C34.396 27.6314 33.9072 27.1426 33.9072 26.5396V22.8111C33.9072 22.208 34.396 21.7192 34.9989 21.7192C35.6021 21.7192 36.0908 22.208 36.0908 22.8111V26.5396C36.0908 27.1426 35.6021 27.6314 34.9989 27.6314Z" fill="white"/>
<path d="M44.5469 31.5862C44.2676 31.5862 43.9881 31.4795 43.7749 31.2663C43.3485 30.8397 43.3485 30.1488 43.7749 29.7222L46.4112 27.086C46.8378 26.6595 47.5287 26.6595 47.955 27.086C48.3816 27.5125 48.3816 28.2034 47.955 28.63L45.3188 31.2663C45.1056 31.4797 44.8263 31.5862 44.5469 31.5862Z" fill="white"/>
<path d="M52.2301 41.1338H48.502C47.899 41.1338 47.4102 40.645 47.4102 40.0421C47.4102 39.4389 47.899 38.9502 48.502 38.9502H52.2301C52.8332 38.9502 53.3219 39.4389 53.3219 40.0421C53.3219 40.645 52.8332 41.1338 52.2301 41.1338Z" fill="white"/>
<path d="M47.1832 53.3186C46.9038 53.3186 46.6245 53.212 46.4112 52.9987L43.7749 50.3624C43.3485 49.936 43.3485 49.2449 43.7749 48.8185C44.2015 48.3919 44.8924 48.3919 45.319 48.8185L47.9552 51.4547C48.3817 51.8813 48.3817 52.5722 47.9552 52.9987C47.7419 53.2121 47.4625 53.3186 47.1832 53.3186Z" fill="white"/>
<path d="M34.9989 58.3652C34.396 58.3652 33.9072 57.8764 33.9072 57.2735V53.5448C33.9072 52.9419 34.396 52.4531 34.9989 52.4531C35.6021 52.4531 36.0908 52.9419 36.0908 53.5448V57.2735C36.0908 57.8764 35.6021 58.3652 34.9989 58.3652Z" fill="white"/>
<path d="M22.8154 53.3186C22.5361 53.3186 22.2567 53.212 22.0435 52.9987C21.617 52.5722 21.617 51.8813 22.0435 51.4547L24.6798 48.8185C25.1064 48.3919 25.7973 48.3919 26.2237 48.8185C26.6503 49.2449 26.6503 49.936 26.2237 50.3624L23.5875 52.9987C23.3742 53.2121 23.0949 53.3186 22.8154 53.3186Z" fill="white"/>
<path d="M21.4967 41.1338H17.7686C17.1655 41.1338 16.6768 40.645 16.6768 40.0421C16.6768 39.4389 17.1655 38.9502 17.7686 38.9502H21.4967C22.0997 38.9502 22.5884 39.4389 22.5884 40.0421C22.5885 40.645 22.0998 41.1338 21.4967 41.1338Z" fill="white"/>
<path d="M25.4518 31.5862C25.1723 31.5862 24.893 31.4795 24.6798 31.2663L22.0435 28.63C21.617 28.2034 21.617 27.5125 22.0435 27.086C22.47 26.6595 23.1609 26.6595 23.5875 27.086L26.2237 29.7222C26.6503 30.1488 26.6503 30.8397 26.2237 31.2663C26.0105 31.4797 25.7312 31.5862 25.4518 31.5862Z" fill="white"/>
<path d="M34.9997 62.1111C29.105 62.1111 23.5629 59.8158 19.3947 55.647C10.7903 47.0426 10.7903 33.0416 19.3947 24.437C27.9991 15.8317 42.0005 15.8327 50.6048 24.437C54.7733 28.6052 57.0688 34.1474 57.0688 40.0421C57.0688 45.9372 54.7734 51.4788 50.6048 55.647C46.4366 59.8158 40.8949 62.1111 34.9997 62.1111ZM34.9997 20.1665C29.9073 20.1665 24.8161 22.1041 20.9386 25.981C13.1856 33.7345 13.1856 46.35 20.9386 54.1031C24.6948 57.8589 29.6885 59.9275 34.9997 59.9275C40.3114 59.9275 45.3049 57.859 49.0608 54.1031C52.8168 50.3472 54.8853 45.3538 54.8853 40.0421C54.8853 34.7307 52.8168 29.7372 49.0608 25.9809C45.1847 22.1048 40.0915 20.1665 34.9997 20.1665Z" fill="white"/>
<path d="M44.2073 41.1341H34.9989C34.396 41.1341 33.9072 40.6453 33.9072 40.0423V30.8344C33.9072 30.2314 34.396 29.7427 34.9989 29.7427C37.7504 29.7427 40.3367 30.8141 42.282 32.7593C44.2277 34.7046 45.2992 37.2913 45.2992 40.0423C45.2992 40.6453 44.8103 41.1341 44.2073 41.1341ZM36.0908 38.9503H43.0429C42.8087 37.1966 42.0108 35.5758 40.738 34.3032C39.4654 33.0309 37.845 32.2329 36.0908 31.9986V38.9503Z" fill="white"/>
</svg>
