<svg width="70" height="70" viewBox="0 0 70 70" fill="none" xmlns="http://www.w3.org/2000/svg">
<path d="M52.6261 12.096C54.6841 20.622 53.3541 29.624 48.9021 37.198C54.2921 36.974 60.6761 41.384 63.1541 45.892C65.9681 36.19 64.6101 27.552 60.7041 20.888C58.6461 17.346 55.8741 14.378 52.6261 12.096ZM46.5221 37.352C51.5481 29.568 52.9481 19.95 50.3301 11.06C41.3141 13.244 33.6981 19.25 29.4561 27.496C30.1421 27.3 30.8701 27.188 31.6121 27.16C33.5861 27.062 35.7141 27.524 37.7301 28.378C38.8081 28.784 40.7261 29.904 41.6221 30.618C43.3721 31.948 44.8281 33.558 45.7521 35.322C46.0741 35.966 46.3401 36.652 46.5221 37.352ZM51.4501 9.03002L52.5001 9.66002L54.6421 5.95002C55.0621 5.22202 54.4041 4.27002 53.5361 4.50802C53.2841 4.57802 53.0741 4.73202 52.9341 4.97002L50.7921 8.66602C51.0161 8.77802 51.2401 8.90402 51.4501 9.03002ZM27.2861 27.986C27.1321 27.342 26.9781 26.894 26.6701 26.306C25.5501 24.15 23.3381 22.372 20.8741 21.14C18.3821 19.894 15.6661 19.236 13.5381 19.334C12.7121 19.376 11.9981 19.53 11.4521 19.81C10.5141 20.3 9.57613 19.124 10.2481 18.312C18.0601 8.97402 27.6081 4.98402 36.5961 5.04002C40.9501 5.06802 45.1781 6.03402 49.0141 7.81202L51.1981 4.06002C51.9821 2.57602 53.9841 2.08602 55.3281 2.96802C56.7001 3.83602 57.1201 5.57202 56.3361 6.94402L54.1241 10.78C57.4421 13.188 60.2701 16.268 62.3981 19.908C66.9481 27.678 68.2641 37.94 64.0781 49.364C63.7141 50.358 62.2301 50.148 62.1881 49.056C62.1601 48.454 61.9361 47.768 61.5581 47.04C59.2481 42.574 51.4081 37.212 46.2421 39.872C45.6261 40.194 44.8421 39.774 44.8141 39.018C44.7161 36.666 43.0501 34.398 41.2581 32.83L28.4341 55.02H30.7161C31.2621 55.02 31.6961 55.454 31.6961 56V59.458C32.8861 60.41 33.1801 62.146 32.3821 63.406C30.7581 66.164 28.1821 67.06 25.7601 66.71C23.2541 66.346 20.9301 64.624 19.9921 62.258H4.78813C4.24213 62.258 3.80813 61.824 3.80813 61.278V56C3.80813 55.454 4.24213 55.02 4.78813 55.02H7.35013V40.908H4.36813C3.47213 40.908 3.02413 39.788 3.75213 39.172L17.1081 27.412C17.4861 27.076 18.0461 27.09 18.4101 27.412L30.9681 38.472L35.9801 29.778C33.6841 28.994 30.9541 28.714 28.8261 29.806C28.1961 30.128 27.4261 29.708 27.3981 28.952C27.3981 28.63 27.3561 28.308 27.2861 27.986ZM28.3781 25.354C32.7041 17.71 39.8301 12.054 48.2581 9.57602C44.6601 7.91002 40.6981 6.98602 36.6101 6.95802C28.8961 6.93002 20.7201 10.066 13.7341 17.346C18.8301 17.248 25.8581 20.538 28.3781 25.354ZM39.6761 31.626C39.0741 31.22 38.4441 30.87 37.8001 30.548L22.2601 57.484C19.0681 63.028 27.4681 67.956 30.7301 62.37C31.2061 61.558 30.4501 60.536 29.5121 60.788C29.2461 60.858 29.0081 61.026 28.8541 61.292C27.7481 63.196 25.3961 62.958 24.3041 61.558C23.6881 60.774 23.4781 59.682 24.1221 58.562L39.6761 31.626ZM46.2001 41.58C53.3541 41.58 59.1501 47.376 59.1501 54.53C59.1501 61.684 53.3541 67.48 46.2001 67.48C39.0461 67.48 33.2501 61.684 33.2501 54.53C33.2501 47.376 39.0461 41.58 46.2001 41.58ZM53.9701 46.76C49.6861 42.462 42.7141 42.462 38.4301 46.76C34.1461 51.044 34.1461 58.002 38.4301 62.3C42.7141 66.598 49.6861 66.598 53.9701 62.3C58.2541 58.016 58.2541 51.058 53.9701 46.76ZM27.3001 56.98L25.8301 59.542C25.6621 59.836 25.6901 60.116 25.8301 60.312H27.1741C27.7201 59.374 28.7001 58.814 29.7361 58.8V56.98H27.3001ZM19.5721 60.312C19.5161 59.262 19.7401 58.128 20.3141 56.98H5.76813V60.312H19.5721ZM21.5461 54.796L26.1941 46.746V40.908H9.31013V55.02H13.9581V46.536C13.9581 45.99 14.3921 45.556 14.9381 45.556H20.5661C21.1121 45.556 21.5461 45.99 21.5461 46.536V54.796ZM28.1541 43.344L29.5681 40.908H28.1541V43.344ZM19.5861 47.516H15.9181V55.02H19.5861V47.516ZM23.8001 34.776L17.7521 29.456L6.97213 38.948H28.5461L23.8001 34.776Z" fill="white"/>
<path d="M47.5321 60.2539C47.4377 60.2534 47.3444 60.2333 47.258 60.195C47.1717 60.1568 47.094 60.1011 47.0299 60.0314L43.1996 55.8887C43.0717 55.7589 43 55.5836 43 55.4008C43 55.2181 43.0717 55.0428 43.1996 54.913C43.3242 54.7959 43.4888 54.7316 43.6592 54.7332H45.5574C45.8772 54.7276 46.1889 54.6314 46.4569 54.4558C46.7248 54.2802 46.9382 54.0323 47.0725 53.7404H44.3402C44.1716 53.7214 44.0159 53.6407 43.9028 53.5136C43.7897 53.3865 43.7272 53.2219 43.7272 53.0514C43.7272 52.8808 43.7897 52.7162 43.9028 52.5891C44.0159 52.462 44.1716 52.3813 44.3402 52.3623H47.115C46.9795 52.072 46.7656 51.8258 46.4978 51.6518C46.2299 51.4778 45.9188 51.3829 45.5999 51.378H43.7018C43.5332 51.3591 43.3775 51.2784 43.2644 51.1513C43.1513 51.0241 43.0888 50.8596 43.0888 50.689C43.0888 50.5185 43.1513 50.3539 43.2644 50.2268C43.3775 50.0997 43.5332 50.0189 43.7018 50H49.66C49.8286 50.0189 49.9843 50.0997 50.0974 50.2268C50.2105 50.3539 50.273 50.5185 50.273 50.689C50.273 50.8596 50.2105 51.0241 50.0974 51.1513C49.9843 51.2784 49.8286 51.3591 49.66 51.378H48.1364C48.3339 51.6779 48.4753 52.0114 48.5535 52.3623H49.6771C49.8456 52.3813 50.0013 52.462 50.1144 52.5891C50.2275 52.7162 50.29 52.8808 50.29 53.0514C50.29 53.2219 50.2275 53.3865 50.1144 53.5136C50.0013 53.6407 49.8456 53.7214 49.6771 53.7404H48.562C48.4065 54.4135 48.0293 55.0141 47.4916 55.4445C46.9538 55.8749 46.2872 56.1099 45.5999 56.1113H45.2765L48.0769 59.1412C48.2042 59.2696 48.2757 59.4435 48.2757 59.6248C48.2757 59.8061 48.2042 59.98 48.0769 60.1084C48.0011 60.1694 47.9135 60.2139 47.8197 60.2389C47.7259 60.264 47.628 60.2691 47.5321 60.2539Z" fill="white"/>
</svg>
