<svg width="70" height="70" viewBox="0 0 70 70" fill="none" xmlns="http://www.w3.org/2000/svg">
<path d="M60.1562 38.2812C59.5 38.2812 59.0625 38.7187 59.0625 39.375V43.75C59.0625 44.4062 59.5 44.8438 60.1562 44.8438C60.8125 44.8438 61.25 44.4062 61.25 43.75V39.375C61.25 38.7187 60.8125 38.2812 60.1562 38.2812Z" fill="white"/>
<path d="M60.1562 6.5625H54.6875V3.28125C54.6875 2.625 54.25 2.1875 53.5938 2.1875H49.2188C48.5625 2.1875 48.125 2.625 48.125 3.28125V6.5625H43.75V3.28125C43.75 2.625 43.3125 2.1875 42.6562 2.1875H38.2812C37.625 2.1875 37.1875 2.625 37.1875 3.28125V6.5625H32.8125V3.28125C32.8125 2.625 32.375 2.1875 31.7188 2.1875H27.3438C26.6875 2.1875 26.25 2.625 26.25 3.28125V6.5625H21.875V3.28125C21.875 2.625 21.4375 2.1875 20.7812 2.1875H16.4062C15.75 2.1875 15.3125 2.625 15.3125 3.28125V6.5625H9.84375C9.1875 6.5625 8.75 7 8.75 7.65625V66.7188C8.75 67.375 9.1875 67.8125 9.84375 67.8125H60.1562C60.8125 67.8125 61.25 67.375 61.25 66.7188V48.125C61.25 47.4688 60.8125 47.0312 60.1562 47.0312C59.5 47.0312 59.0625 47.4688 59.0625 48.125V65.625H10.9375V17.5H51.4062C52.0625 17.5 52.5 17.0625 52.5 16.4062C52.5 15.75 52.0625 15.3125 51.4062 15.3125H10.9375V8.75H15.3125V12.0312C15.3125 12.6875 15.75 13.125 16.4062 13.125H20.7812C21.4375 13.125 21.875 12.6875 21.875 12.0312V8.75H26.25V12.0312C26.25 12.6875 26.6875 13.125 27.3438 13.125H31.7188C32.375 13.125 32.8125 12.6875 32.8125 12.0312V8.75H37.1875V12.0312C37.1875 12.6875 37.625 13.125 38.2812 13.125H42.6562C43.3125 13.125 43.75 12.6875 43.75 12.0312V8.75H48.125V12.0312C48.125 12.6875 48.5625 13.125 49.2188 13.125H53.5938C54.25 13.125 54.6875 12.6875 54.6875 12.0312V8.75H59.0625V15.3125H55.7812C55.125 15.3125 54.6875 15.75 54.6875 16.4062C54.6875 17.0625 55.125 17.5 55.7812 17.5H59.0625V35C59.0625 35.6562 59.5 36.0938 60.1562 36.0938C60.8125 36.0938 61.25 35.6562 61.25 35V7.65625C61.25 7 60.8125 6.5625 60.1562 6.5625ZM19.6875 10.9375H17.5V4.375H19.6875V10.9375ZM30.625 10.9375H28.4375V4.375H30.625V10.9375ZM41.5625 10.9375H39.375V4.375H41.5625V10.9375ZM52.5 10.9375H50.3125V4.375H52.5V10.9375Z" fill="white"/>
<path d="M55.7812 59.0625H47.0312C46.375 59.0625 45.9375 59.5 45.9375 60.1562C45.9375 60.8125 46.375 61.25 47.0312 61.25H55.7812C56.4375 61.25 56.875 60.8125 56.875 60.1562C56.875 59.5 56.4375 59.0625 55.7812 59.0625Z" fill="white"/>
<path d="M42.6562 59.0625H40.4688C39.8125 59.0625 39.375 59.5 39.375 60.1562C39.375 60.8125 39.8125 61.25 40.4688 61.25H42.6562C43.3125 61.25 43.75 60.8125 43.75 60.1562C43.75 59.5 43.3125 59.0625 42.6562 59.0625Z" fill="white"/>
<path d="M36.094 59.0623H28.4378V55.781C28.4378 55.1248 28.0003 54.6873 27.344 54.6873H26.2503V52.4998H27.344C28.0003 52.4998 28.4378 52.0623 28.4378 51.406V47.031C28.4378 46.3748 28.0003 45.9373 27.344 45.9373H22.969V36.0935C24.719 37.2967 27.1253 37.0779 28.5472 35.656C29.4222 34.6717 30.1878 33.4685 30.5159 32.156C31.0628 30.2967 30.9534 28.8748 30.0784 27.9998C29.2034 27.1248 27.6722 27.0154 25.9222 27.5623C24.6097 27.9998 23.4065 28.656 22.4222 29.531C22.2034 29.7498 22.094 29.9685 21.8753 30.1873C21.7659 29.9685 21.5472 29.7498 21.3284 29.531C20.344 28.656 19.1409 27.8904 17.8284 27.5623C15.969 27.0154 14.5472 27.1248 13.6722 27.9998C12.7972 28.8748 12.6878 30.406 13.2347 32.156C13.6722 33.4685 14.3284 34.6717 15.2034 35.656C16.7347 37.1873 19.0315 37.406 20.7815 36.0935V45.9373H16.4065C15.7503 45.9373 15.3128 46.3748 15.3128 47.031V50.3123H14.219C13.5628 50.3123 13.1253 50.7498 13.1253 51.406V55.781C13.1253 56.4373 13.5628 56.8748 14.219 56.8748H15.3128V59.0623H14.219C13.5628 59.0623 13.1253 59.4998 13.1253 60.156C13.1253 60.8123 13.5628 61.2498 14.219 61.2498H36.094C36.7503 61.2498 37.1878 60.8123 37.1878 60.156C37.1878 59.4998 36.7503 59.0623 36.094 59.0623ZM23.9534 30.9529C24.719 30.2967 25.594 29.7498 26.5784 29.531C27.0159 29.4217 27.4534 29.3123 27.8909 29.3123C28.1097 29.3123 28.3284 29.3123 28.5472 29.4217C28.7659 29.6404 28.8753 30.2967 28.4378 31.3904C28.1097 32.3748 27.6722 33.2498 27.0159 34.0154C26.1409 34.8904 24.8284 34.8904 23.9534 34.0154C23.0784 33.1404 23.0784 31.8279 23.9534 30.9529ZM19.7972 34.0154C18.9222 34.8904 17.6097 34.8904 16.7347 34.0154C16.0784 33.2498 15.5315 32.3748 15.3128 31.3904C14.9847 30.1873 15.094 29.531 15.2034 29.4217C15.4222 29.3123 15.6409 29.2029 15.8597 29.3123C16.2972 29.3123 16.7347 29.4217 17.1722 29.531C18.1565 29.8592 19.0315 30.2967 19.7972 30.9529C20.6722 31.8279 20.6722 33.1404 19.7972 34.0154ZM17.5003 48.1248H26.2503V50.3123H17.5003V48.1248ZM15.3128 52.4998H24.0628V54.6873H15.3128V52.4998ZM17.5003 59.0623V56.8748H26.2503V59.0623H17.5003Z" fill="white"/>
<path d="M47.0312 39.375C52.5 39.375 56.875 35 56.875 29.5312C56.875 24.0625 52.5 19.6875 47.0312 19.6875C41.5625 19.6875 37.1875 24.0625 37.1875 29.5312C37.1875 35 41.5625 39.375 47.0312 39.375ZM45.9375 21.9844V22.9688C45.9375 23.625 46.375 24.0625 47.0312 24.0625C47.6875 24.0625 48.125 23.625 48.125 22.9688V21.9844C51.5156 22.4219 54.1406 25.1562 54.5781 28.4375H53.5938C52.9375 28.4375 52.5 28.875 52.5 29.5312C52.5 30.1875 52.9375 30.625 53.5938 30.625H54.5781C54.1406 34.0156 51.4062 36.6406 48.125 37.0781V36.0938C48.125 35.4375 47.6875 35 47.0312 35C46.375 35 45.9375 35.4375 45.9375 36.0938V37.0781C42.5469 36.6406 39.9219 33.9062 39.4844 30.625H40.4688C41.125 30.625 41.5625 30.1875 41.5625 29.5312C41.5625 28.875 41.125 28.4375 40.4688 28.4375H39.4844C39.9219 25.0469 42.5469 22.4219 45.9375 21.9844Z" fill="white"/>
<path d="M44.8438 30.625H47.0312C47.6875 30.625 48.125 30.1875 48.125 29.5312V27.3438C48.125 26.6875 47.6875 26.25 47.0312 26.25C46.375 26.25 45.9375 26.6875 45.9375 27.3438V28.4375H44.8438C44.1875 28.4375 43.75 28.875 43.75 29.5312C43.75 30.1875 44.1875 30.625 44.8438 30.625Z" fill="white"/>
</svg>
