<svg width="70" height="70" viewBox="0 0 70 70" fill="none" xmlns="http://www.w3.org/2000/svg">
<path d="M67.3389 61.6076C66.7735 62.602 65.953 63.4275 64.9622 63.9991C63.9714 64.5708 62.846 64.8678 61.7022 64.8596H41.9838C40.8401 64.8668 39.7151 64.5693 38.7245 63.9978C37.7338 63.4263 36.9132 62.6013 36.347 61.6076C36.2014 61.3554 36.0722 61.094 35.9603 60.8252H29.7456V61.5567C29.7447 62.4324 29.3964 63.2719 28.7772 63.8911C28.1581 64.5103 27.3186 64.8586 26.4429 64.8596H5.085C4.20883 64.8591 3.36864 64.5111 2.74874 63.8919C2.12883 63.2727 1.77984 62.4329 1.77832 61.5567V59.495C1.77768 58.6783 2.08101 57.8907 2.62926 57.2854C2.08113 56.6803 1.7778 55.8929 1.77832 55.0764V53.0147C1.77778 52.1982 2.08111 51.4107 2.62926 50.8056C2.08115 50.2005 1.77782 49.4131 1.77832 48.5966V46.5353C1.77988 45.6592 2.12889 44.8194 2.74878 44.2003C3.36868 43.5811 4.20886 43.2331 5.085 43.2326H8.58049C9.53438 37.9129 11.3356 30.5273 14.5759 24.6848C16.8591 20.5663 19.4937 17.8561 22.4395 16.5791C22.1092 16.0769 21.9325 15.4892 21.9309 14.888C21.9294 14.2869 22.1032 13.6983 22.4311 13.1944L20.5279 9.32526C20.3074 8.8882 20.2043 8.40137 20.2285 7.91244C20.2528 7.42351 20.4036 6.94928 20.6663 6.53619C21.3283 5.46528 22.3673 4.95723 23.3744 5.21248C29.2198 6.66293 34.4942 6.66649 39.4936 5.22192C40.4737 4.93481 41.514 5.4203 42.2066 6.48711C42.4731 6.88794 42.6326 7.35031 42.6699 7.83022C42.7071 8.31012 42.6209 8.79157 42.4195 9.22873L40.5228 13.4821C40.7692 13.9687 40.8827 14.5118 40.8516 15.0563C40.8206 15.6009 40.6462 16.1276 40.3461 16.5831C42.5284 17.533 44.5457 19.2717 46.3754 21.7851C48.6962 24.9742 50.6698 29.3457 52.2489 34.7815C53.322 34.8413 54.363 35.1692 55.2769 35.735C56.1907 36.3008 56.9482 37.0865 57.4801 38.0205L67.3395 55.0998C67.9176 56.0868 68.2223 57.2099 68.2222 58.3538C68.2221 59.4976 67.9172 60.6207 67.3389 61.6076ZM22.4916 8.36112L24.2254 11.886C24.4883 11.8149 24.7596 11.7789 25.032 11.7789H37.7591C38.1159 11.7788 38.47 11.8405 38.8056 11.9615L40.4227 8.33473C40.4744 8.2313 40.4971 8.1158 40.4884 8.0005C40.4798 7.8852 40.44 7.77439 40.3735 7.67985C40.292 7.5437 40.1818 7.42704 40.0504 7.33805C34.763 8.85453 28.9825 8.85467 22.8634 7.33942C22.721 7.42337 22.6039 7.54425 22.5246 7.68928C22.4588 7.78779 22.4209 7.90232 22.4151 8.02064C22.4093 8.13896 22.4358 8.25664 22.4916 8.36112ZM25.3776 15.794C25.7622 15.7505 26.1489 15.7285 26.5359 15.7281V15.794H36.2518V15.7281C36.6388 15.7283 37.0254 15.7503 37.4098 15.794H37.7593C37.9997 15.791 38.2293 15.6935 38.3982 15.5224C38.5672 15.3514 38.6619 15.1206 38.6619 14.8802C38.6619 14.6398 38.5672 14.409 38.3982 14.238C38.2293 14.067 37.9997 13.9694 37.7593 13.9664H25.0321C24.7917 13.9694 24.5622 14.067 24.3932 14.238C24.2242 14.409 24.1295 14.6398 24.1295 14.8802C24.1295 15.1206 24.2242 15.3514 24.3932 15.5224C24.5622 15.6935 24.7917 15.791 25.0321 15.794H25.3776ZM3.96582 48.5972C3.96669 48.8934 4.08501 49.1771 4.29482 49.3862C4.50463 49.5953 4.78881 49.7126 5.085 49.7124H26.4429C26.7386 49.7121 27.0221 49.5945 27.2311 49.3854C27.4402 49.1763 27.5578 48.8928 27.5581 48.5972V46.5353C27.5578 46.2396 27.4402 45.9562 27.2311 45.7471C27.0221 45.538 26.7386 45.4204 26.4429 45.4201H25.8081V46.7949C25.8081 47.085 25.6929 47.3632 25.4878 47.5683C25.2827 47.7735 25.0045 47.8887 24.7144 47.8887C24.4243 47.8887 24.1461 47.7735 23.941 47.5683C23.7359 47.3632 23.6206 47.085 23.6206 46.7949V45.4201H21.332V46.7949C21.332 47.085 21.2167 47.3632 21.0116 47.5683C20.8065 47.7735 20.5283 47.8887 20.2382 47.8887C19.9481 47.8887 19.6699 47.7735 19.4648 47.5683C19.2597 47.3632 19.1445 47.085 19.1445 46.7949V45.4201H16.8558V46.7949C16.8558 47.085 16.7406 47.3632 16.5355 47.5683C16.3303 47.7735 16.0521 47.8887 15.7621 47.8887C15.472 47.8887 15.1938 47.7735 14.9887 47.5683C14.7835 47.3632 14.6683 47.085 14.6683 46.7949V45.4201H12.3835V46.7949C12.3835 47.085 12.2682 47.3632 12.0631 47.5683C11.858 47.7735 11.5798 47.8887 11.2897 47.8887C10.9996 47.8887 10.7214 47.7735 10.5163 47.5683C10.3112 47.3632 10.196 47.085 10.196 46.7949V45.4201H7.90729V46.7949C7.90729 47.085 7.79205 47.3632 7.58694 47.5683C7.38182 47.7735 7.10362 47.8887 6.81354 47.8887C6.52346 47.8887 6.24526 47.7735 6.04014 47.5683C5.83502 47.3632 5.71979 47.085 5.71979 46.7949V45.4201H5.085C4.78881 45.4199 4.50463 45.5372 4.29482 45.7463C4.08501 45.9554 3.96669 46.2391 3.96582 46.5353V48.5972ZM22.6651 43.2326H26.4429C27.3186 43.2336 28.158 43.5819 28.7772 44.2011C29.3963 44.8202 29.7446 45.6597 29.7456 46.5353V48.1769C31.7733 48.514 33.8556 48.2204 35.7111 47.3358C37.5665 46.4512 39.1056 45.0182 40.1202 43.2306C41.1349 41.4429 41.5762 39.3869 41.3845 37.3403C41.1928 35.2937 40.3774 33.3554 39.0484 31.7873C37.7194 30.2191 35.941 29.0969 33.9536 28.5722C31.9661 28.0475 29.8655 28.1458 27.9357 28.8536C26.0059 29.5614 24.34 30.8446 23.1631 32.5299C21.9862 34.2152 21.3551 36.2212 21.3552 38.2767C21.3548 40.0143 21.8062 41.7221 22.6651 43.2326ZM26.4429 56.1916C26.7386 56.1913 27.0221 56.0737 27.2311 55.8646C27.4402 55.6556 27.5578 55.3721 27.5581 55.0764V53.0147C27.5578 52.719 27.4402 52.4355 27.2312 52.2264C27.0221 52.0173 26.7386 51.8997 26.4429 51.8993H25.8081V53.2743C25.8081 53.5644 25.6929 53.8426 25.4878 54.0477C25.2827 54.2528 25.0045 54.3681 24.7144 54.3681C24.4243 54.3681 24.1461 54.2528 23.941 54.0477C23.7359 53.8426 23.6206 53.5644 23.6206 53.2743V51.8999H21.332V53.2749C21.332 53.5649 21.2167 53.8431 21.0116 54.0483C20.8065 54.2534 20.5283 54.3686 20.2382 54.3686C19.9481 54.3686 19.6699 54.2534 19.4648 54.0483C19.2597 53.8431 19.1445 53.5649 19.1445 53.2749V51.8999H16.8558V53.2749C16.8558 53.5649 16.7406 53.8431 16.5355 54.0483C16.3303 54.2534 16.0521 54.3686 15.7621 54.3686C15.472 54.3686 15.1938 54.2534 14.9887 54.0483C14.7835 53.8431 14.6683 53.5649 14.6683 53.2749V51.8999H12.3835V53.2749C12.3835 53.5649 12.2682 53.8431 12.0631 54.0483C11.858 54.2534 11.5798 54.3686 11.2897 54.3686C10.9996 54.3686 10.7214 54.2534 10.5163 54.0483C10.3112 53.8431 10.196 53.5649 10.196 53.2749V51.8999H7.90729V53.2749C7.90729 53.5649 7.79205 53.8431 7.58694 54.0483C7.38182 54.2534 7.10362 54.3686 6.81354 54.3686C6.52346 54.3686 6.24526 54.2534 6.04014 54.0483C5.83502 53.8431 5.71979 53.5649 5.71979 53.2749V51.8999H5.085C4.78878 51.8997 4.50459 52.017 4.29477 52.2261C4.08496 52.4352 3.96665 52.719 3.96582 53.0152V55.077C3.96683 55.3731 4.08522 55.6567 4.29501 55.8656C4.50481 56.0746 4.7889 56.1918 5.085 56.1916H26.4429ZM27.5581 59.4945C27.5578 59.1988 27.4402 58.9153 27.2312 58.7062C27.0221 58.4971 26.7386 58.3795 26.4429 58.3791H25.8081V59.7541C25.8081 60.0442 25.6929 60.3224 25.4878 60.5275C25.2827 60.7326 25.0045 60.8479 24.7144 60.8479C24.4243 60.8479 24.1461 60.7326 23.941 60.5275C23.7359 60.3224 23.6206 60.0442 23.6206 59.7541V58.3791H21.332V59.7541C21.332 60.0442 21.2167 60.3224 21.0116 60.5275C20.8065 60.7326 20.5283 60.8479 20.2382 60.8479C19.9481 60.8479 19.6699 60.7326 19.4648 60.5275C19.2597 60.3224 19.1445 60.0442 19.1445 59.7541V58.3791H16.8558V59.7541C16.8558 60.0442 16.7406 60.3224 16.5355 60.5275C16.3303 60.7326 16.0521 60.8479 15.7621 60.8479C15.472 60.8479 15.1938 60.7326 14.9887 60.5275C14.7835 60.3224 14.6683 60.0442 14.6683 59.7541V58.3791H12.3835V59.7541C12.3835 60.0442 12.2682 60.3224 12.0631 60.5275C11.858 60.7326 11.5798 60.8479 11.2897 60.8479C10.9996 60.8479 10.7214 60.7326 10.5163 60.5275C10.3112 60.3224 10.196 60.0442 10.196 59.7541V58.3791H7.90729V59.7541C7.90729 60.0442 7.79205 60.3224 7.58694 60.5275C7.38182 60.7326 7.10362 60.8479 6.81354 60.8479C6.52346 60.8479 6.24526 60.7326 6.04014 60.5275C5.83502 60.3224 5.71979 60.0442 5.71979 59.7541V58.3791H5.085C4.78878 58.3789 4.50459 58.4963 4.29477 58.7054C4.08496 58.9145 3.96665 59.1983 3.96582 59.4945V61.5562C3.96665 61.8524 4.08496 62.1362 4.29477 62.3453C4.50459 62.5544 4.78878 62.6717 5.085 62.6715H26.4429C26.7386 62.6712 27.0221 62.5536 27.2312 62.3445C27.4402 62.1354 27.5578 61.8519 27.5581 61.5562V59.4945ZM46.2066 38.0199C47.0417 36.5562 48.4179 35.4787 50.0392 35.0191C48.0862 28.461 44.0868 18.8589 37.267 17.9815H25.535C19.0075 18.8428 13.57 28.1268 10.8035 43.2326H20.2184C19.1106 40.7381 18.8688 37.9448 19.5315 35.297C20.1943 32.6492 21.7235 30.2992 23.8758 28.6207C26.0282 26.9423 28.6801 26.0318 31.4095 26.0343C34.139 26.0368 36.7892 26.952 38.9385 28.6343C41.0878 30.3167 42.6128 32.6695 43.2708 35.3184C43.9287 37.9674 43.6819 40.7603 42.5695 43.2528C41.4572 45.7453 39.5432 47.7942 37.1321 49.0735C34.7211 50.3528 31.9514 50.789 29.2639 50.3127C29.1566 50.4881 29.0334 50.6531 28.8958 50.8057C29.4434 51.4111 29.7463 52.1985 29.7456 53.0148V55.0765C29.7462 55.8928 29.4433 56.68 28.8958 57.2854C29.2443 57.6716 29.4967 58.1348 29.6322 58.6371H35.4733C35.4194 57.3981 35.7228 56.1697 36.3475 55.0983L46.2066 38.0199ZM65.4448 56.1944L55.5851 39.1141C55.2053 38.4578 54.6597 37.913 54.0029 37.5342C53.3461 37.1554 52.6012 36.956 51.843 36.956C51.0847 36.956 50.3399 37.1554 49.683 37.5342C49.0262 37.913 48.4806 38.4578 48.1008 39.1141L38.2416 56.1934C37.8622 56.8501 37.6625 57.5951 37.6624 58.3535C37.6624 59.1119 37.8621 59.8569 38.2414 60.5136C38.6207 61.1703 39.1663 61.7156 39.8233 62.0945C40.4802 62.4734 41.2254 62.6726 41.9838 62.6721H61.7022C62.4604 62.6726 63.2055 62.4734 63.8623 62.0945C64.5192 61.7157 65.0648 61.1706 65.4441 60.514C65.8235 59.8574 66.0232 59.1126 66.0234 58.3543C66.0235 57.596 65.824 56.8511 65.4448 56.1944ZM53.9816 43.0464C54.2459 43.3173 54.452 43.6392 54.5873 43.9926C54.7227 44.3459 54.7845 44.7232 54.7689 45.1013L54.4859 51.5055C54.4129 52.9638 53.2521 54.1012 51.843 54.1012C51.153 54.0928 50.4929 53.8183 50.0004 53.3349C49.508 52.8515 49.2212 52.1967 49.2 51.507L48.921 45.1025C48.9053 44.7241 48.967 44.3464 49.1024 43.9927C49.2378 43.639 49.4441 43.3166 49.7085 43.0454C49.9844 42.7566 50.316 42.5268 50.6833 42.3697C51.0506 42.2127 51.4459 42.1318 51.8453 42.1319C52.2447 42.132 52.64 42.2131 53.0072 42.3703C53.3744 42.5274 53.7059 42.7575 53.9816 43.0464ZM52.5834 45.0067C52.5853 44.9238 52.5702 44.8415 52.5391 44.7647C52.508 44.6879 52.4615 44.6182 52.4025 44.56C52.3309 44.4841 52.2445 44.4236 52.1487 44.3822C52.0529 44.3409 51.9497 44.3195 51.8453 44.3194C51.7409 44.3193 51.6376 44.3405 51.5417 44.3817C51.4458 44.4229 51.3594 44.4833 51.2876 44.559C51.2284 44.6177 51.1817 44.6878 51.1506 44.7651C51.1194 44.8424 51.1044 44.9253 51.1065 45.0086L51.3854 51.4096C51.3964 51.6528 51.5606 51.9137 51.843 51.9137C52.1253 51.9137 52.2884 51.6502 52.3008 51.4025L52.5834 45.0067ZM54.4908 57.243C54.4904 57.7661 54.335 58.2774 54.0441 58.7123C53.7532 59.1471 53.3399 59.4859 52.8565 59.6859C52.3731 59.886 51.8413 59.9382 51.3282 59.8361C50.8151 59.7339 50.3438 59.4819 49.9739 59.112C49.604 58.7421 49.352 58.2708 49.2499 57.7577C49.1477 57.2447 49.2 56.7128 49.4 56.2294C49.6 55.746 49.9389 55.3328 50.3737 55.0419C50.8085 54.751 51.3198 54.5955 51.843 54.5952C52.5452 54.5954 53.2186 54.8745 53.7151 55.3711C54.2116 55.8677 54.4906 56.5407 54.4908 57.243ZM52.3033 57.243C52.3037 57.1523 52.2772 57.0636 52.2272 56.988C52.1771 56.9123 52.1058 56.8533 52.0222 56.8182C51.9385 56.7831 51.8464 56.7736 51.7574 56.7909C51.6684 56.8082 51.5865 56.8516 51.5221 56.9154C51.4577 56.9792 51.4137 57.0607 51.3957 57.1496C51.3776 57.2384 51.3863 57.3307 51.4206 57.4146C51.455 57.4985 51.5134 57.5703 51.5886 57.621C51.6638 57.6717 51.7523 57.699 51.843 57.6994C51.9642 57.6992 52.0806 57.6513 52.1668 57.5659C52.2529 57.4806 52.302 57.3643 52.3033 57.243Z" fill="white"/>
<path d="M32.5321 44.2539C32.4377 44.2534 32.3444 44.2333 32.258 44.195C32.1717 44.1568 32.094 44.1011 32.0299 44.0314L28.1996 39.8887C28.0717 39.7589 28 39.5836 28 39.4008C28 39.2181 28.0717 39.0428 28.1996 38.913C28.3242 38.7959 28.4888 38.7316 28.6592 38.7332H30.5574C30.8772 38.7276 31.1889 38.6314 31.4569 38.4558C31.7248 38.2802 31.9382 38.0323 32.0725 37.7404H29.3402C29.1716 37.7214 29.0159 37.6407 28.9028 37.5136C28.7897 37.3865 28.7272 37.2219 28.7272 37.0514C28.7272 36.8808 28.7897 36.7162 28.9028 36.5891C29.0159 36.462 29.1716 36.3813 29.3402 36.3623H32.115C31.9795 36.072 31.7656 35.8258 31.4978 35.6518C31.2299 35.4778 30.9188 35.3829 30.5999 35.378H28.7018C28.5332 35.3591 28.3775 35.2784 28.2644 35.1513C28.1513 35.0241 28.0888 34.8596 28.0888 34.689C28.0888 34.5185 28.1513 34.3539 28.2644 34.2268C28.3775 34.0997 28.5332 34.0189 28.7018 34H34.66C34.8286 34.0189 34.9843 34.0997 35.0974 34.2268C35.2105 34.3539 35.273 34.5185 35.273 34.689C35.273 34.8596 35.2105 35.0241 35.0974 35.1513C34.9843 35.2784 34.8286 35.3591 34.66 35.378H33.1364C33.3339 35.6779 33.4753 36.0114 33.5535 36.3623H34.6771C34.8456 36.3813 35.0013 36.462 35.1144 36.5891C35.2275 36.7162 35.29 36.8808 35.29 37.0514C35.29 37.2219 35.2275 37.3865 35.1144 37.5136C35.0013 37.6407 34.8456 37.7214 34.6771 37.7404H33.562C33.4065 38.4135 33.0293 39.0141 32.4916 39.4445C31.9538 39.8749 31.2872 40.1099 30.5999 40.1113H30.2765L33.0769 43.1412C33.2042 43.2696 33.2757 43.4435 33.2757 43.6248C33.2757 43.8061 33.2042 43.98 33.0769 44.1084C33.0011 44.1694 32.9135 44.2139 32.8197 44.2389C32.7259 44.264 32.628 44.2691 32.5321 44.2539Z" fill="white"/>
</svg>
