<svg width="70" height="70" viewBox="0 0 70 70" fill="none" xmlns="http://www.w3.org/2000/svg">
<g clip-path="url(#clip0_1259_91)">
<path d="M46.2975 68.9725H16.4871C12.5301 68.9725 9.32227 65.7647 9.32227 61.8077V36.9823C9.32227 33.0252 12.5301 29.8174 16.4871 29.8174H53.5121C57.4691 29.8174 60.677 33.0252 60.677 36.9823V61.8075C60.677 65.7646 57.4691 68.9724 53.5121 68.9724H48.3518" stroke="white" stroke-width="2.2" stroke-miterlimit="10"/>
<path d="M24.7285 21.5938H53.4871V29.8176" stroke="white" stroke-width="2.2" stroke-miterlimit="10"/>
<path d="M16.4873 29.8176V21.5938H22.6745" stroke="white" stroke-width="2.2" stroke-miterlimit="10"/>
<path d="M16.4875 21.5935H14.458V17.4966H55.5418V21.5935H53.4876" stroke="white" stroke-width="2.2" stroke-miterlimit="10"/>
<path d="M34.9993 64.625C43.4557 64.625 50.3111 57.7697 50.3111 49.3132C50.3111 40.8568 43.4557 34.0015 34.9993 34.0015C26.5428 34.0015 19.6875 40.8568 19.6875 49.3132C19.6875 57.7697 26.5428 64.625 34.9993 64.625Z" stroke="white" stroke-width="2.2" stroke-miterlimit="10"/>
<path d="M34.999 60.5606C41.2106 60.5606 46.2461 55.5251 46.2461 49.3135C46.2461 43.1019 41.2106 38.0664 34.999 38.0664C28.7874 38.0664 23.752 43.1019 23.752 49.3135C23.752 55.5251 28.7874 60.5606 34.999 60.5606Z" stroke="white" stroke-width="2.2" stroke-miterlimit="10"/>
<path d="M34.9666 43.1509V49.3952H28.8369" stroke="white" stroke-width="2.2" stroke-miterlimit="10"/>
<path d="M43.2164 17.4968C47.7645 17.4968 51.4514 13.8099 51.4514 9.26182C51.4514 4.71377 47.7645 1.02686 43.2164 1.02686C38.6684 1.02686 34.9814 4.71377 34.9814 9.26182C34.9814 13.8099 38.6684 17.4968 43.2164 17.4968Z" stroke="white" stroke-width="2.2" stroke-miterlimit="10"/>
<path d="M32.9455 18.5006C32.9455 14.5248 29.7225 11.3018 25.7467 11.3018C21.7709 11.3018 18.5479 14.5248 18.5479 18.5006" stroke="white" stroke-width="2.2" stroke-miterlimit="10"/>
<path d="M43.216 4.12109V9.26163H38.085" stroke="white" stroke-width="2.2" stroke-miterlimit="10"/>
<path d="M16.5117 32.8799V34.9341" stroke="white" stroke-width="2.2" stroke-miterlimit="10"/>
<path d="M20.6201 32.8799V34.9341" stroke="white" stroke-width="2.2" stroke-miterlimit="10"/>
<path d="M20.6201 24.6787V26.7329" stroke="white" stroke-width="2.2" stroke-miterlimit="10"/>
</g>
<defs>
<clipPath id="clip0_1259_91">
<rect width="70" height="70" fill="white"/>
</clipPath>
</defs>
</svg>
