<svg width="70" height="70" viewBox="0 0 70 70" fill="none" xmlns="http://www.w3.org/2000/svg">
<g clip-path="url(#clip0_1261_205)">
<path fill-rule="evenodd" clip-rule="evenodd" d="M49.279 62.2449C56.0541 62.2449 61.5658 56.7339 61.5658 49.9581C61.5658 43.1836 56.0541 37.6727 49.279 37.6727C42.5037 37.6727 36.9923 43.1837 36.9923 49.9581C36.9923 56.734 42.5038 62.2449 49.279 62.2449ZM49.279 35.2121C41.1437 35.2121 34.5297 41.8275 34.5297 49.9581C34.5297 58.0902 41.1437 64.7061 49.279 64.7061C57.4079 64.7061 64.0281 58.0902 64.0281 49.9581C64.0281 41.8275 57.4079 35.2121 49.279 35.2121ZM49.279 67.2654C58.8194 67.2654 66.5876 59.5012 66.5876 49.9581C66.5876 40.4147 58.8196 32.6523 49.279 32.6523C39.7384 32.6523 31.9704 40.4147 31.9704 49.9581C31.9706 59.5012 39.7384 67.2654 49.279 67.2654ZM3.41961 60.2492C3.41961 58.559 4.79268 57.1853 6.48156 57.1853H30.8811C31.5129 58.7955 32.3508 60.3021 33.3692 61.6752H3.41961V60.2492ZM30.0947 54.7239H14.3202V54.3222C14.3202 51.2559 15.5451 48.7442 17.9689 46.8601L24.6668 41.6455L29.9593 45.7633C29.6691 47.1159 29.508 48.5198 29.508 49.9581C29.508 51.6012 29.7142 53.1975 30.0947 54.7239ZM14.4493 37.4458L19.9351 33.1758C20.2382 32.9424 20.4122 32.584 20.4122 32.2038C20.4122 31.8251 20.2382 31.4676 19.9351 31.2334L14.4493 26.9634C10.6203 23.982 8.59592 19.8397 8.59592 14.9842V9.68516H40.7441V14.9841C40.7441 19.8395 38.72 23.982 34.8845 26.9633L29.3986 31.2333C29.102 31.4675 28.9279 31.825 28.9279 32.2037C28.9279 32.5839 29.102 32.9422 29.3986 33.1756L34.3429 37.0236C32.7763 38.8303 31.5321 40.9268 30.6942 43.2165L25.4276 39.1155C24.9828 38.7692 24.3574 38.7692 23.9125 39.1155L16.4541 44.9191C13.4049 47.2932 11.8578 50.457 11.8578 54.3222V54.7239H8.59592V49.4252C8.59592 44.5703 10.6203 40.4279 14.4493 37.4458ZM3.41961 4.16186V2.73383H45.9204V4.16186C45.9204 5.85006 44.5473 7.22381 42.852 7.22381H6.48156C4.79268 7.22395 3.41961 5.85006 3.41961 4.16186ZM49.279 30.1916C44.2121 30.1916 39.5835 32.1094 36.0769 35.2566L32.1575 32.2037L36.3992 28.9062C40.8471 25.4406 43.2001 20.6266 43.2001 14.9841V9.67285C46.088 9.49238 48.3829 7.08982 48.3829 4.16186V1.50391C48.3829 0.82373 47.8285 0.273438 47.1516 0.273438H2.18832C1.51143 0.273438 0.957031 0.82373 0.957031 1.50391V4.16186C0.957031 7.08982 3.25186 9.49225 6.13334 9.67285V14.9841C6.13334 20.6266 8.48641 25.4406 12.9407 28.9062L17.1824 32.2037L12.9407 35.5029C8.48641 38.9692 6.13334 43.7827 6.13334 49.4252V54.7362C3.25186 54.9166 0.957031 57.3195 0.957031 60.2492V62.9057C0.957031 63.5853 1.51143 64.1359 2.18832 64.1359H35.516C39.0808 67.5935 43.9351 69.7266 49.279 69.7266C60.1796 69.7266 69.0435 60.8591 69.0435 49.9581C69.0435 39.0586 60.1798 30.1916 49.279 30.1916ZM14.3913 15.4094C14.6813 17.9222 15.8806 20.0154 17.9689 21.6411L24.6668 26.8557L31.3711 21.6411C33.4595 20.0154 34.6587 17.9222 34.9487 15.4094H14.3913ZM23.4355 31.6176V29.0172L16.4541 23.5821C13.4049 21.2074 11.8578 18.0441 11.8578 14.179C11.8578 13.4981 12.4124 12.9482 13.0893 12.9482H36.2511C36.9277 12.9482 37.4821 13.498 37.4821 14.179C37.4821 18.0441 35.9353 21.2093 32.8796 23.5821L25.8982 29.0172V31.6176C25.8982 32.2972 25.3503 32.8475 24.6669 32.8475C23.9899 32.8475 23.4355 32.2971 23.4355 31.6176Z" fill="white"/>
<path d="M50.7054 56.2522C50.5926 56.2516 50.4811 56.2277 50.3779 56.1819C50.2747 56.1362 50.1819 56.0696 50.1053 55.9863L45.5285 51.0364C45.3758 50.8812 45.29 50.6717 45.29 50.4534C45.29 50.2351 45.3758 50.0256 45.5285 49.8704C45.6774 49.7306 45.8741 49.6537 46.0778 49.6557H48.3458C48.7279 49.6489 49.1004 49.534 49.4206 49.3242C49.7408 49.1144 49.9957 48.8181 50.1562 48.4693H46.8914C46.69 48.4467 46.5039 48.3502 46.3688 48.1983C46.2337 48.0465 46.159 47.8498 46.159 47.646C46.159 47.4422 46.2337 47.2456 46.3688 47.0937C46.5039 46.9418 46.69 46.8453 46.8914 46.8227H50.207C50.0451 46.4758 49.7896 46.1817 49.4695 45.9737C49.1494 45.7658 48.7777 45.6524 48.3967 45.6466H46.1286C45.9272 45.624 45.7411 45.5275 45.606 45.3756C45.4709 45.2237 45.3962 45.0271 45.3962 44.8233C45.3962 44.6195 45.4709 44.4229 45.606 44.271C45.7411 44.1191 45.9272 44.0226 46.1286 44H53.248C53.4494 44.0226 53.6355 44.1191 53.7706 44.271C53.9058 44.4229 53.9805 44.6195 53.9805 44.8233C53.9805 45.0271 53.9058 45.2237 53.7706 45.3756C53.6355 45.5275 53.4494 45.624 53.248 45.6466H51.4275C51.6634 46.0048 51.8323 46.4034 51.9259 46.8227H53.2684C53.4698 46.8453 53.6558 46.9418 53.791 47.0937C53.9261 47.2456 54.0008 47.4422 54.0008 47.646C54.0008 47.8498 53.9261 48.0465 53.791 48.1983C53.6558 48.3502 53.4698 48.4467 53.2684 48.4693H51.936C51.7502 49.2737 51.2995 49.9913 50.6569 50.5056C50.0144 51.0198 49.2179 51.3006 48.3967 51.3023H48.0102L51.3563 54.9227C51.5085 55.0761 51.5939 55.2839 51.5939 55.5005C51.5939 55.7172 51.5085 55.925 51.3563 56.0784C51.2658 56.1513 51.1611 56.2044 51.0491 56.2343C50.937 56.2643 50.8199 56.2704 50.7054 56.2522Z" fill="white"/>
</g>
<defs>
<clipPath id="clip0_1261_205">
<rect width="70" height="70" fill="white"/>
</clipPath>
</defs>
</svg>
