<svg width="70" height="70" viewBox="0 0 70 70" fill="none" xmlns="http://www.w3.org/2000/svg">
<path d="M32.8125 15.3125C33.4141 15.3125 33.9062 14.8203 33.9062 14.2188V10.9375C33.9062 10.3359 33.4141 9.84375 32.8125 9.84375C32.2109 9.84375 31.7188 10.3359 31.7188 10.9375V14.2188C31.7188 14.8203 32.2109 15.3125 32.8125 15.3125Z" fill="white"/>
<path d="M32.8125 50.3125C32.2109 50.3125 31.7188 50.8047 31.7188 51.4062V54.6875C31.7188 55.2891 32.2109 55.7812 32.8125 55.7812C33.4141 55.7812 33.9062 55.2891 33.9062 54.6875V51.4062C33.9062 50.8047 33.4141 50.3125 32.8125 50.3125Z" fill="white"/>
<path d="M51.4062 33.9062H54.6875C55.2891 33.9062 55.7812 33.4141 55.7812 32.8125C55.7812 32.2109 55.2891 31.7188 54.6875 31.7188H51.4062C50.8047 31.7188 50.3125 32.2109 50.3125 32.8125C50.3125 33.4141 50.8047 33.9062 51.4062 33.9062Z" fill="white"/>
<path d="M14.2188 31.7188H10.9375C10.3359 31.7188 9.84375 32.2109 9.84375 32.8125C9.84375 33.4141 10.3359 33.9062 10.9375 33.9062H14.2188C14.8203 33.9062 15.3125 33.4141 15.3125 32.8125C15.3125 32.2109 14.8203 31.7188 14.2188 31.7188Z" fill="white"/>
<path d="M18.1121 16.5704C17.6855 16.1438 16.9965 16.1438 16.5699 16.5704C16.1434 16.997 16.1434 17.686 16.5699 18.1126L18.8887 20.4313C19.0965 20.6501 19.3809 20.7485 19.6652 20.7485C19.9496 20.7485 20.223 20.6392 20.4418 20.4313C20.8684 20.0048 20.8684 19.3157 20.4418 18.8892L18.123 16.5704H18.1121Z" fill="white"/>
<path d="M45.9596 20.7593C46.2439 20.7593 46.5174 20.6499 46.7361 20.4421L49.0549 18.1233C49.4814 17.6968 49.4814 17.0077 49.0549 16.5812C48.6283 16.1546 47.9393 16.1546 47.5127 16.5812L45.1939 18.8999C44.7674 19.3265 44.7674 20.0155 45.1939 20.4421C45.4127 20.6608 45.6861 20.7593 45.9705 20.7593H45.9596Z" fill="white"/>
<path d="M18.8887 45.1827L16.5699 47.5015C16.1434 47.928 16.1434 48.6171 16.5699 49.0437C16.7887 49.2624 17.0621 49.3608 17.3465 49.3608C17.6309 49.3608 17.9043 49.2515 18.123 49.0437L20.4418 46.7249C20.8684 46.2983 20.8684 45.6093 20.4418 45.1827C20.0152 44.7562 19.3262 44.7562 18.8996 45.1827H18.8887Z" fill="white"/>
<path d="M41.3107 25.408C40.2717 24.3689 38.4779 24.3689 37.4498 25.408L35.5576 27.3002V19.6768C35.5576 18.1674 34.3326 16.9424 32.8232 16.9424C31.3139 16.9424 30.0889 18.1674 30.0889 19.6768V29.4111C29.0936 30.2096 28.4482 31.4236 28.4482 32.8018C28.4482 35.2189 30.4061 37.1768 32.8232 37.1768C35.0107 37.1768 36.8154 35.558 37.1326 33.4471L41.3217 29.258C41.8467 28.7439 42.1311 28.0549 42.1311 27.3221C42.1311 26.5893 41.8467 25.9111 41.3217 25.3861L41.3107 25.408ZM32.2654 19.6877C32.2654 19.3814 32.5061 19.1408 32.8123 19.1408C33.1186 19.1408 33.3592 19.3814 33.3592 19.6877V28.4924C33.1732 28.4705 32.9982 28.4377 32.8123 28.4377C32.6264 28.4377 32.4514 28.4705 32.2654 28.4924V19.6877ZM32.8123 35.0002C31.6092 35.0002 30.6248 34.0158 30.6248 32.8127C30.6248 31.6096 31.6092 30.6252 32.8123 30.6252C34.0154 30.6252 34.9998 31.6096 34.9998 32.8127C34.9998 34.0158 34.0154 35.0002 32.8123 35.0002ZM39.7576 27.7268L36.6732 30.8111C36.4982 30.483 36.2904 30.1768 36.0389 29.8924L38.9811 26.9502C39.1889 26.7424 39.5389 26.7424 39.7576 26.9502C39.867 27.0596 39.9217 27.1908 39.9217 27.333C39.9217 27.4752 39.867 27.6174 39.7576 27.7158V27.7268Z" fill="white"/>
<path d="M62.3656 40.8078C63.0656 38.2156 63.4375 35.525 63.4375 32.8125C63.4375 15.925 49.7 2.1875 32.8125 2.1875C15.925 2.1875 2.1875 15.925 2.1875 32.8125C2.1875 49.7 15.925 63.4375 32.8125 63.4375C35.525 63.4375 38.2047 63.0656 40.8078 62.3656C43.6188 65.6906 47.8187 67.8125 52.5 67.8125C60.9437 67.8125 67.8125 60.9437 67.8125 52.5C67.8125 47.8078 65.6906 43.6188 62.3656 40.8078ZM32.8125 61.25C17.1281 61.25 4.375 48.4969 4.375 32.8125C4.375 17.1281 17.1281 4.375 32.8125 4.375C48.4969 4.375 61.25 17.1281 61.25 32.8125C61.25 35.0547 60.9766 37.275 60.4516 39.4406C59.8063 39.0469 59.15 38.6859 58.45 38.3906C58.8438 36.5641 59.0625 34.6937 59.0625 32.8125C59.0625 18.3422 47.2828 6.5625 32.8125 6.5625C18.3422 6.5625 6.5625 18.3422 6.5625 32.8125C6.5625 47.2828 18.3422 59.0625 32.8125 59.0625C34.6937 59.0625 36.5641 58.8547 38.3906 58.45C38.6859 59.15 39.0469 59.8063 39.4406 60.4516C37.275 60.9656 35.0547 61.25 32.8125 61.25ZM37.1875 52.5C37.1875 53.8344 37.3734 55.1359 37.7016 56.3719C36.1047 56.7 34.4641 56.875 32.8125 56.875C19.5453 56.875 8.75 46.0797 8.75 32.8125C8.75 19.5453 19.5453 8.75 32.8125 8.75C46.0797 8.75 56.875 19.5453 56.875 32.8125C56.875 34.4641 56.7 36.1047 56.3719 37.7016C55.1359 37.3734 53.8453 37.1875 52.5 37.1875C44.0563 37.1875 37.1875 44.0563 37.1875 52.5ZM52.5 65.625C45.2594 65.625 39.375 59.7406 39.375 52.5C39.375 45.2594 45.2594 39.375 52.5 39.375C59.7406 39.375 65.625 45.2594 65.625 52.5C65.625 59.7406 59.7406 65.625 52.5 65.625Z" fill="white"/>
<path d="M62.0154 54.3703C61.7201 54.075 61.2826 53.9766 60.8889 54.1188C60.0795 54.4031 59.2264 54.5453 58.3623 54.5453C54.0092 54.5453 50.4654 51.0016 50.4654 46.6484C50.4654 45.7844 50.6076 44.9313 50.892 44.1219C51.0232 43.7281 50.9248 43.2906 50.6404 42.9953C50.3451 42.7 49.9076 42.6016 49.5139 42.7328C45.4123 44.1109 42.667 47.9391 42.667 52.2813C42.667 57.8375 47.1951 62.3656 52.7514 62.3656C57.0826 62.3656 60.9217 59.6094 62.2998 55.5188C62.4311 55.125 62.3326 54.6875 62.0373 54.3922L62.0154 54.3703ZM52.7404 60.1563C48.3873 60.1563 44.8436 56.6125 44.8436 52.2594C44.8436 49.5797 46.1779 47.1516 48.3217 45.7188C48.2889 46.025 48.2779 46.3313 48.2779 46.6375C48.2779 52.1938 52.8061 56.7219 58.3623 56.7219C58.6686 56.7219 58.9857 56.7109 59.2811 56.6781C57.8482 58.8109 55.4092 60.1563 52.7404 60.1563Z" fill="white"/>
</svg>
