<svg width="70" height="70" viewBox="0 0 70 70" fill="none" xmlns="http://www.w3.org/2000/svg">
<path d="M29.1566 39.5361C29.1566 41.0091 30.1094 42.263 31.4314 42.7178V45.0197C31.4314 45.6237 31.9212 46.1135 32.5252 46.1135C33.1292 46.1135 33.6189 45.6237 33.6189 45.0197V42.7174C34.9387 42.2622 35.8898 41.0085 35.8898 39.5361C35.8898 38.0636 34.9387 36.8099 33.6189 36.3549V26.8792C33.6189 26.2752 33.1292 25.7854 32.5252 25.7854C31.9212 25.7854 31.4314 26.2752 31.4314 26.8792V36.3545C30.1095 36.8092 29.1566 38.0632 29.1566 39.5361ZM32.5252 38.3589C33.1743 38.3589 33.7023 38.8871 33.7023 39.5361C33.7023 40.1851 33.1743 40.7133 32.5252 40.7133C31.8761 40.7133 31.3441 40.1852 31.3441 39.5361C31.3441 38.8869 31.8739 38.3589 32.5252 38.3589ZM43.8384 39.5531C43.8343 42.5759 42.653 45.4161 40.5126 47.5504C38.3762 49.6806 35.5397 50.8532 32.5241 50.8532H32.5082C26.2684 50.8404 21.1997 45.7559 21.2083 39.5192C21.2166 34.7989 24.1974 30.5356 28.6256 28.9101C29.1928 28.7022 29.821 28.993 30.0293 29.56C30.2373 30.1271 29.9465 30.7556 29.3794 30.9637C25.8071 32.2748 23.4025 35.7145 23.3958 39.5227C23.3888 44.5536 27.4784 48.6555 32.5121 48.6657H32.5249C34.9567 48.6657 37.2446 47.7199 38.9681 46.0014C40.6948 44.2795 41.6478 41.9885 41.651 39.5501C41.6519 38.9465 42.1414 38.4579 42.7448 38.4579H42.7463C43.3505 38.4587 43.8392 38.9491 43.8384 39.5531ZM60.7736 44.5493C61.0644 42.9003 61.2117 41.2173 61.2117 39.5361C61.2117 35.5247 60.3968 31.6396 58.79 27.9887C58.5466 27.4358 57.9007 27.1847 57.3483 27.4281C56.7954 27.6715 56.5444 28.3169 56.7877 28.8698C58.2717 32.2413 59.024 35.8299 59.024 39.5361C59.024 40.8071 58.9313 42.0789 58.7511 43.3337C58.074 43.0061 57.3647 42.7353 56.6291 42.5272C56.7512 41.5352 56.813 40.5329 56.813 39.5362C56.813 34.1373 55.0414 29.1449 52.0503 25.1077L53.6381 23.5197L54.6899 24.5715C54.9715 24.8531 55.3414 24.9938 55.7112 24.9938C56.081 24.9938 56.4515 24.8529 56.7336 24.5708L59.1289 22.1717C59.4023 21.9019 59.5541 21.5426 59.5568 21.1589C59.5597 20.7695 59.4087 20.4027 59.132 20.1258L57.3083 18.3021L57.3103 18.3002L53.7565 14.7503L51.9316 12.9254C51.3763 12.37 50.4646 12.3653 49.8996 12.9146L47.4897 15.3281C46.9344 15.8834 46.9296 16.7949 47.4789 17.36L48.5404 18.4215L46.9534 20.0106C44.1354 17.9227 40.8516 16.4298 37.289 15.7184V13.4661C39.3186 13.8335 41.2988 14.4389 43.1909 15.273C43.3345 15.3363 43.4843 15.3662 43.6317 15.3662C44.0518 15.3662 44.4527 15.1226 44.633 14.7135C44.8766 14.1608 44.6262 13.5152 44.0734 13.2714C42.2951 12.4873 40.4446 11.8903 38.55 11.4856C38.8651 11.1645 39.0601 10.7257 39.0601 10.2419V3.56084C39.0601 2.57742 38.2599 1.77734 37.2764 1.77734H27.7701C26.7867 1.77734 25.9866 2.57742 25.9866 3.56084V10.242C25.9866 10.7268 26.1824 11.1664 26.4985 11.4877C20.5291 12.7657 15.0923 15.9357 11.0087 20.5632C6.38525 25.8025 3.83887 32.5406 3.83887 39.5361C3.83887 55.3539 16.7075 68.2227 32.5253 68.2227C36.886 68.2227 41.0623 67.2711 44.9517 65.3963C47.1847 67.1651 50.0055 68.2227 53.0688 68.2227C60.2879 68.2227 66.1609 62.3479 66.1609 55.1268C66.1609 50.786 64.0364 46.9324 60.7736 44.5493ZM54.4751 42.1106C54.013 42.061 53.5438 42.0349 53.0686 42.0349C52.7946 42.0349 52.5228 42.0443 52.2529 42.061C52.3578 41.2311 52.4107 40.3863 52.4107 39.5361C52.4107 28.569 43.49 19.6468 32.5251 19.6468C21.5601 19.6468 12.6356 28.569 12.6356 39.5361C12.6356 50.5031 21.558 59.4255 32.5251 59.4255C35.1775 59.4255 37.8229 58.8859 40.2605 57.8596C40.417 58.594 40.6349 59.3056 40.9092 59.989C38.2523 61.0818 35.4374 61.6365 32.5251 61.6365C20.3389 61.6365 10.4247 51.7222 10.4247 39.5361C10.4247 27.3499 20.339 17.4357 32.5252 17.4357C44.7113 17.4357 54.6256 27.3499 54.6256 39.5361C54.6256 40.3938 54.5744 41.256 54.4751 42.1106ZM39.9728 55.1268C39.9728 55.2828 39.9765 55.438 39.982 55.5927C37.9685 56.5305 35.8354 57.0716 33.6188 57.2049V56.4601C33.6188 55.856 33.1291 55.3663 32.5251 55.3663C31.921 55.3663 31.4313 55.856 31.4313 56.4601V57.2034C29.0037 57.0546 26.7071 56.4147 24.6395 55.3815L24.7634 55.1679C25.0664 54.6454 24.8884 53.9762 24.3658 53.673C23.8436 53.3699 23.1742 53.5481 22.8709 54.0705L22.7468 54.2846C20.7785 52.9752 19.0862 51.2829 17.7767 49.3145L17.9906 49.1903C18.5132 48.8873 18.6912 48.218 18.3882 47.6954C18.0851 47.1729 17.4161 46.9947 16.8933 47.2979L16.6798 47.4217C15.6635 45.3882 15.0277 43.1333 14.8655 40.75H15.7214C16.3254 40.75 16.8151 40.2603 16.8151 39.6562C16.8151 39.0522 16.3254 38.5625 15.7214 38.5625H14.8502C14.9849 36.0907 15.6294 33.7529 16.6794 31.6512L16.8962 31.776C17.0682 31.875 17.2558 31.9221 17.4407 31.9221C17.8193 31.9221 18.1874 31.7253 18.3897 31.3738C18.691 30.8503 18.511 30.1816 17.9875 29.8803L17.776 29.7585C19.0855 27.7897 20.7779 26.0973 22.7465 24.7877L22.8707 25.0018C23.0736 25.3516 23.4406 25.547 23.818 25.547C24.0041 25.547 24.1929 25.4993 24.3657 25.3992C24.8881 25.0962 25.0661 24.4269 24.7631 23.9043L24.6394 23.6908C26.707 22.6576 29.0036 22.0176 31.4312 21.8688V22.8562C31.4312 23.4603 31.9209 23.95 32.5249 23.95C33.1289 23.95 33.6187 23.4603 33.6187 22.8562V21.8688C36.0458 22.0176 38.3422 22.6577 40.4095 23.691L40.2851 23.9072C39.9838 24.4307 40.1638 25.0994 40.6874 25.4007C40.8593 25.4997 41.0469 25.5467 41.2319 25.5467C41.6104 25.5467 41.9785 25.35 42.1808 24.9983L42.302 24.7879C44.2702 26.0977 45.9623 27.7905 47.2715 29.7594L47.0624 29.8799C46.5389 30.1812 46.3588 30.8499 46.6601 31.3734C46.8625 31.725 47.2307 31.9216 47.6091 31.9216C47.7942 31.9216 47.9818 31.8746 48.1537 31.7756L48.3678 31.6523C49.4171 33.7535 50.0612 36.0909 50.1958 38.5621H49.3246C48.7206 38.5621 48.2309 39.0518 48.2309 39.6558C48.2309 40.2598 48.7206 40.7496 49.3246 40.7496H50.1812C50.1439 41.3066 50.0807 41.8578 49.9921 42.4002C44.2505 43.7873 39.9728 48.9668 39.9728 55.1268ZM50.9104 14.998L57.0602 21.1478L55.7112 22.499L49.5614 16.3492L50.9104 14.998ZM50.0871 19.9683L52.0916 21.9729L50.6627 23.4017C50.0341 22.6959 49.365 22.0268 48.6591 21.3981L50.0871 19.9683ZM32.5252 15.2481C31.6536 15.2481 30.7931 15.2953 29.945 15.3852V12.0217H35.1015V15.3848C34.2547 15.2951 33.3954 15.2481 32.5252 15.2481ZM28.1741 3.96471H36.8726V9.83418H28.1741V3.96471ZM6.02623 39.5361C6.02623 26.7235 15.2835 15.7314 27.7575 13.4664V15.7192C16.6404 17.9409 8.23738 27.7751 8.23738 39.5361C8.23738 52.9285 19.1328 63.824 32.5252 63.824C35.7814 63.824 38.9279 63.192 41.8938 61.9481C42.2914 62.597 42.7442 63.2085 43.245 63.7767C39.8705 65.2755 36.2717 66.0352 32.5252 66.0352C17.9137 66.0352 6.02623 54.1477 6.02623 39.5361ZM53.0687 66.0352C47.0539 66.0352 42.1604 61.1417 42.1604 55.1268C42.1604 49.1118 47.0539 44.2224 53.0687 44.2224C59.0835 44.2224 63.9732 49.114 63.9732 55.1268C63.9732 61.1395 59.0816 66.0352 53.0687 66.0352ZM53.0687 45.3212C47.6598 45.3212 43.2593 49.72 43.2593 55.1268C43.2593 60.5336 47.6598 64.9363 53.0687 64.9363C58.4776 64.9363 62.8743 60.5358 62.8743 55.1268C62.8743 49.7178 58.4755 45.3212 53.0687 45.3212ZM53.0687 62.7488C48.866 62.7488 45.4468 59.3296 45.4468 55.1268C45.4468 50.9239 48.866 47.5087 53.0687 47.5087C57.2714 47.5087 60.6868 50.9262 60.6868 55.1268C60.6868 59.3273 57.2694 62.7488 53.0687 62.7488Z" fill="white"/>
<path d="M54.4459 60.2547C54.3607 60.2542 54.2766 60.2362 54.1986 60.2016C54.1206 60.1671 54.0505 60.1168 53.9927 60.0539L50.5356 56.3149C50.4202 56.1977 50.3555 56.0395 50.3555 55.8746C50.3555 55.7097 50.4202 55.5514 50.5356 55.4342C50.6481 55.3286 50.7966 55.2705 50.9505 55.272H52.6636C52.9523 55.2669 53.2336 55.1801 53.4755 55.0216C53.7173 54.8632 53.9099 54.6394 54.0311 54.3759H51.5651C51.4129 54.3588 51.2724 54.2859 51.1703 54.1712C51.0682 54.0565 51.0118 53.908 51.0118 53.754C51.0118 53.6001 51.0682 53.4515 51.1703 53.3368C51.2724 53.2221 51.4129 53.1492 51.5651 53.1321H54.0695C53.9472 52.8701 53.7542 52.6479 53.5124 52.4909C53.2706 52.3338 52.9899 52.2482 52.7021 52.2438H50.9889C50.8367 52.2267 50.6962 52.1538 50.5941 52.0391C50.4921 51.9243 50.4356 51.7758 50.4356 51.6219C50.4356 51.4679 50.4921 51.3194 50.5941 51.2047C50.6962 51.0899 50.8367 51.0171 50.9889 51H56.3665C56.5187 51.0171 56.6592 51.0899 56.7613 51.2047C56.8634 51.3194 56.9198 51.4679 56.9198 51.6219C56.9198 51.7758 56.8634 51.9243 56.7613 52.0391C56.6592 52.1538 56.5187 52.2267 56.3665 52.2438H54.9914C55.1696 52.5144 55.2972 52.8154 55.3678 53.1321H56.3819C56.534 53.1492 56.6746 53.2221 56.7767 53.3368C56.8787 53.4515 56.9351 53.6001 56.9351 53.754C56.9351 53.908 56.8787 54.0565 56.7767 54.1712C56.6746 54.2859 56.534 54.3588 56.3819 54.3759H55.3755C55.2352 54.9835 54.8947 55.5255 54.4094 55.914C53.924 56.3024 53.3224 56.5145 52.7021 56.5158H52.4101L54.9376 59.2505C55.0526 59.3663 55.1171 59.5233 55.1171 59.6869C55.1171 59.8506 55.0526 60.0076 54.9376 60.1234C54.8693 60.1785 54.7902 60.2186 54.7056 60.2412C54.6209 60.2638 54.5325 60.2684 54.4459 60.2547Z" fill="white"/>
</svg>
