<svg width="70" height="70" viewBox="0 0 70 70" fill="none" xmlns="http://www.w3.org/2000/svg">
<path d="M47.9281 26.25H48.125C49.3281 26.25 50.3125 25.2656 50.3125 24.0625V21.875C50.3125 20.6719 49.3281 19.6875 48.125 19.6875H46.4953L49.6781 14.35C50.5094 12.95 50.5312 11.2 49.7219 9.78906C48.9672 8.45469 47.6219 7.65625 46.1453 7.65625H44.6906C45.0187 6.45312 44.8109 5.20625 44.0891 4.14531C43.2469 2.92031 41.8469 2.1875 40.3266 2.1875H29.6734C28.1531 2.1875 26.7422 2.92031 25.9109 4.14531C25.1891 5.19531 24.9812 6.45312 25.3094 7.65625H23.8547C22.3781 7.65625 21.0438 8.45469 20.2781 9.78906C19.4688 11.2109 19.4906 12.9609 20.3219 14.35L23.5047 19.6875H21.875C20.6719 19.6875 19.6875 20.6719 19.6875 21.875V24.0625C19.6875 25.2656 20.6719 26.25 21.875 26.25H22.0719C19.2609 30.7781 12.0312 43.3234 12.0312 52.5C12.0312 66.7188 21.5469 67.8125 35 67.8125C48.4531 67.8125 57.9688 66.7188 57.9688 52.5C57.9688 43.3234 50.7391 30.7781 47.9281 26.25ZM43.8703 9.84375H46.1453C46.8344 9.84375 47.4469 10.2156 47.8188 10.8719C48.2344 11.6047 48.2344 12.5125 47.7969 13.2344L43.9469 19.6875H40.0203L43.8703 9.84375ZM27.7156 5.38125C28.1422 4.74688 28.875 4.375 29.6734 4.375H40.3266C41.125 4.375 41.8578 4.74688 42.2844 5.38125C42.6781 5.96094 42.7656 6.67188 42.5141 7.31719L37.6797 19.6875H32.3312L27.4969 7.31719C27.2453 6.67188 27.3219 5.96094 27.7266 5.38125H27.7156ZM22.2031 13.2344C21.7766 12.5125 21.7656 11.6047 22.1813 10.8719C22.5531 10.2266 23.1547 9.84375 23.8547 9.84375H26.1297L29.9797 19.6875H26.0531L22.2031 13.2344ZM21.875 24.0625V21.875H48.125V24.0625H45.9375H21.875ZM35 65.625C20.8687 65.625 14.2188 64.3344 14.2188 52.5C14.2188 43.05 22.8813 29.0281 24.6531 26.25H45.3359C47.1078 29.0281 55.7703 43.0391 55.7703 52.5C55.7703 64.3344 49.1203 65.625 34.9891 65.625H35Z" fill="white"/>
<path d="M35 33.9062C28.3609 33.9062 22.9688 39.2984 22.9688 45.9375C22.9688 52.5766 28.3609 57.9688 35 57.9688C41.6391 57.9688 47.0312 52.5766 47.0312 45.9375C47.0312 39.2984 41.6391 33.9062 35 33.9062ZM35 55.7812C29.575 55.7812 25.1562 51.3625 25.1562 45.9375C25.1562 40.5125 29.575 36.0938 35 36.0938C40.425 36.0938 44.8438 40.5125 44.8438 45.9375C44.8438 51.3625 40.425 55.7812 35 55.7812Z" fill="white"/>
<path d="M40.8734 47.1078L36.0938 45.1937V39.375C36.0938 38.7734 35.6016 38.2812 35 38.2812C34.3984 38.2812 33.9062 38.7734 33.9062 39.375V45.9375C33.9062 46.3859 34.1797 46.7906 34.5953 46.9547L40.0641 49.1422C40.1953 49.1969 40.3375 49.2188 40.4688 49.2188C40.9062 49.2188 41.3109 48.9562 41.4859 48.5297C41.7156 47.9719 41.4422 47.3375 40.8734 47.1078Z" fill="white"/>
</svg>
