<svg width="70" height="70" viewBox="0 0 70 70" fill="none" xmlns="http://www.w3.org/2000/svg">
<path d="M57.8564 62.603H43.6816" stroke="white" stroke-width="2" stroke-miterlimit="10" stroke-linecap="round" stroke-linejoin="round"/>
<path d="M52.1875 58.3564H68.9748V62.6029H62.3263" stroke="white" stroke-width="2" stroke-miterlimit="10" stroke-linecap="round" stroke-linejoin="round"/>
<path d="M54.4706 54.1099H64.7242V58.3562H52.1875" stroke="white" stroke-width="2" stroke-miterlimit="10" stroke-linecap="round" stroke-linejoin="round"/>
<path d="M55.1693 49.8638H68.9749V54.1101H54.4707" stroke="white" stroke-width="2" stroke-miterlimit="10" stroke-linecap="round" stroke-linejoin="round"/>
<path d="M54.6047 45.6078H68.975V41.3613H52.5117" stroke="white" stroke-width="2" stroke-miterlimit="10" stroke-linecap="round" stroke-linejoin="round"/>
<path d="M55.1693 49.8635H64.7243V45.6172H54.6074" stroke="white" stroke-width="2" stroke-miterlimit="10" stroke-linecap="round" stroke-linejoin="round"/>
<path d="M52.5061 41.3611H64.7244V37.1147H49.7979" stroke="white" stroke-width="2" stroke-miterlimit="10" stroke-linecap="round" stroke-linejoin="round"/>
<path d="M47.1692 32.9888L53.5429 42.9799C54.6079 44.991 55.1712 47.2891 55.1712 49.6311V49.6421C55.1712 56.8005 50.0266 62.6027 43.6816 62.6027" stroke="white" stroke-width="2" stroke-miterlimit="10" stroke-linecap="round" stroke-linejoin="round"/>
<path d="M44.7665 29.221L41.1162 23.498" stroke="white" stroke-width="2" stroke-miterlimit="10" stroke-linecap="round" stroke-linejoin="round"/>
<path d="M28.8837 23.498L20.1953 37.1232" stroke="white" stroke-width="2" stroke-miterlimit="10" stroke-linecap="round" stroke-linejoin="round"/>
<path d="M31.577 11.5831C30.877 9.48994 28.4326 8.56449 26.5213 9.66767C25.3838 10.3239 24.7754 11.5024 24.7754 12.6959C24.7754 13.5107 25.0584 14.3337 25.6518 15.005L28.7087 19.2514" stroke="white" stroke-width="2" stroke-miterlimit="10" stroke-linecap="round" stroke-linejoin="round"/>
<path d="M31.577 11.5845V11.5832C31.5291 11.3466 31.5059 11.1115 31.5059 10.8818C31.5059 9.00191 33.033 7.39697 34.9989 7.39697C37.2069 7.39697 38.8597 9.42041 38.4208 11.5832" stroke="white" stroke-width="2" stroke-miterlimit="10" stroke-linecap="round" stroke-linejoin="round"/>
<path d="M38.4199 11.5858L38.4213 11.5845V11.5831C39.1227 9.48994 41.5657 8.56449 43.477 9.66904C45.3897 10.7724 45.8094 13.3521 44.3465 15.005L41.2896 19.2514" stroke="white" stroke-width="2" stroke-miterlimit="10" stroke-linecap="round" stroke-linejoin="round"/>
<path d="M28.1781 23.4982H41.8196C42.9922 23.4982 43.943 22.5476 43.943 21.3748C43.943 20.2022 42.9924 19.2515 41.8196 19.2515H28.1781C27.0054 19.2515 26.0547 20.2021 26.0547 21.3748C26.0547 22.5475 27.0053 23.4982 28.1781 23.4982Z" stroke="white" stroke-width="2" stroke-miterlimit="10" stroke-linecap="round" stroke-linejoin="round"/>
<path d="M60.4798 22.2596V28.6296H56.2331V22.2596H53.3535L58.3565 15.8896L63.3593 22.2596H60.4798Z" stroke="white" stroke-width="2" stroke-miterlimit="10" stroke-linecap="round" stroke-linejoin="round"/>
<path d="M13.7658 22.2596V28.6296H9.51908V22.2596H6.63965L11.6425 15.8896L16.6454 22.2596H13.7658Z" stroke="white" stroke-width="2" stroke-miterlimit="10" stroke-linecap="round" stroke-linejoin="round"/>
<path d="M22.2589 62.6034H1.02539L5.27215 49.8633H18.0123L22.2589 62.6034Z" stroke="white" stroke-width="2" stroke-miterlimit="10" stroke-linecap="round" stroke-linejoin="round"/>
<path d="M43.4924 62.6034H22.2588L26.5055 49.8633H39.2457L43.4924 62.6034Z" stroke="white" stroke-width="2" stroke-miterlimit="10" stroke-linecap="round" stroke-linejoin="round"/>
<path d="M31.067 44.4374L32.8758 49.8636H11.6426L15.8889 37.123H28.6295L29.6535 40.1965" stroke="white" stroke-width="2" stroke-miterlimit="10" stroke-linecap="round" stroke-linejoin="round"/>
<path d="M35.7062 37.9917C35.6143 37.9912 35.5234 37.9716 35.4392 37.9343C35.355 37.897 35.2793 37.8428 35.2169 37.7748L31.4845 33.7381C31.3599 33.6116 31.29 33.4408 31.29 33.2627C31.29 33.0847 31.3599 32.9138 31.4845 32.7873C31.6059 32.6733 31.7663 32.6106 31.9324 32.6122H33.782C34.0936 32.6067 34.3974 32.513 34.6585 32.3419C34.9196 32.1708 35.1275 31.9292 35.2584 31.6447H32.5959C32.4317 31.6263 32.28 31.5476 32.1698 31.4237C32.0596 31.2999 31.9987 31.1395 31.9987 30.9733C31.9987 30.8071 32.0596 30.6468 32.1698 30.5229C32.28 30.399 32.4317 30.3204 32.5959 30.3019H35.2998C35.1678 30.019 34.9594 29.7791 34.6984 29.6096C34.4373 29.44 34.1342 29.3476 33.8235 29.3428H31.9739C31.8096 29.3244 31.6579 29.2457 31.5477 29.1218C31.4375 28.998 31.3766 28.8376 31.3766 28.6714C31.3766 28.5052 31.4375 28.3448 31.5477 28.221C31.6579 28.0971 31.8096 28.0184 31.9739 28H37.7798C37.944 28.0184 38.0958 28.0971 38.2059 28.221C38.3161 28.3448 38.3771 28.5052 38.3771 28.6714C38.3771 28.8376 38.3161 28.998 38.2059 29.1218C38.0958 29.2457 37.944 29.3244 37.7798 29.3428H36.2951C36.4875 29.635 36.6253 29.96 36.7015 30.3019H37.7964C37.9606 30.3204 38.1123 30.399 38.2225 30.5229C38.3327 30.6468 38.3937 30.8071 38.3937 30.9733C38.3937 31.1395 38.3327 31.2999 38.2225 31.4237C38.1123 31.5476 37.9606 31.6263 37.7964 31.6447H36.7098C36.5583 32.3007 36.1907 32.8859 35.6667 33.3053C35.1428 33.7247 34.4932 33.9536 33.8235 33.955H33.5083L36.2371 36.9075C36.3612 37.0325 36.4308 37.202 36.4308 37.3787C36.4308 37.5554 36.3612 37.7248 36.2371 37.8499C36.1633 37.9094 36.0779 37.9527 35.9865 37.9771C35.8951 38.0015 35.7997 38.0065 35.7062 37.9917Z" fill="white"/>
</svg>
