<svg width="70" height="70" viewBox="0 0 70 70" fill="none" xmlns="http://www.w3.org/2000/svg">
<path d="M67.8125 48.8162C67.8125 46.0064 67.0097 43.2731 65.4905 40.9095L58.567 30.1394C59.5153 29.5652 60.1562 28.5316 60.1562 27.3438C60.1562 25.5347 58.6841 24.0625 56.875 24.0625H44.4719L42.1684 17.1522C41.9891 16.6141 42.1313 16.0628 42.5491 15.6789C42.9669 15.2939 43.528 15.1998 44.0475 15.423L44.4402 15.5914C46.1814 16.3352 48.2125 15.5936 49.0612 13.8983C49.303 13.4137 49.7711 13.125 50.3125 13.125C50.8539 13.125 51.322 13.4137 51.5648 13.8983C52.4114 15.5947 54.4403 16.3363 56.1859 15.5914L56.5786 15.423C57.0981 15.1998 57.6603 15.295 58.077 15.6789C58.4937 16.0628 58.637 16.613 58.4577 17.1511L57.1758 20.9956C56.9844 21.5687 57.2939 22.1878 57.867 22.3792C58.4412 22.5717 59.0603 22.26 59.2506 21.688L60.5325 17.8423C60.9853 16.4839 60.6112 15.038 59.558 14.0678C58.5047 13.0988 57.0303 12.8472 55.7167 13.4116L55.3252 13.5789C54.6448 13.8709 53.853 13.58 53.5227 12.9183C52.9091 11.6966 51.6797 10.9375 50.3125 10.9375C48.9453 10.9375 47.7159 11.6966 47.1034 12.9194C46.7731 13.5811 45.9802 13.8731 45.3009 13.58L44.9083 13.4116C43.5936 12.8472 42.1214 13.0988 41.067 14.0678C40.0138 15.0369 39.6397 16.4828 40.0925 17.8423L42.2855 24.4212C41.9191 24.6061 41.5931 24.8533 41.3219 25.1552H30.625V22.9677H38.2156C38.8194 22.9677 39.3094 22.4777 39.3094 21.8739C39.3094 21.2702 38.8194 20.7802 38.2156 20.7802H29.5312C28.9275 20.7802 28.4375 21.2702 28.4375 21.8739V25.1552H22.9688C22.365 25.1552 21.875 25.6452 21.875 26.2489V29.5302H9.84375C9.24 29.5302 8.75 30.0202 8.75 30.6239V38.3119C4.77422 41.3088 2.1875 46.0556 2.1875 51.4062C2.1875 54.9609 3.32172 58.3548 5.46766 61.2205C5.82859 61.7039 6.51328 61.8023 6.99891 61.4403C7.48234 61.0783 7.58078 60.3925 7.21875 59.9091C5.35828 57.4252 4.375 54.4852 4.375 51.4062C4.375 43.5662 10.7537 37.1875 18.5938 37.1875C26.4338 37.1875 32.8125 43.5662 32.8125 51.4062C32.8125 59.2463 26.4338 65.625 18.5938 65.625C15.5148 65.625 12.5748 64.6417 10.092 62.7823C9.60641 62.4203 8.92281 62.5188 8.56078 63.0022C8.19875 63.4856 8.29719 64.1714 8.78062 64.5334C11.6452 66.6783 15.0391 67.8125 18.5938 67.8125H49.2188C49.8225 67.8125 50.3125 67.3225 50.3125 66.7188V63.4375H60.1562V65.625H53.5938C52.99 65.625 52.5 66.115 52.5 66.7188C52.5 67.3225 52.99 67.8125 53.5938 67.8125H61.25C61.8537 67.8125 62.3438 67.3225 62.3438 66.7188V60.1781C65.8164 57.3825 67.8125 53.2711 67.8125 48.8162ZM65.625 48.8162C65.625 51.9673 64.4394 54.9128 62.3438 57.1867V44.8438C62.3438 44.24 61.8537 43.75 61.25 43.75H36.1003C36.3563 43.1758 36.6384 42.6158 36.9753 42.093L44.3472 30.625H56.2778L63.6497 42.093C64.9414 44.1022 65.625 46.4275 65.625 48.8162ZM50.3125 45.9375H60.1562V48.125H50.3125V45.9375ZM50.3125 50.3125H60.1562V52.5H50.3125V50.3125ZM50.3125 54.6875H60.1562V56.875H50.3125V54.6875ZM37.1875 31.7188V33.9062H24.0625V31.7188H37.1875ZM39.6375 33.9062H39.375V31.7188H41.043L39.6375 33.9062ZM38.2309 36.0938L36.8244 38.2812H28.3959C27.1906 37.3789 25.8628 36.6406 24.4355 36.0938H38.2309ZM35.4178 40.4688L35.1345 40.9095C34.568 41.7911 34.1162 42.7514 33.7477 43.75H33.0925C32.4614 42.5589 31.6805 41.4641 30.7869 40.4688H35.4178ZM57.9688 27.3438C57.9688 27.9464 57.4777 28.4375 56.875 28.4375H43.75C43.1473 28.4375 42.6562 27.9464 42.6562 27.3438C42.6562 26.7411 43.1473 26.25 43.75 26.25H56.875C57.4777 26.25 57.9688 26.7411 57.9688 27.3438ZM41.3219 29.5312H39.375V27.3438H40.4688C40.4688 28.187 40.798 28.9494 41.3219 29.5312ZM24.0625 27.3438H37.1875V29.5312H24.0625V27.3438ZM10.9375 31.7188H21.875V33.9062H10.9375V31.7188ZM10.9375 36.0938H12.7531C12.1308 36.3322 11.5216 36.598 10.9375 36.9075V36.0938ZM32.8125 61.25H31.687C32.095 60.7086 32.4723 60.1464 32.8125 59.5558V61.25ZM29.7095 63.4375H32.8125V65.625H26.7433C27.8152 65.0081 28.8072 64.272 29.7095 63.4375ZM48.125 65.625H35V45.9375H48.125V65.625ZM50.3125 59.0625H60.1562V61.25H50.3125V59.0625Z" fill="white"/>
<path d="M18.5938 63.4375C18.7764 63.4375 18.9591 63.3916 19.1253 63.2997L28.9691 57.8309C29.3158 57.6384 29.5312 57.272 29.5312 56.875V50.3125C29.5312 49.7088 29.0413 49.2188 28.4375 49.2188C27.8337 49.2188 27.3438 49.7088 27.3438 50.3125V54.2347L23.742 50.633C23.5244 50.4153 23.2269 50.3059 22.9195 50.3136C22.6122 50.3278 22.3256 50.47 22.1288 50.7063L19.6766 53.6484L15.0314 48.487C14.8105 48.2409 14.4911 48.1119 14.1575 48.1261C13.8261 48.1447 13.5209 48.312 13.3284 48.5822L9.84375 53.4614V46.5806L18.5938 41.72L20.4641 42.7591C20.2136 42.6978 19.9566 42.6563 19.6875 42.6563C17.8784 42.6563 16.4062 44.1284 16.4062 45.9375C16.4062 47.7466 17.8784 49.2188 19.6875 49.2188C21.4966 49.2188 22.9688 47.7466 22.9688 45.9375C22.9688 45.0286 22.5969 44.2061 21.9986 43.6111L27.907 46.8934C28.4364 47.1866 29.1014 46.9963 29.3945 46.4691C29.6887 45.9408 29.4973 45.2747 28.9702 44.9816L19.1264 39.5128C18.795 39.3291 18.3947 39.3291 18.0633 39.5128L8.21953 44.9816C7.87172 45.1741 7.65625 45.5405 7.65625 45.9375V56.875C7.65625 57.272 7.87172 57.6384 8.21844 57.8309L18.0622 63.2997C18.2284 63.3916 18.4111 63.4375 18.5938 63.4375ZM19.6875 47.0313C19.0848 47.0313 18.5938 46.5402 18.5938 45.9375C18.5938 45.3348 19.0848 44.8438 19.6875 44.8438C20.2902 44.8438 20.7812 45.3348 20.7812 45.9375C20.7812 46.5402 20.2902 47.0313 19.6875 47.0313ZM23.042 53.0261L26.6383 56.6223L23.7814 58.2094L21.1542 55.2902L23.042 53.0261ZM14.3172 50.9633L21.8203 59.2998L18.5938 61.0925L10.3523 56.5141L14.3172 50.9633Z" fill="white"/>
<path d="M42.4162 61.9917C42.3242 61.9912 42.2333 61.9716 42.1491 61.9343C42.065 61.897 41.9893 61.8428 41.9269 61.7748L38.1945 57.7381C38.0699 57.6116 38 57.4408 38 57.2627C38 57.0847 38.0699 56.9138 38.1945 56.7873C38.3159 56.6733 38.4763 56.6106 38.6424 56.6122H40.492C40.8036 56.6067 41.1074 56.513 41.3685 56.3419C41.6296 56.1708 41.8375 55.9292 41.9683 55.6447H39.3059C39.1417 55.6263 38.9899 55.5476 38.8797 55.4237C38.7695 55.2999 38.7086 55.1395 38.7086 54.9733C38.7086 54.8071 38.7695 54.6468 38.8797 54.5229C38.9899 54.399 39.1417 54.3204 39.3059 54.3019H42.0098C41.8778 54.019 41.6694 53.7791 41.4083 53.6096C41.1473 53.44 40.8442 53.3476 40.5334 53.3428H38.6839C38.5196 53.3244 38.3679 53.2457 38.2577 53.1218C38.1475 52.998 38.0866 52.8376 38.0866 52.6714C38.0866 52.5052 38.1475 52.3448 38.2577 52.221C38.3679 52.0971 38.5196 52.0184 38.6839 52H44.4897C44.654 52.0184 44.8057 52.0971 44.9159 52.221C45.0261 52.3448 45.087 52.5052 45.087 52.6714C45.087 52.8376 45.0261 52.998 44.9159 53.1218C44.8057 53.2457 44.654 53.3244 44.4897 53.3428H43.0051C43.1975 53.635 43.3352 53.96 43.4115 54.3019H44.5063C44.6706 54.3204 44.8223 54.399 44.9325 54.5229C45.0427 54.6468 45.1036 54.8071 45.1036 54.9733C45.1036 55.1395 45.0427 55.2999 44.9325 55.4237C44.8223 55.5476 44.6706 55.6263 44.5063 55.6447H43.4198C43.2683 56.3007 42.9007 56.8859 42.3767 57.3053C41.8527 57.7247 41.2031 57.9536 40.5334 57.955H40.2183L42.947 60.9075C43.0711 61.0325 43.1408 61.202 43.1408 61.3787C43.1408 61.5554 43.0711 61.7248 42.947 61.8499C42.8732 61.9094 42.7879 61.9527 42.6965 61.9771C42.6051 62.0015 42.5096 62.0065 42.4162 61.9917Z" fill="white"/>
</svg>
