<svg width="70" height="70" viewBox="0 0 70 70" fill="none" xmlns="http://www.w3.org/2000/svg">
<path d="M43.1484 16.2312C42.5469 16.2312 42.0547 15.7391 42.0547 15.1375C42.0547 14.5359 42.5469 14.0437 43.1484 14.0437H48.0375C48.6391 14.0437 49.1312 14.5359 49.1312 15.1375C49.1312 15.7391 48.6391 16.2312 48.0375 16.2312H43.1484ZM35.7438 11.5391H48.0266C48.6281 11.5391 49.1203 11.0469 49.1203 10.4453C49.1203 9.84375 48.6281 9.35156 48.0266 9.35156H35.7438C35.1422 9.35156 34.65 9.84375 34.65 10.4453C34.65 11.0469 35.1422 11.5391 35.7438 11.5391ZM15.0391 37.7672H14.1312C12.8406 37.7672 11.7906 36.7172 11.7906 35.4266V26.7969C11.7906 25.5063 12.8406 24.4563 14.1312 24.4563H14.7984C18.1234 24.4563 20.9672 26.6984 21.5687 29.7828C21.9625 31.7734 21.4484 33.8078 20.1797 35.35C18.9109 36.8922 17.0297 37.7781 15.0391 37.7781V37.7672ZM14.1312 35.5797H15.0391C16.3844 35.5797 17.6422 34.9891 18.4953 33.95C19.3594 32.9 19.6875 31.5656 19.425 30.1984C19.0203 28.1313 17.0734 26.6438 14.7984 26.6438H14.1312C14.0437 26.6438 13.9781 26.7094 13.9781 26.7969V35.4266C13.9781 35.5141 14.0437 35.5797 14.1312 35.5797ZM42.0219 24.4563C41.4203 24.4563 40.9281 24.9484 40.9281 25.55C40.9281 26.1516 41.4203 26.6438 42.0219 26.6438H44.1875V36.6516C44.1875 37.2531 44.6797 37.7453 45.2812 37.7453C45.8828 37.7453 46.375 37.2531 46.375 36.6516V26.6438H48.5406C49.1422 26.6438 49.6344 26.1516 49.6344 25.55C49.6344 24.9484 49.1422 24.4563 48.5406 24.4563H42.0219ZM29.1484 26.6438C29.75 26.6438 30.2422 26.1516 30.2422 25.55C30.2422 24.9484 29.75 24.4563 29.1484 24.4563H24.2375C23.6359 24.4563 23.1438 24.9484 23.1438 25.55V36.6516C23.1438 37.2531 23.6359 37.7453 24.2375 37.7453H29.1484C29.75 37.7453 30.2422 37.2531 30.2422 36.6516C30.2422 36.05 29.75 35.5578 29.1484 35.5578H25.3313V32.1891H29.1484C29.75 32.1891 30.2422 31.6969 30.2422 31.0953C30.2422 30.4937 29.75 30.0016 29.1484 30.0016H25.3313V26.6328H29.1484V26.6438ZM36.6187 37.7563H33.1516C32.55 37.7563 32.0578 37.2641 32.0578 36.6625V25.5609C32.0578 24.9594 32.55 24.4672 33.1516 24.4672H36.6187C38.6094 24.4672 40.2172 26.0859 40.2172 28.0656V28.6016C40.2172 29.575 39.8234 30.4609 39.2 31.1063C39.8344 31.7516 40.2172 32.6375 40.2172 33.6109V34.1469C40.2172 36.1375 38.5984 37.7453 36.6187 37.7453V37.7563ZM38.0406 33.6219C38.0406 32.8453 37.4063 32.2109 36.6297 32.2109H34.2563V35.5797H36.6297C37.4063 35.5797 38.0406 34.9453 38.0406 34.1687V33.6328V33.6219ZM38.0406 28.0656C38.0406 27.2891 37.4063 26.6547 36.6297 26.6547H34.2563V30.0234H36.6297C37.4063 30.0234 38.0406 29.3891 38.0406 28.6125V28.0766V28.0656ZM10.3797 66.7188C8.36719 66.7188 6.72656 65.0781 6.72656 63.0766V15.5641C6.72656 14.5578 7.14219 13.5844 7.86406 12.8734L16.6687 4.34219C17.3687 3.66406 18.2984 3.28125 19.2719 3.28125H51.0453C53.0578 3.28125 54.6875 4.92188 54.6875 6.93438V41.6172C59.6859 43.4109 63.2734 48.1797 63.2734 53.7797C63.2734 60.9109 57.4656 66.7188 50.3344 66.7188H10.3797ZM10.5219 13.3547H17.1062V6.96719L10.5219 13.3547ZM43.1484 64.5312C39.6813 62.2125 37.3953 58.2531 37.3953 53.7797C37.3953 46.6484 43.2031 40.8406 50.3344 40.8406C51.0781 40.8406 51.8 40.9172 52.5 41.0375V6.93438C52.5 6.125 51.8437 5.46875 51.0453 5.46875H19.2937V14.4375C19.2937 15.0391 18.8016 15.5312 18.2 15.5312H8.925V15.5531V63.0547C8.925 63.8641 9.58125 64.5094 10.3906 64.5094H43.1594L43.1484 64.5312ZM61.0859 53.7797C61.0859 47.8516 56.2625 43.0281 50.3344 43.0281C44.4062 43.0281 39.5828 47.8516 39.5828 53.7797C39.5828 59.7078 44.4062 64.5312 50.3344 64.5312C56.2625 64.5312 61.0859 59.7078 61.0859 53.7797ZM26.5344 53.9109C26.1078 53.4953 25.4297 53.4953 25.0141 53.9109L22.4766 56.3828L19.9391 53.9109C19.5125 53.4953 18.8344 53.4953 18.4188 53.9109L15.1156 57.1266C14.6781 57.5422 14.6781 58.2422 15.0938 58.6688C15.5203 59.0953 16.2094 59.1172 16.6359 58.6906L19.1734 56.2188L21.7109 58.6906C21.9188 58.8984 22.2031 58.9969 22.4766 58.9969C22.75 58.9969 23.0234 58.8984 23.2422 58.6906L25.7797 56.2188L28.3172 58.6906C28.7547 59.1172 29.4438 59.1063 29.8594 58.6688C30.275 58.2313 30.275 57.5422 29.8375 57.1266L26.5344 53.9109Z" fill="white"/>
<path d="M51.2994 59.99C51.1891 59.9894 51.08 59.966 50.979 59.9212C50.878 59.8764 50.7872 59.8113 50.7122 59.7298L46.2334 54.8858C46.0839 54.734 46 54.5289 46 54.3153C46 54.1016 46.0839 53.8966 46.2334 53.7448C46.3791 53.608 46.5715 53.5327 46.7709 53.5346H48.9904C49.3643 53.528 49.7288 53.4156 50.0422 53.2103C50.3555 53.0049 50.605 52.715 50.762 52.3737H47.5671C47.37 52.3515 47.1879 52.2571 47.0557 52.1085C46.9234 51.9599 46.8503 51.7674 46.8503 51.568C46.8503 51.3686 46.9234 51.1761 47.0557 51.0275C47.1879 50.8788 47.37 50.7844 47.5671 50.7623H50.8118C50.6533 50.4229 50.4032 50.135 50.09 49.9315C49.7768 49.728 49.413 49.6171 49.0401 49.6113H46.8206C46.6235 49.5892 46.4414 49.4948 46.3092 49.3462C46.177 49.1975 46.1039 49.0051 46.1039 48.8057C46.1039 48.6062 46.177 48.4138 46.3092 48.2652C46.4414 48.1165 46.6235 48.0221 46.8206 48H53.7877C53.9848 48.0221 54.1669 48.1165 54.2991 48.2652C54.4313 48.4138 54.5044 48.6062 54.5044 48.8057C54.5044 49.0051 54.4313 49.1975 54.2991 49.3462C54.1669 49.4948 53.9848 49.5892 53.7877 49.6113H52.0061C52.237 49.9619 52.4023 50.352 52.4938 50.7623H53.8076C54.0047 50.7844 54.1868 50.8788 54.319 51.0275C54.4512 51.1761 54.5243 51.3686 54.5243 51.568C54.5243 51.7674 54.4512 51.9599 54.319 52.1085C54.1868 52.2571 54.0047 52.3515 53.8076 52.3737H52.5038C52.3219 53.1608 51.8808 53.8631 51.252 54.3663C50.6233 54.8696 49.8438 55.1444 49.0401 55.146H48.6619L51.9364 58.6889C52.0853 58.839 52.169 59.0424 52.169 59.2544C52.169 59.4664 52.0853 59.6698 51.9364 59.8199C51.8479 59.8912 51.7455 59.9432 51.6358 59.9725C51.5261 60.0018 51.4116 60.0078 51.2994 59.99Z" fill="white"/>
</svg>
