<svg width="70" height="70" viewBox="0 0 70 70" fill="none" xmlns="http://www.w3.org/2000/svg">
<path d="M51.8326 47.031C51.6407 47.0312 51.4521 46.981 51.2858 46.8853C51.1195 46.7895 50.9813 46.6518 50.8851 46.4857C49.9502 44.8773 48.6588 43.5047 47.1104 42.4734C46.8698 42.3123 46.7029 42.0624 46.6462 41.7785C46.5895 41.4946 46.6476 41.1997 46.8079 40.9586C46.9682 40.7175 47.2175 40.5497 47.5013 40.4921C47.785 40.4345 48.08 40.4917 48.3217 40.6512C50.1494 41.8694 51.6737 43.49 52.7778 45.3888C52.8741 45.555 52.925 45.7436 52.9253 45.9356C52.9256 46.1277 52.8753 46.3164 52.7795 46.4829C52.6836 46.6494 52.5457 46.7876 52.3795 46.8839C52.2132 46.9801 52.0246 47.0308 51.8326 47.031Z" fill="white"/>
<path d="M53.5938 17.5H49.2188C48.9287 17.5 48.6505 17.3848 48.4454 17.1796C48.2402 16.9745 48.125 16.6963 48.125 16.4062C48.125 16.1162 48.2402 15.838 48.4454 15.6329C48.6505 15.4277 48.9287 15.3125 49.2188 15.3125H53.5938C53.8838 15.3125 54.162 15.4277 54.3671 15.6329C54.5723 15.838 54.6875 16.1162 54.6875 16.4062C54.6875 16.6963 54.5723 16.9745 54.3671 17.1796C54.162 17.3848 53.8838 17.5 53.5938 17.5Z" fill="white"/>
<path d="M44.8438 17.5C45.4478 17.5 45.9375 17.0103 45.9375 16.4062C45.9375 15.8022 45.4478 15.3125 44.8438 15.3125C44.2397 15.3125 43.75 15.8022 43.75 16.4062C43.75 17.0103 44.2397 17.5 44.8438 17.5Z" fill="white"/>
<path d="M56.875 63.4375H49.2188C48.9287 63.4375 48.6505 63.3223 48.4454 63.1171C48.2402 62.912 48.125 62.6338 48.125 62.3438C48.125 62.0537 48.2402 61.7755 48.4454 61.5704C48.6505 61.3652 48.9287 61.25 49.2188 61.25H56.875C57.1651 61.25 57.4433 61.3652 57.6484 61.5704C57.8535 61.7755 57.9688 62.0537 57.9688 62.3438C57.9688 62.6338 57.8535 62.912 57.6484 63.1171C57.4433 63.3223 57.1651 63.4375 56.875 63.4375Z" fill="white"/>
<path d="M44.8438 63.4375C45.4478 63.4375 45.9375 62.9478 45.9375 62.3438C45.9375 61.7397 45.4478 61.25 44.8438 61.25C44.2397 61.25 43.75 61.7397 43.75 62.3438C43.75 62.9478 44.2397 63.4375 44.8438 63.4375Z" fill="white"/>
<path d="M56.875 8.75H49.2188C48.9287 8.75 48.6505 8.63477 48.4454 8.42965C48.2402 8.22453 48.125 7.94633 48.125 7.65625C48.125 7.36617 48.2402 7.08797 48.4454 6.88285C48.6505 6.67773 48.9287 6.5625 49.2188 6.5625H56.875C57.1651 6.5625 57.4433 6.67773 57.6484 6.88285C57.8535 7.08797 57.9688 7.36617 57.9688 7.65625C57.9688 7.94633 57.8535 8.22453 57.6484 8.42965C57.4433 8.63477 57.1651 8.75 56.875 8.75Z" fill="white"/>
<path d="M44.8438 8.75C45.4478 8.75 45.9375 8.26031 45.9375 7.65625C45.9375 7.05219 45.4478 6.5625 44.8438 6.5625C44.2397 6.5625 43.75 7.05219 43.75 7.65625C43.75 8.26031 44.2397 8.75 44.8438 8.75Z" fill="white"/>
<path d="M59.0625 57.3386V52.5C59.0603 48.67 57.8764 44.934 55.6722 41.8019C53.468 38.6698 50.351 36.2941 46.7466 34.9991C50.3508 33.7044 53.4677 31.3291 55.6719 28.1972C57.8761 25.0654 59.0602 21.3297 59.0625 17.5V12.6614C60.2139 12.1596 61.1573 11.2765 61.7339 10.1606C62.3105 9.04476 62.4851 7.76434 62.2283 6.53485C61.9716 5.30536 61.2991 4.20185 60.3241 3.41006C59.349 2.61827 58.131 2.18653 56.875 2.1875H13.125C11.869 2.18653 10.651 2.61827 9.67596 3.41006C8.70094 4.20185 8.02846 5.30536 7.77167 6.53485C7.51489 7.76434 7.68949 9.04476 8.26609 10.1606C8.8427 11.2765 9.78609 12.1596 10.9375 12.6614V17.5C10.9402 21.3316 12.1259 25.069 14.3327 28.2013C16.5394 31.3337 19.6595 33.7082 23.2666 35.0005C19.6596 36.2927 16.5396 38.6671 14.3329 41.7992C12.1261 44.9314 10.9403 48.6685 10.9375 52.5V57.3386C9.78609 57.8404 8.8427 58.7235 8.26609 59.8394C7.68949 60.9552 7.51489 62.2357 7.77167 63.4652C8.02846 64.6946 8.70094 65.7981 9.67596 66.5899C10.651 67.3817 11.869 67.8135 13.125 67.8125H56.875C58.131 67.8135 59.349 67.3817 60.3241 66.5899C61.2991 65.7981 61.9716 64.6946 62.2283 63.4652C62.4851 62.2357 62.3105 60.9552 61.7339 59.8394C61.1573 58.7235 60.2139 57.8404 59.0625 57.3386ZM35 26.25C36.7306 26.25 38.4223 26.7632 39.8612 27.7246C41.3002 28.6861 42.4217 30.0527 43.084 31.6515C43.7462 33.2504 43.9195 35.0097 43.5819 36.707C43.2443 38.4044 42.4109 39.9635 41.1872 41.1872C39.9635 42.4109 38.4044 43.2443 36.707 43.5819C35.0097 43.9195 33.2504 43.7462 31.6515 43.0839C30.0527 42.4217 28.6861 41.3002 27.7246 39.8612C26.7632 38.4223 26.25 36.7306 26.25 35C26.2527 32.6802 27.1754 30.4561 28.8158 28.8158C30.4561 27.1754 32.6802 26.2527 35 26.25ZM45.7517 33.0385C45.5634 32.0182 45.23 31.0303 44.7615 30.1046C45.0442 30.1109 45.336 30.1305 45.6139 30.1305C47.5529 30.1235 49.4893 29.986 51.4099 29.7191C49.7682 31.1974 47.8431 32.3267 45.7517 33.0385ZM9.84376 7.65625C9.84471 6.7863 10.1907 5.95225 10.8059 5.33711C11.421 4.72196 12.2551 4.37595 13.125 4.375H56.875C57.7453 4.375 58.5798 4.7207 59.1952 5.33606C59.8106 5.95141 60.1563 6.78601 60.1563 7.65625C60.1563 8.52649 59.8106 9.36109 59.1952 9.97645C58.5798 10.5918 57.7453 10.9375 56.875 10.9375H13.125C12.2551 10.9366 11.421 10.5905 10.8059 9.9754C10.1907 9.36025 9.84471 8.5262 9.84376 7.65625ZM13.125 13.125H56.875V17.5C56.8764 20.9601 55.7819 24.3318 53.7486 27.1316C50.2994 27.8209 46.7761 28.0656 43.2647 27.8597C41.7096 26.049 39.603 24.7989 37.2685 24.3016C34.934 23.8043 32.5008 24.0873 30.3428 25.1071C25.2589 24.3701 20.0949 24.3761 15.0128 25.1249C13.7731 22.7745 13.1251 20.1573 13.125 17.5V13.125ZM16.2954 27.1841C20.0424 26.7218 23.8277 26.6542 27.5888 26.9824C25.8506 28.5853 24.6788 30.7084 24.2491 33.0334C21.0594 31.948 18.282 29.9054 16.2954 27.1841ZM24.2495 36.969C24.7082 39.4862 26.0357 41.7626 28.0005 43.4015C29.9653 45.0404 32.4429 45.9379 35.0015 45.9375C37.5602 45.9372 40.0375 45.039 42.0019 43.3995C43.9663 41.7601 45.293 39.4833 45.751 36.966C48.2169 37.8076 50.447 39.224 52.2572 41.0981C54.0673 42.9722 55.4054 45.2502 56.1609 47.7438C49.8664 50.6384 40.0681 53.3558 31.1676 48.2692C24.9545 44.7191 19.5641 43.9688 15.298 44.3672C17.2797 40.8919 20.4632 38.2607 24.2495 36.969ZM13.125 52.5C13.1272 50.495 13.4986 48.5076 14.2206 46.6371C18.2395 46.0084 23.6269 46.48 30.0824 50.1683C33.7952 52.2868 38.0025 53.385 42.2771 53.3513C47.2613 53.2433 52.167 52.0872 56.675 49.9582C56.8074 50.799 56.8743 51.6488 56.875 52.5V56.875H13.125V52.5ZM56.875 65.625H13.125C12.2548 65.625 11.4202 65.2793 10.8048 64.6639C10.1895 64.0486 9.84376 63.214 9.84376 62.3438C9.84376 61.4735 10.1895 60.6389 10.8048 60.0236C11.4202 59.4082 12.2548 59.0625 13.125 59.0625H56.875C57.7453 59.0625 58.5798 59.4082 59.1952 60.0236C59.8106 60.6389 60.1563 61.4735 60.1563 62.3438C60.1563 63.214 59.8106 64.0486 59.1952 64.6639C58.5798 65.2793 57.7453 65.625 56.875 65.625Z" fill="white"/>
<path d="M36.4162 39.9917C36.3242 39.9912 36.2333 39.9716 36.1491 39.9343C36.065 39.897 35.9893 39.8428 35.9269 39.7748L32.1945 35.7381C32.0699 35.6116 32 35.4408 32 35.2627C32 35.0847 32.0699 34.9138 32.1945 34.7873C32.3159 34.6733 32.4763 34.6106 32.6424 34.6122H34.492C34.8036 34.6067 35.1074 34.513 35.3685 34.3419C35.6296 34.1708 35.8375 33.9292 35.9683 33.6447H33.3059C33.1417 33.6263 32.9899 33.5476 32.8797 33.4237C32.7695 33.2999 32.7086 33.1395 32.7086 32.9733C32.7086 32.8071 32.7695 32.6468 32.8797 32.5229C32.9899 32.399 33.1417 32.3204 33.3059 32.3019H36.0098C35.8778 32.019 35.6694 31.7791 35.4083 31.6096C35.1473 31.44 34.8442 31.3476 34.5334 31.3428H32.6839C32.5196 31.3244 32.3679 31.2457 32.2577 31.1218C32.1475 30.998 32.0866 30.8376 32.0866 30.6714C32.0866 30.5052 32.1475 30.3448 32.2577 30.221C32.3679 30.0971 32.5196 30.0184 32.6839 30H38.4897C38.654 30.0184 38.8057 30.0971 38.9159 30.221C39.0261 30.3448 39.087 30.5052 39.087 30.6714C39.087 30.8376 39.0261 30.998 38.9159 31.1218C38.8057 31.2457 38.654 31.3244 38.4897 31.3428H37.0051C37.1975 31.635 37.3352 31.96 37.4115 32.3019H38.5063C38.6706 32.3204 38.8223 32.399 38.9325 32.5229C39.0427 32.6468 39.1036 32.8071 39.1036 32.9733C39.1036 33.1395 39.0427 33.2999 38.9325 33.4237C38.8223 33.5476 38.6706 33.6263 38.5063 33.6447H37.4198C37.2683 34.3007 36.9007 34.8859 36.3767 35.3053C35.8527 35.7247 35.2031 35.9536 34.5334 35.955H34.2183L36.947 38.9075C37.0711 39.0325 37.1408 39.202 37.1408 39.3787C37.1408 39.5554 37.0711 39.7248 36.947 39.8499C36.8732 39.9094 36.7879 39.9527 36.6965 39.9771C36.6051 40.0015 36.5096 40.0065 36.4162 39.9917Z" fill="white"/>
</svg>
