<svg width="70" height="70" viewBox="0 0 70 70" fill="none" xmlns="http://www.w3.org/2000/svg">
<path d="M51.568 30.9943C51.0525 30.8699 50.7353 30.3545 50.8584 29.8432C50.9787 29.3277 51.4941 29.0105 52.0096 29.1336L54.8 29.7967C55.2648 29.9088 55.567 30.3395 55.5369 30.8002L55.5684 33.5523C55.5725 34.0801 55.1459 34.5094 54.6182 34.5135C54.0945 34.5176 53.6652 34.0951 53.6611 33.5674L53.6502 32.7266L41.3346 42.8451C41.0871 43.0775 40.7221 43.1705 40.3775 43.0502L27.9484 38.8215L13.2115 47.3254C12.7576 47.5893 12.1725 47.4307 11.9127 46.9768C11.6488 46.5201 11.8074 45.9377 12.2613 45.6752L27.3715 36.9512C27.6162 36.8117 27.902 36.7926 28.1508 36.8773V36.8732L40.4869 41.0746L52.4895 31.2158L51.568 30.9943ZM19.3229 22.6354C19.1096 22.8445 18.8266 22.9375 18.5477 22.9102L16.125 22.8746C15.5973 22.8664 15.1748 22.4371 15.183 21.9094C15.1871 21.3816 15.6205 20.9605 16.1441 20.9674L17.4498 20.9865C15.8201 11.784 22.8693 3.40039 32.1594 3.40039C36.1625 3.40039 39.9264 4.99316 42.7127 7.77129C43.0887 8.14316 43.0887 8.74746 42.7168 9.12344C42.3449 9.49531 41.7447 9.49941 41.3688 9.12754C36.2719 4.04707 28.0414 4.03477 22.9486 9.13164C20.1582 11.9221 18.709 15.9102 19.2354 20.0145L19.8123 19.4375C20.1842 19.0656 20.7926 19.0656 21.1645 19.4375C21.5363 19.8135 21.5363 20.4178 21.1645 20.7937L19.3229 22.6354ZM45.1299 13.9387C45.3514 13.7869 45.6344 13.7295 45.916 13.8033L48.4316 14.4773C48.943 14.6168 49.2451 15.1404 49.1098 15.6477C48.9703 16.159 48.4467 16.4611 47.9395 16.3258L46.9195 16.0551C48.3113 25.1428 41.3004 33.2857 32.158 33.2857C28.1508 33.2857 24.3883 31.693 21.6006 28.9148C21.2246 28.543 21.2246 27.9387 21.5965 27.5627C21.9684 27.1908 22.5699 27.1867 22.9445 27.5586C28.0414 32.6391 36.2719 32.6514 41.3646 27.5545C44.2754 24.6479 45.7055 20.4465 45.0109 16.2301L43.9992 16.8344C43.5494 17.1051 42.9602 16.9588 42.6936 16.5049C42.4229 16.051 42.5691 15.4658 43.0189 15.1951L45.1299 13.9387ZM32.2168 8.42754C37.6924 8.42754 42.1344 12.8654 42.1344 18.3451C42.1344 23.8207 37.6937 28.2586 32.2168 28.2586C26.7398 28.2586 22.2992 23.8207 22.2992 18.3451C22.2992 12.8641 26.7412 8.42754 32.2168 8.42754ZM37.8756 12.6822C34.7516 9.5582 29.6834 9.5582 26.5594 12.6822C23.4312 15.8104 23.4312 20.8744 26.5594 24.0025C29.6834 27.1266 34.7516 27.1266 37.8756 24.0025C41.0023 20.8758 41.0023 15.8104 37.8756 12.6822ZM6.44531 66.8393C5.91895 66.8393 5.48828 66.4127 5.48828 65.8822C5.48828 65.3545 5.91895 64.9252 6.44531 64.9252H10.4867V54.365C10.4867 53.8373 10.9133 53.408 11.4437 53.408H18.8813C19.4117 53.408 19.8383 53.8387 19.8383 54.365V64.9252H23.907V46.3137C23.907 45.7832 24.3377 45.3566 24.8641 45.3566H32.3057C32.8361 45.3566 33.2627 45.7832 33.2627 46.3137V64.9238H37.3314V51.1193C37.3314 50.5916 37.7621 50.1623 38.2885 50.1623H45.7301C46.2565 50.1623 46.6871 50.593 46.6871 51.1193V64.9238H50.7559V40.35C50.7559 39.8195 51.1824 39.393 51.7129 39.393H59.1545C59.6809 39.393 60.1115 39.8195 60.1115 40.35V64.9238H63.2082C63.7387 64.9238 64.1652 65.3545 64.1652 65.8809C64.1652 66.4113 63.7387 66.8379 63.2082 66.8379H59.1545C54.6975 66.8693 50.1871 66.8105 45.7301 66.8379C41.2731 66.8693 36.7627 66.8105 32.3057 66.8379C27.8486 66.8693 23.3383 66.8105 18.8813 66.8379H6.44531V66.8393ZM12.4021 64.9238H17.9242V55.3207H12.4021V64.9238ZM25.8225 64.9238H31.3486V47.268H25.8225V64.9238ZM39.2469 64.9238H44.7731V52.0764H39.2469V64.9238ZM52.6713 64.9238H58.1975V41.307H52.6713V64.9238Z" fill="white"/>
<path d="M33.2429 21.9934C33.1693 21.9929 33.0966 21.9773 33.0293 21.9475C32.9619 21.9176 32.9014 21.8742 32.8514 21.8199L29.8656 18.5905C29.7659 18.4893 29.71 18.3526 29.71 18.2102C29.71 18.0678 29.7659 17.9311 29.8656 17.8299C29.9627 17.7386 30.091 17.6885 30.2239 17.6898H31.7035C31.9528 17.6853 32.1958 17.6104 32.4047 17.4735C32.6136 17.3366 32.7799 17.1433 32.8846 16.9158H30.7547C30.6233 16.901 30.5019 16.8381 30.4137 16.739C30.3256 16.6399 30.2769 16.5116 30.2769 16.3787C30.2769 16.2457 30.3256 16.1174 30.4137 16.0183C30.5019 15.9192 30.6233 15.8563 30.7547 15.8415H32.9178C32.8122 15.6152 32.6454 15.4233 32.4366 15.2877C32.2278 15.152 31.9853 15.078 31.7367 15.0742H30.257C30.1256 15.0595 30.0043 14.9965 29.9161 14.8975C29.8279 14.7984 29.7792 14.6701 29.7792 14.5371C29.7792 14.4042 29.8279 14.2759 29.9161 14.1768C30.0043 14.0777 30.1256 14.0147 30.257 14H34.9017C35.0332 14.0147 35.1545 14.0777 35.2427 14.1768C35.3308 14.2759 35.3796 14.4042 35.3796 14.5371C35.3796 14.6701 35.3308 14.7984 35.2427 14.8975C35.1545 14.9965 35.0332 15.0595 34.9017 15.0742H33.714C33.868 15.308 33.9782 15.568 34.0392 15.8415H34.915C35.0464 15.8563 35.1678 15.9192 35.256 16.0183C35.3441 16.1174 35.3929 16.2457 35.3929 16.3787C35.3929 16.5116 35.3441 16.6399 35.256 16.739C35.1678 16.8381 35.0464 16.901 34.915 16.9158H34.0458C33.9246 17.4405 33.6305 17.9087 33.2113 18.2442C32.7921 18.5797 32.2725 18.7629 31.7367 18.764H31.4846L33.6676 21.126C33.7669 21.226 33.8226 21.3616 33.8226 21.5029C33.8226 21.6443 33.7669 21.7799 33.6676 21.8799C33.6085 21.9275 33.5403 21.9621 33.4671 21.9817C33.394 22.0012 33.3177 22.0052 33.2429 21.9934Z" fill="white"/>
</svg>
