<svg width="70" height="70" viewBox="0 0 70 70" fill="none" xmlns="http://www.w3.org/2000/svg">
<path d="M34.9996 47.1968C30.1526 47.1968 26.2178 51.1316 26.2178 55.9786C26.2178 60.8256 30.1526 64.7604 34.9996 64.7604C39.8466 64.7604 43.7814 60.8256 43.7814 55.9786C43.7814 51.1316 39.8466 47.1968 34.9996 47.1968ZM34.9996 62.9044C31.1814 62.9044 28.0738 59.7968 28.0738 55.9786C28.0738 52.1604 31.1814 49.0528 34.9996 49.0528C38.8178 49.0528 41.9253 52.1604 41.9253 55.9786C41.9253 59.7968 38.8178 62.9044 34.9996 62.9044Z" fill="white"/>
<path d="M67.327 60.5285H65.9482V56.6467C65.9482 55.8301 65.2801 55.1619 64.4634 55.1619H56.6255V51.2907C56.6255 50.474 55.9573 49.8058 55.1407 49.8058H48.0558C46.7088 47.2179 44.6088 45.0543 41.9679 43.6331C42.2331 43.1982 42.3922 42.6998 42.3922 42.1695C42.3922 40.7695 41.3634 39.6028 40.027 39.3801L41.7134 33.9604C41.8407 33.5679 41.6816 33.1437 41.3422 32.9104C41.0028 32.677 40.5467 32.7089 40.2285 32.974L38.8816 34.1089L37.5346 32.974C37.1846 32.677 36.6861 32.677 36.3361 32.974L35.9331 33.3134V29.5376C35.9331 26.3876 38.4998 23.821 41.6498 23.821C44.7998 23.821 47.3664 26.3876 47.3664 29.5376C47.3664 30.0467 47.7801 30.471 48.2998 30.471C48.321 30.471 48.3316 30.4604 48.3528 30.4604C48.374 30.4604 48.3846 30.471 48.4058 30.471H48.427C48.9361 30.4604 49.3391 30.0361 49.3285 29.5164C49.3179 29.2407 49.3073 28.9755 49.2967 28.6998C49.6998 25.9422 52.0649 23.8104 54.9285 23.8104C57.124 23.8104 59.1498 25.1043 60.0937 27.1089C60.2846 27.5119 60.7194 27.7134 61.1649 27.6179C61.5998 27.5119 61.8861 27.1089 61.8649 26.6634C61.1013 12.3876 49.2967 1.19824 34.9998 1.19824C20.7028 1.19824 8.89824 12.3876 8.13461 26.674C8.11339 27.1195 8.39976 27.5119 8.83461 27.6285C9.25885 27.7346 9.71491 27.5225 9.90582 27.1195C10.8498 25.1149 12.8755 23.821 15.071 23.821C17.9346 23.821 20.2998 25.9528 20.7028 28.7104C20.6922 28.9755 20.6816 29.2513 20.671 29.5164C20.6604 30.0255 21.0634 30.4498 21.5725 30.471C21.5937 30.471 21.6149 30.4604 21.6361 30.4604C21.6573 30.4604 21.6891 30.471 21.7104 30.471C22.2195 30.471 22.6437 30.0573 22.6437 29.5376C22.6437 26.3876 25.2104 23.821 28.3604 23.821C31.5104 23.821 34.077 26.3876 34.077 29.5376V33.324L33.6634 32.974C33.3134 32.677 32.8149 32.677 32.4649 32.974L31.1285 34.1089L29.7922 32.974C29.474 32.7089 29.0285 32.677 28.6785 32.9104C28.3285 33.1437 28.1801 33.5679 28.3073 33.9604L29.9937 39.3801C28.6573 39.6028 27.6285 40.7695 27.6285 42.1695C27.6285 42.7104 27.7876 43.2088 28.0528 43.6331C25.4013 45.0543 23.3013 47.2179 21.9649 49.8058H14.8801C14.0634 49.8058 13.3952 50.474 13.3952 51.2907V55.1619H5.54673C4.73006 55.1619 4.06188 55.8301 4.06188 56.6467V60.5285H2.68309C1.86642 60.5285 1.19824 61.1967 1.19824 62.0134V66.2558C1.19824 67.0725 1.86642 67.7407 2.68309 67.7407H14.6361C14.8376 67.7407 15.0179 67.6982 15.1876 67.6346C15.3573 67.7089 15.5482 67.7407 15.7392 67.7407H25.4543C26.3346 68.4195 27.427 68.8013 28.5937 68.8013H41.4058C42.5725 68.8013 43.6649 68.4195 44.5452 67.7407H54.2498C54.4513 67.7407 54.6316 67.6982 54.8013 67.6346C54.971 67.7089 55.1619 67.7407 55.3528 67.7407H67.3164C68.1331 67.7407 68.8013 67.0725 68.8013 66.2558V62.0134C68.8119 61.1967 68.1437 60.5285 67.327 60.5285ZM64.0816 60.5285H55.3634H52.871V57.0285H64.0816V60.5285ZM51.0149 57.0179V60.5179H49.1588C49.477 59.3831 49.6573 58.2058 49.6998 57.0179H51.0149ZM48.5119 62.3846H51.3755C51.577 62.3846 51.7573 62.3422 51.927 62.2785C52.0967 62.3528 52.2876 62.3846 52.4785 62.3846H53.8573V65.8846H46.3588C47.2498 64.8134 47.971 63.6467 48.5119 62.3846ZM54.7588 51.6619V55.1619H52.4998C52.2982 55.1619 52.1179 55.2043 51.9482 55.2679C51.7785 55.1937 51.5876 55.1619 51.3967 55.1619H49.6361C49.5195 53.9528 49.2543 52.7755 48.8619 51.6619H54.7588ZM41.6498 21.9649C39.3588 21.9649 37.3225 22.9937 35.9331 24.6058V3.13915C41.2573 4.06188 45.8073 12.8543 47.1225 24.2982C45.7331 22.8558 43.7922 21.9649 41.6498 21.9649ZM59.6482 23.6195C58.3331 22.5695 56.6785 21.9543 54.9391 21.9543C52.5528 21.9543 50.4316 23.0679 49.0422 24.8073C48.0982 15.2513 45.0649 7.58309 40.9498 3.78612C50.4528 6.10885 57.877 13.8301 59.6482 23.6195ZM15.0604 21.9649C13.3316 21.9649 11.677 22.5695 10.3513 23.6301C12.1225 13.8407 19.5467 6.10885 29.0498 3.78612C24.9346 7.58309 21.9013 15.2619 20.9573 24.8073C19.5679 23.0785 17.4467 21.9649 15.0604 21.9649ZM28.3498 21.9649C26.2073 21.9649 24.2664 22.8664 22.877 24.2982C24.1922 12.8543 28.7422 4.06188 34.0664 3.13915V24.5952C32.677 22.9937 30.6407 21.9649 28.3498 21.9649ZM31.7225 36.0285L33.0588 34.8937L34.3952 36.0285C34.4588 36.0816 34.5225 36.1134 34.5967 36.1452C34.6179 36.1558 34.6392 36.1664 34.6604 36.177C34.7664 36.2195 34.8831 36.2513 34.9998 36.2513H35.0104C35.0422 36.2513 35.0634 36.2407 35.0952 36.2301C35.1801 36.2195 35.2543 36.2089 35.3391 36.177C35.4028 36.1558 35.4558 36.1134 35.5195 36.071C35.5513 36.0498 35.5831 36.0392 35.6043 36.0179L35.6573 35.9755C35.6679 35.9649 35.6679 35.9649 35.6785 35.9649L36.9513 34.8937L38.2982 36.0285C38.521 36.2195 38.8073 36.2831 39.0725 36.2301L38.1073 39.327H31.9346L30.9695 36.2301C31.2134 36.2831 31.4998 36.2089 31.7225 36.0285ZM30.4604 41.1831H31.2346H38.7755H39.5498C40.0907 41.1831 40.5361 41.6285 40.5361 42.1695C40.5361 42.5619 40.3028 42.9013 39.9634 43.0498C39.8255 43.1134 39.6876 43.1452 39.5498 43.1452H30.4604C30.3225 43.1452 30.1846 43.1134 30.0467 43.0498C29.7073 42.8907 29.474 42.5619 29.474 42.1695C29.474 41.6285 29.9195 41.1831 30.4604 41.1831ZM18.9846 57.0179H20.2998C20.3316 58.2164 20.5225 59.3831 20.8301 60.5179H18.9846V57.0179ZM21.1376 51.6619C20.7452 52.7861 20.4801 53.9528 20.3528 55.1619H18.6134C18.4119 55.1619 18.2316 55.2043 18.0619 55.2679C17.8922 55.1937 17.7013 55.1619 17.5104 55.1619H15.2407V51.6619H21.1376ZM5.91794 57.0179H17.1285V60.5179H5.91794V57.0179ZM3.0543 62.3846H5.54673H14.2649V65.8846H3.0543V62.3846ZM16.121 62.3846H21.4876C22.0285 63.6467 22.7498 64.824 23.6301 65.8846H16.121V62.3846ZM28.5937 66.9452C27.7664 66.9452 27.0134 66.6695 26.4301 66.171C26.4088 66.1498 26.3876 66.1392 26.3664 66.1179C23.6725 63.6785 22.1346 60.2104 22.1346 56.5937C22.1346 51.5346 25.0725 46.974 29.6649 44.8846C29.6861 44.8952 29.7073 44.8846 29.7285 44.8952C29.9619 44.9589 30.2058 45.0013 30.4604 45.0013H39.5498C39.8043 45.0013 40.0482 44.9589 40.2816 44.8952C40.3028 44.8846 40.324 44.8952 40.3452 44.8846C44.927 46.974 47.8755 51.5346 47.8755 56.5937C47.8755 58.121 47.5891 59.627 47.0588 61.0376C47.0376 61.0801 47.0164 61.1331 47.0058 61.1755C46.2846 63.0422 45.1498 64.7498 43.6331 66.1179C43.6119 66.1392 43.5907 66.1498 43.5801 66.1604C43.0073 66.6589 42.2437 66.9346 41.4164 66.9346H28.5937V66.9452ZM66.9558 65.8846H55.7346V62.3846H64.4528H66.9452V65.8846H66.9558Z" fill="white"/>
<path d="M35.533 59.9934C35.4594 59.9929 35.3867 59.9773 35.3193 59.9475C35.252 59.9176 35.1914 59.8742 35.1415 59.8199L32.1556 56.5905C32.0559 56.4893 32 56.3526 32 56.2102C32 56.0678 32.0559 55.9311 32.1556 55.8299C32.2527 55.7386 32.381 55.6885 32.5139 55.6898H33.9936C34.2429 55.6853 34.4859 55.6104 34.6948 55.4735C34.9037 55.3366 35.07 55.1433 35.1747 54.9158H33.0447C32.9133 54.901 32.7919 54.8381 32.7038 54.739C32.6156 54.6399 32.5669 54.5116 32.5669 54.3787C32.5669 54.2457 32.6156 54.1174 32.7038 54.0183C32.7919 53.9192 32.9133 53.8563 33.0447 53.8415H35.2078C35.1022 53.6152 34.9355 53.4233 34.7267 53.2877C34.5178 53.152 34.2753 53.078 34.0268 53.0742H32.5471C32.4157 53.0595 32.2943 52.9965 32.2061 52.8975C32.118 52.7984 32.0692 52.6701 32.0692 52.5371C32.0692 52.4042 32.118 52.2759 32.2061 52.1768C32.2943 52.0777 32.4157 52.0147 32.5471 52H37.1918C37.3232 52.0147 37.4446 52.0777 37.5327 52.1768C37.6209 52.2759 37.6696 52.4042 37.6696 52.5371C37.6696 52.6701 37.6209 52.7984 37.5327 52.8975C37.4446 52.9965 37.3232 53.0595 37.1918 53.0742H36.0041C36.158 53.308 36.2682 53.568 36.3292 53.8415H37.2051C37.3365 53.8563 37.4578 53.9192 37.546 54.0183C37.6342 54.1174 37.6829 54.2457 37.6829 54.3787C37.6829 54.5116 37.6342 54.6399 37.546 54.739C37.4578 54.8381 37.3365 54.901 37.2051 54.9158H36.3358C36.2146 55.4405 35.9205 55.9087 35.5014 56.2442C35.0822 56.5797 34.5625 56.7629 34.0268 56.764H33.7746L35.9576 59.126C36.0569 59.226 36.1126 59.3616 36.1126 59.5029C36.1126 59.6443 36.0569 59.7799 35.9576 59.8799C35.8986 59.9275 35.8303 59.9621 35.7572 59.9817C35.6841 60.0012 35.6077 60.0052 35.533 59.9934Z" fill="white"/>
</svg>
