<svg width="70" height="70" viewBox="0 0 70 70" fill="none" xmlns="http://www.w3.org/2000/svg">
<path d="M6.22363 56.3936C6.23163 56.9781 6.36346 57.5542 6.61044 58.084C6.85742 58.6137 7.21393 59.0851 7.65645 59.467C7.03224 60.0263 6.5917 60.7612 6.39264 61.5753C6.19357 62.3895 6.24528 63.2447 6.54099 64.0289C6.83669 64.8132 7.36257 65.4896 8.04961 65.9696C8.73665 66.4496 9.55275 66.7107 10.3908 66.7186H55.1252C56.1639 66.7346 57.1698 66.3547 57.9387 65.6562C58.7076 64.9577 59.1819 63.9927 59.2654 62.9573C59.349 61.9218 59.0354 60.8933 58.3883 60.0806C57.7413 59.2679 56.8093 58.7318 55.7814 58.5811L56.2736 53.4514C59.2304 51.6432 61.5135 48.9163 62.7736 45.6877C64.0338 42.459 64.2016 38.9065 63.2514 35.5735C62.3013 32.2404 60.2854 29.3104 57.5122 27.2316C54.7391 25.1527 51.3613 24.0396 47.8955 24.0623C47.3841 24.0603 46.8729 24.0859 46.3643 24.1389C46.029 23.7292 45.6634 23.3453 45.2705 22.9905C45.7214 22.6684 46.0814 22.2354 46.3156 21.7333C46.5498 21.2312 46.6504 20.6771 46.6075 20.1247C46.5645 19.5723 46.3796 19.0404 46.0707 18.5805C45.7617 18.1206 45.3391 17.7484 44.8439 17.4998C44.9207 17.348 44.9865 17.1908 45.0408 17.0295L47.5018 9.67952C47.7624 8.70176 47.7427 7.67037 47.4448 6.70329C47.147 5.7362 46.583 4.87244 45.8174 4.21077C45.2233 3.69302 44.4825 3.37363 43.6982 3.29716C42.9139 3.22069 42.1253 3.39096 41.4424 3.78421C33.633 7.9514 32.4736 6.82484 31.1283 5.51234C30.3567 4.65174 29.3606 4.02304 28.2518 3.69671C27.6245 3.53235 26.9637 3.54775 26.3447 3.74116C25.7258 3.93457 25.1738 4.29819 24.7518 4.79046C24.1639 5.43329 23.7538 6.21829 23.562 7.068C23.3702 7.91771 23.4033 8.80275 23.658 9.63577L26.1189 16.9858C26.1498 17.1602 26.1937 17.332 26.2502 17.4998C25.6968 17.7633 25.2283 18.1766 24.8977 18.6927C24.5672 19.2089 24.3878 19.8073 24.3799 20.4201C24.3835 20.9417 24.5114 21.4548 24.753 21.917C24.9946 22.3792 25.3429 22.7772 25.7689 23.078C25.1407 23.6609 24.5861 24.3183 24.1174 25.0358L20.0814 31.2811C19.8846 31.5764 19.7096 31.8827 19.5346 32.1889C17.7067 31.3293 15.6305 31.1562 13.6855 31.7013C11.7404 32.2464 10.0566 33.4733 8.94164 35.1576C7.82669 36.842 7.35515 38.8714 7.61321 40.8747C7.87127 42.8781 8.84168 44.7218 10.3471 46.0686C9.24946 46.0801 8.20073 46.5242 7.42867 47.3045C6.6566 48.0847 6.22357 49.1381 6.22363 50.2358C6.23023 50.8205 6.36144 51.3971 6.60852 51.927C6.85559 52.457 7.21284 52.9282 7.65645 53.3092C7.21364 53.6932 6.85706 54.1666 6.61012 54.6981C6.36318 55.2297 6.23147 55.8075 6.22363 56.3936ZM8.41113 56.3936C8.41112 55.8675 8.61935 55.3629 8.9903 54.9899C9.36125 54.6169 9.86477 54.4059 10.3908 54.403H17.1939C16.5613 55.6033 16.231 56.9398 16.2314 58.2967C16.2314 58.2967 16.2314 58.3514 16.2314 58.3733H10.3908C9.86577 58.3733 9.36223 58.1647 8.99097 57.7934C8.61971 57.4222 8.41113 56.9186 8.41113 56.3936ZM24.6643 52.0186C25.8995 52.0186 27.1069 52.3849 28.134 53.0711C29.161 53.7574 29.9615 54.7327 30.4342 55.8739C30.9069 57.0151 31.0305 58.2708 30.7896 59.4823C30.5486 60.6938 29.9538 61.8066 29.0804 62.68C28.2069 63.5534 27.0941 64.1482 25.8827 64.3892C24.6712 64.6302 23.4155 64.5065 22.2743 64.0338C21.1331 63.5611 20.1577 62.7606 19.4715 61.7336C18.7852 60.7066 18.4189 59.4991 18.4189 58.2639C18.4276 56.6132 19.0894 55.0331 20.2597 53.869C21.43 52.7049 23.0136 52.0514 24.6643 52.0514V52.0186ZM10.3908 64.5311C9.88978 64.4939 9.42134 64.2686 9.07949 63.9004C8.73763 63.5322 8.54765 63.0484 8.54765 62.5459C8.54765 62.0435 8.73763 61.5597 9.07949 61.1915C9.42134 60.8233 9.88978 60.598 10.3908 60.5608H16.5596C16.9818 62.093 17.8361 63.4713 19.0205 64.5311H10.3908ZM61.5893 39.9764C61.5828 42.6834 60.7741 45.3277 59.2655 47.5753C57.7569 49.8229 55.616 51.5729 53.1132 52.6044C50.6104 53.6358 47.8581 53.9023 45.2039 53.3702C42.5498 52.8381 40.1128 51.5313 38.201 49.6149C36.2892 47.6985 34.9883 45.2585 34.4625 42.6031C33.9368 39.9476 34.2099 37.196 35.2473 34.6957C36.2847 32.1954 38.0399 30.0586 40.2911 28.5554C42.5423 27.0521 45.1885 26.2498 47.8955 26.2498C49.6962 26.2513 51.4789 26.6075 53.1418 27.2983C54.8047 27.989 56.3151 29.0007 57.5869 30.2754C58.8586 31.5502 59.8666 33.0631 60.5534 34.7277C61.2401 36.3922 61.5921 38.1758 61.5893 39.9764ZM42.733 21.3826H27.6502C27.4872 21.4302 27.3153 21.4391 27.1483 21.4088C26.9812 21.3784 26.8235 21.3095 26.6877 21.2076C26.5519 21.1058 26.4416 20.9737 26.3657 20.8218C26.2897 20.6699 26.2502 20.5024 26.2502 20.3326C26.2502 20.1628 26.2897 19.9954 26.3657 19.8435C26.4416 19.6916 26.5519 19.5595 26.6877 19.4576C26.8235 19.3558 26.9812 19.2869 27.1483 19.2565C27.3153 19.2262 27.4872 19.2351 27.6502 19.2826H43.4658C43.693 19.3489 43.8926 19.4871 44.0346 19.6764C44.1766 19.8657 44.2533 20.096 44.2533 20.3326C44.2533 20.5693 44.1766 20.7996 44.0346 20.9889C43.8926 21.1782 43.693 21.3164 43.4658 21.3826H42.733ZM25.7033 8.94671C25.5711 8.48717 25.557 8.00172 25.6621 7.53525C25.7672 7.06877 25.9883 6.63635 26.3049 6.27796C26.463 6.08238 26.6732 5.93549 26.9113 5.85421C27.1493 5.77293 27.4055 5.76058 27.6502 5.81859C28.3833 6.05778 29.035 6.49724 29.5314 7.08734C31.7189 9.1764 33.9064 10.303 42.4268 5.73109C42.7264 5.53545 43.0827 5.44536 43.4393 5.47507C43.7959 5.50479 44.1324 5.65262 44.3955 5.89515C44.8128 6.27368 45.1255 6.75327 45.3037 7.28774C45.4818 7.8222 45.5194 8.39353 45.4127 8.94671L42.9627 16.2967C42.8783 16.5428 42.719 16.7563 42.5072 16.9073C42.2953 17.0583 42.0416 17.1393 41.7814 17.1389H29.3346C29.0744 17.1393 28.8207 17.0583 28.6089 16.9073C28.397 16.7563 28.2378 16.5428 28.1533 16.2967L25.7033 8.94671ZM21.8752 32.4623L25.9439 26.1842C26.624 25.1298 27.5418 24.2495 28.6236 23.6139H42.4049C42.9039 23.9094 43.3696 24.2577 43.7939 24.653C41.7315 25.2458 39.8107 26.2508 38.1477 27.6072C36.4847 28.9636 35.1141 30.6431 34.1187 32.5442C33.1233 34.4454 32.5238 36.5287 32.3565 38.6681C32.1892 40.8076 32.4575 42.9587 33.1452 44.9915C33.8329 47.0243 34.9257 48.8965 36.3576 50.4949C37.7895 52.0933 39.5307 53.3847 41.4759 54.2911C43.4211 55.1974 45.5299 55.6998 47.6748 55.7679C49.8197 55.836 51.9561 55.4684 53.9549 54.6873L53.4846 59.5545C53.4709 59.7062 53.489 59.8591 53.5378 60.0034C53.5866 60.1477 53.665 60.2801 53.7679 60.3924C53.8709 60.5046 53.9962 60.5941 54.1357 60.6551C54.2753 60.7161 54.426 60.7473 54.5783 60.7467H55.1361C55.3989 60.7268 55.663 60.7614 55.9118 60.8483C56.1606 60.9352 56.3888 61.0725 56.582 61.2517C56.7753 61.4308 56.9295 61.648 57.0349 61.8895C57.1404 62.1311 57.1948 62.3918 57.1948 62.6553C57.1948 62.9188 57.1404 63.1796 57.0349 63.4211C56.9295 63.6626 56.7753 63.8798 56.582 64.0589C56.3888 64.2381 56.1606 64.3755 55.9118 64.4623C55.663 64.5492 55.3989 64.5838 55.1361 64.5639H30.308C31.504 63.4851 32.3652 62.0855 32.789 60.5315C33.2128 58.9776 33.1816 57.3346 32.6989 55.7979C32.2162 54.2612 31.3025 52.8954 30.0662 51.8629C28.83 50.8303 27.3233 50.1745 25.7252 49.9733C25.6537 48.9304 25.1919 47.9527 24.4317 47.2351C23.6716 46.5175 22.6689 46.1127 21.6236 46.1014C22.5211 45.2957 23.2346 44.3062 23.7155 43.2002C24.1964 42.0941 24.4335 40.8975 24.4107 39.6917C24.3878 38.4858 24.1056 37.299 23.5832 36.212C23.0607 35.125 22.3103 34.1632 21.383 33.392C21.558 33.0639 21.7221 32.8123 21.8752 32.4623ZM9.74551 39.8233C9.7484 38.1688 10.4077 36.5831 11.5786 35.4142C12.7495 34.2454 14.3364 33.5889 15.9908 33.5889C17.1913 33.5883 18.3659 33.938 19.3705 34.5951C20.4891 35.332 21.3407 36.4096 21.799 37.6683C22.2573 38.927 22.2981 40.2998 21.9152 41.5834C21.5323 42.8671 20.7462 43.9932 19.6732 44.7952C18.6002 45.5971 17.2975 46.0321 15.958 46.0358C14.3139 46.0243 12.7404 45.3661 11.5778 44.2035C10.4152 43.0409 9.75697 41.4674 9.74551 39.8233ZM10.3908 48.2561H21.5799C22.0554 48.2564 22.515 48.4279 22.8745 48.7392C23.234 49.0505 23.4694 49.4808 23.5377 49.9514C21.7693 50.1875 20.1221 50.9805 18.8346 52.2155H10.3908C9.86577 52.2155 9.36223 52.0069 8.99097 51.6356C8.61971 51.2644 8.41113 50.7608 8.41113 50.2358C8.41113 49.7107 8.61971 49.2072 8.99097 48.8359C9.36223 48.4647 9.86577 48.2561 10.3908 48.2561Z" fill="white"/>
<path d="M47.9067 51.4061C50.1725 51.4061 52.3874 50.7339 54.2711 49.4746C56.1547 48.2153 57.6225 46.4255 58.4886 44.3318C59.3547 42.238 59.5802 39.9343 59.1366 37.7124C58.6929 35.4904 57.6001 33.4499 55.9964 31.8493C54.3927 30.2486 52.3501 29.1597 50.1273 28.7203C47.9045 28.2809 45.6013 28.5108 43.5092 29.3809C41.417 30.251 39.6301 31.7222 38.3744 33.6083C37.1187 35.4944 36.4508 37.7105 36.4551 39.9764C36.4638 43.0088 37.6738 45.9143 39.8201 48.0565C41.9664 50.1988 44.8742 51.4032 47.9067 51.4061ZM47.9067 30.6904C49.7389 30.6904 51.53 31.2338 53.0535 32.2517C54.577 33.2697 55.7644 34.7165 56.4655 36.4093C57.1667 38.1021 57.3502 39.9648 56.9927 41.7618C56.6353 43.5589 55.7529 45.2096 54.4573 46.5052C53.1617 47.8008 51.511 48.6831 49.714 49.0406C47.9169 49.398 46.0542 49.2145 44.3615 48.5134C42.6687 47.8122 41.2218 46.6248 40.2039 45.1013C39.1859 43.5779 38.6426 41.7868 38.6426 39.9545C38.6513 37.5022 39.6308 35.1531 41.3669 33.4211C43.103 31.6891 45.4543 30.7152 47.9067 30.7123V30.6904Z" fill="white"/>
<path d="M24.6639 63.0875C25.614 63.0875 26.5428 62.8056 27.3326 62.2775C28.1225 61.7494 28.7379 60.9989 29.101 60.1209C29.4641 59.2429 29.5585 58.2769 29.3724 57.3452C29.1862 56.4135 28.7278 55.5579 28.0552 54.8869C27.3826 54.2158 26.526 53.7593 25.5939 53.5753C24.6618 53.3913 23.696 53.4879 22.8188 53.853C21.9416 54.2181 21.1925 54.8353 20.6662 55.6263C20.1399 56.4174 19.8602 57.3468 19.8623 58.2969C19.8652 59.5684 20.3724 60.7869 21.2725 61.685C22.1727 62.5831 23.3923 63.0875 24.6639 63.0875ZM24.6639 55.6828C25.1809 55.6828 25.6863 55.8361 26.1162 56.1234C26.5461 56.4106 26.8811 56.8189 27.079 57.2965C27.2768 57.7742 27.3286 58.2998 27.2277 58.8069C27.1269 59.3139 26.8779 59.7797 26.5123 60.1453C26.1467 60.5109 25.6809 60.7598 25.1739 60.8607C24.6668 60.9616 24.1412 60.9098 23.6635 60.712C23.1859 60.5141 22.7776 60.1791 22.4904 59.7492C22.2031 59.3193 22.0498 58.8139 22.0498 58.2969C22.0498 57.9536 22.1174 57.6137 22.2488 57.2965C22.3802 56.9794 22.5727 56.6912 22.8155 56.4485C23.0582 56.2057 23.3464 56.0132 23.6635 55.8818C23.9807 55.7504 24.3206 55.6828 24.6639 55.6828Z" fill="white"/>
<path d="M15.991 44.6246C16.9407 44.6246 17.869 44.343 18.6586 43.8154C19.4482 43.2878 20.0637 42.5379 20.4271 41.6605C20.7905 40.7832 20.8856 39.8177 20.7003 38.8863C20.515 37.9549 20.0577 37.0993 19.3862 36.4278C18.7147 35.7563 17.8592 35.299 16.9278 35.1137C15.9963 34.9285 15.0309 35.0236 14.1535 35.387C13.2762 35.7504 12.5263 36.3658 11.9987 37.1554C11.4711 37.9451 11.1895 38.8734 11.1895 39.8231C11.1895 41.0965 11.6953 42.3178 12.5958 43.2183C13.4963 44.1187 14.7176 44.6246 15.991 44.6246ZM15.991 37.2199C16.5085 37.2199 17.0143 37.3735 17.4444 37.6612C17.8746 37.949 18.2096 38.3579 18.4071 38.8362C18.6046 39.3145 18.6558 39.8406 18.554 40.348C18.4523 40.8554 18.2022 41.3211 17.8355 41.6863C17.4689 42.0514 17.0021 42.2995 16.4943 42.3991C15.9865 42.4988 15.4605 42.4454 14.9831 42.2459C14.5056 42.0464 14.0981 41.7096 13.8122 41.2783C13.5263 40.847 13.3748 40.3405 13.377 39.8231C13.3741 39.4779 13.4395 39.1357 13.5696 38.816C13.6997 38.4963 13.8918 38.2055 14.1348 37.9605C14.3778 37.7154 14.667 37.5209 14.9856 37.3882C15.3042 37.2554 15.6459 37.1871 15.991 37.1871V37.2199Z" fill="white"/>
<path d="M49.5321 45.2539C49.4377 45.2534 49.3444 45.2333 49.258 45.195C49.1717 45.1568 49.094 45.1011 49.0299 45.0314L45.1996 40.8887C45.0717 40.7589 45 40.5836 45 40.4008C45 40.2181 45.0717 40.0428 45.1996 39.913C45.3242 39.7959 45.4888 39.7316 45.6592 39.7332H47.5574C47.8772 39.7276 48.1889 39.6314 48.4569 39.4558C48.7248 39.2802 48.9382 39.0323 49.0725 38.7404H46.3402C46.1716 38.7214 46.0159 38.6407 45.9028 38.5136C45.7897 38.3865 45.7272 38.2219 45.7272 38.0514C45.7272 37.8808 45.7897 37.7162 45.9028 37.5891C46.0159 37.462 46.1716 37.3813 46.3402 37.3623H49.115C48.9795 37.072 48.7656 36.8258 48.4978 36.6518C48.2299 36.4778 47.9188 36.3829 47.5999 36.378H45.7018C45.5332 36.3591 45.3775 36.2784 45.2644 36.1513C45.1513 36.0241 45.0888 35.8596 45.0888 35.689C45.0888 35.5185 45.1513 35.3539 45.2644 35.2268C45.3775 35.0997 45.5332 35.0189 45.7018 35H51.66C51.8286 35.0189 51.9843 35.0997 52.0974 35.2268C52.2105 35.3539 52.273 35.5185 52.273 35.689C52.273 35.8596 52.2105 36.0241 52.0974 36.1513C51.9843 36.2784 51.8286 36.3591 51.66 36.378H50.1364C50.3339 36.6779 50.4753 37.0114 50.5535 37.3623H51.6771C51.8456 37.3813 52.0013 37.462 52.1144 37.5891C52.2275 37.7162 52.29 37.8808 52.29 38.0514C52.29 38.2219 52.2275 38.3865 52.1144 38.5136C52.0013 38.6407 51.8456 38.7214 51.6771 38.7404H50.562C50.4065 39.4135 50.0293 40.0141 49.4916 40.4445C48.9538 40.8749 48.2872 41.1099 47.5999 41.1113H47.2765L50.0769 44.1412C50.2042 44.2696 50.2757 44.4435 50.2757 44.6248C50.2757 44.8061 50.2042 44.98 50.0769 45.1084C50.0011 45.1694 49.9135 45.2139 49.8197 45.2389C49.7259 45.264 49.628 45.2691 49.5321 45.2539Z" fill="white"/>
</svg>
