<svg width="70" height="70" viewBox="0 0 70 70" fill="none" xmlns="http://www.w3.org/2000/svg">
<path d="M32.9524 29.6694L38.0616 24.5642C38.5469 24.8178 39.0902 24.975 39.6748 24.975C40.2598 24.975 40.8034 24.8176 41.2889 24.5636L44.4174 27.6923C44.1634 28.1778 44.0061 28.7214 44.0061 29.3062C44.0061 31.2425 45.5811 32.8179 47.5177 32.8179C49.4543 32.8179 51.03 31.2425 51.03 29.3062C51.03 28.7219 50.8729 28.1788 50.6193 27.6937L57.6566 20.6502C58.1426 20.9049 58.687 21.0628 59.2728 21.0628C61.2094 21.0628 62.7844 19.4875 62.7844 17.5512C62.7844 15.6149 61.2094 14.0396 59.2728 14.0396C57.3362 14.0396 55.7612 15.6149 55.7612 17.5512C55.7612 18.1358 55.9184 18.6791 56.1721 19.1645L49.1351 26.2077C48.6487 25.9527 48.1039 25.7946 47.5177 25.7946C46.932 25.7946 46.3877 25.9525 45.9017 26.2072L42.7741 23.0792C43.0287 22.5934 43.1865 22.049 43.1865 21.4634C43.1865 19.5271 41.6115 17.9518 39.6748 17.9518C37.7382 17.9518 36.1632 19.5271 36.1632 21.4634C36.1632 22.0492 36.321 22.5935 36.5758 23.0796L31.3359 28.3156C30.2133 27.4366 29.0177 26.6221 27.7596 25.8842C28.0234 25.3865 28.187 24.8282 28.187 24.2268C28.187 22.9663 27.5264 21.8623 26.5372 21.227L30.1264 16.4472C30.7252 15.6426 30.8175 14.5851 30.3663 13.6872C29.9172 12.7923 29.0169 12.2362 28.0168 12.2362H27.0862C26.9922 11.7922 26.802 11.3701 26.5034 11.0109C25.9633 10.3615 25.171 9.98926 24.3282 9.98926H20.0441C19.2012 9.98926 18.4089 10.3615 17.8689 11.0109C17.5703 11.3701 17.3801 11.7922 17.286 12.2362H16.3547C15.3546 12.2362 14.4543 12.7923 14.0052 13.6878C13.554 14.5857 13.6463 15.6433 14.2486 16.4509L17.8353 21.2272C16.8463 21.8626 16.1859 22.9666 16.1859 24.2268C16.1859 24.8279 16.3494 25.3862 16.613 25.8837C6.65773 31.7224 0.677443 42.4316 2.90502 50.7335C4.49506 56.6609 10.134 60.0078 18.4212 60.0075C18.7617 60.0075 19.1069 60.0017 19.4562 59.9904L24.8819 59.9897C33.7631 60.284 39.8116 56.9043 41.4672 50.7335C43.2729 44.0018 39.6824 35.6869 32.9524 29.6694ZM59.2728 16.1396C60.0514 16.1396 60.6844 16.7729 60.6844 17.5512C60.6844 18.3294 60.0514 18.9628 59.2728 18.9628C58.4942 18.9628 57.8612 18.3294 57.8612 17.5512C57.8612 16.7729 58.4942 16.1396 59.2728 16.1396ZM47.5177 27.8946C48.2963 27.8946 48.93 28.528 48.93 29.3062C48.93 30.0845 48.2963 30.7179 47.5177 30.7179C46.7391 30.7179 46.1061 30.0845 46.1061 29.3062C46.1061 28.528 46.7391 27.8946 47.5177 27.8946ZM39.6748 20.0518C40.4535 20.0518 41.0865 20.6851 41.0865 21.4634C41.0865 22.2417 40.4535 22.875 39.6748 22.875C38.8962 22.875 38.2632 22.2417 38.2632 21.4634C38.2632 20.6851 38.8962 20.0518 39.6748 20.0518ZM18.2859 24.2268C18.2859 23.4164 18.9449 22.7571 19.7556 22.7571H24.4797C24.4809 22.7571 24.4821 22.7574 24.4833 22.7574C24.484 22.7574 24.4846 22.7571 24.4853 22.7571H24.6173C25.4281 22.7571 26.087 23.4164 26.087 24.2268C26.087 25.0369 25.4281 25.6962 24.6173 25.6962H19.7556C18.9449 25.6962 18.2859 25.0369 18.2859 24.2268ZM28.4899 14.6298C28.535 14.7194 28.6204 14.9535 28.4448 15.1897L26.2104 18.165L26.9243 14.3362H28.0168C28.3108 14.3362 28.4454 14.5417 28.4899 14.6298ZM19.4842 12.3531C19.5662 12.2547 19.7481 12.0893 20.0441 12.0893H24.3282C24.6242 12.0893 24.806 12.2547 24.888 12.3531C24.9701 12.4522 25.0999 12.6618 25.0459 12.9537L25.0262 13.0593C25.0235 13.0716 25.0216 13.0842 25.0193 13.0967L23.6096 20.6571H20.7626L19.3531 13.0979C19.3507 13.0847 19.3487 13.0716 19.3458 13.0584L19.3263 12.954C19.2723 12.6618 19.4022 12.4522 19.4842 12.3531ZM15.8817 14.6298C15.9261 14.5417 16.0608 14.3362 16.3547 14.3362H17.4479L18.1617 18.1649L15.9302 15.1931C15.7518 14.9535 15.8372 14.7194 15.8817 14.6298ZM39.439 50.1894C38.0369 55.4134 32.8956 58.1491 24.9161 57.8904L19.422 57.8911C11.4807 58.143 6.33392 55.4137 4.93324 50.1894C2.9392 42.7566 8.85677 32.6477 18.1759 27.411C18.6543 27.6496 19.1858 27.7962 19.7556 27.7962H24.6173C25.1868 27.7962 25.7182 27.6497 26.1964 27.4113C27.475 28.13 28.6909 28.938 29.8298 29.8205L29.194 30.4557C28.7088 30.2023 28.1658 30.0452 27.5814 30.0452C25.6448 30.0452 24.0698 31.6206 24.0698 33.5568C24.0698 35.4935 25.6448 37.0688 27.5814 37.0688C29.518 37.0688 31.093 35.4935 31.093 33.5568C31.093 32.9708 30.935 32.4262 30.6801 31.94L31.4518 31.1689C37.6068 36.6696 41.0251 44.2773 39.439 50.1894ZM28.993 33.5568C28.993 34.3354 28.36 34.9688 27.5814 34.9688C26.8028 34.9688 26.1698 34.3354 26.1698 33.5568C26.1698 32.7786 26.8028 32.1452 27.5814 32.1452C28.36 32.1452 28.993 32.7786 28.993 33.5568Z" fill="white"/>
<path d="M60.25 27.9587V47.3461H58.2854V35.9448C58.2854 34.9871 57.5061 34.2078 56.5483 34.2078H54.1441C53.1864 34.2078 52.4071 34.9871 52.4071 35.9448V47.3461H50.4425V42.6139C50.4425 41.6562 49.6632 40.8769 48.7055 40.8769H46.3013C45.3436 40.8769 44.5643 41.6562 44.5643 42.6139V47.3461H44.1828C43.6031 47.3461 43.1328 47.8161 43.1328 48.3961C43.1328 48.9761 43.6031 49.4461 44.1828 49.4461H45.6143H49.3925H53.4571H57.2354H61.3H65.0782H66.5097C67.0894 49.4461 67.5597 48.9761 67.5597 48.3961C67.5597 47.8161 67.0894 47.3461 66.5097 47.3461H66.1282V27.9587C66.1282 27.001 65.3489 26.2217 64.3912 26.2217H61.987C61.0293 26.2217 60.25 27.001 60.25 27.9587ZM46.6643 47.3461V42.9769H48.3425V47.3461H46.6643ZM54.5071 47.3461V36.3078H56.1854V47.3461H54.5071ZM62.35 28.3217H64.0282V47.3461H62.35V28.3217Z" fill="white"/>
<path d="M22.1868 37.8574C17.2759 37.8574 13.2803 41.853 13.2803 46.7643C13.2803 51.6752 17.2759 55.6708 22.1868 55.6708C27.0978 55.6708 31.0934 51.6752 31.0934 46.7643C31.0934 41.853 27.0978 37.8574 22.1868 37.8574ZM22.1868 53.5708C18.4339 53.5708 15.3803 50.5176 15.3803 46.7643C15.3803 43.011 18.4339 39.9574 22.1868 39.9574C25.9397 39.9574 28.9934 43.011 28.9934 46.7643C28.9934 50.5176 25.9397 53.5708 22.1868 53.5708Z" fill="white"/>
<path d="M44.1828 51.9834C43.6031 51.9834 43.1328 52.4534 43.1328 53.0334C43.1328 53.6134 43.6031 54.0834 44.1828 54.0834H53.4571C54.0368 54.0834 54.5071 53.6134 54.5071 53.0334C54.5071 52.4534 54.0368 51.9834 53.4571 51.9834H44.1828Z" fill="white"/>
<path d="M66.5096 51.9834H59.2102C58.6305 51.9834 58.1602 52.4534 58.1602 53.0334C58.1602 53.6134 58.6305 54.0834 59.2102 54.0834H66.5096C67.0893 54.0834 67.5596 53.6134 67.5596 53.0334C67.5596 52.4534 67.0893 51.9834 66.5096 51.9834Z" fill="white"/>
<path d="M60.8852 56.6201H41.3781C40.7984 56.6201 40.3281 57.0901 40.3281 57.6701C40.3281 58.2501 40.7984 58.7201 41.3781 58.7201H60.8852C61.4648 58.7201 61.9352 58.2501 61.9352 57.6701C61.9352 57.0901 61.4648 56.6201 60.8852 56.6201Z" fill="white"/>
<path d="M23.5321 52.2539C23.4377 52.2534 23.3444 52.2333 23.258 52.195C23.1717 52.1568 23.094 52.1011 23.0299 52.0314L19.1996 47.8887C19.0717 47.7589 19 47.5836 19 47.4008C19 47.2181 19.0717 47.0428 19.1996 46.913C19.3242 46.7959 19.4888 46.7316 19.6592 46.7332H21.5574C21.8772 46.7276 22.1889 46.6314 22.4569 46.4558C22.7248 46.2802 22.9382 46.0323 23.0725 45.7404H20.3402C20.1716 45.7214 20.0159 45.6407 19.9028 45.5136C19.7897 45.3865 19.7272 45.2219 19.7272 45.0514C19.7272 44.8808 19.7897 44.7162 19.9028 44.5891C20.0159 44.462 20.1716 44.3813 20.3402 44.3623H23.115C22.9795 44.072 22.7656 43.8258 22.4978 43.6518C22.2299 43.4778 21.9188 43.3829 21.5999 43.378H19.7018C19.5332 43.3591 19.3775 43.2784 19.2644 43.1513C19.1513 43.0241 19.0888 42.8596 19.0888 42.689C19.0888 42.5185 19.1513 42.3539 19.2644 42.2268C19.3775 42.0997 19.5332 42.0189 19.7018 42H25.66C25.8286 42.0189 25.9843 42.0997 26.0974 42.2268C26.2105 42.3539 26.273 42.5185 26.273 42.689C26.273 42.8596 26.2105 43.0241 26.0974 43.1513C25.9843 43.2784 25.8286 43.3591 25.66 43.378H24.1364C24.3339 43.6779 24.4753 44.0114 24.5535 44.3623H25.6771C25.8456 44.3813 26.0013 44.462 26.1144 44.5891C26.2275 44.7162 26.29 44.8808 26.29 45.0514C26.29 45.2219 26.2275 45.3865 26.1144 45.5136C26.0013 45.6407 25.8456 45.7214 25.6771 45.7404H24.562C24.4065 46.4135 24.0293 47.0141 23.4916 47.4445C22.9538 47.8749 22.2872 48.1099 21.5999 48.1113H21.2765L24.0769 51.1412C24.2042 51.2696 24.2757 51.4435 24.2757 51.6248C24.2757 51.8061 24.2042 51.98 24.0769 52.1084C24.0011 52.1694 23.9135 52.2139 23.8197 52.2389C23.7259 52.264 23.628 52.2691 23.5321 52.2539Z" fill="white"/>
</svg>
