<svg width="70" height="70" viewBox="0 0 70 70" fill="none" xmlns="http://www.w3.org/2000/svg">
<path d="M33.7156 65.216C17.0547 65.216 3.5 51.6614 3.5 35.0001C3.5 18.3388 17.0547 4.78418 33.7156 4.78418C45.4894 4.78418 56.2731 11.7003 61.1884 22.4042C61.4356 22.9423 61.1997 23.5796 60.661 23.827C60.1216 24.0742 59.4857 23.8379 59.2382 23.2997C54.6715 13.3557 44.6534 6.93052 33.7156 6.93052C18.2379 6.93052 5.64606 19.5224 5.64606 35.0001C5.64606 50.4778 18.2379 63.0697 33.7156 63.0697C44.6534 63.0697 54.6715 56.6444 59.2383 46.7006C59.4859 46.1624 60.1216 45.9256 60.6612 46.1732C61.1997 46.4205 61.4358 47.0577 61.1885 47.596C56.2733 58.2995 45.4894 65.216 33.7156 65.216Z" fill="white"/>
<path d="M33.7154 58.6776C20.6597 58.6776 10.0381 48.056 10.0381 35.0001C10.0381 21.9443 20.6597 11.3228 33.7154 11.3228C46.7714 11.3228 57.3928 21.9444 57.3928 35.0001C57.3928 48.0558 46.7714 58.6776 33.7154 58.6776ZM33.7154 13.469C21.843 13.469 12.1843 23.1277 12.1843 35.0001C12.1843 46.8725 21.843 56.5314 33.7154 56.5314C45.5879 56.5314 55.2469 46.8725 55.2469 35.0001C55.2469 23.1277 45.588 13.469 33.7154 13.469Z" fill="white"/>
<path d="M63.1608 48.2211H58.7313C58.1385 48.2211 57.6582 47.7408 57.6582 47.1481C57.6582 46.5554 58.1385 46.075 58.7313 46.075H63.1608C63.8185 46.075 64.3533 45.5401 64.3533 44.8825V25.1179C64.3533 24.4603 63.8183 23.9254 63.1608 23.9254H58.7313C58.1385 23.9254 57.6582 23.445 57.6582 22.8523C57.6582 22.2596 58.1385 21.7793 58.7313 21.7793H63.1608C65.0019 21.7793 66.4996 23.277 66.4996 25.1179V44.8824C66.4996 46.7234 65.0019 48.2211 63.1608 48.2211Z" fill="white"/>
<path d="M24.6394 47.7894C19.7721 47.7894 15.8125 43.8299 15.8125 38.9628C15.8125 34.0958 19.7721 30.1362 24.6394 30.1362C29.5063 30.1362 33.4659 34.0958 33.4659 38.9628C33.4659 43.8299 29.5063 47.7894 24.6394 47.7894ZM24.6394 32.2822C20.9554 32.2822 17.9588 35.279 17.9588 38.9627C17.9588 42.6464 20.9555 45.6432 24.6394 45.6432C28.323 45.6432 31.3197 42.6464 31.3197 38.9627C31.3197 35.279 28.323 32.2822 24.6394 32.2822Z" fill="white"/>
<path d="M40.0008 33.9062C35.4225 33.9062 31.6982 30.1819 31.6982 25.6036C31.6982 21.0253 35.4225 17.3008 40.0008 17.3008C44.5792 17.3008 48.3036 21.0252 48.3036 25.6036C48.3036 30.1819 44.5792 33.9062 40.0008 33.9062ZM40.0008 19.447C36.6064 19.447 33.8443 22.2089 33.8443 25.6035C33.8443 28.9979 36.6064 31.76 40.0008 31.76C43.3954 31.76 46.1574 28.9978 46.1574 25.6035C46.1574 22.2089 43.3954 19.447 40.0008 19.447Z" fill="white"/>
<path d="M44.2308 54.8677C39.1412 54.8677 35 50.7266 35 45.6365C35 40.547 39.1412 36.4058 44.2308 36.4058C49.3206 36.4058 53.4615 40.547 53.4615 45.6365C53.4615 46.7177 53.2669 47.7921 52.8836 48.8302C52.8485 48.926 52.7996 49.016 52.7388 49.098C51.2936 51.0451 49.5578 52.758 47.5801 54.1894C47.4971 54.2493 47.4057 54.2971 47.3094 54.3315C46.3054 54.6875 45.2696 54.8677 44.2308 54.8677ZM44.2308 38.552C40.3245 38.552 37.1462 41.7302 37.1462 45.6365C37.1462 49.5434 40.3245 52.7215 44.2308 52.7215C44.9757 52.7215 45.7215 52.5991 46.4495 52.3576C48.1538 51.1056 49.657 49.622 50.9214 47.945C51.1829 47.19 51.3153 46.4141 51.3153 45.6365C51.3153 41.7301 48.137 38.552 44.2308 38.552Z" fill="white"/>
<path d="M23.0471 27.7367C22.2059 27.7367 21.3653 27.5109 20.6215 27.0604C19.7961 26.5607 18.7389 26.5769 17.9286 27.1005C17.4308 27.4211 16.7672 27.2799 16.4447 26.7829C16.1229 26.2852 16.265 25.6207 16.7627 25.299C18.2587 24.3311 20.2091 24.3018 21.7332 25.2243C22.5184 25.7001 23.5026 25.713 24.3021 25.2594C25.9653 24.3124 27.97 24.2823 29.6624 25.1764C30.1864 25.4532 30.3868 26.1025 30.1099 26.6264C29.8335 27.1512 29.1821 27.3503 28.6599 27.0738C27.618 26.5239 26.3853 26.5422 25.363 27.1249C24.6448 27.533 23.8454 27.7367 23.0471 27.7367Z" fill="white"/>
<path d="M28.981 52.2815C28.2222 52.2815 27.464 52.0772 26.7925 51.6712C26.1167 51.2613 25.2499 51.275 24.5858 51.7041C24.0881 52.0245 23.424 51.884 23.102 51.3865C22.7801 50.8891 22.9222 50.2246 23.4196 49.9026C24.7687 49.0282 26.5283 49.0019 27.9041 49.8351C28.5471 50.225 29.3533 50.236 30.0089 49.8641C31.5013 49.0136 33.3003 48.9863 34.8203 49.7892C35.3443 50.0661 35.5446 50.7156 35.2678 51.2396C34.9906 51.7641 34.3419 51.9636 33.8174 51.6872C32.9497 51.2287 31.9224 51.2449 31.0698 51.7296C30.422 52.0978 29.7012 52.2811 28.981 52.2815Z" fill="white"/>
<path d="M49.0998 35.073C48.4709 35.073 47.8426 34.9042 47.2861 34.5676C46.7791 34.2609 46.6169 33.6009 46.9239 33.0938C47.2306 32.5865 47.8907 32.4245 48.3977 32.7317C48.8172 32.9853 49.3434 32.9928 49.7704 32.75C50.994 32.0535 52.4696 32.0304 53.715 32.6897C54.239 32.9669 54.4389 33.6162 54.1617 34.1401C53.8845 34.6641 53.2349 34.8644 52.7113 34.5871C52.1182 34.2726 51.4152 34.284 50.8313 34.6159C50.2944 34.9208 49.6966 35.073 49.0998 35.073Z" fill="white"/>
<path d="M27.0882 21.1636C26.4594 21.1636 25.8312 20.9948 25.2745 20.6581C24.8331 20.391 24.2689 20.3995 23.8359 20.6795C23.3382 21.0005 22.6738 20.8588 22.352 20.3616C22.03 19.8641 22.1723 19.1997 22.6697 18.8777C23.7882 18.1538 25.2478 18.1326 26.3866 18.8225C26.8053 19.0752 27.3318 19.0824 27.7591 18.8405C28.9813 18.1444 30.4564 18.1217 31.7031 18.7793C32.2271 19.0565 32.4274 19.7052 32.1506 20.2297C31.8741 20.7529 31.2247 20.9528 30.7002 20.6773C30.1072 20.3628 29.4037 20.3742 28.8198 20.7062C28.2829 21.0114 27.6852 21.1636 27.0882 21.1636Z" fill="white"/>
<path d="M40.6489 30.2556C40.5729 30.2551 40.4978 30.239 40.4282 30.2082C40.3587 30.1774 40.2961 30.1325 40.2445 30.0764L37.1607 26.7411C37.0578 26.6366 37 26.4954 37 26.3483C37 26.2012 37.0578 26.06 37.1607 25.9555C37.261 25.8613 37.3935 25.8095 37.5308 25.8108H39.059C39.3164 25.8062 39.5674 25.7288 39.7832 25.5875C39.9989 25.4461 40.1707 25.2464 40.2788 25.0114H38.079C37.9433 24.9962 37.8179 24.9312 37.7269 24.8288C37.6358 24.7265 37.5855 24.594 37.5855 24.4567C37.5855 24.3194 37.6358 24.1869 37.7269 24.0845C37.8179 23.9822 37.9433 23.9172 38.079 23.902H40.3131C40.204 23.6682 40.0318 23.47 39.8161 23.3299C39.6004 23.1898 39.35 23.1134 39.0932 23.1095H37.565C37.4293 23.0942 37.3039 23.0292 37.2129 22.9269C37.1219 22.8246 37.0715 22.6921 37.0715 22.5547C37.0715 22.4174 37.1219 22.2849 37.2129 22.1826C37.3039 22.0802 37.4293 22.0152 37.565 22H42.3621C42.4978 22.0152 42.6232 22.0802 42.7142 22.1826C42.8053 22.2849 42.8556 22.4174 42.8556 22.5547C42.8556 22.6921 42.8053 22.8246 42.7142 22.9269C42.6232 23.0292 42.4978 23.0942 42.3621 23.1095H41.1354C41.2944 23.3509 41.4082 23.6194 41.4712 23.902H42.3758C42.5115 23.9172 42.6369 23.9822 42.7279 24.0845C42.819 24.1869 42.8693 24.3194 42.8693 24.4567C42.8693 24.594 42.819 24.7265 42.7279 24.8288C42.6369 24.9312 42.5115 24.9962 42.3758 25.0114H41.4781C41.3529 25.5534 41.0491 26.0369 40.6162 26.3835C40.1833 26.73 39.6466 26.9192 39.0932 26.9203H38.8328L41.0874 29.3597C41.19 29.4631 41.2476 29.6031 41.2476 29.7491C41.2476 29.8951 41.19 30.0351 41.0874 30.1384C41.0265 30.1875 40.956 30.2233 40.8804 30.2435C40.8049 30.2637 40.726 30.2678 40.6489 30.2556Z" fill="white"/>
<path d="M40.6489 30.2556C40.5729 30.2551 40.4978 30.239 40.4282 30.2082C40.3587 30.1774 40.2961 30.1325 40.2445 30.0764L37.1607 26.7411C37.0578 26.6366 37 26.4954 37 26.3483C37 26.2012 37.0578 26.06 37.1607 25.9555C37.261 25.8613 37.3935 25.8095 37.5308 25.8108H39.059C39.3164 25.8062 39.5674 25.7288 39.7832 25.5875C39.9989 25.4461 40.1707 25.2464 40.2788 25.0114H38.079C37.9433 24.9962 37.8179 24.9312 37.7269 24.8288C37.6358 24.7265 37.5855 24.594 37.5855 24.4567C37.5855 24.3194 37.6358 24.1869 37.7269 24.0845C37.8179 23.9822 37.9433 23.9172 38.079 23.902H40.3131C40.204 23.6682 40.0318 23.47 39.8161 23.3299C39.6004 23.1898 39.35 23.1134 39.0932 23.1095H37.565C37.4293 23.0942 37.3039 23.0292 37.2129 22.9269C37.1219 22.8246 37.0715 22.6921 37.0715 22.5547C37.0715 22.4174 37.1219 22.2849 37.2129 22.1826C37.3039 22.0802 37.4293 22.0152 37.565 22H42.3621C42.4978 22.0152 42.6232 22.0802 42.7142 22.1826C42.8053 22.2849 42.8556 22.4174 42.8556 22.5547C42.8556 22.6921 42.8053 22.8246 42.7142 22.9269C42.6232 23.0292 42.4978 23.0942 42.3621 23.1095H41.1354C41.2944 23.3509 41.4082 23.6194 41.4712 23.902H42.3758C42.5115 23.9172 42.6369 23.9822 42.7279 24.0845C42.819 24.1869 42.8693 24.3194 42.8693 24.4567C42.8693 24.594 42.819 24.7265 42.7279 24.8288C42.6369 24.9312 42.5115 24.9962 42.3758 25.0114H41.4781C41.3529 25.5534 41.0491 26.0369 40.6162 26.3835C40.1833 26.73 39.6466 26.9192 39.0932 26.9203H38.8328L41.0874 29.3597C41.19 29.4631 41.2476 29.6031 41.2476 29.7491C41.2476 29.8951 41.19 30.0351 41.0874 30.1384C41.0265 30.1875 40.956 30.2233 40.8804 30.2435C40.8049 30.2637 40.726 30.2678 40.6489 30.2556Z" fill="white"/>
<path d="M45.6489 50.2556C45.5729 50.2551 45.4978 50.239 45.4282 50.2082C45.3587 50.1774 45.2961 50.1325 45.2445 50.0764L42.1607 46.7411C42.0578 46.6366 42 46.4954 42 46.3483C42 46.2012 42.0578 46.06 42.1607 45.9555C42.261 45.8613 42.3935 45.8095 42.5308 45.8108H44.059C44.3164 45.8062 44.5674 45.7288 44.7832 45.5875C44.9989 45.4461 45.1707 45.2464 45.2788 45.0114H43.079C42.9433 44.9962 42.8179 44.9312 42.7269 44.8288C42.6358 44.7265 42.5855 44.594 42.5855 44.4567C42.5855 44.3194 42.6358 44.1869 42.7269 44.0845C42.8179 43.9822 42.9433 43.9172 43.079 43.902H45.3131C45.204 43.6682 45.0318 43.47 44.8161 43.3299C44.6004 43.1898 44.35 43.1134 44.0932 43.1095H42.565C42.4293 43.0942 42.3039 43.0292 42.2129 42.9269C42.1219 42.8246 42.0715 42.6921 42.0715 42.5547C42.0715 42.4174 42.1219 42.2849 42.2129 42.1826C42.3039 42.0802 42.4293 42.0152 42.565 42H47.3621C47.4978 42.0152 47.6232 42.0802 47.7142 42.1826C47.8053 42.2849 47.8556 42.4174 47.8556 42.5547C47.8556 42.6921 47.8053 42.8246 47.7142 42.9269C47.6232 43.0292 47.4978 43.0942 47.3621 43.1095H46.1354C46.2944 43.3509 46.4082 43.6194 46.4712 43.902H47.3758C47.5115 43.9172 47.6369 43.9822 47.7279 44.0845C47.819 44.1869 47.8693 44.3194 47.8693 44.4567C47.8693 44.594 47.819 44.7265 47.7279 44.8288C47.6369 44.9312 47.5115 44.9962 47.3758 45.0114H46.4781C46.3529 45.5534 46.0491 46.0369 45.6162 46.3835C45.1833 46.73 44.6466 46.9192 44.0932 46.9203H43.8328L46.0874 49.3597C46.19 49.4631 46.2476 49.6031 46.2476 49.7491C46.2476 49.8951 46.19 50.0351 46.0874 50.1384C46.0265 50.1875 45.956 50.2233 45.8804 50.2435C45.8049 50.2637 45.726 50.2678 45.6489 50.2556Z" fill="white"/>
<path d="M25.6489 43.2556C25.5729 43.2551 25.4978 43.239 25.4282 43.2082C25.3587 43.1774 25.2961 43.1325 25.2445 43.0764L22.1607 39.7411C22.0578 39.6366 22 39.4954 22 39.3483C22 39.2012 22.0578 39.06 22.1607 38.9555C22.261 38.8613 22.3935 38.8095 22.5308 38.8108H24.059C24.3164 38.8062 24.5674 38.7288 24.7832 38.5875C24.9989 38.4461 25.1707 38.2464 25.2788 38.0114H23.079C22.9433 37.9962 22.8179 37.9312 22.7269 37.8288C22.6358 37.7265 22.5855 37.594 22.5855 37.4567C22.5855 37.3194 22.6358 37.1869 22.7269 37.0845C22.8179 36.9822 22.9433 36.9172 23.079 36.902H25.3131C25.204 36.6682 25.0318 36.47 24.8161 36.3299C24.6004 36.1898 24.35 36.1134 24.0932 36.1095H22.565C22.4293 36.0942 22.3039 36.0292 22.2129 35.9269C22.1219 35.8246 22.0715 35.6921 22.0715 35.5547C22.0715 35.4174 22.1219 35.2849 22.2129 35.1826C22.3039 35.0802 22.4293 35.0152 22.565 35H27.3621C27.4978 35.0152 27.6232 35.0802 27.7142 35.1826C27.8053 35.2849 27.8556 35.4174 27.8556 35.5547C27.8556 35.6921 27.8053 35.8246 27.7142 35.9269C27.6232 36.0292 27.4978 36.0942 27.3621 36.1095H26.1354C26.2944 36.3509 26.4082 36.6194 26.4712 36.902H27.3758C27.5115 36.9172 27.6369 36.9822 27.7279 37.0845C27.819 37.1869 27.8693 37.3194 27.8693 37.4567C27.8693 37.594 27.819 37.7265 27.7279 37.8288C27.6369 37.9312 27.5115 37.9962 27.3758 38.0114H26.4781C26.3529 38.5534 26.0491 39.0369 25.6162 39.3835C25.1833 39.73 24.6466 39.9192 24.0932 39.9203H23.8328L26.0874 42.3597C26.19 42.4631 26.2476 42.6031 26.2476 42.7491C26.2476 42.8951 26.19 43.0351 26.0874 43.1384C26.0265 43.1875 25.956 43.2233 25.8804 43.2435C25.8049 43.2637 25.726 43.2678 25.6489 43.2556Z" fill="white"/>
</svg>
