<svg width="70" height="70" viewBox="0 0 70 70" fill="none" xmlns="http://www.w3.org/2000/svg">
<path d="M25.137 58.082C12.4095 58.082 2.05479 47.7273 2.05479 34.9998C2.05479 22.2722 12.4095 11.9176 25.137 11.9176C30.0838 11.9176 34.8 13.4592 38.7757 16.3759L39.9912 14.7192C35.6605 11.5421 30.524 9.86279 25.137 9.86279C11.2764 9.86279 0 21.1391 0 34.9998C0 48.8605 11.2764 60.1368 25.137 60.1368C30.3485 60.1368 35.3477 58.5562 39.5941 55.5658L38.411 53.8858C34.5127 56.6309 29.9227 58.082 25.137 58.082Z" fill="white"/>
<path d="M28.3222 34.9999C28.3222 33.584 27.466 32.3796 26.0961 31.9498V24.041H24.0413V31.9498C22.8085 32.3796 21.8838 33.584 21.8838 34.9999C21.8838 35.5743 22.0528 36.1135 22.3175 36.5807L22.2104 36.4651L17.8311 40.8487L19.2861 42.3017L23.6708 37.9181L23.5554 37.8022C24.0228 38.067 24.5453 38.219 25.1197 38.219C26.8949 38.2191 28.3222 36.775 28.3222 34.9999ZM23.9728 34.9999C23.9728 34.358 24.4952 33.8355 25.1372 33.8355C25.7793 33.8355 26.3016 34.358 26.3016 34.9999C26.3016 35.6418 25.7793 36.1643 25.1372 36.1643C24.4952 36.1643 23.9728 35.6418 23.9728 34.9999Z" fill="white"/>
<path d="M53.6305 32.8765C48.2298 32.8765 43.8359 37.2703 43.8359 42.671C43.8359 48.0717 48.2298 52.4655 53.6305 52.4655C59.0311 52.4655 63.425 48.0717 63.425 42.671C63.425 37.2703 59.0311 32.8765 53.6305 32.8765ZM53.6305 50.4107C49.3628 50.4107 45.8907 46.9387 45.8907 42.671C45.8907 38.4033 49.3628 34.9313 53.6305 34.9313C57.8981 34.9313 61.3702 38.4033 61.3702 42.671C61.3702 46.9387 57.8981 50.4107 53.6305 50.4107Z" fill="white"/>
<path d="M61.2436 28.1831C62.5105 27.75 63.4245 26.5484 63.4245 25.1366C63.4245 23.7725 62.5712 22.6388 61.3707 22.1709L67.0693 16.5065H56.4922L54.1779 18.8206L51.8637 16.5065H41.2866L46.7786 21.9643C45.1325 22.1048 43.8355 23.4717 43.8355 25.1537C43.8355 26.5655 44.7494 27.7585 46.0164 28.1915C40.8145 30.9363 37.2601 36.3959 37.2601 42.6751C37.2601 43.757 37.3656 44.8198 37.5694 45.8584C37.5504 45.8803 37.5314 45.9011 37.5122 45.9229L35.9372 44.3474L34.4844 45.8002L36.0273 47.3772C33.2864 49.8037 29.7945 51.2473 26.0959 51.474V49.2462H24.0411V51.4736C20.3425 51.2403 16.8574 49.73 14.1857 47.3695L15.7725 45.8L14.3281 44.347L12.7627 45.9509C10.4022 43.2792 8.89615 39.7942 8.66287 36.0955H10.8903V34.0407H8.66287C8.89615 30.2051 10.4064 26.7885 12.7668 24.117L14.3364 25.6695L15.7893 24.2079L14.1855 22.634C16.8571 20.2735 20.3422 18.7589 24.0408 18.5257V20.7531H26.0956V18.5269C29.1093 18.7099 31.9649 19.6859 34.4349 21.3822C34.993 21.7654 35.5396 22.1814 36.0419 22.6243L34.4755 24.1992L35.9327 25.6522L37.5112 24.0759C38.743 25.4694 39.7366 27.0646 40.4431 28.81L42.3483 28.0392C40.9773 24.6518 38.6551 21.7642 35.632 19.6883C32.5359 17.562 28.9067 16.438 25.1367 16.438C14.9018 16.438 6.5752 24.7647 6.5752 34.9996C6.5752 45.2346 14.9019 53.5613 25.1368 53.5613C30.0874 53.5613 34.7464 51.6222 38.2093 48.1791C38.7634 49.7302 39.553 51.1987 40.5715 52.5437C42.6001 55.2232 45.4562 57.2424 48.6399 58.2624C49.9763 59.4281 51.7215 60.1366 53.63 60.1366C55.5385 60.1366 57.2836 59.4281 58.6201 58.2625C61.8038 57.2425 64.66 55.2231 66.6886 52.5437C68.8549 49.6825 69.9999 46.2687 69.9999 42.6709C69.9999 36.3916 66.4455 30.9279 61.2436 28.1831ZM57.3431 18.5613H62.1085L58.6838 21.9859H57.3433L55.6309 20.2736L57.3431 18.5613ZM46.2472 18.5613H51.0126L54.4373 21.9859H49.672L46.2472 18.5613ZM45.8903 25.2051C45.8903 24.5632 46.4126 24.0407 47.0546 24.0407H60.2053C60.8474 24.0407 61.3697 24.5632 61.3697 25.2051C61.3697 25.847 60.8474 26.3695 60.2053 26.3695H47.0546C46.4126 26.3695 45.8903 25.847 45.8903 25.2051ZM65.0505 51.3033C63.8983 52.825 62.4418 54.1039 60.8003 55.0583C61.0793 54.2679 61.2329 53.4187 61.2329 52.5339H59.1781C59.1781 55.5931 56.6892 58.0818 53.6301 58.0818C50.5709 58.0818 48.0822 55.5931 48.0822 52.5339H46.0274C46.0274 53.4187 46.1808 54.2678 46.46 55.0584C44.8185 54.104 43.3619 52.8251 42.2097 51.3035C40.3159 48.8024 39.3149 45.8173 39.3149 42.6709C39.3149 34.7776 45.7366 28.3558 53.63 28.3558C61.5234 28.3558 67.9451 34.7776 67.9451 42.6709C67.9451 45.8172 66.9441 48.8022 65.0505 51.3033Z" fill="white"/>
<path d="M40.4795 41.7119H42.6713V43.7667H40.4795V41.7119Z" fill="white"/>
<path d="M64.5889 41.7119H66.7806V43.7667H64.5889V41.7119Z" fill="white"/>
<path d="M54.8221 48.2539C54.7277 48.2534 54.6345 48.2333 54.5481 48.195C54.4617 48.1568 54.384 48.1011 54.3199 48.0314L50.4896 43.8887C50.3618 43.7589 50.29 43.5836 50.29 43.4008C50.29 43.2181 50.3618 43.0428 50.4896 42.913C50.6142 42.7959 50.7788 42.7316 50.9493 42.7332H52.8474C53.1672 42.7276 53.4789 42.6314 53.7469 42.4558C54.0149 42.2802 54.2282 42.0323 54.3625 41.7404H51.6302C51.4617 41.7214 51.3059 41.6407 51.1929 41.5136C51.0798 41.3865 51.0173 41.2219 51.0173 41.0514C51.0173 40.8808 51.0798 40.7162 51.1929 40.5891C51.3059 40.462 51.4617 40.3813 51.6302 40.3623H54.4051C54.2696 40.072 54.0557 39.8258 53.7878 39.6518C53.5199 39.4778 53.2088 39.3829 52.89 39.378H50.9918C50.8233 39.3591 50.6676 39.2784 50.5545 39.1513C50.4414 39.0241 50.3789 38.8596 50.3789 38.689C50.3789 38.5185 50.4414 38.3539 50.5545 38.2268C50.6676 38.0997 50.8233 38.0189 50.9918 38H56.9501C57.1187 38.0189 57.2744 38.0997 57.3874 38.2268C57.5005 38.3539 57.5631 38.5185 57.5631 38.689C57.5631 38.8596 57.5005 39.0241 57.3874 39.1513C57.2744 39.2784 57.1187 39.3591 56.9501 39.378H55.4265C55.6239 39.6779 55.7653 40.0114 55.8436 40.3623H56.9671C57.1357 40.3813 57.2914 40.462 57.4045 40.5891C57.5176 40.7162 57.5801 40.8808 57.5801 41.0514C57.5801 41.2219 57.5176 41.3865 57.4045 41.5136C57.2914 41.6407 57.1357 41.7214 56.9671 41.7404H55.8521C55.6966 42.4135 55.3193 43.0141 54.7816 43.4445C54.2439 43.8749 53.5772 44.1099 52.89 44.1113H52.5665L55.3669 47.1412C55.4942 47.2696 55.5658 47.4435 55.5658 47.6248C55.5658 47.8061 55.4942 47.98 55.3669 48.1084C55.2911 48.1694 55.2036 48.2139 55.1098 48.2389C55.016 48.264 54.918 48.2691 54.8221 48.2539Z" fill="white"/>
</svg>
