<svg width="70" height="70" viewBox="0 0 70 70" fill="none" xmlns="http://www.w3.org/2000/svg">
<path d="M67.4155 32.9887L52.8467 20.9574C52.5197 20.6873 52.0669 20.6304 51.6841 20.8109C51.3013 20.9913 51.0563 21.3774 51.0563 21.8007V28.454C47.2872 28.7384 43.6778 29.9349 40.4688 31.9584V18.9449H47.0312C47.4545 18.9449 47.8406 18.6999 48.0211 18.3171C48.2016 17.9332 48.1447 17.4804 47.8745 17.1545L35.8433 2.58462C35.4277 2.08149 34.5723 2.08149 34.1567 2.58462L22.1255 17.1534C21.8553 17.4793 21.7984 17.9321 21.9789 18.316C22.1594 18.6988 22.5455 18.9438 22.9688 18.9438H29.5312V43.4099C26.4283 41.2946 22.8309 39.8541 18.9438 39.3423V32.5643C18.9438 32.141 18.6987 31.7549 18.3159 31.5745C17.9331 31.3951 17.4803 31.452 17.1533 31.721L2.58453 43.7512C2.33297 43.959 2.1875 44.2685 2.1875 44.5945C2.1875 44.9204 2.33297 45.2299 2.58453 45.4377L17.1533 57.469C17.4792 57.7381 17.932 57.7938 18.3159 57.6156C18.6987 57.4351 18.9438 57.049 18.9438 56.6257V50.4635C25.0611 51.939 29.5312 57.4974 29.5312 63.8816V66.7188C29.5312 67.3226 30.0212 67.8126 30.625 67.8126H39.375C39.9787 67.8126 40.4688 67.3226 40.4688 66.7188V51.6459C40.4688 45.4531 45.0341 40.2982 51.0563 39.4429V45.8632C51.0563 46.2865 51.3013 46.6726 51.6841 46.8531C52.0691 47.0335 52.5197 46.9777 52.8467 46.7065L67.4155 34.6752C67.667 34.4674 67.8125 34.1579 67.8125 33.832C67.8125 33.506 67.667 33.1965 67.4155 32.9887ZM38.2812 65.6251H31.7188V63.8816C31.7188 55.9902 25.8234 49.1882 18.0064 48.0584C17.6881 48.0135 17.3731 48.1054 17.1336 48.3143C16.8941 48.5221 16.7562 48.824 16.7562 49.1412V54.3048L4.99844 44.5956L16.7562 34.8863V40.3223C16.7562 40.8888 17.1883 41.3613 17.7516 41.4116C29.2633 42.4474 38.2812 52.3174 38.2812 63.8827V65.6251ZM53.2438 43.5412V38.2409C53.2438 37.9412 53.1213 37.6546 52.9036 37.449C52.687 37.2423 52.4016 37.1406 52.0953 37.1482C44.3483 37.5299 38.2802 43.8977 38.2802 51.6459V53.852C36.7598 50.4799 34.5078 47.4918 31.7177 45.1009V17.8501C31.7177 17.2463 31.2277 16.7563 30.6239 16.7563H25.2897L34.9989 4.99853L44.7081 16.7563H39.3739C38.7702 16.7563 38.2802 17.2463 38.2802 17.8501V34.0496C38.2802 34.4652 38.5164 34.8459 38.8894 35.0296C39.2634 35.2145 39.7075 35.1707 40.0378 34.9181C43.5794 32.2132 47.7794 30.7148 52.1817 30.5835C52.7734 30.566 53.2427 30.0815 53.2427 29.4898V24.1206L65.0005 33.8298L53.2427 43.539L53.2438 43.5412Z" fill="white"/>
</svg>
