<svg width="70" height="70" viewBox="0 0 70 70" fill="none" xmlns="http://www.w3.org/2000/svg">
<g clip-path="url(#clip0_1223_47)">
<path d="M66.7188 45.8457H59.4961C59.4188 46.2218 59.3022 46.5888 59.1482 46.9405C59.3022 47.2923 59.4188 47.6592 59.4961 48.0354H66.7188C67.0089 48.0358 67.287 48.1514 67.492 48.3566C67.6971 48.5619 67.8123 48.8401 67.8125 49.1302V50.2251C67.8123 50.5152 67.6971 50.7934 67.492 50.9986C67.287 51.2039 67.0089 51.3194 66.7188 51.3199H59.4961C59.4188 51.696 59.3022 52.063 59.1482 52.4147C59.3022 52.7665 59.4188 53.1335 59.4961 53.5096H66.7188C67.0089 53.5101 67.287 53.6256 67.492 53.8309C67.6971 54.0361 67.8123 54.3143 67.8125 54.6044V55.6993C67.8123 55.9894 67.6971 56.2676 67.492 56.4729C67.287 56.6781 67.0089 56.7936 66.7188 56.7941H59.4961C59.4188 57.1702 59.3022 57.5372 59.1482 57.889C59.3022 58.2407 59.4188 58.6077 59.4961 58.9838H66.7188C67.0089 58.9843 67.287 59.0998 67.492 59.3051C67.6971 59.5103 67.8123 59.7885 67.8125 60.0786V61.1735C67.8123 61.4636 67.6971 61.7418 67.492 61.9471C67.287 62.1523 67.0089 62.2679 66.7188 62.2683H57.2305C57.3564 61.917 57.4211 61.5467 57.4219 61.1735V60.0786C57.4216 59.2697 57.1215 58.4895 56.5794 57.889C57.1216 57.2884 57.4217 56.5081 57.4219 55.699V54.6042C57.4216 53.7952 57.1215 53.0151 56.5794 52.4146C57.1215 51.8141 57.4216 51.0339 57.4219 50.2249V49.1301C57.4216 48.3211 57.1215 47.541 56.5794 46.9405C57.1215 46.34 57.4216 45.5598 57.4219 44.7509V43.656C57.4213 42.7856 57.0756 41.951 56.4604 41.3353C55.8453 40.7195 55.011 40.3729 54.1406 40.3716H44.2969C44.037 40.3726 43.7782 40.4046 43.5259 40.4669C44.0632 41.1185 44.5953 41.8171 45.1019 42.5612H54.1406C54.4308 42.5617 54.7088 42.6772 54.9139 42.8825C55.1189 43.0877 55.2342 43.3659 55.2344 43.656V44.7509C55.2342 45.041 55.1189 45.3192 54.9139 45.5245C54.7088 45.7297 54.4308 45.8453 54.1406 45.8457H46.9827C47.3151 46.5574 47.6041 47.2887 47.8479 48.0354H54.1406C54.4308 48.0358 54.7088 48.1514 54.9139 48.3566C55.1189 48.5619 55.2342 48.8401 55.2344 49.1302V50.2251C55.2342 50.5152 55.1189 50.7934 54.9139 50.9986C54.7088 51.2039 54.4308 51.3194 54.1406 51.3199H48.5704C48.6531 52.0467 48.6834 52.7784 48.6611 53.5095H54.1406C54.4307 53.51 54.7088 53.6256 54.9139 53.8308C55.1189 54.0361 55.2342 54.3143 55.2344 54.6044V55.6992C55.2342 55.9894 55.1189 56.2676 54.9139 56.4728C54.7088 56.6781 54.4308 56.7936 54.1406 56.7941H48.1392C47.9211 57.5474 47.6373 58.2801 47.291 58.9837H54.1406C54.4307 58.9842 54.7088 59.0997 54.9139 59.305C55.1189 59.5102 55.2342 59.7884 55.2344 60.0786V61.1734C55.2342 61.4635 55.1189 61.7417 54.9139 61.947C54.7088 62.1522 54.4307 62.2678 54.1406 62.2682H41.7843C43.1372 61.2837 44.2575 60.0142 45.066 58.5492C45.8746 57.0843 46.3516 55.4598 46.4635 53.7903C46.8415 47.2586 42.1208 41.752 38.9802 38.8402L40.9566 33.063C41.0283 32.8527 41.0342 32.6254 40.9736 32.4116C40.9131 32.1977 40.7889 32.0074 40.6176 31.8658C40.4463 31.7242 40.236 31.638 40.0145 31.6188C39.7931 31.5996 39.5711 31.6482 39.3779 31.7581C39.355 31.771 37.0174 33.0524 35.8807 31.9287C35.676 31.7266 35.4 31.6133 35.1124 31.6133H34.8876C34.6 31.6133 34.324 31.7266 34.1193 31.9287C32.9826 33.0513 30.645 31.7715 30.625 31.7597C30.432 31.6485 30.2096 31.5988 29.9876 31.6173C29.7656 31.6358 29.5545 31.7216 29.3826 31.8633C29.2106 32.005 29.086 32.1958 29.0254 32.4102C28.9648 32.6245 28.9711 32.8523 29.0434 33.063L31.0198 38.8402C27.8792 41.7518 23.1585 47.2583 23.5365 53.79C23.6484 55.4595 24.1255 57.0841 24.934 58.549C25.7425 60.0139 26.8628 61.2834 28.2157 62.268H15.8594C15.5693 62.2675 15.2912 62.152 15.0861 61.9467C14.8811 61.7415 14.7658 61.4633 14.7656 61.1731V60.0783C14.7658 59.7882 14.8811 59.51 15.0861 59.3047C15.2912 59.0995 15.5693 58.9839 15.8594 58.9834H22.7091C22.3627 58.2798 22.0789 57.5471 21.8608 56.7938H15.8594C15.5693 56.7933 15.2912 56.6778 15.0861 56.4725C14.8811 56.2673 14.7658 55.9891 14.7656 55.699V54.6041C14.7658 54.314 14.8811 54.0358 15.0861 53.8305C15.2912 53.6253 15.5693 53.5098 15.8594 53.5093H21.3389C21.3166 52.7782 21.3469 52.0464 21.4296 51.3196H15.8594C15.5693 51.3192 15.2912 51.2036 15.0861 50.9984C14.8811 50.7931 14.7658 50.5149 14.7656 50.2248V49.1299C14.7658 48.8398 14.8811 48.5616 15.0861 48.3564C15.2912 48.1511 15.5693 48.0356 15.8594 48.0351H22.1521C22.3959 47.2884 22.6848 46.5572 23.0173 45.8455H15.8594C15.5693 45.845 15.2912 45.7295 15.0861 45.5242C14.8811 45.319 14.7658 45.0407 14.7656 44.7506V43.6558C14.7658 43.3657 14.8811 43.0874 15.0861 42.8822C15.2912 42.6769 15.5693 42.5614 15.8594 42.5609H24.8981C25.4047 41.8169 25.9368 41.1183 26.4742 40.4667C26.2219 40.4044 25.963 40.3725 25.7031 40.3716H15.8594C14.989 40.373 14.1547 40.7195 13.5396 41.3353C12.9244 41.951 12.5786 42.7857 12.5781 43.656V44.7509C12.5783 45.5599 12.8785 46.34 13.4206 46.9405C12.8785 47.541 12.5784 48.3212 12.5781 49.1301V50.225C12.5783 51.0339 12.8785 51.8141 13.4206 52.4146C12.8785 53.0151 12.5784 53.7953 12.5781 54.6042V55.6991C12.5783 56.508 12.8785 57.2882 13.4206 57.8887C12.8785 58.4892 12.5784 59.2693 12.5781 60.0783V61.1732C12.5789 61.5464 12.6436 61.9167 12.7695 62.268H3.28125C2.99113 62.2675 2.71304 62.152 2.50799 61.9467C2.30295 61.7415 2.18769 61.4633 2.1875 61.1732V60.0783C2.18769 59.7882 2.30295 59.51 2.50799 59.3047C2.71304 59.0995 2.99113 58.9839 3.28125 58.9835H10.5039C10.5812 58.6073 10.6978 58.2404 10.8518 57.8886C10.6978 57.5369 10.5812 57.1699 10.5039 56.7938H3.28125C2.99113 56.7933 2.71303 56.6778 2.50799 56.4725C2.30294 56.2673 2.18768 55.9891 2.1875 55.6989V54.6041C2.18769 54.314 2.30295 54.0358 2.50799 53.8305C2.71304 53.6253 2.99113 53.5097 3.28125 53.5092H10.5039C10.5812 53.1331 10.6978 52.7662 10.8518 52.4144C10.6978 52.0627 10.5812 51.6957 10.5039 51.3196H3.28125C2.99113 51.3191 2.71303 51.2036 2.50799 50.9983C2.30294 50.793 2.18768 50.5148 2.1875 50.2247V49.1299C2.18768 48.8397 2.30294 48.5615 2.50799 48.3563C2.71303 48.151 2.99113 48.0355 3.28125 48.035H10.5039C10.5812 47.6589 10.6978 47.2919 10.8518 46.9402C10.6978 46.5884 10.5812 46.2215 10.5039 45.8453H3.28125C2.41088 45.8467 1.57659 46.1933 0.961441 46.809C0.346293 47.4248 0.000524661 48.2594 1.8656e-10 49.1298L1.8656e-10 50.2246C0.000220076 51.0336 0.30038 51.8138 0.842445 52.4143C0.300318 53.0149 0.000153971 53.7951 1.8656e-10 54.6042L1.8656e-10 55.6991C0.000220076 56.508 0.30038 57.2882 0.842445 57.8887C0.300394 58.4892 0.000235165 59.2693 1.86559e-10 60.0783L1.8656e-10 61.1732C-7.83118e-06 61.9063 0.246542 62.6181 0.7 63.1941C0.251527 63.6909 0.00225601 64.3358 1.8656e-10 65.005L1.8656e-10 67.2631C0.00049572 67.9884 0.288655 68.6839 0.801265 69.197C1.31388 69.7101 2.00908 69.9989 2.73438 70.0001H67.2656C67.9909 69.9989 68.6861 69.7101 69.1987 69.197C69.7113 68.6839 69.9995 67.9884 70 67.2631V65.005C69.9977 64.3358 69.7485 63.6909 69.3 63.1941C69.7535 62.6181 70 61.9063 70 61.1731V60.0783C69.9998 59.2693 69.6996 58.4892 69.1576 57.8887C69.6996 57.2882 69.9998 56.508 70 55.699V54.6042C69.9998 53.7952 69.6996 53.0151 69.1576 52.4146C69.6996 51.8141 69.9998 51.0339 70 50.2249V49.1301C69.9995 48.2597 69.6537 47.4251 69.0386 46.8094C68.4234 46.1936 67.5891 45.847 66.7188 45.8457ZM35 34.0074C35.9555 34.5565 37.0824 34.7271 38.1576 34.4853L36.8929 38.1819H33.1071L31.8424 34.4853C32.9176 34.7276 34.0446 34.557 35 34.0074ZM25.7202 53.6639C25.3806 47.7958 30.1807 42.5933 32.5869 40.3716H37.4131C39.8193 42.5933 44.6194 47.7958 44.2798 53.6639C44.1306 55.8704 43.1948 57.9502 41.6423 59.5251C40.0897 61.1001 38.0236 62.0658 35.8195 62.2466C35.6024 62.261 35.3834 62.2681 35.1624 62.268H34.8377C34.6165 62.268 34.3976 62.2608 34.1808 62.2466C31.9766 62.0658 29.9104 61.1002 28.3579 59.5252C26.8053 57.9502 25.8694 55.8704 25.7202 53.6639ZM67.8125 67.2631C67.8124 67.4082 67.7548 67.5473 67.6523 67.6499C67.5498 67.7525 67.4107 67.8103 67.2656 67.8105H2.73438C2.58931 67.8103 2.45025 67.7525 2.34772 67.6499C2.24519 67.5473 2.18757 67.4082 2.1875 67.2631V65.005C2.18757 64.86 2.24519 64.7209 2.34772 64.6182C2.45025 64.5156 2.58931 64.4578 2.73438 64.4576H67.2656C67.4107 64.4578 67.5498 64.5156 67.6523 64.6182C67.7548 64.7209 67.8124 64.86 67.8125 65.005V67.2631Z" fill="white"/>
<path d="M37.2316 30.1999C37.6071 30.1438 37.9706 30.0251 38.3069 29.8487C38.4736 29.7573 38.648 29.6807 38.8281 29.6198V12.1798C38.8283 11.8896 38.7131 11.6112 38.508 11.4059C38.3029 11.2005 38.0246 11.0851 37.7344 11.085H32.2656C31.9754 11.0851 31.6971 11.2005 31.492 11.4059C31.2869 11.6112 31.1717 11.8896 31.1719 12.1798V29.6182C31.3615 29.6828 31.5447 29.765 31.719 29.8637C32.0476 30.0337 32.4023 30.1474 32.7684 30.2C32.9507 30.0489 33.1488 29.9181 33.3594 29.8099V13.2746H36.6406V29.81C36.8512 29.9182 37.0493 30.0489 37.2316 30.1999Z" fill="white"/>
<path d="M14.1479 30.9909C14.0467 30.9903 13.9467 30.9688 13.8541 30.9278C13.7615 30.8867 13.6783 30.827 13.6096 30.7523L9.50399 26.3119C9.36693 26.1728 9.29004 25.9849 9.29004 25.789C9.29004 25.5932 9.36693 25.4052 9.50399 25.2661C9.63752 25.1406 9.81393 25.0716 9.99666 25.0734H12.0312C12.374 25.0673 12.7081 24.9643 12.9954 24.7761C13.2826 24.5879 13.5113 24.3221 13.6552 24.0092H10.7265C10.5459 23.9889 10.379 23.9024 10.2577 23.7661C10.1365 23.6299 10.0695 23.4535 10.0695 23.2707C10.0695 23.0878 10.1365 22.9114 10.2577 22.7752C10.379 22.6389 10.5459 22.5524 10.7265 22.5321H13.7008C13.5556 22.2209 13.3263 21.9571 13.0392 21.7705C12.7521 21.584 12.4186 21.4823 12.0768 21.4771H10.0423C9.8616 21.4568 9.69469 21.3702 9.57348 21.234C9.45227 21.0977 9.38525 20.9213 9.38525 20.7385C9.38525 20.5557 9.45227 20.3793 9.57348 20.2431C9.69469 20.1068 9.8616 20.0203 10.0423 20H16.4287C16.6094 20.0203 16.7763 20.1068 16.8975 20.2431C17.0188 20.3793 17.0858 20.5557 17.0858 20.7385C17.0858 20.9213 17.0188 21.0977 16.8975 21.234C16.7763 21.3702 16.6094 21.4568 16.4287 21.4771H14.7956C15.0073 21.7984 15.1588 22.156 15.2427 22.5321H16.447C16.6277 22.5524 16.7946 22.6389 16.9158 22.7752C17.037 22.9114 17.104 23.0878 17.104 23.2707C17.104 23.4535 17.037 23.6299 16.9158 23.7661C16.7946 23.9024 16.6277 23.9889 16.447 24.0092H15.2518C15.0851 24.7308 14.6808 25.3745 14.1044 25.8358C13.528 26.2971 12.8135 26.549 12.0768 26.5505H11.7301L14.7318 29.7982C14.8683 29.9358 14.9449 30.1222 14.9449 30.3165C14.9449 30.5109 14.8683 30.6973 14.7318 30.8349C14.6506 30.9003 14.5567 30.9479 14.4562 30.9748C14.3556 31.0016 14.2506 31.0071 14.1479 30.9909Z" fill="white"/>
<path d="M57.8578 30.9909C57.7566 30.9903 57.6567 30.9688 57.5641 30.9278C57.4715 30.8867 57.3882 30.827 57.3195 30.7523L53.2139 26.3119C53.0769 26.1728 53 25.9849 53 25.789C53 25.5932 53.0769 25.4052 53.2139 25.2661C53.3475 25.1406 53.5239 25.0716 53.7066 25.0734H55.7412C56.0839 25.0673 56.4181 24.9643 56.7053 24.7761C56.9925 24.5879 57.2212 24.3221 57.3652 24.0092H54.4365C54.2558 23.9889 54.0889 23.9024 53.9677 23.7661C53.8465 23.6299 53.7795 23.4535 53.7795 23.2707C53.7795 23.0878 53.8465 22.9114 53.9677 22.7752C54.0889 22.6389 54.2558 22.5524 54.4365 22.5321H57.4108C57.2655 22.2209 57.0363 21.9571 56.7492 21.7705C56.462 21.584 56.1286 21.4823 55.7868 21.4771H53.7522C53.5716 21.4568 53.4047 21.3702 53.2834 21.234C53.1622 21.0977 53.0952 20.9213 53.0952 20.7385C53.0952 20.5557 53.1622 20.3793 53.2834 20.2431C53.4047 20.1068 53.5716 20.0203 53.7522 20H60.1387C60.3194 20.0203 60.4863 20.1068 60.6075 20.2431C60.7287 20.3793 60.7957 20.5557 60.7957 20.7385C60.7957 20.9213 60.7287 21.0977 60.6075 21.234C60.4863 21.3702 60.3194 21.4568 60.1387 21.4771H58.5056C58.7173 21.7984 58.8688 22.156 58.9527 22.5321H60.157C60.3376 22.5524 60.5045 22.6389 60.6257 22.7752C60.747 22.9114 60.814 23.0878 60.814 23.2707C60.814 23.4535 60.747 23.6299 60.6257 23.7661C60.5045 23.9024 60.3376 23.9889 60.157 24.0092H58.9618C58.7951 24.7308 58.3907 25.3745 57.8144 25.8358C57.238 26.2971 56.5235 26.549 55.7868 26.5505H55.4401L58.4417 29.7982C58.5782 29.9358 58.6549 30.1222 58.6549 30.3165C58.6549 30.5109 58.5782 30.6973 58.4417 30.8349C58.3605 30.9003 58.2667 30.9479 58.1661 30.9748C58.0656 31.0016 57.9606 31.0071 57.8578 30.9909Z" fill="white"/>
<path d="M35.6845 56.9925C35.6018 56.992 35.52 56.9745 35.4442 56.9409C35.3684 56.9073 35.3003 56.8585 35.2441 56.7974L31.885 53.1643C31.7729 53.0505 31.71 52.8967 31.71 52.7365C31.71 52.5762 31.7729 52.4225 31.885 52.3086C31.9943 52.206 32.1386 52.1495 32.2881 52.151H33.9527C34.2332 52.146 34.5066 52.0617 34.7416 51.9077C34.9766 51.7537 35.1637 51.5362 35.2815 51.2802H32.8853C32.7375 51.2637 32.6009 51.1928 32.5017 51.0814C32.4025 50.9699 32.3477 50.8256 32.3477 50.676C32.3477 50.5264 32.4025 50.3821 32.5017 50.2706C32.6009 50.1591 32.7375 50.0883 32.8853 50.0717H35.3188C35.1999 49.8171 35.0124 49.6012 34.7775 49.4486C34.5425 49.296 34.2697 49.2128 33.9901 49.2085H32.3254C32.1776 49.1919 32.041 49.1211 31.9419 49.0096C31.8427 48.8982 31.7879 48.7538 31.7879 48.6043C31.7879 48.4547 31.8427 48.3104 31.9419 48.1989C32.041 48.0874 32.1776 48.0166 32.3254 48H37.5507C37.6986 48.0166 37.8351 48.0874 37.9343 48.1989C38.0335 48.3104 38.0883 48.4547 38.0883 48.6043C38.0883 48.7538 38.0335 48.8982 37.9343 49.0096C37.8351 49.1211 37.6986 49.1919 37.5507 49.2085H36.2145C36.3877 49.4715 36.5117 49.764 36.5803 50.0717H37.5657C37.7135 50.0883 37.85 50.1591 37.9492 50.2706C38.0484 50.3821 38.1032 50.5264 38.1032 50.676C38.1032 50.8256 38.0484 50.9699 37.9492 51.0814C37.85 51.1928 37.7135 51.2637 37.5657 51.2802H36.5878C36.4514 51.8706 36.1206 52.3973 35.649 52.7748C35.1774 53.1522 34.5928 53.3583 33.9901 53.3595H33.7064L36.1623 56.0167C36.274 56.1293 36.3367 56.2818 36.3367 56.4408C36.3367 56.5998 36.274 56.7523 36.1623 56.8649C36.0959 56.9184 36.0191 56.9574 35.9368 56.9794C35.8545 57.0013 35.7686 57.0058 35.6845 56.9925Z" fill="white"/>
<path d="M27.9929 30.1717C28.1399 30.0525 28.2971 29.9464 28.4627 29.8546C28.4717 29.8497 28.4812 29.846 28.4903 29.8411C28.6486 29.7543 28.8138 29.6809 28.9843 29.6214L28.9844 23.128C28.9845 22.8378 28.8693 22.5594 28.6642 22.3541C28.4591 22.1488 28.1808 22.0334 27.8906 22.0332H22.4219C22.1317 22.0334 21.8534 22.1488 21.6483 22.3541C21.4432 22.5594 21.328 22.8378 21.3281 23.128V38.1818H23.5156V24.2228H26.7969V38.3C27.2243 38.3876 27.6398 38.5258 28.0346 38.7116C28.1898 38.5495 28.3452 38.3861 28.4995 38.231L26.9739 33.7721C26.7596 33.1393 26.7423 32.4564 26.9242 31.8136C27.1061 31.1708 27.4788 30.5983 27.9929 30.1717Z" fill="white"/>
<path d="M48.6719 38.1818V1.09484C48.672 0.804621 48.5569 0.52623 48.3517 0.320908C48.1466 0.115587 47.8683 0.000153705 47.5781 0L42.1094 0C41.8192 0.000153705 41.5409 0.115587 41.3358 0.320908C41.1306 0.52623 41.0155 0.804621 41.0156 1.09484V29.6297C41.1878 29.6899 41.3547 29.7644 41.5144 29.8525C41.5247 29.8581 41.5354 29.8624 41.5457 29.8682C41.7123 29.9613 41.8703 30.0691 42.0178 30.1904C42.526 30.6171 42.894 31.187 43.0739 31.8258C43.2537 32.4647 43.2371 33.1428 43.0261 33.7721L41.5005 38.231C41.6548 38.3861 41.8102 38.5495 41.9654 38.7116C42.3602 38.5258 42.7757 38.3876 43.2031 38.2999V2.18964H46.4844V38.1818H48.6719Z" fill="white"/>
</g>
<defs>
<clipPath id="clip0_1223_47">
<rect width="70" height="70" fill="white"/>
</clipPath>
</defs>
</svg>
