<svg width="70" height="70" viewBox="0 0 70 70" fill="none" xmlns="http://www.w3.org/2000/svg">
<path d="M62.9081 36.6756L55.7812 30.1437V26.5814L55.965 26.3058C57.2764 24.3392 57.9688 22.0511 57.9688 19.6875V19.2347L57.6483 18.9142C57.4777 18.7436 56.3325 17.6969 53.5938 17.0111V4.375C53.5938 2.56594 52.1216 1.09375 50.3125 1.09375H4.375C2.56594 1.09375 1.09375 2.56594 1.09375 4.375V28.4375C1.09375 30.2466 2.56594 31.7188 4.375 31.7188H21.4222L25.0239 35.3205C25.3783 35.6748 25.818 35.91 26.2948 36.0194C24.9922 36.6472 23.7442 37.3931 22.5914 38.2812H20.58C20.1272 37.0114 18.9241 36.0938 17.5 36.0938H1.09375V55.7812H17.5C18.9241 55.7812 20.1272 54.8636 20.58 53.5938H22.5258C25.4767 56.385 29.3103 57.925 33.3845 57.9622C36.3081 64.4055 42.7875 68.9062 50.3125 68.9062C60.5653 68.9062 68.9062 60.5653 68.9062 50.3125C68.9062 45.1412 66.7198 40.1713 62.9081 36.6756ZM54.145 25.0917L54.1023 25.1562H50.9983C50.0019 23.1186 49.4025 20.883 49.2559 18.6167C53.0873 18.7808 55.0452 19.7564 55.7681 20.2191C55.673 21.9592 55.1173 23.6338 54.145 25.0917ZM46.6134 25.1562L44.998 21.9253C45.5328 21.21 46.3717 20.7812 47.2894 20.7812H47.3134C47.5694 22.283 47.9981 23.7552 48.5909 25.1562H46.6134ZM47.0312 27.3438H53.5938V29.5312H47.0312V27.3438ZM22.3278 29.5312H4.375C3.77234 29.5312 3.28125 29.0402 3.28125 28.4375V4.375C3.28125 3.77234 3.77234 3.28125 4.375 3.28125H50.3125C50.9152 3.28125 51.4062 3.77234 51.4062 4.375V16.6042C50.4459 16.4817 49.3588 16.4062 48.125 16.4062H47.0312V17.5C47.0312 17.8697 47.0422 18.2405 47.0641 18.6091C45.2309 18.69 43.5991 19.7313 42.7722 21.385L42.5272 21.875L44.8438 26.5081V29.5312H27.3438V33.4534C27.3438 33.8231 26.8308 34.0353 26.5705 33.7739L22.3278 29.5312ZM29.5312 33.4534V31.7188H43.1255L40.7389 33.9062H35.4408C33.2773 33.9062 31.1369 34.2573 29.0916 34.9048C29.3683 34.4881 29.5312 33.9894 29.5312 33.4534ZM18.5938 52.5C18.5938 53.1037 18.1027 53.5938 17.5 53.5938H3.28125V38.2812H17.5C18.1027 38.2812 18.5938 38.7713 18.5938 39.375V52.5ZM23.742 51.7267L23.4216 51.4062H20.7812V40.4688H23.3527L23.6523 40.2292C26.9861 37.5627 31.173 36.0938 35.4408 36.0938H42.6562C42.6562 37.3002 41.6763 38.2812 40.4731 38.2812H37.0158C35.3511 38.2812 33.8548 39.2087 33.1625 40.6077L33.1089 40.7039C32.5084 41.9081 31.2998 42.6562 29.9545 42.6562H29.5312V44.8438H29.9545C30.9848 44.8438 31.9605 44.5648 32.8059 44.0836C32.095 46.072 31.7188 48.1808 31.7188 50.3125C31.7188 52.1981 32.0053 54.017 32.5292 55.732C29.2097 55.4958 26.1188 54.1034 23.742 51.7267ZM50.3125 66.7188C41.2661 66.7188 33.9062 59.3589 33.9062 50.3125C33.9062 46.7644 35.0897 43.2928 37.228 40.4688H40.4731C42.8838 40.4688 44.8438 38.5066 44.8438 36.0938C44.8438 35.2603 44.3702 34.5439 43.6844 34.1742L46.363 31.7188H54.262L61.4294 38.2889C64.7905 41.37 66.7188 45.7527 66.7188 50.3125C66.7188 59.3589 59.3589 66.7188 50.3125 66.7188Z" fill="white"/>
<path d="M9.84375 5.46875H7.65625C6.44984 5.46875 5.46875 6.44984 5.46875 7.65625V16.4062C5.46875 17.6127 6.44984 18.5938 7.65625 18.5938H9.84375C11.0502 18.5938 12.0312 17.6127 12.0312 16.4062V7.65625C12.0312 6.44984 11.0502 5.46875 9.84375 5.46875ZM7.65625 16.4062V7.65625H9.84375L9.84484 16.4062H7.65625Z" fill="white"/>
<path d="M8.75 20.7812C6.94094 20.7812 5.46875 22.2534 5.46875 24.0625C5.46875 25.8716 6.94094 27.3438 8.75 27.3438C10.5591 27.3438 12.0312 25.8716 12.0312 24.0625C12.0312 22.2534 10.5591 20.7812 8.75 20.7812ZM8.75 25.1562C8.14734 25.1562 7.65625 24.6652 7.65625 24.0625C7.65625 23.4598 8.14734 22.9688 8.75 22.9688C9.35266 22.9688 9.84375 23.4598 9.84375 24.0625C9.84375 24.6652 9.35266 25.1562 8.75 25.1562Z" fill="white"/>
<path d="M18.5938 5.46875H16.4062C15.1998 5.46875 14.2188 6.44984 14.2188 7.65625V16.4062C14.2188 17.6127 15.1998 18.5938 16.4062 18.5938H18.5938C19.8002 18.5938 20.7812 17.6127 20.7812 16.4062V7.65625C20.7812 6.44984 19.8002 5.46875 18.5938 5.46875ZM16.4062 16.4062V7.65625H18.5938L18.5948 16.4062H16.4062Z" fill="white"/>
<path d="M17.5 20.7812C15.6909 20.7812 14.2188 22.2534 14.2188 24.0625C14.2188 25.8716 15.6909 27.3438 17.5 27.3438C19.3091 27.3438 20.7812 25.8716 20.7812 24.0625C20.7812 22.2534 19.3091 20.7812 17.5 20.7812ZM17.5 25.1562C16.8973 25.1562 16.4062 24.6652 16.4062 24.0625C16.4062 23.4598 16.8973 22.9688 17.5 22.9688C18.1027 22.9688 18.5938 23.4598 18.5938 24.0625C18.5938 24.6652 18.1027 25.1562 17.5 25.1562Z" fill="white"/>
<path d="M25.1562 18.5938H27.3438C28.5502 18.5938 29.5312 17.6127 29.5312 16.4062V7.65625C29.5312 6.44984 28.5502 5.46875 27.3438 5.46875H25.1562C23.9498 5.46875 22.9688 6.44984 22.9688 7.65625V16.4062C22.9688 17.6127 23.9498 18.5938 25.1562 18.5938ZM25.1562 7.65625H27.3438L27.3448 16.4062H25.1562V7.65625Z" fill="white"/>
<path d="M29.5312 24.0625C29.5312 22.2534 28.0591 20.7812 26.25 20.7812C24.4409 20.7812 22.9688 22.2534 22.9688 24.0625C22.9688 25.8716 24.4409 27.3438 26.25 27.3438C28.0591 27.3438 29.5312 25.8716 29.5312 24.0625ZM26.25 25.1562C25.6473 25.1562 25.1562 24.6652 25.1562 24.0625C25.1562 23.4598 25.6473 22.9688 26.25 22.9688C26.8527 22.9688 27.3438 23.4598 27.3438 24.0625C27.3438 24.6652 26.8527 25.1562 26.25 25.1562Z" fill="white"/>
<path d="M33.9062 5.46875H38.2812V7.65625H33.9062V5.46875Z" fill="white"/>
<path d="M40.4688 5.46875H49.2188V7.65625H40.4688V5.46875Z" fill="white"/>
<path d="M33.9062 9.84375H49.2188V12.0312H33.9062V9.84375Z" fill="white"/>
<path d="M33.9062 14.2188H44.8438V16.4062H33.9062V14.2188Z" fill="white"/>
<path d="M33.9062 18.5938H40.4688V20.7812H33.9062V18.5938Z" fill="white"/>
<path d="M33.9062 22.9688H40.4688V25.1562H33.9062V22.9688Z" fill="white"/>
<path d="M52.2168 58.0656C52.0874 58.0649 51.9594 58.0374 51.8409 57.9849C51.7224 57.9324 51.6159 57.856 51.528 57.7604L46.2738 52.0778C46.0984 51.8997 46 51.6592 46 51.4085C46 51.1579 46.0984 50.9174 46.2738 50.7393C46.4447 50.5788 46.6704 50.4905 46.9043 50.4927H49.508C49.9467 50.485 50.3743 50.3531 50.7419 50.1122C51.1095 49.8713 51.4021 49.5312 51.5863 49.1308H47.8384C47.6071 49.1048 47.3936 48.9941 47.2384 48.8197C47.0833 48.6454 46.9975 48.4196 46.9975 48.1856C46.9975 47.9517 47.0833 47.7259 47.2384 47.5516C47.3936 47.3772 47.6071 47.2665 47.8384 47.2405H51.6447C51.4588 46.8423 51.1655 46.5046 50.798 46.2658C50.4306 46.0271 50.0038 45.897 49.5664 45.8903H46.9627C46.7315 45.8643 46.5179 45.7536 46.3627 45.5792C46.2076 45.4049 46.1219 45.1791 46.1219 44.9451C46.1219 44.7112 46.2076 44.4854 46.3627 44.3111C46.5179 44.1367 46.7315 44.026 46.9627 44H55.1358C55.367 44.026 55.5806 44.1367 55.7358 44.3111C55.8909 44.4854 55.9766 44.7112 55.9766 44.9451C55.9766 45.1791 55.8909 45.4049 55.7358 45.5792C55.5806 45.7536 55.367 45.8643 55.1358 45.8903H53.0458C53.3167 46.3016 53.5106 46.7592 53.618 47.2405H55.1592C55.3904 47.2665 55.604 47.3772 55.7591 47.5516C55.9142 47.7259 56 47.9517 56 48.1856C56 48.4196 55.9142 48.6454 55.7591 48.8197C55.604 48.9941 55.3904 49.1048 55.1592 49.1308H53.6296C53.4163 50.0542 52.8988 50.878 52.1612 51.4684C51.4236 52.0588 50.5092 52.3811 49.5664 52.383H49.1227L52.9641 56.5393C53.1388 56.7154 53.2369 56.954 53.2369 57.2027C53.2369 57.4514 53.1388 57.69 52.9641 57.8661C52.8602 57.9497 52.7401 58.0107 52.6114 58.0451C52.4827 58.0794 52.3484 58.0864 52.2168 58.0656Z" fill="white"/>
</svg>
