<svg width="70" height="70" viewBox="0 0 70 70" fill="none" xmlns="http://www.w3.org/2000/svg">
<path d="M65.6249 29.5312C65.6249 29.2412 65.5097 28.963 65.3046 28.7579C65.0994 28.5527 64.8212 28.4375 64.5312 28.4375H57.9687C57.6786 28.4375 57.4004 28.5527 57.1953 28.7579C56.9901 28.963 56.8749 29.2412 56.8749 29.5312V33.9062H51.4062C51.1161 33.9062 50.8379 34.0215 50.6328 34.2266C50.4276 34.4317 50.3124 34.7099 50.3124 35V38.2812H44.8437C44.5536 38.2812 44.2754 38.3965 44.0703 38.6016C43.8651 38.8067 43.7499 39.0849 43.7499 39.375V49.6977L39.3409 44.4069C40.1754 42.595 40.5566 40.6073 40.4516 38.6153C40.3466 36.6232 39.7586 34.6866 38.7382 32.9726L43.0398 29.5312H50.3124V27.3437H42.6562C42.4078 27.3437 42.1668 27.4283 41.9729 27.5834L37.4544 31.1982C37.4228 31.1617 37.393 31.124 37.3608 31.0879L31.8915 24.9349L32.8794 22.4651C33.0408 22.0617 33.0834 21.6206 33.0023 21.1937C32.9213 20.7669 32.7198 20.3721 32.4218 20.0559C32.1237 19.7398 31.7415 19.5155 31.3201 19.4095C30.8987 19.3034 30.4559 19.3201 30.0437 19.4575C30.0248 19.4638 30.0043 19.4638 29.9855 19.4573C29.9666 19.4509 29.9504 19.4384 29.9394 19.4218L28.8604 17.8033C28.5739 17.3736 28.1857 17.0212 27.7303 16.7775C27.2749 16.5338 26.7664 16.4062 26.2499 16.4062C25.7334 16.4062 25.2248 16.5338 24.7694 16.7775C24.3141 17.0212 23.9259 17.3736 23.6394 17.8033L22.5605 19.4218C22.5494 19.4384 22.5332 19.4509 22.5144 19.4573C22.4955 19.4638 22.4751 19.4638 22.4562 19.4575C22.044 19.3201 21.6011 19.3034 21.1798 19.4094C20.7584 19.5155 20.3762 19.7398 20.0781 20.0559C19.7801 20.372 19.5786 20.7668 19.4975 21.1936C19.4164 21.6205 19.4591 22.0616 19.6205 22.465L20.6083 24.9349L15.139 31.0878C13.6317 32.7827 12.6225 34.8615 12.2232 37.0943C11.8239 39.3271 12.05 41.6268 12.8764 43.7391L2.61426 51.6331L3.94807 53.3669L6.19168 51.641L14.8749 63.2187L11.3749 65.8437L12.6874 67.5938L16.9575 64.3912L24.4933 61.1616C24.731 61.0597 24.925 60.8768 25.0407 60.6454L27.0168 56.693L36.1609 53.95C36.7184 53.7829 37.2147 53.4559 37.5881 53.0095C37.9616 52.5631 38.1959 52.0169 38.2619 51.4387C38.328 50.8604 38.2229 50.2755 37.9598 49.7564C37.6966 49.2372 37.2869 48.8068 36.7814 48.5182L38.1761 46.4262L42.9096 52.1064C43.0123 52.2296 43.1408 52.3287 43.286 52.3967C43.4312 52.4647 43.5896 52.5 43.7499 52.5H67.8124V50.3125H65.6249V29.5312ZM21.6697 21.5567C21.6803 21.5424 21.6956 21.5322 21.7129 21.5278C21.7302 21.5235 21.7484 21.5252 21.7646 21.5328C22.2388 21.69 22.7514 21.6873 23.224 21.5252C23.6965 21.363 24.1028 21.0504 24.3806 20.6352L25.4595 19.0167C25.5463 18.8866 25.6638 18.7799 25.8017 18.7061C25.9395 18.6324 26.0935 18.5937 26.2499 18.5937C26.4063 18.5937 26.5602 18.6324 26.6981 18.7061C26.836 18.7799 26.9535 18.8866 27.0402 19.0167L28.1192 20.6352C28.3971 21.0503 28.8034 21.3629 29.2759 21.525C29.7484 21.6871 30.2611 21.6899 30.7353 21.5328C30.7517 21.5273 30.7693 21.5267 30.7861 21.5309C30.8029 21.5351 30.8182 21.544 30.8301 21.5566C30.842 21.5692 30.85 21.585 30.8532 21.602C30.8565 21.619 30.8548 21.6366 30.8483 21.6527L29.8844 24.0625H22.6154L21.6515 21.6526C21.643 21.6369 21.6402 21.6189 21.6435 21.6014C21.6468 21.5839 21.6561 21.5681 21.6697 21.5567ZM14.2187 39.262C14.2177 36.7842 15.1271 34.3924 16.774 32.5411L22.366 26.25H23.7953C23.2307 27.0957 22.8677 28.0597 22.7341 29.0677C22.6005 30.0757 22.7 31.101 23.0248 32.0645L25.1 31.3729C24.8327 30.58 24.7929 29.728 24.9852 28.9136C25.1775 28.0992 25.5941 27.3549 26.1878 26.7652L26.2499 26.703L26.312 26.7651C26.9057 27.3548 27.3223 28.0991 27.5146 28.9135C27.7069 29.728 27.6671 30.58 27.3998 31.3729L29.475 32.0645C29.7999 31.101 29.8993 30.0757 29.7657 29.0677C29.6321 28.0597 29.2691 27.0957 28.7045 26.25H30.1338L35.7258 32.5412C37.2119 34.2129 38.1019 36.33 38.2569 38.5614C38.4118 40.7928 37.8228 43.0126 36.5821 44.8737L34.4146 48.125H20.3634L21.387 46.0778C21.707 45.4358 21.874 44.7284 21.8749 44.011C21.8749 43.3495 21.6897 42.7012 21.3402 42.1396C20.9907 41.5779 20.491 41.1253 19.8975 40.8331C19.304 40.5409 18.6406 40.4207 17.9823 40.4861C17.3241 40.5515 16.6973 40.8 16.173 41.2033L14.6989 42.3372C14.3821 41.3429 14.2201 40.3057 14.2187 39.262ZM35.5323 51.8546L25.9356 54.7336C25.7927 54.7765 25.6601 54.8481 25.5459 54.9442C25.4317 55.0402 25.3384 55.1586 25.2716 55.2921L23.2633 59.3087L16.7653 62.0935L7.92563 50.3072L17.5067 42.9372C17.7072 42.7829 17.9469 42.6879 18.1987 42.6629C18.4504 42.6379 18.7042 42.6839 18.9311 42.7956C19.1581 42.9074 19.3492 43.0805 19.4829 43.2953C19.6166 43.5101 19.6874 43.758 19.6874 44.011C19.687 44.3888 19.599 44.7613 19.4305 45.0994L17.6154 48.7295C17.532 48.8963 17.4926 49.0816 17.501 49.2679C17.5094 49.4541 17.5652 49.6351 17.6632 49.7937C17.7613 49.9523 17.8982 50.0833 18.061 50.174C18.2239 50.2648 18.4072 50.3125 18.5937 50.3125H35.306C35.4951 50.3125 35.6779 50.3805 35.8209 50.5041C35.964 50.6277 36.0579 50.7987 36.0853 50.9858C36.1128 51.1729 36.072 51.3636 35.9705 51.5231C35.8689 51.6826 35.7134 51.8003 35.5323 51.8546ZM45.9374 40.4687H50.3124V50.3125H45.9374V40.4687ZM52.4999 36.0937H56.8749V50.3125H52.4999V36.0937ZM59.0624 50.3125V30.625H63.4374V50.3125H59.0624Z" fill="white"/>
<path d="M55.7813 2.1875C53.4017 2.1875 51.0756 2.89312 49.0971 4.21513C47.1185 5.53714 45.5764 7.41617 44.6658 9.61459C43.7552 11.813 43.517 14.2321 43.9812 16.5659C44.4454 18.8998 45.5913 21.0435 47.2739 22.7261C48.9565 24.4087 51.1002 25.5546 53.4341 26.0188C55.7679 26.483 58.187 26.2448 60.3854 25.3342C62.5838 24.4236 64.4629 22.8815 65.7849 20.903C67.1069 18.9244 67.8125 16.5983 67.8125 14.2188C67.8089 11.029 66.5402 7.97087 64.2847 5.71535C62.0291 3.45983 58.971 2.1911 55.7813 2.1875ZM65.5628 13.125H61.14C60.9236 12.0751 60.4043 11.1117 59.6463 10.3537C58.8883 9.59572 57.9249 9.07645 56.875 8.86005V4.43722C59.0926 4.68845 61.1593 5.68452 62.7374 7.26261C64.3155 8.84069 65.3116 10.9074 65.5628 13.125ZM60.3417 17.2323C60.7288 16.6497 60.9998 15.9978 61.14 15.3125H65.5628C65.3571 17.1591 64.6304 18.909 63.4675 20.3582L60.3417 17.2323ZM55.7813 10.9375C56.4302 10.9375 57.0646 11.1299 57.6042 11.4905C58.1438 11.851 58.5644 12.3635 58.8127 12.9631C59.0611 13.5626 59.1261 14.2224 58.9995 14.8589C58.8729 15.4954 58.5603 16.0801 58.1014 16.5389C57.6426 16.9978 57.0579 17.3103 56.4214 17.437C55.7849 17.5636 55.1251 17.4986 54.5256 17.2502C53.926 17.0019 53.4135 16.5813 53.053 16.0417C52.6924 15.5021 52.5 14.8677 52.5 14.2188C52.501 13.3488 52.847 12.5148 53.4622 11.8997C54.0773 11.2845 54.9113 10.9385 55.7813 10.9375ZM45.9375 14.2188C45.9407 11.7984 46.8342 9.4639 48.4479 7.66001C50.0616 5.85612 52.2825 4.70899 54.6875 4.43722V8.86005C53.897 9.0207 53.1519 9.35423 52.5055 9.83674C51.8591 10.3192 51.3274 10.9388 50.9486 11.6509C50.5698 12.3631 50.3533 13.1502 50.3145 13.9559C50.2756 14.7616 50.4156 15.5659 50.7242 16.3112C51.0328 17.0564 51.5024 17.7242 52.0994 18.2666C52.6965 18.809 53.4061 19.2126 54.1775 19.4485C54.9489 19.6843 55.7629 19.7467 56.5611 19.6309C57.3594 19.5152 58.1222 19.2243 58.7949 18.7791L61.9207 21.905C60.4736 23.0635 58.7286 23.7895 56.8867 23.9993C55.0449 24.2091 53.1813 23.8942 51.5107 23.0908C49.8401 22.2874 48.4306 21.0283 47.4445 19.4586C46.4585 17.8889 45.9361 16.0725 45.9375 14.2188Z" fill="white"/>
<path d="M27.533 43.9934C27.4594 43.9929 27.3867 43.9773 27.3193 43.9475C27.252 43.9176 27.1914 43.8742 27.1415 43.8199L24.1556 40.5905C24.0559 40.4893 24 40.3526 24 40.2102C24 40.0678 24.0559 39.9311 24.1556 39.8299C24.2527 39.7386 24.381 39.6885 24.5139 39.6898H25.9936C26.2429 39.6853 26.4859 39.6104 26.6948 39.4735C26.9037 39.3366 27.07 39.1433 27.1747 38.9158H25.0447C24.9133 38.901 24.7919 38.8381 24.7038 38.739C24.6156 38.6399 24.5669 38.5116 24.5669 38.3787C24.5669 38.2457 24.6156 38.1174 24.7038 38.0183C24.7919 37.9192 24.9133 37.8563 25.0447 37.8415H27.2078C27.1022 37.6152 26.9355 37.4233 26.7267 37.2877C26.5178 37.152 26.2753 37.078 26.0268 37.0742H24.5471C24.4157 37.0595 24.2943 36.9965 24.2061 36.8975C24.118 36.7984 24.0692 36.6701 24.0692 36.5371C24.0692 36.4042 24.118 36.2759 24.2061 36.1768C24.2943 36.0777 24.4157 36.0147 24.5471 36H29.1918C29.3232 36.0147 29.4446 36.0777 29.5327 36.1768C29.6209 36.2759 29.6696 36.4042 29.6696 36.5371C29.6696 36.6701 29.6209 36.7984 29.5327 36.8975C29.4446 36.9965 29.3232 37.0595 29.1918 37.0742H28.0041C28.158 37.308 28.2682 37.568 28.3292 37.8415H29.2051C29.3365 37.8563 29.4578 37.9192 29.546 38.0183C29.6342 38.1174 29.6829 38.2457 29.6829 38.3787C29.6829 38.5116 29.6342 38.6399 29.546 38.739C29.4578 38.8381 29.3365 38.901 29.2051 38.9158H28.3358C28.2146 39.4405 27.9205 39.9087 27.5014 40.2442C27.0822 40.5797 26.5625 40.7629 26.0268 40.764H25.7746L27.9576 43.126C28.0569 43.226 28.1126 43.3616 28.1126 43.5029C28.1126 43.6443 28.0569 43.7799 27.9576 43.8799C27.8986 43.9275 27.8303 43.9621 27.7572 43.9817C27.6841 44.0012 27.6077 44.0052 27.533 43.9934Z" fill="white"/>
</svg>
