<svg width="70" height="70" viewBox="0 0 70 70" fill="none" xmlns="http://www.w3.org/2000/svg">
<path d="M63.8939 29.9414H62.6841C61.6777 24.269 58.9857 19.1276 54.864 15.0295C50.7418 10.9308 45.5843 8.26862 39.9046 7.29532V6.11366C39.9046 3.43548 37.7257 1.25659 35.0475 1.25659C32.3693 1.25659 30.1907 3.43562 30.1907 6.11366V7.32362C24.5182 8.33001 19.3769 11.022 15.2788 15.1437C11.1801 19.2659 8.51775 24.4235 7.54445 30.103H6.36293C3.68475 30.103 1.50586 32.282 1.50586 34.9601C1.50586 37.6381 3.68475 39.8169 6.36293 39.8169H7.57289C8.84615 46.9495 12.9004 53.376 18.8166 57.6268C18.631 60.1148 18.7957 62.819 19.8351 65.0057C21.0136 67.4852 23.1174 68.7958 25.9192 68.7958H44.4398C47.2196 68.7958 49.3004 67.5052 50.4576 65.0632C51.4962 62.8714 51.6347 60.1444 51.4204 57.6412C57.398 53.3546 61.4696 46.8647 62.7122 39.6554H63.8939C66.5721 39.6554 68.751 37.4764 68.751 34.7984C68.751 32.1203 66.5721 29.9414 63.8939 29.9414ZM60.7382 29.9414H55.7055C54.7936 26.1227 52.8417 22.651 50.0297 19.8609C47.2176 17.0707 43.7309 15.1461 39.9047 14.2643V9.23892C50.3749 11.1831 58.7279 19.4839 60.7382 29.9414ZM53.4464 39.6554H53.7729C52.9645 42.8036 51.3424 45.7349 49.0996 48.1086C48.0698 45.4754 46.7818 43.0387 45.3769 41.0944C46.0972 40.4577 46.5422 39.2853 46.5422 37.8778C46.5422 36.7306 46.24 35.2527 45.3916 34.5453C45.2809 34.453 45.1629 34.3789 45.0408 34.3194C47.1007 31.1782 48.2568 27.0724 46.8016 25.3572C46.141 24.5788 44.8102 23.9937 42.2214 25.6278L40.5324 26.6939C39.9367 27.0699 39.7524 27.0583 39.7524 27.0583C39.7146 27.0506 39.5885 26.975 39.5049 26.9249L37.067 25.476C36.3512 25.0509 35.7476 24.8657 35.1793 24.895C34.6112 24.8664 34.0073 25.0509 33.2916 25.476L30.8536 26.925C30.7701 26.9749 30.6439 27.0506 30.607 27.0582C30.607 27.0582 30.4213 27.0695 29.8262 26.6939L28.1373 25.6278C25.5463 23.9921 24.2153 24.5793 23.555 25.3597C22.0947 27.0856 23.2614 31.2013 25.3348 34.3462C25.16 34.4337 24.9941 34.5517 24.842 34.702C24.1998 35.3368 23.8164 36.5239 23.8164 37.8778C23.8164 39.1724 24.1834 40.2584 24.7899 40.9184C23.3763 42.8657 22.085 45.3334 21.0614 48.0098C18.8825 45.6829 17.338 42.8894 16.528 39.8172H16.8102C19.4883 39.8172 21.6672 37.6383 21.6672 34.9604C21.6672 32.2825 19.4883 30.1033 16.8102 30.1033H16.4871C18.2045 23.4201 23.5224 18.0563 30.1904 16.2806V16.5614C30.1904 19.2396 32.3692 21.4185 35.0472 21.4185C37.7253 21.4185 39.9043 19.2395 39.9043 16.5614V16.2385C46.5876 17.956 51.9514 23.2738 53.7271 29.9417H53.4461C50.7679 29.9417 48.5891 32.1206 48.5891 34.7985C48.5891 37.4764 50.7682 39.6554 53.4464 39.6554ZM42.5341 34.4974C37.4029 35.4222 32.5712 35.4333 27.8524 34.5297C25.2141 31.4266 24.3337 27.4028 25.0164 26.5959C25.1661 26.4193 25.8486 26.4463 27.1159 27.2461L28.8048 28.3123C30.2204 29.206 30.9627 29.091 31.8377 28.5666L34.2696 27.1215C34.7824 26.8167 35.0137 26.8002 35.0907 26.8073L35.1794 26.8156L35.2681 26.8073C35.3448 26.8 35.5764 26.8167 36.0893 27.1215L38.5211 28.5666C39.3961 29.0909 40.1388 29.2059 41.5541 28.3123L43.243 27.2461C44.5095 26.4468 45.1922 26.419 45.3421 26.5956C46.0207 27.3952 45.1499 31.3982 42.5341 34.4974ZM26.2766 39.6926C26.1315 39.6195 25.7306 39.0488 25.7306 37.8777C25.7306 36.9253 25.9841 36.3347 26.1344 36.1252C31.939 37.4484 37.8692 37.4447 44.2441 36.1155C44.3985 36.3653 44.6282 36.9995 44.6282 37.8778C44.6282 39.0982 44.1843 39.6509 44.0631 39.6973C38.6049 41.0188 32.6204 41.017 26.2766 39.6926ZM35.0473 3.17052C36.6702 3.17052 37.9904 4.49067 37.9904 6.11353V15.0518V15.0547V16.5613C37.9904 18.1842 36.6701 19.5043 35.0473 19.5043C33.4246 19.5043 32.1046 18.1842 32.1046 16.5613V6.11366C32.1046 4.49081 33.4248 3.17052 35.0473 3.17052ZM30.1905 9.26941V14.302C26.3717 15.2139 22.9002 17.1659 20.1099 19.9779C17.3197 22.7899 15.3951 26.2767 14.5134 30.1029H9.48805C11.4323 19.6326 19.7333 11.2794 30.1905 9.26941ZM3.41979 34.9601C3.41979 33.3372 4.73994 32.0171 6.36279 32.0171H8.36107H8.36299H8.36586H15.2875H15.2904H15.2919H16.8103C18.4331 32.0171 19.7533 33.3372 19.7533 34.9601C19.7533 36.5829 18.4331 37.9028 16.8103 37.9028H15.331C15.3276 37.9028 15.324 37.9028 15.3206 37.9028H6.36279C4.73994 37.9028 3.41979 36.5828 3.41979 34.9601ZM9.52018 39.8169H14.5514C15.4795 43.7097 17.472 47.2134 20.3557 50.0229C20.1018 50.8169 19.8724 51.6215 19.6722 52.4297C19.4671 53.2583 19.2451 54.2869 19.0703 55.4242C14.1169 51.5439 10.7044 45.9747 9.52018 39.8169ZM48.7278 64.2435C47.8866 66.0186 46.4839 66.8816 44.4396 66.8816H25.919C23.851 66.8816 22.4264 65.9992 21.5636 64.184C20.7678 62.5097 20.5029 60.0971 20.7682 57.2692C20.7687 57.2647 20.769 57.2602 20.7694 57.2556C20.8987 55.8854 21.1517 54.4186 21.5301 52.8901C21.765 51.9414 22.041 50.9991 22.3512 50.0761C22.3546 50.067 22.3574 50.0577 22.3605 50.0484C23.4406 46.8434 24.9366 43.877 26.5881 41.7076C29.6465 42.3031 32.6271 42.6013 35.5122 42.6013C38.2688 42.6013 40.9383 42.329 43.5059 41.7854C45.1757 43.966 46.6963 46.9301 47.8046 50.124C47.8085 50.136 47.8124 50.1479 47.8167 50.1597C48.1386 51.0903 48.4257 52.0398 48.671 52.9952C49.0551 54.4915 49.318 55.9276 49.4609 57.27C49.4616 57.2767 49.4622 57.2834 49.463 57.29C49.7642 60.1431 49.5203 62.571 48.7278 64.2435ZM51.1445 55.4572C50.9614 54.343 50.7345 53.3341 50.5251 52.5192C50.3171 51.7084 50.0793 50.9011 49.8169 50.1039C52.7487 47.2712 54.8267 43.6062 55.7423 39.6553H60.7667C59.6078 45.8984 56.1683 51.5396 51.1445 55.4572ZM63.8938 37.7412H53.4463C51.8234 37.7412 50.5033 36.4211 50.5033 34.7982C50.5033 33.1754 51.8234 31.8555 53.4463 31.8555H54.9331H54.9346H54.9373H61.8673H61.8702H61.872H63.8938C65.5166 31.8555 66.8368 33.1755 66.8368 34.7982C66.8368 36.4209 65.5166 37.7412 63.8938 37.7412Z" fill="white"/>
<path d="M37.2994 59.99C37.1891 59.9894 37.08 59.966 36.979 59.9212C36.878 59.8764 36.7872 59.8113 36.7122 59.7298L32.2334 54.8858C32.0839 54.734 32 54.5289 32 54.3153C32 54.1016 32.0839 53.8966 32.2334 53.7448C32.3791 53.608 32.5715 53.5327 32.7709 53.5346H34.9904C35.3643 53.528 35.7288 53.4156 36.0422 53.2103C36.3555 53.0049 36.605 52.715 36.762 52.3737H33.5671C33.37 52.3515 33.1879 52.2571 33.0557 52.1085C32.9234 51.9599 32.8503 51.7674 32.8503 51.568C32.8503 51.3686 32.9234 51.1761 33.0557 51.0275C33.1879 50.8788 33.37 50.7844 33.5671 50.7623H36.8118C36.6533 50.4229 36.4032 50.135 36.09 49.9315C35.7768 49.728 35.413 49.6171 35.0401 49.6113H32.8206C32.6235 49.5892 32.4414 49.4948 32.3092 49.3462C32.177 49.1975 32.1039 49.0051 32.1039 48.8057C32.1039 48.6062 32.177 48.4138 32.3092 48.2652C32.4414 48.1165 32.6235 48.0221 32.8206 48H39.7877C39.9848 48.0221 40.1669 48.1165 40.2991 48.2652C40.4313 48.4138 40.5044 48.6062 40.5044 48.8057C40.5044 49.0051 40.4313 49.1975 40.2991 49.3462C40.1669 49.4948 39.9848 49.5892 39.7877 49.6113H38.0061C38.237 49.9619 38.4023 50.352 38.4938 50.7623H39.8076C40.0047 50.7844 40.1868 50.8788 40.319 51.0275C40.4512 51.1761 40.5243 51.3686 40.5243 51.568C40.5243 51.7674 40.4512 51.9599 40.319 52.1085C40.1868 52.2571 40.0047 52.3515 39.8076 52.3737H38.5038C38.3219 53.1608 37.8808 53.8631 37.252 54.3663C36.6233 54.8696 35.8438 55.1444 35.0401 55.146H34.6619L37.9364 58.6889C38.0853 58.839 38.169 59.0424 38.169 59.2544C38.169 59.4664 38.0853 59.6698 37.9364 59.8199C37.8479 59.8912 37.7455 59.9432 37.6358 59.9725C37.5261 60.0018 37.4116 60.0078 37.2994 59.99Z" fill="white"/>
</svg>
