<svg width="70" height="70" viewBox="0 0 70 70" fill="none" xmlns="http://www.w3.org/2000/svg">
<path d="M58.1821 21.4025C58.6656 20.9311 58.9423 20.2715 58.9423 19.5934C58.9423 18.6473 58.4042 17.8171 57.6156 17.3775L60.5064 13.4662C60.7525 13.1348 60.7896 12.6918 60.6037 12.3243C60.4178 11.9557 60.0404 11.7228 59.627 11.7228H45.6532C45.2398 11.7228 44.8625 11.9546 44.6765 12.3243C44.4906 12.6929 44.5278 13.1348 44.7739 13.4662L47.6603 17.3709C47.4514 17.4857 47.2534 17.6214 47.0817 17.7931C46.6092 18.2656 46.3379 18.9218 46.3379 19.5934C46.3379 20.5832 46.9111 21.4342 47.7368 21.8575C45.8862 23.7332 43.7632 26.0586 41.9356 28.5064C41.2881 27.802 40.6056 27.0889 39.8957 26.3714C40.1287 26.2511 40.3496 26.1056 40.5378 25.9153C41.03 25.4406 41.3001 24.7964 41.3001 24.0996C41.3001 23.1415 40.7718 22.3179 39.9778 21.8815L42.8631 17.9779C43.1092 17.6465 43.1464 17.2036 42.9604 16.8361C42.7745 16.4675 42.3971 16.2345 41.9837 16.2345H28.0089C27.5954 16.2345 27.2181 16.4664 27.0321 16.8361C26.8462 17.2046 26.8834 17.6465 27.1295 17.9779L30.0137 21.8804C29.8081 21.9953 29.6145 22.1276 29.4548 22.2939C28.9714 22.762 28.6936 23.4204 28.6936 24.0996C28.6936 25.095 29.2689 25.9503 30.0979 26.3736C29.469 27.0101 28.7865 27.7254 28.0625 28.5096C26.2337 26.0607 24.1107 23.7332 22.2579 21.8564C22.4942 21.7361 22.7151 21.5895 22.8956 21.4036C23.3801 20.9321 23.6579 20.2715 23.6579 19.5923C23.6579 18.6462 23.1209 17.8171 22.3312 17.3764L25.222 13.4651C25.4681 13.1337 25.5053 12.6907 25.3193 12.3232C25.1334 11.9546 24.7561 11.7217 24.3426 11.7217H10.3721C9.95871 11.7217 9.58137 11.9536 9.39543 12.3232C9.20949 12.6918 9.24668 13.1337 9.49277 13.4651L12.3792 17.3698C12.1714 17.4846 11.9723 17.6203 11.8006 17.792C11.327 18.2656 11.0557 18.9207 11.0557 19.5923C11.0557 20.5811 11.6278 21.4309 12.4525 21.8542C8.03262 26.3254 2.18652 33.2467 2.18652 38.5875C2.18652 46.959 8.99293 53.7698 17.359 53.7698C19.3934 53.7698 21.3468 53.3542 23.1909 52.582C26.0598 56.152 30.3976 58.2782 34.999 58.2782C39.6004 58.2782 43.9382 56.152 46.8071 52.582C48.6512 53.3553 50.6046 53.7709 52.639 53.7709C61.0051 53.7709 67.8115 46.9601 67.8115 38.5886C67.8115 33.2478 61.9654 26.3265 57.5456 21.8553C57.7807 21.735 58.0017 21.5884 58.1821 21.4025ZM55.1711 19.9543H50.1081C50.1081 19.9543 50.1004 19.9565 50.0971 19.9565H48.8896C48.6895 19.9565 48.5265 19.7936 48.5265 19.5923C48.5265 19.4567 48.5976 19.3703 48.6293 19.3396C48.6993 19.2696 48.7868 19.2325 48.847 19.2292H49.5853H55.6961C55.6961 19.2292 55.6971 19.2292 55.6982 19.2292H56.4059C56.5995 19.2346 56.7559 19.3976 56.7559 19.5934C56.7559 19.6853 56.7198 19.775 56.6356 19.8581C56.5732 19.9215 56.4846 19.9576 56.3917 19.9576H55.1831C55.1831 19.9576 55.1754 19.9554 55.1721 19.9554L55.1711 19.9543ZM57.4592 13.9103L55.1448 17.0417H50.1365L47.8221 13.9103H57.4592ZM31.2475 24.4715C31.0473 24.4715 30.8843 24.3042 30.8843 24.0986C30.8843 24.0078 30.9182 23.9225 31.0046 23.8393C31.0681 23.7748 31.1512 23.7398 31.2026 23.7354H31.9256C31.9321 23.7354 31.9376 23.7398 31.9442 23.7398H38.0561C38.0626 23.7398 38.0692 23.7354 38.0757 23.7354H38.7582C38.9551 23.742 39.1148 23.905 39.1148 24.0986C39.1148 24.2298 39.0557 24.3064 39.0054 24.3545C38.9715 24.3895 38.8764 24.4704 38.7517 24.4704H31.2475V24.4715ZM39.8192 18.4209L37.5081 21.549H32.4932L30.1811 18.4209H39.8192ZM19.8911 19.9543H14.8281C14.8281 19.9543 14.8204 19.9565 14.8171 19.9565H13.6086C13.4073 19.9565 13.2443 19.7936 13.2443 19.5923C13.2443 19.4578 13.3165 19.3703 13.3482 19.3396C13.4193 19.2686 13.5046 19.2325 13.5648 19.2292H14.3042H20.415C20.415 19.2292 20.4161 19.2292 20.4171 19.2292H21.1237C21.3173 19.2346 21.4748 19.3976 21.4748 19.5934C21.4748 19.7192 21.4114 19.799 21.3534 19.8581C21.3173 19.8953 21.2375 19.9576 21.1106 19.9576H19.9031C19.9031 19.9576 19.8954 19.9554 19.8921 19.9554L19.8911 19.9543ZM22.1781 13.9103L19.8637 17.0417H14.8554L12.5411 13.9103H22.1781ZM4.37512 38.5875C4.37512 33.3418 11.7481 25.5598 15.2678 22.144H19.4514C21.5623 24.1992 24.3503 27.1271 26.5815 30.1864C22.1157 35.4057 19.8265 39.7534 19.8265 43.0948C19.8265 45.8128 20.5451 48.4334 21.9046 50.7532C20.4598 51.2968 18.9384 51.5823 17.359 51.5823C10.1993 51.5823 4.37512 45.7526 4.37512 38.5875ZM35.0001 56.0897C30.8078 56.0897 26.8517 54.0454 24.4159 50.622C22.8453 48.4115 22.0151 45.8106 22.0151 43.0948C22.0151 40.1975 24.359 36.0007 28.7865 30.964C30.3386 29.2195 31.8392 27.7036 32.9111 26.659H37.087C38.5854 28.117 39.9712 29.5629 41.2093 30.9597C45.6423 35.9898 47.984 40.1854 47.984 43.0948C47.984 45.8095 47.1528 48.4115 45.5821 50.622C43.1475 54.0454 39.1925 56.0897 35.0001 56.0897ZM52.6401 51.5823C51.0618 51.5823 49.5393 51.2968 48.0945 50.7532C49.454 48.4334 50.1726 45.8139 50.1726 43.0959C50.1726 39.7425 47.8856 35.3959 43.4187 30.1864C45.65 27.1282 48.4379 24.2003 50.5489 22.1451H54.7325C58.2521 25.5609 65.6251 33.3429 65.6251 38.5886C65.6251 45.7537 59.7998 51.5823 52.6401 51.5823Z" fill="white"/>
<path d="M42.8811 37.0575C42.1559 36.0819 41.2438 35.2419 40.1544 34.5506C39.4019 34.0891 38.6056 33.7336 37.7941 33.4952C37.2297 33.3256 36.6402 33.2086 36.0528 33.1495C35.7083 33.1102 35.3561 33.0938 34.9995 33.0938C34.9098 33.0938 34.8059 33.0937 34.7731 33.0992C34.4942 33.1047 34.2088 33.1222 34.0053 33.1506C33.8128 33.1627 33.6291 33.1867 33.4606 33.2152C32.5648 33.3519 31.6909 33.6188 30.8684 34.0038C27.4177 35.6017 25.1875 39.0963 25.1875 42.9069C25.1875 44.1964 25.4402 45.463 25.9433 46.677C26.2966 47.5192 26.7417 48.2772 27.2547 48.9127C29.1228 51.3309 31.9458 52.7178 34.9995 52.7178C38.283 52.7178 41.3334 51.0881 43.1578 48.3603C43.6445 47.6352 44.0295 46.8531 44.303 46.035C44.642 45.0123 44.8127 43.9613 44.8127 42.9069C44.8127 42.3753 44.7711 41.8525 44.6902 41.3581C44.4419 39.8083 43.8173 38.3219 42.8822 37.0586L42.8811 37.0575ZM42.227 45.3438C42.017 45.9727 41.7184 46.5775 41.34 47.1419C39.9214 49.2627 37.5502 50.5303 34.9984 50.5303C32.6272 50.5303 30.4353 49.453 28.9708 47.5575C28.5738 47.0642 28.2325 46.4823 27.9602 45.8337C27.5708 44.892 27.3728 43.9066 27.3728 42.9058C27.3728 39.9439 29.1053 37.2292 31.7905 35.9856C32.4281 35.687 33.0997 35.4814 33.803 35.3742C33.9145 35.3556 34.025 35.3403 34.2098 35.3272C34.4089 35.302 34.6167 35.29 34.8781 35.2823H34.9973C35.2708 35.2812 35.5409 35.2933 35.8188 35.325C36.2792 35.3709 36.7309 35.4606 37.1673 35.5919C37.8006 35.7778 38.4208 36.0556 38.9939 36.4067C39.8306 36.9372 40.5667 37.6142 41.1213 38.3623C41.8475 39.3423 42.3331 40.4973 42.5278 41.7081C42.5902 42.0898 42.6219 42.4934 42.6219 42.9069C42.6219 43.7272 42.4873 44.5486 42.2248 45.3448L42.227 45.3438Z" fill="white"/>
<path d="M35.533 46.9934C35.4594 46.9929 35.3867 46.9773 35.3193 46.9475C35.252 46.9176 35.1914 46.8742 35.1415 46.8199L32.1556 43.5905C32.0559 43.4893 32 43.3526 32 43.2102C32 43.0678 32.0559 42.9311 32.1556 42.8299C32.2527 42.7386 32.381 42.6885 32.5139 42.6898H33.9936C34.2429 42.6853 34.4859 42.6104 34.6948 42.4735C34.9037 42.3366 35.07 42.1433 35.1747 41.9158H33.0447C32.9133 41.901 32.7919 41.8381 32.7038 41.739C32.6156 41.6399 32.5669 41.5116 32.5669 41.3787C32.5669 41.2457 32.6156 41.1174 32.7038 41.0183C32.7919 40.9192 32.9133 40.8563 33.0447 40.8415H35.2078C35.1022 40.6152 34.9355 40.4233 34.7267 40.2877C34.5178 40.152 34.2753 40.078 34.0268 40.0742H32.5471C32.4157 40.0595 32.2943 39.9965 32.2061 39.8975C32.118 39.7984 32.0692 39.6701 32.0692 39.5371C32.0692 39.4042 32.118 39.2759 32.2061 39.1768C32.2943 39.0777 32.4157 39.0147 32.5471 39H37.1918C37.3232 39.0147 37.4446 39.0777 37.5327 39.1768C37.6209 39.2759 37.6696 39.4042 37.6696 39.5371C37.6696 39.6701 37.6209 39.7984 37.5327 39.8975C37.4446 39.9965 37.3232 40.0595 37.1918 40.0742H36.0041C36.158 40.308 36.2682 40.568 36.3292 40.8415H37.2051C37.3365 40.8563 37.4578 40.9192 37.546 41.0183C37.6342 41.1174 37.6829 41.2457 37.6829 41.3787C37.6829 41.5116 37.6342 41.6399 37.546 41.739C37.4578 41.8381 37.3365 41.901 37.2051 41.9158H36.3358C36.2146 42.4405 35.9205 42.9087 35.5014 43.2442C35.0822 43.5797 34.5625 43.7629 34.0268 43.764H33.7746L35.9576 46.126C36.0569 46.226 36.1126 46.3616 36.1126 46.5029C36.1126 46.6443 36.0569 46.7799 35.9576 46.8799C35.8986 46.9275 35.8303 46.9621 35.7572 46.9817C35.6841 47.0012 35.6077 47.0052 35.533 46.9934Z" fill="white"/>
</svg>
