<svg width="70" height="70" viewBox="0 0 70 70" fill="none" xmlns="http://www.w3.org/2000/svg">
<path d="M58.0357 19.5507L47.7504 29.8361C47.4305 30.156 47.4305 30.6755 47.7504 30.9968C47.9104 31.1568 48.1209 31.2375 48.3301 31.2375C48.5393 31.2375 48.7498 31.1568 48.9098 30.9968L59.1951 20.7115C59.515 20.3916 59.515 19.872 59.1951 19.5507C58.8752 19.2308 58.3557 19.2308 58.0357 19.5507ZM48.2494 22.1484C47.8543 21.4634 47.749 20.665 47.9541 19.9007C48.1592 19.1365 48.6486 18.498 49.3336 18.1029C50.0186 17.7078 50.817 17.6025 51.5812 17.8076C53.159 18.23 54.0982 19.857 53.6758 21.4347C53.4707 22.199 52.9813 22.8375 52.2963 23.2326C51.8396 23.4964 51.3338 23.6304 50.8211 23.6304C50.5641 23.6304 50.3043 23.5962 50.05 23.5279C49.283 23.3228 48.6445 22.8334 48.2494 22.1484ZM49.6699 21.3281C49.8463 21.633 50.1307 21.8517 50.4725 21.9433C50.8129 22.0349 51.1697 21.9884 51.4746 21.8121C51.7795 21.6357 51.9982 21.3513 52.0898 21.0095C52.2785 20.3054 51.8588 19.5794 51.1561 19.3921C51.0426 19.3621 50.9277 19.347 50.8143 19.347C50.2305 19.347 49.6959 19.7367 49.5387 20.3259C49.4457 20.6664 49.4936 21.0218 49.6699 21.3281ZM58.6975 28.3992C59.0926 29.0841 59.1978 29.8826 58.9928 30.6468C58.7877 31.4111 58.2982 32.0496 57.6133 32.4447C57.1566 32.7085 56.6508 32.8425 56.1367 32.8425C55.8797 32.8425 55.6199 32.8083 55.3656 32.74C53.7879 32.3175 52.8486 30.6906 53.2711 29.1128C53.6936 27.5351 55.3219 26.5958 56.8982 27.0183C57.6639 27.2234 58.3023 27.7142 58.6975 28.3992ZM57.277 29.2195C57.1006 28.9146 56.8162 28.6959 56.4744 28.6042C56.3609 28.5742 56.2461 28.5591 56.1326 28.5591C55.5488 28.5591 55.0143 28.9488 54.857 29.538C54.6684 30.2421 55.0881 30.9681 55.7908 31.1554C56.1326 31.247 56.4881 31.1992 56.793 31.0228C57.0979 30.8464 57.3166 30.5621 57.4082 30.2203C57.4998 29.8812 57.4533 29.5244 57.277 29.2195ZM63.1053 43.9947C61.5084 48.9658 58.4363 53.2451 54.2213 56.3691C49.9201 59.556 44.8096 61.2404 39.442 61.2404C35.175 61.2404 30.9887 60.1439 27.2918 58.0699C25.2561 60.0304 22.493 61.2404 19.451 61.2404H13.3615C7.12441 61.2404 2.05078 56.1667 2.05078 49.9296C2.05078 47.3443 2.68105 45.2894 4.09473 43.2701L8.41367 37.0986C7.46621 36.5121 6.8332 35.4634 6.8332 34.2699C6.8332 32.848 7.73008 31.6326 8.98652 31.1582L6.43672 25.7988C6.1127 25.1179 6.11953 24.3714 6.45723 23.6974C6.79355 23.0234 7.38691 22.5681 8.1252 22.4191C8.35215 22.3726 8.57773 22.3494 8.79512 22.3494C9.88613 22.3494 10.891 22.9441 11.4174 23.9025C11.6553 24.3359 12.1078 24.6039 12.6014 24.6039C13.0949 24.6039 13.5475 24.3345 13.7854 23.9025C14.3104 22.9441 15.3152 22.3494 16.4076 22.3494C17.165 22.3494 17.8801 22.6365 18.4229 23.1314C22.9605 15.9509 30.9039 11.5376 39.4434 11.5376C39.8959 11.5376 40.2637 11.9054 40.2637 12.358V35.6781L62.5816 42.9652C63.0082 43.1046 63.2434 43.5654 63.1053 43.9947ZM7.91738 25.0933L10.701 30.9435H22.1088L24.8924 25.0933C24.999 24.8691 24.9977 24.6517 24.8869 24.4302C24.7762 24.2074 24.6039 24.0761 24.3605 24.0255C24.2402 24.0009 24.1254 23.9886 24.0174 23.9886C23.5252 23.9886 23.0713 24.258 22.8334 24.69C22.3084 25.6484 21.3035 26.2431 20.2111 26.2431C19.1188 26.2431 18.1152 25.6484 17.5889 24.69C17.351 24.2566 16.8984 23.9886 16.4049 23.9886C15.9113 23.9886 15.4588 24.258 15.2209 24.69C14.6959 25.6484 13.691 26.2431 12.5986 26.2431C11.5063 26.2431 10.5027 25.6484 9.97637 24.69C9.73848 24.2566 9.28457 23.9886 8.79238 23.9886C8.68437 23.9886 8.56953 24.0009 8.44922 24.0255C8.20586 24.0748 8.03359 24.2074 7.92285 24.4289C7.81348 24.6517 7.81074 24.8691 7.91738 25.0933ZM8.47383 34.2699C8.47383 35.1996 9.22988 35.9556 10.1596 35.9556H22.6529C23.5826 35.9556 24.3387 35.1996 24.3387 34.2699C24.3387 33.3402 23.5826 32.5841 22.6529 32.5841H10.1596C9.22988 32.5841 8.47383 33.3402 8.47383 34.2699ZM29.1197 49.9296C29.1197 47.671 28.5975 45.9607 27.3725 44.2107L22.7418 37.5935C22.7117 37.5949 22.6816 37.5962 22.6516 37.5962H10.1596C10.1295 37.5962 10.0994 37.5949 10.0693 37.5935L5.43867 44.2107C4.21367 45.9607 3.69141 47.671 3.69141 49.9296C3.69141 55.2617 8.02949 59.5998 13.3615 59.5998H19.4496C24.7816 59.5998 29.1197 55.2617 29.1197 49.9296ZM61.2801 44.2654L39.1863 37.0507C38.8486 36.94 38.6203 36.6255 38.6203 36.2714V13.1919C30.7932 13.4695 23.5963 17.7064 19.5467 24.4261C19.7463 24.5396 19.9746 24.6025 20.2111 24.6025C20.7033 24.6025 21.1572 24.3332 21.3951 23.9011C21.9201 22.9427 22.925 22.348 24.0174 22.348C24.2348 22.348 24.4604 22.3712 24.6873 22.4177C25.4256 22.5681 26.0176 23.022 26.3553 23.696C26.6916 24.3701 26.6998 25.1166 26.3744 25.7974L23.8246 31.1554C25.0811 31.6312 25.9779 32.8466 25.9779 34.2671C25.9779 35.4607 25.3449 36.5093 24.3975 37.0958L28.7164 43.2673C30.1301 45.2867 30.7604 47.3416 30.7604 49.9269C30.7604 52.5164 29.884 54.9048 28.4143 56.8134C31.7871 58.6359 35.5783 59.597 39.4406 59.597C49.2939 59.5998 57.9688 53.472 61.2801 44.2654ZM67.9492 33.6109C67.9492 36.2044 67.55 38.7638 66.7611 41.2166C66.6941 41.4244 66.5478 41.5966 66.3537 41.6964C66.2375 41.7566 66.109 41.7867 65.9805 41.7867C65.8943 41.7867 65.8082 41.773 65.7262 41.7457L42.8422 34.2726C42.5045 34.1619 42.2762 33.8474 42.2762 33.4933V9.57983C42.2762 9.12729 42.6439 8.75952 43.0965 8.75952C47.2924 8.75952 51.4418 9.82593 55.0963 11.8453C61.0162 15.1156 65.3994 20.7265 67.1234 27.2412C67.6717 29.3111 67.9492 31.4548 67.9492 33.6109ZM66.3086 33.6109C66.3086 31.5957 66.0488 29.5941 65.5375 27.6595C63.9283 21.5769 59.8336 16.3351 54.3033 13.2808C51.1301 11.5281 47.5563 10.5437 43.9182 10.4152V32.9L65.4377 39.9273C66.016 37.8779 66.3086 35.7574 66.3086 33.6109Z" fill="white"/>
<path d="M17.533 51.9934C17.4594 51.9929 17.3867 51.9773 17.3193 51.9475C17.252 51.9176 17.1914 51.8742 17.1415 51.8199L14.1556 48.5905C14.0559 48.4893 14 48.3526 14 48.2102C14 48.0678 14.0559 47.9311 14.1556 47.8299C14.2527 47.7386 14.381 47.6885 14.5139 47.6898H15.9936C16.2429 47.6853 16.4859 47.6104 16.6948 47.4735C16.9037 47.3366 17.07 47.1433 17.1747 46.9158H15.0447C14.9133 46.901 14.7919 46.8381 14.7038 46.739C14.6156 46.6399 14.5669 46.5116 14.5669 46.3787C14.5669 46.2457 14.6156 46.1174 14.7038 46.0183C14.7919 45.9192 14.9133 45.8563 15.0447 45.8415H17.2078C17.1022 45.6152 16.9355 45.4233 16.7267 45.2877C16.5178 45.152 16.2753 45.078 16.0268 45.0742H14.5471C14.4157 45.0595 14.2943 44.9965 14.2061 44.8975C14.118 44.7984 14.0692 44.6701 14.0692 44.5371C14.0692 44.4042 14.118 44.2759 14.2061 44.1768C14.2943 44.0777 14.4157 44.0147 14.5471 44H19.1918C19.3232 44.0147 19.4446 44.0777 19.5327 44.1768C19.6209 44.2759 19.6696 44.4042 19.6696 44.5371C19.6696 44.6701 19.6209 44.7984 19.5327 44.8975C19.4446 44.9965 19.3232 45.0595 19.1918 45.0742H18.0041C18.158 45.308 18.2682 45.568 18.3292 45.8415H19.2051C19.3365 45.8563 19.4578 45.9192 19.546 46.0183C19.6342 46.1174 19.6829 46.2457 19.6829 46.3787C19.6829 46.5116 19.6342 46.6399 19.546 46.739C19.4578 46.8381 19.3365 46.901 19.2051 46.9158H18.3358C18.2146 47.4405 17.9205 47.9087 17.5014 48.2442C17.0822 48.5797 16.5625 48.7629 16.0268 48.764H15.7746L17.9576 51.126C18.0569 51.226 18.1126 51.3616 18.1126 51.5029C18.1126 51.6443 18.0569 51.7799 17.9576 51.8799C17.8986 51.9275 17.8303 51.9621 17.7572 51.9817C17.6841 52.0012 17.6077 52.0052 17.533 51.9934Z" fill="white"/>
</svg>
