<svg width="70" height="70" viewBox="0 0 70 70" fill="none" xmlns="http://www.w3.org/2000/svg">
<g clip-path="url(#clip0_1243_54)">
<path d="M4.92188 46.4844C5.52594 46.4844 6.01562 45.9947 6.01562 45.3906C6.01562 44.7866 5.52594 44.2969 4.92188 44.2969C4.31781 44.2969 3.82812 44.7866 3.82812 45.3906C3.82812 45.9947 4.31781 46.4844 4.92188 46.4844Z" fill="white"/>
<path d="M65.0781 46.4844C65.6822 46.4844 66.1719 45.9947 66.1719 45.3906C66.1719 44.7866 65.6822 44.2969 65.0781 44.2969C64.4741 44.2969 63.9844 44.7866 63.9844 45.3906C63.9844 45.9947 64.4741 46.4844 65.0781 46.4844Z" fill="white"/>
<path d="M39.375 22.4219C39.6651 22.4219 39.9433 22.3066 40.1484 22.1015C40.3535 21.8964 40.4688 21.6182 40.4688 21.3281V16.9531C40.4688 16.663 40.3535 16.3848 40.1484 16.1797C39.9433 15.9746 39.6651 15.8594 39.375 15.8594C39.0849 15.8594 38.8067 15.9746 38.6016 16.1797C38.3965 16.3848 38.2812 16.663 38.2812 16.9531V21.3281C38.2812 21.6182 38.3965 21.8964 38.6016 22.1015C38.8067 22.3066 39.0849 22.4219 39.375 22.4219Z" fill="white"/>
<path d="M30.625 22.4219C30.9151 22.4219 31.1933 22.3066 31.3984 22.1015C31.6035 21.8964 31.7188 21.6182 31.7188 21.3281V16.9531C31.7188 16.663 31.6035 16.3848 31.3984 16.1797C31.1933 15.9746 30.9151 15.8594 30.625 15.8594C30.3349 15.8594 30.0567 15.9746 29.8516 16.1797C29.6465 16.3848 29.5312 16.663 29.5312 16.9531V21.3281C29.5312 21.6182 29.6465 21.8964 29.8516 22.1015C30.0567 22.3066 30.3349 22.4219 30.625 22.4219Z" fill="white"/>
<path d="M35 22.4219C35.2901 22.4219 35.5683 22.3066 35.7734 22.1015C35.9785 21.8964 36.0938 21.6182 36.0938 21.3281V12.5781C36.0938 12.288 35.9785 12.0098 35.7734 11.8047C35.5683 11.5996 35.2901 11.4844 35 11.4844C34.7099 11.4844 34.4317 11.5996 34.2266 11.8047C34.0215 12.0098 33.9062 12.288 33.9062 12.5781V21.3281C33.9062 21.6182 34.0215 21.8964 34.2266 22.1015C34.4317 22.3066 34.7099 22.4219 35 22.4219Z" fill="white"/>
<path d="M35 45.3906C37.0551 45.3906 39.064 44.7812 40.7727 43.6395C42.4814 42.4978 43.8132 40.875 44.5997 38.9763C45.3861 37.0777 45.5919 34.9885 45.191 32.9729C44.79 30.9573 43.8004 29.1059 42.3473 27.6527C40.8941 26.1996 39.0427 25.21 37.0271 24.809C35.0115 24.4081 32.9223 24.6139 31.0237 25.4003C29.125 26.1868 27.5022 27.5186 26.3605 29.2273C25.2188 30.936 24.6094 32.9449 24.6094 35C24.6094 37.7558 25.7041 40.3987 27.6527 42.3473C29.6013 44.2959 32.2442 45.3906 35 45.3906ZM35 26.7969C36.6224 26.7969 38.2084 27.278 39.5574 28.1794C40.9064 29.0807 41.9578 30.3619 42.5787 31.8608C43.1996 33.3597 43.362 35.0091 43.0455 36.6004C42.729 38.1916 41.9477 39.6533 40.8005 40.8005C39.6533 41.9477 38.1916 42.729 36.6003 43.0455C35.0091 43.362 33.3597 43.1996 31.8608 42.5787C30.3619 41.9578 29.0807 40.9064 28.1793 39.5574C27.278 38.2084 26.7969 36.6224 26.7969 35C26.7969 32.8244 27.6611 30.7379 29.1995 29.1995C30.7379 27.6611 32.8244 26.7969 35 26.7969Z" fill="white"/>
<path d="M14.7656 10.9375C15.0557 10.9375 15.3339 10.8223 15.539 10.6171C15.7441 10.412 15.8594 10.1338 15.8594 9.84375V5.46875C15.8594 5.17867 15.7441 4.90047 15.539 4.69535C15.3339 4.49023 15.0557 4.375 14.7656 4.375C14.4755 4.375 14.1973 4.49023 13.9922 4.69535C13.7871 4.90047 13.6719 5.17867 13.6719 5.46875V9.84375C13.6719 10.1338 13.7871 10.412 13.9922 10.6171C14.1973 10.8223 14.4755 10.9375 14.7656 10.9375Z" fill="white"/>
<path d="M6.01562 10.9375C6.30571 10.9375 6.5839 10.8223 6.78902 10.6171C6.99414 10.412 7.10938 10.1338 7.10938 9.84375V5.46875C7.10938 5.17867 6.99414 4.90047 6.78902 4.69535C6.5839 4.49023 6.30571 4.375 6.01562 4.375C5.72554 4.375 5.44735 4.49023 5.24223 4.69535C5.03711 4.90047 4.92188 5.17867 4.92188 5.46875V9.84375C4.92188 10.1338 5.03711 10.412 5.24223 10.6171C5.44735 10.8223 5.72554 10.9375 6.01562 10.9375Z" fill="white"/>
<path d="M10.3906 10.9375C10.6807 10.9375 10.9589 10.8223 11.164 10.6171C11.3691 10.412 11.4844 10.1338 11.4844 9.84375V1.09375C11.4844 0.803669 11.3691 0.52547 11.164 0.320352C10.9589 0.115234 10.6807 0 10.3906 0C10.1005 0 9.82235 0.115234 9.61723 0.320352C9.41211 0.52547 9.29688 0.803669 9.29688 1.09375V9.84375C9.29688 10.1338 9.41211 10.412 9.61723 10.6171C9.82235 10.8223 10.1005 10.9375 10.3906 10.9375Z" fill="white"/>
<path d="M20.7813 23.5156C20.7813 21.4606 20.1719 19.4516 19.0301 17.7429C17.8884 16.0342 16.2656 14.7024 14.3669 13.9159C12.4683 13.1295 10.3791 12.9237 8.36352 13.3247C6.34794 13.7256 4.4965 14.7152 3.04335 16.1683C1.59019 17.6215 0.600582 19.4729 0.199658 21.4885C-0.201267 23.5041 0.00450207 25.5933 0.790944 27.4919C1.57739 29.3906 2.90918 31.0134 4.61791 32.1551C6.32664 33.2969 8.33556 33.9063 10.3906 33.9063C13.1464 33.9063 15.7893 32.8115 17.7379 30.8629C19.6865 28.9143 20.7813 26.2714 20.7813 23.5156ZM2.1875 23.5156C2.1875 21.8932 2.66861 20.3072 3.56998 18.9582C4.47135 17.6092 5.7525 16.5578 7.25143 15.9369C8.75035 15.3161 10.3997 15.1536 11.991 15.4701C13.5822 15.7866 15.0439 16.5679 16.1911 17.7151C17.3383 18.8624 18.1196 20.324 18.4361 21.9153C18.7527 23.5065 18.5902 25.1559 17.9693 26.6548C17.3485 28.1538 16.297 29.4349 14.948 30.3363C13.599 31.2376 12.0131 31.7188 10.3906 31.7188C8.21502 31.7188 6.12853 30.8545 4.59014 29.3161C3.05176 27.7777 2.1875 25.6912 2.1875 23.5156Z" fill="white"/>
<path d="M63.9844 10.9375C64.2745 10.9375 64.5527 10.8223 64.7578 10.6171C64.9629 10.412 65.0781 10.1338 65.0781 9.84375V5.46875C65.0781 5.17867 64.9629 4.90047 64.7578 4.69535C64.5527 4.49023 64.2745 4.375 63.9844 4.375C63.6943 4.375 63.4161 4.49023 63.211 4.69535C63.0059 4.90047 62.8906 5.17867 62.8906 5.46875V9.84375C62.8906 10.1338 63.0059 10.412 63.211 10.6171C63.4161 10.8223 63.6943 10.9375 63.9844 10.9375Z" fill="white"/>
<path d="M55.2344 10.9375C55.5245 10.9375 55.8027 10.8223 56.0078 10.6171C56.2129 10.412 56.3281 10.1338 56.3281 9.84375V5.46875C56.3281 5.17867 56.2129 4.90047 56.0078 4.69535C55.8027 4.49023 55.5245 4.375 55.2344 4.375C54.9443 4.375 54.6661 4.49023 54.461 4.69535C54.2559 4.90047 54.1406 5.17867 54.1406 5.46875V9.84375C54.1406 10.1338 54.2559 10.412 54.461 10.6171C54.6661 10.8223 54.9443 10.9375 55.2344 10.9375Z" fill="white"/>
<path d="M59.6094 10.9375C59.8995 10.9375 60.1777 10.8223 60.3828 10.6171C60.5879 10.412 60.7031 10.1338 60.7031 9.84375V1.09375C60.7031 0.803669 60.5879 0.52547 60.3828 0.320352C60.1777 0.115234 59.8995 0 59.6094 0C59.3193 0 59.0411 0.115234 58.836 0.320352C58.6309 0.52547 58.5156 0.803669 58.5156 1.09375V9.84375C58.5156 10.1338 58.6309 10.412 58.836 10.6171C59.0411 10.8223 59.3193 10.9375 59.6094 10.9375Z" fill="white"/>
<path d="M59.6094 13.125C57.5543 13.125 55.5454 13.7344 53.8367 14.8761C52.1279 16.0179 50.7961 17.6407 50.0097 19.5393C49.2233 21.4379 49.0175 23.5272 49.4184 25.5427C49.8193 27.5583 50.8089 29.4098 52.2621 30.8629C53.7153 32.3161 55.5667 33.3057 57.5823 33.7066C59.5979 34.1075 61.6871 33.9018 63.5857 33.1153C65.4843 32.3289 67.1071 30.9971 68.2489 29.2883C69.3906 27.5796 70 25.5707 70 23.5156C70 20.7599 68.9053 18.117 66.9567 16.1683C65.008 14.2197 62.3651 13.125 59.6094 13.125ZM59.6094 31.7188C57.987 31.7188 56.401 31.2376 55.052 30.3363C53.703 29.4349 52.6516 28.1537 52.0307 26.6548C51.4098 25.1559 51.2474 23.5065 51.5639 21.9153C51.8804 20.324 52.6617 18.8624 53.8089 17.7151C54.9561 16.5679 56.4178 15.7866 58.009 15.4701C59.6003 15.1536 61.2497 15.3161 62.7486 15.9369C64.2475 16.5578 65.5287 17.6092 66.43 18.9582C67.3314 20.3072 67.8125 21.8932 67.8125 23.5156C67.8125 25.6912 66.9483 27.7777 65.4099 29.3161C63.8715 30.8545 61.785 31.7188 59.6094 31.7188Z" fill="white"/>
<path d="M20.7813 58.9913C20.7799 59.1485 20.8124 59.3041 20.8766 59.4475C20.9408 59.591 21.0351 59.7189 21.1532 59.8226C21.3829 60.0377 21.6861 60.157 22.0008 60.1562H27.2125C27.5332 60.163 27.8437 60.0431 28.0766 59.8226C28.193 59.72 28.2862 59.5937 28.35 59.4523C28.4139 59.3109 28.4469 59.1575 28.4469 59.0023C28.4469 58.8471 28.4139 58.6937 28.35 58.5523C28.2862 58.4108 28.193 58.2846 28.0766 58.182C27.9627 58.0701 27.8276 57.982 27.6792 57.9228C27.5309 57.8637 27.3722 57.8346 27.2125 57.8374H23.2039V55.7812H25.993C26.3116 55.7854 26.6194 55.6658 26.8516 55.4476C26.9683 55.3466 27.0615 55.2214 27.1248 55.0806C27.188 54.9399 27.2199 54.787 27.218 54.6328C27.2185 54.4779 27.1861 54.3247 27.1229 54.1832C27.0598 54.0418 26.9673 53.9154 26.8516 53.8124C26.7381 53.7014 26.6039 53.6139 26.4566 53.5548C26.3093 53.4957 26.1517 53.4661 25.993 53.4679H23.2039V51.532H27.2125C27.5313 51.5394 27.8407 51.4238 28.0766 51.2093C28.1903 51.1053 28.2807 50.9785 28.342 50.8371C28.4032 50.6958 28.4339 50.5431 28.4321 50.389C28.4339 50.2349 28.4032 50.0822 28.342 49.9409C28.2807 49.7995 28.1903 49.6727 28.0766 49.5687C27.9638 49.4565 27.8298 49.3677 27.6824 49.3077C27.535 49.2476 27.3772 49.2173 27.218 49.2187H22.0008C21.8378 49.2143 21.6757 49.2441 21.525 49.3063C21.3743 49.3685 21.2383 49.4616 21.1258 49.5796C21.0179 49.6841 20.9319 49.809 20.8728 49.947C20.8136 50.085 20.7825 50.2334 20.7813 50.3835V58.9913Z" fill="white"/>
<path d="M34.1526 59.8229C34.3834 60.0382 34.6873 60.1579 35.003 60.1579C35.3186 60.1579 35.6225 60.0382 35.8534 59.8229C35.9641 59.7152 36.0514 59.5857 36.1097 59.4427C36.1681 59.2996 36.1962 59.1461 36.1924 58.9916V51.5323H38.1721C38.4896 51.5417 38.798 51.4258 39.0307 51.2096C39.1424 51.1047 39.2308 50.9774 39.2902 50.8361C39.3495 50.6948 39.3785 50.5425 39.3752 50.3893C39.3785 50.2361 39.3495 50.0838 39.2902 49.9425C39.2308 49.8012 39.1424 49.6739 39.0307 49.569C38.919 49.4552 38.7852 49.3655 38.6376 49.3053C38.4899 49.2451 38.3315 49.2158 38.1721 49.219H31.812C31.6555 49.216 31.5001 49.245 31.3553 49.3043C31.2105 49.3635 31.0793 49.4517 30.9698 49.5635C30.8581 49.6685 30.7697 49.7957 30.7103 49.9371C30.651 50.0784 30.622 50.2306 30.6252 50.3838C30.622 50.5371 30.651 50.6893 30.7103 50.8306C30.7697 50.9719 30.8581 51.0992 30.9698 51.2041C31.1968 51.4188 31.4996 51.5349 31.812 51.5268H33.8135V58.9916C33.8097 59.1461 33.8379 59.2996 33.8962 59.4427C33.9546 59.5857 34.0419 59.7152 34.1526 59.8229Z" fill="white"/>
<path d="M41.9182 49.5795C41.8079 49.6826 41.7195 49.807 41.6584 49.9451C41.5973 50.0833 41.5648 50.2323 41.5628 50.3834V58.9912C41.5593 59.1471 41.5893 59.3019 41.6506 59.4453C41.7119 59.5886 41.8032 59.7172 41.9182 59.8224C42.1615 60.0389 42.4758 60.1584 42.8014 60.1584C43.1271 60.1584 43.4413 60.0389 43.6846 59.8224C43.7997 59.7172 43.891 59.5886 43.9523 59.4453C44.0136 59.3019 44.0435 59.1471 44.0401 58.9912V56.3881H46.7745C46.9352 56.3938 47.0955 56.3672 47.2458 56.3099C47.3961 56.2526 47.5333 56.1657 47.6495 56.0545C47.7605 55.9501 47.8485 55.8238 47.9078 55.6834C47.9671 55.5431 47.9965 55.392 47.994 55.2396C47.9973 55.0864 47.9683 54.9342 47.9089 54.7929C47.8496 54.6515 47.7612 54.5243 47.6495 54.4193C47.5348 54.3053 47.398 54.2159 47.2476 54.1567C47.0971 54.0974 46.9361 54.0696 46.7745 54.0748H44.0401V51.5318H48.005C48.3239 51.5404 48.6337 51.4247 48.869 51.2092C48.9827 51.1052 49.0731 50.9783 49.1344 50.837C49.1956 50.6956 49.2264 50.5429 49.2245 50.3888C49.2264 50.2348 49.1956 50.0821 49.1344 49.9407C49.0731 49.7994 48.9827 49.6725 48.869 49.5685C48.7551 49.4547 48.6193 49.3651 48.4699 49.3049C48.3205 49.2448 48.1605 49.2154 47.9995 49.2185H42.7987C42.635 49.215 42.4724 49.2453 42.3209 49.3074C42.1694 49.3695 42.0323 49.4621 41.9182 49.5795Z" fill="white"/>
<path d="M65.0781 48.8195C64.788 48.8195 64.5098 48.9348 64.3047 49.1399C64.0996 49.345 63.9844 49.6232 63.9844 49.9133V62.3438C63.9844 62.6338 63.8691 62.912 63.664 63.1171C63.4589 63.3223 63.1807 63.4375 62.8906 63.4375H7.10938C6.81929 63.4375 6.5411 63.3223 6.33598 63.1171C6.13086 62.912 6.01562 62.6338 6.01562 62.3438V49.7656C6.01562 49.4755 5.90039 49.1973 5.69527 48.9922C5.49015 48.7871 5.21196 48.6719 4.92188 48.6719C4.63179 48.6719 4.35359 48.7871 4.14848 48.9922C3.94336 49.1973 3.82813 49.4755 3.82812 49.7656V62.3438C3.82813 63.214 4.17383 64.0486 4.78918 64.6639C5.40453 65.2793 6.23913 65.625 7.10938 65.625H30.0781V67.8125H25.7031C25.413 67.8125 25.1348 67.9277 24.9297 68.1329C24.7246 68.338 24.6094 68.6162 24.6094 68.9062C24.6094 69.1963 24.7246 69.4745 24.9297 69.6796C25.1348 69.8848 25.413 70 25.7031 70H44.2969C44.587 70 44.8652 69.8848 45.0703 69.6796C45.2754 69.4745 45.3906 69.1963 45.3906 68.9062C45.3906 68.6162 45.2754 68.338 45.0703 68.1329C44.8652 67.9277 44.587 67.8125 44.2969 67.8125H39.9219V65.625H62.8906C63.7609 65.625 64.5955 65.2793 65.2108 64.6639C65.8262 64.0486 66.1719 63.214 66.1719 62.3438V49.9133C66.1719 49.6232 66.0566 49.345 65.8515 49.1399C65.6464 48.9348 65.3682 48.8195 65.0781 48.8195ZM37.7344 67.8125H32.2656V65.625H37.7344V67.8125Z" fill="white"/>
<path d="M11.533 27.9934C11.4594 27.9929 11.3867 27.9773 11.3193 27.9475C11.252 27.9176 11.1914 27.8742 11.1415 27.8199L8.1556 24.5905C8.05592 24.4893 8 24.3526 8 24.2102C8 24.0678 8.05592 23.9311 8.1556 23.8299C8.25271 23.7386 8.38101 23.6885 8.5139 23.6898H9.99358C10.2429 23.6853 10.4859 23.6104 10.6948 23.4735C10.9037 23.3366 11.07 23.1433 11.1747 22.9158H9.04473C8.91333 22.901 8.79194 22.8381 8.70379 22.739C8.61563 22.6399 8.56689 22.5116 8.56689 22.3787C8.56689 22.2457 8.61563 22.1174 8.70379 22.0183C8.79194 21.9192 8.91333 21.8563 9.04473 21.8415H11.2078C11.1022 21.6152 10.9355 21.4233 10.7267 21.2877C10.5178 21.152 10.2753 21.078 10.0268 21.0742H8.54708C8.41568 21.0595 8.29429 20.9965 8.20614 20.8975C8.11798 20.7984 8.06925 20.6701 8.06925 20.5371C8.06925 20.4042 8.11798 20.2759 8.20614 20.1768C8.29429 20.0777 8.41568 20.0147 8.54708 20H13.1918C13.3232 20.0147 13.4446 20.0777 13.5327 20.1768C13.6209 20.2759 13.6696 20.4042 13.6696 20.5371C13.6696 20.6701 13.6209 20.7984 13.5327 20.8975C13.4446 20.9965 13.3232 21.0595 13.1918 21.0742H12.0041C12.158 21.308 12.2682 21.568 12.3292 21.8415H13.2051C13.3365 21.8563 13.4578 21.9192 13.546 22.0183C13.6342 22.1174 13.6829 22.2457 13.6829 22.3787C13.6829 22.5116 13.6342 22.6399 13.546 22.739C13.4578 22.8381 13.3365 22.901 13.2051 22.9158H12.3358C12.2146 23.4405 11.9205 23.9087 11.5014 24.2442C11.0822 24.5797 10.5625 24.7629 10.0268 24.764H9.77461L11.9576 27.126C12.0569 27.226 12.1126 27.3616 12.1126 27.5029C12.1126 27.6443 12.0569 27.7799 11.9576 27.8799C11.8986 27.9275 11.8303 27.9621 11.7572 27.9817C11.6841 28.0012 11.6077 28.0052 11.533 27.9934Z" fill="white"/>
<path d="M35.533 39.9934C35.4594 39.9929 35.3867 39.9773 35.3193 39.9475C35.252 39.9176 35.1914 39.8742 35.1415 39.8199L32.1556 36.5905C32.0559 36.4893 32 36.3526 32 36.2102C32 36.0678 32.0559 35.9311 32.1556 35.8299C32.2527 35.7386 32.381 35.6885 32.5139 35.6898H33.9936C34.2429 35.6853 34.4859 35.6104 34.6948 35.4735C34.9037 35.3366 35.07 35.1433 35.1747 34.9158H33.0447C32.9133 34.901 32.7919 34.8381 32.7038 34.739C32.6156 34.6399 32.5669 34.5116 32.5669 34.3787C32.5669 34.2457 32.6156 34.1174 32.7038 34.0183C32.7919 33.9192 32.9133 33.8563 33.0447 33.8415H35.2078C35.1022 33.6152 34.9355 33.4233 34.7267 33.2877C34.5178 33.152 34.2753 33.078 34.0268 33.0742H32.5471C32.4157 33.0595 32.2943 32.9965 32.2061 32.8975C32.118 32.7984 32.0692 32.6701 32.0692 32.5371C32.0692 32.4042 32.118 32.2759 32.2061 32.1768C32.2943 32.0777 32.4157 32.0147 32.5471 32H37.1918C37.3232 32.0147 37.4446 32.0777 37.5327 32.1768C37.6209 32.2759 37.6696 32.4042 37.6696 32.5371C37.6696 32.6701 37.6209 32.7984 37.5327 32.8975C37.4446 32.9965 37.3232 33.0595 37.1918 33.0742H36.0041C36.158 33.308 36.2682 33.568 36.3292 33.8415H37.2051C37.3365 33.8563 37.4578 33.9192 37.546 34.0183C37.6342 34.1174 37.6829 34.2457 37.6829 34.3787C37.6829 34.5116 37.6342 34.6399 37.546 34.739C37.4578 34.8381 37.3365 34.901 37.2051 34.9158H36.3358C36.2146 35.4405 35.9205 35.9087 35.5014 36.2442C35.0822 36.5797 34.5625 36.7629 34.0268 36.764H33.7746L35.9576 39.126C36.0569 39.226 36.1126 39.3616 36.1126 39.5029C36.1126 39.6443 36.0569 39.7799 35.9576 39.8799C35.8986 39.9275 35.8303 39.9621 35.7572 39.9817C35.6841 40.0012 35.6077 40.0052 35.533 39.9934Z" fill="white"/>
<path d="M60.533 27.9934C60.4594 27.9929 60.3867 27.9773 60.3193 27.9475C60.252 27.9176 60.1914 27.8742 60.1415 27.8199L57.1556 24.5905C57.0559 24.4893 57 24.3526 57 24.2102C57 24.0678 57.0559 23.9311 57.1556 23.8299C57.2527 23.7386 57.381 23.6885 57.5139 23.6898H58.9936C59.2429 23.6853 59.4859 23.6104 59.6948 23.4735C59.9037 23.3366 60.07 23.1433 60.1747 22.9158H58.0447C57.9133 22.901 57.7919 22.8381 57.7038 22.739C57.6156 22.6399 57.5669 22.5116 57.5669 22.3787C57.5669 22.2457 57.6156 22.1174 57.7038 22.0183C57.7919 21.9192 57.9133 21.8563 58.0447 21.8415H60.2078C60.1022 21.6152 59.9355 21.4233 59.7267 21.2877C59.5178 21.152 59.2753 21.078 59.0268 21.0742H57.5471C57.4157 21.0595 57.2943 20.9965 57.2061 20.8975C57.118 20.7984 57.0692 20.6701 57.0692 20.5371C57.0692 20.4042 57.118 20.2759 57.2061 20.1768C57.2943 20.0777 57.4157 20.0147 57.5471 20H62.1918C62.3232 20.0147 62.4446 20.0777 62.5327 20.1768C62.6209 20.2759 62.6696 20.4042 62.6696 20.5371C62.6696 20.6701 62.6209 20.7984 62.5327 20.8975C62.4446 20.9965 62.3232 21.0595 62.1918 21.0742H61.0041C61.158 21.308 61.2682 21.568 61.3292 21.8415H62.2051C62.3365 21.8563 62.4578 21.9192 62.546 22.0183C62.6342 22.1174 62.6829 22.2457 62.6829 22.3787C62.6829 22.5116 62.6342 22.6399 62.546 22.739C62.4578 22.8381 62.3365 22.901 62.2051 22.9158H61.3358C61.2146 23.4405 60.9205 23.9087 60.5014 24.2442C60.0822 24.5797 59.5625 24.7629 59.0268 24.764H58.7746L60.9576 27.126C61.0569 27.226 61.1126 27.3616 61.1126 27.5029C61.1126 27.6443 61.0569 27.7799 60.9576 27.8799C60.8986 27.9275 60.8303 27.9621 60.7572 27.9817C60.6841 28.0012 60.6077 28.0052 60.533 27.9934Z" fill="white"/>
</g>
<defs>
<clipPath id="clip0_1243_54">
<rect width="70" height="70" fill="white"/>
</clipPath>
</defs>
</svg>
