<svg width="70" height="70" viewBox="0 0 70 70" fill="none" xmlns="http://www.w3.org/2000/svg">
<path d="M56.0934 57.1879H64.531C64.8173 57.1822 65.0899 57.0644 65.2904 56.8599C65.4908 56.6554 65.6031 56.3805 65.6031 56.0941C65.603 55.8078 65.4908 55.5329 65.2903 55.3284C65.0899 55.1239 64.8172 55.0061 64.5309 55.0004H56.5463L51.4177 49.8715C59.0407 41.8528 59.043 28.1469 51.4174 20.1286L56.5463 15H64.531C64.8178 14.995 65.0912 14.8776 65.2922 14.673C65.4933 14.4684 65.6059 14.1931 65.6059 13.9062C65.6059 13.6194 65.4932 13.344 65.2922 13.1394C65.0911 12.9349 64.8177 12.8175 64.5309 12.8125H56.0934C55.8034 12.8126 55.5252 12.9279 55.3201 13.133L49.8711 18.582C41.8526 10.959 28.1467 10.9567 20.1284 18.5822L14.6794 13.133C14.4743 12.9279 14.1962 12.8126 13.9061 12.8125H5.46849C5.1822 12.8182 4.90957 12.936 4.70913 13.1405C4.50869 13.345 4.39642 13.6199 4.39643 13.9063C4.39644 14.1926 4.50872 14.4676 4.70917 14.6721C4.90963 14.8765 5.18226 14.9943 5.46856 15H13.4532L18.5818 20.1286C14.8703 24.1921 12.8124 29.4966 12.8124 35.0001C12.8124 40.5035 14.8703 45.808 18.5818 49.8715L13.4532 55.0004H5.46849C5.18169 55.0054 4.90832 55.1228 4.70726 55.3274C4.5062 55.532 4.39355 55.8074 4.39355 56.0942C4.39356 56.381 4.50624 56.6564 4.70731 56.861C4.90838 57.0655 5.18176 57.183 5.46856 57.1879H13.9061C14.1961 57.1878 14.4743 57.0726 14.6794 56.8674L20.1283 51.4182C24.1917 55.1299 29.4963 57.1879 34.9997 57.1879C40.5032 57.1879 45.8077 55.1299 49.8712 51.4182L55.3201 56.8675C55.5252 57.0726 55.8034 57.1879 56.0934 57.1879ZM36.0935 15.0554C40.6303 15.2997 44.9468 17.0898 48.3249 20.1281L46.8825 21.5705C46.6839 21.777 46.5743 22.0531 46.5771 22.3395C46.5799 22.6259 46.6949 22.8998 46.8974 23.1023C47.1 23.3048 47.3739 23.4198 47.6603 23.4226C47.9467 23.4254 48.2228 23.3157 48.4292 23.1171L49.8716 21.6748C52.9099 25.0529 54.7 29.3694 54.9443 33.9062H46.4287C46.1711 31.2525 44.9995 28.7707 43.1142 26.8855C41.229 25.0002 38.7472 23.8286 36.0935 23.571V15.0554ZM20.1279 21.6748L21.5703 23.1172C21.7768 23.3158 22.0528 23.4254 22.3393 23.4226C22.6257 23.4198 22.8996 23.3048 23.1021 23.1023C23.3046 22.8997 23.4196 22.6258 23.4224 22.3394C23.4251 22.053 23.3155 21.7769 23.1169 21.5705L21.6746 20.1281C25.0527 17.0898 29.3691 15.2997 33.906 15.0554V23.571C31.2523 23.8285 28.7705 25.0002 26.8852 26.8855C25 28.7707 23.8283 31.2525 23.5708 33.9062H15.0552C15.2994 29.3694 17.0896 25.0529 20.1279 21.6748ZM33.906 54.945C29.369 54.7008 25.0524 52.9106 21.6743 49.8721L23.117 48.4294C23.3221 48.2243 23.4373 47.9461 23.4373 47.6561C23.4373 47.366 23.3221 47.0879 23.117 46.8828C22.9119 46.6777 22.6337 46.5625 22.3437 46.5625C22.0536 46.5625 21.7755 46.6777 21.5704 46.8828L20.1277 48.3254C17.0895 44.9472 15.2994 40.6306 15.0552 36.0937H23.5708C23.8282 38.7475 24.9998 41.2293 26.8851 43.1146C28.7704 44.9999 31.2522 46.1715 33.906 46.4289V54.945ZM25.7029 35C26.17 22.6833 43.8313 22.6867 44.2966 35.0001C44.2966 37.4658 43.3171 39.8305 41.5736 41.574C40.7103 42.4372 39.6854 43.122 38.5574 43.5892C37.4295 44.0564 36.2206 44.2969 34.9997 44.2969C33.7788 44.2969 32.5699 44.0564 31.4419 43.5892C30.314 43.122 29.2891 42.4372 28.4258 41.5739C26.6823 39.8303 25.7028 37.4656 25.7029 35ZM48.4292 46.8827C48.2227 46.6842 47.9467 46.5746 47.6603 46.5774C47.3739 46.5802 47.1 46.6952 46.8975 46.8977C46.695 47.1002 46.58 47.3741 46.5772 47.6605C46.5744 47.9469 46.684 48.2229 46.8826 48.4294L48.3251 49.872C44.9471 52.9105 40.6305 54.7008 36.0935 54.945V46.4289C38.7472 46.1715 41.229 44.9998 43.1143 43.1146C44.9996 41.2293 46.1712 38.7475 46.4287 36.0937H54.9443C54.7001 40.6306 52.91 44.9472 49.8718 48.3254L48.4292 46.8827Z" fill="white"/>
<path d="M6.5625 10.781H12.8126C13.3926 10.7804 13.9486 10.5498 14.3587 10.1397C14.7688 9.72956 14.9995 9.1735 15.0001 8.59352V6.5625C14.9995 5.98252 14.7688 5.42645 14.3587 5.01634C13.9486 4.60623 13.3926 4.37558 12.8126 4.375H6.5625C5.98252 4.37558 5.42645 4.60623 5.01634 5.01634C4.60623 5.42645 4.37558 5.98252 4.375 6.5625V8.59352C4.37558 9.1735 4.60623 9.72956 5.01634 10.1397C5.42645 10.5498 5.98252 10.7804 6.5625 10.781ZM6.5625 6.5625H12.8126L12.8142 8.59352H6.5625V6.5625Z" fill="white"/>
<path d="M63.4376 4.375H57.1875C56.6075 4.37558 56.0515 4.60623 55.6413 5.01634C55.2312 5.42645 55.0006 5.98252 55 6.5625V8.59352C55.0006 9.1735 55.2312 9.72956 55.6413 10.1397C56.0515 10.5498 56.6075 10.7804 57.1875 10.781H63.4376C64.0176 10.7804 64.5736 10.5498 64.9837 10.1397C65.3938 9.72956 65.6245 9.1735 65.6251 8.59352V6.5625C65.6245 5.98252 65.3938 5.42645 64.9837 5.01634C64.5736 4.60623 64.0176 4.37558 63.4376 4.375ZM57.1875 8.59352V6.5625H63.4376L63.4392 8.59352H57.1875Z" fill="white"/>
<path d="M12.8126 59.2183H6.5625C5.98254 59.2189 5.42653 59.4496 5.01644 59.8597C4.60634 60.2698 4.37566 60.8258 4.375 61.4058V63.4373C4.37566 64.0173 4.60634 64.5733 5.01644 64.9834C5.42653 65.3935 5.98254 65.6242 6.5625 65.6248H12.8126C13.3925 65.6242 13.9486 65.3935 14.3586 64.9834C14.7687 64.5733 14.9994 64.0173 15.0001 63.4373V61.4058C14.9994 60.8258 14.7687 60.2698 14.3586 59.8597C13.9486 59.4496 13.3925 59.2189 12.8126 59.2183ZM6.5625 63.4373V61.4058H12.8126L12.8142 63.4373H6.5625Z" fill="white"/>
<path d="M63.4376 59.2183H57.1875C56.6075 59.2189 56.0515 59.4496 55.6414 59.8597C55.2313 60.2698 55.0007 60.8258 55 61.4058V63.4373C55.0007 64.0173 55.2313 64.5733 55.6414 64.9834C56.0515 65.3935 56.6075 65.6242 57.1875 65.6248H63.4376C64.0175 65.6242 64.5736 65.3935 64.9836 64.9834C65.3937 64.5733 65.6244 64.0173 65.6251 63.4373V61.4058C65.6244 60.8258 65.3937 60.2698 64.9836 59.8597C64.5736 59.4496 64.0175 59.2189 63.4376 59.2183ZM57.1875 63.4373V61.4058H63.4376L63.4392 63.4373H57.1875Z" fill="white"/>
<path d="M36.4162 39.9917C36.3242 39.9912 36.2333 39.9716 36.1491 39.9343C36.065 39.897 35.9893 39.8428 35.9269 39.7748L32.1945 35.7381C32.0699 35.6116 32 35.4408 32 35.2627C32 35.0847 32.0699 34.9138 32.1945 34.7873C32.3159 34.6733 32.4763 34.6106 32.6424 34.6122H34.492C34.8036 34.6067 35.1074 34.513 35.3685 34.3419C35.6296 34.1708 35.8375 33.9292 35.9683 33.6447H33.3059C33.1417 33.6263 32.9899 33.5476 32.8797 33.4237C32.7695 33.2999 32.7086 33.1395 32.7086 32.9733C32.7086 32.8071 32.7695 32.6468 32.8797 32.5229C32.9899 32.399 33.1417 32.3204 33.3059 32.3019H36.0098C35.8778 32.019 35.6694 31.7791 35.4083 31.6096C35.1473 31.44 34.8442 31.3476 34.5334 31.3428H32.6839C32.5196 31.3244 32.3679 31.2457 32.2577 31.1218C32.1475 30.998 32.0866 30.8376 32.0866 30.6714C32.0866 30.5052 32.1475 30.3448 32.2577 30.221C32.3679 30.0971 32.5196 30.0184 32.6839 30H38.4897C38.654 30.0184 38.8057 30.0971 38.9159 30.221C39.0261 30.3448 39.087 30.5052 39.087 30.6714C39.087 30.8376 39.0261 30.998 38.9159 31.1218C38.8057 31.2457 38.654 31.3244 38.4897 31.3428H37.0051C37.1975 31.635 37.3352 31.96 37.4115 32.3019H38.5063C38.6706 32.3204 38.8223 32.399 38.9325 32.5229C39.0427 32.6468 39.1036 32.8071 39.1036 32.9733C39.1036 33.1395 39.0427 33.2999 38.9325 33.4237C38.8223 33.5476 38.6706 33.6263 38.5063 33.6447H37.4198C37.2683 34.3007 36.9007 34.8859 36.3767 35.3053C35.8527 35.7247 35.2031 35.9536 34.5334 35.955H34.2183L36.947 38.9075C37.0711 39.0325 37.1408 39.202 37.1408 39.3787C37.1408 39.5554 37.0711 39.7248 36.947 39.8499C36.8732 39.9094 36.7879 39.9527 36.6965 39.9771C36.6051 40.0015 36.5096 40.0065 36.4162 39.9917Z" fill="white"/>
</svg>
