<svg width="64" height="64" viewBox="0 0 64 64" fill="none" xmlns="http://www.w3.org/2000/svg">
<path d="M19 56H30L32 58V60L30 62H11L5 56H2V46H13L20 53V55L18 57H16L12 53" stroke="white" stroke-width="2" stroke-linejoin="round"/>
<path d="M45 56H34L32 58V60L34 62H53L59 56H62V46H51L44 53V55L46 57H48L52 53" stroke="white" stroke-width="2" stroke-linejoin="round"/>
<path d="M24 48H40V52H24V48Z" stroke="white" stroke-width="2" stroke-linejoin="round"/>
<path d="M22 44H38V48H22V44Z" stroke="white" stroke-width="2" stroke-linejoin="round"/>
<path d="M22 40H38V44H22V40Z" stroke="white" stroke-width="2" stroke-linejoin="round"/>
<path d="M24 36H40V40H24V36Z" stroke="white" stroke-width="2" stroke-linejoin="round"/>
<path d="M24 32H40V36H24V32Z" stroke="white" stroke-width="2" stroke-linejoin="round"/>
<path d="M28 52V48" stroke="white" stroke-width="2" stroke-linejoin="round"/>
<path d="M32 52V48" stroke="white" stroke-width="2" stroke-linejoin="round"/>
<path d="M36 52V48" stroke="white" stroke-width="2" stroke-linejoin="round"/>
<path d="M26 44V40" stroke="white" stroke-width="2" stroke-linejoin="round"/>
<path d="M30 44V40" stroke="white" stroke-width="2" stroke-linejoin="round"/>
<path d="M34 44V40" stroke="white" stroke-width="2" stroke-linejoin="round"/>
<path d="M28 36V32" stroke="white" stroke-width="2" stroke-linejoin="round"/>
<path d="M32 36V32" stroke="white" stroke-width="2" stroke-linejoin="round"/>
<path d="M36 36V32" stroke="white" stroke-width="2" stroke-linejoin="round"/>
<path d="M32 32V24" stroke="white" stroke-width="2" stroke-linejoin="round"/>
<path d="M33.5 19.5C34.46 18.5398 35.7622 18.0002 37.12 18H38V18.88C37.9998 20.2378 37.4602 21.54 36.5 22.5C35.54 23.4602 34.2378 23.9998 32.88 24H32V23.12C32.0002 21.7622 32.5398 20.46 33.5 19.5Z" stroke="white" stroke-width="2" stroke-linejoin="round"/>
<path d="M30.5 19.5C29.54 18.5398 28.2378 18.0002 26.88 18H26V18.88C26.0002 20.2378 26.5398 21.54 27.5 22.5C28.46 23.4602 29.7622 23.9998 31.12 24H32V23.12C31.9998 21.7622 31.4602 20.46 30.5 19.5Z" stroke="white" stroke-width="2" stroke-linejoin="round"/>
<path d="M12 22C17.5228 22 22 17.5228 22 12C22 6.47715 17.5228 2 12 2C6.47715 2 2 6.47715 2 12C2 17.5228 6.47715 22 12 22Z" stroke="white" stroke-width="2" stroke-linejoin="round"/>
<path d="M52 22C57.5228 22 62 17.5228 62 12C62 6.47715 57.5228 2 52 2C46.4772 2 42 6.47715 42 12C42 17.5228 46.4772 22 52 22Z" stroke="white" stroke-width="2" stroke-linejoin="round"/>
<path d="M53.2994 17.99C53.1891 17.9894 53.08 17.966 52.979 17.9212C52.878 17.8764 52.7872 17.8113 52.7122 17.7298L48.2334 12.8858C48.0839 12.734 48 12.5289 48 12.3153C48 12.1016 48.0839 11.8966 48.2334 11.7448C48.3791 11.608 48.5715 11.5327 48.7709 11.5346H50.9904C51.3643 11.528 51.7288 11.4156 52.0422 11.2103C52.3555 11.0049 52.605 10.715 52.762 10.3737H49.5671C49.37 10.3515 49.1879 10.2571 49.0557 10.1085C48.9234 9.95985 48.8503 9.76742 48.8503 9.56799C48.8503 9.36855 48.9234 9.17612 49.0557 9.02748C49.1879 8.87884 49.37 8.78444 49.5671 8.76231H52.8118C52.6533 8.42285 52.4032 8.13498 52.09 7.93148C51.7768 7.72799 51.413 7.61707 51.0401 7.61135H48.8206C48.6235 7.58922 48.4414 7.49482 48.3092 7.34618C48.177 7.19754 48.1039 7.00511 48.1039 6.80567C48.1039 6.60624 48.177 6.41381 48.3092 6.26517C48.4414 6.11653 48.6235 6.02212 48.8206 6H55.7877C55.9848 6.02212 56.1669 6.11653 56.2991 6.26517C56.4313 6.41381 56.5044 6.60624 56.5044 6.80567C56.5044 7.00511 56.4313 7.19754 56.2991 7.34618C56.1669 7.49482 55.9848 7.58922 55.7877 7.61135H54.0061C54.237 7.96194 54.4023 8.352 54.4938 8.76231H55.8076C56.0047 8.78444 56.1868 8.87884 56.319 9.02748C56.4512 9.17612 56.5243 9.36855 56.5243 9.56799C56.5243 9.76742 56.4512 9.95985 56.319 10.1085C56.1868 10.2571 56.0047 10.3515 55.8076 10.3737H54.5038C54.3219 11.1608 53.8808 11.8631 53.252 12.3663C52.6233 12.8696 51.8438 13.1444 51.0401 13.146H50.6619L53.9364 16.6889C54.0853 16.839 54.169 17.0424 54.169 17.2544C54.169 17.4664 54.0853 17.6698 53.9364 17.8199C53.8479 17.8912 53.7455 17.9432 53.6358 17.9725C53.5261 18.0018 53.4116 18.0078 53.2994 17.99Z" fill="white"/>
<path d="M13.2994 17.99C13.1891 17.9894 13.08 17.966 12.979 17.9212C12.878 17.8764 12.7872 17.8113 12.7122 17.7298L8.2334 12.8858C8.08388 12.734 8 12.5289 8 12.3153C8 12.1016 8.08388 11.8966 8.2334 11.7448C8.37907 11.608 8.57151 11.5327 8.77086 11.5346H10.9904C11.3643 11.528 11.7288 11.4156 12.0422 11.2103C12.3555 11.0049 12.605 10.715 12.762 10.3737H9.56709C9.36999 10.3515 9.18791 10.2571 9.05568 10.1085C8.92345 9.95985 8.85034 9.76742 8.85034 9.56799C8.85034 9.36855 8.92345 9.17612 9.05568 9.02748C9.18791 8.87884 9.36999 8.78444 9.56709 8.76231H12.8118C12.6533 8.42285 12.4032 8.13498 12.09 7.93148C11.7768 7.72799 11.413 7.61707 11.0401 7.61135H8.82062C8.62352 7.58922 8.44144 7.49482 8.30921 7.34618C8.17698 7.19754 8.10387 7.00511 8.10387 6.80567C8.10387 6.60624 8.17698 6.41381 8.30921 6.26517C8.44144 6.11653 8.62352 6.02212 8.82062 6H15.7877C15.9848 6.02212 16.1669 6.11653 16.2991 6.26517C16.4313 6.41381 16.5044 6.60624 16.5044 6.80567C16.5044 7.00511 16.4313 7.19754 16.2991 7.34618C16.1669 7.49482 15.9848 7.58922 15.7877 7.61135H14.0061C14.237 7.96194 14.4023 8.352 14.4938 8.76231H15.8076C16.0047 8.78444 16.1868 8.87884 16.319 9.02748C16.4512 9.17612 16.5243 9.36855 16.5243 9.56799C16.5243 9.76742 16.4512 9.95985 16.319 10.1085C16.1868 10.2571 16.0047 10.3515 15.8076 10.3737H14.5038C14.3219 11.1608 13.8808 11.8631 13.252 12.3663C12.6233 12.8696 11.8438 13.1444 11.0401 13.146H10.6619L13.9364 16.6889C14.0853 16.839 14.169 17.0424 14.169 17.2544C14.169 17.4664 14.0853 17.6698 13.9364 17.8199C13.8479 17.8912 13.7455 17.9432 13.6358 17.9725C13.5261 18.0018 13.4116 18.0078 13.2994 17.99Z" fill="white"/>
</svg>
