<svg width="70" height="70" viewBox="0 0 70 70" fill="none" xmlns="http://www.w3.org/2000/svg">
<g clip-path="url(#clip0_1245_19)">
<path d="M70.0018 31.2842C70.0018 33.8709 67.8977 35.975 65.3109 35.975C63.0988 35.975 61.2408 34.4383 60.7459 32.3779H52.983C52.9406 36.5643 51.3 40.3951 48.6121 43.3455L54.1164 48.8498C54.8479 48.3986 55.6914 48.158 56.5705 48.158H56.5732C57.827 48.1594 59.0041 48.6475 59.8887 49.5348C60.7732 50.4166 61.2627 51.5938 61.2641 52.8475C61.2654 54.1025 60.776 55.2824 59.8887 56.1711C59.0055 57.057 57.8283 57.5465 56.5746 57.5465H56.5719C55.3182 57.5465 54.1397 57.0584 53.2523 56.1711L53.251 56.1697C51.691 54.6057 51.4641 52.2063 52.5701 50.4002L47.0398 44.8699C44.1031 47.3842 40.2914 48.9947 36.0955 49.234V57.027C38.1572 57.5219 39.6953 59.3785 39.6953 61.5879C39.6953 64.1773 37.5885 66.2828 35.0004 66.2828C32.4137 66.2828 30.3096 64.176 30.3096 61.5879C30.3096 59.3785 31.8463 57.5219 33.9066 57.027V49.2326C29.7107 48.992 25.899 47.3828 22.9623 44.8686L17.4348 50.3961C17.8846 51.1248 18.1266 51.967 18.1266 52.8461C18.1279 54.1012 17.6385 55.2811 16.7512 56.1697C15.868 57.0557 14.6908 57.5451 13.4371 57.5451H13.4344C12.1807 57.5451 11.0021 57.057 10.1148 56.1697C9.22617 55.2824 8.73808 54.1012 8.73945 52.8461C8.74082 51.5924 9.22891 50.4152 10.1162 49.5307C11.0035 48.6447 12.182 48.1566 13.4344 48.1566H13.4371C14.3162 48.1566 15.157 48.3986 15.8857 48.8484L21.39 43.3441C18.7021 40.3938 17.0629 36.5629 17.0191 32.3766H9.25488C8.75996 34.4369 6.90332 35.9736 4.69395 35.9736C2.10449 35.9736 -0.000976562 33.8695 -0.000976562 31.2828C-0.000976562 28.6934 2.10586 26.5879 4.69395 26.5879C6.90469 26.5879 8.76133 28.126 9.25488 30.1877H17.1449C17.4717 27.5586 18.4246 24.9254 19.9531 22.4713C21.5363 19.9283 23.6992 17.6246 26.2559 15.7447C25.9291 15.2484 25.7377 14.6551 25.7377 14.0166C25.7377 12.3172 27.0953 10.9281 28.7824 10.8775L27.6176 8.18418C27.0557 6.88399 27.3797 5.37324 28.427 4.42715C29.358 3.59316 30.6828 3.48516 31.7314 4.15371L32.3344 4.53652C32.5285 4.66094 32.7295 4.66094 32.9209 4.53926L33.5348 4.14688C34.4439 3.57129 35.5691 3.57129 36.4742 4.14414L37.0895 4.53926C37.2795 4.66094 37.4818 4.66094 37.6732 4.53789L38.2748 4.15371C39.3262 3.48242 40.6537 3.59316 41.5779 4.42578C42.6225 5.37188 42.9506 6.87988 42.3941 8.18145L41.2279 10.8789C42.9137 10.9322 44.2699 12.3186 44.2699 14.018C44.2699 14.6551 44.0785 15.2484 43.7531 15.7447C46.3084 17.6246 48.4713 19.9297 50.0545 22.4727C51.583 24.9268 52.5346 27.56 52.8613 30.1891H60.7514C61.2463 28.1273 63.1043 26.5893 65.3164 26.5893C67.8977 26.5893 70.0018 28.6961 70.0018 31.2842ZM29.626 7.31875L31.1654 10.8789H38.8381L40.3775 7.31875C40.5676 6.87441 40.4609 6.37676 40.1055 6.0541C39.9168 5.88457 39.6652 5.86406 39.4492 6.00215L38.849 6.38496C37.9412 6.96738 36.8105 6.96738 35.9014 6.38359L35.2916 5.99121C35.1043 5.87227 34.9006 5.87227 34.7064 5.99531L34.098 6.38496C33.1916 6.96602 32.0623 6.96602 31.1545 6.38359L30.5543 6.00215C30.3355 5.8627 30.0826 5.88457 29.8912 6.05547C29.5385 6.37539 29.4332 6.87168 29.626 7.31875ZM27.9252 14.0193C27.9252 14.5375 28.3613 14.975 28.8768 14.975H41.124C41.649 14.975 42.0756 14.5471 42.0756 14.0193C42.0756 13.4943 41.649 13.0678 41.124 13.0678H39.5613H39.5572H39.5518H30.46C30.4559 13.0678 30.4518 13.0678 30.449 13.0678H28.8768C28.3613 13.0678 27.9252 13.5039 27.9252 14.0193ZM7.1959 31.2842C7.1959 29.9033 6.07344 28.7781 4.69395 28.7781C3.31309 28.7781 2.18789 29.902 2.18789 31.2842C2.18789 32.6637 3.31172 33.7861 4.69395 33.7861C6.07344 33.7861 7.1959 32.6637 7.1959 31.2842ZM15.9363 52.8502C15.9363 52.183 15.6752 51.5555 15.2035 51.0838C14.7305 50.6094 14.1029 50.3482 13.4357 50.3482H13.4344C12.7658 50.3482 12.1369 50.6094 11.6625 51.0824L11.6611 51.0838C11.1881 51.5555 10.9283 52.1816 10.9283 52.8502C10.9283 53.5201 11.1881 54.149 11.6625 54.6234C12.1355 55.0965 12.7658 55.3576 13.4344 55.3576H13.4357C14.1029 55.3576 14.7305 55.0965 15.2021 54.6248C15.6752 54.149 15.9363 53.5201 15.9363 52.8502ZM35.0004 59.0887C33.6209 59.0887 32.4984 60.2111 32.4984 61.5906C32.4984 62.9715 33.6209 64.0967 35.0004 64.0967C36.3813 64.0967 37.5064 62.9729 37.5064 61.5906C37.5064 60.2111 36.3813 59.0887 35.0004 59.0887ZM54.8 51.0838C53.8252 52.0586 53.8252 53.6459 54.8 54.6234C55.273 55.0965 55.9033 55.3576 56.5719 55.3576H56.5732C57.2404 55.3576 57.868 55.0965 58.3396 54.6248C58.8154 54.149 59.0752 53.5201 59.0752 52.8502C59.0752 52.183 58.8141 51.5555 58.3424 51.0838C57.8693 50.6094 57.2418 50.3482 56.5746 50.3482H56.5732C55.902 50.3496 55.273 50.6094 54.8 51.0838ZM50.7955 32.2111C50.7955 26.6467 47.3789 20.8922 41.8459 17.0805C41.6148 17.1352 41.3728 17.1652 41.1254 17.1652H28.8781C28.6307 17.1652 28.39 17.1352 28.1604 17.0818C22.626 20.8936 19.208 26.648 19.208 32.2125C19.208 40.4115 26.2928 47.0807 35.0031 47.0807C43.7135 47.0807 50.7955 40.4088 50.7955 32.2111ZM67.8129 31.2842C67.8129 29.9033 66.6904 28.7781 65.3109 28.7781C63.9301 28.7781 62.8049 29.902 62.8049 31.2842C62.8049 32.6637 63.9287 33.7861 65.3109 33.7861C66.6904 33.7861 67.8129 32.6637 67.8129 31.2842Z" fill="white"/>
<path d="M36.398 39.213C36.2856 39.2124 36.1745 39.1885 36.0716 39.1429C35.9687 39.0973 35.8762 39.031 35.7999 38.948L31.2377 34.0138C31.0854 33.8592 31 33.6504 31 33.4328C31 33.2151 31.0854 33.0063 31.2377 32.8517C31.3861 32.7123 31.5821 32.6356 31.7852 32.6376H34.046C34.4269 32.6308 34.7982 32.5163 35.1173 32.3072C35.4365 32.098 35.6906 31.8027 35.8506 31.455H32.5962C32.3955 31.4325 32.21 31.3363 32.0753 31.1849C31.9406 31.0335 31.8662 30.8375 31.8662 30.6344C31.8662 30.4312 31.9406 30.2352 32.0753 30.0838C32.21 29.9324 32.3955 29.8362 32.5962 29.8137H35.9012C35.7399 29.4679 35.4851 29.1747 35.1661 28.9674C34.847 28.7601 34.4765 28.6471 34.0967 28.6413H31.8359C31.6351 28.6188 31.4496 28.5226 31.315 28.3712C31.1803 28.2198 31.1058 28.0238 31.1058 27.8207C31.1058 27.6175 31.1803 27.4215 31.315 27.2701C31.4496 27.1187 31.6351 27.0225 31.8359 27H38.9325C39.1333 27.0225 39.3188 27.1187 39.4535 27.2701C39.5881 27.4215 39.6626 27.6175 39.6626 27.8207C39.6626 28.0238 39.5881 28.2198 39.4535 28.3712C39.3188 28.5226 39.1333 28.6188 38.9325 28.6413H37.1178C37.353 28.9984 37.5214 29.3957 37.6146 29.8137H38.9528C39.1536 29.8362 39.339 29.9324 39.4737 30.0838C39.6084 30.2352 39.6829 30.4312 39.6829 30.6344C39.6829 30.8375 39.6084 31.0335 39.4737 31.1849C39.339 31.3363 39.1536 31.4325 38.9528 31.455H37.6247C37.4395 32.2568 36.9902 32.9721 36.3497 33.4847C35.7093 33.9974 34.9153 34.2772 34.0967 34.2789H33.7114L37.0469 37.8878C37.1985 38.0406 37.2837 38.2478 37.2837 38.4637C37.2837 38.6797 37.1985 38.8869 37.0469 39.0397C36.9566 39.1124 36.8523 39.1653 36.7406 39.1952C36.6289 39.225 36.5122 39.2311 36.398 39.213Z" fill="white"/>
</g>
<defs>
<clipPath id="clip0_1245_19">
<rect width="70" height="70" fill="white"/>
</clipPath>
</defs>
</svg>
