<svg width="70" height="70" viewBox="0 0 70 70" fill="none" xmlns="http://www.w3.org/2000/svg">
<path fill-rule="evenodd" clip-rule="evenodd" d="M41.2996 57.8303C41.2996 58.3204 40.9025 58.7164 40.4137 58.7164H29.5855C29.0966 58.7164 28.6996 58.3204 28.6996 57.8303C28.6996 57.3414 29.0966 56.9447 29.5855 56.9447H40.4137C40.9025 56.9445 41.2996 57.3413 41.2996 57.8303ZM28.6996 41.5048C28.6996 41.0156 29.0966 40.6187 29.5855 40.6187H36.4945C36.9849 40.6187 37.3804 41.0156 37.3804 41.5048C37.3804 41.9936 36.9848 42.3904 36.4945 42.3904H29.5855C29.0966 42.3905 28.6996 41.9936 28.6996 41.5048ZM41.2996 46.9463C41.2996 47.4363 40.9025 47.8319 40.4137 47.8319H29.5855C29.0966 47.8319 28.6996 47.4363 28.6996 46.9463C28.6996 46.4571 29.0966 46.0602 29.5855 46.0602H40.4137C40.9025 46.0602 41.2996 46.457 41.2996 46.9463ZM41.2996 52.3889C41.2996 52.8778 40.9025 53.2747 40.4137 53.2747H29.5855C29.0966 53.2747 28.6996 52.8778 28.6996 52.3889C28.6996 51.8999 29.0966 51.5029 29.5855 51.5029H40.4137C40.9025 51.5029 41.2996 51.8999 41.2996 52.3889ZM57.6502 55.8685C57.6502 55.8967 57.6233 55.9239 57.5949 55.9239H53.2541V33.891C53.2541 32.9069 52.4548 32.1075 51.4717 32.1075H44.9754V30.3911C44.9754 30.3628 45.0023 30.3357 45.0307 30.3357H57.5949C57.6233 30.3357 57.6502 30.3627 57.6502 30.3911V55.8685ZM51.4822 59.4556V33.891C51.4822 33.8864 51.4755 33.8791 51.4717 33.8791H39.4904C39.4866 33.8791 39.4785 33.8864 39.4785 33.891V35.1017H40.4599C40.6949 35.1017 40.9203 35.1951 41.0868 35.3616L45.5314 39.8063C45.6978 39.9727 45.7919 40.1984 45.7919 40.4333V59.4673H51.4717C51.4755 59.4673 51.4822 59.4591 51.4822 59.4556ZM41.3459 38.1267L42.7669 39.5477H41.484C41.4107 39.5477 41.3459 39.4827 41.3459 39.4095V38.1267ZM43.8827 62.4615C43.9558 62.4615 44.0201 62.3977 44.0201 62.3244V41.3191H41.484C40.4309 41.3191 39.5739 40.4629 39.5739 39.4095V36.8737H26.1163C26.0432 36.8737 25.979 36.9373 25.979 37.0105V62.3246C25.979 62.3978 26.0431 62.4616 26.1163 62.4616L43.8827 62.4615ZM18.5275 59.4673H24.208V37.0103C24.208 35.9581 25.0641 35.1018 26.1164 35.1018H30.52V33.8911C30.52 33.8865 30.5126 33.8792 30.5088 33.8792H18.5275C18.5237 33.8792 18.5156 33.8865 18.5156 33.8911V59.4557C18.5156 59.4591 18.5237 59.4673 18.5275 59.4673ZM12.4043 55.9238C12.3759 55.9238 12.3491 55.8966 12.3491 55.8683V30.3913C12.3491 30.363 12.376 30.3358 12.4043 30.3358H24.9684C24.9969 30.3358 25.0237 30.3629 25.0237 30.3913V32.1077H18.5275C17.5452 32.1077 16.7444 32.9071 16.7444 33.8911V55.9239L12.4043 55.9238ZM27.9024 14.6361C27.9024 18.5505 31.0864 21.7335 34.9996 21.7335C38.9127 21.7335 42.0967 18.5505 42.0967 14.6361C42.0967 10.7234 38.9127 7.53879 34.9996 7.53879C31.0864 7.53879 27.9024 10.7234 27.9024 14.6361ZM30.0773 27.9158C28.7704 27.4067 27.7158 26.4972 27.1792 25.4508C29.5166 24.5839 32.7417 25.8406 33.88 28.0575C32.7776 28.4659 31.3849 28.4237 30.0773 27.9158ZM39.018 25.5936C40.3256 25.0846 41.7183 25.042 42.82 25.4508C41.6797 27.6741 38.4618 28.9255 36.1192 28.0575C36.6558 27.0111 37.7104 26.1015 39.018 25.5936ZM57.5949 28.5643H45.0307C44.0238 28.5643 43.2036 29.3841 43.2036 30.3914V32.1078H39.4905C38.5076 32.1078 37.7068 32.9072 37.7068 33.8913V35.102H35.8857V29.8484C39.3939 30.8856 43.819 28.7304 44.7927 25.2547C44.8987 24.8757 44.7419 24.4704 44.4076 24.2625C41.8604 22.6808 38.1383 23.3872 35.8857 25.4899V23.4617C40.3623 23.0152 43.8687 19.2286 43.8687 14.6362C43.8687 9.74645 39.8906 5.76709 34.9997 5.76709C30.1088 5.76709 26.1307 9.74645 26.1307 14.6362C26.1307 19.2288 29.6372 23.0154 34.1138 23.4617V25.4899C31.8608 23.3868 28.1397 22.6803 25.5919 24.2625C25.2575 24.4704 25.1007 24.8757 25.2067 25.2547C26.1806 28.7306 30.6057 30.8856 34.1138 29.8484V35.102H32.2911V33.8913C32.2911 32.9072 31.4917 32.1078 30.5088 32.1078H26.7956V30.3914C26.7956 29.3841 25.9753 28.5643 24.9684 28.5643H12.4043C11.3974 28.5643 10.5771 29.3841 10.5771 30.3914V55.8686C10.5771 56.8762 11.3974 57.6958 12.4043 57.6958H16.7444V59.4558C16.7444 60.4384 17.5452 61.2393 18.5275 61.2393H24.208V62.3247C24.208 63.3772 25.0641 64.2335 26.1164 64.2335H43.8829C44.9352 64.2335 45.792 63.3772 45.792 62.3247V61.2393H51.4718C52.4548 61.2393 53.2542 60.4385 53.2542 59.4558V57.6958H57.595C58.6019 57.6958 59.4222 56.8762 59.4222 55.8686V30.3913C59.422 29.384 58.6018 28.5643 57.5949 28.5643Z" fill="white"/>
<path d="M35.533 18.9934C35.4594 18.9929 35.3867 18.9773 35.3193 18.9475C35.252 18.9176 35.1914 18.8742 35.1415 18.8199L32.1556 15.5905C32.0559 15.4893 32 15.3526 32 15.2102C32 15.0678 32.0559 14.9311 32.1556 14.8299C32.2527 14.7386 32.381 14.6885 32.5139 14.6898H33.9936C34.2429 14.6853 34.4859 14.6104 34.6948 14.4735C34.9037 14.3366 35.07 14.1433 35.1747 13.9158H33.0447C32.9133 13.901 32.7919 13.8381 32.7038 13.739C32.6156 13.6399 32.5669 13.5116 32.5669 13.3787C32.5669 13.2457 32.6156 13.1174 32.7038 13.0183C32.7919 12.9192 32.9133 12.8563 33.0447 12.8415H35.2078C35.1022 12.6152 34.9355 12.4233 34.7267 12.2877C34.5178 12.152 34.2753 12.078 34.0268 12.0742H32.5471C32.4157 12.0595 32.2943 11.9965 32.2061 11.8975C32.118 11.7984 32.0692 11.6701 32.0692 11.5371C32.0692 11.4042 32.118 11.2759 32.2061 11.1768C32.2943 11.0777 32.4157 11.0147 32.5471 11H37.1918C37.3232 11.0147 37.4446 11.0777 37.5327 11.1768C37.6209 11.2759 37.6696 11.4042 37.6696 11.5371C37.6696 11.6701 37.6209 11.7984 37.5327 11.8975C37.4446 11.9965 37.3232 12.0595 37.1918 12.0742H36.0041C36.158 12.308 36.2682 12.568 36.3292 12.8415H37.2051C37.3365 12.8563 37.4578 12.9192 37.546 13.0183C37.6342 13.1174 37.6829 13.2457 37.6829 13.3787C37.6829 13.5116 37.6342 13.6399 37.546 13.739C37.4578 13.8381 37.3365 13.901 37.2051 13.9158H36.3358C36.2146 14.4405 35.9205 14.9087 35.5014 15.2442C35.0822 15.5797 34.5625 15.7629 34.0268 15.764H33.7746L35.9576 18.126C36.0569 18.226 36.1126 18.3616 36.1126 18.5029C36.1126 18.6443 36.0569 18.7799 35.9576 18.8799C35.8986 18.9275 35.8303 18.9621 35.7572 18.9817C35.6841 19.0012 35.6077 19.0052 35.533 18.9934Z" fill="white"/>
</svg>
