<svg width="70" height="70" viewBox="0 0 70 70" fill="none" xmlns="http://www.w3.org/2000/svg">
<path d="M65.1239 33.9414C65.5777 33.9414 65.9456 33.5737 65.9456 33.1199V28.2097C65.9456 27.7559 65.5778 27.3881 65.1239 27.3881H55.2531V18.8853C55.2531 18.4315 54.8853 18.0637 54.4314 18.0637H48.1183V16.4321C48.1183 15.9784 47.7505 15.6106 47.2966 15.6106H40.0029V8.73939C40.0029 8.28562 39.6352 7.91785 39.1813 7.91785H32.6821V1.36793C32.6821 0.91416 32.3143 0.546387 31.8604 0.546387C31.4065 0.546387 31.0387 0.91416 31.0387 1.36793V7.91758H24.5435C24.0897 7.91758 23.7218 8.28535 23.7218 8.73912V15.6103H16.4243C15.9705 15.6103 15.6026 15.9781 15.6026 16.4319V21.3421C15.6026 21.7959 15.9704 22.1637 16.4243 22.1637H18.1178V33.052C17.3495 33.157 16.6436 33.4069 16.0803 33.7741C15.3226 33.2789 14.3041 32.9958 13.2193 32.9958C11.8234 32.9958 10.5335 33.4674 9.76883 34.2574C9.51631 34.5183 9.46504 34.9139 9.6425 35.2307L11.9336 39.3165C11.4945 39.7386 11.2194 40.3307 11.2194 40.987C11.2194 41.7036 11.547 42.3451 12.0602 42.7699C7.12687 45.4797 4.05371 50.2531 4.05371 55.4737C4.05371 59.7907 5.67615 63.4217 8.74563 65.9741C11.444 68.2178 15.065 69.4535 18.9413 69.4535C18.9581 69.4535 18.9748 69.4525 18.9915 69.4525H65.1236C65.5774 69.4525 65.9453 69.0847 65.9453 68.631V63.7247C65.9453 63.2709 65.5776 62.9031 65.1236 62.9031H64.1819V33.9416L65.1239 33.9414ZM48.1183 21.3423V19.7068H53.6097V27.3881H46.355V22.1639H47.2968C47.7505 22.1639 48.1183 21.796 48.1183 21.3423ZM25.3653 9.5608H38.3597V15.6105H25.3653V9.5608ZM17.2461 20.5207V17.2537H46.4749V20.5207H17.2461ZM46.3549 33.9416H62.5388V62.9031H46.3549V33.9416ZM25.9509 39.3191L28.2371 35.23C28.4136 34.9143 28.3629 34.5203 28.1122 34.2596C27.3514 33.4683 26.0608 32.9959 24.66 32.9959C23.5782 32.9959 22.5602 33.279 21.8008 33.7742C21.2383 33.4067 20.5316 33.1565 19.7613 33.0518V22.1639H44.7117V62.9033H31.8272C33.1454 60.787 33.8294 58.2752 33.8294 55.474C33.8294 50.2531 30.756 45.4794 25.8219 42.7698C26.3357 42.345 26.6637 41.7038 26.6637 40.9874C26.6637 40.3324 26.3893 39.7409 25.9509 39.3191ZM11.4257 35.0509C11.9036 34.7931 12.5511 34.6391 13.2195 34.6391C14.1535 34.6391 15.0437 34.9372 15.4872 35.3985C15.6419 35.5592 15.855 35.6503 16.0781 35.6506C16.3002 35.6549 16.5147 35.5606 16.6698 35.4004C17.1175 34.9379 18.0085 34.639 18.9396 34.639C19.8708 34.639 20.764 34.937 21.2075 35.3983C21.3622 35.5591 21.5753 35.6502 21.7984 35.6504C22.0232 35.6548 22.235 35.5605 22.3902 35.4002C22.8378 34.9377 23.7288 34.6388 24.66 34.6388C25.3306 34.6388 25.9788 34.7925 26.4551 35.05L24.4292 38.6736C24.4013 38.6726 24.3741 38.6693 24.3461 38.6693H13.5335C13.5078 38.6693 13.4827 38.6723 13.4571 38.6731L11.4257 35.0509ZM25.0203 40.9871C25.0203 41.3568 24.7178 41.6576 24.3459 41.6576H13.5334C13.1637 41.6576 12.8629 41.3568 12.8629 40.9871C12.8629 40.7089 13.0313 40.4698 13.271 40.3668C13.2798 40.3641 13.2885 40.3612 13.2973 40.3582C13.371 40.33 13.45 40.3128 13.5334 40.3128H24.3459C24.7115 40.3128 25.0203 40.6217 25.0203 40.9871ZM18.9396 67.8094C18.934 67.8094 18.9287 67.8101 18.9232 67.8102C12.5496 67.8028 5.69721 63.9418 5.69721 55.4737C5.69721 50.2167 9.26557 45.4533 14.8017 43.3007H23.0817C28.6178 45.4532 32.1862 50.2167 32.1862 55.4737C32.1862 58.6841 31.2007 61.2317 29.6305 63.1589C29.6044 63.1864 29.5801 63.2158 29.5579 63.2467C27.0005 66.3195 22.9415 67.7834 19.0477 67.8094H18.9396ZM64.3022 64.5462V67.8094H26.285C27.3153 67.3053 28.274 66.692 29.1374 65.9742C29.6711 65.5304 30.16 65.0533 30.6053 64.5463L64.3022 64.5462ZM46.355 32.2982V29.0312H64.3022V32.2982H46.355ZM18.9398 47.6103C14.559 47.6103 10.9951 51.1743 10.9951 55.555C10.9951 59.9358 14.559 63.5036 18.9398 63.5036C23.3205 63.5036 26.8885 59.9378 26.8885 55.555C26.8885 51.1722 23.3227 47.6103 18.9398 47.6103ZM18.9398 61.8605C15.4651 61.8605 12.6383 59.0319 12.6383 55.555C12.6383 52.0781 15.4651 49.2534 18.9398 49.2534C22.4145 49.2534 25.2451 52.0803 25.2451 55.555C25.2451 59.0297 22.4167 61.8605 18.9398 61.8605ZM27.7721 25.0278C27.7721 25.4816 27.4043 25.8493 26.9504 25.8493H23.9818C23.5281 25.8493 23.1602 25.4816 23.1602 25.0278C23.1602 24.574 23.5279 24.2063 23.9818 24.2063H26.9504C27.4042 24.2063 27.7721 24.574 27.7721 25.0278ZM29.9307 25.0278C29.9307 24.574 30.2985 24.2063 30.7524 24.2063H33.721C34.1748 24.2063 34.5427 24.574 34.5427 25.0278C34.5427 25.4816 34.1749 25.8493 33.721 25.8493H30.7524C30.2987 25.8493 29.9307 25.4816 29.9307 25.0278ZM36.705 25.0278C36.705 24.574 37.0728 24.2063 37.5267 24.2063H40.4916C40.9454 24.2063 41.3133 24.574 41.3133 25.0278C41.3133 25.4816 40.9455 25.8493 40.4916 25.8493H37.5267C37.0729 25.8493 36.705 25.4816 36.705 25.0278ZM27.7721 29.4847C27.7721 29.9385 27.4043 30.3062 26.9504 30.3062H23.9818C23.5281 30.3062 23.1602 29.9385 23.1602 29.4847C23.1602 29.0309 23.5279 28.6631 23.9818 28.6631H26.9504C27.4042 28.6631 27.7721 29.0309 27.7721 29.4847ZM29.9307 29.4847C29.9307 29.0309 30.2985 28.6631 30.7524 28.6631H33.721C34.1748 28.6631 34.5427 29.0309 34.5427 29.4847C34.5427 29.9385 34.1749 30.3062 33.721 30.3062H30.7524C30.2987 30.3062 29.9307 29.9385 29.9307 29.4847ZM36.705 29.4847C36.705 29.0309 37.0728 28.6631 37.5267 28.6631H40.4916C40.9454 28.6631 41.3133 29.0309 41.3133 29.4847C41.3133 29.9385 40.9455 30.3062 40.4916 30.3062H37.5267C37.0729 30.3062 36.705 29.9385 36.705 29.4847ZM29.9307 33.9376C29.9307 33.4838 30.2985 33.1161 30.7524 33.1161H33.721C34.1748 33.1161 34.5427 33.4838 34.5427 33.9376C34.5427 34.3914 34.1749 34.7592 33.721 34.7592H30.7524C30.2987 34.7592 29.9307 34.3914 29.9307 33.9376ZM36.705 33.9376C36.705 33.4838 37.0728 33.1161 37.5267 33.1161H40.4916C40.9454 33.1161 41.3133 33.4838 41.3133 33.9376C41.3133 34.3914 40.9455 34.7592 40.4916 34.7592H37.5267C37.0729 34.7592 36.705 34.3914 36.705 33.9376ZM29.9307 38.3945C29.9307 37.9407 30.2985 37.573 30.7524 37.573H33.721C34.1748 37.573 34.5427 37.9407 34.5427 38.3945C34.5427 38.8483 34.1749 39.2161 33.721 39.2161H30.7524C30.2987 39.2161 29.9307 38.8483 29.9307 38.3945ZM36.705 38.3945C36.705 37.9407 37.0728 37.573 37.5267 37.573H40.4916C40.9454 37.573 41.3133 37.9407 41.3133 38.3945C41.3133 38.8483 40.9455 39.2161 40.4916 39.2161H37.5267C37.0729 39.2161 36.705 38.8483 36.705 38.3945ZM29.9307 42.8513C29.9307 42.3975 30.2985 42.0297 30.7524 42.0297H33.721C34.1748 42.0297 34.5427 42.3975 34.5427 42.8513C34.5427 43.305 34.1749 43.6728 33.721 43.6728H30.7524C30.2987 43.6728 29.9307 43.305 29.9307 42.8513ZM36.705 42.8513C36.705 42.3975 37.0728 42.0297 37.5267 42.0297H40.4916C40.9454 42.0297 41.3133 42.3975 41.3133 42.8513C41.3133 43.305 40.9455 43.6728 40.4916 43.6728H37.5267C37.0729 43.6728 36.705 43.305 36.705 42.8513ZM36.705 47.3082C36.705 46.8544 37.0728 46.4866 37.5267 46.4866H40.4916C40.9454 46.4866 41.3133 46.8544 41.3133 47.3082C41.3133 47.7619 40.9455 48.1297 40.4916 48.1297H37.5267C37.0729 48.1297 36.705 47.7619 36.705 47.3082ZM36.705 51.7649C36.705 51.3111 37.0728 50.9434 37.5267 50.9434H40.4916C40.9454 50.9434 41.3133 51.3111 41.3133 51.7649C41.3133 52.2187 40.9455 52.5865 40.4916 52.5865H37.5267C37.0729 52.5865 36.705 52.2187 36.705 51.7649ZM36.705 56.2178C36.705 55.7641 37.0728 55.3963 37.5267 55.3963H40.4916C40.9454 55.3963 41.3133 55.7641 41.3133 56.2178C41.3133 56.6716 40.9455 57.0394 40.4916 57.0394H37.5267C37.0729 57.0394 36.705 56.6716 36.705 56.2178ZM36.705 60.6747C36.705 60.221 37.0728 59.8532 37.5267 59.8532H40.4916C40.9454 59.8532 41.3133 60.221 41.3133 60.6747C41.3133 61.1285 40.9455 61.4963 40.4916 61.4963H37.5267C37.0729 61.4963 36.705 61.1285 36.705 60.6747ZM53.3658 37.8132C53.3658 38.267 52.9981 38.6347 52.5442 38.6347H49.5756C49.1218 38.6347 48.7539 38.267 48.7539 37.8132C48.7539 37.3594 49.1217 36.9916 49.5756 36.9916H52.5442C52.9979 36.9916 53.3658 37.3594 53.3658 37.8132ZM60.1363 37.8132C60.1363 38.267 59.7685 38.6347 59.3146 38.6347H56.3499C55.8961 38.6347 55.5282 38.267 55.5282 37.8132C55.5282 37.3594 55.896 36.9916 56.3499 36.9916H59.3146C59.7684 36.9916 60.1363 37.3594 60.1363 37.8132ZM53.3658 42.2661C53.3658 42.7199 52.9981 43.0877 52.5442 43.0877H49.5756C49.1218 43.0877 48.7539 42.7199 48.7539 42.2661C48.7539 41.8123 49.1217 41.4446 49.5756 41.4446H52.5442C52.9979 41.4446 53.3658 41.8123 53.3658 42.2661ZM60.1363 42.2661C60.1363 42.7199 59.7685 43.0877 59.3146 43.0877H56.3499C55.8961 43.0877 55.5282 42.7199 55.5282 42.2661C55.5282 41.8123 55.896 41.4446 56.3499 41.4446H59.3146C59.7684 41.4446 60.1363 41.8123 60.1363 42.2661ZM53.3658 46.723C53.3658 47.1768 52.9981 47.5446 52.5442 47.5446H49.5756C49.1218 47.5446 48.7539 47.1768 48.7539 46.723C48.7539 46.2692 49.1217 45.9015 49.5756 45.9015H52.5442C52.9979 45.9015 53.3658 46.2692 53.3658 46.723ZM60.1363 46.723C60.1363 47.1768 59.7685 47.5446 59.3146 47.5446H56.3499C55.8961 47.5446 55.5282 47.1768 55.5282 46.723C55.5282 46.2692 55.896 45.9015 56.3499 45.9015H59.3146C59.7684 45.9015 60.1363 46.2692 60.1363 46.723ZM53.3658 51.1798C53.3658 51.6335 52.9981 52.0013 52.5442 52.0013H49.5756C49.1218 52.0013 48.7539 51.6335 48.7539 51.1798C48.7539 50.726 49.1217 50.3582 49.5756 50.3582H52.5442C52.9979 50.3582 53.3658 50.726 53.3658 51.1798ZM60.1363 51.1798C60.1363 51.6335 59.7685 52.0013 59.3146 52.0013H56.3499C55.8961 52.0013 55.5282 51.6335 55.5282 51.1798C55.5282 50.726 55.896 50.3582 56.3499 50.3582H59.3146C59.7684 50.3582 60.1363 50.726 60.1363 51.1798ZM53.3658 55.6367C53.3658 56.0904 52.9981 56.4582 52.5442 56.4582H49.5756C49.1218 56.4582 48.7539 56.0904 48.7539 55.6367C48.7539 55.1829 49.1217 54.8151 49.5756 54.8151H52.5442C52.9979 54.8151 53.3658 55.1829 53.3658 55.6367ZM60.1363 55.6367C60.1363 56.0904 59.7685 56.4582 59.3146 56.4582H56.3499C55.8961 56.4582 55.5282 56.0904 55.5282 55.6367C55.5282 55.1829 55.896 54.8151 56.3499 54.8151H59.3146C59.7684 54.8151 60.1363 55.1829 60.1363 55.6367ZM60.1363 60.0934C60.1363 60.5472 59.7685 60.915 59.3146 60.915H56.3499C55.8961 60.915 55.5282 60.5472 55.5282 60.0934C55.5282 59.6396 55.896 59.2719 56.3499 59.2719H59.3146C59.7684 59.2719 60.1363 59.6396 60.1363 60.0934ZM53.3658 60.0934C53.3658 60.5472 52.9981 60.915 52.5442 60.915H49.5756C49.1218 60.915 48.7539 60.5472 48.7539 60.0934C48.7539 59.6396 49.1217 59.2719 49.5756 59.2719H52.5442C52.9979 59.2719 53.3658 59.6396 53.3658 60.0934Z" fill="white"/>
<path d="M19.533 59.9934C19.4594 59.9929 19.3867 59.9773 19.3193 59.9475C19.252 59.9176 19.1914 59.8742 19.1415 59.8199L16.1556 56.5905C16.0559 56.4893 16 56.3526 16 56.2102C16 56.0678 16.0559 55.9311 16.1556 55.8299C16.2527 55.7386 16.381 55.6885 16.5139 55.6898H17.9936C18.2429 55.6853 18.4859 55.6104 18.6948 55.4735C18.9037 55.3366 19.07 55.1433 19.1747 54.9158H17.0447C16.9133 54.901 16.7919 54.8381 16.7038 54.739C16.6156 54.6399 16.5669 54.5116 16.5669 54.3787C16.5669 54.2457 16.6156 54.1174 16.7038 54.0183C16.7919 53.9192 16.9133 53.8563 17.0447 53.8415H19.2078C19.1022 53.6152 18.9355 53.4233 18.7267 53.2877C18.5178 53.152 18.2753 53.078 18.0268 53.0742H16.5471C16.4157 53.0595 16.2943 52.9965 16.2061 52.8975C16.118 52.7984 16.0692 52.6701 16.0692 52.5371C16.0692 52.4042 16.118 52.2759 16.2061 52.1768C16.2943 52.0777 16.4157 52.0147 16.5471 52H21.1918C21.3232 52.0147 21.4446 52.0777 21.5327 52.1768C21.6209 52.2759 21.6696 52.4042 21.6696 52.5371C21.6696 52.6701 21.6209 52.7984 21.5327 52.8975C21.4446 52.9965 21.3232 53.0595 21.1918 53.0742H20.0041C20.158 53.308 20.2682 53.568 20.3292 53.8415H21.2051C21.3365 53.8563 21.4578 53.9192 21.546 54.0183C21.6342 54.1174 21.6829 54.2457 21.6829 54.3787C21.6829 54.5116 21.6342 54.6399 21.546 54.739C21.4578 54.8381 21.3365 54.901 21.2051 54.9158H20.3358C20.2146 55.4405 19.9205 55.9087 19.5014 56.2442C19.0822 56.5797 18.5625 56.7629 18.0268 56.764H17.7746L19.9576 59.126C20.0569 59.226 20.1126 59.3616 20.1126 59.5029C20.1126 59.6443 20.0569 59.7799 19.9576 59.8799C19.8986 59.9275 19.8303 59.9621 19.7572 59.9817C19.6841 60.0012 19.6077 60.0052 19.533 59.9934Z" fill="white"/>
</svg>
