<svg width="70" height="70" viewBox="0 0 70 70" fill="none" xmlns="http://www.w3.org/2000/svg">
<g clip-path="url(#clip0_1245_13)">
<path d="M67.6668 44.3333H57.7723C55.9745 36.947 51.6682 30.4139 45.5888 25.8498C46.0014 25.4561 46.311 24.9671 46.4903 24.4258C46.6696 23.8844 46.7132 23.3073 46.6172 22.7452C46.5213 22.183 46.2887 21.6531 45.9399 21.2019C45.5911 20.7507 45.1368 20.3921 44.617 20.1576L47.6503 9.44647C47.8493 8.75318 47.8846 8.02317 47.7536 7.3139C47.6225 6.60463 47.3286 5.93546 46.895 5.35904C46.4614 4.78263 45.9 4.31472 45.2549 3.99212C44.6098 3.66953 43.8986 3.50106 43.1773 3.49997H41.0668C40.453 2.43373 39.5691 1.54808 38.504 0.932258C37.439 0.316434 36.2304 -0.0078125 35.0001 -0.0078125C33.7699 -0.0078125 32.5613 0.316434 31.4963 0.932258C30.4312 1.54808 29.5473 2.43373 28.9335 3.49997H26.8218C26.1013 3.50144 25.391 3.66996 24.7466 3.99231C24.1022 4.31466 23.5414 4.78205 23.1081 5.35775C22.6749 5.93345 22.381 6.60178 22.2497 7.31022C22.1183 8.01865 22.1531 8.74789 22.3512 9.44064L25.3845 20.1576C24.8644 20.3922 24.4099 20.7511 24.061 21.2025C23.7122 21.654 23.4796 22.1843 23.3839 22.7468C23.2881 23.3093 23.3321 23.8867 23.5119 24.4282C23.6917 24.9697 24.0018 25.4587 24.415 25.8521C18.35 30.4297 14.0461 36.9558 12.2268 44.3333H3.50015C2.82322 44.3303 2.16007 44.5245 1.59172 44.8923C1.02337 45.26 0.574418 45.7853 0.299718 46.404C0.0250181 47.0227 -0.0635394 47.708 0.0448642 48.3762C0.153268 49.0444 0.453939 49.6665 0.910146 50.1666C0.324919 50.8028 0.000103373 51.6356 0.000103373 52.5C0.000103373 53.3644 0.324919 54.1972 0.910146 54.8333C0.566209 55.2087 0.309188 55.6552 0.157356 56.1412C0.00552451 56.6271 -0.0373906 57.1406 0.031662 57.645C0.100714 58.1494 0.280039 58.6324 0.556888 59.0597C0.833736 59.487 1.20131 59.848 1.63348 60.1171C1.32735 60.6373 1.16592 61.2298 1.16592 61.8333C1.16592 62.4368 1.32735 63.0294 1.63348 63.5495C0.991321 63.953 0.497952 64.5546 0.22792 65.2633C-0.0421126 65.9721 -0.0741346 66.7494 0.136692 67.478C0.347518 68.2065 0.789738 68.8466 1.39653 69.3016C2.00332 69.7566 2.74172 70.0017 3.50015 70H22.1668C22.8109 69.9978 23.4417 69.8175 23.9897 69.479C24.5376 69.1405 24.9812 68.657 25.2713 68.082C28.3591 69.3465 31.6635 69.9979 35.0001 70H67.6668C68.2857 70 68.8792 69.7542 69.3167 69.3166C69.7543 68.879 70.0002 68.2855 70.0002 67.6666V46.6666C70.0002 46.0478 69.7543 45.4543 69.3167 45.0167C68.8792 44.5791 68.2857 44.3333 67.6668 44.3333ZM67.6668 50.001C66.8645 49.7923 66.1325 49.3733 65.5463 48.7871C64.9602 48.201 64.5411 47.4689 64.3325 46.6666H67.6668V50.001ZM26.8335 24.5C26.5241 24.5 26.2273 24.3771 26.0085 24.1583C25.7897 23.9395 25.6668 23.6427 25.6668 23.3333C25.6668 23.0239 25.7897 22.7271 26.0085 22.5084C26.2273 22.2896 26.5241 22.1666 26.8335 22.1666H43.1668C43.4762 22.1666 43.773 22.2896 43.9918 22.5084C44.2106 22.7271 44.3335 23.0239 44.3335 23.3333C44.3335 23.6427 44.2106 23.9395 43.9918 24.1583C43.773 24.3771 43.4762 24.5 43.1668 24.5H26.8335ZM24.9738 6.75964C25.1879 6.47174 25.4665 6.23799 25.7872 6.07712C26.1079 5.91626 26.4619 5.83276 26.8207 5.83331H28.104C28.037 6.21864 28.0023 6.60888 28.0001 6.99997V11.6666C28.0001 11.9761 28.1231 12.2728 28.3419 12.4916C28.5606 12.7104 28.8574 12.8333 29.1668 12.8333C29.4762 12.8333 29.773 12.7104 29.9918 12.4916C30.2106 12.2728 30.3335 11.9761 30.3335 11.6666V6.99997C30.3315 6.3576 30.4634 5.72186 30.7208 5.13331C31.0837 4.30045 31.6818 3.59162 32.4418 3.0938C33.2018 2.59597 34.0905 2.33079 34.999 2.33079C35.9075 2.33079 36.7962 2.59597 37.5562 3.0938C38.3161 3.59162 38.9142 4.30045 39.2771 5.13331C39.5354 5.72168 39.6681 6.35743 39.6668 6.99997V11.6666C39.6668 11.9761 39.7897 12.2728 40.0085 12.4916C40.2273 12.7104 40.5241 12.8333 40.8335 12.8333C41.1429 12.8333 41.4396 12.7104 41.6584 12.4916C41.8772 12.2728 42.0001 11.9761 42.0001 11.6666V6.99997C41.9976 6.60884 41.9625 6.2186 41.8951 5.83331H43.1785C43.538 5.83608 43.8919 5.92188 44.2128 6.08402C44.5337 6.24615 44.8127 6.48022 45.0282 6.76798C45.2437 7.05574 45.3897 7.38939 45.455 7.74291C45.5203 8.09642 45.503 8.46024 45.4045 8.80597L42.2848 19.8333H27.7155L24.5946 8.80014C24.494 8.45405 24.4759 8.08919 24.5418 7.73483C24.6076 7.38048 24.7556 7.04648 24.9738 6.75964ZM3.50015 46.6666H22.1668C22.4762 46.6666 22.773 46.7896 22.9918 47.0084C23.2106 47.2271 23.3335 47.5239 23.3335 47.8333C23.3335 48.1427 23.2106 48.4395 22.9918 48.6583C22.773 48.8771 22.4762 49 22.1668 49H3.50015C3.19073 49 2.89398 48.8771 2.67519 48.6583C2.4564 48.4395 2.33348 48.1427 2.33348 47.8333C2.33348 47.5239 2.4564 47.2271 2.67519 47.0084C2.89398 46.7896 3.19073 46.6666 3.50015 46.6666ZM3.50015 61.8333C3.50015 61.5239 3.62306 61.2271 3.84186 61.0084C4.06065 60.7896 4.35739 60.6666 4.66681 60.6666H23.3335C23.6429 60.6666 23.9396 60.7896 24.1584 61.0084C24.3772 61.2271 24.5001 61.5239 24.5001 61.8333C24.5001 62.1427 24.3772 62.4395 24.1584 62.6583C23.9396 62.8771 23.6429 63 23.3335 63H4.66681C4.35739 63 4.06065 62.8771 3.84186 62.6583C3.62306 62.4395 3.50015 62.1427 3.50015 61.8333ZM3.50015 58.3333C3.19073 58.3333 2.89398 58.2104 2.67519 57.9916C2.4564 57.7728 2.33348 57.4761 2.33348 57.1666C2.33348 56.8572 2.4564 56.5605 2.67519 56.3417C2.89398 56.1229 3.19073 56 3.50015 56H22.1668C22.4762 56 22.773 56.1229 22.9918 56.3417C23.2106 56.5605 23.3335 56.8572 23.3335 57.1666C23.3335 57.4761 23.2106 57.7728 22.9918 57.9916C22.773 58.2104 22.4762 58.3333 22.1668 58.3333H3.50015ZM2.33348 52.5C2.33348 52.1906 2.4564 51.8938 2.67519 51.675C2.89398 51.4562 3.19073 51.3333 3.50015 51.3333H22.1668C22.4762 51.3333 22.773 51.4562 22.9918 51.675C23.2106 51.8938 23.3335 52.1906 23.3335 52.5C23.3335 52.8094 23.2106 53.1061 22.9918 53.3249C22.773 53.5437 22.4762 53.6666 22.1668 53.6666H3.50015C3.19073 53.6666 2.89398 53.5437 2.67519 53.3249C2.4564 53.1061 2.33348 52.8094 2.33348 52.5ZM22.1668 67.6666H3.50015C3.19073 67.6666 2.89398 67.5437 2.67519 67.3249C2.4564 67.1061 2.33348 66.8094 2.33348 66.5C2.33348 66.1906 2.4564 65.8938 2.67519 65.675C2.89398 65.4562 3.19073 65.3333 3.50015 65.3333H22.1668C22.4762 65.3333 22.773 65.4562 22.9918 65.675C23.2106 65.8938 23.3335 66.1906 23.3335 66.5C23.3335 66.8094 23.2106 67.1061 22.9918 67.3249C22.773 67.5437 22.4762 67.6666 22.1668 67.6666ZM25.5501 65.6553C25.4732 65.3504 25.3554 65.0573 25.2001 64.7838C25.7004 64.4709 26.1129 64.036 26.3988 63.5198C26.6847 63.0037 26.8348 62.4234 26.8348 61.8333C26.8348 61.2433 26.6847 60.6629 26.3988 60.1468C26.1129 59.6307 25.7004 59.1957 25.2001 58.8828C25.5704 58.2496 25.7271 57.514 25.6473 56.7848C25.5675 56.0557 25.2553 55.3715 24.7568 54.8333C25.342 54.1972 25.6669 53.3644 25.6669 52.5C25.6669 51.6356 25.342 50.8028 24.7568 50.1666C25.213 49.6665 25.5137 49.0444 25.6221 48.3762C25.7305 47.708 25.6419 47.0227 25.3672 46.404C25.0925 45.7853 24.6436 45.26 24.0752 44.8923C23.5069 44.5245 22.8437 44.3303 22.1668 44.3333H14.615C16.3393 37.464 21.5228 30.1851 27.166 26.8333H42.8331C49.9941 31.0776 56.0001 41.1483 56.0001 49C56.0001 59.2923 46.5793 67.6666 35.0001 67.6666C31.7443 67.6633 28.5252 66.9781 25.5501 65.6553ZM58.3335 49C58.3264 48.2197 58.273 47.4406 58.1736 46.6666H61.9385C62.1829 48.0969 62.8652 49.4161 63.8913 50.4422C64.9173 51.4682 66.2365 52.1505 67.6668 52.395V61.9383C66.2365 62.1828 64.9173 62.8651 63.8913 63.8911C62.8652 64.9172 62.1829 66.2363 61.9385 67.6666H45.6413C53.1663 64.1771 58.3335 57.1281 58.3335 49ZM64.3325 67.6666C64.5411 66.8644 64.9602 66.1323 65.5463 65.5462C66.1325 64.96 66.8645 64.541 67.6668 64.3323V67.6666H64.3325Z" fill="white"/>
<path d="M63 60.6665C63.6922 60.6665 64.3689 60.4612 64.9445 60.0766C65.5201 59.6921 65.9687 59.1454 66.2336 58.5059C66.4985 57.8664 66.5678 57.1626 66.4327 56.4837C66.2977 55.8048 65.9644 55.1811 65.4749 54.6916C64.9854 54.2021 64.3617 53.8688 63.6828 53.7338C63.0039 53.5987 62.3002 53.668 61.6606 53.9329C61.0211 54.1978 60.4744 54.6464 60.0899 55.222C59.7053 55.7976 59.5 56.4743 59.5 57.1665C59.5 58.0948 59.8688 58.985 60.5251 59.6414C61.1815 60.2978 62.0717 60.6665 63 60.6665ZM63 55.9998C63.2307 55.9998 63.4563 56.0683 63.6482 56.1965C63.84 56.3247 63.9896 56.5069 64.0779 56.72C64.1662 56.9332 64.1893 57.1678 64.1442 57.3941C64.0992 57.6204 63.9881 57.8283 63.825 57.9915C63.6618 58.1546 63.4539 58.2657 63.2276 58.3108C63.0013 58.3558 62.7667 58.3327 62.5535 58.2444C62.3404 58.1561 62.1581 58.0065 62.03 57.8147C61.9018 57.6228 61.8333 57.3973 61.8333 57.1665C61.8333 56.8571 61.9562 56.5603 62.175 56.3415C62.3938 56.1228 62.6906 55.9998 63 55.9998Z" fill="white"/>
<path d="M37.1827 54.9884C37.0539 54.9876 36.9267 54.9603 36.8088 54.9081C36.691 54.8559 36.585 54.7799 36.4976 54.6848L31.2723 49.0334C31.0979 48.8563 31 48.6171 31 48.3678C31 48.1186 31.0979 47.8794 31.2723 47.7023C31.4422 47.5426 31.6668 47.4548 31.8993 47.4571H34.4888C34.925 47.4493 35.3503 47.3182 35.7159 47.0786C36.0814 46.8391 36.3725 46.5008 36.5557 46.1026H32.8283C32.5983 46.0768 32.3859 45.9666 32.2316 45.7932C32.0774 45.6198 31.9921 45.3953 31.9921 45.1627C31.9921 44.93 32.0774 44.7055 32.2316 44.5321C32.3859 44.3587 32.5983 44.2485 32.8283 44.2227H36.6137C36.4289 43.8267 36.1371 43.4908 35.7717 43.2534C35.4062 43.016 34.9818 42.8866 34.5468 42.8799H31.9574C31.7274 42.8541 31.515 42.744 31.3607 42.5705C31.2065 42.3971 31.1212 42.1726 31.1212 41.94C31.1212 41.7073 31.2065 41.4828 31.3607 41.3094C31.515 41.136 31.7274 41.0258 31.9574 41H40.0856C40.3156 41.0258 40.528 41.136 40.6823 41.3094C40.8365 41.4828 40.9218 41.7073 40.9218 41.94C40.9218 42.1726 40.8365 42.3971 40.6823 42.5705C40.528 42.744 40.3156 42.8541 40.0856 42.8799H38.0071C38.2765 43.2889 38.4693 43.744 38.5761 44.2227H40.1089C40.3388 44.2485 40.5512 44.3587 40.7055 44.5321C40.8598 44.7055 40.9451 44.93 40.9451 45.1627C40.9451 45.3953 40.8598 45.6198 40.7055 45.7932C40.5512 45.9666 40.3388 46.0768 40.1089 46.1026H38.5877C38.3756 47.021 37.8609 47.8402 37.1274 48.4274C36.3938 49.0145 35.4844 49.3351 34.5468 49.337H34.1056L37.9258 53.4704C38.0996 53.6455 38.1971 53.8828 38.1971 54.1302C38.1971 54.3775 38.0996 54.6148 37.9258 54.7899C37.8225 54.8731 37.703 54.9337 37.5751 54.9679C37.4471 55.0021 37.3135 55.0091 37.1827 54.9884Z" fill="white"/>
</g>
<defs>
<clipPath id="clip0_1245_13">
<rect width="70" height="70" fill="white"/>
</clipPath>
</defs>
</svg>
