<svg width="70" height="70" viewBox="0 0 70 70" fill="none" xmlns="http://www.w3.org/2000/svg">
<path d="M35 57.9688C32.4041 57.9688 29.8665 57.199 27.7081 55.7568C25.5498 54.3146 23.8675 52.2648 22.8741 49.8665C21.8807 47.4682 21.6208 44.8292 22.1272 42.2832C22.6336 39.7372 23.8837 37.3985 25.7192 35.563C27.5548 33.7274 29.8934 32.4774 32.4394 31.9709C34.9854 31.4645 37.6244 31.7244 40.0227 32.7178C42.421 33.7112 44.4708 35.3935 45.913 37.5519C47.3552 39.7103 48.125 42.2479 48.125 44.8438C48.1212 48.3236 46.7372 51.6598 44.2766 54.1204C41.816 56.581 38.4798 57.965 35 57.9688ZM35 33.9063C32.8368 33.9063 30.7221 34.5477 28.9235 35.7496C27.1248 36.9514 25.7229 38.6596 24.8951 40.6582C24.0672 42.6567 23.8506 44.8559 24.2727 46.9776C24.6947 49.0992 25.7364 51.0481 27.266 52.5777C28.7957 54.1074 30.7445 55.1491 32.8662 55.5711C34.9879 55.9931 37.187 55.7765 39.1856 54.9487C41.1842 54.1209 42.8924 52.719 44.0942 50.9203C45.296 49.1216 45.9375 47.007 45.9375 44.8438C45.9343 41.9439 44.781 39.1638 42.7305 37.1133C40.68 35.0628 37.8998 33.9094 35 33.9063Z" fill="white"/>
<path d="M35 64.5314C22.5706 64.5314 14.2188 57.0108 14.2188 45.8173C14.3161 41.7925 15.4893 37.8672 17.6163 34.449C19.7434 31.0308 22.7467 28.2444 26.3145 26.3792C26.5695 26.2518 26.8642 26.2289 27.1357 26.3155C27.4073 26.4021 27.6344 26.5913 27.7685 26.8428C27.9027 27.0943 27.9334 27.3882 27.854 27.662C27.7747 27.9358 27.5916 28.1678 27.3438 28.3086C24.1239 29.9852 21.4115 32.4931 19.4882 35.572C17.5649 38.6508 16.5008 42.1883 16.4062 45.8173C16.4062 55.8568 23.7048 62.3439 35 62.3439C46.2952 62.3439 53.5938 55.8568 53.5938 45.8173C53.4992 42.1883 52.4351 38.6508 50.5118 35.572C48.5885 32.4931 45.8761 29.9852 42.6562 28.3086C42.4004 28.1718 42.2094 27.939 42.1252 27.6614C42.041 27.3837 42.0705 27.084 42.2073 26.8282C42.344 26.5723 42.5768 26.3813 42.8545 26.2971C43.1321 26.2129 43.4318 26.2424 43.6877 26.3792C47.255 28.2447 50.258 31.0313 52.3846 34.4494C54.5113 37.8676 55.6841 41.7928 55.7812 45.8173C55.7812 57.0108 47.4294 64.5314 35 64.5314Z" fill="white"/>
<path d="M45.3906 28.4375H24.6094C23.5941 28.4375 22.6204 28.0342 21.9025 27.3163C21.1846 26.5984 20.7813 25.6247 20.7813 24.6094C20.7812 23.5941 21.1846 22.6204 21.9025 21.9025C22.6204 21.1846 23.5941 20.7812 24.6094 20.7812H45.3906C46.4059 20.7812 47.3796 21.1846 48.0975 21.9025C48.8154 22.6204 49.2188 23.5941 49.2188 24.6094C49.2188 25.6247 48.8154 26.5984 48.0975 27.3163C47.3796 28.0342 46.4059 28.4375 45.3906 28.4375ZM24.6094 22.9688C24.1743 22.9688 23.757 23.1416 23.4493 23.4493C23.1416 23.757 22.9688 24.1743 22.9688 24.6094C22.9688 25.0445 23.1416 25.4618 23.4493 25.7695C23.757 26.0771 24.1743 26.25 24.6094 26.25H45.3906C45.8257 26.25 46.243 26.0771 46.5507 25.7695C46.8584 25.4618 47.0312 25.0445 47.0312 24.6094C47.0312 24.1743 46.8584 23.757 46.5507 23.4493C46.243 23.1416 45.8257 22.9688 45.3906 22.9688H24.6094Z" fill="white"/>
<path d="M38.2809 22.9688H31.7184C31.4806 22.9689 31.2493 22.8916 31.0595 22.7485C30.8696 22.6054 30.7316 22.4043 30.6662 22.1758L26.2912 6.86328C26.2446 6.70044 26.2365 6.52901 26.2675 6.3625C26.2984 6.19598 26.3677 6.03894 26.4697 5.90373C26.5717 5.76853 26.7037 5.65887 26.8553 5.58338C27.0069 5.5079 27.174 5.46866 27.3434 5.46875H42.6559C42.8253 5.46866 42.9923 5.5079 43.1439 5.58338C43.2956 5.65887 43.4276 5.76853 43.5296 5.90373C43.6316 6.03894 43.7008 6.19598 43.7318 6.3625C43.7628 6.52901 43.7546 6.70044 43.7081 6.86328L39.3331 22.1758C39.2677 22.4043 39.1296 22.6054 38.9398 22.7485C38.7499 22.8916 38.5186 22.9689 38.2809 22.9688ZM32.5431 20.7812H37.4562L41.2056 7.65625H28.7937L32.5431 20.7812Z" fill="white"/>
<path d="M32.8124 22.9688H26.2499C26.0312 22.9689 25.8176 22.9036 25.6365 22.7811C25.4554 22.6587 25.3151 22.4848 25.2338 22.2819L20.8588 11.3444C20.7922 11.1783 20.7674 10.9985 20.7865 10.8207C20.8056 10.6428 20.8681 10.4724 20.9684 10.3243C21.0686 10.1761 21.2037 10.0549 21.3618 9.97112C21.5198 9.88735 21.696 9.84361 21.8749 9.84375H28.5905C28.8806 9.84375 29.1588 9.95898 29.3639 10.1641C29.569 10.3692 29.6842 10.6474 29.6842 10.9375C29.6842 11.2276 29.569 11.5058 29.3639 11.7109C29.1588 11.916 28.8806 12.0313 28.5905 12.0313H23.4903L26.9903 20.7812H32.8124C33.1024 20.7812 33.3806 20.8965 33.5858 21.1016C33.7909 21.3067 33.9061 21.5849 33.9061 21.875C33.9061 22.1651 33.7909 22.4433 33.5858 22.6484C33.3806 22.8535 33.1024 22.9688 32.8124 22.9688Z" fill="white"/>
<path d="M43.75 22.9688H37.1875C36.8974 22.9688 36.6192 22.8535 36.4141 22.6484C36.209 22.4433 36.0938 22.1651 36.0938 21.875C36.0938 21.5849 36.209 21.3067 36.4141 21.1016C36.6192 20.8965 36.8974 20.7812 37.1875 20.7812H43.0095L46.5095 12.0313H41.4094C41.1193 12.0313 40.8411 11.916 40.636 11.7109C40.4309 11.5058 40.3156 11.2276 40.3156 10.9375C40.3156 10.6474 40.4309 10.3692 40.636 10.1641C40.8411 9.95898 41.1193 9.84375 41.4094 9.84375H48.125C48.3039 9.84361 48.48 9.88735 48.6381 9.97112C48.7961 10.0549 48.9312 10.1761 49.0315 10.3243C49.1318 10.4724 49.1942 10.6428 49.2133 10.8207C49.2324 10.9985 49.2076 11.1783 49.1411 11.3444L44.7661 22.2819C44.6848 22.4848 44.5445 22.6587 44.3634 22.7811C44.1823 22.9036 43.9686 22.9689 43.75 22.9688Z" fill="white"/>
<path d="M8.75 33.9063C7.88471 33.9063 7.03885 33.6497 6.31938 33.1689C5.59992 32.6882 5.03916 32.0049 4.70803 31.2055C4.3769 30.4061 4.29026 29.5264 4.45907 28.6777C4.62788 27.8291 5.04455 27.0495 5.65641 26.4377C6.26826 25.8258 7.04781 25.4091 7.89648 25.2403C8.74515 25.0715 9.62482 25.1581 10.4242 25.4893C11.2237 25.8204 11.9069 26.3812 12.3877 27.1006C12.8684 27.8201 13.125 28.666 13.125 29.5313C13.125 30.6916 12.6641 31.8044 11.8436 32.6248C11.0231 33.4453 9.91032 33.9063 8.75 33.9063ZM8.75 27.3438C8.31736 27.3438 7.89442 27.472 7.53469 27.7124C7.17496 27.9528 6.89458 28.2944 6.72902 28.6941C6.56345 29.0938 6.52013 29.5337 6.60453 29.958C6.68894 30.3823 6.89728 30.7721 7.20321 31.078C7.50913 31.384 7.89891 31.5923 8.32324 31.6767C8.74758 31.7611 9.18741 31.7178 9.58712 31.5522C9.98684 31.3867 10.3285 31.1063 10.5688 30.7466C10.8092 30.3868 10.9375 29.9639 10.9375 29.5313C10.9375 28.9511 10.707 28.3947 10.2968 27.9845C9.88656 27.5742 9.33016 27.3438 8.75 27.3438Z" fill="white"/>
<path d="M8.75 49.2188C7.88471 49.2188 7.03885 48.9622 6.31938 48.4814C5.59992 48.0007 5.03916 47.3174 4.70803 46.518C4.3769 45.7186 4.29026 44.8389 4.45907 43.9902C4.62788 43.1416 5.04455 42.362 5.65641 41.7502C6.26826 41.1383 7.04781 40.7216 7.89648 40.5528C8.74515 40.384 9.62482 40.4706 10.4242 40.8018C11.2237 41.1329 11.9069 41.6937 12.3877 42.4131C12.8684 43.1326 13.125 43.9785 13.125 44.8438C13.125 46.0041 12.6641 47.1169 11.8436 47.9373C11.0231 48.7578 9.91032 49.2188 8.75 49.2188ZM8.75 42.6563C8.31736 42.6563 7.89442 42.7845 7.53469 43.0249C7.17496 43.2653 6.89458 43.6069 6.72902 44.0066C6.56345 44.4063 6.52013 44.8462 6.60453 45.2705C6.68894 45.6948 6.89728 46.0846 7.20321 46.3906C7.50913 46.6965 7.89891 46.9048 8.32324 46.9892C8.74758 47.0736 9.18741 47.0303 9.58712 46.8647C9.98684 46.6992 10.3285 46.4188 10.5688 46.0591C10.8092 45.6993 10.9375 45.2764 10.9375 44.8438C10.9375 44.2636 10.707 43.7072 10.2968 43.297C9.88656 42.8867 9.33016 42.6563 8.75 42.6563Z" fill="white"/>
<path d="M8.75 64.5313C7.88471 64.5313 7.03885 64.2747 6.31938 63.7939C5.59992 63.3132 5.03916 62.6299 4.70803 61.8305C4.3769 61.0311 4.29026 60.1514 4.45907 59.3027C4.62788 58.4541 5.04455 57.6745 5.65641 57.0627C6.26826 56.4508 7.04781 56.0341 7.89648 55.8653C8.74515 55.6965 9.62482 55.7831 10.4242 56.1143C11.2237 56.4454 11.9069 57.0062 12.3877 57.7256C12.8684 58.4451 13.125 59.291 13.125 60.1563C13.125 61.3166 12.6641 62.4294 11.8436 63.2498C11.0231 64.0703 9.91032 64.5313 8.75 64.5313ZM8.75 57.9688C8.31736 57.9688 7.89442 58.097 7.53469 58.3374C7.17496 58.5778 6.89458 58.9194 6.72902 59.3191C6.56345 59.7188 6.52013 60.1587 6.60453 60.583C6.68894 61.0073 6.89728 61.3971 7.20321 61.7031C7.50913 62.009 7.89891 62.2173 8.32324 62.3017C8.74758 62.3861 9.18741 62.3428 9.58712 62.1772C9.98684 62.0117 10.3285 61.7313 10.5688 61.3716C10.8092 61.0118 10.9375 60.5889 10.9375 60.1563C10.9375 59.5761 10.707 59.0197 10.2968 58.6095C9.88656 58.1992 9.33016 57.9688 8.75 57.9688Z" fill="white"/>
<path d="M22.9688 45.9375H12.0312C11.7412 45.9375 11.463 45.8223 11.2579 45.6171C11.0527 45.412 10.9375 45.1338 10.9375 44.8438C10.9375 44.5537 11.0527 44.2755 11.2579 44.0704C11.463 43.8652 11.7412 43.75 12.0312 43.75H22.9688C23.2588 43.75 23.537 43.8652 23.7421 44.0704C23.9473 44.2755 24.0625 44.5537 24.0625 44.8438C24.0625 45.1338 23.9473 45.412 23.7421 45.6171C23.537 45.8223 23.2588 45.9375 22.9688 45.9375Z" fill="white"/>
<path d="M24.0625 39.375C23.8768 39.3752 23.6941 39.3281 23.5317 39.2382C23.3692 39.1482 23.2323 39.0184 23.1339 38.8609L17.9867 30.625H12.0312C11.7412 30.625 11.463 30.5098 11.2579 30.3046C11.0527 30.0995 10.9375 29.8213 10.9375 29.5312C10.9375 29.2412 11.0527 28.963 11.2579 28.7579C11.463 28.5527 11.7412 28.4375 12.0312 28.4375H18.5938C18.7793 28.4375 18.9617 28.4847 19.124 28.5746C19.2862 28.6645 19.4229 28.7943 19.5212 28.9516L24.99 37.7016C25.0935 37.8671 25.1508 38.0574 25.1559 38.2525C25.161 38.4477 25.1138 38.6407 25.0191 38.8115C24.9245 38.9822 24.7859 39.1245 24.6176 39.2236C24.4494 39.3227 24.2577 39.375 24.0625 39.375Z" fill="white"/>
<path d="M18.5938 61.2499H12.0312C11.7412 61.2499 11.463 61.1347 11.2579 60.9296C11.0527 60.7244 10.9375 60.4462 10.9375 60.1562C10.9375 59.8661 11.0527 59.5879 11.2579 59.3828C11.463 59.1776 11.7412 59.0624 12.0312 59.0624H17.9867L23.135 50.8265C23.2887 50.5799 23.5341 50.4045 23.8172 50.3389C24.1003 50.2732 24.3978 50.3227 24.6444 50.4765C24.8909 50.6302 25.0663 50.8756 25.132 51.1587C25.1976 51.4417 25.1481 51.7393 24.9944 51.9858L19.5256 60.7358C19.4269 60.8938 19.2895 61.0239 19.1264 61.1139C18.9633 61.2038 18.78 61.2507 18.5938 61.2499Z" fill="white"/>
<path d="M61.25 33.9063C60.3847 33.9063 59.5388 33.6497 58.8194 33.1689C58.0999 32.6882 57.5392 32.0049 57.208 31.2055C56.8769 30.4061 56.7903 29.5264 56.9591 28.6777C57.1279 27.8291 57.5446 27.0495 58.1564 26.4377C58.7683 25.8258 59.5478 25.4091 60.3965 25.2403C61.2451 25.0715 62.1248 25.1581 62.9242 25.4893C63.7237 25.8204 64.407 26.3812 64.8877 27.1006C65.3684 27.8201 65.625 28.666 65.625 29.5313C65.625 30.6916 65.1641 31.8044 64.3436 32.6248C63.5231 33.4453 62.4103 33.9063 61.25 33.9063ZM61.25 27.3438C60.8174 27.3438 60.3944 27.472 60.0347 27.7124C59.675 27.9528 59.3946 28.2944 59.229 28.6941C59.0634 29.0938 59.0201 29.5337 59.1045 29.958C59.1889 30.3823 59.3973 30.7721 59.7032 31.078C60.0091 31.384 60.3989 31.5923 60.8232 31.6767C61.2476 31.7611 61.6874 31.7178 62.0871 31.5522C62.4868 31.3867 62.8285 31.1063 63.0688 30.7466C63.3092 30.3868 63.4375 29.9639 63.4375 29.5313C63.4375 28.9511 63.207 28.3947 62.7968 27.9845C62.3866 27.5742 61.8302 27.3438 61.25 27.3438Z" fill="white"/>
<path d="M61.25 49.2188C60.3847 49.2188 59.5388 48.9622 58.8194 48.4814C58.0999 48.0007 57.5392 47.3174 57.208 46.518C56.8769 45.7186 56.7903 44.8389 56.9591 43.9902C57.1279 43.1416 57.5446 42.362 58.1564 41.7502C58.7683 41.1383 59.5478 40.7216 60.3965 40.5528C61.2451 40.384 62.1248 40.4706 62.9242 40.8018C63.7237 41.1329 64.407 41.6937 64.8877 42.4131C65.3684 43.1326 65.625 43.9785 65.625 44.8438C65.625 46.0041 65.1641 47.1169 64.3436 47.9373C63.5231 48.7578 62.4103 49.2188 61.25 49.2188ZM61.25 42.6563C60.8174 42.6563 60.3944 42.7845 60.0347 43.0249C59.675 43.2653 59.3946 43.6069 59.229 44.0066C59.0634 44.4063 59.0201 44.8462 59.1045 45.2705C59.1889 45.6948 59.3973 46.0846 59.7032 46.3906C60.0091 46.6965 60.3989 46.9048 60.8232 46.9892C61.2476 47.0736 61.6874 47.0303 62.0871 46.8647C62.4868 46.6992 62.8285 46.4188 63.0688 46.0591C63.3092 45.6993 63.4375 45.2764 63.4375 44.8438C63.4375 44.2636 63.207 43.7072 62.7968 43.297C62.3866 42.8867 61.8302 42.6563 61.25 42.6563Z" fill="white"/>
<path d="M61.25 64.5313C60.3847 64.5313 59.5388 64.2747 58.8194 63.7939C58.0999 63.3132 57.5392 62.6299 57.208 61.8305C56.8769 61.0311 56.7903 60.1514 56.9591 59.3027C57.1279 58.4541 57.5446 57.6745 58.1564 57.0627C58.7683 56.4508 59.5478 56.0341 60.3965 55.8653C61.2451 55.6965 62.1248 55.7831 62.9242 56.1143C63.7237 56.4454 64.407 57.0062 64.8877 57.7256C65.3684 58.4451 65.625 59.291 65.625 60.1563C65.625 61.3166 65.1641 62.4294 64.3436 63.2498C63.5231 64.0703 62.4103 64.5313 61.25 64.5313ZM61.25 57.9688C60.8174 57.9688 60.3944 58.097 60.0347 58.3374C59.675 58.5778 59.3946 58.9194 59.229 59.3191C59.0634 59.7188 59.0201 60.1587 59.1045 60.583C59.1889 61.0073 59.3973 61.3971 59.7032 61.7031C60.0091 62.009 60.3989 62.2173 60.8232 62.3017C61.2476 62.3861 61.6874 62.3428 62.0871 62.1772C62.4868 62.0117 62.8285 61.7313 63.0688 61.3716C63.3092 61.0118 63.4375 60.5889 63.4375 60.1563C63.4375 59.5761 63.207 59.0197 62.7968 58.6095C62.3866 58.1992 61.8302 57.9688 61.25 57.9688Z" fill="white"/>
<path d="M57.9688 45.9375H47.0312C46.7412 45.9375 46.463 45.8223 46.2579 45.6171C46.0527 45.412 45.9375 45.1338 45.9375 44.8438C45.9375 44.5537 46.0527 44.2755 46.2579 44.0704C46.463 43.8652 46.7412 43.75 47.0312 43.75H57.9688C58.2588 43.75 58.537 43.8652 58.7421 44.0704C58.9473 44.2755 59.0625 44.5537 59.0625 44.8438C59.0625 45.1338 58.9473 45.412 58.7421 45.6171C58.537 45.8223 58.2588 45.9375 57.9688 45.9375Z" fill="white"/>
<path d="M45.9374 39.375C45.7422 39.3748 45.5507 39.3224 45.3826 39.2232C45.2146 39.1241 45.0761 38.9817 44.9816 38.811C44.8871 38.6403 44.8399 38.4473 44.8451 38.2523C44.8503 38.0572 44.9076 37.867 45.011 37.7016L50.4797 28.9516C50.578 28.7944 50.7145 28.6648 50.8765 28.5749C51.0386 28.485 51.2208 28.4377 51.4061 28.4375H57.9686C58.2587 28.4375 58.5369 28.5527 58.742 28.7579C58.9472 28.963 59.0624 29.2412 59.0624 29.5312C59.0624 29.8213 58.9472 30.0995 58.742 30.3046C58.5369 30.5098 58.2587 30.625 57.9686 30.625H52.0132L46.8649 38.8609C46.7666 39.0182 46.6299 39.148 46.4676 39.2379C46.3054 39.3278 46.1229 39.375 45.9374 39.375Z" fill="white"/>
<path d="M57.9684 61.2499H51.4059C51.2204 61.2499 51.038 61.2027 50.8757 61.1128C50.7135 61.0229 50.5767 60.8932 50.4784 60.7358L45.0097 51.9858C44.8559 51.7393 44.8064 51.4417 44.8721 51.1587C44.9377 50.8756 45.1131 50.6302 45.3597 50.4765C45.6062 50.3227 45.9038 50.2732 46.1869 50.3389C46.4699 50.4045 46.7153 50.5799 46.8691 50.8265L52.013 59.0624H57.9684C58.2585 59.0624 58.5367 59.1776 58.7418 59.3828C58.9469 59.5879 59.0622 59.8661 59.0622 60.1562C59.0622 60.4462 58.9469 60.7244 58.7418 60.9296C58.5367 61.1347 58.2585 61.2499 57.9684 61.2499Z" fill="white"/>
<path d="M36.1827 51.9884C36.0539 51.9876 35.9267 51.9603 35.8088 51.9081C35.691 51.8559 35.585 51.7799 35.4976 51.6848L30.2723 46.0334C30.0979 45.8563 30 45.6171 30 45.3678C30 45.1186 30.0979 44.8794 30.2723 44.7023C30.4422 44.5426 30.6668 44.4548 30.8993 44.4571H33.4888C33.925 44.4493 34.3503 44.3182 34.7159 44.0786C35.0814 43.8391 35.3725 43.5008 35.5557 43.1026H31.8283C31.5983 43.0768 31.3859 42.9666 31.2316 42.7932C31.0774 42.6198 30.9921 42.3953 30.9921 42.1627C30.9921 41.93 31.0774 41.7055 31.2316 41.5321C31.3859 41.3587 31.5983 41.2485 31.8283 41.2227H35.6137C35.4289 40.8267 35.1371 40.4908 34.7717 40.2534C34.4062 40.016 33.9818 39.8866 33.5468 39.8799H30.9574C30.7274 39.8541 30.515 39.744 30.3607 39.5705C30.2065 39.3971 30.1212 39.1726 30.1212 38.94C30.1212 38.7073 30.2065 38.4828 30.3607 38.3094C30.515 38.136 30.7274 38.0258 30.9574 38H39.0856C39.3156 38.0258 39.528 38.136 39.6823 38.3094C39.8365 38.4828 39.9218 38.7073 39.9218 38.94C39.9218 39.1726 39.8365 39.3971 39.6823 39.5705C39.528 39.744 39.3156 39.8541 39.0856 39.8799H37.0071C37.2765 40.2889 37.4693 40.744 37.5761 41.2227H39.1089C39.3388 41.2485 39.5512 41.3587 39.7055 41.5321C39.8598 41.7055 39.9451 41.93 39.9451 42.1627C39.9451 42.3953 39.8598 42.6198 39.7055 42.7932C39.5512 42.9666 39.3388 43.0768 39.1089 43.1026H37.5877C37.3756 44.021 36.8609 44.8402 36.1274 45.4274C35.3938 46.0145 34.4844 46.3351 33.5468 46.337H33.1056L36.9258 50.4704C37.0996 50.6455 37.1971 50.8828 37.1971 51.1302C37.1971 51.3775 37.0996 51.6148 36.9258 51.7899C36.8225 51.8731 36.703 51.9337 36.5751 51.9679C36.4471 52.0021 36.3135 52.0091 36.1827 51.9884Z" fill="white"/>
</svg>
