<svg width="70" height="70" viewBox="0 0 70 70" fill="none" xmlns="http://www.w3.org/2000/svg">
<path d="M24.1456 46.2123H21.1037V48.4408H24.1456V46.2123ZM20.1466 44.2982H25.104C25.6318 44.2982 26.0611 44.7289 26.0611 45.2553V49.3978C26.0611 49.9256 25.6304 50.3549 25.104 50.3549H20.1466C19.6189 50.3549 19.1896 49.9242 19.1896 49.3978V45.2553C19.1882 44.7289 19.6189 44.2982 20.1466 44.2982ZM6.43783 55.9439H7.9185L9.45658 36.9578C8.64311 36.5627 8.10033 35.7287 8.10033 34.7908C8.10033 33.8256 8.0265 33.0668 8.8058 32.2834C10.1156 30.9736 18.1109 31.5779 20.2546 31.5779C21.5835 31.5779 22.665 32.6594 22.665 33.9883C22.665 34.9535 22.7429 35.7123 21.9595 36.4957C21.7695 36.6816 21.5521 36.8402 21.3087 36.9564L21.5097 39.4529L25.5949 37.0891C26.7187 36.4383 28.1447 37.1971 28.2103 38.5082L28.3456 41.0621C29.5351 40.4113 30.7287 39.7373 31.9263 39.1084V39.1043L32.48 38.8131C31.9605 38.2512 31.4724 37.6469 31.0349 37.007C28.5931 33.4537 27.822 29.2441 28.5466 25.3148C29.2753 21.3855 31.5038 17.7338 35.0572 15.2934C38.6105 12.8475 42.8201 12.0764 46.7453 12.8051C50.6787 13.5338 54.329 15.7582 56.7708 19.3115C59.2167 22.8648 59.9878 27.0744 59.2591 31.0037C59.0117 32.3367 58.5919 33.6396 58.004 34.8756H62.0195C62.5499 34.8756 62.9765 35.3021 62.9765 35.8326V60.5732H64.371C65.6617 60.5732 66.7158 61.6273 66.7158 62.9139C66.7158 63.957 66.832 64.7978 66.0253 65.6031C65.6029 66.0297 65.0177 66.2935 64.371 66.2935H38.4628C37.1722 66.2935 36.1222 65.2394 36.1222 63.9488C36.1222 63.4211 36.0757 62.7361 36.2152 62.2631H6.43783C3.6515 62.2631 2.20639 58.8684 4.20522 56.8682C4.77943 56.3008 5.56967 55.9439 6.43783 55.9439ZM9.83666 55.9439H16.5413V43.3371C16.5413 42.7137 16.8708 42.1394 17.4136 41.825L19.6804 40.5152L19.4097 37.2012H11.357L9.83666 55.9439ZM18.4527 55.9439H26.5519L36.1673 55.8236L36.4927 38.8568L32.8191 40.7941L29.0333 42.86C27.9136 43.4725 26.5218 42.7123 26.4562 41.4189L26.3208 38.876L18.454 43.4301V55.9439H18.4527ZM38.0704 55.9439C38.4779 55.9439 39.5005 55.9207 39.8615 55.9631V51.6387C39.8615 51.1123 40.2921 50.6816 40.8185 50.6816H45.307C45.8347 50.6816 46.2599 51.1123 46.2599 51.6387V60.576H48.2205V43.1744C44.957 44.1123 41.4816 43.9496 38.3261 42.7478L38.0704 55.9439ZM41.7755 56.9133C42.7175 57.8935 42.9376 59.366 42.2951 60.576H44.3486V52.5957H41.7755V56.9133ZM39.5005 57.858H6.43783C5.34818 57.858 4.76303 59.1869 5.55873 59.9853C5.78705 60.2096 6.0974 60.349 6.43783 60.349H39.4992C40.6613 60.349 41.2232 58.8383 40.2361 58.1014C40.031 57.9482 39.7753 57.858 39.5005 57.858ZM29.8769 44.2982H34.8302C35.3579 44.2982 35.7872 44.7289 35.7872 45.2553V49.3978C35.7872 49.9256 35.3566 50.3549 34.8302 50.3549H29.8769C29.3464 50.3549 28.9199 49.9242 28.9199 49.3978V45.2553C28.9199 44.7289 29.3464 44.2982 29.8769 44.2982ZM33.8732 46.2123H30.8353V48.4408H33.8732V46.2123ZM34.241 37.8875L35.9773 36.9769C35.3497 36.415 34.6087 35.5975 34.1247 34.8646H34.1288C32.2804 32.1672 31.6953 28.9775 32.249 26.0012C32.7958 23.0439 34.4652 20.2932 37.1203 18.4365C37.1476 18.4174 37.1708 18.3982 37.1982 18.3818H37.2023C39.8956 16.5334 43.0853 15.9523 46.0617 16.5019C49.0462 17.0557 51.8203 18.7455 53.6728 21.443C55.5294 24.1404 56.1146 27.3342 55.5595 30.3174C55.0085 33.3019 53.3201 36.0719 50.6226 37.9285C47.921 39.781 44.7287 40.3662 41.7482 39.8152C40.5861 39.5978 39.4581 39.215 38.404 38.66L38.3658 40.6984C41.6634 42.1517 45.4382 42.2639 48.8261 40.9541C49.2869 40.7764 49.8023 40.9814 50.0238 41.4148L51.7451 44.8328L52.6406 44.383L50.9193 40.9609C50.6869 40.507 50.8578 39.9574 51.2912 39.7059C54.5779 37.6482 56.7285 34.2098 57.3874 30.6564C58.0273 27.207 57.3492 23.5101 55.2054 20.3943C53.0589 17.2744 49.8529 15.318 46.4076 14.6781C42.954 14.0383 39.2613 14.7164 36.1413 16.8601C33.0214 19.0039 31.0677 22.2086 30.4292 25.658C29.7894 29.1115 30.4648 32.8043 32.6072 35.9201C33.0939 36.6324 33.6408 37.2873 34.241 37.8875ZM20.2546 33.4933H10.5121C10.2413 33.4933 10.0158 33.7176 10.0158 33.9896V34.7922C10.0158 35.0629 10.24 35.2885 10.5121 35.2885H20.2546C20.5253 35.2885 20.7509 35.0642 20.7509 34.7922V33.9896C20.7509 33.7176 20.5253 33.4933 20.2546 33.4933ZM14.7093 28.7615C14.7093 29.2892 14.2828 29.7185 13.7523 29.7185C13.2246 29.7185 12.7953 29.2879 12.7953 28.7615V25.0523C12.7953 23.7767 13.8617 22.7459 15.1591 22.8129H25.398C25.9257 22.8129 26.355 23.2435 26.355 23.7699C26.355 24.2976 25.9244 24.7269 25.398 24.7269H15.1591V24.7228C15.047 24.7228 14.9308 24.6955 14.8105 24.8199C14.749 24.8787 14.7093 24.9635 14.7093 25.0523V28.7615ZM25.398 25.3859C25.9257 25.3859 26.355 25.8166 26.355 26.343C26.355 26.8734 25.9244 27.3 25.398 27.3H17.2865V28.7615C17.2865 29.2892 16.8558 29.7185 16.3294 29.7185C15.799 29.7185 15.3724 29.2879 15.3724 28.7615V26.343C15.3724 25.8152 15.799 25.3859 16.3294 25.3859H25.398ZM15.2712 10.4918C13.8261 10.4918 13.1083 12.2391 14.1242 13.2549C14.4154 13.5461 14.8214 13.7279 15.2671 13.7279H24.8552C26.9593 13.6855 28.4947 11.5226 27.2191 9.77128C26.9087 9.34472 26.4589 9.00019 25.9244 8.79101C25.599 8.66249 25.3583 8.36034 25.3242 7.98847C25.1423 5.98417 22.4722 4.92733 20.6197 6.11679C20.1275 6.43124 19.7515 6.86874 19.5574 7.37597C19.3796 7.82987 18.8792 8.08554 18.398 7.94608C17.3945 7.65214 16.3171 8.38358 16.324 9.53476C16.324 10.0625 15.8933 10.4918 15.3669 10.4918H15.2712ZM14.5111 8.65976C14.9062 7.03144 16.4251 5.87753 18.1314 5.97733C19.6818 3.46171 23.3363 2.95448 25.6304 4.85761C26.3742 5.47831 26.9087 6.30683 27.1302 7.24472C29.8701 8.68573 30.4634 12.1584 28.1994 14.2898C27.39 15.0527 26.2812 15.549 25.048 15.631C24.9933 15.6392 24.94 15.642 24.8853 15.642H15.2658C12.1308 15.642 10.549 11.833 12.7693 9.61132C13.2396 9.14374 13.8371 8.80605 14.5111 8.65976ZM37.458 34.1824C37.004 34.4531 36.4189 34.3068 36.1482 33.8529C35.8775 33.4031 36.0238 32.818 36.4777 32.5473L41.4419 29.5668L40.4617 27.3656C40.2443 26.8844 40.4617 26.3197 40.9415 26.1064L47.4179 23.2148L45.6119 22.6844C45.1046 22.5326 44.8175 22.0062 44.9652 21.499C45.1128 20.9918 45.6433 20.7047 46.1505 20.8523L50.8249 22.2318C51.5263 22.4178 51.7546 23.1971 51.3759 23.7207L48.4652 27.732C48.1548 28.1586 47.5587 28.2557 47.1322 27.9453C46.7056 27.635 46.6085 27.0389 46.9189 26.6123L48.0783 25.0113L42.5945 27.4613L43.5242 29.5463C43.7292 29.9838 43.5747 30.5184 43.1482 30.7713L37.458 34.1824ZM38.2605 19.976C36.0279 21.4607 34.5787 23.9012 34.1247 26.3471C33.6599 28.8504 34.1521 31.5328 35.7066 33.7914L35.7148 33.8064L35.7189 33.8023C37.2078 36.0391 39.6441 37.4883 42.0941 37.9408C44.5974 38.4016 47.2757 37.9135 49.5384 36.3562C51.8011 34.8018 53.2244 32.4775 53.6851 29.9728C54.1499 27.4695 53.6578 24.7871 52.1033 22.5285C50.5447 20.2617 48.2205 18.8426 45.7199 18.3777C43.2165 17.917 40.5341 18.4051 38.2714 19.9623L38.2591 19.9705V19.976H38.2605ZM54.6189 43.5887C55.3667 43.5381 56.0996 43.8484 56.5794 44.4295V37.2914C55.6101 38.6367 54.4124 39.8453 52.9988 40.857L53.4787 41.81H53.6605C54.191 41.81 54.6175 42.2406 54.6175 42.767V43.5887H54.6189ZM58.4935 48.1004L61.0624 53.2041V36.791H58.4935V48.1004ZM61.0638 56.9051C60.8888 57.0678 60.6728 57.2223 60.4472 57.3234L58.4935 58.3078V60.5746H61.0624V56.9051H61.0638ZM56.5794 59.0912C55.8425 59.1609 55.1152 58.8738 54.6189 58.3242V60.576H56.5794V59.0912ZM52.7035 54.6957L50.1345 49.592V60.5746H52.7035V54.6957ZM54.5915 45.5383L51.4949 47.0996C51.2898 47.2008 51.2009 47.4674 51.3048 47.6697L55.982 56.9598C56.0831 57.1607 56.3498 57.251 56.5521 57.1498L59.6488 55.5885C59.8539 55.4873 59.9427 55.2248 59.8388 55.0184L55.1617 45.7283C55.0605 45.5273 54.7925 45.4371 54.5915 45.5383ZM64.3738 62.49H38.4656C38.2331 62.49 38.039 62.6842 38.039 62.9166V63.9516C38.039 64.1881 38.2331 64.3822 38.4656 64.3822H64.3738C64.6062 64.3822 64.8044 64.1881 64.8044 63.9516V62.9166C64.8031 62.6828 64.6062 62.49 64.3738 62.49Z" fill="white"/>
</svg>
