<svg width="70" height="70" viewBox="0 0 70 70" fill="none" xmlns="http://www.w3.org/2000/svg">
<g clip-path="url(#clip0_1251_4)">
<path d="M9.57051 19.3006C9.57051 8.86074 18.0662 0.369141 28.5074 0.369141C38.9459 0.369141 47.4389 8.86211 47.4389 19.3006C47.4389 25.5951 44.3627 31.3674 39.2727 34.8797L41.21 35.2926C41.8006 35.4184 42.1766 35.998 42.0508 36.5887C41.9414 37.1027 41.4875 37.4541 40.983 37.4541C40.9078 37.4541 40.8312 37.4459 40.7547 37.4295L36.057 36.4301C35.774 36.3699 35.5252 36.199 35.368 35.9557C35.2107 35.7123 35.1561 35.4156 35.2162 35.1326L36.2197 30.435C36.3455 29.8443 36.9266 29.4684 37.5172 29.5941C38.1078 29.7199 38.4838 30.301 38.358 30.8916L37.8658 33.1912C42.465 30.0959 45.2527 24.9348 45.2527 19.2992C45.2527 10.0652 37.74 2.55391 28.5074 2.55391C19.2721 2.55391 11.758 10.0666 11.758 19.2992C11.758 28.5346 19.2721 36.0486 28.5074 36.0486C29.1117 36.0486 29.5998 36.5381 29.5998 37.141C29.5998 37.7453 29.1103 38.2334 28.5074 38.2334C18.0662 38.2361 9.57051 29.7418 9.57051 19.3006ZM36.7775 28.6631H20.2359C19.633 28.6631 19.1436 28.1736 19.1436 27.5707V11.0305C19.1436 10.4275 19.633 9.93809 20.2359 9.93809H25.933H31.0764H36.7775C37.3805 9.93809 37.8699 10.4275 37.8699 11.0305V27.5707C37.8699 28.1736 37.3805 28.6631 36.7775 28.6631ZM27.0268 12.1229V16.3201H29.984V12.1229H27.0268ZM35.6838 12.1229H32.1687V17.4125C32.1687 18.0154 31.6793 18.5049 31.0764 18.5049H25.933C25.3287 18.5049 24.8406 18.0154 24.8406 17.4125V12.1229H21.3297V26.4783H35.6852V12.1229H35.6838ZM57.0105 41.1277C57.0105 49.4771 53.4025 56.9994 47.6631 62.2166C47.5947 62.2986 47.5141 62.3711 47.4211 62.4313C42.3844 66.9074 35.7576 69.6322 28.5061 69.6322C20.8908 69.6322 13.7336 66.6668 8.34961 61.2828C2.96699 55.8988 0.00292969 48.7402 0.00292969 41.1277C0.00292969 40.5248 0.492383 40.0353 1.09531 40.0353H29.1021H29.1049H55.9182C56.5225 40.034 57.0105 40.5234 57.0105 41.1277ZM15.2703 63.8682C16.0346 62.49 17.1105 61.0354 18.7689 60.1426C26.1559 55.4107 26.3295 53.4051 26.2064 52.902C26.1148 52.5273 25.3875 51.2709 19.8818 50.7814C16.7824 50.5805 14.5977 49.1531 13.0008 48.1113C10.9062 46.7428 10.6123 46.7018 9.86582 47.6697C8.81582 49.0301 7.7084 49.6221 6.73086 50.1443C5.80391 50.6393 5.10254 51.0152 4.53242 51.9832C6.79922 56.9666 10.574 61.1242 15.2703 63.8682ZM28.5074 67.4461C35.007 67.4461 40.9639 65.0768 45.5604 61.157C44.7018 58.424 44.5281 56.5154 44.3148 54.1488C44.2301 53.2082 44.1344 52.1404 43.9826 50.91C43.6039 47.8311 42.9094 47.5193 42.8807 47.5084C42.4814 47.3498 41.2729 48.3437 40.6918 48.8209C40.041 49.3568 39.4258 49.8627 38.816 50.091C36.9908 50.776 33.6604 48.7238 31.9814 47.4031C30.874 46.5322 28.5484 44.4732 28.0658 42.2187H2.21094C2.31758 44.8082 2.8002 47.3006 3.6041 49.6453C4.28223 48.9768 5.01914 48.5803 5.70137 48.2152C6.56133 47.7559 7.37207 47.3225 8.13633 46.3326C9.05234 45.1459 10.1256 44.651 11.3301 44.8629C12.2871 45.0311 13.1717 45.6094 14.1971 46.2793C15.7461 47.291 17.5016 48.4381 20.0336 48.5994C20.0432 48.5994 20.0514 48.6008 20.0609 48.6021C25.1797 49.0547 27.8074 50.2551 28.3283 52.3797C28.9504 54.9145 26.3541 57.8826 19.9105 62.0047C19.8859 62.0211 19.86 62.0361 19.8326 62.0498C18.8346 62.5775 18.002 63.473 17.2049 64.8908C20.6311 66.5273 24.4633 67.4461 28.5074 67.4461ZM54.8025 42.2201H30.3422C30.6799 43.0582 31.4756 44.0781 32.6076 45.0816C34.9605 47.1693 37.4762 48.1824 38.0613 48.0402C38.3184 47.9432 38.8639 47.4947 39.3027 47.1338C40.5441 46.1111 42.0904 44.8396 43.69 45.4781C45.0189 46.0086 45.7777 47.6014 46.151 50.6434C46.3055 51.9094 46.4039 52.9949 46.49 53.952C46.6691 55.9412 46.8113 57.4957 47.3473 59.4836C51.7346 54.9828 54.5277 48.9207 54.8025 42.2201ZM69.6775 29.1416L62.7172 36.102C62.508 36.3111 62.2291 36.4219 61.9447 36.4219C61.8039 36.4219 61.6617 36.3945 61.5264 36.3385C61.1176 36.1689 60.8523 35.7711 60.8523 35.3281V32.1344H51.6553C51.0523 32.1344 50.5629 31.6449 50.5629 31.042V25.6936C50.5629 25.0893 51.0523 24.6012 51.6553 24.6012H60.8523V21.4033C60.8523 20.9617 61.1189 20.5625 61.5277 20.393C61.9365 20.2234 62.4068 20.3178 62.7186 20.6295L69.6789 27.5939C70.1041 28.0232 70.1041 28.715 69.6775 29.1416ZM67.3602 28.3691L63.0385 24.0447V25.6949C63.0385 26.2992 62.549 26.7873 61.9461 26.7873H52.749V29.9496H61.9461C62.5504 29.9496 63.0385 30.4391 63.0385 31.042V32.6895L67.3602 28.3691ZM50.5629 12.9104V7.56191C50.5629 6.95762 51.0523 6.46953 51.6553 6.46953H60.8523V3.27168C60.8523 2.83008 61.1189 2.43086 61.5277 2.26133C61.9365 2.0918 62.4068 2.18613 62.7186 2.49785L69.6789 9.46231C70.1055 9.88887 70.1055 10.5807 69.6789 11.0072L62.7186 17.9717C62.5094 18.1809 62.2305 18.2916 61.9447 18.2916C61.8039 18.2916 61.6617 18.2643 61.5264 18.2082C61.1176 18.0387 60.851 17.6408 60.851 17.1979V14H51.6539C51.051 14.0027 50.5629 13.5133 50.5629 12.9104ZM52.7477 11.8166H61.9447C62.549 11.8166 63.0371 12.3061 63.0371 12.909V14.5592L67.3588 10.2348L63.0371 5.91035V7.56055C63.0371 8.16484 62.5477 8.65293 61.9447 8.65293H52.7477V11.8166Z" fill="white"/>
</g>
<defs>
<clipPath id="clip0_1251_4">
<rect width="70" height="70" fill="white"/>
</clipPath>
</defs>
</svg>
