<svg width="70" height="70" viewBox="0 0 70 70" fill="none" xmlns="http://www.w3.org/2000/svg">
<path d="M65.9326 53.1562L61.0996 45.727C61.9787 45.3592 62.5994 44.4896 62.5994 43.4766C62.5994 42.3377 61.8133 41.3807 60.7551 41.1141L63.7779 35.659C63.9228 35.3979 63.9146 35.0793 63.7561 34.8264C63.5975 34.5734 63.3131 34.4258 63.0164 34.4422C60.7059 34.568 58.6373 35.4307 57.2783 36.7787L56.8148 35.3992C56.5154 34.5064 55.7143 33.9309 54.7723 33.9309C54.1324 33.9309 53.5568 34.1988 53.159 34.65V32.8877C54.626 32.6648 55.7525 31.3961 55.7525 29.8676C55.7525 28.1832 54.3826 26.8133 52.6982 26.8133H45.7707C45.9703 26.4141 46.0838 25.9643 46.0838 25.4885C46.0838 24.0666 45.0775 22.8758 43.7404 22.59C43.3809 15.1293 37.4035 9.11914 29.9578 8.70488V7.6918H34.9576C35.4102 7.6918 35.7779 7.32402 35.7779 6.87148V2.87109C35.7779 2.41855 35.4102 2.05078 34.9576 2.05078H29.1375C28.685 2.05078 28.3172 2.41855 28.3172 2.87109V8.70625C20.8715 9.12051 14.8941 15.1307 14.5346 22.5914C13.1975 22.8785 12.1912 24.0693 12.1912 25.4898C12.1912 25.9656 12.3047 26.4154 12.5043 26.8146H5.57676C3.89238 26.8146 2.52246 28.1846 2.52246 29.8689C2.52246 31.3961 3.65039 32.6662 5.11602 32.8891V54.2076C5.11602 54.6602 5.48379 55.0279 5.93633 55.0279H42.6604C42.2721 56.0779 42.0656 57.2141 42.0656 58.3584C42.0656 63.6467 46.3682 67.9479 51.6551 67.9479H57.8881C63.1764 67.9479 67.4775 63.6453 67.4775 58.3584C67.4775 56.4867 66.9266 54.6342 65.9326 53.1562ZM60.1604 44.275H49.3814C48.9412 44.275 48.5844 43.9168 48.5844 43.4779C48.5844 43.0391 48.9426 42.6809 49.3814 42.6809H60.1604C60.6006 42.6809 60.9574 43.0391 60.9574 43.4779C60.9574 43.9168 60.6006 44.275 60.1604 44.275ZM28.4512 23.1178C28.6727 22.9906 28.9051 22.9264 29.1375 22.9264C29.3699 22.9264 29.6023 22.9906 29.8238 23.1178L43.5094 31.0064C43.8758 31.217 44.0412 31.6176 43.9318 32.0264C43.8225 32.4352 43.4793 32.699 43.0555 32.699H15.2168C14.7943 32.699 14.4498 32.4352 14.3404 32.0264C14.2311 31.6176 14.3979 31.217 14.7629 31.0064L28.4512 23.1178ZM16.0863 34.3396H42.1887V50.3139H40.5002V38.6668C40.5002 36.9168 39.0756 35.4922 37.3256 35.4922C35.5756 35.4922 34.151 36.9168 34.151 38.6668V50.3139H32.3121V38.6668C32.3121 36.9168 30.8875 35.4922 29.1375 35.4922C27.3875 35.4922 25.9629 36.9168 25.9629 38.6668V50.3139H24.124V38.6668C24.124 36.9168 22.6994 35.4922 20.9494 35.4922C19.1994 35.4922 17.7748 36.9168 17.7748 38.6668V50.3139H16.0863V34.3396ZM38.8596 50.3139H35.7916V38.6668C35.7916 37.8205 36.4793 37.1328 37.3256 37.1328C38.1719 37.1328 38.8596 37.8205 38.8596 38.6668V50.3139ZM30.6715 50.3139H27.6035V38.6668C27.6035 37.8205 28.2912 37.1328 29.1375 37.1328C29.9838 37.1328 30.6715 37.8205 30.6715 38.6668V50.3139ZM22.4834 50.3139H19.4154V38.6668C19.4154 37.8205 20.1031 37.1328 20.9494 37.1328C21.7957 37.1328 22.4834 37.8205 22.4834 38.6668V50.3139ZM15.091 51.9545H43.1826V53.3887H15.091V51.9545ZM44.0043 50.3139H43.8293V34.2221C44.4896 34.017 45.0324 33.5535 45.34 32.9232H51.5184V36.1416C50.2004 35.1641 48.449 34.5488 46.5281 34.4436C46.2314 34.4271 45.9471 34.5748 45.7885 34.8277C45.6299 35.0807 45.6217 35.3992 45.7666 35.6604L48.7894 41.1154C47.7312 41.382 46.9451 42.3377 46.9451 43.4779C46.9451 44.4897 47.5644 45.3592 48.4449 45.7283L44.826 51.2914V51.1342C44.8246 50.6803 44.4568 50.3139 44.0043 50.3139ZM53.334 38.7529L54.2842 35.9215C54.358 35.7027 54.5398 35.5715 54.7709 35.5715C55.0019 35.5715 55.1838 35.7027 55.2576 35.9215L56.2078 38.7529C56.3117 39.0605 56.5865 39.2779 56.9092 39.308C57.2332 39.3381 57.5422 39.1754 57.7008 38.8924C58.3844 37.6701 59.8131 36.7322 61.5385 36.3111L58.9189 41.0389H50.6187L47.9992 36.3111C49.7246 36.7322 51.1533 37.6701 51.8369 38.8924C51.9955 39.1754 52.3072 39.3395 52.6285 39.308C52.9553 39.2793 53.2301 39.0605 53.334 38.7529ZM54.1119 29.8689C54.1119 30.6482 53.4775 31.2826 52.6982 31.2826H45.5574C45.418 30.5854 44.9887 29.9646 44.3297 29.5859L42.3678 28.4553H52.6982C53.4775 28.4553 54.1119 29.0896 54.1119 29.8689ZM44.4418 25.4898C44.4418 26.2199 43.8471 26.8146 43.117 26.8146H39.5213L34.9248 24.165H43.117C43.8484 24.165 44.4418 24.7598 44.4418 25.4898ZM34.1373 6.05117H29.9578V3.69141H34.1373V6.05117ZM29.1375 10.3223C36.0336 10.3223 41.6896 15.7281 42.093 22.523H32.0797L30.6441 21.6959C29.6871 21.1436 28.5893 21.1436 27.6322 21.6959L26.1967 22.523H16.1834C16.5854 15.7281 22.2414 10.3223 29.1375 10.3223ZM13.8318 25.4898C13.8318 24.7598 14.4266 24.165 15.1566 24.165H23.3488L18.7523 26.8146H15.1553C14.4266 26.8146 13.8318 26.2199 13.8318 25.4898ZM4.16309 29.8689C4.16309 29.0896 4.79746 28.4553 5.57676 28.4553H15.9072L13.9453 29.5859C13.2863 29.966 12.8557 30.5854 12.7176 31.2826H5.57676C4.79746 31.2826 4.16309 30.6482 4.16309 29.8689ZM6.75664 36.508H9.0002V49.8025H6.75664V36.508ZM6.75664 51.4432H9.82051C10.273 51.4432 10.6408 51.0754 10.6408 50.6228V35.6877C10.6408 35.2352 10.273 34.8674 9.82051 34.8674H6.75664V32.9232H12.935C13.2426 33.5535 13.7854 34.017 14.4457 34.2221V50.3125H14.2707C13.8182 50.3125 13.4504 50.6803 13.4504 51.1328V53.3873H6.75664V51.4432ZM57.8881 66.3086H51.6551C47.2719 66.3086 43.7062 62.743 43.7062 58.3598C43.7062 56.8066 44.1588 55.2795 44.9873 54.0477L50.2783 45.9156H59.2648L64.5641 54.0613C65.3844 55.2822 65.8369 56.808 65.8369 58.3598C65.8369 62.743 62.2713 66.3086 57.8881 66.3086Z" fill="white"/>
<path d="M55.4162 60.9917C55.3242 60.9912 55.2333 60.9716 55.1491 60.9343C55.065 60.897 54.9893 60.8428 54.9269 60.7748L51.1945 56.7381C51.0699 56.6116 51 56.4408 51 56.2627C51 56.0847 51.0699 55.9138 51.1945 55.7873C51.3159 55.6733 51.4763 55.6106 51.6424 55.6122H53.492C53.8036 55.6067 54.1074 55.513 54.3685 55.3419C54.6296 55.1708 54.8375 54.9292 54.9683 54.6447H52.3059C52.1417 54.6263 51.9899 54.5476 51.8797 54.4237C51.7695 54.2999 51.7086 54.1395 51.7086 53.9733C51.7086 53.8071 51.7695 53.6468 51.8797 53.5229C51.9899 53.399 52.1417 53.3204 52.3059 53.3019H55.0098C54.8778 53.019 54.6694 52.7791 54.4083 52.6096C54.1473 52.44 53.8442 52.3476 53.5334 52.3428H51.6839C51.5196 52.3244 51.3679 52.2457 51.2577 52.1218C51.1475 51.998 51.0866 51.8376 51.0866 51.6714C51.0866 51.5052 51.1475 51.3448 51.2577 51.221C51.3679 51.0971 51.5196 51.0184 51.6839 51H57.4897C57.654 51.0184 57.8057 51.0971 57.9159 51.221C58.0261 51.3448 58.087 51.5052 58.087 51.6714C58.087 51.8376 58.0261 51.998 57.9159 52.1218C57.8057 52.2457 57.654 52.3244 57.4897 52.3428H56.0051C56.1975 52.635 56.3352 52.96 56.4115 53.3019H57.5063C57.6706 53.3204 57.8223 53.399 57.9325 53.5229C58.0427 53.6468 58.1036 53.8071 58.1036 53.9733C58.1036 54.1395 58.0427 54.2999 57.9325 54.4237C57.8223 54.5476 57.6706 54.6263 57.5063 54.6447H56.4198C56.2683 55.3007 55.9007 55.8859 55.3767 56.3053C54.8527 56.7247 54.2031 56.9536 53.5334 56.955H53.2183L55.947 59.9075C56.0711 60.0325 56.1408 60.202 56.1408 60.3787C56.1408 60.5554 56.0711 60.7248 55.947 60.8499C55.8732 60.9094 55.7879 60.9527 55.6965 60.9771C55.6051 61.0015 55.5096 61.0065 55.4162 60.9917Z" fill="white"/>
</svg>
