<svg width="70" height="70" viewBox="0 0 70 70" fill="none" xmlns="http://www.w3.org/2000/svg">
<path d="M63.4375 29.6844V22.9688C63.4375 22.0985 63.0918 21.2639 62.4764 20.6486C61.8611 20.0332 61.0265 19.6875 60.1562 19.6875V14.2188C60.1562 13.3485 59.8105 12.5139 59.1952 11.8986C58.5798 11.2832 57.7452 10.9375 56.875 10.9375V6.5625C56.875 5.69226 56.5293 4.85766 55.9139 4.24231C55.2986 3.62695 54.464 3.28125 53.5938 3.28125H16.4062C15.536 3.28125 14.7014 3.62695 14.0861 4.24231C13.4707 4.85766 13.125 5.69226 13.125 6.5625V10.9375C12.2548 10.9375 11.4202 11.2832 10.8048 11.8986C10.1895 12.5139 9.84375 13.3485 9.84375 14.2188V19.6875C8.97351 19.6875 8.13891 20.0332 7.52356 20.6486C6.9082 21.2639 6.5625 22.0985 6.5625 22.9688V29.6844C5.62573 29.9262 4.79555 30.4718 4.20185 31.2357C3.60814 31.9996 3.28439 32.9388 3.28125 33.9062V62.3438C3.28125 63.5041 3.74219 64.6169 4.56266 65.4373C5.38313 66.2578 6.49593 66.7188 7.65625 66.7188H62.3438C63.5041 66.7188 64.6169 66.2578 65.4373 65.4373C66.2578 64.6169 66.7188 63.5041 66.7188 62.3438V33.9062C66.7156 32.9388 66.3919 31.9996 65.7982 31.2357C65.2044 30.4718 64.3743 29.9262 63.4375 29.6844ZM15.3125 6.5625C15.3125 6.27242 15.4277 5.99422 15.6329 5.7891C15.838 5.58398 16.1162 5.46875 16.4062 5.46875H53.5938C53.8838 5.46875 54.162 5.58398 54.3671 5.7891C54.5723 5.99422 54.6875 6.27242 54.6875 6.5625V10.9375H15.3125V6.5625ZM8.75 22.9688C8.75 22.6787 8.86523 22.4005 9.07035 22.1954C9.27547 21.9902 9.55367 21.875 9.84375 21.875H35C35.2901 21.875 35.5683 21.7598 35.7734 21.5546C35.9785 21.3495 36.0938 21.0713 36.0938 20.7812C36.0938 20.4912 35.9785 20.213 35.7734 20.0079C35.5683 19.8027 35.2901 19.6875 35 19.6875H12.0312V14.2188C12.0312 13.9287 12.1465 13.6505 12.3516 13.4454C12.5567 13.2402 12.8349 13.125 13.125 13.125H56.875C57.1651 13.125 57.4433 13.2402 57.6484 13.4454C57.8535 13.6505 57.9688 13.9287 57.9688 14.2188V19.6875H44.8438C44.5537 19.6875 44.2755 19.8027 44.0704 20.0079C43.8652 20.213 43.75 20.4912 43.75 20.7812C43.75 21.0713 43.8652 21.3495 44.0704 21.5546C44.2755 21.7598 44.5537 21.875 44.8438 21.875H60.1562C60.4463 21.875 60.7245 21.9902 60.9296 22.1954C61.1348 22.4005 61.25 22.6787 61.25 22.9688V29.5312H8.75V22.9688ZM5.46875 33.9062C5.46875 33.3261 5.69922 32.7697 6.10945 32.3595C6.51969 31.9492 7.07609 31.7188 7.65625 31.7188H11.9547C11.7189 33.3552 10.9596 34.8714 9.7905 36.0405C8.62139 37.2096 7.10522 37.9689 5.46875 38.2047V33.9062ZM7.65625 64.5312C7.07609 64.5312 6.51969 64.3008 6.10945 63.8905C5.69922 63.4803 5.46875 62.9239 5.46875 62.3438V58.0453C7.10522 58.2811 8.62139 59.0404 9.7905 60.2095C10.9596 61.3786 11.7189 62.8948 11.9547 64.5312H7.65625ZM64.5312 62.3438C64.5312 62.9239 64.3008 63.4803 63.8905 63.8905C63.4803 64.3008 62.9239 64.5312 62.3438 64.5312H58.0453C58.2811 62.8948 59.0404 61.3786 60.2095 60.2095C61.3786 59.0404 62.8948 58.2811 64.5312 58.0453V62.3438ZM64.5312 55.8469C62.3137 56.0958 60.2465 57.0907 58.6686 58.6686C57.0907 60.2465 56.0958 62.3137 55.8469 64.5312H14.1531C13.9042 62.3137 12.9093 60.2465 11.3314 58.6686C9.75349 57.0907 7.6863 56.0958 5.46875 55.8469V40.4031C7.6863 40.1542 9.75349 39.1593 11.3314 37.5814C12.9093 36.0035 13.9042 33.9363 14.1531 31.7188H55.8469C56.0958 33.9363 57.0907 36.0035 58.6686 37.5814C60.2465 39.1593 62.3137 40.1542 64.5312 40.4031V55.8469ZM64.5312 38.2047C62.8948 37.9689 61.3786 37.2096 60.2095 36.0405C59.0404 34.8714 58.2811 33.3552 58.0453 31.7188H62.3438C62.9239 31.7188 63.4803 31.9492 63.8905 32.3595C64.3008 32.7697 64.5312 33.3261 64.5312 33.9062V38.2047Z" fill="white"/>
<path d="M45.3031 44.483C41.9234 34.7705 28.0656 34.8033 24.6969 44.483C24.1089 46.1334 23.926 47.9009 24.1635 49.6368C24.4011 51.3726 25.0521 53.026 26.0619 54.4577C27.0717 55.8895 28.4107 57.0577 29.9661 57.864C31.5216 58.6704 33.248 59.0913 35 59.0913C36.752 59.0913 38.4784 58.6704 40.0339 57.864C41.5893 57.0577 42.9283 55.8895 43.9381 54.4577C44.9479 53.026 45.5989 51.3726 45.8365 49.6368C46.0741 47.9009 45.8911 46.1334 45.3031 44.483ZM43.75 49.0986C43.5623 50.7749 42.8941 52.3612 41.8259 53.6666C40.7576 54.9719 39.3348 55.9407 37.7288 56.4563C36.1228 56.9718 34.402 57.0122 32.7735 56.5725C31.1451 56.1329 29.6784 55.2319 28.5501 53.9781C27.4218 52.7242 26.68 51.171 26.4139 49.5054C26.1478 47.8398 26.3688 46.1327 27.0503 44.5898C27.7318 43.0468 28.8447 41.7337 30.2551 40.8086C31.6655 39.8834 33.3133 39.3857 35 39.3752C36.2358 39.3675 37.4591 39.6217 38.5896 40.121C39.72 40.6203 40.7319 41.3534 41.5585 42.272C42.3852 43.1906 43.0079 44.2739 43.3856 45.4506C43.7633 46.6272 43.8875 47.8705 43.75 49.0986Z" fill="white"/>
<path d="M54.6875 43.75C53.8222 43.75 52.9763 44.0066 52.2569 44.4873C51.5374 44.9681 50.9767 45.6513 50.6455 46.4508C50.3144 47.2502 50.2278 48.1299 50.3966 48.9785C50.5654 49.8272 50.9821 50.6067 51.5939 51.2186C52.2058 51.8304 52.9853 52.2471 53.834 52.4159C54.6826 52.5847 55.5623 52.4981 56.3617 52.167C57.1612 51.8358 57.8445 51.2751 58.3252 50.5556C58.8059 49.8362 59.0625 48.9903 59.0625 48.125C59.0625 46.9647 58.6016 45.8519 57.7811 45.0314C56.9606 44.2109 55.8478 43.75 54.6875 43.75ZM54.6875 50.3125C54.2549 50.3125 53.8319 50.1842 53.4722 49.9438C53.1125 49.7035 52.8321 49.3618 52.6665 48.9621C52.5009 48.5624 52.4576 48.1226 52.542 47.6982C52.6264 47.2739 52.8348 46.8841 53.1407 46.5782C53.4466 46.2723 53.8364 46.0639 54.2607 45.9795C54.6851 45.8951 55.1249 45.9384 55.5246 46.104C55.9243 46.2696 56.266 46.55 56.5063 46.9097C56.7467 47.2694 56.875 47.6924 56.875 48.125C56.875 48.7052 56.6445 49.2616 56.2343 49.6718C55.8241 50.082 55.2677 50.3125 54.6875 50.3125Z" fill="white"/>
<path d="M15.3125 43.75C14.4472 43.75 13.6013 44.0066 12.8819 44.4873C12.1624 44.9681 11.6017 45.6513 11.2705 46.4508C10.9394 47.2502 10.8528 48.1299 11.0216 48.9785C11.1904 49.8272 11.6071 50.6067 12.2189 51.2186C12.8308 51.8304 13.6103 52.2471 14.459 52.4159C15.3076 52.5847 16.1873 52.4981 16.9867 52.167C17.7862 51.8358 18.4695 51.2751 18.9502 50.5556C19.4309 49.8362 19.6875 48.9903 19.6875 48.125C19.6875 46.9647 19.2266 45.8519 18.4061 45.0314C17.5856 44.2109 16.4728 43.75 15.3125 43.75ZM15.3125 50.3125C14.8799 50.3125 14.4569 50.1842 14.0972 49.9438C13.7375 49.7035 13.4571 49.3618 13.2915 48.9621C13.1259 48.5624 13.0826 48.1226 13.167 47.6982C13.2514 47.2739 13.4598 46.8841 13.7657 46.5782C14.0716 46.2723 14.4614 46.0639 14.8857 45.9795C15.3101 45.8951 15.7499 45.9384 16.1496 46.104C16.5493 46.2696 16.891 46.55 17.1313 46.9097C17.3717 47.2694 17.5 47.6924 17.5 48.125C17.5 48.7052 17.2695 49.2616 16.8593 49.6718C16.4491 50.082 15.8927 50.3125 15.3125 50.3125Z" fill="white"/>
<path d="M39.375 21.875H40.4688C40.7588 21.875 41.037 21.7598 41.2421 21.5546C41.4473 21.3495 41.5625 21.0713 41.5625 20.7812C41.5625 20.4912 41.4473 20.213 41.2421 20.0079C41.037 19.8027 40.7588 19.6875 40.4688 19.6875H39.375C39.0849 19.6875 38.8067 19.8027 38.6016 20.0079C38.3965 20.213 38.2812 20.4912 38.2812 20.7812C38.2812 21.0713 38.3965 21.3495 38.6016 21.5546C38.8067 21.7598 39.0849 21.875 39.375 21.875Z" fill="white"/>
<path d="M36.4162 52.9917C36.3242 52.9912 36.2333 52.9716 36.1491 52.9343C36.065 52.897 35.9893 52.8428 35.9269 52.7748L32.1945 48.7381C32.0699 48.6116 32 48.4408 32 48.2627C32 48.0847 32.0699 47.9138 32.1945 47.7873C32.3159 47.6733 32.4763 47.6106 32.6424 47.6122H34.492C34.8036 47.6067 35.1074 47.513 35.3685 47.3419C35.6296 47.1708 35.8375 46.9292 35.9683 46.6447H33.3059C33.1417 46.6263 32.9899 46.5476 32.8797 46.4237C32.7695 46.2999 32.7086 46.1395 32.7086 45.9733C32.7086 45.8071 32.7695 45.6468 32.8797 45.5229C32.9899 45.399 33.1417 45.3204 33.3059 45.3019H36.0098C35.8778 45.019 35.6694 44.7791 35.4083 44.6096C35.1473 44.44 34.8442 44.3476 34.5334 44.3428H32.6839C32.5196 44.3244 32.3679 44.2457 32.2577 44.1218C32.1475 43.998 32.0866 43.8376 32.0866 43.6714C32.0866 43.5052 32.1475 43.3448 32.2577 43.221C32.3679 43.0971 32.5196 43.0184 32.6839 43H38.4897C38.654 43.0184 38.8057 43.0971 38.9159 43.221C39.0261 43.3448 39.087 43.5052 39.087 43.6714C39.087 43.8376 39.0261 43.998 38.9159 44.1218C38.8057 44.2457 38.654 44.3244 38.4897 44.3428H37.0051C37.1975 44.635 37.3352 44.96 37.4115 45.3019H38.5063C38.6706 45.3204 38.8223 45.399 38.9325 45.5229C39.0427 45.6468 39.1036 45.8071 39.1036 45.9733C39.1036 46.1395 39.0427 46.2999 38.9325 46.4237C38.8223 46.5476 38.6706 46.6263 38.5063 46.6447H37.4198C37.2683 47.3007 36.9007 47.8859 36.3767 48.3053C35.8527 48.7247 35.2031 48.9536 34.5334 48.955H34.2183L36.947 51.9075C37.0711 52.0325 37.1408 52.202 37.1408 52.3787C37.1408 52.5554 37.0711 52.7248 36.947 52.8499C36.8732 52.9094 36.7879 52.9527 36.6965 52.9771C36.6051 53.0015 36.5096 53.0065 36.4162 52.9917Z" fill="white"/>
</svg>
