<svg width="70" height="70" viewBox="0 0 70 70" fill="none" xmlns="http://www.w3.org/2000/svg">
<g clip-path="url(#clip0_1253_200)">
<path d="M20.9404 40.1044L34.9998 47.6389L49.0945 40.0854" stroke="white" stroke-width="2" stroke-miterlimit="10" stroke-linecap="round" stroke-linejoin="round"/>
<path d="M35 35V53.0013" stroke="white" stroke-width="2" stroke-miterlimit="10" stroke-linecap="round" stroke-linejoin="round"/>
<path d="M11.416 45.6562C17.1546 45.6562 21.8066 41.0042 21.8066 35.2656C21.8066 29.527 17.1546 24.875 11.416 24.875C5.67743 24.875 1.02539 29.527 1.02539 35.2656C1.02539 41.0042 5.67743 45.6562 11.416 45.6562Z" stroke="white" stroke-width="2" stroke-miterlimit="10" stroke-linecap="round" stroke-linejoin="round"/>
<path d="M11.416 41.5547C14.8894 41.5547 17.7051 38.739 17.7051 35.2656C17.7051 31.7923 14.8894 28.9766 11.416 28.9766C7.94266 28.9766 5.12695 31.7923 5.12695 35.2656C5.12695 38.739 7.94266 41.5547 11.416 41.5547Z" stroke="white" stroke-width="2" stroke-miterlimit="10" stroke-linecap="round" stroke-linejoin="round"/>
<path d="M45.5681 23.4492C45.5864 23.7015 45.5957 23.956 45.5957 24.2129C45.5957 29.9516 40.9437 34.6036 35.2051 34.6036C29.4664 34.6036 24.8145 29.9516 24.8145 24.2129C24.8145 24.017 24.8199 23.8223 24.8306 23.6291" stroke="white" stroke-width="2" stroke-miterlimit="10" stroke-linecap="round" stroke-linejoin="round"/>
<path d="M41.4487 23.4548C41.4787 23.7034 41.4941 23.9564 41.4941 24.2131C41.4941 27.6808 38.6728 30.5021 35.2051 30.5021C31.7373 30.5021 28.916 27.6808 28.916 24.2131C28.916 23.9545 28.9317 23.6997 28.9621 23.4492" stroke="white" stroke-width="2" stroke-miterlimit="10" stroke-linecap="round" stroke-linejoin="round"/>
<path d="M61.2747 45.3045C60.4166 45.5339 59.5145 45.6562 58.584 45.6562C52.8454 45.6562 48.1934 41.0043 48.1934 35.2656C48.1934 29.527 52.8454 24.875 58.584 24.875C64.3226 24.875 68.9746 29.527 68.9746 35.2656C68.9746 38.3886 67.5969 41.1898 65.416 43.0946" stroke="white" stroke-width="2" stroke-miterlimit="10" stroke-linecap="round" stroke-linejoin="round"/>
<path d="M58.584 41.5547C62.0573 41.5547 64.873 38.739 64.873 35.2656C64.873 31.7923 62.0573 28.9766 58.584 28.9766C55.1106 28.9766 52.2949 31.7923 52.2949 35.2656C52.2949 38.739 55.1106 41.5547 58.584 41.5547Z" stroke="white" stroke-width="2" stroke-miterlimit="10" stroke-linecap="round" stroke-linejoin="round"/>
<path d="M45.8008 58.3105H24.1992C23.5952 58.3105 23.1055 57.8208 23.1055 57.2168V54.209C23.1055 53.605 23.5952 53.1152 24.1992 53.1152H45.8008C46.4048 53.1152 46.8945 53.605 46.8945 54.209V57.2168C46.8945 57.8208 46.4048 58.3105 45.8008 58.3105Z" stroke="white" stroke-width="2" stroke-miterlimit="10" stroke-linecap="round" stroke-linejoin="round"/>
<path d="M40.9723 68.9746H29.0277C28.1187 68.9746 27.3421 68.3193 27.1893 67.4231L25.6348 58.3105H44.3652L42.8107 67.4231C42.6579 68.3193 41.8813 68.9746 40.9723 68.9746Z" stroke="white" stroke-width="2" stroke-miterlimit="10" stroke-linecap="round" stroke-linejoin="round"/>
<path d="M28.7106 1.02539H51.8392C52.4432 1.02539 52.9329 1.51512 52.9329 2.11914V22.1285C52.9329 22.7325 52.4432 23.2222 51.8392 23.2222H18.1602C17.5561 23.2222 17.0664 22.7325 17.0664 22.1285V2.11914C17.0664 1.51512 17.5561 1.02539 18.1602 1.02539H23.8798" stroke="white" stroke-width="2" stroke-miterlimit="10" stroke-linecap="round" stroke-linejoin="round"/>
<path d="M43.972 5.12695H26.0274C25.5421 5.12695 25.0769 5.31973 24.7339 5.66275L21.7038 8.69272C21.3607 9.03574 21.168 9.501 21.168 9.98621V14.2614C21.168 14.7466 21.3607 15.2119 21.7038 15.5549L24.7337 18.5849C25.0768 18.9279 25.542 19.1207 26.0272 19.1207H43.972C44.4572 19.1207 44.9224 18.9279 45.2655 18.5849L48.2954 15.5549C48.6385 15.2119 48.8312 14.7466 48.8312 14.2614V9.98621C48.8312 9.501 48.6385 9.03574 48.2954 8.69272L45.2655 5.66275C44.9224 5.31973 44.4572 5.12695 43.972 5.12695Z" stroke="white" stroke-width="2" stroke-miterlimit="10" stroke-linecap="round" stroke-linejoin="round"/>
<path d="M34.9997 15.1888C36.6925 15.1888 38.0648 13.8165 38.0648 12.1237C38.0648 10.4309 36.6925 9.05859 34.9997 9.05859C33.3069 9.05859 31.9346 10.4309 31.9346 12.1237C31.9346 13.8165 33.3069 15.1888 34.9997 15.1888Z" stroke="white" stroke-width="2" stroke-miterlimit="10" stroke-linecap="round" stroke-linejoin="round"/>
<path d="M26.2598 9.05908H27.5825" stroke="white" stroke-width="2" stroke-miterlimit="10" stroke-linecap="round" stroke-linejoin="round"/>
<path d="M42.2402 15.189H43.563" stroke="white" stroke-width="2" stroke-miterlimit="10" stroke-linecap="round" stroke-linejoin="round"/>
</g>
<defs>
<clipPath id="clip0_1253_200">
<rect width="70" height="70" fill="white"/>
</clipPath>
</defs>
</svg>
