<svg width="70" height="70" viewBox="0 0 70 70" fill="none" xmlns="http://www.w3.org/2000/svg">
<g clip-path="url(#clip0_1253_189)">
<path d="M69.7714 28.5345L60.6567 42.5309C60.4765 42.8075 60.1687 42.9744 59.8386 42.9744C59.5084 42.9744 59.2006 42.8075 59.0204 42.5309L49.9057 28.5345C49.7103 28.2342 49.6947 27.8512 49.8655 27.5363C50.0362 27.2214 50.3656 27.0252 50.7238 27.0252H54.5063C52.1548 21.2788 47.3313 16.8022 41.3729 14.9121C40.859 14.7491 40.5745 14.2002 40.7376 13.6863C40.9007 13.1722 41.45 12.8878 41.9634 13.0509C48.9521 15.268 54.5119 20.7414 56.8357 27.6921C56.9352 27.9899 56.8856 28.3174 56.702 28.5722C56.5185 28.8271 56.2237 28.978 55.9097 28.978H52.5247L59.8386 40.209L67.1526 28.978H62.2616C61.8156 28.978 61.4264 28.6758 61.3158 28.2438C59.2829 20.3032 53.5887 13.5565 46.0836 10.1968C45.5914 9.97641 45.3711 9.3989 45.5914 8.90672C45.8118 8.4148 46.3891 8.19469 46.8814 8.41453C50.8326 10.1834 54.4066 12.8701 57.217 16.1843C59.889 19.3352 61.8818 23.0691 63.0088 27.0252H68.9533C69.3115 27.0252 69.6409 27.2214 69.8116 27.5363C69.9824 27.8513 69.967 28.2342 69.7714 28.5345ZM8.23324 26.2585C8.73951 26.4439 9.30033 26.1833 9.48545 25.6768C12.5638 17.2586 19.5758 10.9069 28.2423 8.68605C28.6741 8.57531 28.9762 8.18621 28.9762 7.74037V2.84556L40.2111 10.1632L28.9762 17.4775V14.0922C28.9762 13.7781 28.825 13.4834 28.5703 13.2999C28.3154 13.1163 27.9879 13.0665 27.6902 13.1663C20.6219 15.5306 15.1161 21.2016 12.9621 28.3361C12.8063 28.8523 13.0984 29.397 13.6146 29.5529C13.7087 29.5812 13.8036 29.5947 13.8972 29.5947C14.3165 29.5947 14.704 29.3225 14.8316 28.9003C16.6699 22.8109 21.1772 17.8863 27.0237 15.4953V19.2779C27.0237 19.636 27.2198 19.9655 27.5348 20.1362C27.8495 20.3067 28.2326 20.2914 28.5328 20.0961L42.5332 10.9813C42.81 10.8012 42.9768 10.4933 42.9769 10.1633C42.9769 9.83312 42.8101 9.52537 42.5334 9.34504L28.5327 0.226444C28.2325 0.0310724 27.8495 0.0157599 27.5345 0.186248C27.2197 0.356873 27.0235 0.686365 27.0235 1.04457V6.99293C18.0728 9.5374 10.8637 16.2224 7.65164 25.0063C7.46638 25.5126 7.72683 26.0734 8.23324 26.2585ZM22.8635 59.3034C15.8049 55.7702 10.6381 49.3744 8.68824 41.756C8.57763 41.3241 8.1884 41.0218 7.74242 41.0218H2.84789L10.1652 29.7905L17.4794 41.0218H14.0904C13.7764 41.0218 13.4816 41.173 13.298 41.4277C13.1145 41.6826 13.0649 42.0102 13.1645 42.3079C15.4398 49.1097 20.8576 54.5366 27.6567 56.8249C28.1675 56.9969 28.7215 56.7219 28.8935 56.211C29.0655 55.6999 28.7907 55.1462 28.2796 54.9742C22.4919 53.0263 17.7978 48.5933 15.4945 42.9744H19.2803C19.6385 42.9744 19.9678 42.7782 20.1386 42.4634C20.3093 42.1485 20.2938 41.7654 20.0984 41.4652L10.9836 27.4689C10.8034 27.1923 10.4957 27.0255 10.1655 27.0254C9.83545 27.0254 9.52769 27.1922 9.3475 27.4687L0.22863 41.4651C0.0331218 41.7652 0.0175358 42.1484 0.188298 42.4632C0.358923 42.7782 0.688415 42.9744 1.04662 42.9744H6.99484C9.22226 50.8174 14.6522 57.3767 21.9896 61.0493C22.1299 61.1196 22.279 61.1528 22.4257 61.1528C22.7837 61.1528 23.1285 60.9553 23.2995 60.6133C23.5411 60.1311 23.3457 59.5446 22.8635 59.3034ZM60.7 46.5174C60.2164 46.2799 59.6312 46.4789 59.3931 46.9628C55.8767 54.1156 49.449 59.3464 41.7582 61.3135C41.3262 61.4241 41.0239 61.8133 41.0239 62.2593V67.1542L29.789 59.8366L41.0239 52.5222V55.9114C41.0239 56.2255 41.1751 56.5203 41.4298 56.7037C41.6846 56.8872 42.0122 56.9372 42.3098 56.8373C49.2867 54.5034 54.7663 48.919 56.9676 41.8989C57.1289 41.3844 56.8426 40.8366 56.3282 40.6752C55.8138 40.514 55.2659 40.7999 55.1045 41.3147C53.2272 47.301 48.7449 52.1468 42.9766 54.5079V50.7216C42.9766 50.3634 42.7806 50.034 42.4656 49.8633C42.1508 49.6927 41.7678 49.708 41.4675 49.9035L27.4671 59.0184C27.1904 59.1984 27.0236 59.5063 27.0235 59.8364C27.0235 60.1665 27.1903 60.4743 27.467 60.6546L41.4674 69.7735C41.6288 69.8786 41.8144 69.9317 42.0002 69.9317C42.1599 69.9317 42.3201 69.8924 42.4654 69.8136C42.7803 69.6429 42.9765 69.3134 42.9765 68.9552V63.007C50.8951 60.7599 57.4893 55.2613 61.1453 47.8241C61.3833 47.3404 61.184 46.7553 60.7 46.5174ZM35 20.4837C43.0053 20.4837 49.5182 26.9965 49.5182 35.0018C49.5182 43.0049 43.0053 49.516 35 49.516C26.9969 49.516 20.4858 43.0051 20.4858 35.0018C20.4858 26.9967 26.9968 20.4837 35 20.4837ZM22.4386 35.002C22.4386 41.9284 28.0736 47.5634 35 47.5634C41.9287 47.5634 47.5656 41.9284 47.5656 35.002C47.5656 28.0733 41.9287 22.4364 35 22.4364C28.0736 22.4364 22.4386 28.0733 22.4386 35.002ZM24.0867 35.002C24.0867 28.9821 28.9825 24.0845 35 24.0845C41.0199 24.0845 45.9174 28.9821 45.9174 35.002C45.9174 41.0196 41.0199 45.9153 35 45.9153C28.9824 45.9153 24.0867 41.0196 24.0867 35.002ZM26.0394 35.002C26.0394 39.9428 30.059 43.9625 34.9999 43.9625C39.9431 43.9625 43.9646 39.9428 43.9646 35.002C43.9646 30.0588 39.9431 26.0373 34.9999 26.0373C30.0592 26.0373 26.0394 30.0588 26.0394 35.002Z" fill="white"/>
<path d="M36.4162 39.9917C36.3242 39.9912 36.2333 39.9716 36.1491 39.9343C36.065 39.897 35.9893 39.8428 35.9269 39.7748L32.1945 35.7381C32.0699 35.6116 32 35.4408 32 35.2627C32 35.0847 32.0699 34.9138 32.1945 34.7873C32.3159 34.6733 32.4763 34.6106 32.6424 34.6122H34.492C34.8036 34.6067 35.1074 34.513 35.3685 34.3419C35.6296 34.1708 35.8375 33.9292 35.9683 33.6447H33.3059C33.1417 33.6263 32.9899 33.5476 32.8797 33.4237C32.7695 33.2999 32.7086 33.1395 32.7086 32.9733C32.7086 32.8071 32.7695 32.6468 32.8797 32.5229C32.9899 32.399 33.1417 32.3204 33.3059 32.3019H36.0098C35.8778 32.019 35.6694 31.7791 35.4083 31.6096C35.1473 31.44 34.8442 31.3476 34.5334 31.3428H32.6839C32.5196 31.3244 32.3679 31.2457 32.2577 31.1218C32.1475 30.998 32.0866 30.8376 32.0866 30.6714C32.0866 30.5052 32.1475 30.3448 32.2577 30.221C32.3679 30.0971 32.5196 30.0184 32.6839 30H38.4897C38.654 30.0184 38.8057 30.0971 38.9159 30.221C39.0261 30.3448 39.087 30.5052 39.087 30.6714C39.087 30.8376 39.0261 30.998 38.9159 31.1218C38.8057 31.2457 38.654 31.3244 38.4897 31.3428H37.0051C37.1975 31.635 37.3352 31.96 37.4115 32.3019H38.5063C38.6706 32.3204 38.8223 32.399 38.9325 32.5229C39.0427 32.6468 39.1036 32.8071 39.1036 32.9733C39.1036 33.1395 39.0427 33.2999 38.9325 33.4237C38.8223 33.5476 38.6706 33.6263 38.5063 33.6447H37.4198C37.2683 34.3007 36.9007 34.8859 36.3767 35.3053C35.8527 35.7247 35.2031 35.9536 34.5334 35.955H34.2183L36.947 38.9075C37.0711 39.0325 37.1408 39.202 37.1408 39.3787C37.1408 39.5554 37.0711 39.7248 36.947 39.8499C36.8732 39.9094 36.7879 39.9527 36.6965 39.9771C36.6051 40.0015 36.5096 40.0065 36.4162 39.9917Z" fill="white"/>
</g>
<defs>
<clipPath id="clip0_1253_189">
<rect width="70" height="70" fill="white"/>
</clipPath>
</defs>
</svg>
