<svg width="70" height="70" viewBox="0 0 70 70" fill="none" xmlns="http://www.w3.org/2000/svg">
<g clip-path="url(#clip0_1223_4)">
<path d="M36.4611 70.2499H1.01953C0.456453 70.2499 0 69.7934 0 69.2304V10.8657C0 10.3026 0.456453 9.84619 1.01953 9.84619H36.4611C37.0242 9.84619 37.4806 10.3026 37.4806 10.8657V69.2304C37.4806 69.7934 37.0242 70.2499 36.4611 70.2499ZM2.03906 68.2108H35.4415V11.8853H2.03906V68.2108Z" fill="white"/>
<path d="M32.571 11.8689H4.90918C4.3461 11.8689 3.88965 11.4124 3.88965 10.8493V6.01953C3.88965 5.45645 4.3461 5 4.90918 5H32.571C33.1341 5 33.5905 5.45645 33.5905 6.01953V10.8493C33.5905 11.4124 33.1341 11.8689 32.571 11.8689ZM5.92871 9.82982H31.5515V7.03906H5.92871V9.82982Z" fill="white"/>
<path d="M11.2664 22.1328H5.71777C5.15469 22.1328 4.69824 21.6764 4.69824 21.1133V15.5647C4.69824 15.0016 5.15469 14.5452 5.71777 14.5452H11.2664C11.8294 14.5452 12.2859 15.0016 12.2859 15.5647V21.1133C12.2859 21.6764 11.8294 22.1328 11.2664 22.1328ZM6.7373 20.0938H10.2468V16.5842H6.7373V20.0938Z" fill="white"/>
<path d="M21.5144 22.1328H15.9658C15.4027 22.1328 14.9463 21.6764 14.9463 21.1133V15.5647C14.9463 15.0016 15.4027 14.5452 15.9658 14.5452H21.5144C22.0775 14.5452 22.5339 15.0016 22.5339 15.5647V21.1133C22.5339 21.6764 22.0775 22.1328 21.5144 22.1328ZM16.9854 20.0938H20.4949V16.5842H16.9854V20.0938Z" fill="white"/>
<path d="M21.5144 22.1328H15.9658C15.4027 22.1328 14.9463 21.6764 14.9463 21.1133V15.5647C14.9463 15.0016 15.4027 14.5452 15.9658 14.5452H21.5144C22.0775 14.5452 22.5339 15.0016 22.5339 15.5647V21.1133C22.5339 21.6764 22.0775 22.1328 21.5144 22.1328ZM16.9854 20.0938H20.4949V16.5842H16.9854V20.0938Z" fill="white"/>
<path d="M31.7625 22.1328H26.2139C25.6508 22.1328 25.1943 21.6764 25.1943 21.1133V15.5647C25.1943 15.0016 25.6508 14.5452 26.2139 14.5452H31.7625C32.3255 14.5452 32.782 15.0016 32.782 15.5647V21.1133C32.782 21.6764 32.3255 22.1328 31.7625 22.1328ZM27.2334 20.0938H30.7429V16.5842H27.2334V20.0938Z" fill="white"/>
<path d="M11.2664 32.3801H5.71777C5.15469 32.3801 4.69824 31.9237 4.69824 31.3606V25.812C4.69824 25.2489 5.15469 24.7925 5.71777 24.7925H11.2664C11.8294 24.7925 12.2859 25.2489 12.2859 25.812V31.3606C12.2859 31.9237 11.8294 32.3801 11.2664 32.3801ZM6.7373 30.3411H10.2468V26.8315H6.7373V30.3411Z" fill="white"/>
<path d="M21.5144 32.3801H15.9658C15.4027 32.3801 14.9463 31.9237 14.9463 31.3606V25.812C14.9463 25.2489 15.4027 24.7925 15.9658 24.7925H21.5144C22.0775 24.7925 22.5339 25.2489 22.5339 25.812V31.3606C22.5339 31.9237 22.0775 32.3801 21.5144 32.3801ZM16.9854 30.3411H20.4949V26.8315H16.9854V30.3411Z" fill="white"/>
<path d="M21.5144 32.3801H15.9658C15.4027 32.3801 14.9463 31.9237 14.9463 31.3606V25.812C14.9463 25.2489 15.4027 24.7925 15.9658 24.7925H21.5144C22.0775 24.7925 22.5339 25.2489 22.5339 25.812V31.3606C22.5339 31.9237 22.0775 32.3801 21.5144 32.3801ZM16.9854 30.3411H20.4949V26.8315H16.9854V30.3411Z" fill="white"/>
<path d="M31.7625 32.3801H26.2139C25.6508 32.3801 25.1943 31.9237 25.1943 31.3606V25.812C25.1943 25.2489 25.6508 24.7925 26.2139 24.7925H31.7625C32.3255 24.7925 32.782 25.2489 32.782 25.812V31.3606C32.782 31.9237 32.3255 32.3801 31.7625 32.3801ZM27.2334 30.3411H30.7429V26.8315H27.2334V30.3411Z" fill="white"/>
<path d="M11.2664 42.6277H5.71777C5.15469 42.6277 4.69824 42.1712 4.69824 41.6082V36.0596C4.69824 35.4965 5.15469 35.04 5.71777 35.04H11.2664C11.8294 35.04 12.2859 35.4965 12.2859 36.0596V41.6082C12.2859 42.1712 11.8294 42.6277 11.2664 42.6277ZM6.7373 40.5886H10.2468V37.0791H6.7373V40.5886Z" fill="white"/>
<path d="M21.5144 42.6277H15.9658C15.4027 42.6277 14.9463 42.1712 14.9463 41.6082V36.0596C14.9463 35.4965 15.4027 35.04 15.9658 35.04H21.5144C22.0775 35.04 22.5339 35.4965 22.5339 36.0596V41.6082C22.5339 42.1712 22.0775 42.6277 21.5144 42.6277ZM16.9854 40.5886H20.4949V37.0791H16.9854V40.5886Z" fill="white"/>
<path d="M21.5144 42.6277H15.9658C15.4027 42.6277 14.9463 42.1712 14.9463 41.6082V36.0596C14.9463 35.4965 15.4027 35.04 15.9658 35.04H21.5144C22.0775 35.04 22.5339 35.4965 22.5339 36.0596V41.6082C22.5339 42.1712 22.0775 42.6277 21.5144 42.6277ZM16.9854 40.5886H20.4949V37.0791H16.9854V40.5886Z" fill="white"/>
<path d="M31.7625 42.6277H26.2139C25.6508 42.6277 25.1943 42.1712 25.1943 41.6082V36.0596C25.1943 35.4965 25.6508 35.04 26.2139 35.04H31.7625C32.3255 35.04 32.782 35.4965 32.782 36.0596V41.6082C32.782 42.1712 32.3255 42.6277 31.7625 42.6277ZM27.2334 40.5886H30.7429V37.0791H27.2334V40.5886Z" fill="white"/>
<path d="M51.4085 70.2502H36.4619C35.8988 70.2502 35.4424 69.7937 35.4424 69.2307V23.5413C35.4424 22.9782 35.8988 22.5217 36.4619 22.5217H51.4085C51.9716 22.5217 52.428 22.9782 52.428 23.5413V41.9636C52.428 42.5267 51.9716 42.9831 51.4085 42.9831C50.8454 42.9831 50.389 42.5267 50.389 41.9636V24.5608H37.4814V68.2111H51.3867C51.3939 68.211 51.4012 68.2109 51.4085 68.2109C51.9716 68.2109 52.428 68.6671 52.428 69.2302C52.428 69.7933 51.9716 70.2502 51.4085 70.2502Z" fill="white"/>
<path d="M46.7087 34.8083H41.1602C40.5971 34.8083 40.1406 34.3519 40.1406 33.7888V28.2402C40.1406 27.6772 40.5971 27.2207 41.1602 27.2207H46.7087C47.2718 27.2207 47.7283 27.6772 47.7283 28.2402V33.7888C47.7283 34.3519 47.2718 34.8083 46.7087 34.8083ZM42.1797 32.7692H45.6892V29.2597H42.1797V32.7692Z" fill="white"/>
<path d="M11.2664 52.8752H5.71777C5.15469 52.8752 4.69824 52.4188 4.69824 51.8557V46.3071C4.69824 45.7441 5.15469 45.2876 5.71777 45.2876H11.2664C11.8294 45.2876 12.2859 45.7441 12.2859 46.3071V51.8557C12.2859 52.4188 11.8294 52.8752 11.2664 52.8752ZM6.7373 50.8362H10.2468V47.3267H6.7373V50.8362Z" fill="white"/>
<path d="M21.5144 52.8752H15.9658C15.4027 52.8752 14.9463 52.4188 14.9463 51.8557V46.3071C14.9463 45.7441 15.4027 45.2876 15.9658 45.2876H21.5144C22.0775 45.2876 22.5339 45.7441 22.5339 46.3071V51.8557C22.5339 52.4188 22.0775 52.8752 21.5144 52.8752ZM16.9854 50.8362H20.4949V47.3267H16.9854V50.8362Z" fill="white"/>
<path d="M21.5144 52.8752H15.9658C15.4027 52.8752 14.9463 52.4188 14.9463 51.8557V46.3071C14.9463 45.7441 15.4027 45.2876 15.9658 45.2876H21.5144C22.0775 45.2876 22.5339 45.7441 22.5339 46.3071V51.8557C22.5339 52.4188 22.0775 52.8752 21.5144 52.8752ZM16.9854 50.8362H20.4949V47.3267H16.9854V50.8362Z" fill="white"/>
<path d="M31.7625 52.8752H26.2139C25.6508 52.8752 25.1943 52.4188 25.1943 51.8557V46.3071C25.1943 45.7441 25.6508 45.2876 26.2139 45.2876H31.7625C32.3255 45.2876 32.782 45.7441 32.782 46.3071V51.8557C32.782 52.4188 32.3255 52.8752 31.7625 52.8752ZM27.2334 50.8362H30.7429V47.3267H27.2334V50.8362Z" fill="white"/>
<path d="M24.225 70.2499H13.2539C12.6908 70.2499 12.2344 69.7934 12.2344 69.2304V56.7554C12.2344 56.1923 12.6908 55.7358 13.2539 55.7358H24.225C24.7881 55.7358 25.2446 56.1923 25.2446 56.7554V69.2304C25.2446 69.7934 24.7881 70.2499 24.225 70.2499ZM14.2734 68.2108H23.2055V57.7749H14.2734V68.2108Z" fill="white"/>
<path d="M18.7402 70.2499C18.1772 70.2499 17.7207 69.7934 17.7207 69.2304V56.7554C17.7207 56.1923 18.1772 55.7358 18.7402 55.7358C19.3033 55.7358 19.7598 56.1923 19.7598 56.7554V69.2304C19.7598 69.7934 19.3033 70.2499 18.7402 70.2499Z" fill="white"/>
<path d="M51.5499 70.2497C51.5022 70.2497 51.4548 70.2496 51.4078 70.2495C49.6954 70.2552 47.4567 70.1586 45.3198 69.3503C44.0736 68.879 42.9374 68.1625 42.0339 67.2785C41.0293 66.2953 40.3358 65.1196 40.0288 63.8783C39.5609 61.9876 39.9852 60.0698 40.407 58.6102C41.6516 54.3025 43.9382 50.304 47.0198 47.0469C47.4067 46.6379 48.052 46.62 48.461 47.007C48.8701 47.3939 48.8879 48.0392 48.5009 48.4483C45.6421 51.4701 43.5206 55.1798 42.3659 59.1763C42.0147 60.3914 41.6567 61.9683 42.0081 63.3885C42.4339 65.1097 43.9792 66.6633 46.0411 67.4431C47.8675 68.1339 49.8673 68.2157 51.4041 68.2104H51.4116C52.9487 68.2159 54.9482 68.1339 56.7746 67.4431C58.8364 66.6633 60.3817 65.1096 60.8075 63.3886C61.159 61.9682 60.801 60.3914 60.4498 59.1763C59.295 55.1798 57.1736 51.4701 54.3147 48.4483C53.9278 48.0392 53.9456 47.394 54.3546 47.007C54.7637 46.62 55.4089 46.6379 55.7959 47.0469C58.8774 50.304 61.1641 54.3025 62.4087 58.6102C62.8305 60.0698 63.2547 61.9876 62.7868 63.8784C62.4798 65.1196 61.7864 66.2953 60.7817 67.2785C59.8783 68.1626 58.742 68.879 57.4959 69.3503C55.4176 70.1364 53.243 70.2497 51.5499 70.2497Z" fill="white"/>
<path d="M54.867 48.7672H47.9484C47.5283 48.7672 47.1512 48.5095 46.9986 48.1181L44.7426 42.3339C44.6202 42.0201 44.6606 41.6662 44.8506 41.3882C45.0407 41.1101 45.3557 40.9438 45.6924 40.9438C46.6882 40.9438 47.2407 41.274 47.6442 41.5151C47.949 41.6973 48.117 41.7977 48.5499 41.7977C48.9829 41.7977 49.1508 41.6973 49.4557 41.5151C49.8592 41.274 50.4117 40.9438 51.4075 40.9438C52.4034 40.9438 52.9559 41.274 53.3593 41.5151C53.6643 41.6973 53.8322 41.7977 54.2653 41.7977C54.6983 41.7977 54.8663 41.6973 55.1712 41.5151C55.5746 41.274 56.1272 40.9438 57.123 40.9438C57.4598 40.9438 57.7748 41.1101 57.9648 41.3882C58.1548 41.6662 58.1952 42.0201 58.0728 42.3339L55.8168 48.1181C55.6642 48.5095 55.2872 48.7672 54.867 48.7672ZM48.6451 46.7281H54.1703L55.3606 43.6765C55.0664 43.7709 54.7101 43.8367 54.2653 43.8367C53.2695 43.8367 52.7169 43.5066 52.3135 43.2654C52.0086 43.0832 51.8406 42.9829 51.4076 42.9829C50.9746 42.9829 50.8066 43.0832 50.5018 43.2654C50.0983 43.5066 49.5458 43.8367 48.55 43.8367C48.1053 43.8367 47.749 43.7709 47.4549 43.6765L48.6451 46.7281Z" fill="white"/>
<path d="M52.9746 62.9925C52.8918 62.992 52.81 62.9745 52.7342 62.9409C52.6585 62.9073 52.5904 62.8585 52.5342 62.7974L49.175 59.1643C49.0629 59.0505 49 58.8967 49 58.7365C49 58.5762 49.0629 58.4225 49.175 58.3086C49.2843 58.206 49.4286 58.1495 49.5781 58.151H51.2428C51.5232 58.146 51.7966 58.0617 52.0316 57.9077C52.2666 57.7537 52.4537 57.5362 52.5715 57.2802H50.1753C50.0275 57.2637 49.8909 57.1928 49.7918 57.0814C49.6926 56.9699 49.6378 56.8256 49.6378 56.676C49.6378 56.5264 49.6926 56.3821 49.7918 56.2706C49.8909 56.1591 50.0275 56.0883 50.1753 56.0717H52.6088C52.49 55.8171 52.3024 55.6012 52.0675 55.4486C51.8326 55.296 51.5597 55.2128 51.2801 55.2085H49.6155C49.4676 55.1919 49.3311 55.1211 49.2319 55.0096C49.1327 54.8982 49.0779 54.7538 49.0779 54.6043C49.0779 54.4547 49.1327 54.3104 49.2319 54.1989C49.3311 54.0874 49.4676 54.0166 49.6155 54H54.8408C54.9886 54.0166 55.1251 54.0874 55.2243 54.1989C55.3235 54.3104 55.3783 54.4547 55.3783 54.6043C55.3783 54.7538 55.3235 54.8982 55.2243 55.0096C55.1251 55.1211 54.9886 55.1919 54.8408 55.2085H53.5046C53.6778 55.4715 53.8017 55.764 53.8704 56.0717H54.8557C55.0035 56.0883 55.1401 56.1591 55.2392 56.2706C55.3384 56.3821 55.3933 56.5264 55.3933 56.676C55.3933 56.8256 55.3384 56.9699 55.2392 57.0814C55.1401 57.1928 55.0035 57.2637 54.8557 57.2802H53.8778C53.7414 57.8706 53.4106 58.3973 52.939 58.7748C52.4674 59.1522 51.8828 59.3583 51.2801 59.3595H50.9964L53.4523 62.0167C53.564 62.1293 53.6267 62.2818 53.6267 62.4408C53.6267 62.5998 53.564 62.7523 53.4523 62.8649C53.3859 62.9184 53.3091 62.9574 53.2268 62.9794C53.1446 63.0013 53.0587 63.0058 52.9746 62.9925Z" fill="white"/>
</g>
<defs>
<clipPath id="clip0_1223_4">
<rect width="70" height="70" fill="white"/>
</clipPath>
</defs>
</svg>
