<svg width="70" height="70" viewBox="0 0 70 70" fill="none" xmlns="http://www.w3.org/2000/svg">
<path d="M16.4063 38.2813C14.4593 38.2812 12.5562 38.8586 10.9374 39.9402C9.31856 41.0219 8.05687 42.5593 7.31182 44.358C6.56677 46.1567 6.37183 48.1359 6.75165 50.0454C7.13147 51.9549 8.069 53.7089 9.44567 55.0856C10.8223 56.4623 12.5763 57.3998 14.4858 57.7796C16.3953 58.1594 18.3746 57.9645 20.1733 57.2194C21.972 56.4744 23.5094 55.2127 24.591 53.5939C25.6727 51.9751 26.25 50.0719 26.25 48.125C26.2471 45.5152 25.2091 43.013 23.3636 41.1676C21.5182 39.3222 19.0161 38.2841 16.4063 38.2813ZM16.4063 55.7812C14.892 55.7812 13.4117 55.3322 12.1527 54.4909C10.8936 53.6497 9.91229 52.4539 9.3328 51.0549C8.75332 49.6559 8.6017 48.1165 8.89712 46.6313C9.19254 45.1462 9.92172 43.782 10.9925 42.7112C12.0632 41.6405 13.4274 40.9113 14.9126 40.6159C16.3978 40.3204 17.9372 40.4721 19.3362 41.0515C20.7352 41.631 21.9309 42.6124 22.7722 43.8714C23.6135 45.1305 24.0625 46.6107 24.0625 48.125C24.0602 50.1549 23.2528 52.1009 21.8175 53.5362C20.3822 54.9716 18.4361 55.7789 16.4063 55.7812Z" fill="white"/>
<path d="M22.9688 7.65625H25.1562V9.84375H22.9688V7.65625Z" fill="white"/>
<path d="M67.8125 37.1875V33.9062C67.8125 33.6162 67.6973 33.338 67.4921 33.1328C67.287 32.9277 67.0088 32.8125 66.7188 32.8125H62.3438C61.3242 32.8119 60.3149 33.0159 59.3755 33.4123C58.4362 33.8087 57.5859 34.3895 56.875 35.1203V33.8406C59.3753 33.5611 61.6737 32.3348 63.2982 30.4136C64.9226 28.4924 65.7497 26.0221 65.6097 23.5101C65.4698 20.9981 64.3732 18.635 62.5454 16.9062C60.7176 15.1774 58.2972 14.2141 55.7812 14.2141C53.2653 14.2141 50.8449 15.1774 49.0171 16.9062C47.1893 18.635 46.0927 20.9981 45.9528 23.5101C45.8128 26.0221 46.6399 28.4924 48.2643 30.4136C49.8888 32.3348 52.1872 33.5611 54.6875 33.8406V35.1203C53.9766 34.3895 53.1263 33.8087 52.187 33.4123C51.2476 33.0159 50.2383 32.8119 49.2188 32.8125H44.8438C44.5537 32.8125 44.2755 32.9277 44.0704 33.1328C43.8652 33.338 43.75 33.6162 43.75 33.9062V37.1875C43.7494 38.207 43.9534 39.2164 44.3498 40.1557C44.7462 41.095 45.327 41.9453 46.0578 42.6562H44.8438C44.5537 42.6562 44.2755 42.7715 44.0704 42.9766C43.8652 43.1817 43.75 43.4599 43.75 43.75V48.125H42.6562V31.7187C42.6562 31.4287 42.541 31.1505 42.3359 30.9453C42.1308 30.7402 41.8526 30.625 41.5625 30.625V22.9687H42.6562C42.9463 22.9687 43.2245 22.8535 43.4296 22.6484C43.6348 22.4433 43.75 22.1651 43.75 21.875V18.5937H44.8438C45.1338 18.5937 45.412 18.4785 45.6171 18.2734C45.8223 18.0683 45.9375 17.7901 45.9375 17.5V8.74999C45.9353 8.50784 45.854 8.27306 45.7059 8.08149C45.5577 7.88992 45.351 7.75209 45.1172 7.68905L24.3359 2.2203C24.1563 2.17657 23.9687 2.17657 23.7891 2.2203L3.00781 7.68905C2.77401 7.75209 2.56725 7.88992 2.41913 8.08149C2.27101 8.27306 2.18966 8.50784 2.1875 8.74999V17.5C2.1875 17.7901 2.30273 18.0683 2.50785 18.2734C2.71297 18.4785 2.99117 18.5937 3.28125 18.5937H4.375V21.875C4.375 22.1651 4.49023 22.4433 4.69535 22.6484C4.90047 22.8535 5.17867 22.9687 5.46875 22.9687H6.5625V30.625H3.28125C2.99117 30.625 2.71297 30.7402 2.50785 30.9453C2.30273 31.1505 2.1875 31.4287 2.1875 31.7187V64.5312C2.1875 64.8213 2.30273 65.0995 2.50785 65.3046C2.71297 65.5098 2.99117 65.625 3.28125 65.625H12.0312C12.0312 65.9151 12.1465 66.1933 12.3516 66.3984C12.5567 66.6035 12.8349 66.7187 13.125 66.7187H65.625C65.9151 66.7187 66.1933 66.6035 66.3984 66.3984C66.6035 66.1933 66.7188 65.9151 66.7188 65.625V60.1562C66.7188 59.8662 66.6035 59.588 66.3984 59.3828C66.1933 59.1777 65.9151 59.0625 65.625 59.0625H63.4375V55.7812H66.7188C67.0088 55.7812 67.287 55.666 67.4921 55.4609C67.6973 55.2558 67.8125 54.9776 67.8125 54.6875V49.2187C67.8125 48.9287 67.6973 48.6505 67.4921 48.4453C67.287 48.2402 67.0088 48.125 66.7188 48.125H63.4375V44.0891C64.7441 43.4693 65.8484 42.4921 66.6227 41.2707C67.397 40.0493 67.8095 38.6336 67.8125 37.1875ZM48.125 24.0625C48.125 22.5482 48.574 21.068 49.4153 19.8089C50.2566 18.5498 51.4523 17.5685 52.8513 16.989C54.2503 16.4096 55.7897 16.2579 57.2749 16.5534C58.7601 16.8488 60.1243 17.578 61.195 18.6487C62.2658 19.7194 62.995 21.0837 63.2904 22.5688C63.5858 24.054 63.4342 25.5934 62.8547 26.9924C62.2752 28.3914 61.2939 29.5872 60.0348 30.4284C58.7758 31.2697 57.2955 31.7187 55.7812 31.7187C53.7514 31.7164 51.8053 30.909 50.37 29.4737C48.9347 28.0384 48.1273 26.0923 48.125 24.0625ZM45.9375 37.1875V35H49.2188C50.6692 35 52.0602 35.5762 53.0857 36.6017C54.1113 37.6273 54.6875 39.0183 54.6875 40.4687V42.6562H51.4062C49.9558 42.6562 48.5648 42.0801 47.5393 41.0545C46.5137 40.0289 45.9375 38.6379 45.9375 37.1875ZM45.9375 44.8437H61.25V48.125H45.9375V44.8437ZM48.125 50.3125V53.5937H32.8125V50.3125H48.125ZM41.5625 20.7812H35V18.5937H41.5625V20.7812ZM39.375 22.9687V30.625H37.1875V22.9687H39.375ZM4.375 9.59218L24.0625 4.4078L43.75 9.59218V12.0312H4.375V9.59218ZM4.375 16.4062V14.2187H43.75V16.4062H4.375ZM20.7812 20.7812V18.5937H27.3438V20.7812H20.7812ZM25.1562 22.9687V30.625H22.9688V22.9687H25.1562ZM27.3438 22.9687H28.4375C28.7276 22.9687 29.0058 22.8535 29.2109 22.6484C29.416 22.4433 29.5312 22.1651 29.5312 21.875V18.5937H32.8125V21.875C32.8125 22.1651 32.9277 22.4433 33.1329 22.6484C33.338 22.8535 33.6162 22.9687 33.9062 22.9687H35V30.625H27.3438V22.9687ZM6.5625 20.7812V18.5937H13.125V20.7812H6.5625ZM10.9375 22.9687V30.625H8.75V22.9687H10.9375ZM13.125 22.9687H14.2188C14.5088 22.9687 14.787 22.8535 14.9921 22.6484C15.1973 22.4433 15.3125 22.1651 15.3125 21.875V18.5937H18.5938V21.875C18.5938 22.1651 18.709 22.4433 18.9141 22.6484C19.1192 22.8535 19.3974 22.9687 19.6875 22.9687H20.7812V30.625H13.125V22.9687ZM4.375 32.8125H40.4688V48.125H38.2812V40.4687C38.2812 40.1787 38.166 39.9005 37.9609 39.6953C37.7558 39.4902 37.4776 39.375 37.1875 39.375C36.3181 39.3724 35.485 39.0259 34.8702 38.4111C34.2554 37.7963 33.9088 36.9632 33.9062 36.0937C33.9062 35.8037 33.791 35.5255 33.5859 35.3203C33.3808 35.1152 33.1026 35 32.8125 35H4.375V32.8125ZM12.0312 63.4375H4.375V61.25H12.0312V63.4375ZM4.375 59.0625V37.1875H31.8281C32.0438 38.2379 32.5629 39.2019 33.3211 39.9601C34.0793 40.7183 35.0434 41.2374 36.0938 41.4531V48.125H31.7188C31.4287 48.125 31.1505 48.2402 30.9454 48.4453C30.7402 48.6505 30.625 48.9287 30.625 49.2187V53.5937H27.3438C27.0537 53.5937 26.7755 53.709 26.5704 53.9141C26.3652 54.1192 26.25 54.3974 26.25 54.6875V59.0625H4.375ZM29.5312 64.5312H14.2188V61.25H29.5312V64.5312ZM28.4375 59.0625V55.7812H43.75V59.0625H28.4375ZM47.0312 64.5312H31.7188V61.25H47.0312V64.5312ZM45.9375 59.0625V55.7812H61.25V59.0625H45.9375ZM64.5312 61.25V64.5312H49.2188V61.25H64.5312ZM65.625 50.3125V53.5937H50.3125V50.3125H65.625ZM60.1562 42.6562H56.875V40.4687C56.875 39.0183 57.4512 37.6273 58.4768 36.6017C59.5023 35.5762 60.8933 35 62.3438 35H65.625V37.1875C65.625 38.6379 65.0488 40.0289 64.0232 41.0545C62.9977 42.0801 61.6067 42.6562 60.1562 42.6562Z" fill="white"/>
<path d="M56.4162 28.9917C56.3242 28.9912 56.2333 28.9716 56.1491 28.9343C56.065 28.897 55.9893 28.8428 55.9269 28.7748L52.1945 24.7381C52.0699 24.6116 52 24.4408 52 24.2627C52 24.0847 52.0699 23.9138 52.1945 23.7873C52.3159 23.6733 52.4763 23.6106 52.6424 23.6122H54.492C54.8036 23.6067 55.1074 23.513 55.3685 23.3419C55.6296 23.1708 55.8375 22.9292 55.9683 22.6447H53.3059C53.1417 22.6263 52.9899 22.5476 52.8797 22.4237C52.7695 22.2999 52.7086 22.1395 52.7086 21.9733C52.7086 21.8071 52.7695 21.6468 52.8797 21.5229C52.9899 21.399 53.1417 21.3204 53.3059 21.3019H56.0098C55.8778 21.019 55.6694 20.7791 55.4083 20.6096C55.1473 20.44 54.8442 20.3476 54.5334 20.3428H52.6839C52.5196 20.3244 52.3679 20.2457 52.2577 20.1218C52.1475 19.998 52.0866 19.8376 52.0866 19.6714C52.0866 19.5052 52.1475 19.3448 52.2577 19.221C52.3679 19.0971 52.5196 19.0184 52.6839 19H58.4897C58.654 19.0184 58.8057 19.0971 58.9159 19.221C59.0261 19.3448 59.087 19.5052 59.087 19.6714C59.087 19.8376 59.0261 19.998 58.9159 20.1218C58.8057 20.2457 58.654 20.3244 58.4897 20.3428H57.0051C57.1975 20.635 57.3352 20.96 57.4115 21.3019H58.5063C58.6706 21.3204 58.8223 21.399 58.9325 21.5229C59.0427 21.6468 59.1036 21.8071 59.1036 21.9733C59.1036 22.1395 59.0427 22.2999 58.9325 22.4237C58.8223 22.5476 58.6706 22.6263 58.5063 22.6447H57.4198C57.2683 23.3007 56.9007 23.8859 56.3767 24.3053C55.8527 24.7247 55.2031 24.9536 54.5334 24.955H54.2183L56.947 27.9075C57.0711 28.0325 57.1408 28.202 57.1408 28.3787C57.1408 28.5554 57.0711 28.7248 56.947 28.8499C56.8732 28.9094 56.7879 28.9527 56.6965 28.9771C56.6051 29.0015 56.5096 29.0065 56.4162 28.9917Z" fill="white"/>
</svg>
