<svg width="70" height="70" viewBox="0 0 70 70" fill="none" xmlns="http://www.w3.org/2000/svg">
<path d="M67.8125 66.7188H66.2375V64.4656C66.6757 64.3821 67.0923 64.2101 67.4618 63.9602C67.8314 63.7102 68.146 63.3875 68.3866 63.0118C68.6272 62.6361 68.7886 62.2153 68.861 61.7751C68.9334 61.3349 68.9153 60.8845 68.8078 60.4516L66.7188 52.1719C66.6306 51.8153 66.4253 51.4986 66.1358 51.2725C65.8462 51.0464 65.4892 50.9241 65.1219 50.925C64.7554 50.9226 64.399 51.0447 64.1109 51.2712C63.8228 51.4977 63.6201 51.8152 63.5359 52.1719L61.4578 60.4516C61.3503 60.8845 61.3322 61.3349 61.4046 61.7751C61.477 62.2153 61.6385 62.6361 61.879 63.0118C62.1196 63.3875 62.4343 63.7102 62.8038 63.9602C63.1733 64.2101 63.5899 64.3821 64.0281 64.4656V66.7188H60.1562V50.3125C60.1562 50.0224 60.041 49.7442 59.8359 49.5391C59.6308 49.334 59.3526 49.2188 59.0625 49.2188H45.9375C45.6474 49.2188 45.3692 49.334 45.1641 49.5391C44.959 49.7442 44.8438 50.0224 44.8438 50.3125V66.7188H38.2812V62.3438H41.5625C41.8526 62.3438 42.1308 62.2285 42.3359 62.0234C42.541 61.8183 42.6562 61.5401 42.6562 61.25V56.875C42.6562 56.5849 42.541 56.3067 42.3359 56.1016C42.1308 55.8965 41.8526 55.7812 41.5625 55.7812H38.2812V51.4062H41.5625C41.8526 51.4062 42.1308 51.291 42.3359 51.0859C42.541 50.8808 42.6562 50.6026 42.6562 50.3125V45.9375C42.6562 45.6474 42.541 45.3692 42.3359 45.1641C42.1308 44.959 41.8526 44.8438 41.5625 44.8438H39.375V40.4688C39.375 40.1787 39.2598 39.9005 39.0546 39.6954C38.8495 39.4902 38.5713 39.375 38.2812 39.375C37.9912 39.375 37.713 39.4902 37.5079 39.6954C37.3027 39.9005 37.1875 40.1787 37.1875 40.4688V44.8438H32.8125V36.0938C32.8125 35.8037 32.6973 35.5255 32.4921 35.3204C32.287 35.1152 32.0088 35 31.7188 35C31.4287 35 31.1505 35.1152 30.9454 35.3204C30.7402 35.5255 30.625 35.8037 30.625 36.0938V44.8438H28.4375V39.375C28.4375 37.3444 27.6309 35.397 26.195 33.9612C24.7592 32.5254 22.8118 31.7188 20.7812 31.7188H18.5938C16.5632 31.7188 14.6158 32.5254 13.18 33.9612C11.7441 35.397 10.9375 37.3444 10.9375 39.375V66.7188H6.08125V64.4656C6.51948 64.3821 6.93609 64.2101 7.30559 63.9602C7.6751 63.7102 7.98976 63.3875 8.23033 63.0118C8.4709 62.6361 8.63233 62.2153 8.70475 61.7751C8.77718 61.3349 8.75908 60.8845 8.65156 60.4516L6.5625 52.1719C6.47434 51.8153 6.26905 51.4986 5.97952 51.2725C5.68999 51.0464 5.33296 50.9241 4.96563 50.925C4.60292 50.9276 4.25158 51.0519 3.96796 51.278C3.68434 51.5041 3.48488 51.8189 3.40156 52.1719L1.32344 60.4516C1.21592 60.8845 1.19782 61.3349 1.27025 61.7751C1.34267 62.2153 1.5041 62.6361 1.74467 63.0118C1.98524 63.3875 2.2999 63.7102 2.66941 63.9602C3.03891 64.2101 3.45552 64.3821 3.89375 64.4656V66.7188H2.1875C1.89742 66.7188 1.61922 66.834 1.4141 67.0391C1.20898 67.2442 1.09375 67.5224 1.09375 67.8125C1.09375 68.1026 1.20898 68.3808 1.4141 68.5859C1.61922 68.791 1.89742 68.9062 2.1875 68.9062H67.8125C68.1026 68.9062 68.3808 68.791 68.5859 68.5859C68.791 68.3808 68.9062 68.1026 68.9062 67.8125C68.9062 67.5224 68.791 67.2442 68.5859 67.0391C68.3808 66.834 68.1026 66.7188 67.8125 66.7188ZM63.6016 60.9875L65.1438 54.8187L66.7188 60.9875C66.7597 61.1489 66.7633 61.3176 66.7291 61.4806C66.695 61.6436 66.6241 61.7967 66.5219 61.9281C66.4155 62.0629 66.2789 62.1708 66.1231 62.243C65.9673 62.3152 65.7966 62.3497 65.625 62.3438H64.6625C64.4964 62.3446 64.3322 62.3077 64.1825 62.2357C64.0328 62.1637 63.9014 62.0585 63.7984 61.9281C63.6962 61.7967 63.6253 61.6436 63.5912 61.4806C63.557 61.3176 63.5606 61.1489 63.6016 60.9875ZM3.44531 60.9875L4.9875 54.8187L6.5625 60.9875C6.60346 61.1489 6.60702 61.3176 6.5729 61.4806C6.53878 61.6436 6.46789 61.7967 6.36563 61.9281C6.25926 62.0629 6.12263 62.1708 5.96682 62.243C5.81101 62.3152 5.64038 62.3497 5.46875 62.3438H4.50625C4.34012 62.3446 4.17596 62.3077 4.02625 62.2357C3.87653 62.1637 3.74519 62.0585 3.64219 61.9281C3.53992 61.7967 3.46903 61.6436 3.43491 61.4806C3.40079 61.3176 3.40435 61.1489 3.44531 60.9875ZM57.9688 66.7188H55.7812V51.4062H57.9688V66.7188ZM53.5938 57.9688H47.0312V55.7812H53.5938V57.9688ZM53.5938 60.1562V62.3438H47.0312V60.1562H53.5938ZM53.5938 51.4062V53.5938H47.0312V51.4062H53.5938ZM47.0312 64.5312H53.5938V66.7188H47.0312V64.5312ZM36.0938 66.7188H33.9062V62.3438H36.0938V66.7188ZM28.4375 55.7812V51.4062H31.7188V55.7812H28.4375ZM28.4375 62.3438H31.7188V66.7188H28.4375V62.3438ZM40.4688 60.1562H28.4375V57.9688H40.4688V60.1562ZM36.0938 55.7812H33.9062V51.4062H36.0938V55.7812ZM40.4688 47.0312V49.2188H28.4375V47.0312H40.4688ZM26.25 39.375V41.5625H24.0625C24.0625 41.2125 24.0625 40.8406 24.0625 40.4688C24.051 38.3524 23.6197 36.2594 22.7938 34.3109C23.8099 34.7131 24.6822 35.4104 25.2983 36.3131C25.9143 37.2157 26.2458 38.2822 26.25 39.375ZM17.5 41.5625C17.5 41.2125 17.5 40.8516 17.5 40.4688C17.5115 38.173 18.0981 35.9168 19.2062 33.9062H20.1688C21.2769 35.9168 21.8635 38.173 21.875 40.4688C21.875 40.8516 21.875 41.2125 21.875 41.5625H17.5ZM13.125 39.375C13.1226 38.2766 13.451 37.2029 14.0675 36.2938C14.684 35.3847 15.5599 34.6823 16.5813 34.2781C15.751 36.2368 15.3197 38.3414 15.3125 40.4688C15.3125 40.8406 15.3125 41.2125 15.3125 41.5625H13.125V39.375ZM24.0625 66.7188V64.5312C24.0625 64.2412 23.9473 63.963 23.7421 63.7579C23.537 63.5527 23.2588 63.4375 22.9688 63.4375C22.6787 63.4375 22.4005 63.5527 22.1954 63.7579C21.9902 63.963 21.875 64.2412 21.875 64.5312V66.7188H17.5V64.5312C17.5 64.2412 17.3848 63.963 17.1796 63.7579C16.9745 63.5527 16.6963 63.4375 16.4062 63.4375C16.1162 63.4375 15.838 63.5527 15.6329 63.7579C15.4277 63.963 15.3125 64.2412 15.3125 64.5312V66.7188H13.125V43.75H26.25V66.7188H24.0625Z" fill="white"/>
<path d="M16.4062 48.125C17.0103 48.125 17.5 47.6353 17.5 47.0312C17.5 46.4272 17.0103 45.9375 16.4062 45.9375C15.8022 45.9375 15.3125 46.4272 15.3125 47.0312C15.3125 47.6353 15.8022 48.125 16.4062 48.125Z" fill="white"/>
<path d="M22.9688 48.125C23.5728 48.125 24.0625 47.6353 24.0625 47.0312C24.0625 46.4272 23.5728 45.9375 22.9688 45.9375C22.3647 45.9375 21.875 46.4272 21.875 47.0312C21.875 47.6353 22.3647 48.125 22.9688 48.125Z" fill="white"/>
<path d="M24.0625 51.4062C24.0625 50.8022 23.5728 50.3125 22.9688 50.3125C22.3647 50.3125 21.875 50.8022 21.875 51.4062V53.5938C21.875 54.1978 22.3647 54.6875 22.9688 54.6875C23.5728 54.6875 24.0625 54.1978 24.0625 53.5938V51.4062Z" fill="white"/>
<path d="M17.5 51.4062C17.5 50.8022 17.0103 50.3125 16.4062 50.3125C15.8022 50.3125 15.3125 50.8022 15.3125 51.4062V53.5938C15.3125 54.1978 15.8022 54.6875 16.4062 54.6875C17.0103 54.6875 17.5 54.1978 17.5 53.5938V51.4062Z" fill="white"/>
<path d="M24.0625 57.9688C24.0625 57.3647 23.5728 56.875 22.9688 56.875C22.3647 56.875 21.875 57.3647 21.875 57.9688V60.1562C21.875 60.7603 22.3647 61.25 22.9688 61.25C23.5728 61.25 24.0625 60.7603 24.0625 60.1562V57.9688Z" fill="white"/>
<path d="M17.5 57.9688C17.5 57.3647 17.0103 56.875 16.4062 56.875C15.8022 56.875 15.3125 57.3647 15.3125 57.9688V60.1562C15.3125 60.7603 15.8022 61.25 16.4062 61.25C17.0103 61.25 17.5 60.7603 17.5 60.1562V57.9688Z" fill="white"/>
<path d="M35.0002 3.28113C38.0508 3.277 41.0837 3.74558 43.9908 4.67019C44.2297 4.74913 44.4885 4.74327 44.7236 4.65361C44.9587 4.56396 45.1557 4.39598 45.2814 4.17801C45.363 4.03815 45.4125 3.88193 45.4264 3.72061C45.4403 3.5593 45.4182 3.39691 45.3616 3.24518C45.3051 3.09345 45.2157 2.95616 45.0996 2.84322C44.9836 2.73027 44.844 2.64449 44.6908 2.59207C38.6342 0.644198 32.1319 0.562667 26.0284 2.35807C19.9249 4.15346 14.5024 7.74281 10.4652 12.6598C6.42799 17.5769 3.96275 23.5944 3.3897 29.9306C2.81664 36.2668 4.16226 42.6289 7.25174 48.1905C7.39678 48.4429 7.63613 48.6273 7.91714 48.7032C8.19816 48.7791 8.49781 48.7402 8.75018 48.5952C9.00255 48.4502 9.18696 48.2108 9.26286 47.9298C9.33875 47.6488 9.2999 47.3491 9.15486 47.0968C6.67015 42.6008 5.40116 37.5345 5.47321 32.3982C5.54526 27.2618 6.95585 22.2331 9.56569 17.8087C12.1755 13.3842 15.8943 9.717 20.3549 7.16927C24.8154 4.62153 29.8633 3.28137 35.0002 3.28113Z" fill="white"/>
<path d="M68.1844 15.8595L66.7734 15.1376C66.5095 14.2205 66.1426 13.3362 65.6797 12.5017L66.1609 10.9376C66.214 10.7699 66.2257 10.5918 66.1953 10.4185C66.1648 10.2453 66.093 10.0819 65.9859 9.9423C65.2137 8.92892 64.3087 8.02395 63.2953 7.25167C63.1571 7.15882 62.9996 7.09874 62.8347 7.07599C62.6698 7.05325 62.5019 7.06844 62.3437 7.12042L60.7797 7.65636C59.9451 7.19347 59.0609 6.82655 58.1437 6.56261L57.4219 5.09698C57.3404 4.94047 57.2222 4.806 57.0774 4.70506C56.9327 4.60411 56.7657 4.53969 56.5906 4.5173C55.3295 4.32041 54.0455 4.32041 52.7844 4.5173C52.6093 4.53969 52.4423 4.60411 52.2976 4.70506C52.1528 4.806 52.0346 4.94047 51.9531 5.09698L51.2312 6.56261C50.3141 6.82655 49.4299 7.19347 48.5953 7.65636L47.0312 7.12042C46.8635 7.06739 46.6854 7.05561 46.5122 7.08608C46.3389 7.11654 46.1755 7.18835 46.0359 7.29542C45.0226 8.0677 44.1176 8.97267 43.3453 9.98605C43.2382 10.1256 43.1664 10.289 43.136 10.4623C43.1055 10.6356 43.1173 10.8136 43.1703 10.9814L43.75 12.5017C43.2871 13.3362 42.9202 14.2205 42.6562 15.1376L41.2453 15.8595C41.0888 15.941 40.9543 16.0592 40.8534 16.2039C40.7524 16.3487 40.688 16.5157 40.6656 16.6907C40.476 17.9524 40.476 19.2353 40.6656 20.497C40.688 20.672 40.7524 20.839 40.8534 20.9838C40.9543 21.1285 41.0888 21.2467 41.2453 21.3282L42.6562 22.0501C42.9202 22.9672 43.2871 23.8515 43.75 24.686L43.2141 26.2501C43.161 26.4179 43.1492 26.5959 43.1797 26.7692C43.2102 26.9425 43.282 27.1058 43.3891 27.2454C44.1613 28.2588 45.0663 29.1638 46.0797 29.936C46.2193 30.0431 46.3826 30.1149 46.5559 30.1454C46.7292 30.1759 46.9072 30.1641 47.075 30.111L48.5953 29.6298C49.4299 30.0927 50.3141 30.4596 51.2312 30.7235L51.9531 32.1345C52.0346 32.291 52.1528 32.4255 52.2976 32.5264C52.4423 32.6274 52.6093 32.6918 52.7844 32.7142C54.046 32.9037 55.329 32.9037 56.5906 32.7142C56.7657 32.6918 56.9327 32.6274 57.0774 32.5264C57.2222 32.4255 57.3404 32.291 57.4219 32.1345L58.1437 30.7235C59.0609 30.4596 59.9451 30.0927 60.7797 29.6298L62.3 30.111C62.4677 30.1641 62.6458 30.1759 62.8191 30.1454C62.9923 30.1149 63.1557 30.0431 63.2953 29.936C64.3087 29.1638 65.2137 28.2588 65.9859 27.2454C66.093 27.1058 66.1648 26.9425 66.1953 26.7692C66.2257 26.5959 66.214 26.4179 66.1609 26.2501L65.6797 24.7298C66.1426 23.8952 66.5095 23.011 66.7734 22.0939L68.1844 21.372C68.3409 21.2905 68.4754 21.1723 68.5763 21.0275C68.6772 20.8828 68.7417 20.7158 68.7641 20.5407C68.9536 19.2791 68.9536 17.9962 68.7641 16.7345C68.7485 16.5517 68.6873 16.3758 68.586 16.2229C68.4847 16.07 68.3466 15.945 68.1844 15.8595ZM66.7187 19.6876L65.3953 20.3767C65.255 20.4474 65.1316 20.5475 65.0334 20.6701C64.9353 20.7928 64.8647 20.9352 64.8266 21.0876C64.5784 22.1259 64.1687 23.1187 63.6125 24.0298C63.5298 24.1643 63.4773 24.315 63.4584 24.4717C63.4395 24.6284 63.4548 24.7874 63.5031 24.9376L63.9516 26.3595C63.5004 26.8981 63.0027 27.3959 62.4641 27.847L60.9875 27.3439C60.8372 27.2955 60.6783 27.2803 60.5216 27.2991C60.3649 27.318 60.2141 27.3706 60.0797 27.4532C59.1686 28.0095 58.1757 28.4192 57.1375 28.6673C56.9851 28.7055 56.8427 28.776 56.72 28.8742C56.5974 28.9723 56.4973 29.0957 56.4266 29.236L55.7812 30.6251C55.0544 30.7082 54.3205 30.7082 53.5937 30.6251L52.9047 29.3017C52.834 29.1614 52.7339 29.038 52.6112 28.9398C52.4885 28.8417 52.3461 28.7711 52.1937 28.7329C51.1555 28.4848 50.1627 28.0751 49.2516 27.5189C49.1171 27.4362 48.9663 27.3836 48.8096 27.3648C48.6529 27.3459 48.494 27.3611 48.3437 27.4095L46.9219 27.8579C46.3833 27.4068 45.8855 26.909 45.4344 26.3704L45.8828 24.9485C45.9312 24.7983 45.9464 24.6394 45.9275 24.4827C45.9087 24.326 45.8561 24.1752 45.7734 24.0407C45.2172 23.1296 44.8075 22.1368 44.5594 21.0985C44.5212 20.9461 44.4506 20.8038 44.3525 20.6811C44.2543 20.5584 44.1309 20.4583 43.9906 20.3876L42.7109 19.6876C42.7109 19.3048 42.7109 18.9657 42.7109 18.5939C42.7109 18.222 42.7109 17.9267 42.7109 17.5001L44.0344 16.811C44.1747 16.7403 44.2981 16.6402 44.3962 16.5176C44.4944 16.3949 44.5649 16.2525 44.6031 16.1001C44.8513 15.0619 45.2609 14.069 45.8172 13.1579C45.8998 13.0235 45.9524 12.8727 45.9713 12.716C45.9902 12.5593 45.9749 12.4004 45.9266 12.2501L45.4781 10.8282C45.9292 10.2896 46.427 9.79185 46.9656 9.34073L48.3875 9.78917C48.5377 9.83752 48.6967 9.85278 48.8534 9.8339C49.0101 9.81502 49.1608 9.76245 49.2953 9.6798C50.2064 9.12355 51.1992 8.71387 52.2375 8.46573C52.3899 8.42755 52.5323 8.35699 52.655 8.25885C52.7776 8.1607 52.8777 8.03728 52.9484 7.89698L53.5937 6.6173C54.2916 6.5407 54.9958 6.5407 55.6937 6.6173L56.3828 7.94073C56.4535 8.08103 56.5536 8.20445 56.6763 8.3026C56.799 8.40074 56.9413 8.4713 57.0937 8.50948C58.132 8.75762 59.1248 9.1673 60.0359 9.72355C60.1704 9.8062 60.3212 9.85877 60.4779 9.87765C60.6346 9.89653 60.7935 9.88127 60.9437 9.83292L62.3656 9.38448C62.9042 9.8356 63.402 10.3334 63.8531 10.872L63.4375 12.2939C63.3891 12.4441 63.3739 12.603 63.3928 12.7597C63.4116 12.9164 63.4642 13.0672 63.5469 13.2017C64.1031 14.1128 64.5128 15.1056 64.7609 16.1439C64.7991 16.2963 64.8697 16.4386 64.9678 16.5613C65.066 16.684 65.1894 16.7841 65.3297 16.8548L66.7187 17.5001C66.7187 17.8829 66.7187 18.222 66.7187 18.5939C66.7187 18.9657 66.7187 19.261 66.7187 19.6876Z" fill="white"/>
<path d="M54.6875 10.9375C53.1732 10.9375 51.693 11.3865 50.4339 12.2278C49.1749 13.0691 48.1935 14.2648 47.6141 15.6638C47.0346 17.0628 46.8829 18.6022 47.1784 20.0874C47.4738 21.5726 48.203 22.9368 49.2737 24.0075C50.3445 25.0783 51.7087 25.8075 53.1938 26.1029C54.679 26.3983 56.2184 26.2467 57.6174 25.6672C59.0164 25.0877 60.2122 24.1064 61.0534 22.8473C61.8947 21.5883 62.3438 20.108 62.3438 18.5938C62.3438 16.5632 61.5371 14.6158 60.1013 13.18C58.6655 11.7441 56.7181 10.9375 54.6875 10.9375ZM54.6875 24.0625C53.6059 24.0625 52.5486 23.7418 51.6492 23.1409C50.7499 22.5399 50.049 21.6858 49.635 20.6866C49.2211 19.6873 49.1128 18.5877 49.3238 17.5268C49.5348 16.466 50.0557 15.4916 50.8205 14.7268C51.5853 13.9619 52.5598 13.4411 53.6206 13.2301C54.6814 13.0191 55.781 13.1274 56.7803 13.5413C57.7796 13.9552 58.6337 14.6561 59.2346 15.5555C59.8355 16.4548 60.1563 17.5121 60.1563 18.5938C60.1563 20.0442 59.5801 21.4352 58.5545 22.4607C57.5289 23.4863 56.1379 24.0625 54.6875 24.0625Z" fill="white"/>
<path d="M62.125 48.125C62.3258 48.1254 62.5229 48.0705 62.6946 47.9663C62.8663 47.8622 63.006 47.7127 63.0984 47.5344C65.4775 42.9919 66.7197 37.9403 66.7187 32.8125C66.7187 32.5224 66.6035 32.2442 66.3984 32.0391C66.1933 31.834 65.9151 31.7188 65.625 31.7188C65.3349 31.7188 65.0567 31.834 64.8516 32.0391C64.6465 32.2442 64.5312 32.5224 64.5312 32.8125C64.5342 37.5896 63.3782 42.296 61.1625 46.5281C61.0277 46.7849 61.0003 47.0846 61.0865 47.3615C61.1726 47.6384 61.3652 47.8697 61.6219 48.0047C61.779 48.0805 61.9506 48.1215 62.125 48.125Z" fill="white"/>
</svg>
