<svg width="70" height="70" viewBox="0 0 70 70" fill="none" xmlns="http://www.w3.org/2000/svg">
<g clip-path="url(#clip0_1253_191)">
<path d="M53.0649 40.645C46.2173 40.645 40.6455 46.2168 40.6455 53.0644C40.6455 59.912 46.2173 65.4837 53.0649 65.4837C59.9124 65.4837 65.4842 59.912 65.4842 53.0644C65.4842 46.2168 59.9124 40.645 53.0649 40.645ZM53.0649 63.2257C47.4626 63.2257 42.9036 58.6678 42.9036 53.0644C42.9036 47.461 47.4626 42.9031 53.0649 42.9031C58.6671 42.9031 63.2262 47.461 63.2262 53.0644C63.2262 58.6678 58.6671 63.2257 53.0649 63.2257Z" fill="white"/>
<path d="M63.2258 39.5477V15.8065C63.2258 14.5611 62.2131 13.5484 60.9677 13.5484H42.9032C41.6579 13.5484 40.6452 14.5611 40.6452 15.8065V33.9252C39.9294 31.6163 38.4086 29.5897 36.3323 28.2924L32.8571 26.1213C33.4814 25.506 33.871 24.6535 33.871 23.7097C33.871 22.8392 33.5311 22.0523 32.9903 21.4516C33.5323 20.851 33.871 20.064 33.871 19.1935C33.871 17.955 33.1958 16.8802 32.2 16.2897C33.5435 14.4019 35.5927 13.0889 37.9073 12.7027L40.6452 12.2477V11.2903C40.6452 8.17758 38.1127 5.64516 35 5.64516H34.9142C34.3982 2.44887 31.6208 0 28.2823 0C26.5706 0 24.9561 0.635645 23.7097 1.79742C22.4632 0.635645 20.8487 0 19.1371 0C15.8121 0 13.0437 2.42742 12.5119 5.64516H12.4194C9.30661 5.64516 6.77419 8.17758 6.77419 11.2903V12.2477L9.51097 12.7027C11.8266 13.0889 13.8747 14.4031 15.2182 16.2897C14.2235 16.8802 13.5484 17.955 13.5484 19.1935C13.5484 20.064 13.8882 20.851 14.429 21.4516C13.8871 22.0523 13.5484 22.8392 13.5484 23.7097C13.5484 24.6524 13.9379 25.506 14.5623 26.1202L11.0871 28.2913C8.42258 29.9577 6.65452 32.8187 6.35758 35.9439L4.80516 52.2358C4.655 53.8142 3.84097 55.2661 2.57194 56.2156L1.51403 57.0094C0.565645 57.7195 0 58.8508 0 60.0374C0 60.8944 0.294677 61.7332 0.82871 62.4005L3.40742 65.6239C4.48564 66.9697 6.09226 67.7419 7.81516 67.7419H39.6031C40.8179 67.7419 41.9921 67.3355 42.9574 66.6219C45.7823 68.7332 49.2744 70 53.0645 70C62.4027 70 70 62.4027 70 53.0645C70 47.5402 67.3298 42.6413 63.2258 39.5477ZM53.0645 36.129C52.6829 36.129 52.3103 36.1618 51.9355 36.1866V33.871H60.9677V38.0981C58.6058 36.846 55.9187 36.129 53.0645 36.129ZM60.9677 31.6129H58.7097V29.3548H60.9677V31.6129ZM51.9355 20.3226V22.5806H49.6774V20.3226H51.9355ZM49.6774 24.8387V27.0968H47.4194V24.8387H49.6774ZM51.9355 29.3548V31.6129H49.6774V29.3548H51.9355ZM54.1936 29.3548H56.4516V31.6129H54.1936V29.3548ZM60.9677 27.0968H51.9355V24.8387H60.9677V27.0968ZM60.9677 22.5806H58.7097V20.3226H60.9677V22.5806ZM56.4516 22.5806H54.1936V20.3226H56.4516V22.5806ZM47.4194 18.0645V15.8065H49.6774V18.0645H47.4194ZM47.4194 20.3226V22.5806H42.9032V20.3226H47.4194ZM45.1613 24.8387V27.0968H42.9032V24.8387H45.1613ZM47.4194 29.3548V31.6129H42.9032V29.3548H47.4194ZM45.1613 33.871V38.0981C44.3665 38.5192 43.6168 39.0103 42.9032 39.5489V33.871H45.1613ZM47.4194 33.871H49.6774V36.47C48.9018 36.6281 48.1532 36.8561 47.4194 37.1169V33.871ZM60.9677 18.0645H51.9355V15.8065H60.9677V18.0645ZM45.1613 15.8065V18.0645H42.9032V15.8065H45.1613ZM16.9355 24.8387C16.3134 24.8387 15.8065 24.3329 15.8065 23.7097C15.8065 23.0865 16.3134 22.5806 16.9355 22.5806H30.4839C31.106 22.5806 31.6129 23.0865 31.6129 23.7097C31.6129 24.3329 31.106 24.8387 30.4839 24.8387H16.9355ZM15.8065 19.1935C15.8065 18.5703 16.3134 18.0645 16.9355 18.0645H30.4839C31.106 18.0645 31.6129 18.5703 31.6129 19.1935C31.6129 19.8168 31.106 20.3226 30.4839 20.3226H16.9355C16.3134 20.3226 15.8065 19.8168 15.8065 19.1935ZM9.88242 10.4752L9.16323 10.3555C9.57081 8.94081 10.876 7.90323 12.4194 7.90323L14.6774 7.84677V6.71774C14.6774 4.25871 16.6781 2.25806 19.1371 2.25806C20.3282 2.25806 21.4482 2.7221 22.2905 3.56435L23.7097 4.98355L25.13 3.56435C25.9711 2.7221 27.0911 2.25806 28.2823 2.25806C30.7413 2.25806 32.7419 4.25871 32.7419 6.77419V7.90323H35C36.5434 7.90323 37.8485 8.94081 38.2561 10.3555L37.5369 10.4752C34.3023 11.0137 31.4808 12.994 29.8347 15.8065H27.1397C27.3406 13.9018 28.3669 12.1766 29.9815 11.1006L28.7294 9.22194C26.486 10.7168 25.0894 13.1453 24.8816 15.8065H20.2977C20.1747 13.1634 19.3494 10.6174 17.8748 8.40565L15.9961 9.65774C17.2223 11.4969 17.9189 13.6105 18.0397 15.8053H17.5858C15.9385 12.994 13.1182 11.0148 9.88242 10.4752ZM39.6042 65.4839H7.81516C6.78097 65.4839 5.81677 65.021 5.16984 64.2126L2.59113 60.9892C2.37661 60.7194 2.25806 60.3818 2.25806 60.0374C2.25806 59.5587 2.48613 59.1037 2.86887 58.8169L3.9279 58.0221C5.70387 56.691 6.84419 54.6598 7.05419 52.4492L8.60548 36.1584C8.83694 33.7276 10.2121 31.5023 12.2839 30.2061L17.2584 27.0968H30.161L35.1355 30.2061C37.2084 31.5023 38.5835 33.7276 38.815 36.1584L39.4676 43.0105C37.38 45.8263 36.129 49.2981 36.129 53.0645C36.129 57.7635 38.0552 62.0177 41.1555 65.0887C40.6779 65.336 40.1506 65.4839 39.6042 65.4839ZM53.0645 67.7419C44.9716 67.7419 38.3871 61.1574 38.3871 53.0645C38.3871 44.9716 44.9716 38.3871 53.0645 38.3871C61.1574 38.3871 67.7419 44.9716 67.7419 53.0645C67.7419 61.1574 61.1574 67.7419 53.0645 67.7419Z" fill="white"/>
<path d="M23.7094 42.4357L15.4754 34.2017L13.8789 35.7981L22.5804 44.4996V56.4515H24.8384V44.4996L33.5399 35.7981L31.9434 34.2017L23.7094 42.4357Z" fill="white"/>
<path d="M22.5811 58.7095H24.8391V60.9675H22.5811V58.7095Z" fill="white"/>
<path d="M27.0967 58.7095H29.3547V60.9675H27.0967V58.7095Z" fill="white"/>
<path d="M18.0645 58.7095H20.3225V60.9675H18.0645V58.7095Z" fill="white"/>
<path d="M54.4162 58.9917C54.3242 58.9912 54.2333 58.9716 54.1491 58.9343C54.065 58.897 53.9893 58.8428 53.9269 58.7748L50.1945 54.7381C50.0699 54.6116 50 54.4408 50 54.2627C50 54.0847 50.0699 53.9138 50.1945 53.7873C50.3159 53.6733 50.4763 53.6106 50.6424 53.6122H52.492C52.8036 53.6067 53.1074 53.513 53.3685 53.3419C53.6296 53.1708 53.8375 52.9292 53.9683 52.6447H51.3059C51.1417 52.6263 50.9899 52.5476 50.8797 52.4237C50.7695 52.2999 50.7086 52.1395 50.7086 51.9733C50.7086 51.8071 50.7695 51.6468 50.8797 51.5229C50.9899 51.399 51.1417 51.3204 51.3059 51.3019H54.0098C53.8778 51.019 53.6694 50.7791 53.4083 50.6096C53.1473 50.44 52.8442 50.3476 52.5334 50.3428H50.6839C50.5196 50.3244 50.3679 50.2457 50.2577 50.1218C50.1475 49.998 50.0866 49.8376 50.0866 49.6714C50.0866 49.5052 50.1475 49.3448 50.2577 49.221C50.3679 49.0971 50.5196 49.0184 50.6839 49H56.4897C56.654 49.0184 56.8057 49.0971 56.9159 49.221C57.0261 49.3448 57.087 49.5052 57.087 49.6714C57.087 49.8376 57.0261 49.998 56.9159 50.1218C56.8057 50.2457 56.654 50.3244 56.4897 50.3428H55.0051C55.1975 50.635 55.3352 50.96 55.4115 51.3019H56.5063C56.6706 51.3204 56.8223 51.399 56.9325 51.5229C57.0427 51.6468 57.1036 51.8071 57.1036 51.9733C57.1036 52.1395 57.0427 52.2999 56.9325 52.4237C56.8223 52.5476 56.6706 52.6263 56.5063 52.6447H55.4198C55.2683 53.3007 54.9007 53.8859 54.3767 54.3053C53.8527 54.7247 53.2031 54.9536 52.5334 54.955H52.2183L54.947 57.9075C55.0711 58.0325 55.1408 58.202 55.1408 58.3787C55.1408 58.5554 55.0711 58.7248 54.947 58.8499C54.8732 58.9094 54.7879 58.9527 54.6965 58.9771C54.6051 59.0015 54.5096 59.0065 54.4162 58.9917Z" fill="white"/>
</g>
<defs>
<clipPath id="clip0_1253_191">
<rect width="70" height="70" fill="white"/>
</clipPath>
</defs>
</svg>
