<svg width="70" height="70" viewBox="0 0 70 70" fill="none" xmlns="http://www.w3.org/2000/svg">
<path d="M32.667 22.6797V16.333H60.667V20.393" stroke="white" stroke-width="1.6" stroke-linecap="round" stroke-linejoin="round"/>
<path d="M35 9.33301H39.6667V16.333H35V9.33301Z" stroke="white" stroke-width="1.6" stroke-linecap="round" stroke-linejoin="round"/>
<path d="M44.333 9.33301H48.9997V16.333H44.333V9.33301Z" stroke="white" stroke-width="1.6" stroke-linecap="round" stroke-linejoin="round"/>
<path d="M53.667 9.33301H58.3337V16.333H53.667V9.33301Z" stroke="white" stroke-width="1.6" stroke-linecap="round" stroke-linejoin="round"/>
<path d="M37.333 6.99984C37.6597 6.29984 37.7997 5.55317 37.333 4.6665" stroke="white" stroke-width="1.6" stroke-linecap="round" stroke-linejoin="round"/>
<path d="M46.5029 6.99984C46.8296 6.29984 46.9696 5.55317 46.5029 4.6665" stroke="white" stroke-width="1.6" stroke-linecap="round" stroke-linejoin="round"/>
<path d="M55.8369 6.99984C56.1636 6.29984 56.3036 5.55317 55.8369 4.6665" stroke="white" stroke-width="1.6" stroke-linecap="round" stroke-linejoin="round"/>
<path d="M9.33301 14H16.333" stroke="white" stroke-width="1.6" stroke-linecap="round" stroke-linejoin="round"/>
<path d="M9.33301 18.6665H16.333" stroke="white" stroke-width="1.6" stroke-linecap="round" stroke-linejoin="round"/>
<path d="M18.6667 38.2897L16.3333 5.83301H9.33333L7 38.2897" stroke="white" stroke-width="1.6" stroke-linecap="round" stroke-linejoin="round"/>
<path d="M63.0003 50.2833V21L39.667 25.6667V21L18.667 27.4867" stroke="white" stroke-width="1.6" stroke-linecap="round" stroke-linejoin="round"/>
<path d="M21 30.333H28V34.9997H21V30.333Z" stroke="white" stroke-width="1.6" stroke-linecap="round" stroke-linejoin="round"/>
<path d="M32.667 30.333H39.667V34.9997H32.667V30.333Z" stroke="white" stroke-width="1.6" stroke-linecap="round" stroke-linejoin="round"/>
<path d="M44.333 30.333H58.333V34.9997H44.333V30.333Z" stroke="white" stroke-width="1.6" stroke-linecap="round" stroke-linejoin="round"/>
<path d="M54.833 64.1667H5.83301V38.5H54.833V45.1267" stroke="white" stroke-width="1.6" stroke-linecap="round" stroke-linejoin="round"/>
<path d="M30.333 58.333C34.199 58.333 37.333 55.199 37.333 51.333C37.333 47.467 34.199 44.333 30.333 44.333C26.467 44.333 23.333 47.467 23.333 51.333C23.333 55.199 26.467 58.333 30.333 58.333Z" stroke="white" stroke-width="1.6" stroke-linecap="round" stroke-linejoin="round"/>
<path d="M51.333 46.6667C48.4397 46.48 46.7363 45.1033 46.6663 42H13.9997C13.9297 44.7067 12.693 46.5267 9.33301 46.6667V56C12.2263 56.14 13.9763 57.4933 13.9997 60.6667H46.6663" stroke="white" stroke-width="1.6" stroke-linecap="round" stroke-linejoin="round"/>
<path d="M37.333 51.333H44.333" stroke="white" stroke-width="1.6" stroke-linecap="round" stroke-linejoin="round"/>
<path d="M23.3333 51.333H14" stroke="white" stroke-width="1.6" stroke-linecap="round" stroke-linejoin="round"/>
<path d="M36.3301 46.6665H42.0001" stroke="white" stroke-width="1.6" stroke-linecap="round" stroke-linejoin="round"/>
<path d="M24.8727 46.6665H18.666" stroke="white" stroke-width="1.6" stroke-linecap="round" stroke-linejoin="round"/>
<path d="M24.3827 56H18.666" stroke="white" stroke-width="1.6" stroke-linecap="round" stroke-linejoin="round"/>
<path d="M36.0498 56H41.9998" stroke="white" stroke-width="1.6" stroke-linecap="round" stroke-linejoin="round"/>
<path d="M50.1667 44.3333C50.811 44.3333 51.3333 43.811 51.3333 43.1667C51.3333 42.5223 50.811 42 50.1667 42C49.5223 42 49 42.5223 49 43.1667C49 43.811 49.5223 44.3333 50.1667 44.3333Z" stroke="white" stroke-width="1.6" stroke-linecap="round" stroke-linejoin="round"/>
<path d="M10.4997 44.3333C11.144 44.3333 11.6663 43.811 11.6663 43.1667C11.6663 42.5223 11.144 42 10.4997 42C9.85534 42 9.33301 42.5223 9.33301 43.1667C9.33301 43.811 9.85534 44.3333 10.4997 44.3333Z" stroke="white" stroke-width="1.6" stroke-linecap="round" stroke-linejoin="round"/>
<path d="M10.4997 60.6663C11.144 60.6663 11.6663 60.144 11.6663 59.4997C11.6663 58.8553 11.144 58.333 10.4997 58.333C9.85534 58.333 9.33301 58.8553 9.33301 59.4997C9.33301 60.144 9.85534 60.6663 10.4997 60.6663Z" stroke="white" stroke-width="1.6" stroke-linecap="round" stroke-linejoin="round"/>
<path d="M54.8333 64.1667C59.988 64.1667 64.1667 59.988 64.1667 54.8333C64.1667 49.6787 59.988 45.5 54.8333 45.5C49.6787 45.5 45.5 49.6787 45.5 54.8333C45.5 59.988 49.6787 64.1667 54.8333 64.1667Z" stroke="white" stroke-width="1.6" stroke-linecap="round" stroke-linejoin="round"/>
<path d="M31.0913 54.9942C31.027 54.9938 30.9633 54.9801 30.9044 54.954C30.8455 54.9279 30.7925 54.8899 30.7488 54.8424L28.1361 52.0167C28.0489 51.9281 28 51.8085 28 51.6839C28 51.5593 28.0489 51.4397 28.1361 51.3511C28.2211 51.2713 28.3334 51.2274 28.4497 51.2285H29.7444C29.9625 51.2247 30.1751 51.1591 30.3579 51.0393C30.5407 50.9195 30.6862 50.7504 30.7778 50.5513H28.9141C28.7992 50.5384 28.6929 50.4833 28.6158 50.3966C28.5387 50.3099 28.496 50.1977 28.496 50.0813C28.496 49.965 28.5387 49.8527 28.6158 49.766C28.6929 49.6793 28.7992 49.6243 28.9141 49.6113H30.8069C30.7144 49.4133 30.5685 49.2454 30.3858 49.1267C30.2031 49.008 29.9909 48.9433 29.7734 48.94H28.4787C28.3637 48.927 28.2575 48.872 28.1804 48.7853C28.1032 48.6986 28.0606 48.5863 28.0606 48.47C28.0606 48.3536 28.1032 48.2414 28.1804 48.1547C28.2575 48.068 28.3637 48.0129 28.4787 48H32.5428C32.6578 48.0129 32.764 48.068 32.8411 48.1547C32.9183 48.2414 32.9609 48.3536 32.9609 48.47C32.9609 48.5863 32.9183 48.6986 32.8411 48.7853C32.764 48.872 32.6578 48.927 32.5428 48.94H31.5036C31.6383 49.1445 31.7347 49.372 31.7881 49.6113H32.5544C32.6694 49.6243 32.7756 49.6793 32.8527 49.766C32.9299 49.8527 32.9725 49.965 32.9725 50.0813C32.9725 50.1977 32.9299 50.3099 32.8527 50.3966C32.7756 50.4833 32.6694 50.5384 32.5544 50.5513H31.7939C31.6878 51.0105 31.4305 51.4201 31.0637 51.7137C30.6969 52.0073 30.2422 52.1675 29.7734 52.1685H29.5528L31.4629 54.2352C31.5498 54.3228 31.5986 54.4414 31.5986 54.5651C31.5986 54.6888 31.5498 54.8074 31.4629 54.8949C31.4112 54.9365 31.3515 54.9669 31.2875 54.984C31.2236 55.001 31.1567 55.0045 31.0913 54.9942Z" fill="white"/>
<path d="M55.4162 59.9917C55.3242 59.9912 55.2333 59.9716 55.1491 59.9343C55.065 59.897 54.9893 59.8428 54.9269 59.7748L51.1945 55.7381C51.0699 55.6116 51 55.4408 51 55.2627C51 55.0847 51.0699 54.9138 51.1945 54.7873C51.3159 54.6733 51.4763 54.6106 51.6424 54.6122H53.492C53.8036 54.6067 54.1074 54.513 54.3685 54.3419C54.6296 54.1708 54.8375 53.9292 54.9683 53.6447H52.3059C52.1417 53.6263 51.9899 53.5476 51.8797 53.4237C51.7695 53.2999 51.7086 53.1395 51.7086 52.9733C51.7086 52.8071 51.7695 52.6468 51.8797 52.5229C51.9899 52.399 52.1417 52.3204 52.3059 52.3019H55.0098C54.8778 52.019 54.6694 51.7791 54.4083 51.6096C54.1473 51.44 53.8442 51.3476 53.5334 51.3428H51.6839C51.5196 51.3244 51.3679 51.2457 51.2577 51.1218C51.1475 50.998 51.0866 50.8376 51.0866 50.6714C51.0866 50.5052 51.1475 50.3448 51.2577 50.221C51.3679 50.0971 51.5196 50.0184 51.6839 50H57.4897C57.654 50.0184 57.8057 50.0971 57.9159 50.221C58.0261 50.3448 58.087 50.5052 58.087 50.6714C58.087 50.8376 58.0261 50.998 57.9159 51.1218C57.8057 51.2457 57.654 51.3244 57.4897 51.3428H56.0051C56.1975 51.635 56.3352 51.96 56.4115 52.3019H57.5063C57.6706 52.3204 57.8223 52.399 57.9325 52.5229C58.0427 52.6468 58.1036 52.8071 58.1036 52.9733C58.1036 53.1395 58.0427 53.2999 57.9325 53.4237C57.8223 53.5476 57.6706 53.6263 57.5063 53.6447H56.4198C56.2683 54.3007 55.9007 54.8859 55.3767 55.3053C54.8527 55.7247 54.2031 55.9536 53.5334 55.955H53.2183L55.947 58.9075C56.0711 59.0325 56.1408 59.202 56.1408 59.3787C56.1408 59.5554 56.0711 59.7248 55.947 59.8499C55.8732 59.9094 55.7879 59.9527 55.6965 59.9771C55.6051 60.0015 55.5096 60.0065 55.4162 59.9917Z" fill="white"/>
</svg>
