<svg width="70" height="70" viewBox="0 0 70 70" fill="none" xmlns="http://www.w3.org/2000/svg">
<path d="M16.4062 33.9062C16.4062 36.0321 17.4266 37.9192 18.9984 39.1193C19.0114 39.13 19.0175 39.1458 19.0311 39.156C19.048 39.1686 19.0678 39.1727 19.0851 39.1841C20.174 39.9876 21.5146 40.4688 22.9688 40.4688C26.5875 40.4688 29.5312 37.525 29.5312 33.9062C29.5312 31.7804 28.5109 29.8933 26.9392 28.6932C26.9261 28.6824 26.92 28.6667 26.9064 28.6565C26.8925 28.6461 26.8756 28.6447 26.8615 28.6351C25.771 27.8276 24.4269 27.3438 22.9688 27.3438C19.35 27.3438 16.4062 30.2875 16.4062 33.9062ZM22.9688 38.2812C22.3791 38.2812 21.8177 38.1608 21.3039 37.9483L26.3721 31.1912C26.9706 31.9396 27.3438 32.8756 27.3438 33.9062C27.3438 36.3191 25.3811 38.2812 22.9688 38.2812ZM22.9688 29.5312C23.5583 29.5312 24.1196 29.6518 24.6333 29.8642L19.5655 36.6217C18.9669 35.8732 18.5938 34.9372 18.5938 33.9062C18.5938 31.4939 20.5564 29.5312 22.9688 29.5312ZM32.8125 59.0625C32.8125 59.6671 32.3228 60.1562 31.7188 60.1562H30.625V61.25C30.625 61.8546 30.1353 62.3438 29.5312 62.3438C28.9272 62.3438 28.4375 61.8546 28.4375 61.25V60.1562H27.3438C26.7397 60.1562 26.25 59.6671 26.25 59.0625C26.25 58.4579 26.7397 57.9688 27.3438 57.9688H28.4375V56.875C28.4375 56.2704 28.9272 55.7812 29.5312 55.7812C30.1353 55.7812 30.625 56.2704 30.625 56.875V57.9688H31.7188C32.3228 57.9688 32.8125 58.4579 32.8125 59.0625ZM21.7596 54.0829C21.5679 54.4664 21.1818 54.6875 20.7802 54.6875C20.6162 54.6875 20.4491 54.6501 20.2921 54.5721L18.1046 53.4784C17.5641 53.2082 17.3451 52.5513 17.6154 52.0108C17.8856 51.4703 18.5414 51.2524 19.0829 51.5216L21.2704 52.6154C21.8109 52.8856 22.0299 53.5425 21.7596 54.0829ZM21.7596 49.7079C21.5679 50.0914 21.1818 50.3125 20.7802 50.3125C20.6162 50.3125 20.4491 50.2751 20.2921 50.1971L18.1046 49.1034C17.5641 48.8332 17.3451 48.1763 17.6154 47.6358C17.8856 47.0953 18.5414 46.8764 19.0829 47.1466L21.2704 48.2404C21.8109 48.5106 22.0299 49.1675 21.7596 49.7079ZM21.7596 62.8329C21.5679 63.2164 21.1818 63.4375 20.7802 63.4375C20.6162 63.4375 20.4491 63.4001 20.2921 63.3221L18.1046 62.2284C17.5641 61.9582 17.3451 61.3013 17.6154 60.7608C17.8856 60.2203 18.5414 60.0024 19.0829 60.2716L21.2704 61.3654C21.8109 61.6356 22.0299 62.2925 21.7596 62.8329ZM21.7596 58.4579C21.5679 58.8414 21.1818 59.0625 20.7802 59.0625C20.6162 59.0625 20.4491 59.0251 20.2921 58.9471L18.1046 57.8534C17.5641 57.5832 17.3451 56.9263 17.6154 56.3858C17.8856 55.8464 18.5414 55.6274 19.0829 55.8966L21.2704 56.9904C21.8109 57.2606 22.0299 57.9175 21.7596 58.4579ZM63.4375 65.625H53.5938V64.5312C53.5938 63.1073 52.6766 61.9045 51.4062 61.4515V56.875H52.5H54.6875C55.2921 56.875 55.7812 56.3858 55.7812 55.7812C55.7812 55.1767 55.2921 54.6875 54.6875 54.6875H53.5938V18.5938C53.5938 17.9897 53.1046 17.5 52.5 17.5H50.3125V16.4062C50.3125 14.9823 49.3954 13.7795 48.125 13.3265V3.28125C48.125 2.67723 47.6358 2.1875 47.0312 2.1875C46.4267 2.1875 45.9375 2.67723 45.9375 3.28125V13.3265C44.6671 13.7795 43.75 14.9823 43.75 16.4062V17.5H41.5625C40.9579 17.5 40.4688 17.9897 40.4688 18.5938V54.6875H39.375C38.7704 54.6875 38.2812 55.1767 38.2812 55.7812C38.2812 56.3858 38.7704 56.875 39.375 56.875H41.5625H42.6562V61.4515C41.3859 61.9045 40.4688 63.1073 40.4688 64.5312V65.625H35.8922C36.0148 65.2812 36.0938 64.9166 36.0938 64.5312V53.5938C36.0938 52.1698 35.1766 50.967 33.9062 50.514V49.2188C34.5103 49.2188 35 48.7296 35 48.125V43.75C35 43.1454 34.5103 42.6562 33.9062 42.6562H25.1562C24.5522 42.6562 24.0625 43.1454 24.0625 43.75H15.3125C14.7085 43.75 14.2188 44.2392 14.2188 44.8438V65.625H8.75C8.14598 65.625 7.65625 66.1142 7.65625 66.7188C7.65625 67.3233 8.14598 67.8125 8.75 67.8125H15.3125H26.25H32.8125H41.5625H52.5H63.4375C64.0421 67.8125 64.5312 67.3233 64.5312 66.7188C64.5312 66.1142 64.0421 65.625 63.4375 65.625ZM45.9375 16.4062C45.9375 15.8033 46.4278 15.3125 47.0312 15.3125C47.6347 15.3125 48.125 15.8033 48.125 16.4062V17.5H45.9375V16.4062ZM42.6562 48.125H44.8438C45.4483 48.125 45.9375 47.6358 45.9375 47.0312C45.9375 46.4267 45.4483 45.9375 44.8438 45.9375H42.6562V41.5625H45.9375C46.5421 41.5625 47.0312 41.0733 47.0312 40.4688C47.0312 39.8642 46.5421 39.375 45.9375 39.375H42.6562V35H44.8438C45.4483 35 45.9375 34.5103 45.9375 33.9062C45.9375 33.3022 45.4483 32.8125 44.8438 32.8125H42.6562V28.4375H45.9375C46.5421 28.4375 47.0312 27.9478 47.0312 27.3438C47.0312 26.7397 46.5421 26.25 45.9375 26.25H42.6562V19.6875H44.8438H49.2188H51.4062V54.6875H50.3125H43.75H42.6562V48.125ZM49.2188 56.875V61.25H44.8438V56.875H49.2188ZM31.7188 50.3125H27.3438V49.2188H31.7188V50.3125ZM32.8125 44.8438V47.0312H26.25V44.8438H32.8125ZM16.4062 45.9375H24.0625V48.125C24.0625 48.7296 24.5522 49.2188 25.1562 49.2188V50.514C23.8859 50.967 22.9688 52.1698 22.9688 53.5938V64.5312C22.9688 64.9166 23.0478 65.2812 23.1704 65.625H16.4062V45.9375ZM26.25 65.625C25.647 65.625 25.1562 65.1347 25.1562 64.5312V53.5938C25.1562 52.9903 25.647 52.5 26.25 52.5H32.8125C33.4155 52.5 33.9062 52.9903 33.9062 53.5938V64.5312C33.9062 65.1347 33.4155 65.625 32.8125 65.625H26.25ZM42.6562 65.625V64.5312C42.6562 63.9278 43.1465 63.4375 43.75 63.4375H50.3125C50.916 63.4375 51.4062 63.9278 51.4062 64.5312V65.625H42.6562ZM17.5 24.0625C19.3094 24.0625 20.7812 22.5906 20.7812 20.7812V18.5938C20.7812 16.7844 19.3094 15.3125 17.5 15.3125H8.75C6.94061 15.3125 5.46875 16.7844 5.46875 18.5938V20.7812C5.46875 22.5906 6.94061 24.0625 8.75 24.0625H17.5ZM18.5938 18.5938V20.7812C18.5938 21.3842 18.103 21.875 17.5 21.875H14.2188V17.5H17.5C18.103 17.5 18.5938 17.9908 18.5938 18.5938ZM7.65625 20.7812V18.5938C7.65625 17.9908 8.14705 17.5 8.75 17.5H12.0312V21.875H8.75C8.14705 21.875 7.65625 21.3842 7.65625 20.7812ZM31.7188 25.1562C35.3375 25.1562 38.2812 22.2125 38.2812 18.5938C38.2812 14.975 35.3375 12.0312 31.7188 12.0312C28.1 12.0312 25.1562 14.975 25.1562 18.5938C25.1562 22.2125 28.1 25.1562 31.7188 25.1562ZM36.0938 18.5938C36.0938 18.9078 36.0573 19.213 35.9941 19.5085L32.8125 17.9176V14.3741C34.6941 14.8633 36.0938 16.5613 36.0938 18.5938ZM30.625 14.3741V18.5938C30.625 19.0082 30.8589 19.3868 31.2296 19.5721L34.9997 21.4572C34.197 22.3756 33.0314 22.9688 31.7188 22.9688C29.3064 22.9688 27.3438 21.0061 27.3438 18.5938C27.3438 16.5613 28.7434 14.8633 30.625 14.3741Z" fill="white"/>
</svg>
