<svg width="70" height="70" viewBox="0 0 70 70" fill="none" xmlns="http://www.w3.org/2000/svg">
<path d="M44.8438 36.0938V32.8125C44.8438 32.5224 44.7285 32.2442 44.5234 32.0391C44.3183 31.834 44.0401 31.7188 43.75 31.7188H38.2812V33.9062H42.6562V36.0938H27.3438V33.9062H31.7188V31.7188H26.25C25.9599 31.7188 25.6817 31.834 25.4766 32.0391C25.2715 32.2442 25.1562 32.5224 25.1562 32.8125V37.1875C25.1562 37.4776 25.2715 37.7558 25.4766 37.9609C25.6817 38.166 25.9599 38.2812 26.25 38.2812V40.4688H25.1562C24.8662 40.4688 24.588 40.584 24.3829 40.7891C24.1777 40.9942 24.0625 41.2724 24.0625 41.5625V50.3125C24.0625 50.6026 24.1777 50.8808 24.3829 51.0859C24.588 51.291 24.8662 51.4062 25.1562 51.4062H26.25V53.5938H25.1562C24.8662 53.5938 24.588 53.709 24.3829 53.9141C24.1777 54.1192 24.0625 54.3974 24.0625 54.6875V59.0625C24.0625 59.3526 24.1777 59.6308 24.3829 59.8359C24.588 60.041 24.8662 60.1562 25.1562 60.1562H26.25V62.3438H25.1562C24.8662 62.3438 24.588 62.459 24.3829 62.6641C24.1777 62.8692 24.0625 63.1474 24.0625 63.4375V67.8125C24.0625 68.1026 24.1777 68.3808 24.3829 68.5859C24.588 68.791 24.8662 68.9062 25.1562 68.9062H42.6562C42.9463 68.9062 43.2245 68.791 43.4296 68.5859C43.6348 68.3808 43.75 68.1026 43.75 67.8125V64.5312H44.8438C45.1338 64.5312 45.412 64.416 45.6171 64.2109C45.8223 64.0058 45.9375 63.7276 45.9375 63.4375V59.0625C45.9375 58.7724 45.8223 58.4942 45.6171 58.2891C45.412 58.084 45.1338 57.9688 44.8438 57.9688H43.75V55.7812H44.8438C45.1338 55.7812 45.412 55.666 45.6171 55.4609C45.8223 55.2558 45.9375 54.9776 45.9375 54.6875V50.3125C45.9375 50.0224 45.8223 49.7442 45.6171 49.5391C45.412 49.334 45.1338 49.2188 44.8438 49.2188H43.75V42.6562H44.8438C45.1338 42.6562 45.412 42.541 45.6171 42.3359C45.8223 42.1308 45.9375 41.8526 45.9375 41.5625V37.1875C45.9375 36.8974 45.8223 36.6192 45.6171 36.4141C45.412 36.209 45.1338 36.0938 44.8438 36.0938ZM37.1875 40.4688V38.2812H39.375V40.4688H37.1875ZM32.8125 40.4688V38.2812H35V40.4688H32.8125ZM28.4375 38.2812H30.625V40.4688H28.4375V38.2812ZM35 49.2188V47.0312H37.1875V49.2188H35ZM32.8125 49.2188H30.625V47.0312H32.8125V49.2188ZM28.4375 49.2188H26.25V47.0312H28.4375V49.2188ZM35 57.9688V55.7812H37.1875V57.9688H35ZM32.8125 57.9688H30.625V55.7812H32.8125V57.9688ZM26.25 55.7812H28.4375V57.9688H26.25V55.7812ZM37.1875 64.5312V66.7188H35V64.5312H37.1875ZM32.8125 66.7188H30.625V64.5312H32.8125V66.7188ZM26.25 64.5312H28.4375V66.7188H26.25V64.5312ZM41.5625 66.7188H39.375V64.5312H41.5625V66.7188ZM28.4375 62.3438V60.1562H43.75V62.3438H28.4375ZM41.5625 57.9688H39.375V55.7812H41.5625V57.9688ZM28.4375 53.5938V51.4062H43.75V53.5938H28.4375ZM39.375 49.2188V47.0312H41.5625V49.2188H39.375ZM41.5625 42.6562V44.8438H26.25V42.6562H41.5625ZM43.75 40.4688H41.5625V38.2812H43.75V40.4688Z" fill="white"/>
<path d="M19.6875 40.4688H4.375C4.08492 40.4688 3.80672 40.584 3.6016 40.7891C3.39648 40.9942 3.28125 41.2724 3.28125 41.5625V49.2188H2.1875C1.89742 49.2188 1.61922 49.334 1.4141 49.5391C1.20898 49.7442 1.09375 50.0224 1.09375 50.3125V54.6875C1.09375 54.9776 1.20898 55.2558 1.4141 55.4609C1.61922 55.666 1.89742 55.7812 2.1875 55.7812H3.28125V57.9688H2.1875C1.89742 57.9688 1.61922 58.084 1.4141 58.2891C1.20898 58.4942 1.09375 58.7724 1.09375 59.0625V63.4375C1.09375 63.7276 1.20898 64.0058 1.4141 64.2109C1.61922 64.416 1.89742 64.5312 2.1875 64.5312H3.28125V67.8125C3.28125 68.1026 3.39648 68.3808 3.6016 68.5859C3.80672 68.791 4.08492 68.9062 4.375 68.9062H19.6875C19.9776 68.9062 20.2558 68.791 20.4609 68.5859C20.666 68.3808 20.7812 68.1026 20.7812 67.8125V63.4375C20.7812 63.1474 20.666 62.8692 20.4609 62.6641C20.2558 62.459 19.9776 62.3438 19.6875 62.3438H18.5938V60.1562H19.6875C19.9776 60.1562 20.2558 60.041 20.4609 59.8359C20.666 59.6308 20.7812 59.3526 20.7812 59.0625V54.6875C20.7812 54.3974 20.666 54.1192 20.4609 53.9141C20.2558 53.709 19.9776 53.5938 19.6875 53.5938H18.5938V51.4062H19.6875C19.9776 51.4062 20.2558 51.291 20.4609 51.0859C20.666 50.8808 20.7812 50.6026 20.7812 50.3125V41.5625C20.7812 41.2724 20.666 40.9942 20.4609 40.7891C20.2558 40.584 19.9776 40.4688 19.6875 40.4688ZM18.5938 44.8438H15.3125V42.6562H18.5938V44.8438ZM10.9375 44.8438V42.6562H13.125V44.8438H10.9375ZM5.46875 42.6562H8.75V44.8438H5.46875V42.6562ZM3.28125 51.4062H6.5625V53.5938H3.28125V51.4062ZM8.75 53.5938V51.4062H10.9375V53.5938H8.75ZM3.28125 60.1562H6.5625V62.3438H3.28125V60.1562ZM8.75 62.3438V60.1562H10.9375V62.3438H8.75ZM18.5938 64.5312V66.7188H5.46875V64.5312H18.5938ZM16.4062 62.3438H13.125V60.1562H16.4062V62.3438ZM18.5938 57.9688H5.46875V55.7812H18.5938V57.9688ZM16.4062 53.5938H13.125V51.4062H16.4062V53.5938ZM5.46875 49.2188V47.0312H18.5938V49.2188H5.46875Z" fill="white"/>
<path d="M67.8125 40.4688H52.5C52.2099 40.4688 51.9317 40.584 51.7266 40.7891C51.5215 40.9942 51.4062 41.2724 51.4062 41.5625V49.2188H50.3125C50.0224 49.2188 49.7442 49.334 49.5391 49.5391C49.334 49.7442 49.2188 50.0224 49.2188 50.3125V54.6875C49.2188 54.9776 49.334 55.2558 49.5391 55.4609C49.7442 55.666 50.0224 55.7812 50.3125 55.7812H51.4062V57.9688H50.3125C50.0224 57.9688 49.7442 58.084 49.5391 58.2891C49.334 58.4942 49.2188 58.7724 49.2188 59.0625V63.4375C49.2188 63.7276 49.334 64.0058 49.5391 64.2109C49.7442 64.416 50.0224 64.5312 50.3125 64.5312H51.4062V67.8125C51.4062 68.1026 51.5215 68.3808 51.7266 68.5859C51.9317 68.791 52.2099 68.9062 52.5 68.9062H67.8125C68.1026 68.9062 68.3808 68.791 68.5859 68.5859C68.791 68.3808 68.9062 68.1026 68.9062 67.8125V63.4375C68.9062 63.1474 68.791 62.8692 68.5859 62.6641C68.3808 62.459 68.1026 62.3438 67.8125 62.3438H66.7188V60.1562H67.8125C68.1026 60.1562 68.3808 60.041 68.5859 59.8359C68.791 59.6308 68.9062 59.3526 68.9062 59.0625V54.6875C68.9062 54.3974 68.791 54.1192 68.5859 53.9141C68.3808 53.709 68.1026 53.5938 67.8125 53.5938H66.7188V51.4062H67.8125C68.1026 51.4062 68.3808 51.291 68.5859 51.0859C68.791 50.8808 68.9062 50.6026 68.9062 50.3125V41.5625C68.9062 41.2724 68.791 40.9942 68.5859 40.7891C68.3808 40.584 68.1026 40.4688 67.8125 40.4688ZM66.7188 44.8438H63.4375V42.6562H66.7188V44.8438ZM59.0625 44.8438V42.6562H61.25V44.8438H59.0625ZM53.5938 42.6562H56.875V44.8438H53.5938V42.6562ZM51.4062 51.4062H54.6875V53.5938H51.4062V51.4062ZM56.875 53.5938V51.4062H59.0625V53.5938H56.875ZM51.4062 60.1562H54.6875V62.3438H51.4062V60.1562ZM56.875 62.3438V60.1562H59.0625V62.3438H56.875ZM66.7188 64.5312V66.7188H53.5938V64.5312H66.7188ZM64.5312 62.3438H61.25V60.1562H64.5312V62.3438ZM66.7188 55.7812V57.9688H53.5938V55.7812H66.7188ZM64.5312 53.5938H61.25V51.4062H64.5312V53.5938ZM53.5938 49.2188V47.0312H66.7188V49.2188H53.5938Z" fill="white"/>
<path d="M14.2188 25.1562H30.9313L33.9609 34.2562C34.0329 34.4751 34.172 34.6656 34.3586 34.8007C34.5452 34.9358 34.7697 35.0085 35 35.0085C35.2303 35.0085 35.4548 34.9358 35.6414 34.8007C35.828 34.6656 35.9671 34.4751 36.0391 34.2562L39.0688 25.1562H55.7812C56.6515 25.1562 57.4861 24.8105 58.1014 24.1952C58.7168 23.5798 59.0625 22.7452 59.0625 21.875V4.375C59.0625 3.50476 58.7168 2.67016 58.1014 2.05481C57.4861 1.43945 56.6515 1.09375 55.7812 1.09375H14.2188C13.3485 1.09375 12.5139 1.43945 11.8986 2.05481C11.2832 2.67016 10.9375 3.50476 10.9375 4.375V21.875C10.9375 22.7452 11.2832 23.5798 11.8986 24.1952C12.5139 24.8105 13.3485 25.1562 14.2188 25.1562ZM13.125 4.375C13.125 4.08492 13.2402 3.80672 13.4454 3.6016C13.6505 3.39648 13.9287 3.28125 14.2188 3.28125H55.7812C56.0713 3.28125 56.3495 3.39648 56.5546 3.6016C56.7598 3.80672 56.875 4.08492 56.875 4.375V21.875C56.875 22.1651 56.7598 22.4433 56.5546 22.6484C56.3495 22.8535 56.0713 22.9687 55.7812 22.9687H38.2812C38.0427 22.9563 37.8067 23.0223 37.6092 23.1566C37.4117 23.2909 37.2636 23.4861 37.1875 23.7125L35 30.45L32.8125 23.7125C32.7364 23.4861 32.5883 23.2909 32.3908 23.1566C32.1933 23.0223 31.9573 22.9563 31.7188 22.9687H14.2188C13.9287 22.9687 13.6505 22.8535 13.4454 22.6484C13.2402 22.4433 13.125 22.1651 13.125 21.875V4.375Z" fill="white"/>
<path d="M19.6875 15.3125H22.9688V13.125H19.6875V9.84375H22.9688V7.65625H18.5938C18.3037 7.65625 18.0255 7.77148 17.8204 7.9766C17.6152 8.18172 17.5 8.45992 17.5 8.75V18.5938H19.6875V15.3125Z" fill="white"/>
<path d="M28.9844 18.5938C29.9997 18.5938 30.9734 18.1904 31.6913 17.4725C32.4092 16.7546 32.8125 15.7809 32.8125 14.7656V7.65625H30.625V14.7656C30.625 15.2007 30.4521 15.618 30.1445 15.9257C29.8368 16.2334 29.4195 16.4062 28.9844 16.4062C28.5493 16.4062 28.132 16.2334 27.8243 15.9257C27.5166 15.618 27.3438 15.2007 27.3438 14.7656V7.65625H25.1562V14.7656C25.1562 15.7809 25.5596 16.7546 26.2775 17.4725C26.9954 18.1904 27.9691 18.5938 28.9844 18.5938Z" fill="white"/>
<path d="M37.1874 12.5673L40.6327 18.036C40.7258 18.2018 40.8605 18.3404 41.0236 18.4382C41.1866 18.5361 41.3723 18.5897 41.5624 18.5938C41.664 18.6082 41.7671 18.6082 41.8686 18.5938C42.1032 18.5256 42.3081 18.3809 42.4509 18.1827C42.5936 17.9845 42.6659 17.7442 42.6561 17.5001V7.65634H40.4686V13.6829L37.0233 8.21416C36.9101 7.99571 36.7265 7.82183 36.5022 7.72061C36.278 7.61939 36.0261 7.59675 35.7874 7.65634C35.5528 7.72454 35.3479 7.86929 35.2052 8.06751C35.0624 8.26574 34.9902 8.50603 34.9999 8.75009V18.5938H37.1874V12.5673Z" fill="white"/>
<path d="M45.9375 18.5938H47.0312C48.4817 18.5938 49.8727 18.0176 50.8982 16.992C51.9238 15.9664 52.5 14.5754 52.5 13.125C52.5 11.6746 51.9238 10.2836 50.8982 9.25801C49.8727 8.23242 48.4817 7.65625 47.0312 7.65625H45.9375C45.6474 7.65625 45.3692 7.77148 45.1641 7.9766C44.959 8.18172 44.8438 8.45992 44.8438 8.75V17.5C44.8438 17.7901 44.959 18.0683 45.1641 18.2734C45.3692 18.4785 45.6474 18.5938 45.9375 18.5938ZM47.0312 9.84375C47.9015 9.84375 48.7361 10.1895 49.3514 10.8048C49.9668 11.4202 50.3125 12.2548 50.3125 13.125C50.3125 13.9952 49.9668 14.8298 49.3514 15.4452C48.7361 16.0605 47.9015 16.4062 47.0312 16.4062V9.84375Z" fill="white"/>
</svg>
