<svg width="70" height="70" viewBox="0 0 70 70" fill="none" xmlns="http://www.w3.org/2000/svg">
<path d="M36.2194 48.2958C35.8294 48.3348 35.4377 48.353 35.0458 48.3505C32.5868 48.3535 30.1749 47.6763 28.0768 46.3938C25.9788 45.1113 24.2763 43.2735 23.1578 41.0836C23.0632 40.8996 22.9183 40.7463 22.74 40.6413C22.5617 40.5364 22.3573 40.4842 22.1505 40.4908L5.32204 41.0289C5.15975 41.0342 5.00067 41.0755 4.85634 41.1499C4.71201 41.2243 4.58605 41.3298 4.48761 41.459C4.38917 41.5881 4.32071 41.7375 4.28721 41.8964C4.25371 42.0553 4.256 42.2196 4.29391 42.3775C5.31906 46.6271 7.21318 50.6184 9.85694 54.0999C12.5007 57.5814 15.8368 60.4776 19.6551 62.6062C23.4734 64.7348 27.6911 66.0495 32.0426 66.4676C36.3941 66.8858 40.785 66.3982 44.9388 65.0356C45.0925 64.9852 45.2331 64.9013 45.3505 64.7899C45.4679 64.6786 45.5592 64.5426 45.6176 64.3917C45.6761 64.2408 45.7004 64.0789 45.6887 63.9175C45.6771 63.7561 45.6297 63.5993 45.5502 63.4584L37.2891 48.8449C37.1852 48.6577 37.0281 48.5056 36.8376 48.4078C36.6472 48.3101 36.432 48.2711 36.2194 48.2958ZM35.0458 64.422C28.6612 64.4413 22.4447 62.3764 17.3404 58.541C12.2361 54.7057 8.52292 49.3093 6.76469 43.1716L21.5467 42.6991C22.9022 45.083 24.8659 47.0647 27.2375 48.4418C29.609 49.819 32.3034 50.5423 35.0458 50.538C35.2886 50.538 35.5128 50.538 35.7261 50.5238L42.9744 63.3469C40.3925 64.0633 37.7252 64.425 35.0458 64.422Z" fill="white"/>
<path d="M51.4718 61.5692C51.5727 61.5987 51.6773 61.6138 51.7824 61.6141C51.9954 61.6139 52.2037 61.5516 52.3818 61.4347C56.1653 58.9625 59.3719 55.7043 61.7834 51.8819C64.1948 48.0594 65.7547 43.7623 66.3566 39.283C66.3776 39.1237 66.3634 38.9617 66.315 38.8084C66.2666 38.6552 66.1853 38.5144 66.0766 38.396C65.9685 38.2769 65.835 38.1836 65.6861 38.123C65.5371 38.0625 65.3764 38.0361 65.2159 38.046L48.5416 38.9067C48.3276 38.9178 48.1216 38.9915 47.9491 39.1187C47.7767 39.2459 47.6453 39.4209 47.5715 39.622C46.8738 41.4966 45.7662 43.1916 44.3296 44.5833C44.1695 44.7389 44.0608 44.9398 44.0182 45.159C43.9755 45.3781 44.001 45.6051 44.0912 45.8094L50.7816 60.9611C50.8456 61.1065 50.9405 61.2362 51.0597 61.3412C51.1789 61.4463 51.3195 61.5241 51.4718 61.5692ZM49.3554 41.0549L63.9843 40.2991C62.6322 47.7787 58.4239 54.4393 52.2495 58.872L46.3913 45.6092C47.6374 44.2756 48.6406 42.7342 49.3554 41.0549Z" fill="white"/>
<path d="M46.8029 5.66456C46.6549 5.60548 46.4957 5.57947 46.3365 5.58838C46.1773 5.59728 46.022 5.64087 45.8815 5.7161C45.7409 5.79133 45.6185 5.89637 45.5228 6.02388C45.4271 6.15139 45.3604 6.29827 45.3275 6.45425L41.8986 22.6986C41.8532 22.9137 41.8737 23.1375 41.9574 23.3409C42.0411 23.5442 42.1841 23.7175 42.3678 23.8383C45.1909 25.6749 47.2046 28.5218 47.9962 31.7953C48.0536 32.0337 48.1894 32.2458 48.3818 32.3978C48.5742 32.5497 48.812 32.6326 49.0572 32.6332L65.377 32.6791C65.5309 32.6793 65.6831 32.6469 65.8236 32.5843C65.9642 32.5216 66.0899 32.43 66.1926 32.3154C66.2953 32.2008 66.3727 32.0658 66.4197 31.9193C66.4667 31.7728 66.4822 31.618 66.4653 31.465C65.84 25.7843 63.6793 20.3812 60.2152 15.8357C56.7511 11.2902 52.1144 7.77398 46.8029 5.66456ZM49.8972 30.4478C48.9229 27.2246 46.917 24.4106 44.1878 22.4383L47.1934 8.20315C51.6534 10.2076 55.5404 13.2972 58.4995 17.1899C61.4585 21.0827 63.3954 25.6546 64.1334 30.4883L49.8972 30.4478Z" fill="white"/>
<path d="M38.9218 3.62584C37.6359 3.46666 36.3413 3.38812 35.0456 3.39069C27.0601 3.40908 19.3761 6.44292 13.532 11.8849C7.68788 17.3268 4.11481 24.7753 3.52807 32.7393C3.51755 32.8892 3.53805 33.0397 3.58828 33.1814C3.63852 33.3231 3.71741 33.4528 3.82005 33.5627C3.92268 33.6725 4.04684 33.76 4.18479 33.8197C4.32274 33.8793 4.47151 33.91 4.62182 33.9096H20.7699C21.032 33.9096 21.2853 33.8155 21.4838 33.6445C21.6824 33.4735 21.8129 33.2369 21.8517 32.9777C22.3163 29.9177 23.8317 27.115 26.1377 25.0505C28.4436 22.986 31.3963 21.7887 34.4889 21.664C34.7212 21.6547 34.9445 21.5717 35.1264 21.427C35.3083 21.2822 35.4394 21.0833 35.5006 20.859L39.8395 4.99959C39.8808 4.84851 39.8892 4.6903 39.8641 4.53569C39.839 4.38107 39.781 4.23365 39.694 4.1034C39.607 3.97315 39.493 3.8631 39.3598 3.78071C39.2266 3.69832 39.0772 3.64551 38.9218 3.62584ZM33.5964 19.5312C30.3075 19.8364 27.2018 21.1829 24.7309 23.3748C22.26 25.5667 20.5529 28.4898 19.8578 31.7188H5.8151C6.63612 24.5361 10.067 17.9053 15.4559 13.086C20.8447 8.26678 27.8161 5.59496 35.0456 5.57819C35.8353 5.57819 36.6184 5.60881 37.3895 5.67006L33.5964 19.5312Z" fill="white"/>
<path d="M24.0732 34.9998C24.0732 37.1619 24.7144 39.2755 25.9157 41.0731C27.117 42.8708 28.8245 44.2719 30.8221 45.0991C32.8197 45.9263 35.0178 46.1425 37.1383 45.7204C39.2588 45.2982 41.2065 44.2567 42.7351 42.7276C44.2636 41.1984 45.3043 39.2503 45.7256 37.1296C46.1469 35.0089 45.9298 32.811 45.1018 30.8137C44.2738 28.8164 42.8721 27.1095 41.0739 25.9089C39.2757 24.7083 37.1619 24.068 34.9998 24.0688C32.102 24.0717 29.3238 25.2245 27.2752 27.2739C25.2266 29.3234 24.075 32.102 24.0732 34.9998ZM43.7498 34.9998C43.7498 36.7288 43.2372 38.419 42.2767 39.8567C41.3163 41.2944 39.9511 42.4151 38.3538 43.077C36.7566 43.739 34.9989 43.9125 33.303 43.5757C31.6071 43.2389 30.0492 42.4068 28.8261 41.1846C27.6031 39.9625 26.7698 38.4052 26.4317 36.7096C26.0936 35.0139 26.2658 33.2561 26.9266 31.6584C27.5874 30.0606 28.707 28.6946 30.144 27.7331C31.581 26.7715 33.2708 26.2576 34.9998 26.2563C37.3193 26.2563 39.5439 27.1773 41.1847 28.8168C42.8254 30.4564 43.7481 32.6803 43.7498 34.9998Z" fill="white"/>
<path d="M50.7193 12.1406C50.6008 12.0594 50.4675 12.0023 50.3269 11.9726C50.1864 11.9429 50.0413 11.9412 49.9001 11.9675C49.6149 12.0208 49.3625 12.1851 49.1985 12.4244C49.1172 12.5429 49.0602 12.6763 49.0305 12.8168C49.0008 12.9574 48.999 13.1024 49.0254 13.2436C49.0786 13.5289 49.243 13.7813 49.4823 13.9453C54.1966 17.1743 57.6386 21.9448 59.2167 27.4367C59.2822 27.6649 59.4202 27.8656 59.6098 28.0084C59.7994 28.1513 60.0304 28.2285 60.2678 28.2286C60.3699 28.2281 60.4714 28.2138 60.5696 28.1859C60.8484 28.1058 61.0839 27.9183 61.2244 27.6646C61.3649 27.4109 61.3989 27.1117 61.3189 26.833C59.6001 20.8527 55.8523 15.6578 50.7193 12.1406Z" fill="white"/>
<path d="M35.7062 39.9917C35.6143 39.9912 35.5234 39.9716 35.4392 39.9343C35.355 39.897 35.2793 39.8428 35.2169 39.7748L31.4845 35.7381C31.3599 35.6116 31.29 35.4408 31.29 35.2627C31.29 35.0847 31.3599 34.9138 31.4845 34.7873C31.6059 34.6733 31.7663 34.6106 31.9324 34.6122H33.782C34.0936 34.6067 34.3974 34.513 34.6585 34.3419C34.9196 34.1708 35.1275 33.9292 35.2584 33.6447H32.5959C32.4317 33.6263 32.28 33.5476 32.1698 33.4237C32.0596 33.2999 31.9987 33.1395 31.9987 32.9733C31.9987 32.8071 32.0596 32.6468 32.1698 32.5229C32.28 32.399 32.4317 32.3204 32.5959 32.3019H35.2998C35.1678 32.019 34.9594 31.7791 34.6984 31.6096C34.4373 31.44 34.1342 31.3476 33.8235 31.3428H31.9739C31.8096 31.3244 31.6579 31.2457 31.5477 31.1218C31.4375 30.998 31.3766 30.8376 31.3766 30.6714C31.3766 30.5052 31.4375 30.3448 31.5477 30.221C31.6579 30.0971 31.8096 30.0184 31.9739 30H37.7798C37.944 30.0184 38.0958 30.0971 38.2059 30.221C38.3161 30.3448 38.3771 30.5052 38.3771 30.6714C38.3771 30.8376 38.3161 30.998 38.2059 31.1218C38.0958 31.2457 37.944 31.3244 37.7798 31.3428H36.2951C36.4875 31.635 36.6253 31.96 36.7015 32.3019H37.7964C37.9606 32.3204 38.1123 32.399 38.2225 32.5229C38.3327 32.6468 38.3937 32.8071 38.3937 32.9733C38.3937 33.1395 38.3327 33.2999 38.2225 33.4237C38.1123 33.5476 37.9606 33.6263 37.7964 33.6447H36.7098C36.5583 34.3007 36.1907 34.8859 35.6667 35.3053C35.1428 35.7247 34.4932 35.9536 33.8235 35.955H33.5083L36.2371 38.9075C36.3612 39.0325 36.4308 39.202 36.4308 39.3787C36.4308 39.5554 36.3612 39.7248 36.2371 39.8499C36.1633 39.9094 36.0779 39.9527 35.9865 39.9771C35.8951 40.0015 35.7997 40.0065 35.7062 39.9917Z" fill="white"/>
</svg>
