<svg width="70" height="70" viewBox="0 0 70 70" fill="none" xmlns="http://www.w3.org/2000/svg">
<path d="M67.8125 62.3438H65.625V59.0626C65.625 58.7725 65.5098 58.4943 65.3046 58.2892C65.0995 58.0841 64.8213 57.9688 64.5312 57.9688H63.3281C63.0602 56.6576 62.3209 55.4902 61.25 54.6876V21.8751C62.3209 21.0724 63.0602 19.905 63.3281 18.5938H66.7188C66.9658 18.5924 67.205 18.5074 67.3976 18.3526C67.5901 18.1978 67.7246 17.9825 67.7791 17.7415C67.8336 17.5006 67.805 17.2483 67.6979 17.0257C67.5907 16.8031 67.4114 16.6234 67.1891 16.5157L35.4703 1.2032C35.3234 1.13323 35.1627 1.09692 35 1.09692C34.8373 1.09692 34.6766 1.13323 34.5297 1.2032L2.81094 16.5157C2.58861 16.6234 2.40928 16.8031 2.30213 17.0257C2.19499 17.2483 2.16635 17.5006 2.22088 17.7415C2.27541 17.9825 2.40989 18.1978 2.60243 18.3526C2.79497 18.5074 3.03423 18.5924 3.28125 18.5938H6.67188C6.93977 19.905 7.67915 21.0724 8.75 21.8751V54.6876C7.67915 55.4902 6.93977 56.6576 6.67188 57.9688H5.46875C5.17867 57.9688 4.90047 58.0841 4.69535 58.2892C4.49023 58.4943 4.375 58.7725 4.375 59.0626V62.3438H2.1875C1.89742 62.3438 1.61922 62.4591 1.4141 62.6642C1.20898 62.8693 1.09375 63.1475 1.09375 63.4376V67.8126C1.09375 68.1027 1.20898 68.3809 1.4141 68.586C1.61922 68.7911 1.89742 68.9063 2.1875 68.9063H67.8125C68.1026 68.9063 68.3808 68.7911 68.5859 68.586C68.791 68.3809 68.9062 68.1027 68.9062 67.8126V63.4376C68.9062 63.1475 68.791 62.8693 68.5859 62.6642C68.3808 62.4591 68.1026 62.3438 67.8125 62.3438ZM8.06094 16.4063L35 3.40164L61.9391 16.4063H8.06094ZM57.9688 55.7813C58.6457 55.7832 59.3055 55.9945 59.8577 56.3861C60.4099 56.7777 60.8275 57.3306 61.0531 57.9688H54.8844C55.11 57.3306 55.5276 56.7777 56.0798 56.3861C56.632 55.9945 57.2918 55.7832 57.9688 55.7813ZM56.875 53.7032V22.8595C57.5967 23.0068 58.3408 23.0068 59.0625 22.8595V53.7032C58.3408 53.5559 57.5967 53.5559 56.875 53.7032ZM57.9688 20.7813C57.2918 20.7794 56.632 20.5682 56.0798 20.1766C55.5276 19.7849 55.11 19.2321 54.8844 18.5938H61.0531C60.8275 19.2321 60.4099 19.7849 59.8577 20.1766C59.3055 20.5682 58.6457 20.7794 57.9688 20.7813ZM44.7781 37.1876C44.5679 35.3384 43.8315 33.5884 42.6562 32.1454L44.2422 30.6251C45.8136 32.4805 46.786 34.7685 47.0312 37.1876H44.7781ZM46.9656 39.3751C46.736 41.7881 45.783 44.0755 44.2312 45.9376L42.6562 44.4173C43.8315 42.9742 44.5679 41.2242 44.7781 39.3751H46.9656ZM41.125 30.6251C39.685 29.4517 37.9391 28.7154 36.0938 28.5032V26.3157C38.5067 26.5453 40.7941 27.4984 42.6562 29.0501L41.125 30.6251ZM35 45.9376C33.4857 45.9376 32.0055 45.4885 30.7464 44.6473C29.4874 43.806 28.506 42.6102 27.9265 41.2112C27.3471 39.8123 27.1954 38.2728 27.4909 36.7877C27.7863 35.3025 28.5155 33.9383 29.5862 32.8675C30.657 31.7968 32.0212 31.0676 33.5063 30.7722C34.9915 30.4768 36.5309 30.6284 37.9299 31.2079C39.3289 31.7874 40.5247 32.7687 41.3659 34.0277C42.2072 35.2868 42.6562 36.7671 42.6562 38.2813C42.6562 40.3119 41.8496 42.2593 40.4138 43.6951C38.978 45.1309 37.0306 45.9376 35 45.9376ZM36.0938 52.5001V53.7032C35.372 53.5559 34.628 53.5559 33.9062 53.7032V52.5001C34.2672 52.5001 34.6281 52.5001 35 52.5001C35.3719 52.5001 35.7328 52.5001 36.0938 52.5001ZM33.9062 24.172V22.8595C34.628 23.0068 35.372 23.0068 36.0938 22.8595V24.1173C35.7328 24.1173 35.3719 24.0626 35 24.0626C34.6281 24.0626 34.2672 24.0626 33.9062 24.1173V24.172ZM35 20.7813C34.323 20.7794 33.6632 20.5682 33.111 20.1766C32.5588 19.7849 32.1413 19.2321 31.9156 18.5938H38.0844C37.8587 19.2321 37.4412 19.7849 36.889 20.1766C36.3368 20.5682 35.677 20.7794 35 20.7813ZM33.9062 26.3048V28.4923C32.0559 28.7056 30.3058 29.4459 28.8641 30.6251L27.3438 29.0391C29.2059 27.4874 31.4932 26.5344 33.9062 26.3048ZM25.2219 37.1876H23.0344C23.264 34.7746 24.217 32.4872 25.7687 30.6251L27.3438 32.1454C26.1685 33.5884 25.4321 35.3384 25.2219 37.1876ZM27.3438 44.4173L25.7578 45.9376C24.2061 44.0755 23.253 41.7881 23.0234 39.3751H25.2109C25.4243 41.2254 26.1646 42.9755 27.3438 44.4173ZM31.7188 24.4563C28.614 25.2026 25.8509 26.9722 23.8743 29.4801C21.8978 31.988 20.823 35.0882 20.823 38.2813C20.823 41.4745 21.8978 44.5747 23.8743 47.0826C25.8509 49.5905 28.614 51.3601 31.7188 52.1063V54.6876C30.6479 55.4902 29.9085 56.6576 29.6406 57.9688H17.3906C17.1227 56.6576 16.3834 55.4902 15.3125 54.6876V21.8751C16.3834 21.0724 17.1227 19.905 17.3906 18.5938H29.6406C29.9085 19.905 30.6479 21.0724 31.7188 21.8751V24.4563ZM27.3438 47.5235L28.8641 45.9376C30.3071 47.1128 32.0571 47.8493 33.9062 48.0595V50.247C31.4945 50.0205 29.2072 49.0713 27.3438 47.5235ZM35 55.7813C35.677 55.7832 36.3368 55.9945 36.889 56.3861C37.4412 56.7777 37.8587 57.3306 38.0844 57.9688H31.9156C32.1413 57.3306 32.5588 56.7777 33.111 56.3861C33.6632 55.9945 34.323 55.7832 35 55.7813ZM36.0938 50.3126V48.1251C37.9499 47.896 39.7006 47.1365 41.1359 45.9376L42.6562 47.5235C40.8008 49.095 38.5128 50.0674 36.0938 50.3126ZM38.2812 52.161C41.386 51.4148 44.1491 49.6452 46.1257 47.1373C48.1022 44.6294 49.177 41.5292 49.177 38.336C49.177 35.1429 48.1022 32.0427 46.1257 29.5348C44.1491 27.0269 41.386 25.2573 38.2812 24.511V21.8751C39.3521 21.0724 40.0915 19.905 40.3594 18.5938H52.6094C52.8773 19.905 53.6166 21.0724 54.6875 21.8751V54.6876C53.6166 55.4902 52.8773 56.6576 52.6094 57.9688H40.3594C40.0915 56.6576 39.3521 55.4902 38.2812 54.6876V52.161ZM12.0312 55.7813C12.7082 55.7832 13.368 55.9945 13.9202 56.3861C14.4724 56.7777 14.89 57.3306 15.1156 57.9688H8.94688C9.17253 57.3306 9.59008 56.7777 10.1423 56.3861C10.6945 55.9945 11.3543 55.7832 12.0312 55.7813ZM10.9375 53.7032V22.8595C11.6592 23.0068 12.4033 23.0068 13.125 22.8595V53.7032C12.4033 53.5559 11.6592 53.5559 10.9375 53.7032ZM12.0312 20.7813C11.3543 20.7794 10.6945 20.5682 10.1423 20.1766C9.59008 19.7849 9.17253 19.2321 8.94688 18.5938H15.1156C14.89 19.2321 14.4724 19.7849 13.9202 20.1766C13.368 20.5682 12.7082 20.7794 12.0312 20.7813ZM6.5625 60.1563H63.4375V62.3438H6.5625V60.1563ZM66.7188 66.7188H3.28125V64.5313H66.7188V66.7188Z" fill="white"/>
<path d="M35.533 41.9934C35.4594 41.9929 35.3867 41.9773 35.3193 41.9475C35.252 41.9176 35.1914 41.8742 35.1415 41.8199L32.1556 38.5905C32.0559 38.4893 32 38.3526 32 38.2102C32 38.0678 32.0559 37.9311 32.1556 37.8299C32.2527 37.7386 32.381 37.6885 32.5139 37.6898H33.9936C34.2429 37.6853 34.4859 37.6104 34.6948 37.4735C34.9037 37.3366 35.07 37.1433 35.1747 36.9158H33.0447C32.9133 36.901 32.7919 36.8381 32.7038 36.739C32.6156 36.6399 32.5669 36.5116 32.5669 36.3787C32.5669 36.2457 32.6156 36.1174 32.7038 36.0183C32.7919 35.9192 32.9133 35.8563 33.0447 35.8415H35.2078C35.1022 35.6152 34.9355 35.4233 34.7267 35.2877C34.5178 35.152 34.2753 35.078 34.0268 35.0742H32.5471C32.4157 35.0595 32.2943 34.9965 32.2061 34.8975C32.118 34.7984 32.0692 34.6701 32.0692 34.5371C32.0692 34.4042 32.118 34.2759 32.2061 34.1768C32.2943 34.0777 32.4157 34.0147 32.5471 34H37.1918C37.3232 34.0147 37.4446 34.0777 37.5327 34.1768C37.6209 34.2759 37.6696 34.4042 37.6696 34.5371C37.6696 34.6701 37.6209 34.7984 37.5327 34.8975C37.4446 34.9965 37.3232 35.0595 37.1918 35.0742H36.0041C36.158 35.308 36.2682 35.568 36.3292 35.8415H37.2051C37.3365 35.8563 37.4578 35.9192 37.546 36.0183C37.6342 36.1174 37.6829 36.2457 37.6829 36.3787C37.6829 36.5116 37.6342 36.6399 37.546 36.739C37.4578 36.8381 37.3365 36.901 37.2051 36.9158H36.3358C36.2146 37.4405 35.9205 37.9087 35.5014 38.2442C35.0822 38.5797 34.5625 38.7629 34.0268 38.764H33.7746L35.9576 41.126C36.0569 41.226 36.1126 41.3616 36.1126 41.5029C36.1126 41.6443 36.0569 41.7799 35.9576 41.8799C35.8986 41.9275 35.8303 41.9621 35.7572 41.9817C35.6841 42.0012 35.6077 42.0052 35.533 41.9934Z" fill="white"/>
</svg>
