<svg width="70" height="70" viewBox="0 0 70 70" fill="none" xmlns="http://www.w3.org/2000/svg">
<g clip-path="url(#clip0_1225_78)">
<path d="M70 43.1667C70 42.5224 69.4776 42 68.8333 42H60.6667V33.8333C60.6667 33.1891 60.1443 32.6667 59.5 32.6667H58.3333V25.6667H59.5C60.1443 25.6667 60.6667 25.1443 60.6667 24.5V19.8333C60.6667 19.1891 60.1443 18.6667 59.5 18.6667H58.3333V15.1667C58.3333 14.5224 57.8109 14 57.1667 14H57.1365C57.9084 12.9963 58.3288 11.7664 58.3333 10.5C58.3094 7.50417 56.0194 5.01304 53.036 4.73789C50.0527 4.46275 47.3457 6.49245 46.7738 9.43361C45.2322 8.23561 43.4128 7.4472 41.4844 7.14129L44.2165 1.68792C44.3977 1.32562 44.3778 0.894956 44.1636 0.550311C43.9494 0.206236 43.5723 -0.00226016 43.1667 1.84874e-05H26.8333C26.4289 1.84874e-05 26.0535 0.209084 25.8404 0.55316C25.6279 0.896666 25.6086 1.32619 25.7891 1.68792L28.5155 7.14129C25.2992 7.64715 22.4407 9.47577 20.6326 12.1834L22.5717 13.4833C24.3018 10.8885 27.215 9.33107 30.3333 9.33335C30.7389 9.33563 31.116 9.12713 31.3302 8.78306C31.5444 8.43841 31.5644 8.00775 31.3832 7.64544L28.7212 2.33335H41.2788L38.6168 7.64544C38.4356 8.00775 38.4556 8.43841 38.6698 8.78306C38.8839 9.12713 39.2611 9.33563 39.6667 9.33335C44.8187 9.33905 48.9943 13.5147 49 18.6667V36.1667C49 36.5569 49.1948 36.9209 49.519 37.1374L51.666 38.5689C52.3519 39.0258 52.6589 39.8774 52.4214 40.667C52.1838 41.4566 51.4575 41.9977 50.6332 42H21V39.6667H22.1667C22.8109 39.6667 23.3333 39.1443 23.3333 38.5V33.8333C23.3333 33.1891 22.8109 32.6667 22.1667 32.6667H21V25.6667H22.1667C22.8109 25.6667 23.3333 25.1443 23.3333 24.5V19.8333C23.3333 19.1891 22.8109 18.6667 22.1667 18.6667H21V15.1667C21 14.5224 20.4776 14 19.8333 14H10.5C9.85571 14 9.33333 14.5224 9.33333 15.1667V19.8333C9.33333 20.4776 9.85571 21 10.5 21H11.6667V23.3333H10.5C9.85571 23.3333 9.33333 23.8557 9.33333 24.5V33.8333C9.33333 34.4776 9.85571 35 10.5 35H11.6667V37.3333H10.5C9.85571 37.3333 9.33333 37.8557 9.33333 38.5V42H1.16667C0.522379 42 0 42.5224 0 43.1667C0.00683594 47.794 3.038 51.8734 7.46655 53.2149C6.42749 54.1543 5.8339 55.4896 5.83333 56.8904V57.1433C5.82593 59.0323 6.89347 60.7607 8.58537 61.5998L22.1889 68.4015C24.2961 69.4509 26.618 69.9977 28.9718 70H68.8333C69.4776 70 70 69.4776 70 68.8333V52.5C70 51.8557 69.4776 51.3333 68.8333 51.3333H66.0858C68.5599 49.3441 69.9994 46.3414 70 43.1667ZM51.3333 30.3333H56V32.6667H51.3333V30.3333ZM56 28H51.3333V25.6667H56V28ZM58.3333 23.3333H51.3333V21H58.3333V23.3333ZM51.3333 18.6667C51.331 17.8828 51.2501 17.1013 51.0906 16.3333H56V18.6667H51.3333ZM52.5 7.00002C54.4328 7.00002 56 8.56716 56 10.5C56 12.4329 54.4328 14 52.5 14C50.5671 14 49 12.4329 49 10.5C49 8.56716 50.5671 7.00002 52.5 7.00002ZM51.3333 35.5423V35H58.3333V37.3333H53.7669C53.5288 37.0667 53.2582 36.8315 52.9608 36.6332L51.3333 35.5423ZM54.7764 39.6667H58.3333V42H54.3736C54.671 41.4224 54.8282 40.7832 54.8333 40.1332C54.8231 39.9766 54.8043 39.8211 54.7764 39.6667ZM11.6667 32.6667V30.3333H18.6667V32.6667H11.6667ZM11.6667 16.3333H18.6667V18.6667H11.6667V16.3333ZM14 21H21V23.3333H14V21ZM11.6667 25.6667H18.6667V28H11.6667V25.6667ZM14 35H21V37.3333H14V35ZM11.6667 39.6667H18.6667V42H11.6667V39.6667ZM23.4968 57.2225L15.7312 53.6667H23.9822C23.3413 54.7359 23.1664 56.0211 23.4968 57.2225ZM23.2319 66.312L9.62955 59.5103C8.73063 59.0654 8.16268 58.1471 8.16667 57.1433V56.8904C8.16439 55.988 8.62239 55.1472 9.38118 54.6596C10.1405 54.1725 11.0959 54.1059 11.915 54.4836L25.1813 60.5596C25.3334 60.6296 25.4992 60.6667 25.6667 60.6667H37.3333C37.9776 60.6667 38.5 60.1443 38.5 59.5C38.5 58.8557 37.9776 58.3333 37.3333 58.3333H28C26.7114 58.3333 25.6667 57.2886 25.6667 56C25.6667 54.7114 26.7114 53.6667 28 53.6667H36.9448C37.1408 53.6667 37.3333 53.6177 37.5048 53.5231L37.7999 53.3608C42.3634 50.8497 47.8806 50.7865 52.5 53.1933V67.6667H28.9718C26.9797 67.6644 25.015 67.2007 23.2319 66.312ZM67.6666 53.6667V67.6667H54.8333V53.6667H67.6666ZM53.9549 51.3333C48.5819 48.3626 42.0609 48.3551 36.6811 51.3134L28 51.3333H10.5C6.4423 51.3282 3.00155 48.3489 2.41593 44.3333H67.5841C66.9984 48.3489 63.5577 51.3282 59.5 51.3333H53.9549Z" fill="white"/>
<path d="M61.8337 62.9998C61.8337 64.2884 60.7889 65.3332 59.5003 65.3332C58.2118 65.3332 57.167 64.2884 57.167 62.9998C57.167 61.7113 58.2118 60.6665 59.5003 60.6665C60.7889 60.6665 61.8337 61.7113 61.8337 62.9998Z" fill="white"/>
<path d="M36.1239 32.9892C36.0043 32.9885 35.8861 32.9631 35.7767 32.9146C35.6673 32.8661 35.5689 32.7956 35.4877 32.7073L30.6357 27.4596C30.4737 27.2951 30.3828 27.073 30.3828 26.8416C30.3828 26.6101 30.4737 26.388 30.6357 26.2235C30.7935 26.0753 31.002 25.9938 31.2179 25.9958H33.6224C34.0275 25.9887 34.4224 25.8669 34.7618 25.6445C35.1013 25.422 35.3715 25.1079 35.5416 24.7381H32.0805C31.867 24.7142 31.6697 24.6119 31.5265 24.4509C31.3832 24.2898 31.304 24.0814 31.304 23.8653C31.304 23.6493 31.3832 23.4408 31.5265 23.2798C31.6697 23.1187 31.867 23.0165 32.0805 22.9925H35.5955C35.4239 22.6248 35.153 22.3129 34.8136 22.0924C34.4743 21.872 34.0802 21.7518 33.6763 21.7456H31.2718C31.0583 21.7217 30.861 21.6194 30.7178 21.4584C30.5745 21.2973 30.4953 21.0889 30.4953 20.8728C30.4953 20.6568 30.5745 20.4483 30.7178 20.2873C30.861 20.1262 31.0583 20.024 31.2718 20H38.8195C39.033 20.024 39.2302 20.1262 39.3735 20.2873C39.5167 20.4483 39.5959 20.6568 39.5959 20.8728C39.5959 21.0889 39.5167 21.2973 39.3735 21.4584C39.2302 21.6194 39.033 21.7217 38.8195 21.7456H36.8894C37.1396 22.1254 37.3186 22.548 37.4178 22.9925H38.841C39.0546 23.0165 39.2518 23.1187 39.3951 23.2798C39.5383 23.4408 39.6175 23.6493 39.6175 23.8653C39.6175 24.0814 39.5383 24.2898 39.3951 24.4509C39.2518 24.6119 39.0546 24.7142 38.841 24.7381H37.4285C37.2316 25.5909 36.7537 26.3516 36.0725 26.8969C35.3913 27.4421 34.5469 27.7397 33.6763 27.7415H33.2666L36.8139 31.5797C36.9753 31.7423 37.0659 31.9626 37.0659 32.1923C37.0659 32.422 36.9753 32.6423 36.8139 32.8049C36.718 32.8822 36.6071 32.9385 36.4882 32.9702C36.3694 33.0019 36.2453 33.0084 36.1239 32.9892Z" fill="white"/>
</g>
<defs>
<clipPath id="clip0_1225_78">
<rect width="70" height="70" fill="white"/>
</clipPath>
</defs>
</svg>
