<svg width="70" height="70" viewBox="0 0 70 70" fill="none" xmlns="http://www.w3.org/2000/svg">
<path d="M52.3945 12.1625C49.7956 5.07268 42.9789 0 34.9996 0C31.7513 0 28.5554 0.853398 25.7573 2.46777C25.2658 2.75133 25.0972 3.37969 25.3809 3.87105C25.6643 4.36242 26.2927 4.531 26.7842 4.24744C29.2705 2.81285 32.1113 2.05461 34.9996 2.05461C44.0779 2.05461 51.4637 9.44043 51.4637 18.5187C51.4637 27.597 44.0779 34.9828 34.9996 34.9828C25.9213 34.9828 18.5355 27.597 18.5355 18.5187C18.5355 13.9497 20.3636 9.70279 23.6831 6.56018C24.0952 6.17012 24.1129 5.51988 23.7229 5.10781C23.3331 4.69588 22.6827 4.67811 22.2705 5.06803C20.1388 7.086 18.5551 9.50947 17.5875 12.1737C8.73797 18.0429 3.46582 27.8432 3.46582 38.466C3.46582 46.8889 6.74598 54.8078 12.7019 60.7637C18.6577 66.7198 26.5766 70 34.9996 70C41.6127 70 47.9432 67.9752 53.3071 64.1443C53.7688 63.8146 53.8757 63.1729 53.5459 62.7113C53.2161 62.2495 52.5744 62.1422 52.1127 62.4723C48.788 64.8468 45.0654 66.478 41.1317 67.3081C44.7684 63.9335 47.6257 57.6142 49.0279 49.6625H62.2777C62.1884 49.8797 62.0971 50.0962 62.0025 50.3117C60.4149 53.9252 58.151 57.1401 55.2733 59.8671C54.8615 60.2574 54.844 60.9077 55.2342 61.3195C55.6251 61.7319 56.2755 61.7483 56.6867 61.3586C59.7641 58.4422 62.1854 55.0036 63.8836 51.1381C65.642 47.1361 66.5335 42.8727 66.5335 38.4664C66.5335 27.8365 61.2544 18.0303 52.3945 12.1625ZM53.5184 18.5188C53.5184 17.4229 53.4222 16.3491 53.2387 15.305C57.2846 18.4875 60.3723 22.6162 62.2791 27.2698H51.3164C52.7205 24.6623 53.5184 21.6821 53.5184 18.5188ZM47.6074 32.0697C47.7024 33.0293 47.7755 34.0024 47.8274 34.9829H43.472C44.9832 34.202 46.3734 33.2187 47.6074 32.0697ZM22.3918 32.0697C23.6258 33.2187 25.0158 34.202 26.5271 34.9829H22.1718C22.2238 34.0024 22.2969 33.0293 22.3918 32.0697ZM16.755 15.3092C16.574 16.3573 16.4806 17.4299 16.4806 18.5188C16.4806 21.6821 17.2785 24.6623 18.6826 27.2698H7.72023C9.62609 22.6182 12.7118 18.4912 16.755 15.3092ZM5.52057 38.4662C5.52057 35.3102 6.01904 32.2321 6.96363 29.3247H19.9694C20.1563 29.5837 20.3498 29.8378 20.5494 30.0866C20.3451 31.6813 20.1991 33.3222 20.1138 34.9829H18.4395C16.5189 34.9829 14.9562 36.5456 14.9562 38.4662C14.9562 40.3869 16.5189 41.9496 18.4395 41.9496H20.1124C20.2118 43.9003 20.3917 45.7912 20.6462 47.6077H6.95967C6.01316 44.6942 5.52057 41.6181 5.52057 38.4662ZM14.1548 59.3111C11.347 56.5034 9.17643 53.2286 7.71326 49.6625H20.9712C22.3735 57.6144 25.2308 63.9338 28.8676 67.3083C23.3331 66.1432 18.2477 63.404 14.1548 59.3111ZM43.563 60.3806C41.1589 65.2587 38.1176 67.9453 34.9996 67.9453C31.8816 67.9453 28.8404 65.2587 26.4363 60.3806C24.949 57.3627 23.8052 53.7013 23.0632 49.6624H46.936C46.194 53.7013 45.0502 57.3627 43.563 60.3806ZM31.8892 41.9496H47.8287C47.7266 43.8849 47.5403 45.7786 47.2737 47.6077H22.7255C22.4589 45.7786 22.2726 43.8849 22.1705 41.9496H27.7796C28.347 41.9496 28.8071 41.4895 28.8071 40.9221C28.8071 40.3547 28.347 39.8947 27.7796 39.8947H18.4397C17.652 39.8947 17.0111 39.2539 17.0111 38.4661C17.0111 37.6785 17.6519 37.0375 18.4397 37.0375H51.5597C52.3473 37.0375 52.9881 37.6783 52.9881 38.4661C52.9881 39.2537 52.3473 39.8947 51.5597 39.8947H31.8892C31.3219 39.8947 30.8618 40.3547 30.8618 40.9221C30.8618 41.4895 31.3217 41.9496 31.8892 41.9496ZM63.0338 47.6077H49.3527C49.607 45.7912 49.7871 43.9003 49.8865 41.9496H51.5597C53.4803 41.9496 55.043 40.3869 55.043 38.4662C55.043 36.5456 53.4803 34.9829 51.5597 34.9829H49.8851C49.7999 33.3222 49.6538 31.6814 49.4497 30.0865C49.6493 29.8376 49.8427 29.5837 50.0296 29.3247H63.0355C63.9803 32.2321 64.4786 35.3104 64.4786 38.4662C64.4786 41.6082 63.9926 44.6713 63.0338 47.6077Z" fill="white"/>
<path d="M34.9992 31.9145C42.3856 31.9145 48.3949 25.9051 48.3949 18.5187C48.3949 11.1324 42.3856 5.12305 34.9992 5.12305C27.6129 5.12305 21.6035 11.1324 21.6035 18.5187C21.6035 25.9053 27.6127 31.9145 34.9992 31.9145ZM34.9992 7.17793C41.2527 7.17793 46.3402 12.2654 46.3402 18.5189C46.3402 24.7723 41.2527 29.8598 34.9992 29.8598C28.7458 29.8598 23.6583 24.7724 23.6583 18.5189C23.6583 12.2654 28.7457 7.17793 34.9992 7.17793Z" fill="white"/>
<path d="M36.5895 24.99C36.4791 24.9894 36.37 24.966 36.269 24.9212C36.168 24.8764 36.0772 24.8113 36.0023 24.7298L31.5234 19.8858C31.3739 19.734 31.29 19.5289 31.29 19.3153C31.29 19.1016 31.3739 18.8966 31.5234 18.7448C31.6691 18.608 31.8616 18.5327 32.0609 18.5346H34.2804C34.6543 18.528 35.0189 18.4156 35.3322 18.2103C35.6455 18.0049 35.895 17.715 36.052 17.3737H32.8571C32.66 17.3515 32.4779 17.2571 32.3457 17.1085C32.2135 16.9599 32.1404 16.7674 32.1404 16.568C32.1404 16.3686 32.2135 16.1761 32.3457 16.0275C32.4779 15.8788 32.66 15.7844 32.8571 15.7623H36.1018C35.9433 15.4229 35.6933 15.135 35.38 14.9315C35.0668 14.728 34.703 14.6171 34.3302 14.6113H32.1107C31.9136 14.5892 31.7315 14.4948 31.5992 14.3462C31.467 14.1975 31.3939 14.0051 31.3939 13.8057C31.3939 13.6062 31.467 13.4138 31.5992 13.2652C31.7315 13.1165 31.9136 13.0221 32.1107 13H39.0777C39.2748 13.0221 39.4569 13.1165 39.5891 13.2652C39.7214 13.4138 39.7945 13.6062 39.7945 13.8057C39.7945 14.0051 39.7214 14.1975 39.5891 14.3462C39.4569 14.4948 39.2748 14.5892 39.0777 14.6113H37.2961C37.527 14.9619 37.6923 15.352 37.7838 15.7623H39.0976C39.2947 15.7844 39.4768 15.8788 39.609 16.0275C39.7413 16.1761 39.8144 16.3686 39.8144 16.568C39.8144 16.7674 39.7413 16.9599 39.609 17.1085C39.4768 17.2571 39.2947 17.3515 39.0976 17.3737H37.7938C37.612 18.1608 37.1708 18.8631 36.5421 19.3663C35.9133 19.8696 35.1338 20.1444 34.3302 20.146H33.952L37.2265 23.6889C37.3754 23.839 37.459 24.0424 37.459 24.2544C37.459 24.4664 37.3754 24.6698 37.2265 24.8199C37.1379 24.8912 37.0355 24.9432 36.9258 24.9725C36.8161 25.0018 36.7016 25.0078 36.5895 24.99Z" fill="white"/>
</svg>
