<svg width="70" height="70" viewBox="0 0 70 70" fill="none" xmlns="http://www.w3.org/2000/svg">
<path fill-rule="evenodd" clip-rule="evenodd" d="M34.0576 65.6461H5.60698C5.00342 65.6461 4.51367 65.1566 4.51367 64.5532V5.47758C4.51367 5.16533 4.64575 4.86995 4.87945 4.65896C5.11112 4.4522 5.42204 4.35515 5.73297 4.3889L34.1836 7.67182C34.7343 7.73512 35.1509 8.2035 35.1509 8.7605V38.522C36.3885 36.7117 37.9899 35.1757 39.8758 34.0575C40.5444 30.2894 39.8351 26.2174 36.734 21.4111C36.5267 21.0947 36.5023 20.6896 36.6649 20.3478C36.8275 20.006 37.1567 19.7739 37.5347 19.7317C41.5889 19.2886 44.7774 20.39 46.9274 22.3648C47.9537 23.3015 48.7483 24.4451 49.2888 25.7363C49.2929 24.1497 48.7442 22.7488 48.0309 21.3056C47.8684 20.9765 47.8806 20.5883 48.0655 20.2718C48.2484 19.9511 48.5796 19.7486 48.9454 19.7275C52.6176 19.508 55.7674 20.2127 57.6493 21.0862C58.6247 21.5419 59.2953 22.0736 59.6368 22.5462C59.7485 22.7024 59.8156 22.888 59.8359 23.0779C60.3135 27.8293 59.2852 31.0911 57.003 34.3445C59.3726 35.872 61.2584 38.0704 62.4879 40.6487C65.144 46.1976 65.906 52.2022 65.3492 58.5148C65.2232 60.1943 64.5343 61.802 63.3679 63.0763C61.8742 64.7093 59.7383 65.6461 57.4928 65.6461H38.9227C37.5855 65.6461 36.289 65.317 35.1408 64.7009C35.0696 65.2368 34.6104 65.6461 34.0576 65.6461ZM32.9643 43.21V9.73525L6.70028 6.70552V63.4603H11.0776V49.2358C11.0776 48.6323 11.5674 48.1428 12.173 48.1428H27.4916C28.0972 48.1428 28.587 48.6323 28.587 49.2358V63.4603H32.9643V62.9835C31.5174 61.3505 30.8427 59.1984 31.0987 57.0548L32.4501 45.7672C32.5558 44.8979 32.7265 44.0413 32.9643 43.21ZM42.1274 33.8381C46.3605 35.5766 50.5955 35.4922 54.8286 33.6102C54.8326 33.606 54.8347 33.606 54.8387 33.606C57.0112 30.686 58.0435 27.8293 57.6879 23.6391C57.3526 23.3311 56.7531 23.0441 55.9869 22.7699C54.6335 22.2804 52.7964 21.9175 50.6911 21.8795C51.764 24.5421 52.0424 27.2723 49.9676 31.0151C49.7217 31.4624 49.2035 31.6776 48.7137 31.5384C48.226 31.3991 47.8948 30.9434 47.9171 30.437C48.033 27.8715 47.1713 25.5549 45.4501 23.9767C44.0214 22.6686 42.0177 21.8795 39.5404 21.8289C42.0482 26.2891 42.6476 30.2007 42.1274 33.8381ZM35.1509 62.0763C36.1873 62.9624 37.5265 63.4603 38.9227 63.4603H57.4928C59.1206 63.4603 60.6711 62.7852 61.7523 61.6037C62.5855 60.6922 63.0793 59.5444 63.1667 58.3418C63.1687 58.3376 63.1687 58.3334 63.1687 58.3292C63.691 52.4132 63 46.7883 60.5126 41.5897C59.3583 39.1718 57.5334 37.1337 55.2208 35.8214C50.5447 37.7624 45.8707 37.7709 41.1946 35.8214C38.2886 37.4713 36.1528 40.2605 35.1509 43.5265C34.905 44.3325 34.7262 45.1722 34.6225 46.0288L33.2712 57.3165C33.0862 58.8735 33.5943 60.4306 34.6632 61.6037C34.8176 61.7682 34.9802 61.9286 35.1509 62.0763ZM20.9256 63.4603H26.3983V50.3329H20.9256V63.4603ZM13.2663 63.4603H18.739V50.3329H13.2663V63.4603ZM12.173 39.3912C11.5694 39.3912 11.0776 38.9017 11.0776 38.2983C11.0776 37.6949 11.5694 37.2054 12.173 37.2054H27.4916C28.0952 37.2054 28.587 37.6949 28.587 38.2983C28.587 38.9017 28.0952 39.3912 27.4916 39.3912H12.173ZM12.173 17.5121C11.5694 17.5121 11.0776 17.0227 11.0776 16.4192C11.0776 15.8158 11.5694 15.3221 12.173 15.3221H27.4916C28.0952 15.3221 28.587 15.8158 28.587 16.4192C28.587 17.0227 28.0952 17.5121 27.4916 17.5121H12.173ZM12.173 21.888C11.5694 21.888 11.0776 21.3985 11.0776 20.7951C11.0776 20.1916 11.5694 19.6979 12.173 19.6979H27.4916C28.0952 19.6979 28.587 20.1916 28.587 20.7951C28.587 21.3985 28.0952 21.888 27.4916 21.888H12.173ZM12.173 26.2638C11.5694 26.2638 11.0776 25.7743 11.0776 25.1709C11.0776 24.5675 11.5694 24.0737 12.173 24.0737H27.4916C28.0952 24.0737 28.587 24.5675 28.587 25.1709C28.587 25.7743 28.0952 26.2638 27.4916 26.2638H12.173ZM12.173 35.0154C11.5694 35.0154 11.0776 34.5259 11.0776 33.9225C11.0776 33.3191 11.5694 32.8254 12.173 32.8254H27.4916C28.0952 32.8254 28.587 33.3191 28.587 33.9225C28.587 34.5259 28.0952 35.0154 27.4916 35.0154H12.173ZM12.173 30.6396C11.5694 30.6396 11.0776 30.1501 11.0776 29.5467C11.0776 28.9433 11.5694 28.4496 12.173 28.4496H27.4916C28.0952 28.4496 28.587 28.9433 28.587 29.5467C28.587 30.1501 28.0952 30.6396 27.4916 30.6396H12.173ZM12.173 43.767C11.5694 43.767 11.0776 43.2776 11.0776 42.6741C11.0776 42.0707 11.5694 41.5812 12.173 41.5812H27.4916C28.0952 41.5812 28.587 42.0707 28.587 42.6741C28.587 43.2776 28.0952 43.767 27.4916 43.767H12.173ZM48.3662 39.9609C54.3307 39.9609 59.1734 44.8009 59.1734 50.7633C59.1734 56.7257 54.3307 61.5699 48.3662 61.5699C42.4018 61.5699 37.5591 56.7257 37.5591 50.7633C37.5591 44.8009 42.4018 39.9609 48.3662 39.9609ZM48.3662 42.1467C43.6089 42.1467 39.7477 46.0077 39.7477 50.7633C39.7477 55.5189 43.6089 59.3799 48.3662 59.3799C53.1216 59.3799 56.9847 55.5189 56.9847 50.7633C56.9847 46.0077 53.1216 42.1467 48.3662 42.1467Z" fill="white"/>
<path d="M49.2994 56.99C49.1891 56.9894 49.08 56.966 48.979 56.9212C48.878 56.8764 48.7872 56.8113 48.7122 56.7298L44.2334 51.8858C44.0839 51.734 44 51.5289 44 51.3153C44 51.1016 44.0839 50.8966 44.2334 50.7448C44.3791 50.608 44.5715 50.5327 44.7709 50.5346H46.9904C47.3643 50.528 47.7288 50.4156 48.0422 50.2103C48.3555 50.0049 48.605 49.715 48.762 49.3737H45.5671C45.37 49.3515 45.1879 49.2571 45.0557 49.1085C44.9234 48.9599 44.8503 48.7674 44.8503 48.568C44.8503 48.3686 44.9234 48.1761 45.0557 48.0275C45.1879 47.8788 45.37 47.7844 45.5671 47.7623H48.8118C48.6533 47.4229 48.4032 47.135 48.09 46.9315C47.7768 46.728 47.413 46.6171 47.0401 46.6113H44.8206C44.6235 46.5892 44.4414 46.4948 44.3092 46.3462C44.177 46.1975 44.1039 46.0051 44.1039 45.8057C44.1039 45.6062 44.177 45.4138 44.3092 45.2652C44.4414 45.1165 44.6235 45.0221 44.8206 45H51.7877C51.9848 45.0221 52.1669 45.1165 52.2991 45.2652C52.4313 45.4138 52.5044 45.6062 52.5044 45.8057C52.5044 46.0051 52.4313 46.1975 52.2991 46.3462C52.1669 46.4948 51.9848 46.5892 51.7877 46.6113H50.0061C50.237 46.9619 50.4023 47.352 50.4938 47.7623H51.8076C52.0047 47.7844 52.1868 47.8788 52.319 48.0275C52.4512 48.1761 52.5243 48.3686 52.5243 48.568C52.5243 48.7674 52.4512 48.9599 52.319 49.1085C52.1868 49.2571 52.0047 49.3515 51.8076 49.3737H50.5038C50.3219 50.1608 49.8808 50.8631 49.252 51.3663C48.6233 51.8696 47.8438 52.1444 47.0401 52.146H46.6619L49.9364 55.6889C50.0853 55.839 50.169 56.0424 50.169 56.2544C50.169 56.4664 50.0853 56.6698 49.9364 56.8199C49.8479 56.8912 49.7455 56.9432 49.6358 56.9725C49.5261 57.0018 49.4116 57.0078 49.2994 56.99Z" fill="white"/>
</svg>
